<?xml version="1.0" standalone="no"?>
<!DOCTYPE svg PUBLIC "-//W3C//DTD SVG 1.1//EN" "http://www.w3.org/Graphics/SVG/1.1/DTD/svg11.dtd" >
<svg xmlns="http://www.w3.org/2000/svg" xmlns:xlink="http://www.w3.org/1999/xlink" version="1.1">
<metadata>
Created by FontForge 20170731 at Thu Apr 21 13:14:26 2022
 By Aleksey,,,
Copyright 2011 The Maven Pro Project Authors (http://www.vissol.co.uk/mavenpro/), with Reserved Font Name "Maven Pro".
</metadata>
<defs>
<font id="MavenPro-Bold" horiz-adv-x="0" >
  <font-face 
    font-family="Maven Pro"
    font-weight="700"
    font-stretch="normal"
    units-per-em="1000"
    panose-1="0 0 0 0 0 0 0 0 0 0"
    ascent="800"
    descent="-200"
    x-height="506"
    cap-height="667"
    bbox="-80 -223 1289 1054"
    underline-thickness="50"
    underline-position="-175"
    unicode-range="U+000D-FB02"
  />
<missing-glyph horiz-adv-x="500" 
 />
    <glyph glyph-name="fi" unicode="fi" horiz-adv-x="674" 
d="M104 0v392h-75v114h76v12q0 49 10 84t28 58.5t42 36.5t53 18.5t60 5.5q16 0 35 -2.5t31 -7.5v-132q-9 11 -20 17t-30 6q-13 0 -24 -3t-19 -10t-12.5 -20t-4.5 -33v-30h110v-114h-111v-392h-149zM457 0v499h149l1 -499h-150zM454 575v115h154v-115h-154z" />
    <glyph glyph-name="fl" unicode="fl" horiz-adv-x="668" 
d="M104 0v392h-75v114h76v12q0 49 10 84t28 58.5t42 36.5t53 18.5t60 5.5q16 0 35 -2.5t31 -7.5v-132q-9 11 -20 17t-30 6q-13 0 -24 -3t-19 -10t-12.5 -20t-4.5 -33v-30h110v-114h-111v-392h-149zM602 0h-148v697h148v-697z" />
    <glyph glyph-name=".notdef" horiz-adv-x="500" 
 />
    <glyph glyph-name=".null" 
 />
    <glyph glyph-name="nonmarkingreturn" horiz-adv-x="333" 
 />
    <glyph glyph-name="NULL" 
 />
    <glyph glyph-name="NULL" 
 />
    <glyph glyph-name="CR" unicode="&#xd;" horiz-adv-x="276" 
 />
    <glyph glyph-name="space" unicode=" " horiz-adv-x="276" 
 />
    <glyph glyph-name="exclam" unicode="!" horiz-adv-x="413" 
d="M158 184l-17 483h143l-18 -483h-108zM146 0v114h132v-114h-132z" />
    <glyph glyph-name="quotedbl" unicode="&#x22;" horiz-adv-x="422" 
d="M245 475l-17 201h111l-17 -201h-77zM99 475l-18 201h112l-17 -201h-77z" />
    <glyph glyph-name="numbersign" unicode="#" horiz-adv-x="618" 
d="M129 19l19 103h-75v82h88l23 130h-84v82h97l19 106h86l-19 -106h114l19 106h85l-19 -106h64v-82h-77l-23 -130h73v-82h-87l-18 -103h-85l18 103h-115l-17 -103h-86zM246 204h116l21 130h-114z" />
    <glyph glyph-name="dollar" unicode="$" horiz-adv-x="577" 
d="M238 620v134h114v-134h-114zM238 -98v138h114v-138h-114zM295 -14q-51 0 -92 5t-76 15t-68 26v154q46 -37 104 -56t110 -19q46 0 70.5 17.5t24.5 53.5q0 27 -22.5 43.5t-59.5 29t-83 28.5q-29 9 -57 23t-50 35.5t-35 52.5t-13 76q0 41 15 79t46.5 68t80.5 47.5t115 17.5
q41 0 72.5 -5t60.5 -14.5t59 -24.5v-156q-23 19 -51.5 35.5t-59.5 27.5t-65 12q-30 1 -55 -6t-39 -22.5t-14 -39.5q0 -28 17 -44t47 -26.5t67 -22.5q41 -12 75.5 -26.5t60.5 -36.5t40 -54t14 -77q0 -60 -28 -109.5t-81 -78t-130 -28.5z" />
    <glyph glyph-name="percent" unicode="%" horiz-adv-x="822" 
d="M190 311q-87 0 -126 46.5t-39 137.5t39 137.5t126 46.5q88 0 126.5 -46.5t38.5 -137.5t-38.5 -137.5t-126.5 -46.5zM190 396q13 0 26 7t22.5 29t9.5 63q0 42 -9.5 63t-22.5 28.5t-26 7.5q-12 0 -26 -7.5t-23.5 -28.5t-9.5 -63q0 -41 9.5 -63t23.5 -29t26 -7zM632 -11
q-87 0 -126 46.5t-39 137.5t39 137.5t126 46.5q88 0 126.5 -46.5t38.5 -137.5t-38.5 -137.5t-126.5 -46.5zM632 74q13 0 26 7t22.5 29t9.5 63q0 42 -9.5 63t-22.5 28.5t-26 7.5q-12 0 -26 -7.5t-23.5 -28.5t-9.5 -63q0 -41 9.5 -63t23.5 -29t26 -7zM152 -22l407 707h107
l-407 -707h-107z" />
    <glyph glyph-name="ampersand" unicode="&#x26;" horiz-adv-x="685" 
d="M469 0l-305 368q-20 26 -40.5 62.5t-20.5 73.5q0 47 27.5 86.5t76.5 64.5t110 25t105.5 -21.5t69 -58.5t24.5 -84q0 -44 -20.5 -76t-57.5 -58.5t-86 -54.5l-56 83q32 17 49.5 32t24.5 29.5t7 29.5q0 25 -16.5 40t-43.5 15q-25 0 -42.5 -16t-17.5 -40q0 -11 7.5 -26
t18 -28.5t18.5 -22.5l349 -423h-181zM254 -13q-50 0 -89.5 15t-67.5 41t-42 58.5t-14 68.5q0 34 14.5 69.5t49 68.5t93.5 59l91 -73q-27 -15 -46.5 -34.5t-29.5 -39t-10 -36.5q0 -11 3 -24.5t11.5 -26t25 -20.5t43.5 -8q30 0 60 18t47 40l74 -90q-21 -23 -49.5 -42.5
t-68 -31.5t-95.5 -12zM455 211q13 17 21.5 37t12.5 36t5 19h110q-6 -35 -26.5 -81t-47.5 -87z" />
    <glyph glyph-name="quotesingle" unicode="'" horiz-adv-x="274" 
d="M99 475l-18 201h112l-17 -201h-77z" />
    <glyph glyph-name="parenleft" unicode="(" horiz-adv-x="354" 
d="M200 -113q-34 39 -68 101.5t-57 143.5t-23 174t23 173.5t57 143t68 101.5h124q-13 -26 -31 -67.5t-35.5 -95.5t-28.5 -118.5t-11 -136.5t11 -136.5t28.5 -119t35.5 -96t31 -67.5h-124z" />
    <glyph glyph-name="parenright" unicode=")" horiz-adv-x="354" 
d="M30 -113q13 26 31.5 67.5t35.5 95.5t28.5 118.5t11.5 136.5t-11.5 136.5t-28.5 119t-35.5 96t-31.5 67.5h125q34 -39 68 -101.5t56.5 -143t22.5 -174.5q0 -93 -22.5 -173.5t-56.5 -143t-68 -101.5h-125z" />
    <glyph glyph-name="asterisk" unicode="*" horiz-adv-x="412" 
d="M172 460l7 72l-60 -44l-35 62l80 31l-80 31l35 62l60 -44l-7 72h71l-6 -72l60 44l34 -62l-79 -31l79 -31l-34 -62l-60 44l6 -72h-71z" />
    <glyph glyph-name="plus" unicode="+" horiz-adv-x="551" 
d="M227 119v132h-133v96h133v133h96v-133h132v-96h-132v-132h-96z" />
    <glyph glyph-name="comma" unicode="," horiz-adv-x="351" 
d="M74 -112l74 196h122l-92 -196h-104z" />
    <glyph glyph-name="hyphen" unicode="-" horiz-adv-x="464" 
d="M79 255v103h305v-103h-305z" />
    <glyph glyph-name="period" unicode="." horiz-adv-x="263" 
d="M59 0v141h145v-141h-145z" />
    <glyph glyph-name="slash" unicode="/" horiz-adv-x="445" 
d="M-14 -98l367 854h107l-368 -854h-106z" />
    <glyph glyph-name="zero" unicode="0" horiz-adv-x="666" 
d="M333 -13q-150 0 -220.5 86.5t-70.5 259.5t70.5 259.5t220.5 86.5q151 0 221 -86.5t70 -259.5t-70 -259.5t-221 -86.5zM333 118q23 0 45.5 7.5t40.5 29.5t29 65t11 113t-11 112t-29 64t-40.5 30t-45.5 8t-45.5 -8t-40.5 -30t-28.5 -64t-10.5 -112t10.5 -113t28.5 -65
t40.5 -29.5t45.5 -7.5z" />
    <glyph glyph-name="one" unicode="1" horiz-adv-x="470" 
d="M188 0v511l-129 -73v144l148 85h143v-667h-162z" />
    <glyph glyph-name="two" unicode="2" horiz-adv-x="608" 
d="M70 0v114q34 20 74 50t78.5 66t70 74t50.5 76.5t19 71.5q0 36 -15 58.5t-40.5 33t-59.5 10.5q-48 0 -89 -21.5t-82 -53.5v139q39 24 92.5 43t127.5 19t125 -24.5t77 -70t26 -110.5q0 -47 -18.5 -89.5t-49.5 -80t-69 -70t-76.5 -60.5l-71.5 -52l-31 25h329v-148h-467z" />
    <glyph glyph-name="three" unicode="3" horiz-adv-x="595" 
d="M267 -8q-54 0 -103.5 15.5t-91.5 36.5v138q44 -27 90 -47.5t98 -20.5q57 0 90 21t33 61t-28 64t-98 24h-99v122h101q48 0 71 20.5t23 49.5q0 28 -15 44t-40 23.5t-55 7.5q-34 0 -70 -8.5t-88 -33.5v124q37 19 81.5 31t92.5 12q46 0 88.5 -10.5t75.5 -32.5t53 -56.5
t20 -82.5q0 -28 -10.5 -51t-26 -40.5t-32.5 -27.5t-30 -13q20 -6 42.5 -20.5t42 -36.5t31.5 -51.5t12 -65.5q0 -53 -21 -90t-57.5 -60.5t-82.5 -34.5t-97 -11z" />
    <glyph glyph-name="four" unicode="4" horiz-adv-x="610" 
d="M326 0v179h-287v116l299 372h151v-366h84v-122h-84v-179h-163zM177 301h149v185z" />
    <glyph glyph-name="five" unicode="5" horiz-adv-x="598" 
d="M281 -12q-65 0 -118.5 16.5t-80.5 36.5v151q17 -17 44 -33.5t61.5 -27.5t72.5 -11q32 0 56 7t41 19.5t25.5 30t8.5 38.5q0 36 -15 57t-40 30.5t-55 9.5q-31 0 -57 -5.5t-44.5 -13t-26.5 -11.5l-72 80l42 306h379v-141h-276l-26 -184l-107 34q41 38 98.5 55.5t131.5 17.5
q46 0 87.5 -12.5t74.5 -39t52 -68.5t19 -103q0 -70 -23 -116.5t-62 -73t-88.5 -38t-101.5 -11.5z" />
    <glyph glyph-name="six" unicode="6" horiz-adv-x="625" 
d="M306 -12q-135 0 -198.5 82.5t-63.5 237.5q0 100 23 167t60 108t81 62t88 28t78 7q50 0 86.5 -7.5t58.5 -17.5v-135q-30 14 -61 22t-72 8q-34 0 -62 -8.5t-49.5 -25.5t-37 -43t-23.5 -60t-8 -76q0 -69 8 -112t23.5 -65.5t35.5 -31t45 -8.5q28 0 47 8.5t30.5 22.5t17 31
t5.5 35q0 51 -26 76.5t-70 25.5q-34 0 -58 -11t-38.5 -33t-22.5 -54l-36 68q5 20 17.5 45t34.5 48.5t54.5 39t76.5 15.5q117 -1 174 -57t57 -167q0 -48 -17 -89t-51.5 -72t-86 -47.5t-120.5 -16.5z" />
    <glyph glyph-name="seven" unicode="7" horiz-adv-x="592" 
d="M133 0l250 556l25 -37h-341v148h480v-94l-237 -573h-177z" />
    <glyph glyph-name="eight" unicode="8" horiz-adv-x="631" 
d="M316 -12q-70 0 -121 14.5t-85 41t-50.5 63.5t-16.5 81q0 34 11 60.5t28.5 45t37 31.5t36.5 20q-13 7 -29.5 18t-31.5 28.5t-24.5 41.5t-9.5 55q0 62 27.5 105t84 65t143.5 22t143 -22t83.5 -65t27.5 -105q0 -31 -9 -55t-24 -41.5t-31 -28.5t-30 -17q18 -7 37.5 -20.5
t36.5 -32.5t28 -45t11 -60q0 -44 -16.5 -81t-50.5 -63.5t-85.5 -41t-120.5 -14.5zM316 114q31 0 50.5 10t30.5 25.5t16 32.5t5 33q0 22 -11.5 41.5t-34 32t-56.5 12.5t-56.5 -12.5t-34 -32t-11.5 -41.5q0 -16 4.5 -33t16 -32.5t31.5 -25.5t50 -10zM316 392q21 0 41 9
t33.5 26.5t13.5 43.5q0 25 -12 43.5t-31.5 28.5t-44.5 10t-44.5 -10t-31.5 -28.5t-12 -43.5q0 -26 13 -43.5t34 -26.5t41 -9z" />
    <glyph glyph-name="nine" unicode="9" horiz-adv-x="628" 
d="M251 -12q-49 0 -86 7.5t-59 17.5v135q30 -13 61.5 -21.5t71.5 -8.5q34 0 62 8.5t50 25.5t37 43t23 60t8 76q0 69 -8 112t-23.5 65.5t-36 31t-46.5 8.5q-27 0 -45.5 -8.5t-30 -22.5t-16.5 -31t-5 -35q0 -50 26 -76t70 -26q34 0 58 11t39 33.5t21 53.5l36 -68
q-4 -20 -17 -45t-35 -48.5t-54 -39t-77 -15.5q-116 1 -173.5 57t-57.5 167q0 48 17 89t50 72t81.5 47.5t112.5 16.5q146 0 211 -82.5t65 -237.5q0 -100 -22.5 -167t-60 -108t-81.5 -62t-87.5 -28t-78.5 -7z" />
    <glyph glyph-name="colon" unicode=":" horiz-adv-x="414" 
d="M143 339v121h125v-121h-125zM143 39v121h125v-121h-125z" />
    <glyph glyph-name="semicolon" unicode=";" horiz-adv-x="309" 
d="M36 -112l72 210h138l-106 -210h-104zM105 319v141h145v-141h-145z" />
    <glyph glyph-name="less" unicode="&#x3c;" horiz-adv-x="666" 
d="M538 39l-418 187v84l418 187v-119l-270 -110l270 -110v-119z" />
    <glyph glyph-name="equal" unicode="=" horiz-adv-x="638" 
d="M123 341v103h391v-103h-391zM123 153v103h391v-103h-391z" />
    <glyph glyph-name="greater" unicode="&#x3e;" horiz-adv-x="657" 
d="M121 39v119l270 110l-270 110v119l418 -187v-84z" />
    <glyph glyph-name="question" unicode="?" horiz-adv-x="513" 
d="M180 185v24q0 55 15 90.5t37 59t44 42t37 37.5t15 46q0 34 -14 51t-37.5 24t-51.5 7q-40 0 -79 -13.5t-66 -34.5v113q13 9 37 19t56.5 17.5t68.5 7.5q48 0 86 -13.5t64.5 -39t40 -60.5t13.5 -78q0 -44 -15 -71.5t-37 -48.5t-44 -41.5t-37 -47.5t-15 -70v-20h-118zM173 0
v114h132v-114h-132z" />
    <glyph glyph-name="at" unicode="@" horiz-adv-x="913" 
d="M409 -150q-39 0 -83.5 11.5t-87.5 35.5t-78.5 63t-56.5 94t-21 128q0 93 38 170t100 133t137.5 86.5t150.5 30.5q39 0 84 -11t89 -35.5t80 -62.5t58 -92t22 -125q0 -47 -10.5 -92t-32 -81t-54 -57t-75.5 -21q-25 0 -43 9.5t-29 23.5t-17 27q-16 -26 -50 -43t-88 -17
q-75 0 -117.5 33.5t-42.5 91.5q0 22 8.5 47t31.5 48t67 37t116 14q15 0 29.5 -1t28.5 -2v8.5v7.5q-2 17 -9 30t-24.5 21t-51.5 8q-35 0 -69 -5t-66 -16l13 78q27 9 61.5 16.5t67.5 7.5q80 0 121 -37t41 -109q0 -38 -7 -76.5t-8 -77.5q-1 -13 1.5 -28.5t12.5 -26.5t31 -11
t46 20t43.5 63t18.5 109t-25 116t-66.5 84t-90.5 51.5t-97 17.5q-70 0 -136 -28t-118 -78.5t-82 -116.5t-30 -141q0 -70 21.5 -118t55.5 -79t72 -47.5t70.5 -23t51.5 -6.5q64 0 119 13t104 37l-10 -64q-43 -20 -96.5 -31t-118.5 -11zM442 110q34 0 55 8t32 22.5t16 35
t7 45.5q-11 2 -22.5 2h-24.5q-138 0 -138 -72q0 -17 11 -26t28.5 -12t35.5 -3z" />
    <glyph glyph-name="A" unicode="A" horiz-adv-x="691" 
d="M13 0l252 667h177l236 -667h-166l-213 629l79 7l-212 -636h-153zM155 144l33 119h303l15 -119h-351z" />
    <glyph glyph-name="B" unicode="B" horiz-adv-x="671" 
d="M71 0v667h283q73 0 126.5 -18.5t83.5 -59t30 -107.5q0 -45 -22 -74t-53 -46.5t-58 -27.5l-18 35q55 -2 96.5 -22.5t65 -57t23.5 -87.5q0 -70 -33.5 -114.5t-89.5 -66t-124 -21.5h-310zM233 125h136q25 0 46 7.5t34 26t13 49.5q0 23 -8 38t-21.5 23.5t-30.5 12.5t-36 4
h-133v-161zM233 405h130q17 0 32 6.5t24.5 20.5t9.5 37q0 41 -22 56.5t-54 15.5h-120v-136z" />
    <glyph glyph-name="C" unicode="C" horiz-adv-x="630" 
d="M366 -13q-160 0 -244.5 84.5t-84.5 261.5q0 172 81 260.5t248 88.5q53 0 107 -13t105 -36v-141q-52 34 -100 49t-90 15q-59 0 -99.5 -21t-62 -70t-21.5 -132t21.5 -131t64 -68.5t104.5 -20.5q37 0 84 14t99 48v-141q-28 -14 -63.5 -24.5t-74 -16.5t-74.5 -6z" />
    <glyph glyph-name="D" unicode="D" horiz-adv-x="711" 
d="M71 0v667h268q170 0 250 -84.5t80 -249.5q0 -164 -80 -248.5t-250 -84.5h-268zM233 125h87q90 0 136.5 50t46.5 158q0 110 -46.5 159.5t-136.5 49.5h-87v-417z" />
    <glyph glyph-name="E" unicode="E" horiz-adv-x="593" 
d="M71 0v667h457v-125h-295v-145h256v-126h-256v-146h295v-125h-457z" />
    <glyph glyph-name="F" unicode="F" horiz-adv-x="570" 
d="M71 0v667h454v-125h-292v-159h252v-127h-252v-256h-162z" />
    <glyph glyph-name="G" unicode="G" horiz-adv-x="706" 
d="M368 -14q-98 0 -171.5 35t-114 111.5t-40.5 200.5q0 122 40.5 199t114 113.5t171.5 36.5q63 0 123 -13t115 -36v-147q-60 31 -111.5 50t-106.5 19q-57 0 -97.5 -20t-61.5 -68.5t-21 -132.5q0 -83 21.5 -131.5t60.5 -69.5t91 -21q27 0 50.5 3.5t41.5 12.5v118h-110v126
h272v-314q-62 -34 -129.5 -53t-137.5 -19z" />
    <glyph glyph-name="H" unicode="H" horiz-adv-x="710" 
d="M71 0v667h162v-270h245v270h161v-667h-161v265h-245v-265h-162z" />
    <glyph glyph-name="I" unicode="I" horiz-adv-x="304" 
d="M71 0v667h162v-667h-162z" />
    <glyph glyph-name="J" unicode="J" horiz-adv-x="478" 
d="M192 -13q-44 0 -84 10.5t-74 26.5v148q34 -23 62 -39t57 -16q42 0 67 22t25 71v457h162v-464q0 -63 -19 -104.5t-49.5 -66t-69 -35t-77.5 -10.5z" />
    <glyph glyph-name="K" unicode="K" horiz-adv-x="680" 
d="M226 200l-55 103l266 364h204zM71 0v667h162v-667h-162zM371 413l291 -413h-203l-213 309z" />
    <glyph glyph-name="L" unicode="L" horiz-adv-x="555" 
d="M71 0v667h162v-540h290v-127h-452z" />
    <glyph glyph-name="M" unicode="M" horiz-adv-x="846" 
d="M71 0v667h165l229 -319l-88 -3l237 322h161v-667h-162v545l32 -52l-228 -303l-226 308l35 24v-522h-155z" />
    <glyph glyph-name="N" unicode="N" horiz-adv-x="724" 
d="M71 0v667h138l343 -462l-48 -100v562h149v-667h-122l-349 456l38 73v-529h-149z" />
    <glyph glyph-name="O" unicode="O" horiz-adv-x="737" 
d="M368 -14q-99 0 -172 37.5t-113.5 114.5t-40.5 195q0 171 86 259t240 88q99 0 172.5 -37.5t113.5 -113.5t40 -195q0 -172 -85.5 -260t-240.5 -88zM368 119q51 0 86.5 21t54 68.5t18.5 125.5q0 79 -18.5 126t-54 67.5t-86.5 20.5t-86 -21t-53.5 -68t-18.5 -127
q0 -79 18.5 -125.5t53.5 -67t86 -20.5z" />
    <glyph glyph-name="P" unicode="P" horiz-adv-x="664" 
d="M233 219v-219h-162v667h300q117 0 184 -53t67 -164t-67 -171t-184 -60h-138zM233 344h118q26 0 44.5 7t29.5 20t16.5 30.5t5.5 37.5q0 24 -5.5 42t-16.5 32t-29.5 21t-44.5 7h-118v-197z" />
    <glyph glyph-name="Q" unicode="Q" horiz-adv-x="737" 
d="M368 -21q-158 0 -242 85.5t-84 268.5q0 176 80.5 265t245.5 89q160 0 243 -85.5t83 -267.5q0 -177 -80 -266t-246 -89zM368 91q51 1 86.5 23t54 74.5t18.5 145.5q0 86 -18.5 136t-54 71t-86.5 21t-86 -21.5t-53.5 -71.5t-18.5 -137q0 -93 18.5 -145.5t53.5 -74t86 -21.5z
M628 -7q18 0 31 3.5t34 16.5v-100q-18 -10 -41.5 -14t-53.5 -4q-26 0 -53.5 6t-51 22.5t-41.5 44.5t-26 72q-8 39 -22.5 68.5t-33.5 45.5t-44 16q-31 0 -57.5 -14t-47.5 -43v104q17 25 53 45.5t83 20.5q39 0 75 -17t64.5 -57t43.5 -109q12 -48 34 -77.5t54 -29.5z" />
    <glyph glyph-name="R" unicode="R" horiz-adv-x="709" 
d="M71 0v667h325q113 0 177 -52.5t64 -159.5q0 -44 -18 -86.5t-53 -73t-88 -39.5l-10 55l203 -311h-206l-167 291l72 -61h-137v-230h-162zM233 349h136q43 0 68 23t25 76q0 46 -22.5 70t-63.5 24h-143v-193z" />
    <glyph glyph-name="S" unicode="S" horiz-adv-x="577" 
d="M295 -14q-51 0 -92 5t-76 15t-68 26v154q46 -37 104 -56t110 -19q46 0 70.5 17.5t24.5 53.5q0 27 -22.5 43.5t-59.5 29t-83 28.5q-29 9 -57 23t-50 35.5t-35 52.5t-13 76q0 41 15 79t46.5 68t80.5 47.5t115 17.5q41 0 72.5 -5t60.5 -14.5t59 -24.5v-156
q-23 19 -51.5 35.5t-59.5 27.5t-65 12q-30 1 -55 -6t-39 -22.5t-14 -39.5q0 -28 17 -44t47 -26.5t67 -22.5q41 -12 75.5 -26.5t60.5 -36.5t40 -54t14 -77q0 -60 -28 -109.5t-81 -78t-130 -28.5z" />
    <glyph glyph-name="T" unicode="T" horiz-adv-x="587" 
d="M211 0v542h-187v125h539v-125h-190v-542h-162z" />
    <glyph glyph-name="U" unicode="U" horiz-adv-x="726" 
d="M378 -21q-154 0 -230.5 65.5t-76.5 204.5v418h169v-411q0 -77 31 -114t99 -37q62 0 96.5 37t34.5 114v411h154v-418q0 -93 -35.5 -152.5t-97.5 -88.5t-144 -29z" />
    <glyph glyph-name="V" unicode="V" horiz-adv-x="709" 
d="M262 0l-249 667h187l189 -567h-53l188 566l172 1l-261 -667h-173z" />
    <glyph glyph-name="W" unicode="W" horiz-adv-x="1010" 
d="M212 0l-187 667h177l117 -518h-27l150 518h125l153 -525h-30l118 525h177l-187 -667h-160l-147 480h29l-148 -480h-160z" />
    <glyph glyph-name="X" unicode="X" horiz-adv-x="679" 
d="M668 0h-201l-455 667h201zM337 420l145 247h179l-240 -367zM364 279l-169 -279h-175l259 390z" />
    <glyph glyph-name="Y" unicode="Y" horiz-adv-x="692" 
d="M274 0v288l-253 379h199l190 -319h-75l173 319h161l-256 -419l23 86v-334h-162z" />
    <glyph glyph-name="Z" unicode="Z" horiz-adv-x="634" 
d="M54 0v118l353 454l42 -33h-390v128h519v-116l-336 -446l-53 21h389v-126h-524z" />
    <glyph glyph-name="bracketleft" unicode="[" horiz-adv-x="396" 
d="M81 -116v812h266v-132h-104v-547h104v-133h-266z" />
    <glyph glyph-name="backslash" unicode="\" horiz-adv-x="411" 
d="M331 -98l-368 854h107l367 -854h-106z" />
    <glyph glyph-name="bracketright" unicode="]" horiz-adv-x="405" 
d="M71 -116v132h103v547h-103v133h265v-812h-265z" />
    <glyph glyph-name="asciicircum" unicode="^" horiz-adv-x="582" 
d="M124 469l128 221h67l130 -221h-97l-66 131l-66 -131h-96z" />
    <glyph glyph-name="underscore" unicode="_" horiz-adv-x="546" 
d="M0 -109v85h546v-85h-546z" />
    <glyph glyph-name="grave" unicode="`" horiz-adv-x="261" 
d="M141 551l-111 124h146l46 -124h-81z" />
    <glyph glyph-name="a" unicode="a" horiz-adv-x="572" 
d="M261 -15q-46 0 -86.5 8.5t-71 28t-47.5 53t-17 83.5q0 47 19.5 82t59.5 54t101 19q34 0 66 -7t57.5 -19t40.5 -26l6 -72q-20 12 -48 19t-60 7q-49 0 -71.5 -14.5t-22.5 -45.5q0 -19 11 -34t29.5 -23t38.5 -8q51 0 71.5 7t20.5 28v186q0 46 -29.5 66.5t-83.5 20.5
q-44 0 -88.5 -15.5t-72.5 -37.5v132q26 16 80.5 30t122.5 14q24 0 53 -4t58 -14.5t53.5 -30.5t39.5 -51t15 -77l-1 -239q0 -43 -29 -69.5t-83.5 -38.5t-131.5 -12z" />
    <glyph glyph-name="b" unicode="b" horiz-adv-x="601" 
d="M298 -15q-42 0 -83.5 5.5t-75 20t-53.5 40t-20 66.5v576h146v-276l-28 47q18 21 46 33.5t57 17.5t48 5q112 0 170.5 -67.5t58.5 -197.5q0 -76 -20 -128t-56 -83t-84 -45t-106 -14zM296 109q44 0 70 17.5t37.5 48.5t11.5 71q0 57 -15 91t-41 49t-60 15q-20 0 -44 -5
t-43 -16v-224q0 -18 11 -28t30.5 -14.5t42.5 -4.5z" />
    <glyph glyph-name="c" unicode="c" horiz-adv-x="502" 
d="M303 -13q-54 0 -102 16t-85 48t-58 81t-21 114q0 69 20 120.5t55.5 85.5t83.5 51t106 17q41 0 84.5 -8.5t76.5 -23.5v-128q-35 16 -68.5 26.5t-68.5 10.5q-63 0 -101.5 -31.5t-38.5 -102.5q0 -75 34 -113t113 -38q37 0 71.5 13t59.5 27v-127q-35 -18 -73 -28t-88 -10z
" />
    <glyph glyph-name="d" unicode="d" horiz-adv-x="609" 
d="M308 -15q-59 0 -108.5 13t-85.5 43.5t-56.5 83.5t-20.5 132q0 123 60.5 194t181.5 71q16 0 42 -2.5t54 -12.5t50 -34l-30 -46v287h148v-582q0 -37 -20 -64.5t-53.5 -45.5t-75.5 -27.5t-86 -9.5zM314 110q36 0 58.5 9.5t22.5 28.5v233q-18 10 -38.5 15.5t-39.5 5.5
q-42 0 -71 -14t-43.5 -47t-14.5 -89q0 -44 12 -75.5t39.5 -49t74.5 -17.5z" />
    <glyph glyph-name="e" unicode="e" horiz-adv-x="562" 
d="M295 -15q-76 0 -134.5 31.5t-91 90t-32.5 139.5q0 132 65.5 204.5t187.5 72.5q84 0 135.5 -36t75.5 -105t23 -168h-385l-16 95h278l-22 -47q-1 81 -23 114t-72 33q-28 0 -50.5 -14t-35 -46.5t-12.5 -89.5q0 -72 34.5 -111t110.5 -39q28 0 55.5 6.5t51.5 15.5t41 16v-128
q-36 -15 -80.5 -24.5t-103.5 -9.5z" />
    <glyph glyph-name="f" unicode="f" horiz-adv-x="394" 
d="M104 0v392h-75v114h76v12q0 49 10 84t28 58.5t42 36.5t53 18.5t60 5.5q16 0 35 -2.5t31 -7.5v-132q-9 11 -20 17t-30 6q-13 0 -24 -3t-19 -10t-12.5 -20t-4.5 -33v-30h110v-114h-111v-392h-149z" />
    <glyph glyph-name="g" unicode="g" horiz-adv-x="593" 
d="M260 -15q-69 4 -118.5 32t-77 82.5t-27.5 137.5q0 84 21 139.5t58.5 86.5t90.5 44t118 13q63 0 110 -16t73 -46t26 -74v-390q0 -53 -17 -93.5t-50.5 -68t-81 -41.5t-109.5 -14q-67 0 -114.5 9.5t-72.5 23.5v131q15 -6 44 -16t65 -16.5t72 -6.5q47 0 72.5 13t35.5 35
t10 50v82l29 -21q-16 -23 -38 -40t-51.5 -26.5t-67.5 -9.5zM298 97q26 0 48 5.5t42 16.5v232q0 21 -12 32t-30 15t-38 4q-46 0 -72.5 -20t-38 -55.5t-11.5 -80.5q0 -69 31 -109t81 -40z" />
    <glyph glyph-name="h" unicode="h" horiz-adv-x="611" 
d="M66 0v706h150v-300l-63 34q40 35 94.5 57.5t111.5 22.5q55 0 97 -18t65.5 -58.5t23.5 -111.5v-332h-149v301q0 50 -24.5 72.5t-71.5 22.5q-24 0 -47.5 -6.5t-36.5 -16.5l-2 -373h-148z" />
    <glyph glyph-name="i" unicode="i" horiz-adv-x="286" 
d="M69 0v499h149l1 -499h-150zM66 575v115h154v-115h-154z" />
    <glyph glyph-name="j" unicode="j" horiz-adv-x="304" 
d="M6 -193v121q28 -3 45.5 4t26 23t8.5 41v510h149l2 -510q0 -72 -30 -113.5t-82 -58.5t-119 -17zM83 582v115h155v-115h-155z" />
    <glyph glyph-name="k" unicode="k" horiz-adv-x="588" 
d="M182 279l186 227h181l-281 -297zM214 0h-148v697h150zM295 344l267 -344h-189l-184 243z" />
    <glyph glyph-name="l" unicode="l" horiz-adv-x="280" 
d="M214 0h-148v697h148v-697z" />
    <glyph glyph-name="m" unicode="m" horiz-adv-x="916" 
d="M536 340v-340h-149v310q0 19 -5.5 35t-16.5 27.5t-30 18t-46 6.5q-23 0 -42.5 -5.5t-31.5 -11.5v-380h-149v463q19 10 50 20.5t68 18.5t74.5 13t69.5 5q68 0 114.5 -17.5t70 -56.5t23.5 -106zM383 429q31 27 75 47.5t93 32t91 11.5q68 0 114.5 -17.5t70 -56.5t23.5 -106
v-340h-149v310q0 19 -5.5 35t-16.5 27.5t-30 18t-46 6.5q-23 0 -42.5 -6.5t-31.5 -16.5z" />
    <glyph glyph-name="n" unicode="n" horiz-adv-x="609" 
d="M66 463q19 10 50 20.5t68 18.5t74.5 13t69.5 5q68 0 116 -17.5t73.5 -56.5t25.5 -106v-340h-149v310q0 19 -5.5 35t-16.5 27.5t-30 18t-46 6.5q-23 0 -46 -5.5t-35 -11.5v-380h-149v463z" />
    <glyph glyph-name="o" unicode="o" horiz-adv-x="590" 
d="M294 -15q-128 0 -192.5 68.5t-64.5 201.5q0 143 65.5 205.5t191.5 62.5q85 0 142.5 -28.5t87 -87.5t29.5 -152q0 -133 -67 -201.5t-192 -68.5zM294 104q37 0 61.5 17.5t37 51t12.5 82.5q0 56 -12.5 88.5t-37.5 47t-61 14.5q-38 0 -62 -15t-35.5 -47.5t-11.5 -87.5
q0 -76 26.5 -113.5t82.5 -37.5z" />
    <glyph glyph-name="p" unicode="p" horiz-adv-x="601" 
d="M339 -15q-15 0 -44 3t-60 13.5t-53 32.5l30 47v-262h-146v580q0 33 19 56t52 38t76.5 22.5t93.5 7.5q76 0 133.5 -25.5t90 -85.5t32.5 -164q0 -78 -27 -137.5t-76.5 -92.5t-120.5 -33zM295 105q40 0 66 14t39.5 46.5t13.5 87.5q0 46 -10 78t-34.5 49.5t-68.5 17.5
q-48 0 -68.5 -9.5t-20.5 -24.5v-238q19 -11 42 -16t41 -5z" />
    <glyph glyph-name="q" unicode="q" horiz-adv-x="601" 
d="M308 520q63 0 114.5 -13t82 -43.5t30.5 -85.5v-573h-146v283l28 -47q-21 -26 -50 -38t-56 -15t-42 -3q-111 0 -171.5 67t-60.5 191q0 79 20 132.5t56.5 85t86 45.5t108.5 14zM306 396q-44 0 -70.5 -18t-38 -49.5t-11.5 -76.5q0 -53 15.5 -85.5t42.5 -47t62 -14.5
q20 0 42.5 5t40.5 16v224q0 16 -11.5 26t-30.5 15t-41 5z" />
    <glyph glyph-name="r" unicode="r" horiz-adv-x="428" 
d="M66 0v453q14 12 50 27.5t82.5 28t93.5 12.5t74 -7t41 -18v-109q-17 4 -43 6t-54 2.5t-53 -0.5t-42 -4v-391h-149z" />
    <glyph glyph-name="s" unicode="s" horiz-adv-x="482" 
d="M216 -15q-54 0 -92.5 11.5t-72.5 25.5v131q21 -14 47 -28.5t57.5 -23.5t66.5 -9q36 0 50.5 12.5t14.5 30.5q0 17 -15 27.5t-39 17.5t-51 13q-24 5 -48 15.5t-43 28.5t-30.5 44.5t-11.5 64.5q0 49 19 81.5t50 52.5t67 28.5t70 7.5q62 -2 98.5 -13.5t66.5 -29.5v-117
q-34 19 -67.5 35.5t-76.5 16.5q-39 0 -56 -12t-17 -32q0 -19 11.5 -30t30.5 -17.5t42 -12.5q25 -6 51.5 -14.5t50 -24t38 -43t14.5 -72.5q-1 -61 -33 -97.5t-82.5 -52t-109.5 -15.5z" />
    <glyph glyph-name="t" unicode="t" horiz-adv-x="413" 
d="M273 -20q-88 0 -131 41.5t-43 117.5v253h-74v114h74v139h156v-139h111v-114h-111v-234q0 -26 11 -38.5t37 -12.5q15 0 33 6t30 15v-128q-21 -11 -45.5 -15.5t-47.5 -4.5z" />
    <glyph glyph-name="u" unicode="u" horiz-adv-x="601" 
d="M304 -15q-70 0 -124 22t-84 67.5t-30 118.5v313h149v-301q0 -48 21.5 -71.5t68.5 -23.5q48 0 69 23.5t21 71.5v301h140v-313q0 -108 -62 -158t-169 -50z" />
    <glyph glyph-name="v" unicode="v" horiz-adv-x="621" 
d="M235 0l-211 506h162l153 -390l-36 -1l136 391h157l-211 -506h-150z" />
    <glyph glyph-name="w" unicode="w" horiz-adv-x="827" 
d="M194 0l-170 506h161l113 -409l-47 -2l107 411h110l105 -399h-37l108 399h158l-168 -506h-135l-100 327l25 -3l-95 -324h-135z" />
    <glyph glyph-name="x" unicode="x" horiz-adv-x="594" 
d="M316 202l-138 -202h-157l227 297zM564 0h-177l-361 506h176zM272 299l142 207h158l-232 -304z" />
    <glyph glyph-name="y" unicode="y" horiz-adv-x="593" 
d="M176 -196q-25 0 -49 5t-41 13v121q16 -6 30 -8.5t29 -2.5q25 0 43.5 11.5t30.5 39t19 74.5l3 -85l-217 534h171l115 -355h-15l114 355h160l-199 -514q-27 -70 -58.5 -111t-65.5 -59t-70 -18z" />
    <glyph glyph-name="z" unicode="z" horiz-adv-x="492" 
d="M45 0v118l271 307l15 -31h-280v112h396v-116l-252 -309l-5 38h257v-119h-402z" />
    <glyph glyph-name="braceleft" unicode="{" horiz-adv-x="392" 
d="M326 -109q-81 0 -127.5 20t-66 55t-19.5 81v139q0 23 -12 36t-25 18t-17 7v96q4 1 17 6t25 18t12 36v139q0 46 19.5 81t66 55t127.5 20h23v-132h-18q-24 0 -36 -9t-16.5 -24.5t-4.5 -36.5v-98q0 -43 -25.5 -68t-58.5 -36q33 -10 58.5 -34.5t25.5 -69.5v-98
q0 -20 4.5 -35.5t16.5 -24.5t36 -9h18v-132h-23z" />
    <glyph glyph-name="bar" unicode="|" horiz-adv-x="477" 
d="M185 -99v765h114v-765h-114z" />
    <glyph glyph-name="braceright" unicode="}" horiz-adv-x="386" 
d="M52 -109v132h18q24 0 36 9t16.5 24.5t4.5 35.5v98q0 45 26.5 69.5t57.5 34.5q-31 11 -57.5 36t-26.5 68v98q0 21 -4.5 36.5t-16.5 24.5t-36 9h-18v132h23q82 0 128 -20t65.5 -55t19.5 -81v-139q0 -23 12 -36t25 -18t17 -6v-96q-4 -2 -17 -7t-25 -18t-12 -36v-139
q0 -46 -19.5 -81t-65.5 -55t-128 -20h-23z" />
    <glyph glyph-name="asciitilde" unicode="~" horiz-adv-x="516" 
d="M98 225v82q26 31 52.5 36t53.5 -3.5t54.5 -22.5t54.5 -22.5t53.5 -3.5t51.5 36v-82q-25 -31 -51.5 -36t-53.5 3.5t-54.5 22.5t-54.5 22.5t-53.5 3.5t-52.5 -36z" />
    <glyph glyph-name="uni00A0" unicode="&#xa0;" horiz-adv-x="276" 
 />
    <glyph glyph-name="exclamdown" unicode="&#xa1;" horiz-adv-x="410" 
d="M138 -168l17 483h108l18 -483h-143zM143 386v113h133v-113h-133z" />
    <glyph glyph-name="cent" unicode="&#xa2;" horiz-adv-x="502" 
d="M238 555v129h114v-129h-114zM238 0v123h114v-123h-114zM303 72q-54 0 -102 16t-85 48t-58 80.5t-21 114.5q0 69 20 120.5t55.5 85.5t83.5 51t106 17q41 0 84.5 -8.5t76.5 -23.5v-128q-35 16 -68.5 26.5t-68.5 10.5q-63 0 -101.5 -31.5t-38.5 -102.5q0 -75 34 -113
t113 -38q37 0 71.5 13t59.5 27v-127q-35 -18 -73 -28t-88 -10z" />
    <glyph glyph-name="sterling" unicode="&#xa3;" horiz-adv-x="561" 
d="M129 485q0 46 20.5 89.5t67 72t124.5 28.5q47 0 89 -14.5t75 -33.5v-134q-31 25 -63.5 39.5t-68.5 14.5q-34 0 -57 -10.5t-35 -28.5t-12 -43v-332q42 -14 80 -19.5t76 2t80 31.5v-124q-36 -28 -74 -34.5t-76 -0.5t-77 16t-77.5 16t-76 -0.5t-74.5 -34.5v127
q23 15 42 18.5t37 6.5v348zM50 273v112h374v-112h-374z" />
    <glyph glyph-name="currency" unicode="&#xa4;" horiz-adv-x="493" 
d="M245 156q-50 0 -92 24.5t-66.5 66.5t-24.5 92q0 51 24.5 92.5t66.5 66t92 24.5q51 0 92.5 -24.5t66 -66t24.5 -92.5q0 -50 -24.5 -92t-66 -66.5t-92.5 -24.5zM245 254q33 0 55.5 23.5t22.5 61.5t-22.5 61.5t-55.5 23.5q-34 0 -56.5 -23.5t-22.5 -61.5t22.5 -61.5
t56.5 -23.5zM112 270l66 -67l-74 -72l-65 65zM388 545l65 -65l-72 -74l-67 67zM178 473l-66 -67l-73 74l65 65zM453 196l-65 -65l-74 72l67 67z" />
    <glyph glyph-name="yen" unicode="&#xa5;" horiz-adv-x="691" 
d="M278 0v115h-140v87h140v81h-140v87h84l-204 297h173l158 -264l159 264h172l-204 -297h84v-87h-140v-81h140v-87h-140v-115h-142z" />
    <glyph glyph-name="brokenbar" unicode="&#xa6;" horiz-adv-x="477" 
d="M299 218v-317h-114v317h114zM185 350v316h114v-316h-114z" />
    <glyph glyph-name="section" unicode="&#xa7;" horiz-adv-x="589" 
d="M256 -8q-58 0 -106 16t-85 40v116q36 -29 77.5 -46.5t95.5 -17.5q14 0 31 1.5t33 6.5t27 14t11 24q0 14 -17 24.5t-47.5 21t-72.5 23.5q-38 12 -70 28.5t-52 41.5t-20 63q0 26 12 44t31.5 30t41 18t39.5 7q-12 3 -26.5 14.5t-25.5 29.5t-11 39q0 39 17 67t46.5 45
t68 25.5t81.5 8.5q46 0 88.5 -12.5t78.5 -32.5v-106q-39 22 -73.5 32t-74.5 10q-16 0 -39.5 -3t-41 -13.5t-17.5 -30.5q0 -9 10 -18.5t32.5 -18.5t57.5 -20q41 -11 81.5 -29t68 -46t27.5 -75q0 -22 -11.5 -38t-28.5 -25.5t-35 -15t-32 -7.5q23 -14 34 -41t11 -54
q0 -66 -57.5 -103t-157.5 -37zM355 279q20 2 32 10t12 19t-10 21t-30 18.5t-50 16.5q-18 5 -35.5 9.5t-28.5 9.5q-22 -1 -36.5 -9t-14.5 -23q0 -5 4.5 -11t19 -12.5t42.5 -15.5q20 -6 44 -14t51 -19z" />
    <glyph glyph-name="dieresis" unicode="&#xa8;" horiz-adv-x="430" 
d="M242 558v100h129v-100h-129zM59 558v100h128v-100h-128z" />
    <glyph glyph-name="copyright" unicode="&#xa9;" horiz-adv-x="778" 
d="M389 -8q-70 0 -132 26.5t-109 73.5t-73.5 109t-26.5 132q0 71 26.5 133t73.5 109t109 73.5t132 26.5q71 0 133 -26.5t109 -73.5t73.5 -109t26.5 -133q0 -70 -26.5 -132t-73.5 -109t-109 -73.5t-133 -26.5zM395 134q-35 0 -67.5 9.5t-58.5 32t-41 61.5t-15 97t15 96.5
t41 61t58.5 32t67.5 9.5q31 0 62.5 -7t61.5 -19v-72q-31 13 -59.5 19.5t-59.5 6.5q-30 0 -53.5 -11.5t-37 -39t-13.5 -76.5t13.5 -77t37 -39t53.5 -11q31 0 59.5 6t59.5 20v-73q-30 -12 -61.5 -19t-62.5 -7zM389 47q60 0 112 22t91.5 61.5t61.5 91.5t22 111t-22 111.5
t-61.5 92t-91.5 61.5t-112 22q-58 0 -110 -22t-92 -61.5t-62 -92t-22 -111.5t22 -111t62 -91.5t92 -61.5t110 -22z" />
    <glyph glyph-name="ordfeminine" unicode="&#xaa;" horiz-adv-x="403" 
d="M194 381q-26 0 -48.5 5t-40 16t-27.5 29t-10 44q0 41 24.5 63.5t79.5 22.5q27 0 43.5 -4t21.5 -8q0 30 -12 46t-38 16q-23 0 -48 -5.5t-43 -11.5v62q20 8 46.5 13.5t50.5 5.5q65 0 98.5 -30.5t33.5 -88.5v-82q0 -28 -9 -46.5t-26 -28.5t-41 -14t-55 -4zM197 441
q18 0 30 7t12 23v35q-4 2 -14.5 4.5t-23.5 2.5q-11 0 -21.5 -3.5t-17.5 -11t-7 -20.5t5 -21t15 -12t22 -4z" />
    <glyph glyph-name="guillemotleft" unicode="&#xab;" horiz-adv-x="627" 
d="M429 64l-169 191l169 190h144l-181 -190l181 -191h-144zM202 64l-169 191l169 190h145l-181 -190l181 -191h-145z" />
    <glyph glyph-name="logicalnot" unicode="&#xac;" horiz-adv-x="631" 
d="M442 148v88h-345v95h437v-183h-92z" />
    <glyph glyph-name="uni00AD" unicode="&#xad;" horiz-adv-x="600" 
d="M79 255v103h305v-103h-305z" />
    <glyph glyph-name="registered" unicode="&#xae;" horiz-adv-x="778" 
d="M390 -8q-70 0 -132 26.5t-109 73.5t-73.5 109t-26.5 132q0 71 26.5 133t73.5 109t109 73.5t132 26.5q71 0 133 -26.5t109 -73.5t73.5 -109t26.5 -133q0 -70 -26.5 -132t-73.5 -109t-109 -73.5t-133 -26.5zM390 47q59 0 111 22t92 61.5t62 91.5t22 111t-22 111.5t-62 92
t-92 61.5t-111 22t-111 -22t-91.5 -61.5t-61.5 -92t-22 -111.5t22 -111t61.5 -91.5t91.5 -61.5t111 -22zM250 139v389h151q67 0 108 -31t41 -91q0 -27 -7.5 -47t-19.5 -34t-26.5 -22.5t-28.5 -12.5l98 -151h-93l-81 138h-59v-138h-83zM333 342h71q22 0 35.5 8t20.5 21t7 29
q0 17 -7 30t-20.5 21t-35.5 8h-71v-117z" />
    <glyph glyph-name="macron" unicode="&#xaf;" horiz-adv-x="397" 
d="M61 552v95h276v-95h-276z" />
    <glyph glyph-name="degree" unicode="&#xb0;" horiz-adv-x="387" 
d="M191 448q-53 0 -81 28t-28 82t28 82.5t81 28.5t81 -28.5t28 -82.5t-28 -82t-81 -28zM191 499q29 0 42 14t13 46q0 31 -13 45t-42 14t-42 -14t-13 -45q0 -32 13 -46t42 -14z" />
    <glyph glyph-name="plusminus" unicode="&#xb1;" horiz-adv-x="585" 
d="M247 164v132h-133v96h133v132h96v-132h132v-96h-132v-132h-96zM114 14v92h361v-92h-361z" />
    <glyph glyph-name="two.superior" unicode="&#xb2;" horiz-adv-x="336" 
d="M46 463v62q20 15 44.5 33t47 39t37 44.5t14.5 48.5q0 26 -16.5 38.5t-37.5 12.5q-29 0 -49 -10t-37 -22v85q21 13 48.5 23t58.5 10q54 0 84.5 -16.5t43.5 -42t13 -52.5q0 -34 -18.5 -66t-49.5 -58t-69 -45l-10 13h150v-97h-254z" />
    <glyph glyph-name="three.superior" unicode="&#xb3;" horiz-adv-x="331" 
d="M149 459q-29 0 -55.5 8t-49.5 19v81q24 -14 43.5 -23t43.5 -9t41 11t17 31q0 18 -14 30.5t-46 12.5h-39v64h41q19 0 30 9.5t11 25.5q0 14 -15 21.5t-35 7.5q-18 0 -36 -5.5t-35 -13.5v74q20 10 44 16.5t50 6.5q32 0 63.5 -10t52 -32t20.5 -56q0 -20 -9.5 -35t-21.5 -24.5
t-22 -11.5q18 -6 33.5 -18t25.5 -30.5t10 -44.5q0 -28 -13 -48t-34.5 -33t-47.5 -18.5t-53 -5.5z" />
    <glyph glyph-name="acute" unicode="&#xb4;" horiz-adv-x="262" 
d="M62 551l47 124h146l-111 -124h-82z" />
    <glyph glyph-name="uni03BC" unicode="&#xb5;" horiz-adv-x="636" 
d="M99 -210v709h142v-322q0 -15 5.5 -31.5t26.5 -28.5t67 -12q22 0 40.5 3t33.5 7v384h142v-450q-3 -1 -23 -10t-51.5 -19.5t-73 -18.5t-89.5 -8q-18 0 -33.5 3t-27 7t-17.5 5v-218h-142z" />
    <glyph glyph-name="paragraph" unicode="&#xb6;" horiz-adv-x="504" 
d="M335 0v203h-37q-126 0 -192.5 60t-66.5 173q0 112 66.5 171.5t192.5 59.5h151v-667h-114z" />
    <glyph glyph-name="periodcentered" unicode="&#xb7;" horiz-adv-x="347" 
d="M108 213v121h125v-121h-125z" />
    <glyph glyph-name="cedilla" unicode="&#xb8;" horiz-adv-x="276" 
d="M46 -133l90 128h96l-52 -128h-134z" />
    <glyph glyph-name="one.superior" unicode="&#xb9;" horiz-adv-x="245" 
d="M81 462v285l15 -32l-68 -40v101l72 45h85v-359h-104z" />
    <glyph glyph-name="ordmasculine" unicode="&#xba;" horiz-adv-x="422" 
d="M208 389q-39 0 -69 15t-47 46.5t-17 81.5q0 51 17 82.5t47 46.5t69 15t69 -15t47 -46.5t17 -82.5q0 -50 -17 -81.5t-47 -46.5t-69 -15zM208 449q27 0 40.5 20.5t13.5 62.5q0 43 -13.5 63.5t-40.5 20.5t-40.5 -20.5t-13.5 -63.5q0 -42 13.5 -62.5t40.5 -20.5z" />
    <glyph glyph-name="guillemotright" unicode="&#xbb;" horiz-adv-x="636" 
d="M283 64l180 191l-180 190h144l170 -190l-170 -191h-144zM56 64l181 191l-181 190h145l169 -190l-169 -191h-145z" />
    <glyph glyph-name="onequarter" unicode="&#xbc;" horiz-adv-x="735" 
d="M81 313v285l15 -32l-68 -40v101l72 45h85v-359h-104zM63 -22l407 707h107l-407 -707h-107zM542 0v83h-153v75l161 201h90v-196h45v-80h-45v-83h-98zM477 163h65v112l27 4z" />
    <glyph glyph-name="onehalf" unicode="&#xbd;" horiz-adv-x="737" 
d="M81 313v285l15 -32l-68 -40v101l72 45h85v-359h-104zM61 -22l407 707h107l-407 -707h-107zM433 0v62q20 15 44.5 33t47 39t37 44.5t14.5 48.5q0 26 -16.5 38.5t-37.5 12.5q-29 0 -49 -10t-37 -22v85q21 13 48.5 23t58.5 10q54 0 84.5 -16.5t43.5 -42t13 -52.5
q0 -34 -18.5 -66t-49.5 -58t-69 -45l-10 13h150v-97h-254z" />
    <glyph glyph-name="threequarters" unicode="&#xbe;" horiz-adv-x="785" 
d="M149 318q-29 0 -55.5 8t-49.5 19v81q24 -14 43.5 -23t43.5 -9t41 11t17 31q0 18 -14 30.5t-46 12.5h-39v64h41q19 0 30 9.5t11 25.5q0 14 -15 21.5t-35 7.5q-18 0 -36 -5.5t-35 -13.5v74q20 10 44 16.5t50 6.5q32 0 63.5 -10t52 -32t20.5 -56q0 -20 -9.5 -35t-21.5 -24.5
t-22 -11.5q18 -6 33.5 -18t25.5 -30.5t10 -44.5q0 -28 -13 -48t-34.5 -33t-47.5 -18.5t-53 -5.5zM120 -22l407 707h107l-407 -707h-107zM592 0v83h-153v75l161 201h90v-196h45v-80h-45v-83h-98zM527 163h65v112l27 4z" />
    <glyph glyph-name="questiondown" unicode="&#xbf;" horiz-adv-x="512" 
d="M282 -176q-48 0 -86 13.5t-64.5 39t-40 60.5t-13.5 79q0 43 15 71t37 48.5l44 41t37 48t15 69.5v20h118v-24q0 -55 -15 -90.5t-37 -59t-44 -41.5t-37 -37.5t-15 -46.5q0 -33 14 -50.5t37.5 -24.5t51.5 -7q40 0 79.5 14t65.5 34v-113q-12 -8 -36.5 -18.5t-57 -18
t-68.5 -7.5zM219 386v113h132v-113h-132z" />
    <glyph glyph-name="Agrave" unicode="&#xc0;" horiz-adv-x="691" 
d="M13 0l252 667h177l236 -667h-166l-213 629l79 7l-212 -636h-153zM155 144l33 119h303l15 -119h-351zM310 716l-97 111h132l47 -111h-82z" />
    <glyph glyph-name="Aacute" unicode="&#xc1;" horiz-adv-x="691" 
d="M13 0l252 667h177l236 -667h-166l-213 629l79 7l-212 -636h-153zM155 144l33 119h303l15 -119h-351zM307 719l37 113h156l-118 -113h-75z" />
    <glyph glyph-name="Acircumflex" unicode="&#xc2;" horiz-adv-x="691" 
d="M13 0l252 667h177l236 -667h-166l-213 629l79 7l-212 -636h-153zM155 144l33 119h303l15 -119h-351zM198 710l87 121h122l87 -121h-99l-49 59l-49 -59h-99z" />
    <glyph glyph-name="Atilde" unicode="&#xc3;" horiz-adv-x="691" 
d="M13 0l252 667h177l236 -667h-166l-213 629l79 7l-212 -636h-153zM155 144l33 119h303l15 -119h-351zM238 720h-69q-2 38 12 70.5t40.5 51t60.5 18.5q26 0 46.5 -9.5t38 -22t34 -22.5t33.5 -10t26 14.5t7 44.5h73q2 -43 -13.5 -74t-41.5 -47.5t-57 -16.5q-32 0 -54 10
t-39 22t-30.5 22t-28.5 10q-21 0 -30 -19.5t-8 -41.5z" />
    <glyph glyph-name="Adieresis" unicode="&#xc4;" horiz-adv-x="691" 
d="M13 0l252 667h177l236 -667h-166l-213 629l79 7l-212 -636h-153zM155 144l33 119h303l15 -119h-351zM370 703v100h129v-100h-129zM187 703v100h128v-100h-128z" />
    <glyph glyph-name="Aring" unicode="&#xc5;" horiz-adv-x="691" 
d="M13 0l252 667h177l236 -667h-166l-213 629l79 7l-212 -636h-153zM155 144l33 119h303l15 -119h-351zM345 665q-58 0 -88.5 24.5t-30.5 70.5q0 45 30.5 70t88.5 25t88.5 -25t30.5 -70q0 -46 -30.5 -70.5t-88.5 -24.5zM345 723q27 0 37.5 8t10.5 29q0 19 -10.5 27.5
t-37.5 8.5q-26 0 -37 -8.5t-11 -27.5q0 -21 11 -29t37 -8z" />
    <glyph glyph-name="AE" unicode="&#xc6;" horiz-adv-x="1028" 
d="M516 621l73 -11l-395 -610h-181l465 667h486v-126h-287v-141h247v-127h-247v-147h287v-126h-448v621zM579 147h-384l52 116h344z" />
    <glyph glyph-name="Ccedilla" unicode="&#xc7;" horiz-adv-x="630" 
d="M366 -13q-160 0 -244.5 84.5t-84.5 261.5q0 172 81 260.5t248 88.5q53 0 107 -13t105 -36v-141q-52 34 -100 49t-90 15q-59 0 -99.5 -21t-62 -70t-21.5 -132t21.5 -131t64 -68.5t104.5 -20.5q37 0 84 14t99 48v-141q-28 -14 -63.5 -24.5t-74 -16.5t-74.5 -6zM224 -122
l90 128h96l-52 -128h-134z" />
    <glyph glyph-name="Egrave" unicode="&#xc8;" horiz-adv-x="593" 
d="M71 0v667h457v-125h-295v-145h256v-126h-256v-146h295v-125h-457zM268 716l-97 111h132l47 -111h-82z" />
    <glyph glyph-name="Eacute" unicode="&#xc9;" horiz-adv-x="593" 
d="M71 0v667h457v-125h-295v-145h256v-126h-256v-146h295v-125h-457zM264 719l37 113h156l-118 -113h-75z" />
    <glyph glyph-name="Ecircumflex" unicode="&#xca;" horiz-adv-x="593" 
d="M71 0v667h457v-125h-295v-145h256v-126h-256v-146h295v-125h-457zM155 710l87 121h122l87 -121h-99l-49 59l-49 -59h-99z" />
    <glyph glyph-name="Edieresis" unicode="&#xcb;" horiz-adv-x="593" 
d="M71 0v667h457v-125h-295v-145h256v-126h-256v-146h295v-125h-457zM327 703v100h129v-100h-129zM144 703v100h128v-100h-128z" />
    <glyph glyph-name="Igrave" unicode="&#xcc;" horiz-adv-x="304" 
d="M71 0v667h162v-667h-162zM122 716l-97 111h132l47 -111h-82z" />
    <glyph glyph-name="Iacute" unicode="&#xcd;" horiz-adv-x="304" 
d="M71 0v667h162v-667h-162zM118 719l37 113h156l-118 -113h-75z" />
    <glyph glyph-name="Icircumflex" unicode="&#xce;" horiz-adv-x="304" 
d="M71 0v667h162v-667h-162zM9 710l87 121h122l87 -121h-99l-49 59l-49 -59h-99z" />
    <glyph glyph-name="Idieresis" unicode="&#xcf;" horiz-adv-x="304" 
d="M71 0v667h162v-667h-162zM181 703v100h129v-100h-129zM-2 703v100h128v-100h-128z" />
    <glyph glyph-name="Eth" unicode="&#xd0;" horiz-adv-x="711" 
d="M71 0v667h268q170 0 250 -84.5t80 -249.5q0 -164 -80 -248.5t-250 -84.5h-268zM233 125h87q90 0 136.5 50t46.5 158q0 110 -46.5 159.5t-136.5 49.5h-87v-417zM5 288v91h301v-91h-301z" />
    <glyph glyph-name="Ntilde" unicode="&#xd1;" horiz-adv-x="724" 
d="M71 0v667h138l343 -462l-48 -100v562h149v-667h-122l-349 456l38 73v-529h-149zM255 720h-69q-2 38 12 70.5t40.5 51t60.5 18.5q26 0 46.5 -9.5t38 -22t34 -22.5t33.5 -10t26 14.5t7 44.5h73q2 -43 -13.5 -74t-41.5 -47.5t-57 -16.5q-32 0 -54 10t-39 22t-30.5 22
t-28.5 10q-21 0 -30 -19.5t-8 -41.5z" />
    <glyph glyph-name="Ograve" unicode="&#xd2;" horiz-adv-x="737" 
d="M368 -14q-99 0 -172 37.5t-113.5 114.5t-40.5 195q0 171 86 259t240 88q99 0 172.5 -37.5t113.5 -113.5t40 -195q0 -172 -85.5 -260t-240.5 -88zM368 119q51 0 86.5 21t54 68.5t18.5 125.5q0 79 -18.5 126t-54 67.5t-86.5 20.5t-86 -21t-53.5 -68t-18.5 -127
q0 -79 18.5 -125.5t53.5 -67t86 -20.5zM335 737l-97 111h132l47 -111h-82z" />
    <glyph glyph-name="Oacute" unicode="&#xd3;" horiz-adv-x="737" 
d="M368 -14q-99 0 -172 37.5t-113.5 114.5t-40.5 195q0 171 86 259t240 88q99 0 172.5 -37.5t113.5 -113.5t40 -195q0 -172 -85.5 -260t-240.5 -88zM368 119q51 0 86.5 21t54 68.5t18.5 125.5q0 79 -18.5 126t-54 67.5t-86.5 20.5t-86 -21t-53.5 -68t-18.5 -127
q0 -79 18.5 -125.5t53.5 -67t86 -20.5zM331 740l37 113h156l-118 -113h-75z" />
    <glyph glyph-name="Ocircumflex" unicode="&#xd4;" horiz-adv-x="737" 
d="M368 -14q-99 0 -172 37.5t-113.5 114.5t-40.5 195q0 171 86 259t240 88q99 0 172.5 -37.5t113.5 -113.5t40 -195q0 -172 -85.5 -260t-240.5 -88zM368 119q51 0 86.5 21t54 68.5t18.5 125.5q0 79 -18.5 126t-54 67.5t-86.5 20.5t-86 -21t-53.5 -68t-18.5 -127
q0 -79 18.5 -125.5t53.5 -67t86 -20.5zM222 731l87 121h122l87 -121h-99l-49 59l-49 -59h-99z" />
    <glyph glyph-name="Otilde" unicode="&#xd5;" horiz-adv-x="737" 
d="M368 -14q-99 0 -172 37.5t-113.5 114.5t-40.5 195q0 171 86 259t240 88q99 0 172.5 -37.5t113.5 -113.5t40 -195q0 -172 -85.5 -260t-240.5 -88zM368 119q51 0 86.5 21t54 68.5t18.5 125.5q0 79 -18.5 126t-54 67.5t-86.5 20.5t-86 -21t-53.5 -68t-18.5 -127
q0 -79 18.5 -125.5t53.5 -67t86 -20.5zM263 741h-69q-2 38 12 70.5t40.5 51t60.5 18.5q26 0 46.5 -9.5t38 -22t34 -22.5t33.5 -10t26 14.5t7 44.5h73q2 -43 -13.5 -74t-41.5 -47.5t-57 -16.5q-32 0 -54 10t-39 22t-30.5 22t-28.5 10q-21 0 -30 -19.5t-8 -41.5z" />
    <glyph glyph-name="Odieresis" unicode="&#xd6;" horiz-adv-x="737" 
d="M368 -14q-99 0 -172 37.5t-113.5 114.5t-40.5 195q0 171 86 259t240 88q99 0 172.5 -37.5t113.5 -113.5t40 -195q0 -172 -85.5 -260t-240.5 -88zM368 119q51 0 86.5 21t54 68.5t18.5 125.5q0 79 -18.5 126t-54 67.5t-86.5 20.5t-86 -21t-53.5 -68t-18.5 -127
q0 -79 18.5 -125.5t53.5 -67t86 -20.5zM394 724v100h129v-100h-129zM211 724v100h128v-100h-128z" />
    <glyph glyph-name="multiply" unicode="&#xd7;" horiz-adv-x="518" 
d="M73 76l138 180l-137 180h96l90 -117l91 117h96l-138 -180l138 -180h-96l-91 117l-90 -117h-97z" />
    <glyph glyph-name="Oslash" unicode="&#xd8;" horiz-adv-x="737" 
d="M24 0l585 666h108l-587 -666h-106zM368 -14q-99 0 -172 37.5t-113.5 114.5t-40.5 195q0 171 86 259t240 88q99 0 172.5 -37.5t113.5 -113.5t40 -195q0 -172 -85.5 -260t-240.5 -88zM368 119q51 0 86.5 21t54 68.5t18.5 125.5q0 79 -18.5 126t-54 67.5t-86.5 20.5t-86 -21
t-53.5 -68t-18.5 -127q0 -79 18.5 -125.5t53.5 -67t86 -20.5z" />
    <glyph glyph-name="Ugrave" unicode="&#xd9;" horiz-adv-x="726" 
d="M378 -21q-154 0 -230.5 65.5t-76.5 204.5v418h169v-411q0 -77 31 -114t99 -37q62 0 96.5 37t34.5 114v411h154v-418q0 -93 -35.5 -152.5t-97.5 -88.5t-144 -29zM327 723l-97 111h132l47 -111h-82z" />
    <glyph glyph-name="Uacute" unicode="&#xda;" horiz-adv-x="726" 
d="M378 -21q-154 0 -230.5 65.5t-76.5 204.5v418h169v-411q0 -77 31 -114t99 -37q62 0 96.5 37t34.5 114v411h154v-418q0 -93 -35.5 -152.5t-97.5 -88.5t-144 -29zM323 726l37 113h156l-118 -113h-75z" />
    <glyph glyph-name="Ucircumflex" unicode="&#xdb;" horiz-adv-x="726" 
d="M378 -21q-154 0 -230.5 65.5t-76.5 204.5v418h169v-411q0 -77 31 -114t99 -37q62 0 96.5 37t34.5 114v411h154v-418q0 -93 -35.5 -152.5t-97.5 -88.5t-144 -29zM215 717l87 121h122l87 -121h-99l-49 59l-49 -59h-99z" />
    <glyph glyph-name="Udieresis" unicode="&#xdc;" horiz-adv-x="726" 
d="M378 -21q-154 0 -230.5 65.5t-76.5 204.5v418h169v-411q0 -77 31 -114t99 -37q62 0 96.5 37t34.5 114v411h154v-418q0 -93 -35.5 -152.5t-97.5 -88.5t-144 -29zM387 710v100h129v-100h-129zM204 710v100h128v-100h-128z" />
    <glyph glyph-name="Yacute" unicode="&#xdd;" horiz-adv-x="692" 
d="M274 0v288l-253 379h199l190 -319h-75l173 319h161l-256 -419l23 86v-334h-162zM331 719l37 113h156l-118 -113h-75z" />
    <glyph glyph-name="Thorn" unicode="&#xde;" horiz-adv-x="628" 
d="M86 0v667h142v-100h99q119 0 183.5 -59t64.5 -167t-64.5 -167t-183.5 -59h-99v-115h-142zM228 235h85q37 0 60.5 9.5t36.5 25.5t18 34.5t5 36.5q0 19 -5 37.5t-18 34.5t-36.5 25.5t-60.5 9.5h-85v-213z" />
    <glyph glyph-name="germandbls" unicode="&#xdf;" horiz-adv-x="635" 
d="M66 0v436q0 75 28 133.5t83 93t136 34.5q78 0 135.5 -21t89.5 -57.5t32 -83.5q0 -34 -12.5 -59.5t-31.5 -44.5t-39 -30t-36 -16q32 -10 65.5 -32t57 -62t23.5 -103q0 -56 -23 -102t-69.5 -73t-116.5 -28q-25 -1 -53.5 3t-60.5 13v123q26 -14 49 -20t42 -6q39 0 60.5 24.5
t21.5 71.5q0 38 -18 61t-47 33.5t-60 10.5v120q45 0 69 20t24 60q0 23 -11.5 40t-32.5 25.5t-49 8.5q-50 0 -78 -34.5t-28 -98.5v-440h-150z" />
    <glyph glyph-name="agrave" unicode="&#xe0;" horiz-adv-x="572" 
d="M261 -15q-46 0 -86.5 8.5t-71 28t-47.5 53t-17 83.5q0 47 19.5 82t59.5 54t101 19q34 0 66 -7t57.5 -19t40.5 -26l6 -72q-20 12 -48 19t-60 7q-49 0 -71.5 -14.5t-22.5 -45.5q0 -19 11 -34t29.5 -23t38.5 -8q51 0 71.5 7t20.5 28v186q0 46 -29.5 66.5t-83.5 20.5
q-44 0 -88.5 -15.5t-72.5 -37.5v132q26 16 80.5 30t122.5 14q24 0 53 -4t58 -14.5t53.5 -30.5t39.5 -51t15 -77l-1 -239q0 -43 -29 -69.5t-83.5 -38.5t-131.5 -12zM246 572l-111 124h146l46 -124h-81z" />
    <glyph glyph-name="aacute" unicode="&#xe1;" horiz-adv-x="572" 
d="M261 -15q-46 0 -86.5 8.5t-71 28t-47.5 53t-17 83.5q0 47 19.5 82t59.5 54t101 19q34 0 66 -7t57.5 -19t40.5 -26l6 -72q-20 12 -48 19t-60 7q-49 0 -71.5 -14.5t-22.5 -45.5q0 -19 11 -34t29.5 -23t38.5 -8q51 0 71.5 7t20.5 28v186q0 46 -29.5 66.5t-83.5 20.5
q-44 0 -88.5 -15.5t-72.5 -37.5v132q26 16 80.5 30t122.5 14q24 0 53 -4t58 -14.5t53.5 -30.5t39.5 -51t15 -77l-1 -239q0 -43 -29 -69.5t-83.5 -38.5t-131.5 -12zM237 572l47 124h146l-111 -124h-82z" />
    <glyph glyph-name="acircumflex" unicode="&#xe2;" horiz-adv-x="572" 
d="M261 -15q-46 0 -86.5 8.5t-71 28t-47.5 53t-17 83.5q0 47 19.5 82t59.5 54t101 19q34 0 66 -7t57.5 -19t40.5 -26l6 -72q-20 12 -48 19t-60 7q-49 0 -71.5 -14.5t-22.5 -45.5q0 -19 11 -34t29.5 -23t38.5 -8q51 0 71.5 7t20.5 28v186q0 46 -29.5 66.5t-83.5 20.5
q-44 0 -88.5 -15.5t-72.5 -37.5v132q26 16 80.5 30t122.5 14q24 0 53 -4t58 -14.5t53.5 -30.5t39.5 -51t15 -77l-1 -239q0 -43 -29 -69.5t-83.5 -38.5t-131.5 -12zM143 578l87 121h122l87 -121h-99l-49 59l-49 -59h-99z" />
    <glyph glyph-name="atilde" unicode="&#xe3;" horiz-adv-x="572" 
d="M261 -15q-46 0 -86.5 8.5t-71 28t-47.5 53t-17 83.5q0 47 19.5 82t59.5 54t101 19q34 0 66 -7t57.5 -19t40.5 -26l6 -72q-20 12 -48 19t-60 7q-49 0 -71.5 -14.5t-22.5 -45.5q0 -19 11 -34t29.5 -23t38.5 -8q51 0 71.5 7t20.5 28v186q0 46 -29.5 66.5t-83.5 20.5
q-44 0 -88.5 -15.5t-72.5 -37.5v132q26 16 80.5 30t122.5 14q24 0 53 -4t58 -14.5t53.5 -30.5t39.5 -51t15 -77l-1 -239q0 -43 -29 -69.5t-83.5 -38.5t-131.5 -12zM175 566h-69q-2 38 12 70.5t40.5 51t60.5 18.5q26 0 46.5 -9.5t38 -22t34 -22.5t33.5 -10t26 14.5t7 44.5h73
q2 -43 -13.5 -74t-41.5 -47.5t-57 -16.5q-32 0 -54 10t-39 22t-30.5 22t-28.5 10q-21 0 -30 -19.5t-8 -41.5z" />
    <glyph glyph-name="adieresis" unicode="&#xe4;" horiz-adv-x="572" 
d="M261 -15q-46 0 -86.5 8.5t-71 28t-47.5 53t-17 83.5q0 47 19.5 82t59.5 54t101 19q34 0 66 -7t57.5 -19t40.5 -26l6 -72q-20 12 -48 19t-60 7q-49 0 -71.5 -14.5t-22.5 -45.5q0 -19 11 -34t29.5 -23t38.5 -8q51 0 71.5 7t20.5 28v186q0 46 -29.5 66.5t-83.5 20.5
q-44 0 -88.5 -15.5t-72.5 -37.5v132q26 16 80.5 30t122.5 14q24 0 53 -4t58 -14.5t53.5 -30.5t39.5 -51t15 -77l-1 -239q0 -43 -29 -69.5t-83.5 -38.5t-131.5 -12zM318 579v100h129v-100h-129zM135 579v100h128v-100h-128z" />
    <glyph glyph-name="aring" unicode="&#xe5;" horiz-adv-x="572" 
d="M261 -15q-46 0 -86.5 8.5t-71 28t-47.5 53t-17 83.5q0 47 19.5 82t59.5 54t101 19q34 0 66 -7t57.5 -19t40.5 -26l6 -72q-20 12 -48 19t-60 7q-49 0 -71.5 -14.5t-22.5 -45.5q0 -19 11 -34t29.5 -23t38.5 -8q51 0 71.5 7t20.5 28v186q0 46 -29.5 66.5t-83.5 20.5
q-44 0 -88.5 -15.5t-72.5 -37.5v132q26 16 80.5 30t122.5 14q24 0 53 -4t58 -14.5t53.5 -30.5t39.5 -51t15 -77l-1 -239q0 -43 -29 -69.5t-83.5 -38.5t-131.5 -12zM284 556q-58 0 -88.5 24.5t-30.5 70.5q0 45 30.5 70t88.5 25t88.5 -25t30.5 -70q0 -46 -30.5 -70.5
t-88.5 -24.5zM284 614q27 0 37.5 8t10.5 29q0 19 -10.5 27.5t-37.5 8.5q-26 0 -37 -8.5t-11 -27.5q0 -21 11 -29t37 -8z" />
    <glyph glyph-name="ae" unicode="&#xe6;" horiz-adv-x="882" 
d="M441 47q-33 -24 -82 -46t-114 -22q-56 0 -103 16t-75 54t-28 103q0 48 21.5 84t63.5 56.5t104 20.5q29 0 59.5 -6.5t55.5 -18t40 -25.5l6 -74q-20 12 -48 19t-60 7q-50 0 -72 -17.5t-22 -50.5q0 -19 10.5 -33t30 -22t44.5 -8q21 0 45 3t45 11t33 22zM358 200v109
q0 46 -29.5 66.5t-83.5 20.5q-44 0 -88.5 -15.5t-72.5 -38.5v135q26 16 80.5 30t122.5 14q24 0 53 -4t58 -14.5t53.5 -30.5t39.5 -51t15 -77l-1 -128q0 -57 34.5 -85.5t109.5 -28.5q43 0 83 14.5t65 30.5v-128q-35 -20 -79.5 -30.5t-103.5 -10.5q-77 0 -134.5 29.5
t-89.5 79.5t-32 113zM358 246q0 130 65.5 202t187.5 72q83 0 135 -36t76 -104.5t23 -165.5h-386l-15 95h278l-22 -47q-2 79 -23.5 111.5t-71.5 32.5q-28 0 -51 -13.5t-35.5 -46t-12.5 -87.5z" />
    <glyph glyph-name="ccedilla" unicode="&#xe7;" horiz-adv-x="502" 
d="M303 -13q-54 0 -102 16t-85 48t-58 81t-21 114q0 69 20 120.5t55.5 85.5t83.5 51t106 17q41 0 84.5 -8.5t76.5 -23.5v-128q-35 16 -68.5 26.5t-68.5 10.5q-63 0 -101.5 -31.5t-38.5 -102.5q0 -75 34 -113t113 -38q37 0 71.5 13t59.5 27v-127q-35 -18 -73 -28t-88 -10z
M163 -133l90 128h96l-52 -128h-134z" />
    <glyph glyph-name="egrave" unicode="&#xe8;" horiz-adv-x="562" 
d="M295 -15q-76 0 -134.5 31.5t-91 90t-32.5 139.5q0 132 65.5 204.5t187.5 72.5q84 0 135.5 -36t75.5 -105t23 -168h-385l-16 95h278l-22 -47q-1 81 -23 114t-72 33q-28 0 -50.5 -14t-35 -46.5t-12.5 -89.5q0 -72 34.5 -111t110.5 -39q28 0 55.5 6.5t51.5 15.5t41 16v-128
q-36 -15 -80.5 -24.5t-103.5 -9.5zM251 565l-111 124h146l46 -124h-81z" />
    <glyph glyph-name="eacute" unicode="&#xe9;" horiz-adv-x="562" 
d="M295 -15q-76 0 -134.5 31.5t-91 90t-32.5 139.5q0 132 65.5 204.5t187.5 72.5q84 0 135.5 -36t75.5 -105t23 -168h-385l-16 95h278l-22 -47q-1 81 -23 114t-72 33q-28 0 -50.5 -14t-35 -46.5t-12.5 -89.5q0 -72 34.5 -111t110.5 -39q28 0 55.5 6.5t51.5 15.5t41 16v-128
q-36 -15 -80.5 -24.5t-103.5 -9.5zM241 565l47 124h146l-111 -124h-82z" />
    <glyph glyph-name="ecircumflex" unicode="&#xea;" horiz-adv-x="562" 
d="M295 -15q-76 0 -134.5 31.5t-91 90t-32.5 139.5q0 132 65.5 204.5t187.5 72.5q84 0 135.5 -36t75.5 -105t23 -168h-385l-16 95h278l-22 -47q-1 81 -23 114t-72 33q-28 0 -50.5 -14t-35 -46.5t-12.5 -89.5q0 -72 34.5 -111t110.5 -39q28 0 55.5 6.5t51.5 15.5t41 16v-128
q-36 -15 -80.5 -24.5t-103.5 -9.5zM147 571l87 121h122l87 -121h-99l-49 59l-49 -59h-99z" />
    <glyph glyph-name="edieresis" unicode="&#xeb;" horiz-adv-x="562" 
d="M295 -15q-76 0 -134.5 31.5t-91 90t-32.5 139.5q0 132 65.5 204.5t187.5 72.5q84 0 135.5 -36t75.5 -105t23 -168h-385l-16 95h278l-22 -47q-1 81 -23 114t-72 33q-28 0 -50.5 -14t-35 -46.5t-12.5 -89.5q0 -72 34.5 -111t110.5 -39q28 0 55.5 6.5t51.5 15.5t41 16v-128
q-36 -15 -80.5 -24.5t-103.5 -9.5zM323 572v100h129v-100h-129zM140 572v100h128v-100h-128z" />
    <glyph glyph-name="igrave" unicode="&#xec;" horiz-adv-x="332" 
d="M97 0v499h142v-499h-142zM130 563l-90 117h104l61 -117h-75z" />
    <glyph glyph-name="iacute" unicode="&#xed;" horiz-adv-x="332" 
d="M97 0v499h142v-499h-142zM131 558l61 117h104l-90 -117h-75z" />
    <glyph glyph-name="icircumflex" unicode="&#xee;" horiz-adv-x="332" 
d="M97 0v499h142v-499h-142zM37 558l108 122h46l108 -122h-88l-43 52l-43 -52h-88z" />
    <glyph glyph-name="idieresis" unicode="&#xef;" horiz-adv-x="332" 
d="M97 0v499h142v-499h-142zM32 558v100h108v-100h-108zM196 558v100h107v-100h-107z" />
    <glyph glyph-name="eth" unicode="&#xf0;" horiz-adv-x="582" 
d="M294 -22q-128 0 -192.5 67t-64.5 206q0 131 55 200t152 69q58 0 93.5 -20.5t58.5 -56.5l6 -79q-20 27 -48.5 41.5t-59.5 14.5q-38 0 -62 -20.5t-35.5 -58t-11.5 -90.5q0 -82 26.5 -118t82.5 -36q35 0 58 20t34 67.5t11 128.5q0 79 -19.5 138.5t-52.5 103.5t-73.5 77
t-81.5 59v6h179q40 -27 74 -67.5t60.5 -91.5t41 -111.5t14.5 -128.5q0 -161 -60.5 -240.5t-184.5 -79.5zM194 543l-20 85l330 57l24 -78z" />
    <glyph glyph-name="ntilde" unicode="&#xf1;" horiz-adv-x="609" 
d="M66 463q19 10 50 20.5t68 18.5t74.5 13t69.5 5q68 0 116 -17.5t73.5 -56.5t25.5 -106v-340h-149v310q0 19 -5.5 35t-16.5 27.5t-30 18t-46 6.5q-23 0 -46 -5.5t-35 -11.5v-380h-149v463zM194 559h-69q-2 38 12 70.5t40.5 51t60.5 18.5q26 0 46.5 -9.5t38 -22t34 -22.5
t33.5 -10t26 14.5t7 44.5h73q2 -43 -13.5 -74t-41.5 -47.5t-57 -16.5q-32 0 -54 10t-39 22t-30.5 22t-28.5 10q-21 0 -30 -19.5t-8 -41.5z" />
    <glyph glyph-name="ograve" unicode="&#xf2;" horiz-adv-x="590" 
d="M294 -15q-128 0 -192.5 68.5t-64.5 201.5q0 143 65.5 205.5t191.5 62.5q85 0 142.5 -28.5t87 -87.5t29.5 -152q0 -133 -67 -201.5t-192 -68.5zM294 104q37 0 61.5 17.5t37 51t12.5 82.5q0 56 -12.5 88.5t-37.5 47t-61 14.5q-38 0 -62 -15t-35.5 -47.5t-11.5 -87.5
q0 -76 26.5 -113.5t82.5 -37.5zM258 572l-111 124h146l46 -124h-81z" />
    <glyph glyph-name="oacute" unicode="&#xf3;" horiz-adv-x="590" 
d="M294 -15q-128 0 -192.5 68.5t-64.5 201.5q0 143 65.5 205.5t191.5 62.5q85 0 142.5 -28.5t87 -87.5t29.5 -152q0 -133 -67 -201.5t-192 -68.5zM294 104q37 0 61.5 17.5t37 51t12.5 82.5q0 56 -12.5 88.5t-37.5 47t-61 14.5q-38 0 -62 -15t-35.5 -47.5t-11.5 -87.5
q0 -76 26.5 -113.5t82.5 -37.5zM249 572l47 124h146l-111 -124h-82z" />
    <glyph glyph-name="ocircumflex" unicode="&#xf4;" horiz-adv-x="590" 
d="M294 -15q-128 0 -192.5 68.5t-64.5 201.5q0 143 65.5 205.5t191.5 62.5q85 0 142.5 -28.5t87 -87.5t29.5 -152q0 -133 -67 -201.5t-192 -68.5zM294 104q37 0 61.5 17.5t37 51t12.5 82.5q0 56 -12.5 88.5t-37.5 47t-61 14.5q-38 0 -62 -15t-35.5 -47.5t-11.5 -87.5
q0 -76 26.5 -113.5t82.5 -37.5zM155 578l87 121h122l87 -121h-99l-49 59l-49 -59h-99z" />
    <glyph glyph-name="otilde" unicode="&#xf5;" horiz-adv-x="590" 
d="M294 -15q-128 0 -192.5 68.5t-64.5 201.5q0 143 65.5 205.5t191.5 62.5q85 0 142.5 -28.5t87 -87.5t29.5 -152q0 -133 -67 -201.5t-192 -68.5zM294 104q37 0 61.5 17.5t37 51t12.5 82.5q0 56 -12.5 88.5t-37.5 47t-61 14.5q-38 0 -62 -15t-35.5 -47.5t-11.5 -87.5
q0 -76 26.5 -113.5t82.5 -37.5zM187 566h-69q-2 38 12 70.5t40.5 51t60.5 18.5q26 0 46.5 -9.5t38 -22t34 -22.5t33.5 -10t26 14.5t7 44.5h73q2 -43 -13.5 -74t-41.5 -47.5t-57 -16.5q-32 0 -54 10t-39 22t-30.5 22t-28.5 10q-21 0 -30 -19.5t-8 -41.5z" />
    <glyph glyph-name="odieresis" unicode="&#xf6;" horiz-adv-x="590" 
d="M294 -15q-128 0 -192.5 68.5t-64.5 201.5q0 143 65.5 205.5t191.5 62.5q85 0 142.5 -28.5t87 -87.5t29.5 -152q0 -133 -67 -201.5t-192 -68.5zM294 104q37 0 61.5 17.5t37 51t12.5 82.5q0 56 -12.5 88.5t-37.5 47t-61 14.5q-38 0 -62 -15t-35.5 -47.5t-11.5 -87.5
q0 -76 26.5 -113.5t82.5 -37.5zM330 579v100h129v-100h-129zM147 579v100h128v-100h-128z" />
    <glyph glyph-name="divide" unicode="&#xf7;" horiz-adv-x="628" 
d="M98 211v97h434v-97h-434zM260 38v106h110v-106h-110zM260 375v106h110v-106h-110z" />
    <glyph glyph-name="oslash" unicode="&#xf8;" horiz-adv-x="601" 
d="M154 0h-135l426 499h136zM294 -15q-128 0 -192.5 68.5t-64.5 201.5q0 143 65.5 205.5t191.5 62.5q85 0 142.5 -28.5t87 -87.5t29.5 -152q0 -133 -67 -201.5t-192 -68.5zM294 104q37 0 61.5 17.5t37 51t12.5 82.5q0 56 -12.5 88.5t-37.5 47t-61 14.5q-38 0 -62 -15
t-35.5 -47.5t-11.5 -87.5q0 -76 26.5 -113.5t82.5 -37.5z" />
    <glyph glyph-name="ugrave" unicode="&#xf9;" horiz-adv-x="601" 
d="M304 -15q-70 0 -124 22t-84 67.5t-30 118.5v313h149v-301q0 -48 21.5 -71.5t68.5 -23.5q48 0 69 23.5t21 71.5v301h140v-313q0 -108 -62 -158t-169 -50zM270 565l-111 124h146l46 -124h-81z" />
    <glyph glyph-name="uacute" unicode="&#xfa;" horiz-adv-x="601" 
d="M304 -15q-70 0 -124 22t-84 67.5t-30 118.5v313h149v-301q0 -48 21.5 -71.5t68.5 -23.5q48 0 69 23.5t21 71.5v301h140v-313q0 -108 -62 -158t-169 -50zM261 565l47 124h146l-111 -124h-82z" />
    <glyph glyph-name="ucircumflex" unicode="&#xfb;" horiz-adv-x="601" 
d="M304 -15q-70 0 -124 22t-84 67.5t-30 118.5v313h149v-301q0 -48 21.5 -71.5t68.5 -23.5q48 0 69 23.5t21 71.5v301h140v-313q0 -108 -62 -158t-169 -50zM167 571l87 121h122l87 -121h-99l-49 59l-49 -59h-99z" />
    <glyph glyph-name="udieresis" unicode="&#xfc;" horiz-adv-x="601" 
d="M304 -15q-70 0 -124 22t-84 67.5t-30 118.5v313h149v-301q0 -48 21.5 -71.5t68.5 -23.5q48 0 69 23.5t21 71.5v301h140v-313q0 -108 -62 -158t-169 -50zM342 572v100h129v-100h-129zM159 572v100h128v-100h-128z" />
    <glyph glyph-name="yacute" unicode="&#xfd;" horiz-adv-x="593" 
d="M176 -196q-25 0 -49 5t-41 13v121q16 -6 30 -8.5t29 -2.5q25 0 43.5 11.5t30.5 39t19 74.5l3 -85l-217 534h171l115 -355h-15l114 355h160l-199 -514q-27 -70 -58.5 -111t-65.5 -59t-70 -18zM251 551l47 124h146l-111 -124h-82z" />
    <glyph glyph-name="thorn" unicode="&#xfe;" horiz-adv-x="595" 
d="M214 -185h-148v882h148v-882zM214 119q19 -11 41.5 -16t40.5 -5q36 0 61 14t38.5 45t13.5 82q0 44 -10 76t-33.5 49t-63.5 17q-25 0 -50.5 -5.5t-37.5 -18.5l-132 95q14 13 40 23t59 16.5t66 10.5t61 4q73 0 129 -25.5t88 -84.5t32 -162q0 -75 -26.5 -133t-76.5 -90.5
t-121 -32.5q-15 0 -42 3t-56 13.5t-51 32.5z" />
    <glyph glyph-name="ydieresis" unicode="&#xff;" horiz-adv-x="593" 
d="M176 -196q-25 0 -49 5t-41 13v121q16 -6 30 -8.5t29 -2.5q25 0 43.5 11.5t30.5 39t19 74.5l3 -85l-217 534h171l115 -355h-15l114 355h160l-199 -514q-27 -70 -58.5 -111t-65.5 -59t-70 -18zM332 558v100h129v-100h-129zM149 558v100h128v-100h-128z" />
    <glyph glyph-name="Amacron" unicode="&#x100;" horiz-adv-x="691" 
d="M13 0l252 667h177l236 -667h-166l-213 629l79 7l-212 -636h-153zM155 144l33 119h303l15 -119h-351zM204 712v95h276v-95h-276z" />
    <glyph glyph-name="amacron" unicode="&#x101;" horiz-adv-x="572" 
d="M261 -15q-46 0 -86.5 8.5t-71 28t-47.5 53t-17 83.5q0 47 19.5 82t59.5 54t101 19q34 0 66 -7t57.5 -19t40.5 -26l6 -72q-20 12 -48 19t-60 7q-49 0 -71.5 -14.5t-22.5 -45.5q0 -19 11 -34t29.5 -23t38.5 -8q51 0 71.5 7t20.5 28v186q0 46 -29.5 66.5t-83.5 20.5
q-44 0 -88.5 -15.5t-72.5 -37.5v132q26 16 80.5 30t122.5 14q24 0 53 -4t58 -14.5t53.5 -30.5t39.5 -51t15 -77l-1 -239q0 -43 -29 -69.5t-83.5 -38.5t-131.5 -12zM142 573v95h276v-95h-276z" />
    <glyph glyph-name="Abreve" unicode="&#x102;" horiz-adv-x="691" 
d="M13 0l252 667h177l236 -667h-166l-213 629l79 7l-212 -636h-153zM155 144l33 119h303l15 -119h-351zM347 701q-48 0 -78.5 17t-47.5 47.5t-25 68.5h83q7 -20 23.5 -39t44.5 -19q29 0 44.5 19t22.5 39h84q-5 -38 -22 -68.5t-49 -47.5t-80 -17z" />
    <glyph glyph-name="abreve" unicode="&#x103;" horiz-adv-x="572" 
d="M261 -15q-46 0 -86.5 8.5t-71 28t-47.5 53t-17 83.5q0 47 19.5 82t59.5 54t101 19q34 0 66 -7t57.5 -19t40.5 -26l6 -72q-20 12 -48 19t-60 7q-49 0 -71.5 -14.5t-22.5 -45.5q0 -19 11 -34t29.5 -23t38.5 -8q51 0 71.5 7t20.5 28v186q0 46 -29.5 66.5t-83.5 20.5
q-44 0 -88.5 -15.5t-72.5 -37.5v132q26 16 80.5 30t122.5 14q24 0 53 -4t58 -14.5t53.5 -30.5t39.5 -51t15 -77l-1 -239q0 -43 -29 -69.5t-83.5 -38.5t-131.5 -12zM284 559q-48 0 -78.5 17t-47.5 47.5t-25 68.5h83q7 -20 23.5 -39t44.5 -19q29 0 44.5 19t22.5 39h84
q-5 -38 -22 -68.5t-49 -47.5t-80 -17z" />
    <glyph glyph-name="Aogonek" unicode="&#x104;" horiz-adv-x="691" 
d="M13 0l252 667h177l236 -667h-166l-213 629l79 7l-212 -636h-153zM155 144l33 119h303l15 -119h-351zM589 -188q-65 0 -96 24t-31 72q0 38 32.5 66t86.5 49l96 -23q-41 -17 -69 -37t-28 -40q0 -21 9.5 -28.5t25.5 -7.5q18 0 34.5 10.5t30.5 23.5v-85q-15 -8 -35.5 -16
t-55.5 -8z" />
    <glyph glyph-name="aogonek" unicode="&#x105;" horiz-adv-x="572" 
d="M261 -15q-46 0 -86.5 8.5t-71 28t-47.5 53t-17 83.5q0 47 19.5 82t59.5 54t101 19q34 0 66 -7t57.5 -19t40.5 -26l6 -72q-20 12 -48 19t-60 7q-49 0 -71.5 -14.5t-22.5 -45.5q0 -19 11 -34t29.5 -23t38.5 -8q51 0 71.5 7t20.5 28v186q0 46 -29.5 66.5t-83.5 20.5
q-44 0 -88.5 -15.5t-72.5 -37.5v132q26 16 80.5 30t122.5 14q24 0 53 -4t58 -14.5t53.5 -30.5t39.5 -51t15 -77l-1 -239q0 -43 -29 -69.5t-83.5 -38.5t-131.5 -12zM367 -168q-65 0 -96 24t-31 72q0 38 32.5 66t86.5 49l96 -23q-41 -17 -69 -37t-28 -40q0 -21 9.5 -28.5
t25.5 -7.5q18 0 34.5 10.5t30.5 23.5v-85q-15 -8 -35.5 -16t-55.5 -8z" />
    <glyph glyph-name="Cacute" unicode="&#x106;" horiz-adv-x="630" 
d="M366 -13q-160 0 -244.5 84.5t-84.5 261.5q0 172 81 260.5t248 88.5q53 0 107 -13t105 -36v-141q-52 34 -100 49t-90 15q-59 0 -99.5 -21t-62 -70t-21.5 -132t21.5 -131t64 -68.5t104.5 -20.5q37 0 84 14t99 48v-141q-28 -14 -63.5 -24.5t-74 -16.5t-74.5 -6zM313 740
l37 113h156l-118 -113h-75z" />
    <glyph glyph-name="cacute" unicode="&#x107;" horiz-adv-x="502" 
d="M303 -13q-54 0 -102 16t-85 48t-58 81t-21 114q0 69 20 120.5t55.5 85.5t83.5 51t106 17q41 0 84.5 -8.5t76.5 -23.5v-128q-35 16 -68.5 26.5t-68.5 10.5q-63 0 -101.5 -31.5t-38.5 -102.5q0 -75 34 -113t113 -38q37 0 71.5 13t59.5 27v-127q-35 -18 -73 -28t-88 -10z
M241 565l47 124h146l-111 -124h-82z" />
    <glyph glyph-name="Ccircumflex" unicode="&#x108;" horiz-adv-x="630" 
d="M366 -13q-160 0 -244.5 84.5t-84.5 261.5q0 172 81 260.5t248 88.5q53 0 107 -13t105 -36v-141q-52 34 -100 49t-90 15q-59 0 -99.5 -21t-62 -70t-21.5 -132t21.5 -131t64 -68.5t104.5 -20.5q37 0 84 14t99 48v-141q-28 -14 -63.5 -24.5t-74 -16.5t-74.5 -6zM204 731
l87 121h122l87 -121h-99l-49 59l-49 -59h-99z" />
    <glyph glyph-name="ccircumflex" unicode="&#x109;" horiz-adv-x="502" 
d="M303 -13q-54 0 -102 16t-85 48t-58 81t-21 114q0 69 20 120.5t55.5 85.5t83.5 51t106 17q41 0 84.5 -8.5t76.5 -23.5v-128q-35 16 -68.5 26.5t-68.5 10.5q-63 0 -101.5 -31.5t-38.5 -102.5q0 -75 34 -113t113 -38q37 0 71.5 13t59.5 27v-127q-35 -18 -73 -28t-88 -10z
M147 571l87 121h122l87 -121h-99l-49 59l-49 -59h-99z" />
    <glyph glyph-name="Cdotaccent" unicode="&#x10a;" horiz-adv-x="630" 
d="M366 -13q-160 0 -244.5 84.5t-84.5 261.5q0 172 81 260.5t248 88.5q53 0 107 -13t105 -36v-141q-52 34 -100 49t-90 15q-59 0 -99.5 -21t-62 -70t-21.5 -132t21.5 -131t64 -68.5t104.5 -20.5q37 0 84 14t99 48v-141q-28 -14 -63.5 -24.5t-74 -16.5t-74.5 -6zM281 718v100
h122v-100h-122z" />
    <glyph glyph-name="cdotaccent" unicode="&#x10b;" horiz-adv-x="502" 
d="M303 -13q-54 0 -102 16t-85 48t-58 81t-21 114q0 69 20 120.5t55.5 85.5t83.5 51t106 17q41 0 84.5 -8.5t76.5 -23.5v-128q-35 16 -68.5 26.5t-68.5 10.5q-63 0 -101.5 -31.5t-38.5 -102.5q0 -75 34 -113t113 -38q37 0 71.5 13t59.5 27v-127q-35 -18 -73 -28t-88 -10z
M217 565v100h122v-100h-122z" />
    <glyph glyph-name="Ccaron" unicode="&#x10c;" horiz-adv-x="630" 
d="M366 -13q-160 0 -244.5 84.5t-84.5 261.5q0 172 81 260.5t248 88.5q53 0 107 -13t105 -36v-141q-52 34 -100 49t-90 15q-59 0 -99.5 -21t-62 -70t-21.5 -132t21.5 -131t64 -68.5t104.5 -20.5q37 0 84 14t99 48v-141q-28 -14 -63.5 -24.5t-74 -16.5t-74.5 -6zM290 722
l-80 121h95l43 -58l43 58h95l-73 -121h-123z" />
    <glyph glyph-name="ccaron" unicode="&#x10d;" horiz-adv-x="502" 
d="M303 -13q-54 0 -102 16t-85 48t-58 81t-21 114q0 69 20 120.5t55.5 85.5t83.5 51t106 17q41 0 84.5 -8.5t76.5 -23.5v-128q-35 16 -68.5 26.5t-68.5 10.5q-63 0 -101.5 -31.5t-38.5 -102.5q0 -75 34 -113t113 -38q37 0 71.5 13t59.5 27v-127q-35 -18 -73 -28t-88 -10z
M227 578l-80 121h95l43 -58l43 58h95l-73 -121h-123z" />
    <glyph glyph-name="Dcaron" unicode="&#x10e;" horiz-adv-x="711" 
d="M71 0v667h268q170 0 250 -84.5t80 -249.5q0 -164 -80 -248.5t-250 -84.5h-268zM233 125h87q90 0 136.5 50t46.5 158q0 110 -46.5 159.5t-136.5 49.5h-87v-417zM251 700l-80 121h95l43 -58l43 58h95l-73 -121h-123z" />
    <glyph glyph-name="dcaron" unicode="&#x10f;" horiz-adv-x="732" 
d="M308 -15q-59 0 -108.5 13t-85.5 43.5t-56.5 83.5t-20.5 132q0 123 60.5 194t181.5 71q16 0 42 -2.5t54 -12.5t50 -34l-30 -46v287h148v-582q0 -37 -20 -64.5t-53.5 -45.5t-75.5 -27.5t-86 -9.5zM314 110q36 0 58.5 9.5t22.5 28.5v233q-18 10 -38.5 15.5t-39.5 5.5
q-42 0 -71 -14t-43.5 -47t-14.5 -89q0 -44 12 -75.5t39.5 -49t74.5 -17.5zM564 510l74 196h122l-92 -196h-104z" />
    <glyph glyph-name="Dcroat" unicode="&#x110;" horiz-adv-x="711" 
d="M71 0v667h268q170 0 250 -84.5t80 -249.5q0 -164 -80 -248.5t-250 -84.5h-268zM233 125h87q90 0 136.5 50t46.5 158q0 110 -46.5 159.5t-136.5 49.5h-87v-417zM5 288v91h301v-91h-301z" />
    <glyph glyph-name="dcroat" unicode="&#x111;" horiz-adv-x="609" 
d="M308 -15q-59 0 -108.5 13t-85.5 43.5t-56.5 83.5t-20.5 132q0 123 60.5 194t181.5 71q16 0 42 -2.5t54 -12.5t50 -34l-30 -46v287h148v-582q0 -37 -20 -64.5t-53.5 -45.5t-75.5 -27.5t-86 -9.5zM314 110q36 0 58.5 9.5t22.5 28.5v233q-18 10 -38.5 15.5t-39.5 5.5
q-42 0 -71 -14t-43.5 -47t-14.5 -89q0 -44 12 -75.5t39.5 -49t74.5 -17.5zM301 555v91h301v-91h-301z" />
    <glyph glyph-name="Emacron" unicode="&#x112;" horiz-adv-x="593" 
d="M71 0v667h457v-125h-295v-145h256v-126h-256v-146h295v-125h-457zM161 712v95h276v-95h-276z" />
    <glyph glyph-name="emacron" unicode="&#x113;" horiz-adv-x="562" 
d="M295 -15q-76 0 -134.5 31.5t-91 90t-32.5 139.5q0 132 65.5 204.5t187.5 72.5q84 0 135.5 -36t75.5 -105t23 -168h-385l-16 95h278l-22 -47q-1 81 -23 114t-72 33q-28 0 -50.5 -14t-35 -46.5t-12.5 -89.5q0 -72 34.5 -111t110.5 -39q28 0 55.5 6.5t51.5 15.5t41 16v-128
q-36 -15 -80.5 -24.5t-103.5 -9.5zM147 566v95h276v-95h-276z" />
    <glyph glyph-name="Ebreve" unicode="&#x114;" horiz-adv-x="593" 
d="M71 0v667h457v-125h-295v-145h256v-126h-256v-146h295v-125h-457zM304 701q-48 0 -78.5 17t-47.5 47.5t-25 68.5h83q7 -20 23.5 -39t44.5 -19q29 0 44.5 19t22.5 39h84q-5 -38 -22 -68.5t-49 -47.5t-80 -17z" />
    <glyph glyph-name="ebreve" unicode="&#x115;" horiz-adv-x="562" 
d="M295 -15q-76 0 -134.5 31.5t-91 90t-32.5 139.5q0 132 65.5 204.5t187.5 72.5q84 0 135.5 -36t75.5 -105t23 -168h-385l-16 95h278l-22 -47q-1 81 -23 114t-72 33q-28 0 -50.5 -14t-35 -46.5t-12.5 -89.5q0 -72 34.5 -111t110.5 -39q28 0 55.5 6.5t51.5 15.5t41 16v-128
q-36 -15 -80.5 -24.5t-103.5 -9.5zM289 552q-48 0 -78.5 17t-47.5 47.5t-25 68.5h83q7 -20 23.5 -39t44.5 -19q29 0 44.5 19t22.5 39h84q-5 -38 -22 -68.5t-49 -47.5t-80 -17z" />
    <glyph glyph-name="Edotaccent" unicode="&#x116;" horiz-adv-x="593" 
d="M71 0v667h457v-125h-295v-145h256v-126h-256v-146h295v-125h-457zM232 697v100h122v-100h-122z" />
    <glyph glyph-name="edotaccent" unicode="&#x117;" horiz-adv-x="562" 
d="M295 -15q-76 0 -134.5 31.5t-91 90t-32.5 139.5q0 132 65.5 204.5t187.5 72.5q84 0 135.5 -36t75.5 -105t23 -168h-385l-16 95h278l-22 -47q-1 81 -23 114t-72 33q-28 0 -50.5 -14t-35 -46.5t-12.5 -89.5q0 -72 34.5 -111t110.5 -39q28 0 55.5 6.5t51.5 15.5t41 16v-128
q-36 -15 -80.5 -24.5t-103.5 -9.5zM217 565v100h122v-100h-122z" />
    <glyph glyph-name="Eogonek" unicode="&#x118;" horiz-adv-x="593" 
d="M71 0v667h457v-125h-295v-145h256v-126h-256v-146h295v-125h-457zM430 -188q-65 0 -96 24t-31 72q0 38 32.5 66t86.5 49l96 -23q-41 -17 -69 -37t-28 -40q0 -21 9.5 -28.5t25.5 -7.5q18 0 34.5 10.5t30.5 23.5v-85q-15 -8 -35.5 -16t-55.5 -8z" />
    <glyph glyph-name="eogonek" unicode="&#x119;" horiz-adv-x="562" 
d="M295 -15q-76 0 -134.5 31.5t-91 90t-32.5 139.5q0 132 65.5 204.5t187.5 72.5q84 0 135.5 -36t75.5 -105t23 -168h-385l-16 95h278l-22 -47q-1 81 -23 114t-72 33q-28 0 -50.5 -14t-35 -46.5t-12.5 -89.5q0 -72 34.5 -111t110.5 -39q28 0 55.5 6.5t51.5 15.5t41 16v-128
q-36 -15 -80.5 -24.5t-103.5 -9.5zM375 -176q-65 0 -96 24t-31 72q0 38 32.5 66t86.5 49l96 -23q-41 -17 -69 -37t-28 -40q0 -21 9.5 -28.5t25.5 -7.5q18 0 34.5 10.5t30.5 23.5v-85q-15 -8 -35.5 -16t-55.5 -8z" />
    <glyph glyph-name="Ecaron" unicode="&#x11a;" horiz-adv-x="593" 
d="M71 0v667h457v-125h-295v-145h256v-126h-256v-146h295v-125h-457zM242 700l-80 121h95l43 -58l43 58h95l-73 -121h-123z" />
    <glyph glyph-name="ecaron" unicode="&#x11b;" horiz-adv-x="562" 
d="M295 -15q-76 0 -134.5 31.5t-91 90t-32.5 139.5q0 132 65.5 204.5t187.5 72.5q84 0 135.5 -36t75.5 -105t23 -168h-385l-16 95h278l-22 -47q-1 81 -23 114t-72 33q-28 0 -50.5 -14t-35 -46.5t-12.5 -89.5q0 -72 34.5 -111t110.5 -39q28 0 55.5 6.5t51.5 15.5t41 16v-128
q-36 -15 -80.5 -24.5t-103.5 -9.5zM227 578l-80 121h95l43 -58l43 58h95l-73 -121h-123z" />
    <glyph glyph-name="Gcircumflex" unicode="&#x11c;" horiz-adv-x="706" 
d="M368 -14q-98 0 -171.5 35t-114 111.5t-40.5 200.5q0 122 40.5 199t114 113.5t171.5 36.5q63 0 123 -13t115 -36v-147q-60 31 -111.5 50t-106.5 19q-57 0 -97.5 -20t-61.5 -68.5t-21 -132.5q0 -83 21.5 -131.5t60.5 -69.5t91 -21q27 0 50.5 3.5t41.5 12.5v118h-110v126
h272v-314q-62 -34 -129.5 -53t-137.5 -19zM223 724l87 121h122l87 -121h-99l-49 59l-49 -59h-99z" />
    <glyph glyph-name="gcircumflex" unicode="&#x11d;" horiz-adv-x="593" 
d="M260 -15q-69 4 -118.5 32t-77 82.5t-27.5 137.5q0 84 21 139.5t58.5 86.5t90.5 44t118 13q63 0 110 -16t73 -46t26 -74v-390q0 -53 -17 -93.5t-50.5 -68t-81 -41.5t-109.5 -14q-67 0 -114.5 9.5t-72.5 23.5v131q15 -6 44 -16t65 -16.5t72 -6.5q47 0 72.5 13t35.5 35
t10 50v82l29 -21q-16 -23 -38 -40t-51.5 -26.5t-67.5 -9.5zM298 97q26 0 48 5.5t42 16.5v232q0 21 -12 32t-30 15t-38 4q-46 0 -72.5 -20t-38 -55.5t-11.5 -80.5q0 -69 31 -109t81 -40zM185 578l87 121h122l87 -121h-99l-49 59l-49 -59h-99z" />
    <glyph glyph-name="Gbreve" unicode="&#x11e;" horiz-adv-x="706" 
d="M368 -14q-98 0 -171.5 35t-114 111.5t-40.5 200.5q0 122 40.5 199t114 113.5t171.5 36.5q63 0 123 -13t115 -36v-147q-60 31 -111.5 50t-106.5 19q-57 0 -97.5 -20t-61.5 -68.5t-21 -132.5q0 -83 21.5 -131.5t60.5 -69.5t91 -21q27 0 50.5 3.5t41.5 12.5v118h-110v126
h272v-314q-62 -34 -129.5 -53t-137.5 -19zM372 715q-48 0 -78.5 17t-47.5 47.5t-25 68.5h83q7 -20 23.5 -39t44.5 -19q29 0 44.5 19t22.5 39h84q-5 -38 -22 -68.5t-49 -47.5t-80 -17z" />
    <glyph glyph-name="gbreve" unicode="&#x11f;" horiz-adv-x="593" 
d="M260 -15q-69 4 -118.5 32t-77 82.5t-27.5 137.5q0 84 21 139.5t58.5 86.5t90.5 44t118 13q63 0 110 -16t73 -46t26 -74v-390q0 -53 -17 -93.5t-50.5 -68t-81 -41.5t-109.5 -14q-67 0 -114.5 9.5t-72.5 23.5v131q15 -6 44 -16t65 -16.5t72 -6.5q47 0 72.5 13t35.5 35
t10 50v82l29 -21q-16 -23 -38 -40t-51.5 -26.5t-67.5 -9.5zM298 97q26 0 48 5.5t42 16.5v232q0 21 -12 32t-30 15t-38 4q-46 0 -72.5 -20t-38 -55.5t-11.5 -80.5q0 -69 31 -109t81 -40zM327 559q-48 0 -78.5 17t-47.5 47.5t-25 68.5h83q7 -20 23.5 -39t44.5 -19
q29 0 44.5 19t22.5 39h84q-5 -38 -22 -68.5t-49 -47.5t-80 -17z" />
    <glyph glyph-name="Gdotaccent" unicode="&#x120;" horiz-adv-x="706" 
d="M368 -14q-98 0 -171.5 35t-114 111.5t-40.5 200.5q0 122 40.5 199t114 113.5t171.5 36.5q63 0 123 -13t115 -36v-147q-60 31 -111.5 50t-106.5 19q-57 0 -97.5 -20t-61.5 -68.5t-21 -132.5q0 -83 21.5 -131.5t60.5 -69.5t91 -21q27 0 50.5 3.5t41.5 12.5v118h-110v126
h272v-314q-62 -34 -129.5 -53t-137.5 -19zM300 711v100h122v-100h-122z" />
    <glyph glyph-name="gdotaccent" unicode="&#x121;" horiz-adv-x="593" 
d="M260 -15q-69 4 -118.5 32t-77 82.5t-27.5 137.5q0 84 21 139.5t58.5 86.5t90.5 44t118 13q63 0 110 -16t73 -46t26 -74v-390q0 -53 -17 -93.5t-50.5 -68t-81 -41.5t-109.5 -14q-67 0 -114.5 9.5t-72.5 23.5v131q15 -6 44 -16t65 -16.5t72 -6.5q47 0 72.5 13t35.5 35
t10 50v82l29 -21q-16 -23 -38 -40t-51.5 -26.5t-67.5 -9.5zM298 97q26 0 48 5.5t42 16.5v232q0 21 -12 32t-30 15t-38 4q-46 0 -72.5 -20t-38 -55.5t-11.5 -80.5q0 -69 31 -109t81 -40zM255 572v100h122v-100h-122z" />
    <glyph glyph-name="uni0122" unicode="&#x122;" horiz-adv-x="706" 
d="M368 -14q-98 0 -171.5 35t-114 111.5t-40.5 200.5q0 122 40.5 199t114 113.5t171.5 36.5q63 0 123 -13t115 -36v-147q-60 31 -111.5 50t-106.5 19q-57 0 -97.5 -20t-61.5 -68.5t-21 -132.5q0 -83 21.5 -131.5t60.5 -69.5t91 -21q27 0 50.5 3.5t41.5 12.5v118h-110v126
h272v-314q-62 -34 -129.5 -53t-137.5 -19zM291 -194v69q16 5 24.5 14.5t11.5 25t3 35.5h112q1 -42 -17 -74t-52 -50t-82 -20z" />
    <glyph glyph-name="uni0123" unicode="&#x123;" horiz-adv-x="593" 
d="M409 714v-69q-16 -3 -24.5 -13.5t-11 -25.5t-2.5 -36h-113q-1 42 17.5 74t52.5 50t81 20zM260 -15q-69 4 -118.5 32t-77 82.5t-27.5 137.5q0 84 21 139.5t58.5 86.5t90.5 44t118 13q63 0 110 -16t73 -46t26 -74v-390q0 -53 -17 -93.5t-50.5 -68t-81 -41.5t-109.5 -14
q-67 0 -114.5 9.5t-72.5 23.5v131q15 -6 44 -16t65 -16.5t72 -6.5q47 0 72.5 13t35.5 35t10 50v82l29 -21q-16 -23 -38 -40t-51.5 -26.5t-67.5 -9.5zM298 97q26 0 48 5.5t42 16.5v232q0 21 -12 32t-30 15t-38 4q-46 0 -72.5 -20t-38 -55.5t-11.5 -80.5q0 -69 31 -109t81 -40
z" />
    <glyph glyph-name="Hcircumflex" unicode="&#x124;" horiz-adv-x="710" 
d="M71 0v667h162v-270h245v270h161v-667h-161v265h-245v-265h-162zM207 710l87 121h122l87 -121h-99l-49 59l-49 -59h-99z" />
    <glyph glyph-name="hcircumflex" unicode="&#x125;" horiz-adv-x="611" 
d="M66 0v706h150v-300l-63 34q40 35 94.5 57.5t111.5 22.5q55 0 97 -18t65.5 -58.5t23.5 -111.5v-332h-149v301q0 50 -24.5 72.5t-71.5 22.5q-24 0 -47.5 -6.5t-36.5 -16.5l-2 -373h-148zM-11 746l87 121h122l87 -121h-99l-49 59l-49 -59h-99z" />
    <glyph glyph-name="Hbar" unicode="&#x126;" horiz-adv-x="710" 
d="M28 487v78h654v-78h-654zM71 0v667h162v-270h245v270h161v-667h-161v265h-245v-265h-162z" />
    <glyph glyph-name="hbar" unicode="&#x127;" horiz-adv-x="611" 
d="M66 0v706h150v-300l-63 34q40 35 94.5 57.5t111.5 22.5q55 0 97 -18t65.5 -58.5t23.5 -111.5v-332h-149v301q0 50 -24.5 72.5t-71.5 22.5q-24 0 -47.5 -6.5t-36.5 -16.5l-2 -373h-148zM-3 549v91h301v-91h-301z" />
    <glyph glyph-name="Itilde" unicode="&#x128;" horiz-adv-x="304" 
d="M71 0v667h162v-667h-162zM49 720h-69q-2 38 12 70.5t40.5 51t60.5 18.5q26 0 46.5 -9.5t38 -22t34 -22.5t33.5 -10t26 14.5t7 44.5h73q2 -43 -13.5 -74t-41.5 -47.5t-57 -16.5q-32 0 -54 10t-39 22t-30.5 22t-28.5 10q-21 0 -30 -19.5t-8 -41.5z" />
    <glyph glyph-name="itilde" unicode="&#x129;" horiz-adv-x="282" 
d="M66 0v499h149l1 -499h-150zM32 545h-69q-2 38 12 70.5t40.5 51t60.5 18.5q26 0 46.5 -9.5t38 -22t34 -22.5t33.5 -10t26 14.5t7 44.5h73q2 -43 -13.5 -74t-41.5 -47.5t-57 -16.5q-32 0 -54 10t-39 22t-30.5 22t-28.5 10q-21 0 -30 -19.5t-8 -41.5z" />
    <glyph glyph-name="Imacron" unicode="&#x12a;" horiz-adv-x="304" 
d="M71 0v667h162v-667h-162zM15 712v95h276v-95h-276z" />
    <glyph glyph-name="imacron" unicode="&#x12b;" horiz-adv-x="332" 
d="M97 0v499h142v-499h-142zM51 562v78h234v-78h-234z" />
    <glyph glyph-name="Ibreve" unicode="&#x12c;" horiz-adv-x="304" 
d="M71 0v667h162v-667h-162zM158 701q-48 0 -78.5 17t-47.5 47.5t-25 68.5h83q7 -20 23.5 -39t44.5 -19q29 0 44.5 19t22.5 39h84q-5 -38 -22 -68.5t-49 -47.5t-80 -17z" />
    <glyph glyph-name="ibreve" unicode="&#x12d;" horiz-adv-x="282" 
d="M66 0v499h149l1 -499h-150zM142 538q-48 0 -78.5 17t-47.5 47.5t-25 68.5h83q7 -20 23.5 -39t44.5 -19q29 0 44.5 19t22.5 39h84q-5 -38 -22 -68.5t-49 -47.5t-80 -17z" />
    <glyph glyph-name="Iogonek" unicode="&#x12e;" horiz-adv-x="304" 
d="M142 -188q-65 0 -96 24t-31 72q0 38 34 67t88 50l93 -25q-41 -17 -69 -37t-28 -40q0 -21 9.5 -28.5t25.5 -7.5q18 0 34.5 10.5t30.5 23.5v-85q-15 -8 -35.5 -16t-55.5 -8zM71 0v667h162v-667h-162z" />
    <glyph glyph-name="iogonek" unicode="&#x12f;" horiz-adv-x="286" 
d="M132 -187q-65 0 -96 24t-31 72q0 37 34 66.5t87 49.5l94 -24q-41 -17 -69 -37t-28 -41q0 -20 9.5 -27.5t25.5 -7.5q18 0 34.5 10.5t30.5 23.5v-85q-15 -8 -35.5 -16t-55.5 -8zM69 0v499h149l1 -499h-150zM66 575v115h154v-115h-154z" />
    <glyph glyph-name="Idotaccent" unicode="&#x130;" horiz-adv-x="304" 
d="M71 0v667h162v-667h-162zM86 697v100h122v-100h-122z" />
    <glyph glyph-name="dotlessi" unicode="&#x131;" horiz-adv-x="282" 
d="M66 0v499h149l1 -499h-150z" />
    <glyph glyph-name="IJ" unicode="&#x132;" horiz-adv-x="783" 
d="M71 0v667h162v-667h-162zM496 -13q-44 0 -84 10.5t-74 26.5v148q34 -23 62 -39t57 -16q42 0 67 22t25 71v457h162v-464q0 -63 -19 -104.5t-49.5 -66t-69 -35t-77.5 -10.5z" />
    <glyph glyph-name="ij" unicode="&#x133;" horiz-adv-x="590" 
d="M69 0v499h149l1 -499h-150zM66 575v115h154v-115h-154zM292 -193v121q28 -3 45.5 4t26 23t8.5 41v510h149l2 -510q0 -72 -30 -113.5t-82 -58.5t-119 -17zM369 582v115h155v-115h-155z" />
    <glyph glyph-name="Jcircumflex" unicode="&#x134;" horiz-adv-x="478" 
d="M192 -13q-44 0 -84 10.5t-74 26.5v148q34 -23 62 -39t57 -16q42 0 67 22t25 71v457h162v-464q0 -63 -19 -104.5t-49.5 -66t-69 -35t-77.5 -10.5zM180 710l87 121h122l87 -121h-99l-49 59l-49 -59h-99z" />
    <glyph glyph-name="jcircumflex" unicode="&#x135;" horiz-adv-x="302" 
d="M3 -193v107q26 0 45.5 6.5t31 22.5t11.5 44v512h142v-503q0 -72 -30 -113.5t-82 -58.5t-118 -17zM31 558l108 122h46l108 -122h-88l-43 52l-43 -52h-88z" />
    <glyph glyph-name="uni0136" unicode="&#x136;" horiz-adv-x="680" 
d="M226 200l-55 103l266 364h204zM71 0v667h162v-667h-162zM371 413l291 -413h-203l-213 309zM253 -194v69q16 5 24.5 14.5t11.5 25t3 35.5h112q1 -42 -17 -74t-52 -50t-82 -20z" />
    <glyph glyph-name="uni0137" unicode="&#x137;" horiz-adv-x="616" 
d="M88 0v687h143v-346l140 158h184l-206 -223l229 -276h-174l-143 178l-30 -32v-146h-143zM236 -194v62q16 5 24.5 16t11.5 28.5t3 37.5h84q1 -42 -16 -74t-45 -50t-62 -20z" />
    <glyph glyph-name="kgreenlandic" unicode="&#x138;" horiz-adv-x="616" 
d="M88 0v499h143v-158l140 158h184l-206 -223l229 -276h-174l-143 178l-30 -32v-146h-143z" />
    <glyph glyph-name="Lacute" unicode="&#x139;" horiz-adv-x="555" 
d="M71 0v667h162v-540h290v-127h-452zM120 719l37 113h156l-118 -113h-75z" />
    <glyph glyph-name="lacute" unicode="&#x13a;" horiz-adv-x="280" 
d="M214 0h-148v697h148v-697zM100 726l37 113h156l-118 -113h-75z" />
    <glyph glyph-name="uni013B" unicode="&#x13b;" horiz-adv-x="555" 
d="M71 0v667h162v-540h290v-127h-452zM197 -194v69q16 5 24.5 14.5t11.5 25t3 35.5h112q1 -42 -17 -74t-52 -50t-82 -20z" />
    <glyph glyph-name="uni013C" unicode="&#x13c;" horiz-adv-x="280" 
d="M214 0h-148v697h148v-697zM57 -194v69q16 5 24.5 14.5t11.5 25t3 35.5h112q1 -42 -17 -74t-52 -50t-82 -20z" />
    <glyph glyph-name="Lcaron" unicode="&#x13d;" horiz-adv-x="555" 
d="M71 0v667h162v-540h290v-127h-452zM357 525v69q16 5 24.5 14.5t11.5 25t3 35.5h112q1 -42 -17 -74t-52 -50t-82 -20z" />
    <glyph glyph-name="lcaron" unicode="&#x13e;" horiz-adv-x="373" 
d="M101 0v689h142v-689h-142zM290 545v62q17 4 25 15.5t11.5 29t2.5 37.5h84q1 -42 -16 -74t-45 -50t-62 -20z" />
    <glyph glyph-name="Ldot" unicode="&#x13f;" horiz-adv-x="555" 
d="M71 0v667h162v-540h290v-127h-452zM343 271v121h125v-121h-125z" />
    <glyph glyph-name="ldot" unicode="&#x140;" horiz-adv-x="432" 
d="M214 0h-148v697h148v-697zM287 280v121h125v-121h-125z" />
    <glyph glyph-name="Lslash" unicode="&#x141;" horiz-adv-x="560" 
d="M287 428v-66l-196 -97v66zM71 0v667h162v-540h290v-127h-452z" />
    <glyph glyph-name="lslash" unicode="&#x142;" horiz-adv-x="383" 
d="M112 0v253l-89 -51v104l89 51v332h142v-251l114 66v-105l-114 -66v-333h-142z" />
    <glyph glyph-name="Nacute" unicode="&#x143;" horiz-adv-x="724" 
d="M71 0v667h138l343 -462l-48 -100v562h149v-667h-122l-349 456l38 73v-529h-149zM323 719l37 113h156l-118 -113h-75z" />
    <glyph glyph-name="nacute" unicode="&#x144;" horiz-adv-x="609" 
d="M66 463q19 10 50 20.5t68 18.5t74.5 13t69.5 5q68 0 116 -17.5t73.5 -56.5t25.5 -106v-340h-149v310q0 19 -5.5 35t-16.5 27.5t-30 18t-46 6.5q-23 0 -46 -5.5t-35 -11.5v-380h-149v463zM256 565l47 124h146l-111 -124h-82z" />
    <glyph glyph-name="uni0145" unicode="&#x145;" horiz-adv-x="724" 
d="M71 0v667h138l343 -462l-48 -100v562h149v-667h-122l-349 456l38 73v-529h-149zM280 -194v69q16 5 24.5 14.5t11.5 25t3 35.5h112q1 -42 -17 -74t-52 -50t-82 -20z" />
    <glyph glyph-name="uni0146" unicode="&#x146;" horiz-adv-x="609" 
d="M66 463q19 10 50 20.5t68 18.5t74.5 13t69.5 5q68 0 116 -17.5t73.5 -56.5t25.5 -106v-340h-149v310q0 19 -5.5 35t-16.5 27.5t-30 18t-46 6.5q-23 0 -46 -5.5t-35 -11.5v-380h-149v463zM221 -194v69q16 5 24.5 14.5t11.5 25t3 35.5h112q1 -42 -17 -74t-52 -50t-82 -20z
" />
    <glyph glyph-name="Ncaron" unicode="&#x147;" horiz-adv-x="724" 
d="M71 0v667h138l343 -462l-48 -100v562h149v-667h-122l-349 456l38 73v-529h-149zM301 700l-80 121h95l43 -58l43 58h95l-73 -121h-123z" />
    <glyph glyph-name="ncaron" unicode="&#x148;" horiz-adv-x="609" 
d="M66 463q19 10 50 20.5t68 18.5t74.5 13t69.5 5q68 0 116 -17.5t73.5 -56.5t25.5 -106v-340h-149v310q0 19 -5.5 35t-16.5 27.5t-30 18t-46 6.5q-23 0 -46 -5.5t-35 -11.5v-380h-149v463zM242 578l-80 121h95l43 -58l43 58h95l-73 -121h-123z" />
    <glyph glyph-name="napostrophe" unicode="&#x149;" horiz-adv-x="627" 
d="M82 0v450q4 2 23.5 10.5t51.5 19t73.5 19t88.5 8.5q103 0 161.5 -54t58.5 -150v-303h-142v322q0 16 -5.5 32.5t-26 28t-66.5 11.5q-23 0 -41 -3t-34 -7v-384h-142zM34 520v62q16 4 24.5 15.5t12 29t2.5 37.5h85q0 -42 -17 -74t-45 -50.5t-62 -19.5z" />
    <glyph glyph-name="Eng" unicode="&#x14a;" horiz-adv-x="772" 
d="M453 -187v107q26 1 45.5 6.5t31 21.5t11.5 43v39l21 -61l-333 477v-446h-142v667h145l309 -449v449h142v-670q-2 -70 -32 -110.5t-81.5 -57t-116.5 -16.5z" />
    <glyph glyph-name="eng" unicode="&#x14b;" horiz-adv-x="622" 
d="M64 0v426q19 15 56 34t84 33t94 14q65 0 116 -17.5t80.5 -56.5t29.5 -104v-332q0 -54 -18 -90t-50 -56.5t-74.5 -29t-91.5 -8.5v114q26 1 45.5 7t31 22t11.5 44v286q0 26 -8 47t-27.5 33t-56.5 12q-25 0 -46 -8t-30 -14v-356h-146z" />
    <glyph glyph-name="Omacron" unicode="&#x14c;" horiz-adv-x="737" 
d="M368 -14q-99 0 -172 37.5t-113.5 114.5t-40.5 195q0 171 86 259t240 88q99 0 172.5 -37.5t113.5 -113.5t40 -195q0 -172 -85.5 -260t-240.5 -88zM368 119q51 0 86.5 21t54 68.5t18.5 125.5q0 79 -18.5 126t-54 67.5t-86.5 20.5t-86 -21t-53.5 -68t-18.5 -127
q0 -79 18.5 -125.5t53.5 -67t86 -20.5zM229 733v95h276v-95h-276z" />
    <glyph glyph-name="omacron" unicode="&#x14d;" horiz-adv-x="590" 
d="M294 -15q-128 0 -192.5 68.5t-64.5 201.5q0 143 65.5 205.5t191.5 62.5q85 0 142.5 -28.5t87 -87.5t29.5 -152q0 -133 -67 -201.5t-192 -68.5zM294 104q37 0 61.5 17.5t37 51t12.5 82.5q0 56 -12.5 88.5t-37.5 47t-61 14.5q-38 0 -62 -15t-35.5 -47.5t-11.5 -87.5
q0 -76 26.5 -113.5t82.5 -37.5zM154 573v95h276v-95h-276z" />
    <glyph glyph-name="Obreve" unicode="&#x14e;" horiz-adv-x="737" 
d="M368 -14q-99 0 -172 37.5t-113.5 114.5t-40.5 195q0 171 86 259t240 88q99 0 172.5 -37.5t113.5 -113.5t40 -195q0 -172 -85.5 -260t-240.5 -88zM368 119q51 0 86.5 21t54 68.5t18.5 125.5q0 79 -18.5 126t-54 67.5t-86.5 20.5t-86 -21t-53.5 -68t-18.5 -127
q0 -79 18.5 -125.5t53.5 -67t86 -20.5zM371 722q-48 0 -78.5 17t-47.5 47.5t-25 68.5h83q7 -20 23.5 -39t44.5 -19q29 0 44.5 19t22.5 39h84q-5 -38 -22 -68.5t-49 -47.5t-80 -17z" />
    <glyph glyph-name="obreve" unicode="&#x14f;" horiz-adv-x="590" 
d="M294 -15q-128 0 -192.5 68.5t-64.5 201.5q0 143 65.5 205.5t191.5 62.5q85 0 142.5 -28.5t87 -87.5t29.5 -152q0 -133 -67 -201.5t-192 -68.5zM294 104q37 0 61.5 17.5t37 51t12.5 82.5q0 56 -12.5 88.5t-37.5 47t-61 14.5q-38 0 -62 -15t-35.5 -47.5t-11.5 -87.5
q0 -76 26.5 -113.5t82.5 -37.5zM297 559q-48 0 -78.5 17t-47.5 47.5t-25 68.5h83q7 -20 23.5 -39t44.5 -19q29 0 44.5 19t22.5 39h84q-5 -38 -22 -68.5t-49 -47.5t-80 -17z" />
    <glyph glyph-name="Ohungarumlaut" unicode="&#x150;" horiz-adv-x="737" 
d="M368 -14q-99 0 -172 37.5t-113.5 114.5t-40.5 195q0 171 86 259t240 88q99 0 172.5 -37.5t113.5 -113.5t40 -195q0 -172 -85.5 -260t-240.5 -88zM368 119q51 0 86.5 21t54 68.5t18.5 125.5q0 79 -18.5 126t-54 67.5t-86.5 20.5t-86 -21t-53.5 -68t-18.5 -127
q0 -79 18.5 -125.5t53.5 -67t86 -20.5zM399 739l60 117h104l-90 -117h-74zM257 739l61 117h104l-90 -117h-75z" />
    <glyph glyph-name="ohungarumlaut" unicode="&#x151;" horiz-adv-x="590" 
d="M294 -15q-128 0 -192.5 68.5t-64.5 201.5q0 143 65.5 205.5t191.5 62.5q85 0 142.5 -28.5t87 -87.5t29.5 -152q0 -133 -67 -201.5t-192 -68.5zM294 104q37 0 61.5 17.5t37 51t12.5 82.5q0 56 -12.5 88.5t-37.5 47t-61 14.5q-38 0 -62 -15t-35.5 -47.5t-11.5 -87.5
q0 -76 26.5 -113.5t82.5 -37.5zM325 579l60 117h104l-90 -117h-74zM183 579l61 117h104l-90 -117h-75z" />
    <glyph glyph-name="OE" unicode="&#x152;" horiz-adv-x="1051" 
d="M368 -14q-99 0 -172 37.5t-113.5 114.5t-40.5 195q0 171 86 259t240 88q99 0 172.5 -37.5t113.5 -113.5t40 -195q0 -172 -85.5 -260t-240.5 -88zM368 119q51 0 86.5 21t54 68.5t18.5 125.5q0 79 -18.5 126t-54 67.5t-86.5 20.5t-86 -21t-53.5 -68t-18.5 -127
q0 -79 18.5 -125.5t53.5 -67t86 -20.5zM529 0v667h457v-125h-295v-145h256v-126h-256v-146h295v-125h-457z" />
    <glyph glyph-name="oe" unicode="&#x153;" horiz-adv-x="931" 
d="M294 -15q-128 0 -192.5 68.5t-64.5 201.5q0 143 65.5 205.5t191.5 62.5q85 0 142.5 -28.5t87 -87.5t29.5 -152q0 -133 -67 -201.5t-192 -68.5zM294 104q37 0 61.5 17.5t37 51t12.5 82.5q0 56 -12.5 88.5t-37.5 47t-61 14.5q-38 0 -62 -15t-35.5 -47.5t-11.5 -87.5
q0 -76 26.5 -113.5t82.5 -37.5zM664 -15q-76 0 -134.5 31.5t-91 90t-32.5 139.5q0 132 65.5 204.5t187.5 72.5q84 0 135.5 -36t75.5 -105t23 -168h-385l-16 95h278l-22 -47q-1 81 -23 114t-72 33q-28 0 -50.5 -14t-35 -46.5t-12.5 -89.5q0 -72 34.5 -111t110.5 -39
q28 0 55.5 6.5t51.5 15.5t41 16v-128q-36 -15 -80.5 -24.5t-103.5 -9.5z" />
    <glyph glyph-name="Racute" unicode="&#x154;" horiz-adv-x="709" 
d="M71 0v667h325q113 0 177 -52.5t64 -159.5q0 -44 -18 -86.5t-53 -73t-88 -39.5l-10 55l203 -311h-206l-167 291l72 -61h-137v-230h-162zM233 349h136q43 0 68 23t25 76q0 46 -22.5 70t-63.5 24h-143v-193zM289 719l37 113h156l-118 -113h-75z" />
    <glyph glyph-name="racute" unicode="&#x155;" horiz-adv-x="428" 
d="M66 0v453q14 12 50 27.5t82.5 28t93.5 12.5t74 -7t41 -18v-109q-17 4 -43 6t-54 2.5t-53 -0.5t-42 -4v-391h-149zM153 565l47 124h146l-111 -124h-82z" />
    <glyph glyph-name="uni0156" unicode="&#x156;" horiz-adv-x="709" 
d="M71 0v667h325q113 0 177 -52.5t64 -159.5q0 -44 -18 -86.5t-53 -73t-88 -39.5l-10 55l203 -311h-206l-167 291l72 -61h-137v-230h-162zM233 349h136q43 0 68 23t25 76q0 46 -22.5 70t-63.5 24h-143v-193zM272 -194v69q16 5 24.5 14.5t11.5 25t3 35.5h112q1 -42 -17 -74
t-52 -50t-82 -20z" />
    <glyph glyph-name="uni0157" unicode="&#x157;" horiz-adv-x="428" 
d="M66 0v453q14 12 50 27.5t82.5 28t93.5 12.5t74 -7t41 -18v-109q-17 4 -43 6t-54 2.5t-53 -0.5t-42 -4v-391h-149zM43 -194v69q16 5 24.5 14.5t11.5 25t3 35.5h112q1 -42 -17 -74t-52 -50t-82 -20z" />
    <glyph glyph-name="Rcaron" unicode="&#x158;" horiz-adv-x="709" 
d="M71 0v667h325q113 0 177 -52.5t64 -159.5q0 -44 -18 -86.5t-53 -73t-88 -39.5l-10 55l203 -311h-206l-167 291l72 -61h-137v-230h-162zM233 349h136q43 0 68 23t25 76q0 46 -22.5 70t-63.5 24h-143v-193zM266 700l-80 121h95l43 -58l43 58h95l-73 -121h-123z" />
    <glyph glyph-name="rcaron" unicode="&#x159;" horiz-adv-x="428" 
d="M66 0v453q14 12 50 27.5t82.5 28t93.5 12.5t74 -7t41 -18v-109q-17 4 -43 6t-54 2.5t-53 -0.5t-42 -4v-391h-149zM138 578l-80 121h95l43 -58l43 58h95l-73 -121h-123z" />
    <glyph glyph-name="Sacute" unicode="&#x15a;" horiz-adv-x="577" 
d="M295 -14q-51 0 -92 5t-76 15t-68 26v154q46 -37 104 -56t110 -19q46 0 70.5 17.5t24.5 53.5q0 27 -22.5 43.5t-59.5 29t-83 28.5q-29 9 -57 23t-50 35.5t-35 52.5t-13 76q0 41 15 79t46.5 68t80.5 47.5t115 17.5q41 0 72.5 -5t60.5 -14.5t59 -24.5v-156
q-23 19 -51.5 35.5t-59.5 27.5t-65 12q-30 1 -55 -6t-39 -22.5t-14 -39.5q0 -28 17 -44t47 -26.5t67 -22.5q41 -12 75.5 -26.5t60.5 -36.5t40 -54t14 -77q0 -60 -28 -109.5t-81 -78t-130 -28.5zM265 740l37 113h156l-118 -113h-75z" />
    <glyph glyph-name="sacute" unicode="&#x15b;" horiz-adv-x="482" 
d="M216 -15q-54 0 -92.5 11.5t-72.5 25.5v131q21 -14 47 -28.5t57.5 -23.5t66.5 -9q36 0 50.5 12.5t14.5 30.5q0 17 -15 27.5t-39 17.5t-51 13q-24 5 -48 15.5t-43 28.5t-30.5 44.5t-11.5 64.5q0 49 19 81.5t50 52.5t67 28.5t70 7.5q62 -2 98.5 -13.5t66.5 -29.5v-117
q-34 19 -67.5 35.5t-76.5 16.5q-39 0 -56 -12t-17 -32q0 -19 11.5 -30t30.5 -17.5t42 -12.5q25 -6 51.5 -14.5t50 -24t38 -43t14.5 -72.5q-1 -61 -33 -97.5t-82.5 -52t-109.5 -15.5zM192 565l47 124h146l-111 -124h-82z" />
    <glyph glyph-name="Scircumflex" unicode="&#x15c;" horiz-adv-x="577" 
d="M295 -14q-51 0 -92 5t-76 15t-68 26v154q46 -37 104 -56t110 -19q46 0 70.5 17.5t24.5 53.5q0 27 -22.5 43.5t-59.5 29t-83 28.5q-29 9 -57 23t-50 35.5t-35 52.5t-13 76q0 41 15 79t46.5 68t80.5 47.5t115 17.5q41 0 72.5 -5t60.5 -14.5t59 -24.5v-156
q-23 19 -51.5 35.5t-59.5 27.5t-65 12q-30 1 -55 -6t-39 -22.5t-14 -39.5q0 -28 17 -44t47 -26.5t67 -22.5q41 -12 75.5 -26.5t60.5 -36.5t40 -54t14 -77q0 -60 -28 -109.5t-81 -78t-130 -28.5zM156 731l87 121h122l87 -121h-99l-49 59l-49 -59h-99z" />
    <glyph glyph-name="scircumflex" unicode="&#x15d;" horiz-adv-x="482" 
d="M216 -15q-54 0 -92.5 11.5t-72.5 25.5v131q21 -14 47 -28.5t57.5 -23.5t66.5 -9q36 0 50.5 12.5t14.5 30.5q0 17 -15 27.5t-39 17.5t-51 13q-24 5 -48 15.5t-43 28.5t-30.5 44.5t-11.5 64.5q0 49 19 81.5t50 52.5t67 28.5t70 7.5q62 -2 98.5 -13.5t66.5 -29.5v-117
q-34 19 -67.5 35.5t-76.5 16.5q-39 0 -56 -12t-17 -32q0 -19 11.5 -30t30.5 -17.5t42 -12.5q25 -6 51.5 -14.5t50 -24t38 -43t14.5 -72.5q-1 -61 -33 -97.5t-82.5 -52t-109.5 -15.5zM98 571l87 121h122l87 -121h-99l-49 59l-49 -59h-99z" />
    <glyph glyph-name="Scedilla" unicode="&#x15e;" horiz-adv-x="577" 
d="M295 -14q-51 0 -92 5t-76 15t-68 26v154q46 -37 104 -56t110 -19q46 0 70.5 17.5t24.5 53.5q0 27 -22.5 43.5t-59.5 29t-83 28.5q-29 9 -57 23t-50 35.5t-35 52.5t-13 76q0 41 15 79t46.5 68t80.5 47.5t115 17.5q41 0 72.5 -5t60.5 -14.5t59 -24.5v-156
q-23 19 -51.5 35.5t-59.5 27.5t-65 12q-30 1 -55 -6t-39 -22.5t-14 -39.5q0 -28 17 -44t47 -26.5t67 -22.5q41 -12 75.5 -26.5t60.5 -36.5t40 -54t14 -77q0 -60 -28 -109.5t-81 -78t-130 -28.5zM139 -122l90 128h96l-52 -128h-134z" />
    <glyph glyph-name="scedilla" unicode="&#x15f;" horiz-adv-x="482" 
d="M216 -15q-54 0 -92.5 11.5t-72.5 25.5v131q21 -14 47 -28.5t57.5 -23.5t66.5 -9q36 0 50.5 12.5t14.5 30.5q0 17 -15 27.5t-39 17.5t-51 13q-24 5 -48 15.5t-43 28.5t-30.5 44.5t-11.5 64.5q0 49 19 81.5t50 52.5t67 28.5t70 7.5q62 -2 98.5 -13.5t66.5 -29.5v-117
q-34 19 -67.5 35.5t-76.5 16.5q-39 0 -56 -12t-17 -32q0 -19 11.5 -30t30.5 -17.5t42 -12.5q25 -6 51.5 -14.5t50 -24t38 -43t14.5 -72.5q-1 -61 -33 -97.5t-82.5 -52t-109.5 -15.5zM131 -133l90 128h96l-52 -128h-134z" />
    <glyph glyph-name="Scaron" unicode="&#x160;" horiz-adv-x="577" 
d="M295 -14q-51 0 -92 5t-76 15t-68 26v154q46 -37 104 -56t110 -19q46 0 70.5 17.5t24.5 53.5q0 27 -22.5 43.5t-59.5 29t-83 28.5q-29 9 -57 23t-50 35.5t-35 52.5t-13 76q0 41 15 79t46.5 68t80.5 47.5t115 17.5q41 0 72.5 -5t60.5 -14.5t59 -24.5v-156
q-23 19 -51.5 35.5t-59.5 27.5t-65 12q-30 1 -55 -6t-39 -22.5t-14 -39.5q0 -28 17 -44t47 -26.5t67 -22.5q41 -12 75.5 -26.5t60.5 -36.5t40 -54t14 -77q0 -60 -28 -109.5t-81 -78t-130 -28.5zM242 722l-80 121h95l43 -58l43 58h95l-73 -121h-123z" />
    <glyph glyph-name="scaron" unicode="&#x161;" horiz-adv-x="482" 
d="M216 -15q-54 0 -92.5 11.5t-72.5 25.5v131q21 -14 47 -28.5t57.5 -23.5t66.5 -9q36 0 50.5 12.5t14.5 30.5q0 17 -15 27.5t-39 17.5t-51 13q-24 5 -48 15.5t-43 28.5t-30.5 44.5t-11.5 64.5q0 49 19 81.5t50 52.5t67 28.5t70 7.5q62 -2 98.5 -13.5t66.5 -29.5v-117
q-34 19 -67.5 35.5t-76.5 16.5q-39 0 -56 -12t-17 -32q0 -19 11.5 -30t30.5 -17.5t42 -12.5q25 -6 51.5 -14.5t50 -24t38 -43t14.5 -72.5q-1 -61 -33 -97.5t-82.5 -52t-109.5 -15.5zM177 578l-80 121h95l43 -58l43 58h95l-73 -121h-123z" />
    <glyph glyph-name="uni0162" unicode="&#x162;" horiz-adv-x="587" 
d="M211 0v542h-187v125h539v-125h-190v-542h-162zM167 -122l90 128h96l-52 -128h-134z" />
    <glyph glyph-name="uni0163" unicode="&#x163;" horiz-adv-x="413" 
d="M273 -20q-88 0 -131 41.5t-43 117.5v253h-74v114h74v139h156v-139h111v-114h-111v-234q0 -26 11 -38.5t37 -12.5q15 0 33 6t30 15v-128q-21 -11 -45.5 -15.5t-47.5 -4.5zM113 -133l90 128h96l-52 -128h-134z" />
    <glyph glyph-name="Tcaron" unicode="&#x164;" horiz-adv-x="578" 
d="M217 0v537h-205v130h554v-130h-207v-537h-142zM266 724l-109 122h89l43 -52l43 52h88l-108 -122h-46z" />
    <glyph glyph-name="tcaron" unicode="&#x165;" horiz-adv-x="417" 
d="M273 -20q-88 0 -131 41.5t-43 117.5v253h-74v114h74v139h156v-139h111v-114h-111v-234q0 -26 11 -38.5t37 -12.5q15 0 33 6t30 15v-128q-21 -11 -45.5 -15.5t-47.5 -4.5zM299 562l74 196h122l-92 -196h-104z" />
    <glyph glyph-name="Tbar" unicode="&#x166;" horiz-adv-x="587" 
d="M211 0v542h-187v125h539v-125h-190v-542h-162zM143 288v91h301v-91h-301z" />
    <glyph glyph-name="tbar" unicode="&#x167;" horiz-adv-x="391" 
d="M261 -7q-35 0 -65 9.5t-52 29.5t-34 51t-12 75v65h-60v87h60v89h-74v100h74v146h142v-146h111v-100h-111v-89h98v-87h-98v-85q0 -18 11 -28.5t32 -10.5q15 0 31.5 4.5t36.5 16.5v-107q-21 -11 -44 -15.5t-46 -4.5z" />
    <glyph glyph-name="Utilde" unicode="&#x168;" horiz-adv-x="726" 
d="M378 -21q-154 0 -230.5 65.5t-76.5 204.5v418h169v-411q0 -77 31 -114t99 -37q62 0 96.5 37t34.5 114v411h154v-418q0 -93 -35.5 -152.5t-97.5 -88.5t-144 -29zM255 727h-69q-2 38 12 70.5t40.5 51t60.5 18.5q26 0 46.5 -9.5t38 -22t34 -22.5t33.5 -10t26 14.5t7 44.5h73
q2 -43 -13.5 -74t-41.5 -47.5t-57 -16.5q-32 0 -54 10t-39 22t-30.5 22t-28.5 10q-21 0 -30 -19.5t-8 -41.5z" />
    <glyph glyph-name="utilde" unicode="&#x169;" horiz-adv-x="601" 
d="M304 -15q-70 0 -124 22t-84 67.5t-30 118.5v313h149v-301q0 -48 21.5 -71.5t68.5 -23.5q48 0 69 23.5t21 71.5v301h140v-313q0 -108 -62 -158t-169 -50zM198 559h-69q-2 38 12 70.5t40.5 51t60.5 18.5q26 0 46.5 -9.5t38 -22t34 -22.5t33.5 -10t26 14.5t7 44.5h73
q2 -43 -13.5 -74t-41.5 -47.5t-57 -16.5q-32 0 -54 10t-39 22t-30.5 22t-28.5 10q-21 0 -30 -19.5t-8 -41.5z" />
    <glyph glyph-name="Umacron" unicode="&#x16a;" horiz-adv-x="726" 
d="M378 -21q-154 0 -230.5 65.5t-76.5 204.5v418h169v-411q0 -77 31 -114t99 -37q62 0 96.5 37t34.5 114v411h154v-418q0 -93 -35.5 -152.5t-97.5 -88.5t-144 -29zM221 719v95h276v-95h-276z" />
    <glyph glyph-name="umacron" unicode="&#x16b;" horiz-adv-x="601" 
d="M304 -15q-70 0 -124 22t-84 67.5t-30 118.5v313h149v-301q0 -48 21.5 -71.5t68.5 -23.5q48 0 69 23.5t21 71.5v301h140v-313q0 -108 -62 -158t-169 -50zM166 566v95h276v-95h-276z" />
    <glyph glyph-name="Ubreve" unicode="&#x16c;" horiz-adv-x="726" 
d="M378 -21q-154 0 -230.5 65.5t-76.5 204.5v418h169v-411q0 -77 31 -114t99 -37q62 0 96.5 37t34.5 114v411h154v-418q0 -93 -35.5 -152.5t-97.5 -88.5t-144 -29zM363 708q-48 0 -78.5 17t-47.5 47.5t-25 68.5h83q7 -20 23.5 -39t44.5 -19q29 0 44.5 19t22.5 39h84
q-5 -38 -22 -68.5t-49 -47.5t-80 -17z" />
    <glyph glyph-name="ubreve" unicode="&#x16d;" horiz-adv-x="601" 
d="M304 -15q-70 0 -124 22t-84 67.5t-30 118.5v313h149v-301q0 -48 21.5 -71.5t68.5 -23.5q48 0 69 23.5t21 71.5v301h140v-313q0 -108 -62 -158t-169 -50zM308 552q-48 0 -78.5 17t-47.5 47.5t-25 68.5h83q7 -20 23.5 -39t44.5 -19q29 0 44.5 19t22.5 39h84
q-5 -38 -22 -68.5t-49 -47.5t-80 -17z" />
    <glyph glyph-name="Uring" unicode="&#x16e;" horiz-adv-x="726" 
d="M378 -21q-154 0 -230.5 65.5t-76.5 204.5v418h169v-411q0 -77 31 -114t99 -37q62 0 96.5 37t34.5 114v411h154v-418q0 -93 -35.5 -152.5t-97.5 -88.5t-144 -29zM361 672q-58 0 -88.5 24.5t-30.5 70.5q0 45 30.5 70t88.5 25t88.5 -25t30.5 -70q0 -46 -30.5 -70.5
t-88.5 -24.5zM361 730q27 0 37.5 8t10.5 29q0 19 -10.5 27.5t-37.5 8.5q-26 0 -37 -8.5t-11 -27.5q0 -21 11 -29t37 -8z" />
    <glyph glyph-name="uring" unicode="&#x16f;" horiz-adv-x="601" 
d="M304 -15q-70 0 -124 22t-84 67.5t-30 118.5v313h149v-301q0 -48 21.5 -71.5t68.5 -23.5q48 0 69 23.5t21 71.5v301h140v-313q0 -108 -62 -158t-169 -50zM308 549q-58 0 -88.5 24.5t-30.5 70.5q0 45 30.5 70t88.5 25t88.5 -25t30.5 -70q0 -46 -30.5 -70.5t-88.5 -24.5z
M308 607q27 0 37.5 8t10.5 29q0 19 -10.5 27.5t-37.5 8.5q-26 0 -37 -8.5t-11 -27.5q0 -21 11 -29t37 -8z" />
    <glyph glyph-name="Uhungarumlaut" unicode="&#x170;" horiz-adv-x="726" 
d="M378 -21q-154 0 -230.5 65.5t-76.5 204.5v418h169v-411q0 -77 31 -114t99 -37q62 0 96.5 37t34.5 114v411h154v-418q0 -93 -35.5 -152.5t-97.5 -88.5t-144 -29zM391 725l60 117h104l-90 -117h-74zM249 725l61 117h104l-90 -117h-75z" />
    <glyph glyph-name="uhungarumlaut" unicode="&#x171;" horiz-adv-x="601" 
d="M304 -15q-70 0 -124 22t-84 67.5t-30 118.5v313h149v-301q0 -48 21.5 -71.5t68.5 -23.5q48 0 69 23.5t21 71.5v301h140v-313q0 -108 -62 -158t-169 -50zM337 572l60 117h104l-90 -117h-74zM195 572l61 117h104l-90 -117h-75z" />
    <glyph glyph-name="Uogonek" unicode="&#x172;" horiz-adv-x="726" 
d="M378 -21q-154 0 -230.5 65.5t-76.5 204.5v418h169v-411q0 -77 31 -114t99 -37q62 0 96.5 37t34.5 114v411h154v-418q0 -93 -35.5 -152.5t-97.5 -88.5t-144 -29zM415 -188q-65 0 -96 24t-31 72q0 38 32.5 66t86.5 49l96 -23q-41 -17 -69 -37t-28 -40q0 -21 9.5 -28.5
t25.5 -7.5q18 0 34.5 10.5t30.5 23.5v-85q-15 -8 -35.5 -16t-55.5 -8z" />
    <glyph glyph-name="uogonek" unicode="&#x173;" horiz-adv-x="601" 
d="M304 -15q-70 0 -124 22t-84 67.5t-30 118.5v313h149v-301q0 -48 21.5 -71.5t68.5 -23.5q48 0 69 23.5t21 71.5v301h140v-313q0 -108 -62 -158t-169 -50zM341 -188q-65 0 -96 24t-31 72q0 38 32.5 66t86.5 49l96 -23q-41 -17 -69 -37t-28 -40q0 -21 9.5 -28.5t25.5 -7.5
q18 0 34.5 10.5t30.5 23.5v-85q-15 -8 -35.5 -16t-55.5 -8z" />
    <glyph glyph-name="Wcircumflex" unicode="&#x174;" horiz-adv-x="1010" 
d="M212 0l-187 667h177l117 -518h-27l150 518h125l153 -525h-30l118 525h177l-187 -667h-160l-147 480h29l-148 -480h-160zM357 710l87 121h122l87 -121h-99l-49 59l-49 -59h-99z" />
    <glyph glyph-name="wcircumflex" unicode="&#x175;" horiz-adv-x="827" 
d="M194 0l-170 506h161l113 -409l-47 -2l107 411h110l105 -399h-37l108 399h158l-168 -506h-135l-100 327l25 -3l-95 -324h-135zM273 557l87 121h122l87 -121h-99l-49 59l-49 -59h-99z" />
    <glyph glyph-name="Ycircumflex" unicode="&#x176;" horiz-adv-x="692" 
d="M274 0v288l-253 379h199l190 -319h-75l173 319h161l-256 -419l23 86v-334h-162zM223 710l87 121h122l87 -121h-99l-49 59l-49 -59h-99z" />
    <glyph glyph-name="ycircumflex" unicode="&#x177;" horiz-adv-x="593" 
d="M176 -196q-25 0 -49 5t-41 13v121q16 -6 30 -8.5t29 -2.5q25 0 43.5 11.5t30.5 39t19 74.5l3 -85l-217 534h171l115 -355h-15l114 355h160l-199 -514q-27 -70 -58.5 -111t-65.5 -59t-70 -18zM157 557l87 121h122l87 -121h-99l-49 59l-49 -59h-99z" />
    <glyph glyph-name="Ydieresis" unicode="&#x178;" horiz-adv-x="692" 
d="M274 0v288l-253 379h199l190 -319h-75l173 319h161l-256 -419l23 86v-334h-162zM395 703v100h129v-100h-129zM212 703v100h128v-100h-128z" />
    <glyph glyph-name="Zacute" unicode="&#x179;" horiz-adv-x="634" 
d="M54 0v118l353 454l42 -33h-390v128h519v-116l-336 -446l-53 21h389v-126h-524zM284 719l37 113h156l-118 -113h-75z" />
    <glyph glyph-name="zacute" unicode="&#x17a;" horiz-adv-x="492" 
d="M45 0v118l271 307l15 -31h-280v112h396v-116l-252 -309l-5 38h257v-119h-402zM206 551l47 124h146l-111 -124h-82z" />
    <glyph glyph-name="Zdotaccent" unicode="&#x17b;" horiz-adv-x="634" 
d="M54 0v118l353 454l42 -33h-390v128h519v-116l-336 -446l-53 21h389v-126h-524zM253 697v100h122v-100h-122z" />
    <glyph glyph-name="zdotaccent" unicode="&#x17c;" horiz-adv-x="492" 
d="M45 0v118l271 307l15 -31h-280v112h396v-116l-252 -309l-5 38h257v-119h-402zM182 551v100h122v-100h-122z" />
    <glyph glyph-name="Zcaron" unicode="&#x17d;" horiz-adv-x="634" 
d="M54 0v118l353 454l42 -33h-390v128h519v-116l-336 -446l-53 21h389v-126h-524zM262 700l-80 121h95l43 -58l43 58h95l-73 -121h-123z" />
    <glyph glyph-name="zcaron" unicode="&#x17e;" horiz-adv-x="492" 
d="M45 0v118l271 307l15 -31h-280v112h396v-116l-252 -309l-5 38h257v-119h-402zM191 564l-80 121h95l43 -58l43 58h95l-73 -121h-123z" />
    <glyph glyph-name="uni018F" unicode="&#x18f;" horiz-adv-x="739" 
d="M352 681q103 0 180.5 -43t120.5 -123.5t43 -195.5q0 -107 -40 -183.5t-116 -116.5t-183 -40q-111 0 -181 45.5t-102 130t-32 203.5h553l15 -102h-444l33 47q1 -78 19 -122.5t54 -62.5t91 -18q44 0 82 18.5t61.5 63.5t23.5 124q0 127 -53.5 185.5t-160.5 58.5
q-44 0 -87.5 -8.5t-80 -20t-60.5 -24.5v135q52 23 116.5 36t147.5 13z" />
    <glyph glyph-name="florin" unicode="&#x192;" horiz-adv-x="351" 
d="M61 -123q-9 0 -24.5 1t-30.5 4v93q15 -2 21 -2h9q15 0 29.5 1.5t26.5 10t19.5 28t7.5 55.5v336h-85v99h85v11q1 41 10.5 70.5t25.5 50t37 33t46 17.5t52 5q11 0 28 -1t26 -4v-94q-8 2 -16 3t-14 1q-14 0 -28.5 -2.5t-27 -10.5t-20 -24t-7.5 -43v-12h113v-99h-113v-336
q0 -43 -8.5 -75t-24.5 -54.5t-37 -36t-46.5 -19.5t-53.5 -6z" />
    <glyph glyph-name="uni019D" unicode="&#x19d;" horiz-adv-x="739" 
d="M235 -4q0 -72 -29.5 -113.5t-81 -58.5t-118.5 -17v121q28 -3 45.5 4t26 23t8.5 41v671h138l343 -462l-48 -100v562h149v-667h-122l-349 456l38 73v-533z" />
    <glyph glyph-name="Ohorn" unicode="&#x1a0;" horiz-adv-x="737" 
d="M368 -14q-99 0 -172 37.5t-113.5 114.5t-40.5 195q0 171 86 259t240 88q99 0 172.5 -37.5t113.5 -113.5t40 -195q0 -172 -85.5 -260t-240.5 -88zM368 119q51 0 86.5 21t54 68.5t18.5 125.5q0 79 -18.5 126t-54 67.5t-86.5 20.5t-86 -21t-53.5 -68t-18.5 -127
q0 -79 18.5 -125.5t53.5 -67t86 -20.5zM466 584l-4 82q33 0 53.5 12.5t20.5 35.5v37h92v-56q0 -39 -21.5 -63t-58 -35.5t-82.5 -12.5z" />
    <glyph glyph-name="ohorn" unicode="&#x1a1;" horiz-adv-x="590" 
d="M294 -15q-128 0 -192.5 68.5t-64.5 201.5q0 143 65.5 205.5t191.5 62.5q85 0 142.5 -28.5t87 -87.5t29.5 -152q0 -133 -67 -201.5t-192 -68.5zM294 104q37 0 61.5 17.5t37 51t12.5 82.5q0 56 -12.5 88.5t-37.5 47t-61 14.5q-38 0 -62 -15t-35.5 -47.5t-11.5 -87.5
q0 -76 26.5 -113.5t82.5 -37.5zM402 423l-4 82q33 0 53.5 12.5t20.5 35.5v37h92v-56q0 -39 -21.5 -63t-58 -35.5t-82.5 -12.5z" />
    <glyph glyph-name="Uhorn" unicode="&#x1af;" horiz-adv-x="726" 
d="M378 -21q-154 0 -230.5 65.5t-76.5 204.5v418h169v-411q0 -77 31 -114t99 -37q62 0 96.5 37t34.5 114v411h154v-418q0 -93 -35.5 -152.5t-97.5 -88.5t-144 -29zM598 584l-4 82q33 0 53.5 12.5t20.5 35.5v37h92v-56q0 -39 -21.5 -63t-58 -35.5t-82.5 -12.5z" />
    <glyph glyph-name="uhorn" unicode="&#x1b0;" horiz-adv-x="653" 
d="M304 -15q-70 0 -124 22t-84 67.5t-30 118.5v313h149v-301q0 -48 21.5 -71.5t68.5 -23.5q48 0 69 23.5t21 71.5v301h140v-313q0 -108 -62 -158t-169 -50zM478 422l-4 82q33 0 53.5 12.5t20.5 35.5v37h92v-56q0 -39 -21.5 -63t-58 -35.5t-82.5 -12.5z" />
    <glyph glyph-name="uni01C4" unicode="&#x1c4;" horiz-adv-x="1345" 
d="M71 0v667h268q170 0 250 -84.5t80 -249.5q0 -164 -80 -248.5t-250 -84.5h-268zM233 125h87q90 0 136.5 50t46.5 158q0 110 -46.5 159.5t-136.5 49.5h-87v-417zM765 0v118l353 454l42 -33h-390v128h519v-116l-336 -446l-53 21h389v-126h-524zM973 700l-80 121h95l43 -58
l43 58h95l-73 -121h-123z" />
    <glyph glyph-name="uni01C5" unicode="&#x1c5;" horiz-adv-x="1203" 
d="M71 0v667h268q170 0 250 -84.5t80 -249.5q0 -164 -80 -248.5t-250 -84.5h-268zM233 125h87q90 0 136.5 50t46.5 158q0 110 -46.5 159.5t-136.5 49.5h-87v-417zM756 0v118l271 307l15 -31h-280v112h396v-116l-252 -309l-5 38h257v-119h-402zM903 564l-80 121h95l43 -58
l43 58h95l-73 -121h-123z" />
    <glyph glyph-name="uni01C6" unicode="&#x1c6;" horiz-adv-x="1101" 
d="M308 -15q-59 0 -108.5 13t-85.5 43.5t-56.5 83.5t-20.5 132q0 123 60.5 194t181.5 71q16 0 42 -2.5t54 -12.5t50 -34l-30 -46v287h148v-582q0 -37 -20 -64.5t-53.5 -45.5t-75.5 -27.5t-86 -9.5zM314 110q36 0 58.5 9.5t22.5 28.5v233q-18 10 -38.5 15.5t-39.5 5.5
q-42 0 -71 -14t-43.5 -47t-14.5 -89q0 -44 12 -75.5t39.5 -49t74.5 -17.5zM654 0v118l271 307l15 -31h-280v112h396v-116l-252 -309l-5 38h257v-119h-402zM800 564l-80 121h95l43 -58l43 58h95l-73 -121h-123z" />
    <glyph glyph-name="uni01C7" unicode="&#x1c7;" horiz-adv-x="1033" 
d="M71 0v667h162v-540h290v-127h-452zM747 -13q-44 0 -84 10.5t-74 26.5v148q34 -23 62 -39t57 -16q42 0 67 22t25 71v457h162v-464q0 -63 -19 -104.5t-49.5 -66t-69 -35t-77.5 -10.5z" />
    <glyph glyph-name="uni01C8" unicode="&#x1c8;" horiz-adv-x="858" 
d="M71 0v667h162v-540h290v-127h-452zM561 -193v121q28 -3 45.5 4t26 23t8.5 41v510h149l2 -510q0 -72 -30 -113.5t-82 -58.5t-119 -17zM638 582v115h155v-115h-155z" />
    <glyph glyph-name="uni01C9" unicode="&#x1c9;" horiz-adv-x="583" 
d="M214 0h-148v697h148v-697zM286 -193v121q28 -3 45.5 4t26 23t8.5 41v510h149l2 -510q0 -72 -30 -113.5t-82 -58.5t-119 -17zM363 582v115h155v-115h-155z" />
    <glyph glyph-name="uni01CA" unicode="&#x1ca;" horiz-adv-x="1202" 
d="M71 0v667h138l343 -462l-48 -100v562h149v-667h-122l-349 456l38 73v-529h-149zM916 -13q-44 0 -84 10.5t-74 26.5v148q34 -23 62 -39t57 -16q42 0 67 22t25 71v457h162v-464q0 -63 -19 -104.5t-49.5 -66t-69 -35t-77.5 -10.5z" />
    <glyph glyph-name="uni01CB" unicode="&#x1cb;" horiz-adv-x="1028" 
d="M71 0v667h138l343 -462l-48 -100v562h149v-667h-122l-349 456l38 73v-529h-149zM730 -193v121q28 -3 45.5 4t26 23t8.5 41v510h149l2 -510q0 -72 -30 -113.5t-82 -58.5t-119 -17zM807 582v115h155v-115h-155z" />
    <glyph glyph-name="uni01CC" unicode="&#x1cc;" horiz-adv-x="913" 
d="M66 463q19 10 50 20.5t68 18.5t74.5 13t69.5 5q68 0 116 -17.5t73.5 -56.5t25.5 -106v-340h-149v310q0 19 -5.5 35t-16.5 27.5t-30 18t-46 6.5q-23 0 -46 -5.5t-35 -11.5v-380h-149v463zM615 -193v121q28 -3 45.5 4t26 23t8.5 41v510h149l2 -510q0 -72 -30 -113.5
t-82 -58.5t-119 -17zM692 582v115h155v-115h-155z" />
    <glyph glyph-name="uni01CD" unicode="&#x1cd;" horiz-adv-x="691" 
d="M13 0l252 667h177l236 -667h-166l-213 629l79 7l-212 -636h-153zM155 144l33 119h303l15 -119h-351zM284 700l-80 121h95l43 -58l43 58h95l-73 -121h-123z" />
    <glyph glyph-name="uni01CE" unicode="&#x1ce;" horiz-adv-x="572" 
d="M261 -15q-46 0 -86.5 8.5t-71 28t-47.5 53t-17 83.5q0 47 19.5 82t59.5 54t101 19q34 0 66 -7t57.5 -19t40.5 -26l6 -72q-20 12 -48 19t-60 7q-49 0 -71.5 -14.5t-22.5 -45.5q0 -19 11 -34t29.5 -23t38.5 -8q51 0 71.5 7t20.5 28v186q0 46 -29.5 66.5t-83.5 20.5
q-44 0 -88.5 -15.5t-72.5 -37.5v132q26 16 80.5 30t122.5 14q24 0 53 -4t58 -14.5t53.5 -30.5t39.5 -51t15 -77l-1 -239q0 -43 -29 -69.5t-83.5 -38.5t-131.5 -12zM222 585l-80 121h95l43 -58l43 58h95l-73 -121h-123z" />
    <glyph glyph-name="uni01CF" unicode="&#x1cf;" horiz-adv-x="304" 
d="M71 0v667h162v-667h-162zM96 700l-80 121h95l43 -58l43 58h95l-73 -121h-123z" />
    <glyph glyph-name="uni01D0" unicode="&#x1d0;" horiz-adv-x="282" 
d="M66 0v499h149l1 -499h-150zM79 564l-80 121h95l43 -58l43 58h95l-73 -121h-123z" />
    <glyph glyph-name="uni01D1" unicode="&#x1d1;" horiz-adv-x="737" 
d="M368 -14q-99 0 -172 37.5t-113.5 114.5t-40.5 195q0 171 86 259t240 88q99 0 172.5 -37.5t113.5 -113.5t40 -195q0 -172 -85.5 -260t-240.5 -88zM368 119q51 0 86.5 21t54 68.5t18.5 125.5q0 79 -18.5 126t-54 67.5t-86.5 20.5t-86 -21t-53.5 -68t-18.5 -127
q0 -79 18.5 -125.5t53.5 -67t86 -20.5zM309 722l-80 121h95l43 -58l43 58h95l-73 -121h-123z" />
    <glyph glyph-name="uni01D2" unicode="&#x1d2;" horiz-adv-x="590" 
d="M294 -15q-128 0 -192.5 68.5t-64.5 201.5q0 143 65.5 205.5t191.5 62.5q85 0 142.5 -28.5t87 -87.5t29.5 -152q0 -133 -67 -201.5t-192 -68.5zM294 104q37 0 61.5 17.5t37 51t12.5 82.5q0 56 -12.5 88.5t-37.5 47t-61 14.5q-38 0 -62 -15t-35.5 -47.5t-11.5 -87.5
q0 -76 26.5 -113.5t82.5 -37.5zM234 585l-80 121h95l43 -58l43 58h95l-73 -121h-123z" />
    <glyph glyph-name="uni01D3" unicode="&#x1d3;" horiz-adv-x="726" 
d="M378 -21q-154 0 -230.5 65.5t-76.5 204.5v418h169v-411q0 -77 31 -114t99 -37q62 0 96.5 37t34.5 114v411h154v-418q0 -93 -35.5 -152.5t-97.5 -88.5t-144 -29zM301 708l-80 121h95l43 -58l43 58h95l-73 -121h-123z" />
    <glyph glyph-name="uni01D4" unicode="&#x1d4;" horiz-adv-x="601" 
d="M304 -15q-70 0 -124 22t-84 67.5t-30 118.5v313h149v-301q0 -48 21.5 -71.5t68.5 -23.5q48 0 69 23.5t21 71.5v301h140v-313q0 -108 -62 -158t-169 -50zM246 578l-80 121h95l43 -58l43 58h95l-73 -121h-123z" />
    <glyph glyph-name="Gcaron" unicode="&#x1e6;" horiz-adv-x="706" 
d="M368 -14q-98 0 -171.5 35t-114 111.5t-40.5 200.5q0 122 40.5 199t114 113.5t171.5 36.5q63 0 123 -13t115 -36v-147q-60 31 -111.5 50t-106.5 19q-57 0 -97.5 -20t-61.5 -68.5t-21 -132.5q0 -83 21.5 -131.5t60.5 -69.5t91 -21q27 0 50.5 3.5t41.5 12.5v118h-110v126
h272v-314q-62 -34 -129.5 -53t-137.5 -19zM309 715l-80 121h95l43 -58l43 58h95l-73 -121h-123z" />
    <glyph glyph-name="gcaron" unicode="&#x1e7;" horiz-adv-x="593" 
d="M260 -15q-69 4 -118.5 32t-77 82.5t-27.5 137.5q0 84 21 139.5t58.5 86.5t90.5 44t118 13q63 0 110 -16t73 -46t26 -74v-390q0 -53 -17 -93.5t-50.5 -68t-81 -41.5t-109.5 -14q-67 0 -114.5 9.5t-72.5 23.5v131q15 -6 44 -16t65 -16.5t72 -6.5q47 0 72.5 13t35.5 35
t10 50v82l29 -21q-16 -23 -38 -40t-51.5 -26.5t-67.5 -9.5zM298 97q26 0 48 5.5t42 16.5v232q0 21 -12 32t-30 15t-38 4q-46 0 -72.5 -20t-38 -55.5t-11.5 -80.5q0 -69 31 -109t81 -40zM265 585l-80 121h95l43 -58l43 58h95l-73 -121h-123z" />
    <glyph glyph-name="uni01EA" unicode="&#x1ea;" horiz-adv-x="737" 
d="M368 -14q-99 0 -172 37.5t-113.5 114.5t-40.5 195q0 171 86 259t240 88q99 0 172.5 -37.5t113.5 -113.5t40 -195q0 -172 -85.5 -260t-240.5 -88zM368 119q51 0 86.5 21t54 68.5t18.5 125.5q0 79 -18.5 126t-54 67.5t-86.5 20.5t-86 -21t-53.5 -68t-18.5 -127
q0 -79 18.5 -125.5t53.5 -67t86 -20.5zM418 -188q-65 0 -96 24t-31 72q0 38 32.5 66t86.5 49l96 -23q-41 -17 -69 -37t-28 -40q0 -21 9.5 -28.5t25.5 -7.5q18 0 34.5 10.5t30.5 23.5v-85q-15 -8 -35.5 -16t-55.5 -8z" />
    <glyph glyph-name="uni01EB" unicode="&#x1eb;" horiz-adv-x="590" 
d="M294 -15q-128 0 -192.5 68.5t-64.5 201.5q0 143 65.5 205.5t191.5 62.5q85 0 142.5 -28.5t87 -87.5t29.5 -152q0 -133 -67 -201.5t-192 -68.5zM294 104q37 0 61.5 17.5t37 51t12.5 82.5q0 56 -12.5 88.5t-37.5 47t-61 14.5q-38 0 -62 -15t-35.5 -47.5t-11.5 -87.5
q0 -76 26.5 -113.5t82.5 -37.5zM328 -188q-65 0 -96 24t-31 72q0 38 32.5 66t86.5 49l96 -23q-41 -17 -69 -37t-28 -40q0 -21 9.5 -28.5t25.5 -7.5q18 0 34.5 10.5t30.5 23.5v-85q-15 -8 -35.5 -16t-55.5 -8z" />
    <glyph glyph-name="uni01F2" unicode="&#x1f2;" horiz-adv-x="1203" 
d="M71 0v667h268q170 0 250 -84.5t80 -249.5q0 -164 -80 -248.5t-250 -84.5h-268zM233 125h87q90 0 136.5 50t46.5 158q0 110 -46.5 159.5t-136.5 49.5h-87v-417zM756 0v118l271 307l15 -31h-280v112h396v-116l-252 -309l-5 38h257v-119h-402z" />
    <glyph glyph-name="uni01F4" unicode="&#x1f4;" horiz-adv-x="706" 
d="M368 -14q-98 0 -171.5 35t-114 111.5t-40.5 200.5q0 122 40.5 199t114 113.5t171.5 36.5q63 0 123 -13t115 -36v-147q-60 31 -111.5 50t-106.5 19q-57 0 -97.5 -20t-61.5 -68.5t-21 -132.5q0 -83 21.5 -131.5t60.5 -69.5t91 -21q27 0 50.5 3.5t41.5 12.5v118h-110v126
h272v-314q-62 -34 -129.5 -53t-137.5 -19zM331 733l37 113h156l-118 -113h-75z" />
    <glyph glyph-name="Aringacute" unicode="&#x1fa;" horiz-adv-x="691" 
d="M13 0l252 667h177l236 -667h-166l-213 629l79 7l-212 -636h-153zM155 144l33 119h303l15 -119h-351zM345 665q-58 0 -88.5 24.5t-30.5 70.5q0 45 30.5 70t88.5 25t88.5 -25t30.5 -70q0 -46 -30.5 -70.5t-88.5 -24.5zM345 723q27 0 37.5 8t10.5 29q0 19 -10.5 27.5
t-37.5 8.5q-26 0 -37 -8.5t-11 -27.5q0 -21 11 -29t37 -8zM307 892l37 113h156l-118 -113h-75z" />
    <glyph glyph-name="aringacute" unicode="&#x1fb;" horiz-adv-x="572" 
d="M261 -15q-46 0 -86.5 8.5t-71 28t-47.5 53t-17 83.5q0 47 19.5 82t59.5 54t101 19q34 0 66 -7t57.5 -19t40.5 -26l6 -72q-20 12 -48 19t-60 7q-49 0 -71.5 -14.5t-22.5 -45.5q0 -19 11 -34t29.5 -23t38.5 -8q51 0 71.5 7t20.5 28v186q0 46 -29.5 66.5t-83.5 20.5
q-44 0 -88.5 -15.5t-72.5 -37.5v132q26 16 80.5 30t122.5 14q24 0 53 -4t58 -14.5t53.5 -30.5t39.5 -51t15 -77l-1 -239q0 -43 -29 -69.5t-83.5 -38.5t-131.5 -12zM284 556q-58 0 -88.5 24.5t-30.5 70.5q0 45 30.5 70t88.5 25t88.5 -25t30.5 -70q0 -46 -30.5 -70.5
t-88.5 -24.5zM284 614q27 0 37.5 8t10.5 29q0 19 -10.5 27.5t-37.5 8.5q-26 0 -37 -8.5t-11 -27.5q0 -21 11 -29t37 -8zM237 781l47 124h146l-111 -124h-82z" />
    <glyph glyph-name="AEacute" unicode="&#x1fc;" horiz-adv-x="1028" 
d="M516 621l73 -11l-395 -610h-181l465 667h486v-126h-287v-141h247v-127h-247v-147h287v-126h-448v621zM579 147h-384l52 116h344zM683 719l37 113h156l-118 -113h-75z" />
    <glyph glyph-name="aeacute" unicode="&#x1fd;" horiz-adv-x="882" 
d="M441 47q-33 -24 -82 -46t-114 -22q-56 0 -103 16t-75 54t-28 103q0 48 21.5 84t63.5 56.5t104 20.5q29 0 59.5 -6.5t55.5 -18t40 -25.5l6 -74q-20 12 -48 19t-60 7q-50 0 -72 -17.5t-22 -50.5q0 -19 10.5 -33t30 -22t44.5 -8q21 0 45 3t45 11t33 22zM358 200v109
q0 46 -29.5 66.5t-83.5 20.5q-44 0 -88.5 -15.5t-72.5 -38.5v135q26 16 80.5 30t122.5 14q24 0 53 -4t58 -14.5t53.5 -30.5t39.5 -51t15 -77l-1 -128q0 -57 34.5 -85.5t109.5 -28.5q43 0 83 14.5t65 30.5v-128q-35 -20 -79.5 -30.5t-103.5 -10.5q-77 0 -134.5 29.5
t-89.5 79.5t-32 113zM358 246q0 130 65.5 202t187.5 72q83 0 135 -36t76 -104.5t23 -165.5h-386l-15 95h278l-22 -47q-2 79 -23.5 111.5t-71.5 32.5q-28 0 -51 -13.5t-35.5 -46t-12.5 -87.5zM397 565l47 124h146l-111 -124h-82z" />
    <glyph glyph-name="Oslashacute" unicode="&#x1fe;" horiz-adv-x="737" 
d="M24 0l585 666h108l-587 -666h-106zM368 -14q-99 0 -172 37.5t-113.5 114.5t-40.5 195q0 171 86 259t240 88q99 0 172.5 -37.5t113.5 -113.5t40 -195q0 -172 -85.5 -260t-240.5 -88zM368 119q51 0 86.5 21t54 68.5t18.5 125.5q0 79 -18.5 126t-54 67.5t-86.5 20.5t-86 -21
t-53.5 -68t-18.5 -127q0 -79 18.5 -125.5t53.5 -67t86 -20.5zM329 719l37 113h156l-118 -113h-75z" />
    <glyph glyph-name="oslashacute" unicode="&#x1ff;" horiz-adv-x="601" 
d="M154 0h-135l426 499h136zM294 -15q-128 0 -192.5 68.5t-64.5 201.5q0 143 65.5 205.5t191.5 62.5q85 0 142.5 -28.5t87 -87.5t29.5 -152q0 -133 -67 -201.5t-192 -68.5zM294 104q37 0 61.5 17.5t37 51t12.5 82.5q0 56 -12.5 88.5t-37.5 47t-61 14.5q-38 0 -62 -15
t-35.5 -47.5t-11.5 -87.5q0 -76 26.5 -113.5t82.5 -37.5zM254 551l47 124h146l-111 -124h-82z" />
    <glyph glyph-name="uni0200" unicode="&#x200;" horiz-adv-x="691" 
d="M13 0l252 667h177l236 -667h-166l-213 629l79 7l-212 -636h-153zM155 144l33 119h303l15 -119h-351zM231 720l-97 111h132l47 -111h-82zM403 720l-97 111h132l47 -111h-82z" />
    <glyph glyph-name="uni0201" unicode="&#x201;" horiz-adv-x="572" 
d="M261 -15q-46 0 -86.5 8.5t-71 28t-47.5 53t-17 83.5q0 47 19.5 82t59.5 54t101 19q34 0 66 -7t57.5 -19t40.5 -26l6 -72q-20 12 -48 19t-60 7q-49 0 -71.5 -14.5t-22.5 -45.5q0 -19 11 -34t29.5 -23t38.5 -8q51 0 71.5 7t20.5 28v186q0 46 -29.5 66.5t-83.5 20.5
q-44 0 -88.5 -15.5t-72.5 -37.5v132q26 16 80.5 30t122.5 14q24 0 53 -4t58 -14.5t53.5 -30.5t39.5 -51t15 -77l-1 -239q0 -43 -29 -69.5t-83.5 -38.5t-131.5 -12zM174 572l-111 124h146l46 -124h-81zM357 572l-111 124h146l46 -124h-81z" />
    <glyph glyph-name="uni0202" unicode="&#x202;" horiz-adv-x="691" 
d="M346 832q49 0 80.5 -17.5t49 -47t21.5 -68.5h-83q-7 21 -23 39.5t-45 18.5q-28 0 -44.5 -18.5t-22.5 -39.5h-83q7 39 24 68.5t48 47t78 17.5zM13 0l252 667h177l236 -667h-166l-213 629l79 7l-212 -636h-153zM155 144l33 119h303l15 -119h-351z" />
    <glyph glyph-name="uni0203" unicode="&#x203;" horiz-adv-x="572" 
d="M284 679q48 0 80 -17t49.5 -47t21.5 -69h-83q-8 21 -23.5 39.5t-44.5 18.5q-28 0 -44.5 -18.5t-23.5 -39.5h-82q7 39 24 69t48 47t78 17zM261 -15q-46 0 -86.5 8.5t-71 28t-47.5 53t-17 83.5q0 47 19.5 82t59.5 54t101 19q34 0 66 -7t57.5 -19t40.5 -26l6 -72
q-20 12 -48 19t-60 7q-49 0 -71.5 -14.5t-22.5 -45.5q0 -19 11 -34t29.5 -23t38.5 -8q51 0 71.5 7t20.5 28v186q0 46 -29.5 66.5t-83.5 20.5q-44 0 -88.5 -15.5t-72.5 -37.5v132q26 16 80.5 30t122.5 14q24 0 53 -4t58 -14.5t53.5 -30.5t39.5 -51t15 -77l-1 -239
q0 -43 -29 -69.5t-83.5 -38.5t-131.5 -12z" />
    <glyph glyph-name="uni0204" unicode="&#x204;" horiz-adv-x="593" 
d="M71 0v667h457v-125h-295v-145h256v-126h-256v-146h295v-125h-457zM189 720l-97 111h132l47 -111h-82zM360 720l-97 111h132l47 -111h-82z" />
    <glyph glyph-name="uni0205" unicode="&#x205;" horiz-adv-x="562" 
d="M295 -15q-76 0 -134.5 31.5t-91 90t-32.5 139.5q0 132 65.5 204.5t187.5 72.5q84 0 135.5 -36t75.5 -105t23 -168h-385l-16 95h278l-22 -47q-1 81 -23 114t-72 33q-28 0 -50.5 -14t-35 -46.5t-12.5 -89.5q0 -72 34.5 -111t110.5 -39q28 0 55.5 6.5t51.5 15.5t41 16v-128
q-36 -15 -80.5 -24.5t-103.5 -9.5zM178 565l-111 124h146l46 -124h-81zM362 565l-111 124h146l46 -124h-81z" />
    <glyph glyph-name="uni0206" unicode="&#x206;" horiz-adv-x="593" 
d="M303 832q49 0 81 -17.5t49 -47t22 -68.5h-84q-7 21 -22.5 39.5t-45.5 18.5q-27 0 -43.5 -18.5t-23.5 -39.5h-83q8 39 25 68.5t47.5 47t77.5 17.5zM71 0v667h457v-125h-295v-145h256v-126h-256v-146h295v-125h-457z" />
    <glyph glyph-name="uni0207" unicode="&#x207;" horiz-adv-x="562" 
d="M289 672q48 0 80 -17t49.5 -47t21.5 -69h-84q-7 21 -22.5 39.5t-44.5 18.5q-28 0 -44.5 -18.5t-23.5 -39.5h-83q8 39 25 69t47.5 47t78.5 17zM295 -15q-76 0 -134.5 31.5t-91 90t-32.5 139.5q0 132 65.5 204.5t187.5 72.5q84 0 135.5 -36t75.5 -105t23 -168h-385l-16 95
h278l-22 -47q-1 81 -23 114t-72 33q-28 0 -50.5 -14t-35 -46.5t-12.5 -89.5q0 -72 34.5 -111t110.5 -39q28 0 55.5 6.5t51.5 15.5t41 16v-128q-36 -15 -80.5 -24.5t-103.5 -9.5z" />
    <glyph glyph-name="uni0208" unicode="&#x208;" horiz-adv-x="304" 
d="M71 0v667h162v-667h-162zM43 720l-97 111h132l47 -111h-82zM214 720l-97 111h132l47 -111h-82z" />
    <glyph glyph-name="uni0209" unicode="&#x209;" horiz-adv-x="282" 
d="M66 0v499h149l1 -499h-150zM31 551l-111 124h146l46 -124h-81zM215 551l-111 124h146l46 -124h-81z" />
    <glyph glyph-name="uni020A" unicode="&#x20a;" horiz-adv-x="304" 
d="M157 832q49 0 81 -17.5t49 -47t22 -68.5h-84q-7 21 -22.5 39.5t-45.5 18.5q-27 0 -43.5 -18.5t-23.5 -39.5h-83q8 39 25 68.5t47.5 47t77.5 17.5zM71 0v667h162v-667h-162z" />
    <glyph glyph-name="uni020B" unicode="&#x20b;" horiz-adv-x="282" 
d="M141 658q49 0 80.5 -17t49 -47t21.5 -69h-83q-7 21 -22.5 39.5t-45.5 18.5q-28 0 -44.5 -18.5t-22.5 -39.5h-83q7 39 24.5 69t48 47t77.5 17zM66 0v499h149l1 -499h-150z" />
    <glyph glyph-name="uni020C" unicode="&#x20c;" horiz-adv-x="737" 
d="M368 -14q-99 0 -172 37.5t-113.5 114.5t-40.5 195q0 171 86 259t240 88q99 0 172.5 -37.5t113.5 -113.5t40 -195q0 -172 -85.5 -260t-240.5 -88zM368 119q51 0 86.5 21t54 68.5t18.5 125.5q0 79 -18.5 126t-54 67.5t-86.5 20.5t-86 -21t-53.5 -68t-18.5 -127
q0 -79 18.5 -125.5t53.5 -67t86 -20.5zM256 741l-97 111h132l47 -111h-82zM427 741l-97 111h132l47 -111h-82z" />
    <glyph glyph-name="uni020D" unicode="&#x20d;" horiz-adv-x="590" 
d="M294 -15q-128 0 -192.5 68.5t-64.5 201.5q0 143 65.5 205.5t191.5 62.5q85 0 142.5 -28.5t87 -87.5t29.5 -152q0 -133 -67 -201.5t-192 -68.5zM294 104q37 0 61.5 17.5t37 51t12.5 82.5q0 56 -12.5 88.5t-37.5 47t-61 14.5q-38 0 -62 -15t-35.5 -47.5t-11.5 -87.5
q0 -76 26.5 -113.5t82.5 -37.5zM186 572l-111 124h146l46 -124h-81zM370 572l-111 124h146l46 -124h-81z" />
    <glyph glyph-name="uni020E" unicode="&#x20e;" horiz-adv-x="737" 
d="M371 853q48 0 80 -17.5t49 -47t22 -68.5h-84q-7 21 -22.5 39.5t-44.5 18.5q-28 0 -44.5 -18.5t-23.5 -39.5h-83q8 39 25 68.5t47.5 47t78.5 17.5zM368 -14q-99 0 -172 37.5t-113.5 114.5t-40.5 195q0 171 86 259t240 88q99 0 172.5 -37.5t113.5 -113.5t40 -195
q0 -172 -85.5 -260t-240.5 -88zM368 119q51 0 86.5 21t54 68.5t18.5 125.5q0 79 -18.5 126t-54 67.5t-86.5 20.5t-86 -21t-53.5 -68t-18.5 -127q0 -79 18.5 -125.5t53.5 -67t86 -20.5z" />
    <glyph glyph-name="uni020F" unicode="&#x20f;" horiz-adv-x="590" 
d="M296 679q49 0 80.5 -17t49 -47t21.5 -69h-83q-7 21 -23 39.5t-45 18.5q-28 0 -44.5 -18.5t-22.5 -39.5h-83q7 39 24 69t48 47t78 17zM294 -15q-128 0 -192.5 68.5t-64.5 201.5q0 143 65.5 205.5t191.5 62.5q85 0 142.5 -28.5t87 -87.5t29.5 -152q0 -133 -67 -201.5
t-192 -68.5zM294 104q37 0 61.5 17.5t37 51t12.5 82.5q0 56 -12.5 88.5t-37.5 47t-61 14.5q-38 0 -62 -15t-35.5 -47.5t-11.5 -87.5q0 -76 26.5 -113.5t82.5 -37.5z" />
    <glyph glyph-name="uni0210" unicode="&#x210;" horiz-adv-x="709" 
d="M71 0v667h325q113 0 177 -52.5t64 -159.5q0 -44 -18 -86.5t-53 -73t-88 -39.5l-10 55l203 -311h-206l-167 291l72 -61h-137v-230h-162zM233 349h136q43 0 68 23t25 76q0 46 -22.5 70t-63.5 24h-143v-193zM213 720l-97 111h132l47 -111h-82zM385 720l-97 111h132l47 -111
h-82z" />
    <glyph glyph-name="uni0211" unicode="&#x211;" horiz-adv-x="428" 
d="M66 0v453q14 12 50 27.5t82.5 28t93.5 12.5t74 -7t41 -18v-109q-17 4 -43 6t-54 2.5t-53 -0.5t-42 -4v-391h-149zM90 565l-111 124h146l46 -124h-81zM273 565l-111 124h146l46 -124h-81z" />
    <glyph glyph-name="uni0212" unicode="&#x212;" horiz-adv-x="709" 
d="M328 832q49 0 80.5 -17.5t49 -47t21.5 -68.5h-83q-7 21 -22.5 39.5t-45.5 18.5q-28 0 -44.5 -18.5t-22.5 -39.5h-83q7 39 24.5 68.5t48 47t77.5 17.5zM71 0v667h325q113 0 177 -52.5t64 -159.5q0 -44 -18 -86.5t-53 -73t-88 -39.5l-10 55l203 -311h-206l-167 291l72 -61
h-137v-230h-162zM233 349h136q43 0 68 23t25 76q0 46 -22.5 70t-63.5 24h-143v-193z" />
    <glyph glyph-name="uni0213" unicode="&#x213;" horiz-adv-x="428" 
d="M200 672q48 0 80 -17t49.5 -47t21.5 -69h-83q-8 21 -23.5 39.5t-44.5 18.5q-28 0 -44.5 -18.5t-23.5 -39.5h-82q7 39 24 69t48 47t78 17zM66 0v453q14 12 50 27.5t82.5 28t93.5 12.5t74 -7t41 -18v-109q-17 4 -43 6t-54 2.5t-53 -0.5t-42 -4v-391h-149z" />
    <glyph glyph-name="uni0214" unicode="&#x214;" horiz-adv-x="726" 
d="M378 -21q-154 0 -230.5 65.5t-76.5 204.5v418h169v-411q0 -77 31 -114t99 -37q62 0 96.5 37t34.5 114v411h154v-418q0 -93 -35.5 -152.5t-97.5 -88.5t-144 -29zM248 727l-97 111h132l47 -111h-82zM419 727l-97 111h132l47 -111h-82z" />
    <glyph glyph-name="uni0215" unicode="&#x215;" horiz-adv-x="601" 
d="M304 -15q-70 0 -124 22t-84 67.5t-30 118.5v313h149v-301q0 -48 21.5 -71.5t68.5 -23.5q48 0 69 23.5t21 71.5v301h140v-313q0 -108 -62 -158t-169 -50zM198 565l-111 124h146l46 -124h-81zM381 565l-111 124h146l46 -124h-81z" />
    <glyph glyph-name="uni0216" unicode="&#x216;" horiz-adv-x="726" 
d="M363 839q48 0 80 -17.5t49.5 -47t21.5 -68.5h-84q-7 21 -22.5 39.5t-44.5 18.5q-28 0 -44.5 -18.5t-23.5 -39.5h-83q8 39 25 68.5t47.5 47t78.5 17.5zM378 -21q-154 0 -230.5 65.5t-76.5 204.5v418h169v-411q0 -77 31 -114t99 -37q62 0 96.5 37t34.5 114v411h154v-418
q0 -93 -35.5 -152.5t-97.5 -88.5t-144 -29z" />
    <glyph glyph-name="uni0217" unicode="&#x217;" horiz-adv-x="601" 
d="M308 672q48 0 80 -17t49.5 -47t21.5 -69h-83q-8 21 -23.5 39.5t-44.5 18.5q-28 0 -44.5 -18.5t-23.5 -39.5h-82q7 39 24 69t48 47t78 17zM304 -15q-70 0 -124 22t-84 67.5t-30 118.5v313h149v-301q0 -48 21.5 -71.5t68.5 -23.5q48 0 69 23.5t21 71.5v301h140v-313
q0 -108 -62 -158t-169 -50z" />
    <glyph glyph-name="uni0218" unicode="&#x218;" horiz-adv-x="577" 
d="M295 -14q-51 0 -92 5t-76 15t-68 26v154q46 -37 104 -56t110 -19q46 0 70.5 17.5t24.5 53.5q0 27 -22.5 43.5t-59.5 29t-83 28.5q-29 9 -57 23t-50 35.5t-35 52.5t-13 76q0 41 15 79t46.5 68t80.5 47.5t115 17.5q41 0 72.5 -5t60.5 -14.5t59 -24.5v-156
q-23 19 -51.5 35.5t-59.5 27.5t-65 12q-30 1 -55 -6t-39 -22.5t-14 -39.5q0 -28 17 -44t47 -26.5t67 -22.5q41 -12 75.5 -26.5t60.5 -36.5t40 -54t14 -77q0 -60 -28 -109.5t-81 -78t-130 -28.5zM183 -194v69q16 5 24.5 14.5t11.5 25t3 35.5h112q1 -42 -17 -74t-52 -50
t-82 -20z" />
    <glyph glyph-name="uni0219" unicode="&#x219;" horiz-adv-x="482" 
d="M216 -15q-54 0 -92.5 11.5t-72.5 25.5v131q21 -14 47 -28.5t57.5 -23.5t66.5 -9q36 0 50.5 12.5t14.5 30.5q0 17 -15 27.5t-39 17.5t-51 13q-24 5 -48 15.5t-43 28.5t-30.5 44.5t-11.5 64.5q0 49 19 81.5t50 52.5t67 28.5t70 7.5q62 -2 98.5 -13.5t66.5 -29.5v-117
q-34 19 -67.5 35.5t-76.5 16.5q-39 0 -56 -12t-17 -32q0 -19 11.5 -30t30.5 -17.5t42 -12.5q25 -6 51.5 -14.5t50 -24t38 -43t14.5 -72.5q-1 -61 -33 -97.5t-82.5 -52t-109.5 -15.5zM140 -194v69q16 5 24.5 14.5t11.5 25t3 35.5h112q1 -42 -17 -74t-52 -50t-82 -20z" />
    <glyph glyph-name="uni021B" unicode="&#x21b;" horiz-adv-x="391" 
d="M261 -7q-35 0 -65 9.5t-52 29.5t-34 51t-12 75v241h-74v100h74v146h142v-146h111v-100h-111v-261q0 -18 11 -28.5t32 -10.5q15 0 31.5 4.5t36.5 16.5v-107q-21 -11 -44 -15.5t-46 -4.5zM150 -194v62q16 5 24.5 16t12 28.5t2.5 37.5h84q1 -42 -16 -74t-45 -50t-62 -20z
" />
    <glyph glyph-name="uni0226" unicode="&#x226;" horiz-adv-x="691" 
d="M13 0l252 667h177l236 -667h-166l-213 629l79 7l-212 -636h-153zM155 144l33 119h303l15 -119h-351zM275 697v100h122v-100h-122z" />
    <glyph glyph-name="uni022A" unicode="&#x22a;" horiz-adv-x="737" 
d="M368 -14q-99 0 -172 37.5t-113.5 114.5t-40.5 195q0 171 86 259t240 88q99 0 172.5 -37.5t113.5 -113.5t40 -195q0 -172 -85.5 -260t-240.5 -88zM368 119q51 0 86.5 21t54 68.5t18.5 125.5q0 79 -18.5 126t-54 67.5t-86.5 20.5t-86 -21t-53.5 -68t-18.5 -127
q0 -79 18.5 -125.5t53.5 -67t86 -20.5zM394 724v100h129v-100h-129zM211 724v100h128v-100h-128zM229 878v95h276v-95h-276z" />
    <glyph glyph-name="uni022B" unicode="&#x22b;" horiz-adv-x="590" 
d="M294 -15q-128 0 -192.5 68.5t-64.5 201.5q0 143 65.5 205.5t191.5 62.5q85 0 142.5 -28.5t87 -87.5t29.5 -152q0 -133 -67 -201.5t-192 -68.5zM294 104q37 0 61.5 17.5t37 51t12.5 82.5q0 56 -12.5 88.5t-37.5 47t-61 14.5q-38 0 -62 -15t-35.5 -47.5t-11.5 -87.5
q0 -76 26.5 -113.5t82.5 -37.5zM330 579v100h129v-100h-129zM147 579v100h128v-100h-128zM154 732v95h276v-95h-276z" />
    <glyph glyph-name="uni022C" unicode="&#x22c;" horiz-adv-x="737" 
d="M368 -14q-99 0 -172 37.5t-113.5 114.5t-40.5 195q0 171 86 259t240 88q99 0 172.5 -37.5t113.5 -113.5t40 -195q0 -172 -85.5 -260t-240.5 -88zM368 119q51 0 86.5 21t54 68.5t18.5 125.5q0 79 -18.5 126t-54 67.5t-86.5 20.5t-86 -21t-53.5 -68t-18.5 -127
q0 -79 18.5 -125.5t53.5 -67t86 -20.5zM263 741h-69q-2 38 12 70.5t40.5 51t60.5 18.5q26 0 46.5 -9.5t38 -22t34 -22.5t33.5 -10t26 14.5t7 44.5h73q2 -43 -13.5 -74t-41.5 -47.5t-57 -16.5q-32 0 -54 10t-39 22t-30.5 22t-28.5 10q-21 0 -30 -19.5t-8 -41.5zM229 934v95
h276v-95h-276z" />
    <glyph glyph-name="uni022D" unicode="&#x22d;" horiz-adv-x="590" 
d="M294 -15q-128 0 -192.5 68.5t-64.5 201.5q0 143 65.5 205.5t191.5 62.5q85 0 142.5 -28.5t87 -87.5t29.5 -152q0 -133 -67 -201.5t-192 -68.5zM294 104q37 0 61.5 17.5t37 51t12.5 82.5q0 56 -12.5 88.5t-37.5 47t-61 14.5q-38 0 -62 -15t-35.5 -47.5t-11.5 -87.5
q0 -76 26.5 -113.5t82.5 -37.5zM187 566h-69q-2 38 12 70.5t40.5 51t60.5 18.5q26 0 46.5 -9.5t38 -22t34 -22.5t33.5 -10t26 14.5t7 44.5h73q2 -43 -13.5 -74t-41.5 -47.5t-57 -16.5q-32 0 -54 10t-39 22t-30.5 22t-28.5 10q-21 0 -30 -19.5t-8 -41.5zM154 765v95h276v-95
h-276z" />
    <glyph glyph-name="uni0230" unicode="&#x230;" horiz-adv-x="737" 
d="M368 -14q-99 0 -172 37.5t-113.5 114.5t-40.5 195q0 171 86 259t240 88q99 0 172.5 -37.5t113.5 -113.5t40 -195q0 -172 -85.5 -260t-240.5 -88zM368 119q51 0 86.5 21t54 68.5t18.5 125.5q0 79 -18.5 126t-54 67.5t-86.5 20.5t-86 -21t-53.5 -68t-18.5 -127
q0 -79 18.5 -125.5t53.5 -67t86 -20.5zM299 718v100h122v-100h-122zM229 871v95h276v-95h-276z" />
    <glyph glyph-name="uni0231" unicode="&#x231;" horiz-adv-x="590" 
d="M294 -15q-128 0 -192.5 68.5t-64.5 201.5q0 143 65.5 205.5t191.5 62.5q85 0 142.5 -28.5t87 -87.5t29.5 -152q0 -133 -67 -201.5t-192 -68.5zM294 104q37 0 61.5 17.5t37 51t12.5 82.5q0 56 -12.5 88.5t-37.5 47t-61 14.5q-38 0 -62 -15t-35.5 -47.5t-11.5 -87.5
q0 -76 26.5 -113.5t82.5 -37.5zM225 572v100h122v-100h-122zM154 732v95h276v-95h-276z" />
    <glyph glyph-name="uni0232" unicode="&#x232;" horiz-adv-x="692" 
d="M274 0v288l-253 379h199l190 -319h-75l173 319h161l-256 -419l23 86v-334h-162zM229 712v95h276v-95h-276z" />
    <glyph glyph-name="uni0233" unicode="&#x233;" horiz-adv-x="593" 
d="M176 -196q-25 0 -49 5t-41 13v121q16 -6 30 -8.5t29 -2.5q25 0 43.5 11.5t30.5 39t19 74.5l3 -85l-217 534h171l115 -355h-15l114 355h160l-199 -514q-27 -70 -58.5 -111t-65.5 -59t-70 -18zM156 552v95h276v-95h-276z" />
    <glyph glyph-name="uni0237" unicode="&#x237;" horiz-adv-x="306" 
d="M3 -193v107q26 0 45.5 6.5t31 22.5t11.5 44v512h142v-503q0 -72 -30 -113.5t-82 -58.5t-118 -17z" />
    <glyph glyph-name="uni0259" unicode="&#x259;" horiz-adv-x="562" 
d="M267 514q77 0 135 -31.5t90 -89.5t32 -140q0 -132 -65.5 -204.5t-186.5 -72.5q-83 0 -135 36.5t-76 105.5t-24 167h386l15 -95h-277l22 47q2 -81 24 -114t71 -33q29 0 51 14t34.5 46.5t12.5 89.5q0 72 -34.5 111t-110.5 39q-28 0 -56 -6.5t-51.5 -15t-40.5 -16.5v128
q35 15 80 24.5t104 9.5z" />
    <glyph glyph-name="uni0272" unicode="&#x272;" horiz-adv-x="609" 
d="M66 5v458q19 10 50 20.5t68 18.5t74.5 13t69.5 5q68 0 116 -17.5t73.5 -56.5t25.5 -106v-340h-149v310q0 19 -5.5 35t-16.5 27.5t-30 18t-46 6.5q-23 0 -46 -5.5t-35 -11.5v-375q0 -73 -29.5 -114t-81.5 -58t-118 -17v121q28 -3 45.5 3.5t26 23t8.5 41.5z" />
    <glyph glyph-name="circumflex" unicode="&#x2c6;" horiz-adv-x="420" 
d="M67 564l87 121h122l87 -121h-99l-49 59l-49 -59h-99z" />
    <glyph glyph-name="caron" unicode="&#x2c7;" horiz-adv-x="421" 
d="M150 564l-80 121h95l43 -58l43 58h95l-73 -121h-123z" />
    <glyph glyph-name="uni02C9" unicode="&#x2c9;" horiz-adv-x="397" 
d="M61 655v95h276v-95h-276z" />
    <glyph glyph-name="breve" unicode="&#x2d8;" horiz-adv-x="448" 
d="M220 538q-48 0 -78.5 17t-47.5 47.5t-25 68.5h83q7 -20 23.5 -39t44.5 -19q29 0 44.5 19t22.5 39h84q-5 -38 -22 -68.5t-49 -47.5t-80 -17z" />
    <glyph glyph-name="dotaccent" unicode="&#x2d9;" horiz-adv-x="265" 
d="M72 551v100h122v-100h-122z" />
    <glyph glyph-name="ring" unicode="&#x2da;" horiz-adv-x="409" 
d="M201 535q-58 0 -88.5 24.5t-30.5 70.5q0 45 30.5 70t88.5 25t88.5 -25t30.5 -70q0 -46 -30.5 -70.5t-88.5 -24.5zM201 593q27 0 37.5 8t10.5 29q0 19 -10.5 27.5t-37.5 8.5q-26 0 -37 -8.5t-11 -27.5q0 -21 11 -29t37 -8z" />
    <glyph glyph-name="ogonek" unicode="&#x2db;" horiz-adv-x="362" 
d="M182 -188q-65 0 -96 24t-31 72q0 38 32.5 66t86.5 49l96 -23q-41 -17 -69 -37t-28 -40q0 -21 9.5 -28.5t25.5 -7.5q18 0 34.5 10.5t30.5 23.5v-85q-15 -8 -35.5 -16t-55.5 -8z" />
    <glyph glyph-name="tilde" unicode="&#x2dc;" horiz-adv-x="479" 
d="M129 531h-69q-2 38 12 70.5t40.5 51t60.5 18.5q26 0 46.5 -9.5t38 -22t34 -22.5t33.5 -10t26 14.5t7 44.5h73q2 -43 -13.5 -74t-41.5 -47.5t-57 -16.5q-32 0 -54 10t-39 22t-30.5 22t-28.5 10q-21 0 -30 -19.5t-8 -41.5z" />
    <glyph glyph-name="hungarumlaut" unicode="&#x2dd;" horiz-adv-x="413" 
d="M202 558l60 117h104l-90 -117h-74zM60 558l61 117h104l-90 -117h-75z" />
    <glyph glyph-name="gravecomb" unicode="&#x300;" 
d="M141 551l-111 124h146l46 -124h-81z" />
    <glyph glyph-name="acutecomb" unicode="&#x301;" 
d="M62 551l47 124h146l-111 -124h-82z" />
    <glyph glyph-name="uni0302" unicode="&#x302;" 
d="M67 564l87 121h122l87 -121h-99l-49 59l-49 -59h-99z" />
    <glyph glyph-name="tildecomb" unicode="&#x303;" 
d="M129 545h-69q-2 38 12 70.5t40.5 51t60.5 18.5q26 0 46.5 -9.5t38 -22t34 -22.5t33.5 -10t26 14.5t7 44.5h73q2 -43 -13.5 -74t-41.5 -47.5t-57 -16.5q-32 0 -54 10t-39 22t-30.5 22t-28.5 10q-21 0 -30 -19.5t-8 -41.5z" />
    <glyph glyph-name="uni0304" unicode="&#x304;" 
d="M61 552v95h276v-95h-276z" />
    <glyph glyph-name="uni0306" unicode="&#x306;" 
d="M220 538q-48 0 -78.5 17t-47.5 47.5t-25 68.5h83q7 -20 23.5 -39t44.5 -19q29 0 44.5 19t22.5 39h84q-5 -38 -22 -68.5t-49 -47.5t-80 -17z" />
    <glyph glyph-name="uni0307" unicode="&#x307;" 
d="M72 551v100h122v-100h-122z" />
    <glyph glyph-name="uni0308" unicode="&#x308;" 
d="M242 558v100h129v-100h-129zM59 558v100h128v-100h-128z" />
    <glyph glyph-name="hookabovecomb" unicode="&#x309;" 
d="M87 542v57q18 1 27.5 8t9.5 16q0 13 -11.5 18.5t-30.5 5.5q-7 0 -14 -1t-16 -2v58q7 2 22.5 3.5t35.5 1.5q31 0 56 -8t40.5 -25t15.5 -45t-15 -45t-42 -18v-24h-78z" />
    <glyph glyph-name="uni030A" unicode="&#x30a;" 
d="M201 535q-58 0 -88.5 24.5t-30.5 70.5q0 45 30.5 70t88.5 25t88.5 -25t30.5 -70q0 -46 -30.5 -70.5t-88.5 -24.5zM201 593q27 0 37.5 8t10.5 29q0 19 -10.5 27.5t-37.5 8.5q-26 0 -37 -8.5t-11 -27.5q0 -21 11 -29t37 -8z" />
    <glyph glyph-name="uni030B" unicode="&#x30b;" 
d="M202 558l60 117h104l-90 -117h-74zM60 558l61 117h104l-90 -117h-75z" />
    <glyph glyph-name="uni030C" unicode="&#x30c;" 
d="M150 564l-80 121h95l43 -58l43 58h95l-73 -121h-123z" />
    <glyph glyph-name="uni030F" unicode="&#x30f;" 
d="M160 551l-111 124h146l46 -124h-81zM344 551l-111 124h146l46 -124h-81z" />
    <glyph glyph-name="uni0311" unicode="&#x311;" 
d="M220 658q48 0 80 -17t49 -47t22 -69h-84q-7 21 -22.5 39.5t-44.5 18.5q-28 0 -44.5 -18.5t-23.5 -39.5h-83q8 39 25 69t47.5 47t78.5 17z" />
    <glyph glyph-name="uni031B" unicode="&#x31b;" 
d="M93 422l-4 82q33 0 53.5 12.5t20.5 35.5v37h92v-56q0 -39 -21.5 -63t-58 -35.5t-82.5 -12.5z" />
    <glyph glyph-name="dotbelowcmb" unicode="&#x323;" 
d="M50 -150v100h108v-100h-108z" />
    <glyph glyph-name="uni0324" unicode="&#x324;" 
d="M242 -142v100h129v-100h-129zM59 -142v100h128v-100h-128z" />
    <glyph glyph-name="uni0326.1" unicode="&#x326;" 
d="M62 -194v69q16 5 24.5 14.5t11.5 25t3 35.5h112q1 -42 -17 -74t-52 -50t-82 -20z" />
    <glyph glyph-name="uni0327" unicode="&#x327;" 
d="M46 -133l90 128h96l-52 -128h-134z" />
    <glyph glyph-name="uni0328" unicode="&#x328;" 
d="M182 -188q-65 0 -96 24t-31 72q0 38 32.5 66t86.5 49l96 -23q-41 -17 -69 -37t-28 -40q0 -21 9.5 -28.5t25.5 -7.5q18 0 34.5 10.5t30.5 23.5v-85q-15 -8 -35.5 -16t-55.5 -8z" />
    <glyph glyph-name="uni032E" unicode="&#x32e;" 
d="M220 -147q-48 0 -78.5 17t-47.5 47.5t-25 68.5h83q7 -20 23.5 -39t44.5 -19q29 0 44.5 19t22.5 39h84q-5 -38 -22 -68.5t-49 -47.5t-80 -17z" />
    <glyph glyph-name="uni0331" unicode="&#x331;" 
d="M61 -144v95h276v-95h-276z" />
    <glyph glyph-name="uni0335" unicode="&#x335;" 
d="M55 271v91h301v-91h-301z" />
    <glyph glyph-name="pi" unicode="&#x3c0;" horiz-adv-x="630" 
d="M134 0v392h-100v107h561v-107h-102v-392h-107v392h-143v-392h-109z" />
    <glyph glyph-name="uni1E09" unicode="&#x1e09;" horiz-adv-x="502" 
d="M303 -13q-54 0 -102 16t-85 48t-58 81t-21 114q0 69 20 120.5t55.5 85.5t83.5 51t106 17q41 0 84.5 -8.5t76.5 -23.5v-128q-35 16 -68.5 26.5t-68.5 10.5q-63 0 -101.5 -31.5t-38.5 -102.5q0 -75 34 -113t113 -38q37 0 71.5 13t59.5 27v-127q-35 -18 -73 -28t-88 -10z
M163 -133l90 128h96l-52 -128h-134zM241 565l47 124h146l-111 -124h-82z" />
    <glyph glyph-name="uni1E0F" unicode="&#x1e0f;" horiz-adv-x="609" 
d="M308 -15q-59 0 -108.5 13t-85.5 43.5t-56.5 83.5t-20.5 132q0 123 60.5 194t181.5 71q16 0 42 -2.5t54 -12.5t50 -34l-30 -46v287h148v-582q0 -37 -20 -64.5t-53.5 -45.5t-75.5 -27.5t-86 -9.5zM314 110q36 0 58.5 9.5t22.5 28.5v233q-18 10 -38.5 15.5t-39.5 5.5
q-42 0 -71 -14t-43.5 -47t-14.5 -89q0 -44 12 -75.5t39.5 -49t74.5 -17.5zM177 -144v95h276v-95h-276z" />
    <glyph glyph-name="uni1E14" unicode="&#x1e14;" horiz-adv-x="593" 
d="M71 0v667h457v-125h-295v-145h256v-126h-256v-146h295v-125h-457zM161 712v95h276v-95h-276zM268 848l-97 111h132l47 -111h-82z" />
    <glyph glyph-name="uni1E15" unicode="&#x1e15;" horiz-adv-x="562" 
d="M295 -15q-76 0 -134.5 31.5t-91 90t-32.5 139.5q0 132 65.5 204.5t187.5 72.5q84 0 135.5 -36t75.5 -105t23 -168h-385l-16 95h278l-22 -47q-1 81 -23 114t-72 33q-28 0 -50.5 -14t-35 -46.5t-12.5 -89.5q0 -72 34.5 -111t110.5 -39q28 0 55.5 6.5t51.5 15.5t41 16v-128
q-36 -15 -80.5 -24.5t-103.5 -9.5zM147 566v95h276v-95h-276zM251 706l-111 124h146l46 -124h-81z" />
    <glyph glyph-name="uni1E16" unicode="&#x1e16;" horiz-adv-x="593" 
d="M71 0v667h457v-125h-295v-145h256v-126h-256v-146h295v-125h-457zM161 712v95h276v-95h-276zM264 851l37 113h156l-118 -113h-75z" />
    <glyph glyph-name="uni1E17" unicode="&#x1e17;" horiz-adv-x="562" 
d="M295 -15q-76 0 -134.5 31.5t-91 90t-32.5 139.5q0 132 65.5 204.5t187.5 72.5q84 0 135.5 -36t75.5 -105t23 -168h-385l-16 95h278l-22 -47q-1 81 -23 114t-72 33q-28 0 -50.5 -14t-35 -46.5t-12.5 -89.5q0 -72 34.5 -111t110.5 -39q28 0 55.5 6.5t51.5 15.5t41 16v-128
q-36 -15 -80.5 -24.5t-103.5 -9.5zM147 566v95h276v-95h-276zM241 706l47 124h146l-111 -124h-82z" />
    <glyph glyph-name="uni1E1C" unicode="&#x1e1c;" horiz-adv-x="593" 
d="M71 0v667h457v-125h-295v-145h256v-126h-256v-146h295v-125h-457zM169 -122l90 128h96l-52 -128h-134zM304 701q-48 0 -78.5 17t-47.5 47.5t-25 68.5h83q7 -20 23.5 -39t44.5 -19q29 0 44.5 19t22.5 39h84q-5 -38 -22 -68.5t-49 -47.5t-80 -17z" />
    <glyph glyph-name="uni1E1D" unicode="&#x1e1d;" horiz-adv-x="562" 
d="M295 -15q-76 0 -134.5 31.5t-91 90t-32.5 139.5q0 132 65.5 204.5t187.5 72.5q84 0 135.5 -36t75.5 -105t23 -168h-385l-16 95h278l-22 -47q-1 81 -23 114t-72 33q-28 0 -50.5 -14t-35 -46.5t-12.5 -89.5q0 -72 34.5 -111t110.5 -39q28 0 55.5 6.5t51.5 15.5t41 16v-128
q-36 -15 -80.5 -24.5t-103.5 -9.5zM204 -133l90 128h96l-52 -128h-134zM289 552q-48 0 -78.5 17t-47.5 47.5t-25 68.5h83q7 -20 23.5 -39t44.5 -19q29 0 44.5 19t22.5 39h84q-5 -38 -22 -68.5t-49 -47.5t-80 -17z" />
    <glyph glyph-name="uni1E1E" unicode="&#x1e1e;" horiz-adv-x="568" 
d="M71 0v667h454v-125h-292v-159h252v-127h-252v-256h-162zM193 693v100h122v-100h-122z" />
    <glyph glyph-name="uni1E20" unicode="&#x1e20;" horiz-adv-x="706" 
d="M368 -14q-98 0 -171.5 35t-114 111.5t-40.5 200.5q0 122 40.5 199t114 113.5t171.5 36.5q63 0 123 -13t115 -36v-147q-60 31 -111.5 50t-106.5 19q-57 0 -97.5 -20t-61.5 -68.5t-21 -132.5q0 -83 21.5 -131.5t60.5 -69.5t91 -21q27 0 50.5 3.5t41.5 12.5v118h-110v126
h272v-314q-62 -34 -129.5 -53t-137.5 -19zM229 726v95h276v-95h-276z" />
    <glyph glyph-name="uni1E21" unicode="&#x1e21;" horiz-adv-x="593" 
d="M260 -15q-69 4 -118.5 32t-77 82.5t-27.5 137.5q0 84 21 139.5t58.5 86.5t90.5 44t118 13q63 0 110 -16t73 -46t26 -74v-390q0 -53 -17 -93.5t-50.5 -68t-81 -41.5t-109.5 -14q-67 0 -114.5 9.5t-72.5 23.5v131q15 -6 44 -16t65 -16.5t72 -6.5q47 0 72.5 13t35.5 35
t10 50v82l29 -21q-16 -23 -38 -40t-51.5 -26.5t-67.5 -9.5zM298 97q26 0 48 5.5t42 16.5v232q0 21 -12 32t-30 15t-38 4q-46 0 -72.5 -20t-38 -55.5t-11.5 -80.5q0 -69 31 -109t81 -40zM184 573v95h276v-95h-276z" />
    <glyph glyph-name="uni1E2A" unicode="&#x1e2a;" horiz-adv-x="710" 
d="M71 0v667h162v-270h245v270h161v-667h-161v265h-245v-265h-162zM356 -175q-48 0 -78.5 17t-47.5 47.5t-25 68.5h83q7 -20 23.5 -39t44.5 -19q29 0 44.5 19t22.5 39h84q-5 -38 -22 -68.5t-49 -47.5t-80 -17z" />
    <glyph glyph-name="uni1E2B" unicode="&#x1e2b;" horiz-adv-x="611" 
d="M66 0v706h150v-300l-63 34q40 35 94.5 57.5t111.5 22.5q55 0 97 -18t65.5 -58.5t23.5 -111.5v-332h-149v301q0 50 -24.5 72.5t-71.5 22.5q-24 0 -47.5 -6.5t-36.5 -16.5l-2 -373h-148zM301 -168q-48 0 -78.5 17t-47.5 47.5t-25 68.5h83q7 -20 23.5 -39t44.5 -19
q29 0 44.5 19t22.5 39h84q-5 -38 -22 -68.5t-49 -47.5t-80 -17z" />
    <glyph glyph-name="uni1E2E" unicode="&#x1e2e;" horiz-adv-x="304" 
d="M71 0v667h162v-667h-162zM181 703v100h129v-100h-129zM-2 703v100h128v-100h-128zM118 865l37 113h156l-118 -113h-75z" />
    <glyph glyph-name="uni1E2F" unicode="&#x1e2f;" horiz-adv-x="282" 
d="M66 0v499h149l1 -499h-150zM176 558v100h129v-100h-129zM-7 558v100h128v-100h-128zM94 710l47 124h146l-111 -124h-82z" />
    <glyph glyph-name="uni1E36" unicode="&#x1e36;" horiz-adv-x="555" 
d="M71 0v667h162v-540h290v-127h-452zM225 -150v100h108v-100h-108z" />
    <glyph glyph-name="uni1E37" unicode="&#x1e37;" horiz-adv-x="280" 
d="M214 0h-148v697h148v-697zM86 -150v100h108v-100h-108z" />
    <glyph glyph-name="uni1E3A" unicode="&#x1e3a;" horiz-adv-x="555" 
d="M71 0v667h162v-540h290v-127h-452zM138 -144v95h276v-95h-276z" />
    <glyph glyph-name="uni1E3B" unicode="&#x1e3b;" horiz-adv-x="280" 
d="M214 0h-148v697h148v-697zM1 -144v95h276v-95h-276z" />
    <glyph glyph-name="uni1E42" unicode="&#x1e42;" horiz-adv-x="846" 
d="M71 0v667h165l229 -319l-88 -3l237 322h161v-667h-162v545l32 -52l-228 -303l-226 308l35 24v-522h-155zM369 -150v100h108v-100h-108z" />
    <glyph glyph-name="uni1E43" unicode="&#x1e43;" horiz-adv-x="916" 
d="M536 340v-340h-149v310q0 19 -5.5 35t-16.5 27.5t-30 18t-46 6.5q-23 0 -42.5 -5.5t-31.5 -11.5v-380h-149v463q19 10 50 20.5t68 18.5t74.5 13t69.5 5q68 0 114.5 -17.5t70 -56.5t23.5 -106zM383 429q31 27 75 47.5t93 32t91 11.5q68 0 114.5 -17.5t70 -56.5t23.5 -106
v-340h-149v310q0 19 -5.5 35t-16.5 27.5t-30 18t-46 6.5q-23 0 -42.5 -6.5t-31.5 -16.5zM404 -150v100h108v-100h-108z" />
    <glyph glyph-name="uni1E45" unicode="&#x1e45;" horiz-adv-x="609" 
d="M66 463q19 10 50 20.5t68 18.5t74.5 13t69.5 5q68 0 116 -17.5t73.5 -56.5t25.5 -106v-340h-149v310q0 19 -5.5 35t-16.5 27.5t-30 18t-46 6.5q-23 0 -46 -5.5t-35 -11.5v-380h-149v463zM232 565v100h122v-100h-122z" />
    <glyph glyph-name="uni1E46" unicode="&#x1e46;" horiz-adv-x="724" 
d="M71 0v667h138l343 -462l-48 -100v562h149v-667h-122l-349 456l38 73v-529h-149zM309 -150v100h108v-100h-108z" />
    <glyph glyph-name="uni1E47" unicode="&#x1e47;" horiz-adv-x="609" 
d="M66 463q19 10 50 20.5t68 18.5t74.5 13t69.5 5q68 0 116 -17.5t73.5 -56.5t25.5 -106v-340h-149v310q0 19 -5.5 35t-16.5 27.5t-30 18t-46 6.5q-23 0 -46 -5.5t-35 -11.5v-380h-149v463zM250 -150v100h108v-100h-108z" />
    <glyph glyph-name="uni1E48" unicode="&#x1e48;" horiz-adv-x="724" 
d="M71 0v667h138l343 -462l-48 -100v562h149v-667h-122l-349 456l38 73v-529h-149zM221 -144v95h276v-95h-276z" />
    <glyph glyph-name="uni1E49" unicode="&#x1e49;" horiz-adv-x="609" 
d="M66 463q19 10 50 20.5t68 18.5t74.5 13t69.5 5q68 0 116 -17.5t73.5 -56.5t25.5 -106v-340h-149v310q0 19 -5.5 35t-16.5 27.5t-30 18t-46 6.5q-23 0 -46 -5.5t-35 -11.5v-380h-149v463zM165 -144v95h276v-95h-276z" />
    <glyph glyph-name="uni1E4C" unicode="&#x1e4c;" horiz-adv-x="737" 
d="M368 -14q-99 0 -172 37.5t-113.5 114.5t-40.5 195q0 171 86 259t240 88q99 0 172.5 -37.5t113.5 -113.5t40 -195q0 -172 -85.5 -260t-240.5 -88zM368 119q51 0 86.5 21t54 68.5t18.5 125.5q0 79 -18.5 126t-54 67.5t-86.5 20.5t-86 -21t-53.5 -68t-18.5 -127
q0 -79 18.5 -125.5t53.5 -67t86 -20.5zM263 741h-69q-2 38 12 70.5t40.5 51t60.5 18.5q26 0 46.5 -9.5t38 -22t34 -22.5t33.5 -10t26 14.5t7 44.5h73q2 -43 -13.5 -74t-41.5 -47.5t-57 -16.5q-32 0 -54 10t-39 22t-30.5 22t-28.5 10q-21 0 -30 -19.5t-8 -41.5zM331 941
l37 113h156l-118 -113h-75z" />
    <glyph glyph-name="uni1E4D" unicode="&#x1e4d;" horiz-adv-x="590" 
d="M294 -15q-128 0 -192.5 68.5t-64.5 201.5q0 143 65.5 205.5t191.5 62.5q85 0 142.5 -28.5t87 -87.5t29.5 -152q0 -133 -67 -201.5t-192 -68.5zM294 104q37 0 61.5 17.5t37 51t12.5 82.5q0 56 -12.5 88.5t-37.5 47t-61 14.5q-38 0 -62 -15t-35.5 -47.5t-11.5 -87.5
q0 -76 26.5 -113.5t82.5 -37.5zM187 566h-69q-2 38 12 70.5t40.5 51t60.5 18.5q26 0 46.5 -9.5t38 -22t34 -22.5t33.5 -10t26 14.5t7 44.5h73q2 -43 -13.5 -74t-41.5 -47.5t-57 -16.5q-32 0 -54 10t-39 22t-30.5 22t-28.5 10q-21 0 -30 -19.5t-8 -41.5zM249 764l47 124h146
l-111 -124h-82z" />
    <glyph glyph-name="uni1E4E" unicode="&#x1e4e;" horiz-adv-x="737" 
d="M368 -14q-99 0 -172 37.5t-113.5 114.5t-40.5 195q0 171 86 259t240 88q99 0 172.5 -37.5t113.5 -113.5t40 -195q0 -172 -85.5 -260t-240.5 -88zM368 119q51 0 86.5 21t54 68.5t18.5 125.5q0 79 -18.5 126t-54 67.5t-86.5 20.5t-86 -21t-53.5 -68t-18.5 -127
q0 -79 18.5 -125.5t53.5 -67t86 -20.5zM263 741h-69q-2 38 12 70.5t40.5 51t60.5 18.5q26 0 46.5 -9.5t38 -22t34 -22.5t33.5 -10t26 14.5t7 44.5h73q2 -43 -13.5 -74t-41.5 -47.5t-57 -16.5q-32 0 -54 10t-39 22t-30.5 22t-28.5 10q-21 0 -30 -19.5t-8 -41.5zM394 925v100
h129v-100h-129zM211 925v100h128v-100h-128z" />
    <glyph glyph-name="uni1E4F" unicode="&#x1e4f;" horiz-adv-x="590" 
d="M294 -15q-128 0 -192.5 68.5t-64.5 201.5q0 143 65.5 205.5t191.5 62.5q85 0 142.5 -28.5t87 -87.5t29.5 -152q0 -133 -67 -201.5t-192 -68.5zM294 104q37 0 61.5 17.5t37 51t12.5 82.5q0 56 -12.5 88.5t-37.5 47t-61 14.5q-38 0 -62 -15t-35.5 -47.5t-11.5 -87.5
q0 -76 26.5 -113.5t82.5 -37.5zM187 566h-69q-2 38 12 70.5t40.5 51t60.5 18.5q26 0 46.5 -9.5t38 -22t34 -22.5t33.5 -10t26 14.5t7 44.5h73q2 -43 -13.5 -74t-41.5 -47.5t-57 -16.5q-32 0 -54 10t-39 22t-30.5 22t-28.5 10q-21 0 -30 -19.5t-8 -41.5zM330 771v100h129
v-100h-129zM147 771v100h128v-100h-128z" />
    <glyph glyph-name="uni1E50" unicode="&#x1e50;" horiz-adv-x="737" 
d="M368 -14q-99 0 -172 37.5t-113.5 114.5t-40.5 195q0 171 86 259t240 88q99 0 172.5 -37.5t113.5 -113.5t40 -195q0 -172 -85.5 -260t-240.5 -88zM368 119q51 0 86.5 21t54 68.5t18.5 125.5q0 79 -18.5 126t-54 67.5t-86.5 20.5t-86 -21t-53.5 -68t-18.5 -127
q0 -79 18.5 -125.5t53.5 -67t86 -20.5zM229 733v95h276v-95h-276zM335 869l-97 111h132l47 -111h-82z" />
    <glyph glyph-name="uni1E51" unicode="&#x1e51;" horiz-adv-x="590" 
d="M294 -15q-128 0 -192.5 68.5t-64.5 201.5q0 143 65.5 205.5t191.5 62.5q85 0 142.5 -28.5t87 -87.5t29.5 -152q0 -133 -67 -201.5t-192 -68.5zM294 104q37 0 61.5 17.5t37 51t12.5 82.5q0 56 -12.5 88.5t-37.5 47t-61 14.5q-38 0 -62 -15t-35.5 -47.5t-11.5 -87.5
q0 -76 26.5 -113.5t82.5 -37.5zM154 573v95h276v-95h-276zM258 713l-111 124h146l46 -124h-81z" />
    <glyph glyph-name="uni1E52" unicode="&#x1e52;" horiz-adv-x="737" 
d="M368 -14q-99 0 -172 37.5t-113.5 114.5t-40.5 195q0 171 86 259t240 88q99 0 172.5 -37.5t113.5 -113.5t40 -195q0 -172 -85.5 -260t-240.5 -88zM368 119q51 0 86.5 21t54 68.5t18.5 125.5q0 79 -18.5 126t-54 67.5t-86.5 20.5t-86 -21t-53.5 -68t-18.5 -127
q0 -79 18.5 -125.5t53.5 -67t86 -20.5zM229 733v95h276v-95h-276zM331 872l37 113h156l-118 -113h-75z" />
    <glyph glyph-name="uni1E53" unicode="&#x1e53;" horiz-adv-x="590" 
d="M294 -15q-128 0 -192.5 68.5t-64.5 201.5q0 143 65.5 205.5t191.5 62.5q85 0 142.5 -28.5t87 -87.5t29.5 -152q0 -133 -67 -201.5t-192 -68.5zM294 104q37 0 61.5 17.5t37 51t12.5 82.5q0 56 -12.5 88.5t-37.5 47t-61 14.5q-38 0 -62 -15t-35.5 -47.5t-11.5 -87.5
q0 -76 26.5 -113.5t82.5 -37.5zM154 573v95h276v-95h-276zM249 713l47 124h146l-111 -124h-82z" />
    <glyph glyph-name="uni1E5E" unicode="&#x1e5e;" horiz-adv-x="709" 
d="M71 0v667h325q113 0 177 -52.5t64 -159.5q0 -44 -18 -86.5t-53 -73t-88 -39.5l-10 55l203 -311h-206l-167 291l72 -61h-137v-230h-162zM233 349h136q43 0 68 23t25 76q0 46 -22.5 70t-63.5 24h-143v-193zM213 -144v95h276v-95h-276z" />
    <glyph glyph-name="uni1E5F" unicode="&#x1e5f;" horiz-adv-x="428" 
d="M66 0v453q14 12 50 27.5t82.5 28t93.5 12.5t74 -7t41 -18v-109q-17 4 -43 6t-54 2.5t-53 -0.5t-42 -4v-391h-149zM-12 -144v95h276v-95h-276z" />
    <glyph glyph-name="uni1E60" unicode="&#x1e60;" horiz-adv-x="577" 
d="M295 -14q-51 0 -92 5t-76 15t-68 26v154q46 -37 104 -56t110 -19q46 0 70.5 17.5t24.5 53.5q0 27 -22.5 43.5t-59.5 29t-83 28.5q-29 9 -57 23t-50 35.5t-35 52.5t-13 76q0 41 15 79t46.5 68t80.5 47.5t115 17.5q41 0 72.5 -5t60.5 -14.5t59 -24.5v-156
q-23 19 -51.5 35.5t-59.5 27.5t-65 12q-30 1 -55 -6t-39 -22.5t-14 -39.5q0 -28 17 -44t47 -26.5t67 -22.5q41 -12 75.5 -26.5t60.5 -36.5t40 -54t14 -77q0 -60 -28 -109.5t-81 -78t-130 -28.5zM233 718v100h122v-100h-122z" />
    <glyph glyph-name="uni1E61" unicode="&#x1e61;" horiz-adv-x="482" 
d="M216 -15q-54 0 -92.5 11.5t-72.5 25.5v131q21 -14 47 -28.5t57.5 -23.5t66.5 -9q36 0 50.5 12.5t14.5 30.5q0 17 -15 27.5t-39 17.5t-51 13q-24 5 -48 15.5t-43 28.5t-30.5 44.5t-11.5 64.5q0 49 19 81.5t50 52.5t67 28.5t70 7.5q62 -2 98.5 -13.5t66.5 -29.5v-117
q-34 19 -67.5 35.5t-76.5 16.5q-39 0 -56 -12t-17 -32q0 -19 11.5 -30t30.5 -17.5t42 -12.5q25 -6 51.5 -14.5t50 -24t38 -43t14.5 -72.5q-1 -61 -33 -97.5t-82.5 -52t-109.5 -15.5zM168 565v100h122v-100h-122z" />
    <glyph glyph-name="uni1E62" unicode="&#x1e62;" horiz-adv-x="577" 
d="M295 -14q-51 0 -92 5t-76 15t-68 26v154q46 -37 104 -56t110 -19q46 0 70.5 17.5t24.5 53.5q0 27 -22.5 43.5t-59.5 29t-83 28.5q-29 9 -57 23t-50 35.5t-35 52.5t-13 76q0 41 15 79t46.5 68t80.5 47.5t115 17.5q41 0 72.5 -5t60.5 -14.5t59 -24.5v-156
q-23 19 -51.5 35.5t-59.5 27.5t-65 12q-30 1 -55 -6t-39 -22.5t-14 -39.5q0 -28 17 -44t47 -26.5t67 -22.5q41 -12 75.5 -26.5t60.5 -36.5t40 -54t14 -77q0 -60 -28 -109.5t-81 -78t-130 -28.5zM212 -150v100h108v-100h-108z" />
    <glyph glyph-name="uni1E63" unicode="&#x1e63;" horiz-adv-x="482" 
d="M216 -15q-54 0 -92.5 11.5t-72.5 25.5v131q21 -14 47 -28.5t57.5 -23.5t66.5 -9q36 0 50.5 12.5t14.5 30.5q0 17 -15 27.5t-39 17.5t-51 13q-24 5 -48 15.5t-43 28.5t-30.5 44.5t-11.5 64.5q0 49 19 81.5t50 52.5t67 28.5t70 7.5q62 -2 98.5 -13.5t66.5 -29.5v-117
q-34 19 -67.5 35.5t-76.5 16.5q-39 0 -56 -12t-17 -32q0 -19 11.5 -30t30.5 -17.5t42 -12.5q25 -6 51.5 -14.5t50 -24t38 -43t14.5 -72.5q-1 -61 -33 -97.5t-82.5 -52t-109.5 -15.5zM169 -150v100h108v-100h-108z" />
    <glyph glyph-name="uni1E64" unicode="&#x1e64;" horiz-adv-x="577" 
d="M295 -14q-51 0 -92 5t-76 15t-68 26v154q46 -37 104 -56t110 -19q46 0 70.5 17.5t24.5 53.5q0 27 -22.5 43.5t-59.5 29t-83 28.5q-29 9 -57 23t-50 35.5t-35 52.5t-13 76q0 41 15 79t46.5 68t80.5 47.5t115 17.5q41 0 72.5 -5t60.5 -14.5t59 -24.5v-156
q-23 19 -51.5 35.5t-59.5 27.5t-65 12q-30 1 -55 -6t-39 -22.5t-14 -39.5q0 -28 17 -44t47 -26.5t67 -22.5q41 -12 75.5 -26.5t60.5 -36.5t40 -54t14 -77q0 -60 -28 -109.5t-81 -78t-130 -28.5zM305 740l37 113h156l-118 -113h-75zM150 743v100h122v-100h-122z" />
    <glyph glyph-name="uni1E65" unicode="&#x1e65;" horiz-adv-x="482" 
d="M216 -15q-54 0 -92.5 11.5t-72.5 25.5v131q21 -14 47 -28.5t57.5 -23.5t66.5 -9q36 0 50.5 12.5t14.5 30.5q0 17 -15 27.5t-39 17.5t-51 13q-24 5 -48 15.5t-43 28.5t-30.5 44.5t-11.5 64.5q0 49 19 81.5t50 52.5t67 28.5t70 7.5q62 -2 98.5 -13.5t66.5 -29.5v-117
q-34 19 -67.5 35.5t-76.5 16.5q-39 0 -56 -12t-17 -32q0 -19 11.5 -30t30.5 -17.5t42 -12.5q25 -6 51.5 -14.5t50 -24t38 -43t14.5 -72.5q-1 -61 -33 -97.5t-82.5 -52t-109.5 -15.5zM192 565l47 124h146l-111 -124h-82zM201 741v100h122v-100h-122z" />
    <glyph glyph-name="uni1E66" unicode="&#x1e66;" horiz-adv-x="577" 
d="M295 -14q-51 0 -92 5t-76 15t-68 26v154q46 -37 104 -56t110 -19q46 0 70.5 17.5t24.5 53.5q0 27 -22.5 43.5t-59.5 29t-83 28.5q-29 9 -57 23t-50 35.5t-35 52.5t-13 76q0 41 15 79t46.5 68t80.5 47.5t115 17.5q41 0 72.5 -5t60.5 -14.5t59 -24.5v-156
q-23 19 -51.5 35.5t-59.5 27.5t-65 12q-30 1 -55 -6t-39 -22.5t-14 -39.5q0 -28 17 -44t47 -26.5t67 -22.5q41 -12 75.5 -26.5t60.5 -36.5t40 -54t14 -77q0 -60 -28 -109.5t-81 -78t-130 -28.5zM242 722l-80 121h95l43 -58l43 58h95l-73 -121h-123zM236 880v100h122v-100
h-122z" />
    <glyph glyph-name="uni1E67" unicode="&#x1e67;" horiz-adv-x="482" 
d="M216 -15q-54 0 -92.5 11.5t-72.5 25.5v131q21 -14 47 -28.5t57.5 -23.5t66.5 -9q36 0 50.5 12.5t14.5 30.5q0 17 -15 27.5t-39 17.5t-51 13q-24 5 -48 15.5t-43 28.5t-30.5 44.5t-11.5 64.5q0 49 19 81.5t50 52.5t67 28.5t70 7.5q62 -2 98.5 -13.5t66.5 -29.5v-117
q-34 19 -67.5 35.5t-76.5 16.5q-39 0 -56 -12t-17 -32q0 -19 11.5 -30t30.5 -17.5t42 -12.5q25 -6 51.5 -14.5t50 -24t38 -43t14.5 -72.5q-1 -61 -33 -97.5t-82.5 -52t-109.5 -15.5zM177 578l-80 121h95l43 -58l43 58h95l-73 -121h-123zM168 746v100h122v-100h-122z" />
    <glyph glyph-name="uni1E68" unicode="&#x1e68;" horiz-adv-x="577" 
d="M295 -14q-51 0 -92 5t-76 15t-68 26v154q46 -37 104 -56t110 -19q46 0 70.5 17.5t24.5 53.5q0 27 -22.5 43.5t-59.5 29t-83 28.5q-29 9 -57 23t-50 35.5t-35 52.5t-13 76q0 41 15 79t46.5 68t80.5 47.5t115 17.5q41 0 72.5 -5t60.5 -14.5t59 -24.5v-156
q-23 19 -51.5 35.5t-59.5 27.5t-65 12q-30 1 -55 -6t-39 -22.5t-14 -39.5q0 -28 17 -44t47 -26.5t67 -22.5q41 -12 75.5 -26.5t60.5 -36.5t40 -54t14 -77q0 -60 -28 -109.5t-81 -78t-130 -28.5zM212 -150v100h108v-100h-108zM233 718v100h122v-100h-122z" />
    <glyph glyph-name="uni1E69" unicode="&#x1e69;" horiz-adv-x="482" 
d="M216 -15q-54 0 -92.5 11.5t-72.5 25.5v131q21 -14 47 -28.5t57.5 -23.5t66.5 -9q36 0 50.5 12.5t14.5 30.5q0 17 -15 27.5t-39 17.5t-51 13q-24 5 -48 15.5t-43 28.5t-30.5 44.5t-11.5 64.5q0 49 19 81.5t50 52.5t67 28.5t70 7.5q62 -2 98.5 -13.5t66.5 -29.5v-117
q-34 19 -67.5 35.5t-76.5 16.5q-39 0 -56 -12t-17 -32q0 -19 11.5 -30t30.5 -17.5t42 -12.5q25 -6 51.5 -14.5t50 -24t38 -43t14.5 -72.5q-1 -61 -33 -97.5t-82.5 -52t-109.5 -15.5zM169 -150v100h108v-100h-108zM168 565v100h122v-100h-122z" />
    <glyph glyph-name="uni1E6D" unicode="&#x1e6d;" horiz-adv-x="413" 
d="M273 -20q-88 0 -131 41.5t-43 117.5v253h-74v114h74v139h156v-139h111v-114h-111v-234q0 -26 11 -38.5t37 -12.5q15 0 33 6t30 15v-128q-21 -11 -45.5 -15.5t-47.5 -4.5zM150 -150v100h108v-100h-108z" />
    <glyph glyph-name="uni1E6E" unicode="&#x1e6e;" horiz-adv-x="587" 
d="M211 0v542h-187v125h539v-125h-190v-542h-162zM151 -144v95h276v-95h-276z" />
    <glyph glyph-name="uni1E6F" unicode="&#x1e6f;" horiz-adv-x="413" 
d="M273 -20q-88 0 -131 41.5t-43 117.5v253h-74v114h74v139h156v-139h111v-114h-111v-234q0 -26 11 -38.5t37 -12.5q15 0 33 6t30 15v-128q-21 -11 -45.5 -15.5t-47.5 -4.5zM66 -144v95h276v-95h-276z" />
    <glyph glyph-name="uni1E78" unicode="&#x1e78;" horiz-adv-x="726" 
d="M378 -21q-154 0 -230.5 65.5t-76.5 204.5v418h169v-411q0 -77 31 -114t99 -37q62 0 96.5 37t34.5 114v411h154v-418q0 -93 -35.5 -152.5t-97.5 -88.5t-144 -29zM255 727h-69q-2 38 12 70.5t40.5 51t60.5 18.5q26 0 46.5 -9.5t38 -22t34 -22.5t33.5 -10t26 14.5t7 44.5h73
q2 -43 -13.5 -74t-41.5 -47.5t-57 -16.5q-32 0 -54 10t-39 22t-30.5 22t-28.5 10q-21 0 -30 -19.5t-8 -41.5zM323 927l37 113h156l-118 -113h-75z" />
    <glyph glyph-name="uni1E79" unicode="&#x1e79;" horiz-adv-x="601" 
d="M304 -15q-70 0 -124 22t-84 67.5t-30 118.5v313h149v-301q0 -48 21.5 -71.5t68.5 -23.5q48 0 69 23.5t21 71.5v301h140v-313q0 -108 -62 -158t-169 -50zM198 559h-69q-2 38 12 70.5t40.5 51t60.5 18.5q26 0 46.5 -9.5t38 -22t34 -22.5t33.5 -10t26 14.5t7 44.5h73
q2 -43 -13.5 -74t-41.5 -47.5t-57 -16.5q-32 0 -54 10t-39 22t-30.5 22t-28.5 10q-21 0 -30 -19.5t-8 -41.5zM261 757l47 124h146l-111 -124h-82z" />
    <glyph glyph-name="uni1E7A" unicode="&#x1e7a;" horiz-adv-x="726" 
d="M378 -21q-154 0 -230.5 65.5t-76.5 204.5v418h169v-411q0 -77 31 -114t99 -37q62 0 96.5 37t34.5 114v411h154v-418q0 -93 -35.5 -152.5t-97.5 -88.5t-144 -29zM221 719v95h276v-95h-276zM387 842v100h129v-100h-129zM204 842v100h128v-100h-128z" />
    <glyph glyph-name="uni1E7B" unicode="&#x1e7b;" horiz-adv-x="601" 
d="M304 -15q-70 0 -124 22t-84 67.5t-30 118.5v313h149v-301q0 -48 21.5 -71.5t68.5 -23.5q48 0 69 23.5t21 71.5v301h140v-313q0 -108 -62 -158t-169 -50zM166 566v95h276v-95h-276zM342 713v100h129v-100h-129zM159 713v100h128v-100h-128z" />
    <glyph glyph-name="Wgrave" unicode="&#x1e80;" horiz-adv-x="1010" 
d="M212 0l-187 667h177l117 -518h-27l150 518h125l153 -525h-30l118 525h177l-187 -667h-160l-147 480h29l-148 -480h-160zM469 716l-97 111h132l47 -111h-82z" />
    <glyph glyph-name="wgrave" unicode="&#x1e81;" horiz-adv-x="827" 
d="M194 0l-170 506h161l113 -409l-47 -2l107 411h110l105 -399h-37l108 399h158l-168 -506h-135l-100 327l25 -3l-95 -324h-135zM376 551l-111 124h146l46 -124h-81z" />
    <glyph glyph-name="Wacute" unicode="&#x1e82;" horiz-adv-x="1010" 
d="M212 0l-187 667h177l117 -518h-27l150 518h125l153 -525h-30l118 525h177l-187 -667h-160l-147 480h29l-148 -480h-160zM466 719l37 113h156l-118 -113h-75z" />
    <glyph glyph-name="wacute" unicode="&#x1e83;" horiz-adv-x="827" 
d="M194 0l-170 506h161l113 -409l-47 -2l107 411h110l105 -399h-37l108 399h158l-168 -506h-135l-100 327l25 -3l-95 -324h-135zM367 551l47 124h146l-111 -124h-82z" />
    <glyph glyph-name="Wdieresis" unicode="&#x1e84;" horiz-adv-x="1010" 
d="M212 0l-187 667h177l117 -518h-27l150 518h125l153 -525h-30l118 525h177l-187 -667h-160l-147 480h29l-148 -480h-160zM529 703v100h129v-100h-129zM346 703v100h128v-100h-128z" />
    <glyph glyph-name="wdieresis" unicode="&#x1e85;" horiz-adv-x="827" 
d="M194 0l-170 506h161l113 -409l-47 -2l107 411h110l105 -399h-37l108 399h158l-168 -506h-135l-100 327l25 -3l-95 -324h-135zM449 558v100h129v-100h-129zM266 558v100h128v-100h-128z" />
    <glyph glyph-name="uni1E8E" unicode="&#x1e8e;" horiz-adv-x="692" 
d="M274 0v288l-253 379h199l190 -319h-75l173 319h161l-256 -419l23 86v-334h-162zM300 697v100h122v-100h-122z" />
    <glyph glyph-name="uni1E8F" unicode="&#x1e8f;" horiz-adv-x="593" 
d="M176 -196q-25 0 -49 5t-41 13v121q16 -6 30 -8.5t29 -2.5q25 0 43.5 11.5t30.5 39t19 74.5l3 -85l-217 534h171l115 -355h-15l114 355h160l-199 -514q-27 -70 -58.5 -111t-65.5 -59t-70 -18zM227 551v100h122v-100h-122z" />
    <glyph glyph-name="uni1E97" unicode="&#x1e97;" horiz-adv-x="413" 
d="M273 -20q-88 0 -131 41.5t-43 117.5v253h-74v114h74v139h156v-139h111v-114h-111v-234q0 -26 11 -38.5t37 -12.5q15 0 33 6t30 15v-128q-21 -11 -45.5 -15.5t-47.5 -4.5zM204 698v100h129v-100h-129zM21 698v100h128v-100h-128z" />
    <glyph glyph-name="uni1E9E" unicode="&#x1e9e;" horiz-adv-x="724" 
d="M71 0v440q0 78 34 131.5t97 81.5t151 28q79 0 136.5 -23.5t98.5 -61t67 -82.5v-19l-196 -157l12 102q62 -19 108 -48.5t72.5 -76t26.5 -117.5q0 -43 -17 -82t-48 -70t-74 -49t-96 -18q-33 0 -72.5 11.5t-69.5 31.5v146q26 -29 56 -46.5t64 -17.5q39 0 64.5 22t25.5 69
q0 45 -24 78.5t-62 57t-78 38.5v22l169 134l22 -61q-17 24 -40 47.5t-55 38.5t-77 15q-38 0 -68.5 -15t-48 -46.5t-17.5 -78.5l-1 -425h-160z" />
    <glyph glyph-name="uni1EA0" unicode="&#x1ea0;" horiz-adv-x="691" 
d="M13 0l252 667h177l236 -667h-166l-213 629l79 7l-212 -636h-153zM155 144l33 119h303l15 -119h-351zM292 -150v100h108v-100h-108z" />
    <glyph glyph-name="uni1EA1" unicode="&#x1ea1;" horiz-adv-x="546" 
d="M228 -150v100h108v-100h-108zM261 -15q-46 0 -86.5 8.5t-71 28t-47.5 53t-17 83.5q0 47 19.5 82t59.5 54t101 19q34 0 66 -7t57.5 -19t40.5 -26l6 -72q-20 12 -48 19t-60 7q-49 0 -71.5 -14.5t-22.5 -45.5q0 -19 11 -34t29.5 -23t38.5 -8q51 0 71.5 7t20.5 28v186
q0 46 -29.5 66.5t-83.5 20.5q-44 0 -88.5 -15.5t-72.5 -37.5v132q26 16 80.5 30t122.5 14q24 0 53 -4t58 -14.5t53.5 -30.5t39.5 -51t15 -77l-1 -239q0 -43 -29 -69.5t-83.5 -38.5t-131.5 -12z" />
    <glyph glyph-name="uni1EA2" unicode="&#x1ea2;" horiz-adv-x="691" 
d="M13 0l252 667h177l236 -667h-166l-213 629l79 7l-212 -636h-153zM155 144l33 119h303l15 -119h-351zM298 704v57q18 1 27.5 8t9.5 16q0 13 -11.5 18.5t-30.5 5.5q-7 0 -14 -1t-16 -2v58q7 2 22.5 3.5t35.5 1.5q31 0 56 -8t40.5 -25t15.5 -45t-15 -45t-42 -18v-24h-78z
" />
    <glyph glyph-name="uni1EA3" unicode="&#x1ea3;" horiz-adv-x="572" 
d="M261 -15q-46 0 -86.5 8.5t-71 28t-47.5 53t-17 83.5q0 47 19.5 82t59.5 54t101 19q34 0 66 -7t57.5 -19t40.5 -26l6 -72q-20 12 -48 19t-60 7q-49 0 -71.5 -14.5t-22.5 -45.5q0 -19 11 -34t29.5 -23t38.5 -8q51 0 71.5 7t20.5 28v186q0 46 -29.5 66.5t-83.5 20.5
q-44 0 -88.5 -15.5t-72.5 -37.5v132q26 16 80.5 30t122.5 14q24 0 53 -4t58 -14.5t53.5 -30.5t39.5 -51t15 -77l-1 -239q0 -43 -29 -69.5t-83.5 -38.5t-131.5 -12zM251 563v57q18 1 27.5 8t9.5 16q0 13 -11.5 18.5t-30.5 5.5q-7 0 -14 -1t-16 -2v58q7 2 22.5 3.5t35.5 1.5
q31 0 56 -8t40.5 -25t15.5 -45t-15 -45t-42 -18v-24h-78z" />
    <glyph glyph-name="uni1EA4" unicode="&#x1ea4;" horiz-adv-x="691" 
d="M13 0l252 667h177l236 -667h-166l-213 629l79 7l-212 -636h-153zM155 144l33 119h303l15 -119h-351zM199 711l87 121h122l87 -121h-99l-49 59l-49 -59h-99zM466 784l37 113h156l-118 -113h-75z" />
    <glyph glyph-name="uni1EA5" unicode="&#x1ea5;" horiz-adv-x="572" 
d="M261 -15q-46 0 -86.5 8.5t-71 28t-47.5 53t-17 83.5q0 47 19.5 82t59.5 54t101 19q34 0 66 -7t57.5 -19t40.5 -26l6 -72q-20 12 -48 19t-60 7q-49 0 -71.5 -14.5t-22.5 -45.5q0 -19 11 -34t29.5 -23t38.5 -8q51 0 71.5 7t20.5 28v186q0 46 -29.5 66.5t-83.5 20.5
q-44 0 -88.5 -15.5t-72.5 -37.5v132q26 16 80.5 30t122.5 14q24 0 53 -4t58 -14.5t53.5 -30.5t39.5 -51t15 -77l-1 -239q0 -43 -29 -69.5t-83.5 -38.5t-131.5 -12zM137 564l87 121h122l87 -121h-99l-49 59l-49 -59h-99zM404 637l37 113h156l-118 -113h-75z" />
    <glyph glyph-name="uni1EA6" unicode="&#x1ea6;" horiz-adv-x="691" 
d="M13 0l252 667h177l236 -667h-166l-213 629l79 7l-212 -636h-153zM155 144l33 119h303l15 -119h-351zM205 711l87 121h122l87 -121h-99l-49 59l-49 -59h-99zM137 783l-97 111h132l47 -111h-82z" />
    <glyph glyph-name="uni1EA7" unicode="&#x1ea7;" horiz-adv-x="572" 
d="M261 -15q-46 0 -86.5 8.5t-71 28t-47.5 53t-17 83.5q0 47 19.5 82t59.5 54t101 19q34 0 66 -7t57.5 -19t40.5 -26l6 -72q-20 12 -48 19t-60 7q-49 0 -71.5 -14.5t-22.5 -45.5q0 -19 11 -34t29.5 -23t38.5 -8q51 0 71.5 7t20.5 28v186q0 46 -29.5 66.5t-83.5 20.5
q-44 0 -88.5 -15.5t-72.5 -37.5v132q26 16 80.5 30t122.5 14q24 0 53 -4t58 -14.5t53.5 -30.5t39.5 -51t15 -77l-1 -239q0 -43 -29 -69.5t-83.5 -38.5t-131.5 -12zM143 564l87 121h122l87 -121h-99l-49 59l-49 -59h-99zM75 636l-97 111h132l47 -111h-82z" />
    <glyph glyph-name="uni1EA8" unicode="&#x1ea8;" horiz-adv-x="691" 
d="M13 0l252 667h177l236 -667h-166l-213 629l79 7l-212 -636h-153zM155 144l33 119h303l15 -119h-351zM189 716l87 121h122l87 -121h-99l-49 59l-49 -59h-99zM465 777v57q18 1 27.5 8t9.5 16q0 13 -11.5 18.5t-30.5 5.5q-7 0 -14 -1t-16 -2v58q7 2 22.5 3.5t35.5 1.5
q31 0 56 -8t40.5 -25t15.5 -45t-15 -45t-42 -18v-24h-78z" />
    <glyph glyph-name="uni1EA9" unicode="&#x1ea9;" horiz-adv-x="572" 
d="M261 -15q-46 0 -86.5 8.5t-71 28t-47.5 53t-17 83.5q0 47 19.5 82t59.5 54t101 19q34 0 66 -7t57.5 -19t40.5 -26l6 -72q-20 12 -48 19t-60 7q-49 0 -71.5 -14.5t-22.5 -45.5q0 -19 11 -34t29.5 -23t38.5 -8q51 0 71.5 7t20.5 28v186q0 46 -29.5 66.5t-83.5 20.5
q-44 0 -88.5 -15.5t-72.5 -37.5v132q26 16 80.5 30t122.5 14q24 0 53 -4t58 -14.5t53.5 -30.5t39.5 -51t15 -77l-1 -239q0 -43 -29 -69.5t-83.5 -38.5t-131.5 -12zM127 569l87 121h122l87 -121h-99l-49 59l-49 -59h-99zM403 630v57q18 1 27.5 8t9.5 16q0 13 -11.5 18.5
t-30.5 5.5q-7 0 -14 -1t-16 -2v58q7 2 22.5 3.5t35.5 1.5q31 0 56 -8t40.5 -25t15.5 -45t-15 -45t-42 -18v-24h-78z" />
    <glyph glyph-name="uni1EAA" unicode="&#x1eaa;" horiz-adv-x="691" 
d="M13 0l252 667h177l236 -667h-166l-213 629l79 7l-212 -636h-153zM155 144l33 119h303l15 -119h-351zM205 699l87 121h122l87 -121h-99l-49 59l-49 -59h-99zM236 864h-69q-2 38 12 70.5t40.5 51t60.5 18.5q26 0 46.5 -9.5t38 -22t34 -22.5t33.5 -10t26 14.5t7 44.5h73
q2 -43 -13.5 -74t-41.5 -47.5t-57 -16.5q-32 0 -54 10t-39 22t-30.5 22t-28.5 10q-21 0 -30 -19.5t-8 -41.5z" />
    <glyph glyph-name="uni1EAB" unicode="&#x1eab;" horiz-adv-x="572" 
d="M261 -15q-46 0 -86.5 8.5t-71 28t-47.5 53t-17 83.5q0 47 19.5 82t59.5 54t101 19q34 0 66 -7t57.5 -19t40.5 -26l6 -72q-20 12 -48 19t-60 7q-49 0 -71.5 -14.5t-22.5 -45.5q0 -19 11 -34t29.5 -23t38.5 -8q51 0 71.5 7t20.5 28v186q0 46 -29.5 66.5t-83.5 20.5
q-44 0 -88.5 -15.5t-72.5 -37.5v132q26 16 80.5 30t122.5 14q24 0 53 -4t58 -14.5t53.5 -30.5t39.5 -51t15 -77l-1 -239q0 -43 -29 -69.5t-83.5 -38.5t-131.5 -12zM143 552l87 121h122l87 -121h-99l-49 59l-49 -59h-99zM174 717h-69q-2 38 12 70.5t40.5 51t60.5 18.5
q26 0 46.5 -9.5t38 -22t34 -22.5t33.5 -10t26 14.5t7 44.5h73q2 -43 -13.5 -74t-41.5 -47.5t-57 -16.5q-32 0 -54 10t-39 22t-30.5 22t-28.5 10q-21 0 -30 -19.5t-8 -41.5z" />
    <glyph glyph-name="uni1EAC" unicode="&#x1eac;" horiz-adv-x="691" 
d="M13 0l252 667h177l236 -667h-166l-213 629l79 7l-212 -636h-153zM155 144l33 119h303l15 -119h-351zM292 -150v100h108v-100h-108zM198 710l87 121h122l87 -121h-99l-49 59l-49 -59h-99z" />
    <glyph glyph-name="uni1EAD" unicode="&#x1ead;" horiz-adv-x="546" 
d="M228 -150v100h108v-100h-108zM261 -15q-46 0 -86.5 8.5t-71 28t-47.5 53t-17 83.5q0 47 19.5 82t59.5 54t101 19q34 0 66 -7t57.5 -19t40.5 -26l6 -72q-20 12 -48 19t-60 7q-49 0 -71.5 -14.5t-22.5 -45.5q0 -19 11 -34t29.5 -23t38.5 -8q51 0 71.5 7t20.5 28v186
q0 46 -29.5 66.5t-83.5 20.5q-44 0 -88.5 -15.5t-72.5 -37.5v132q26 16 80.5 30t122.5 14q24 0 53 -4t58 -14.5t53.5 -30.5t39.5 -51t15 -77l-1 -239q0 -43 -29 -69.5t-83.5 -38.5t-131.5 -12zM143 578l87 121h122l87 -121h-99l-49 59l-49 -59h-99z" />
    <glyph glyph-name="uni1EAE" unicode="&#x1eae;" horiz-adv-x="691" 
d="M13 0l252 667h177l236 -667h-166l-213 629l79 7l-212 -636h-153zM155 144l33 119h303l15 -119h-351zM347 706q-48 0 -78.5 17t-47.5 47.5t-25 68.5h83q7 -20 23.5 -39t44.5 -19q29 0 44.5 19t22.5 39h84q-5 -38 -22 -68.5t-49 -47.5t-80 -17zM302 866l37 113h156
l-118 -113h-75z" />
    <glyph glyph-name="uni1EAF" unicode="&#x1eaf;" horiz-adv-x="572" 
d="M261 -15q-46 0 -86.5 8.5t-71 28t-47.5 53t-17 83.5q0 47 19.5 82t59.5 54t101 19q34 0 66 -7t57.5 -19t40.5 -26l6 -72q-20 12 -48 19t-60 7q-49 0 -71.5 -14.5t-22.5 -45.5q0 -19 11 -34t29.5 -23t38.5 -8q51 0 71.5 7t20.5 28v186q0 46 -29.5 66.5t-83.5 20.5
q-44 0 -88.5 -15.5t-72.5 -37.5v132q26 16 80.5 30t122.5 14q24 0 53 -4t58 -14.5t53.5 -30.5t39.5 -51t15 -77l-1 -239q0 -43 -29 -69.5t-83.5 -38.5t-131.5 -12zM284 559q-48 0 -78.5 17t-47.5 47.5t-25 68.5h83q7 -20 23.5 -39t44.5 -19q29 0 44.5 19t22.5 39h84
q-5 -38 -22 -68.5t-49 -47.5t-80 -17zM240 719l37 113h156l-118 -113h-75z" />
    <glyph glyph-name="uni1EB0" unicode="&#x1eb0;" horiz-adv-x="691" 
d="M13 0l252 667h177l236 -667h-166l-213 629l79 7l-212 -636h-153zM155 144l33 119h303l15 -119h-351zM347 706q-48 0 -78.5 17t-47.5 47.5t-25 68.5h83q7 -20 23.5 -39t44.5 -19q29 0 44.5 19t22.5 39h84q-5 -38 -22 -68.5t-49 -47.5t-80 -17zM308 855l-111 124h146
l46 -124h-81z" />
    <glyph glyph-name="uni1EB1" unicode="&#x1eb1;" horiz-adv-x="572" 
d="M261 -15q-46 0 -86.5 8.5t-71 28t-47.5 53t-17 83.5q0 47 19.5 82t59.5 54t101 19q34 0 66 -7t57.5 -19t40.5 -26l6 -72q-20 12 -48 19t-60 7q-49 0 -71.5 -14.5t-22.5 -45.5q0 -19 11 -34t29.5 -23t38.5 -8q51 0 71.5 7t20.5 28v186q0 46 -29.5 66.5t-83.5 20.5
q-44 0 -88.5 -15.5t-72.5 -37.5v132q26 16 80.5 30t122.5 14q24 0 53 -4t58 -14.5t53.5 -30.5t39.5 -51t15 -77l-1 -239q0 -43 -29 -69.5t-83.5 -38.5t-131.5 -12zM284 559q-48 0 -78.5 17t-47.5 47.5t-25 68.5h83q7 -20 23.5 -39t44.5 -19q29 0 44.5 19t22.5 39h84
q-5 -38 -22 -68.5t-49 -47.5t-80 -17zM246 708l-111 124h146l46 -124h-81z" />
    <glyph glyph-name="uni1EB2" unicode="&#x1eb2;" horiz-adv-x="691" 
d="M13 0l252 667h177l236 -667h-166l-213 629l79 7l-212 -636h-153zM155 144l33 119h303l15 -119h-351zM343 706q-48 0 -78.5 17t-47.5 47.5t-25 68.5h83q7 -20 23.5 -39t44.5 -19q29 0 44.5 19t22.5 39h84q-5 -38 -22 -68.5t-49 -47.5t-80 -17zM309 855v57q18 1 27.5 8
t9.5 16q0 13 -11.5 18.5t-30.5 5.5q-7 0 -14 -1t-16 -2v58q7 2 22.5 3.5t35.5 1.5q31 0 56 -8t40.5 -25t15.5 -45t-15 -45t-42 -18v-24h-78z" />
    <glyph glyph-name="uni1EB3" unicode="&#x1eb3;" horiz-adv-x="572" 
d="M261 -15q-46 0 -86.5 8.5t-71 28t-47.5 53t-17 83.5q0 47 19.5 82t59.5 54t101 19q34 0 66 -7t57.5 -19t40.5 -26l6 -72q-20 12 -48 19t-60 7q-49 0 -71.5 -14.5t-22.5 -45.5q0 -19 11 -34t29.5 -23t38.5 -8q51 0 71.5 7t20.5 28v186q0 46 -29.5 66.5t-83.5 20.5
q-44 0 -88.5 -15.5t-72.5 -37.5v132q26 16 80.5 30t122.5 14q24 0 53 -4t58 -14.5t53.5 -30.5t39.5 -51t15 -77l-1 -239q0 -43 -29 -69.5t-83.5 -38.5t-131.5 -12zM280 559q-48 0 -78.5 17t-47.5 47.5t-25 68.5h83q7 -20 23.5 -39t44.5 -19q29 0 44.5 19t22.5 39h84
q-5 -38 -22 -68.5t-49 -47.5t-80 -17zM247 708v57q18 1 27.5 8t9.5 16q0 13 -11.5 18.5t-30.5 5.5q-7 0 -14 -1t-16 -2v58q7 2 22.5 3.5t35.5 1.5q31 0 56 -8t40.5 -25t15.5 -45t-15 -45t-42 -18v-24h-78z" />
    <glyph glyph-name="uni1EB4" unicode="&#x1eb4;" horiz-adv-x="691" 
d="M13 0l252 667h177l236 -667h-166l-213 629l79 7l-212 -636h-153zM155 144l33 119h303l15 -119h-351zM347 706q-48 0 -78.5 17t-47.5 47.5t-25 68.5h83q7 -20 23.5 -39t44.5 -19q29 0 44.5 19t22.5 39h84q-5 -38 -22 -68.5t-49 -47.5t-80 -17zM247 890h-69q-2 38 12 70.5
t40.5 51t60.5 18.5q26 0 46.5 -9.5t38 -22t34 -22.5t33.5 -10t26 14.5t7 44.5h73q2 -43 -13.5 -74t-41.5 -47.5t-57 -16.5q-32 0 -54 10t-39 22t-30.5 22t-28.5 10q-21 0 -30 -19.5t-8 -41.5z" />
    <glyph glyph-name="uni1EB5" unicode="&#x1eb5;" horiz-adv-x="572" 
d="M261 -15q-46 0 -86.5 8.5t-71 28t-47.5 53t-17 83.5q0 47 19.5 82t59.5 54t101 19q34 0 66 -7t57.5 -19t40.5 -26l6 -72q-20 12 -48 19t-60 7q-49 0 -71.5 -14.5t-22.5 -45.5q0 -19 11 -34t29.5 -23t38.5 -8q51 0 71.5 7t20.5 28v186q0 46 -29.5 66.5t-83.5 20.5
q-44 0 -88.5 -15.5t-72.5 -37.5v132q26 16 80.5 30t122.5 14q24 0 53 -4t58 -14.5t53.5 -30.5t39.5 -51t15 -77l-1 -239q0 -43 -29 -69.5t-83.5 -38.5t-131.5 -12zM284 559q-48 0 -78.5 17t-47.5 47.5t-25 68.5h83q7 -20 23.5 -39t44.5 -19q29 0 44.5 19t22.5 39h84
q-5 -38 -22 -68.5t-49 -47.5t-80 -17zM185 743h-69q-2 38 12 70.5t40.5 51t60.5 18.5q26 0 46.5 -9.5t38 -22t34 -22.5t33.5 -10t26 14.5t7 44.5h73q2 -43 -13.5 -74t-41.5 -47.5t-57 -16.5q-32 0 -54 10t-39 22t-30.5 22t-28.5 10q-21 0 -30 -19.5t-8 -41.5z" />
    <glyph glyph-name="uni1EB6" unicode="&#x1eb6;" horiz-adv-x="691" 
d="M13 0l252 667h177l236 -667h-166l-213 629l79 7l-212 -636h-153zM155 144l33 119h303l15 -119h-351zM292 -150v100h108v-100h-108zM347 701q-48 0 -78.5 17t-47.5 47.5t-25 68.5h83q7 -20 23.5 -39t44.5 -19q29 0 44.5 19t22.5 39h84q-5 -38 -22 -68.5t-49 -47.5t-80 -17
z" />
    <glyph glyph-name="uni1EB7" unicode="&#x1eb7;" horiz-adv-x="546" 
d="M227 -150v100h108v-100h-108zM278 538q-61 0 -92 28.5t-31 77.5h78q1 -20 11 -31t34 -11q25 0 35 11t11 31h78q0 -49 -31 -77.5t-93 -28.5zM261 -15q-46 0 -86.5 8.5t-71 28t-47.5 53t-17 83.5q0 47 19.5 82t59.5 54t101 19q34 0 66 -7t57.5 -19t40.5 -26l6 -72
q-20 12 -48 19t-60 7q-49 0 -71.5 -14.5t-22.5 -45.5q0 -19 11 -34t29.5 -23t38.5 -8q51 0 71.5 7t20.5 28v186q0 46 -29.5 66.5t-83.5 20.5q-44 0 -88.5 -15.5t-72.5 -37.5v132q26 16 80.5 30t122.5 14q24 0 53 -4t58 -14.5t53.5 -30.5t39.5 -51t15 -77l-1 -239
q0 -43 -29 -69.5t-83.5 -38.5t-131.5 -12z" />
    <glyph glyph-name="uni1EB8" unicode="&#x1eb8;" horiz-adv-x="593" 
d="M71 0v667h457v-125h-295v-145h256v-126h-256v-146h295v-125h-457zM242 -150v100h108v-100h-108z" />
    <glyph glyph-name="uni1EB9" unicode="&#x1eb9;" horiz-adv-x="562" 
d="M295 -15q-76 0 -134.5 31.5t-91 90t-32.5 139.5q0 132 65.5 204.5t187.5 72.5q84 0 135.5 -36t75.5 -105t23 -168h-385l-16 95h278l-22 -47q-1 81 -23 114t-72 33q-28 0 -50.5 -14t-35 -46.5t-12.5 -89.5q0 -72 34.5 -111t110.5 -39q28 0 55.5 6.5t51.5 15.5t41 16v-128
q-36 -15 -80.5 -24.5t-103.5 -9.5zM242 -150v100h108v-100h-108z" />
    <glyph glyph-name="uni1EBA" unicode="&#x1eba;" horiz-adv-x="593" 
d="M71 0v667h457v-125h-295v-145h256v-126h-256v-146h295v-125h-457zM255 704v57q18 1 27.5 8t9.5 16q0 13 -11.5 18.5t-30.5 5.5q-7 0 -14 -1t-16 -2v58q7 2 22.5 3.5t35.5 1.5q31 0 56 -8t40.5 -25t15.5 -45t-15 -45t-42 -18v-24h-78z" />
    <glyph glyph-name="uni1EBB" unicode="&#x1ebb;" horiz-adv-x="562" 
d="M295 -15q-76 0 -134.5 31.5t-91 90t-32.5 139.5q0 132 65.5 204.5t187.5 72.5q84 0 135.5 -36t75.5 -105t23 -168h-385l-16 95h278l-22 -47q-1 81 -23 114t-72 33q-28 0 -50.5 -14t-35 -46.5t-12.5 -89.5q0 -72 34.5 -111t110.5 -39q28 0 55.5 6.5t51.5 15.5t41 16v-128
q-36 -15 -80.5 -24.5t-103.5 -9.5zM256 556v57q18 1 27.5 8t9.5 16q0 13 -11.5 18.5t-30.5 5.5q-7 0 -14 -1t-16 -2v58q7 2 22.5 3.5t35.5 1.5q31 0 56 -8t40.5 -25t15.5 -45t-15 -45t-42 -18v-24h-78z" />
    <glyph glyph-name="uni1EBC" unicode="&#x1ebc;" horiz-adv-x="593" 
d="M71 0v667h457v-125h-295v-145h256v-126h-256v-146h295v-125h-457zM196 720h-69q-2 38 12 70.5t40.5 51t60.5 18.5q26 0 46.5 -9.5t38 -22t34 -22.5t33.5 -10t26 14.5t7 44.5h73q2 -43 -13.5 -74t-41.5 -47.5t-57 -16.5q-32 0 -54 10t-39 22t-30.5 22t-28.5 10
q-21 0 -30 -19.5t-8 -41.5z" />
    <glyph glyph-name="uni1EBD" unicode="&#x1ebd;" horiz-adv-x="562" 
d="M295 -15q-76 0 -134.5 31.5t-91 90t-32.5 139.5q0 132 65.5 204.5t187.5 72.5q84 0 135.5 -36t75.5 -105t23 -168h-385l-16 95h278l-22 -47q-1 81 -23 114t-72 33q-28 0 -50.5 -14t-35 -46.5t-12.5 -89.5q0 -72 34.5 -111t110.5 -39q28 0 55.5 6.5t51.5 15.5t41 16v-128
q-36 -15 -80.5 -24.5t-103.5 -9.5zM179 559h-69q-2 38 12 70.5t40.5 51t60.5 18.5q26 0 46.5 -9.5t38 -22t34 -22.5t33.5 -10t26 14.5t7 44.5h73q2 -43 -13.5 -74t-41.5 -47.5t-57 -16.5q-32 0 -54 10t-39 22t-30.5 22t-28.5 10q-21 0 -30 -19.5t-8 -41.5z" />
    <glyph glyph-name="uni1EBE" unicode="&#x1ebe;" horiz-adv-x="593" 
d="M71 0v667h457v-125h-295v-145h256v-126h-256v-146h295v-125h-457zM157 711l87 121h122l87 -121h-99l-49 59l-49 -59h-99zM423 784l37 113h156l-118 -113h-75z" />
    <glyph glyph-name="uni1EBF" unicode="&#x1ebf;" horiz-adv-x="562" 
d="M295 -15q-76 0 -134.5 31.5t-91 90t-32.5 139.5q0 132 65.5 204.5t187.5 72.5q84 0 135.5 -36t75.5 -105t23 -168h-385l-16 95h278l-22 -47q-1 81 -23 114t-72 33q-28 0 -50.5 -14t-35 -46.5t-12.5 -89.5q0 -72 34.5 -111t110.5 -39q28 0 55.5 6.5t51.5 15.5t41 16v-128
q-36 -15 -80.5 -24.5t-103.5 -9.5zM142 557l87 121h122l87 -121h-99l-49 59l-49 -59h-99zM408 630l37 113h156l-118 -113h-75z" />
    <glyph glyph-name="uni1EC0" unicode="&#x1ec0;" horiz-adv-x="593" 
d="M71 0v667h457v-125h-295v-145h256v-126h-256v-146h295v-125h-457zM162 711l87 121h122l87 -121h-99l-49 59l-49 -59h-99zM94 783l-97 111h132l47 -111h-82z" />
    <glyph glyph-name="uni1EC1" unicode="&#x1ec1;" horiz-adv-x="562" 
d="M295 -15q-76 0 -134.5 31.5t-91 90t-32.5 139.5q0 132 65.5 204.5t187.5 72.5q84 0 135.5 -36t75.5 -105t23 -168h-385l-16 95h278l-22 -47q-1 81 -23 114t-72 33q-28 0 -50.5 -14t-35 -46.5t-12.5 -89.5q0 -72 34.5 -111t110.5 -39q28 0 55.5 6.5t51.5 15.5t41 16v-128
q-36 -15 -80.5 -24.5t-103.5 -9.5zM147 557l87 121h122l87 -121h-99l-49 59l-49 -59h-99zM79 629l-97 111h132l47 -111h-82z" />
    <glyph glyph-name="uni1EC2" unicode="&#x1ec2;" horiz-adv-x="593" 
d="M71 0v667h457v-125h-295v-145h256v-126h-256v-146h295v-125h-457zM146 716l87 121h122l87 -121h-99l-49 59l-49 -59h-99zM422 777v57q18 1 27.5 8t9.5 16q0 13 -11.5 18.5t-30.5 5.5q-7 0 -14 -1t-16 -2v58q7 2 22.5 3.5t35.5 1.5q31 0 56 -8t40.5 -25t15.5 -45t-15 -45
t-42 -18v-24h-78z" />
    <glyph glyph-name="uni1EC3" unicode="&#x1ec3;" horiz-adv-x="562" 
d="M295 -15q-76 0 -134.5 31.5t-91 90t-32.5 139.5q0 132 65.5 204.5t187.5 72.5q84 0 135.5 -36t75.5 -105t23 -168h-385l-16 95h278l-22 -47q-1 81 -23 114t-72 33q-28 0 -50.5 -14t-35 -46.5t-12.5 -89.5q0 -72 34.5 -111t110.5 -39q28 0 55.5 6.5t51.5 15.5t41 16v-128
q-36 -15 -80.5 -24.5t-103.5 -9.5zM131 562l87 121h122l87 -121h-99l-49 59l-49 -59h-99zM407 623v57q18 1 27.5 8t9.5 16q0 13 -11.5 18.5t-30.5 5.5q-7 0 -14 -1t-16 -2v58q7 2 22.5 3.5t35.5 1.5q31 0 56 -8t40.5 -25t15.5 -45t-15 -45t-42 -18v-24h-78z" />
    <glyph glyph-name="uni1EC4" unicode="&#x1ec4;" horiz-adv-x="593" 
d="M71 0v667h457v-125h-295v-145h256v-126h-256v-146h295v-125h-457zM162 699l87 121h122l87 -121h-99l-49 59l-49 -59h-99zM194 864h-69q-2 38 12 70.5t40.5 51t60.5 18.5q26 0 46.5 -9.5t38 -22t34 -22.5t33.5 -10t26 14.5t7 44.5h73q2 -43 -13.5 -74t-41.5 -47.5
t-57 -16.5q-32 0 -54 10t-39 22t-30.5 22t-28.5 10q-21 0 -30 -19.5t-8 -41.5z" />
    <glyph glyph-name="uni1EC5" unicode="&#x1ec5;" horiz-adv-x="562" 
d="M295 -15q-76 0 -134.5 31.5t-91 90t-32.5 139.5q0 132 65.5 204.5t187.5 72.5q84 0 135.5 -36t75.5 -105t23 -168h-385l-16 95h278l-22 -47q-1 81 -23 114t-72 33q-28 0 -50.5 -14t-35 -46.5t-12.5 -89.5q0 -72 34.5 -111t110.5 -39q28 0 55.5 6.5t51.5 15.5t41 16v-128
q-36 -15 -80.5 -24.5t-103.5 -9.5zM147 545l87 121h122l87 -121h-99l-49 59l-49 -59h-99zM179 710h-69q-2 38 12 70.5t40.5 51t60.5 18.5q26 0 46.5 -9.5t38 -22t34 -22.5t33.5 -10t26 14.5t7 44.5h73q2 -43 -13.5 -74t-41.5 -47.5t-57 -16.5q-32 0 -54 10t-39 22t-30.5 22
t-28.5 10q-21 0 -30 -19.5t-8 -41.5z" />
    <glyph glyph-name="uni1EC6" unicode="&#x1ec6;" horiz-adv-x="593" 
d="M71 0v667h457v-125h-295v-145h256v-126h-256v-146h295v-125h-457zM242 -150v100h108v-100h-108zM155 710l87 121h122l87 -121h-99l-49 59l-49 -59h-99z" />
    <glyph glyph-name="uni1EC7" unicode="&#x1ec7;" horiz-adv-x="562" 
d="M295 -15q-76 0 -134.5 31.5t-91 90t-32.5 139.5q0 132 65.5 204.5t187.5 72.5q84 0 135.5 -36t75.5 -105t23 -168h-385l-16 95h278l-22 -47q-1 81 -23 114t-72 33q-28 0 -50.5 -14t-35 -46.5t-12.5 -89.5q0 -72 34.5 -111t110.5 -39q28 0 55.5 6.5t51.5 15.5t41 16v-128
q-36 -15 -80.5 -24.5t-103.5 -9.5zM147 571l87 121h122l87 -121h-99l-49 59l-49 -59h-99zM242 -150v100h108v-100h-108z" />
    <glyph glyph-name="uni1EC8" unicode="&#x1ec8;" horiz-adv-x="304" 
d="M71 0v667h162v-667h-162zM109 704v57q18 1 27.5 8t9.5 16q0 13 -11.5 18.5t-30.5 5.5q-7 0 -14 -1t-16 -2v58q7 2 22.5 3.5t35.5 1.5q31 0 56 -8t40.5 -25t15.5 -45t-15 -45t-42 -18v-24h-78z" />
    <glyph glyph-name="uni1EC9" unicode="&#x1ec9;" horiz-adv-x="332" 
d="M97 0v499h142v-499h-142zM142 558v57q12 1 21 5t9 13q0 13 -10.5 18t-25.5 5q-14 0 -29 -4v51q7 1 20.5 2.5t23.5 1.5q24 0 45 -7.5t34 -23t13 -40.5q0 -21 -10 -32t-22.5 -16t-17.5 -6v-24h-51z" />
    <glyph glyph-name="uni1ECA" unicode="&#x1eca;" horiz-adv-x="304" 
d="M71 0v667h162v-667h-162zM92 -150v100h108v-100h-108z" />
    <glyph glyph-name="uni1ECB" unicode="&#x1ecb;" horiz-adv-x="332" 
d="M97 0v499h142v-499h-142zM114 -150v100h108v-100h-108zM94 566v115h148v-115h-148z" />
    <glyph glyph-name="uni1ECC" unicode="&#x1ecc;" horiz-adv-x="737" 
d="M368 -14q-99 0 -172 37.5t-113.5 114.5t-40.5 195q0 171 86 259t240 88q99 0 172.5 -37.5t113.5 -113.5t40 -195q0 -172 -85.5 -260t-240.5 -88zM368 119q51 0 86.5 21t54 68.5t18.5 125.5q0 79 -18.5 126t-54 67.5t-86.5 20.5t-86 -21t-53.5 -68t-18.5 -127
q0 -79 18.5 -125.5t53.5 -67t86 -20.5zM316 -150v100h108v-100h-108z" />
    <glyph glyph-name="uni1ECD" unicode="&#x1ecd;" horiz-adv-x="590" 
d="M294 -15q-128 0 -192.5 68.5t-64.5 201.5q0 143 65.5 205.5t191.5 62.5q85 0 142.5 -28.5t87 -87.5t29.5 -152q0 -133 -67 -201.5t-192 -68.5zM294 104q37 0 61.5 17.5t37 51t12.5 82.5q0 56 -12.5 88.5t-37.5 47t-61 14.5q-38 0 -62 -15t-35.5 -47.5t-11.5 -87.5
q0 -76 26.5 -113.5t82.5 -37.5zM242 -150v100h108v-100h-108z" />
    <glyph glyph-name="uni1ECE" unicode="&#x1ece;" horiz-adv-x="737" 
d="M368 -14q-99 0 -172 37.5t-113.5 114.5t-40.5 195q0 171 86 259t240 88q99 0 172.5 -37.5t113.5 -113.5t40 -195q0 -172 -85.5 -260t-240.5 -88zM368 119q51 0 86.5 21t54 68.5t18.5 125.5q0 79 -18.5 126t-54 67.5t-86.5 20.5t-86 -21t-53.5 -68t-18.5 -127
q0 -79 18.5 -125.5t53.5 -67t86 -20.5zM322 725v57q18 1 27.5 8t9.5 16q0 13 -11.5 18.5t-30.5 5.5q-7 0 -14 -1t-16 -2v58q7 2 22.5 3.5t35.5 1.5q31 0 56 -8t40.5 -25t15.5 -45t-15 -45t-42 -18v-24h-78z" />
    <glyph glyph-name="uni1ECF" unicode="&#x1ecf;" horiz-adv-x="590" 
d="M294 -15q-128 0 -192.5 68.5t-64.5 201.5q0 143 65.5 205.5t191.5 62.5q85 0 142.5 -28.5t87 -87.5t29.5 -152q0 -133 -67 -201.5t-192 -68.5zM294 104q37 0 61.5 17.5t37 51t12.5 82.5q0 56 -12.5 88.5t-37.5 47t-61 14.5q-38 0 -62 -15t-35.5 -47.5t-11.5 -87.5
q0 -76 26.5 -113.5t82.5 -37.5zM263 563v57q18 1 27.5 8t9.5 16q0 13 -11.5 18.5t-30.5 5.5q-7 0 -14 -1t-16 -2v58q7 2 22.5 3.5t35.5 1.5q31 0 56 -8t40.5 -25t15.5 -45t-15 -45t-42 -18v-24h-78z" />
    <glyph glyph-name="uni1ED0" unicode="&#x1ed0;" horiz-adv-x="737" 
d="M368 -14q-99 0 -172 37.5t-113.5 114.5t-40.5 195q0 171 86 259t240 88q99 0 172.5 -37.5t113.5 -113.5t40 -195q0 -172 -85.5 -260t-240.5 -88zM368 119q51 0 86.5 21t54 68.5t18.5 125.5q0 79 -18.5 126t-54 67.5t-86.5 20.5t-86 -21t-53.5 -68t-18.5 -127
q0 -79 18.5 -125.5t53.5 -67t86 -20.5zM224 732l87 121h122l87 -121h-99l-49 59l-49 -59h-99zM490 805l37 113h156l-118 -113h-75z" />
    <glyph glyph-name="uni1ED1" unicode="&#x1ed1;" horiz-adv-x="590" 
d="M294 -15q-128 0 -192.5 68.5t-64.5 201.5q0 143 65.5 205.5t191.5 62.5q85 0 142.5 -28.5t87 -87.5t29.5 -152q0 -133 -67 -201.5t-192 -68.5zM294 104q37 0 61.5 17.5t37 51t12.5 82.5q0 56 -12.5 88.5t-37.5 47t-61 14.5q-38 0 -62 -15t-35.5 -47.5t-11.5 -87.5
q0 -76 26.5 -113.5t82.5 -37.5zM149 564l87 121h122l87 -121h-99l-49 59l-49 -59h-99zM416 637l37 113h156l-118 -113h-75z" />
    <glyph glyph-name="uni1ED2" unicode="&#x1ed2;" horiz-adv-x="737" 
d="M368 -14q-99 0 -172 37.5t-113.5 114.5t-40.5 195q0 171 86 259t240 88q99 0 172.5 -37.5t113.5 -113.5t40 -195q0 -172 -85.5 -260t-240.5 -88zM368 119q51 0 86.5 21t54 68.5t18.5 125.5q0 79 -18.5 126t-54 67.5t-86.5 20.5t-86 -21t-53.5 -68t-18.5 -127
q0 -79 18.5 -125.5t53.5 -67t86 -20.5zM229 732l87 121h122l87 -121h-99l-49 59l-49 -59h-99zM161 804l-97 111h132l47 -111h-82z" />
    <glyph glyph-name="uni1ED3" unicode="&#x1ed3;" horiz-adv-x="590" 
d="M294 -15q-128 0 -192.5 68.5t-64.5 201.5q0 143 65.5 205.5t191.5 62.5q85 0 142.5 -28.5t87 -87.5t29.5 -152q0 -133 -67 -201.5t-192 -68.5zM294 104q37 0 61.5 17.5t37 51t12.5 82.5q0 56 -12.5 88.5t-37.5 47t-61 14.5q-38 0 -62 -15t-35.5 -47.5t-11.5 -87.5
q0 -76 26.5 -113.5t82.5 -37.5zM155 564l87 121h122l87 -121h-99l-49 59l-49 -59h-99zM87 636l-97 111h132l47 -111h-82z" />
    <glyph glyph-name="uni1ED4" unicode="&#x1ed4;" horiz-adv-x="737" 
d="M368 -14q-99 0 -172 37.5t-113.5 114.5t-40.5 195q0 171 86 259t240 88q99 0 172.5 -37.5t113.5 -113.5t40 -195q0 -172 -85.5 -260t-240.5 -88zM368 119q51 0 86.5 21t54 68.5t18.5 125.5q0 79 -18.5 126t-54 67.5t-86.5 20.5t-86 -21t-53.5 -68t-18.5 -127
q0 -79 18.5 -125.5t53.5 -67t86 -20.5zM213 737l87 121h122l87 -121h-99l-49 59l-49 -59h-99zM489 798v57q18 1 27.5 8t9.5 16q0 13 -11.5 18.5t-30.5 5.5q-7 0 -14 -1t-16 -2v58q7 2 22.5 3.5t35.5 1.5q31 0 56 -8t40.5 -25t15.5 -45t-15 -45t-42 -18v-24h-78z" />
    <glyph glyph-name="uni1ED5" unicode="&#x1ed5;" horiz-adv-x="590" 
d="M294 -15q-128 0 -192.5 68.5t-64.5 201.5q0 143 65.5 205.5t191.5 62.5q85 0 142.5 -28.5t87 -87.5t29.5 -152q0 -133 -67 -201.5t-192 -68.5zM294 104q37 0 61.5 17.5t37 51t12.5 82.5q0 56 -12.5 88.5t-37.5 47t-61 14.5q-38 0 -62 -15t-35.5 -47.5t-11.5 -87.5
q0 -76 26.5 -113.5t82.5 -37.5zM139 569l87 121h122l87 -121h-99l-49 59l-49 -59h-99zM415 630v57q18 1 27.5 8t9.5 16q0 13 -11.5 18.5t-30.5 5.5q-7 0 -14 -1t-16 -2v58q7 2 22.5 3.5t35.5 1.5q31 0 56 -8t40.5 -25t15.5 -45t-15 -45t-42 -18v-24h-78z" />
    <glyph glyph-name="uni1ED6" unicode="&#x1ed6;" horiz-adv-x="737" 
d="M368 -14q-99 0 -172 37.5t-113.5 114.5t-40.5 195q0 171 86 259t240 88q99 0 172.5 -37.5t113.5 -113.5t40 -195q0 -172 -85.5 -260t-240.5 -88zM368 119q51 0 86.5 21t54 68.5t18.5 125.5q0 79 -18.5 126t-54 67.5t-86.5 20.5t-86 -21t-53.5 -68t-18.5 -127
q0 -79 18.5 -125.5t53.5 -67t86 -20.5zM229 720l87 121h122l87 -121h-99l-49 59l-49 -59h-99zM261 885h-69q-2 38 12 70.5t40.5 51t60.5 18.5q26 0 46.5 -9.5t38 -22t34 -22.5t33.5 -10t26 14.5t7 44.5h73q2 -43 -13.5 -74t-41.5 -47.5t-57 -16.5q-32 0 -54 10t-39 22
t-30.5 22t-28.5 10q-21 0 -30 -19.5t-8 -41.5z" />
    <glyph glyph-name="uni1ED7" unicode="&#x1ed7;" horiz-adv-x="590" 
d="M294 -15q-128 0 -192.5 68.5t-64.5 201.5q0 143 65.5 205.5t191.5 62.5q85 0 142.5 -28.5t87 -87.5t29.5 -152q0 -133 -67 -201.5t-192 -68.5zM294 104q37 0 61.5 17.5t37 51t12.5 82.5q0 56 -12.5 88.5t-37.5 47t-61 14.5q-38 0 -62 -15t-35.5 -47.5t-11.5 -87.5
q0 -76 26.5 -113.5t82.5 -37.5zM155 552l87 121h122l87 -121h-99l-49 59l-49 -59h-99zM186 717h-69q-2 38 12 70.5t40.5 51t60.5 18.5q26 0 46.5 -9.5t38 -22t34 -22.5t33.5 -10t26 14.5t7 44.5h73q2 -43 -13.5 -74t-41.5 -47.5t-57 -16.5q-32 0 -54 10t-39 22t-30.5 22
t-28.5 10q-21 0 -30 -19.5t-8 -41.5z" />
    <glyph glyph-name="uni1ED8" unicode="&#x1ed8;" horiz-adv-x="737" 
d="M368 -14q-99 0 -172 37.5t-113.5 114.5t-40.5 195q0 171 86 259t240 88q99 0 172.5 -37.5t113.5 -113.5t40 -195q0 -172 -85.5 -260t-240.5 -88zM368 119q51 0 86.5 21t54 68.5t18.5 125.5q0 79 -18.5 126t-54 67.5t-86.5 20.5t-86 -21t-53.5 -68t-18.5 -127
q0 -79 18.5 -125.5t53.5 -67t86 -20.5zM316 -150v100h108v-100h-108zM222 731l87 121h122l87 -121h-99l-49 59l-49 -59h-99z" />
    <glyph glyph-name="uni1ED9" unicode="&#x1ed9;" horiz-adv-x="590" 
d="M294 -15q-128 0 -192.5 68.5t-64.5 201.5q0 143 65.5 205.5t191.5 62.5q85 0 142.5 -28.5t87 -87.5t29.5 -152q0 -133 -67 -201.5t-192 -68.5zM294 104q37 0 61.5 17.5t37 51t12.5 82.5q0 56 -12.5 88.5t-37.5 47t-61 14.5q-38 0 -62 -15t-35.5 -47.5t-11.5 -87.5
q0 -76 26.5 -113.5t82.5 -37.5zM155 578l87 121h122l87 -121h-99l-49 59l-49 -59h-99zM242 -150v100h108v-100h-108z" />
    <glyph glyph-name="uni1EDA" unicode="&#x1eda;" horiz-adv-x="737" 
d="M368 -14q-99 0 -172 37.5t-113.5 114.5t-40.5 195q0 171 86 259t240 88q99 0 172.5 -37.5t113.5 -113.5t40 -195q0 -172 -85.5 -260t-240.5 -88zM368 119q51 0 86.5 21t54 68.5t18.5 125.5q0 79 -18.5 126t-54 67.5t-86.5 20.5t-86 -21t-53.5 -68t-18.5 -127
q0 -79 18.5 -125.5t53.5 -67t86 -20.5zM466 584l-4 82q33 0 53.5 12.5t20.5 35.5v37h92v-56q0 -39 -21.5 -63t-58 -35.5t-82.5 -12.5zM331 740l37 113h156l-118 -113h-75z" />
    <glyph glyph-name="uni1EDB" unicode="&#x1edb;" horiz-adv-x="590" 
d="M294 -15q-128 0 -192.5 68.5t-64.5 201.5q0 143 65.5 205.5t191.5 62.5q85 0 142.5 -28.5t87 -87.5t29.5 -152q0 -133 -67 -201.5t-192 -68.5zM294 104q37 0 61.5 17.5t37 51t12.5 82.5q0 56 -12.5 88.5t-37.5 47t-61 14.5q-38 0 -62 -15t-35.5 -47.5t-11.5 -87.5
q0 -76 26.5 -113.5t82.5 -37.5zM402 423l-4 82q33 0 53.5 12.5t20.5 35.5v37h92v-56q0 -39 -21.5 -63t-58 -35.5t-82.5 -12.5zM249 572l47 124h146l-111 -124h-82z" />
    <glyph glyph-name="uni1EDC" unicode="&#x1edc;" horiz-adv-x="737" 
d="M368 -14q-99 0 -172 37.5t-113.5 114.5t-40.5 195q0 171 86 259t240 88q99 0 172.5 -37.5t113.5 -113.5t40 -195q0 -172 -85.5 -260t-240.5 -88zM368 119q51 0 86.5 21t54 68.5t18.5 125.5q0 79 -18.5 126t-54 67.5t-86.5 20.5t-86 -21t-53.5 -68t-18.5 -127
q0 -79 18.5 -125.5t53.5 -67t86 -20.5zM466 584l-4 82q33 0 53.5 12.5t20.5 35.5v37h92v-56q0 -39 -21.5 -63t-58 -35.5t-82.5 -12.5zM335 737l-97 111h132l47 -111h-82z" />
    <glyph glyph-name="uni1EDD" unicode="&#x1edd;" horiz-adv-x="590" 
d="M294 -15q-128 0 -192.5 68.5t-64.5 201.5q0 143 65.5 205.5t191.5 62.5q85 0 142.5 -28.5t87 -87.5t29.5 -152q0 -133 -67 -201.5t-192 -68.5zM294 104q37 0 61.5 17.5t37 51t12.5 82.5q0 56 -12.5 88.5t-37.5 47t-61 14.5q-38 0 -62 -15t-35.5 -47.5t-11.5 -87.5
q0 -76 26.5 -113.5t82.5 -37.5zM402 423l-4 82q33 0 53.5 12.5t20.5 35.5v37h92v-56q0 -39 -21.5 -63t-58 -35.5t-82.5 -12.5zM258 572l-111 124h146l46 -124h-81z" />
    <glyph glyph-name="uni1EDE" unicode="&#x1ede;" horiz-adv-x="737" 
d="M368 -14q-99 0 -172 37.5t-113.5 114.5t-40.5 195q0 171 86 259t240 88q99 0 172.5 -37.5t113.5 -113.5t40 -195q0 -172 -85.5 -260t-240.5 -88zM368 119q51 0 86.5 21t54 68.5t18.5 125.5q0 79 -18.5 126t-54 67.5t-86.5 20.5t-86 -21t-53.5 -68t-18.5 -127
q0 -79 18.5 -125.5t53.5 -67t86 -20.5zM466 584l-4 82q33 0 53.5 12.5t20.5 35.5v37h92v-56q0 -39 -21.5 -63t-58 -35.5t-82.5 -12.5zM322 725v57q18 1 27.5 8t9.5 16q0 13 -11.5 18.5t-30.5 5.5q-7 0 -14 -1t-16 -2v58q7 2 22.5 3.5t35.5 1.5q31 0 56 -8t40.5 -25t15.5 -45
t-15 -45t-42 -18v-24h-78z" />
    <glyph glyph-name="uni1EDF" unicode="&#x1edf;" horiz-adv-x="590" 
d="M294 -15q-128 0 -192.5 68.5t-64.5 201.5q0 143 65.5 205.5t191.5 62.5q85 0 142.5 -28.5t87 -87.5t29.5 -152q0 -133 -67 -201.5t-192 -68.5zM294 104q37 0 61.5 17.5t37 51t12.5 82.5q0 56 -12.5 88.5t-37.5 47t-61 14.5q-38 0 -62 -15t-35.5 -47.5t-11.5 -87.5
q0 -76 26.5 -113.5t82.5 -37.5zM402 423l-4 82q33 0 53.5 12.5t20.5 35.5v37h92v-56q0 -39 -21.5 -63t-58 -35.5t-82.5 -12.5zM263 563v57q18 1 27.5 8t9.5 16q0 13 -11.5 18.5t-30.5 5.5q-7 0 -14 -1t-16 -2v58q7 2 22.5 3.5t35.5 1.5q31 0 56 -8t40.5 -25t15.5 -45
t-15 -45t-42 -18v-24h-78z" />
    <glyph glyph-name="uni1EE0" unicode="&#x1ee0;" horiz-adv-x="737" 
d="M368 -14q-99 0 -172 37.5t-113.5 114.5t-40.5 195q0 171 86 259t240 88q99 0 172.5 -37.5t113.5 -113.5t40 -195q0 -172 -85.5 -260t-240.5 -88zM368 119q51 0 86.5 21t54 68.5t18.5 125.5q0 79 -18.5 126t-54 67.5t-86.5 20.5t-86 -21t-53.5 -68t-18.5 -127
q0 -79 18.5 -125.5t53.5 -67t86 -20.5zM466 584l-4 82q33 0 53.5 12.5t20.5 35.5v37h92v-56q0 -39 -21.5 -63t-58 -35.5t-82.5 -12.5zM263 741h-69q-2 38 12 70.5t40.5 51t60.5 18.5q26 0 46.5 -9.5t38 -22t34 -22.5t33.5 -10t26 14.5t7 44.5h73q2 -43 -13.5 -74
t-41.5 -47.5t-57 -16.5q-32 0 -54 10t-39 22t-30.5 22t-28.5 10q-21 0 -30 -19.5t-8 -41.5z" />
    <glyph glyph-name="uni1EE1" unicode="&#x1ee1;" horiz-adv-x="590" 
d="M294 -15q-128 0 -192.5 68.5t-64.5 201.5q0 143 65.5 205.5t191.5 62.5q85 0 142.5 -28.5t87 -87.5t29.5 -152q0 -133 -67 -201.5t-192 -68.5zM294 104q37 0 61.5 17.5t37 51t12.5 82.5q0 56 -12.5 88.5t-37.5 47t-61 14.5q-38 0 -62 -15t-35.5 -47.5t-11.5 -87.5
q0 -76 26.5 -113.5t82.5 -37.5zM402 423l-4 82q33 0 53.5 12.5t20.5 35.5v37h92v-56q0 -39 -21.5 -63t-58 -35.5t-82.5 -12.5zM182 571h-69q-2 38 12 70.5t40.5 51t60.5 18.5q26 0 46.5 -9.5t38 -22t34 -22.5t33.5 -10t26 14.5t7 44.5h73q2 -43 -13.5 -74t-41.5 -47.5
t-57 -16.5q-32 0 -54 10t-39 22t-30.5 22t-28.5 10q-21 0 -30 -19.5t-8 -41.5z" />
    <glyph glyph-name="uni1EE2" unicode="&#x1ee2;" horiz-adv-x="737" 
d="M368 -14q-99 0 -172 37.5t-113.5 114.5t-40.5 195q0 171 86 259t240 88q99 0 172.5 -37.5t113.5 -113.5t40 -195q0 -172 -85.5 -260t-240.5 -88zM368 119q51 0 86.5 21t54 68.5t18.5 125.5q0 79 -18.5 126t-54 67.5t-86.5 20.5t-86 -21t-53.5 -68t-18.5 -127
q0 -79 18.5 -125.5t53.5 -67t86 -20.5zM466 584l-4 82q33 0 53.5 12.5t20.5 35.5v37h92v-56q0 -39 -21.5 -63t-58 -35.5t-82.5 -12.5zM316 -150v100h108v-100h-108z" />
    <glyph glyph-name="uni1EE3" unicode="&#x1ee3;" horiz-adv-x="590" 
d="M294 -15q-128 0 -192.5 68.5t-64.5 201.5q0 143 65.5 205.5t191.5 62.5q85 0 142.5 -28.5t87 -87.5t29.5 -152q0 -133 -67 -201.5t-192 -68.5zM294 104q37 0 61.5 17.5t37 51t12.5 82.5q0 56 -12.5 88.5t-37.5 47t-61 14.5q-38 0 -62 -15t-35.5 -47.5t-11.5 -87.5
q0 -76 26.5 -113.5t82.5 -37.5zM402 423l-4 82q33 0 53.5 12.5t20.5 35.5v37h92v-56q0 -39 -21.5 -63t-58 -35.5t-82.5 -12.5zM242 -150v100h108v-100h-108z" />
    <glyph glyph-name="uni1EE4" unicode="&#x1ee4;" horiz-adv-x="726" 
d="M378 -21q-154 0 -230.5 65.5t-76.5 204.5v418h169v-411q0 -77 31 -114t99 -37q62 0 96.5 37t34.5 114v411h154v-418q0 -93 -35.5 -152.5t-97.5 -88.5t-144 -29zM309 -150v100h108v-100h-108z" />
    <glyph glyph-name="uni1EE5" unicode="&#x1ee5;" horiz-adv-x="610" 
d="M309 -8q-105 0 -165.5 55t-60.5 173v279h142v-301q0 -48 20 -71.5t64 -23.5q43 0 63 23.5t20 71.5v301h142v-279q0 -118 -60.5 -173t-164.5 -55zM255 -150v100h108v-100h-108z" />
    <glyph glyph-name="uni1EE6" unicode="&#x1ee6;" horiz-adv-x="726" 
d="M378 -21q-154 0 -230.5 65.5t-76.5 204.5v418h169v-411q0 -77 31 -114t99 -37q62 0 96.5 37t34.5 114v411h154v-418q0 -93 -35.5 -152.5t-97.5 -88.5t-144 -29zM314 711v57q18 1 27.5 8t9.5 16q0 13 -11.5 18.5t-30.5 5.5q-7 0 -14 -1t-16 -2v58q7 2 22.5 3.5t35.5 1.5
q31 0 56 -8t40.5 -25t15.5 -45t-15 -45t-42 -18v-24h-78z" />
    <glyph glyph-name="uni1EE7" unicode="&#x1ee7;" horiz-adv-x="610" 
d="M309 -8q-105 0 -165.5 55t-60.5 173v279h142v-301q0 -48 20 -71.5t64 -23.5q43 0 63 23.5t20 71.5v301h142v-279q0 -118 -60.5 -173t-164.5 -55zM285 558v57q12 1 20.5 5.5t8.5 13.5q0 13 -10.5 17.5t-24.5 4.5q-7 0 -14 -1t-16 -2v50q7 2 20.5 3t23.5 1q24 0 45 -7.5
t34 -23t13 -40.5q0 -20 -10 -31.5t-22 -16.5t-18 -6v-24h-50z" />
    <glyph glyph-name="uni1EE8" unicode="&#x1ee8;" horiz-adv-x="726" 
d="M378 -21q-154 0 -230.5 65.5t-76.5 204.5v418h169v-411q0 -77 31 -114t99 -37q62 0 96.5 37t34.5 114v411h154v-418q0 -93 -35.5 -152.5t-97.5 -88.5t-144 -29zM598 584l-4 82q33 0 53.5 12.5t20.5 35.5v37h92v-56q0 -39 -21.5 -63t-58 -35.5t-82.5 -12.5zM323 726
l37 113h156l-118 -113h-75z" />
    <glyph glyph-name="uni1EE9" unicode="&#x1ee9;" horiz-adv-x="653" 
d="M304 -15q-70 0 -124 22t-84 67.5t-30 118.5v313h149v-301q0 -48 21.5 -71.5t68.5 -23.5q48 0 69 23.5t21 71.5v301h140v-313q0 -108 -62 -158t-169 -50zM478 422l-4 82q33 0 53.5 12.5t20.5 35.5v37h92v-56q0 -39 -21.5 -63t-58 -35.5t-82.5 -12.5zM261 565l47 124h146
l-111 -124h-82z" />
    <glyph glyph-name="uni1EEA" unicode="&#x1eea;" horiz-adv-x="726" 
d="M378 -21q-154 0 -230.5 65.5t-76.5 204.5v418h169v-411q0 -77 31 -114t99 -37q62 0 96.5 37t34.5 114v411h154v-418q0 -93 -35.5 -152.5t-97.5 -88.5t-144 -29zM598 584l-4 82q33 0 53.5 12.5t20.5 35.5v37h92v-56q0 -39 -21.5 -63t-58 -35.5t-82.5 -12.5zM327 723
l-97 111h132l47 -111h-82z" />
    <glyph glyph-name="uni1EEB" unicode="&#x1eeb;" horiz-adv-x="653" 
d="M304 -15q-70 0 -124 22t-84 67.5t-30 118.5v313h149v-301q0 -48 21.5 -71.5t68.5 -23.5q48 0 69 23.5t21 71.5v301h140v-313q0 -108 -62 -158t-169 -50zM478 422l-4 82q33 0 53.5 12.5t20.5 35.5v37h92v-56q0 -39 -21.5 -63t-58 -35.5t-82.5 -12.5zM270 565l-111 124h146
l46 -124h-81z" />
    <glyph glyph-name="uni1EEC" unicode="&#x1eec;" horiz-adv-x="726" 
d="M378 -21q-154 0 -230.5 65.5t-76.5 204.5v418h169v-411q0 -77 31 -114t99 -37q62 0 96.5 37t34.5 114v411h154v-418q0 -93 -35.5 -152.5t-97.5 -88.5t-144 -29zM598 584l-4 82q33 0 53.5 12.5t20.5 35.5v37h92v-56q0 -39 -21.5 -63t-58 -35.5t-82.5 -12.5zM314 711v57
q18 1 27.5 8t9.5 16q0 13 -11.5 18.5t-30.5 5.5q-7 0 -14 -1t-16 -2v58q7 2 22.5 3.5t35.5 1.5q31 0 56 -8t40.5 -25t15.5 -45t-15 -45t-42 -18v-24h-78z" />
    <glyph glyph-name="uni1EED" unicode="&#x1eed;" horiz-adv-x="653" 
d="M304 -15q-70 0 -124 22t-84 67.5t-30 118.5v313h149v-301q0 -48 21.5 -71.5t68.5 -23.5q48 0 69 23.5t21 71.5v301h140v-313q0 -108 -62 -158t-169 -50zM478 422l-4 82q33 0 53.5 12.5t20.5 35.5v37h92v-56q0 -39 -21.5 -63t-58 -35.5t-82.5 -12.5zM275 556v57
q18 1 27.5 8t9.5 16q0 13 -11.5 18.5t-30.5 5.5q-7 0 -14 -1t-16 -2v58q7 2 22.5 3.5t35.5 1.5q31 0 56 -8t40.5 -25t15.5 -45t-15 -45t-42 -18v-24h-78z" />
    <glyph glyph-name="uni1EEE" unicode="&#x1eee;" horiz-adv-x="726" 
d="M378 -21q-154 0 -230.5 65.5t-76.5 204.5v418h169v-411q0 -77 31 -114t99 -37q62 0 96.5 37t34.5 114v411h154v-418q0 -93 -35.5 -152.5t-97.5 -88.5t-144 -29zM598 584l-4 82q33 0 53.5 12.5t20.5 35.5v37h92v-56q0 -39 -21.5 -63t-58 -35.5t-82.5 -12.5zM255 727h-69
q-2 38 12 70.5t40.5 51t60.5 18.5q26 0 46.5 -9.5t38 -22t34 -22.5t33.5 -10t26 14.5t7 44.5h73q2 -43 -13.5 -74t-41.5 -47.5t-57 -16.5q-32 0 -54 10t-39 22t-30.5 22t-28.5 10q-21 0 -30 -19.5t-8 -41.5z" />
    <glyph glyph-name="uni1EEF" unicode="&#x1eef;" horiz-adv-x="653" 
d="M304 -15q-70 0 -124 22t-84 67.5t-30 118.5v313h149v-301q0 -48 21.5 -71.5t68.5 -23.5q48 0 69 23.5t21 71.5v301h140v-313q0 -108 -62 -158t-169 -50zM478 422l-4 82q33 0 53.5 12.5t20.5 35.5v37h92v-56q0 -39 -21.5 -63t-58 -35.5t-82.5 -12.5zM198 559h-69
q-2 38 12 70.5t40.5 51t60.5 18.5q26 0 46.5 -9.5t38 -22t34 -22.5t33.5 -10t26 14.5t7 44.5h73q2 -43 -13.5 -74t-41.5 -47.5t-57 -16.5q-32 0 -54 10t-39 22t-30.5 22t-28.5 10q-21 0 -30 -19.5t-8 -41.5z" />
    <glyph glyph-name="uni1EF0" unicode="&#x1ef0;" horiz-adv-x="726" 
d="M378 -21q-154 0 -230.5 65.5t-76.5 204.5v418h169v-411q0 -77 31 -114t99 -37q62 0 96.5 37t34.5 114v411h154v-418q0 -93 -35.5 -152.5t-97.5 -88.5t-144 -29zM598 584l-4 82q33 0 53.5 12.5t20.5 35.5v37h92v-56q0 -39 -21.5 -63t-58 -35.5t-82.5 -12.5zM309 -150v100
h108v-100h-108z" />
    <glyph glyph-name="uni1EF1" unicode="&#x1ef1;" horiz-adv-x="653" 
d="M304 -15q-70 0 -124 22t-84 67.5t-30 118.5v313h149v-301q0 -48 21.5 -71.5t68.5 -23.5q48 0 69 23.5t21 71.5v301h140v-313q0 -108 -62 -158t-169 -50zM478 422l-4 82q33 0 53.5 12.5t20.5 35.5v37h92v-56q0 -39 -21.5 -63t-58 -35.5t-82.5 -12.5zM247 -150v100h108
v-100h-108z" />
    <glyph glyph-name="Ygrave" unicode="&#x1ef2;" horiz-adv-x="692" 
d="M274 0v288l-253 379h199l190 -319h-75l173 319h161l-256 -419l23 86v-334h-162zM335 716l-97 111h132l47 -111h-82z" />
    <glyph glyph-name="ygrave" unicode="&#x1ef3;" horiz-adv-x="593" 
d="M176 -196q-25 0 -49 5t-41 13v121q16 -6 30 -8.5t29 -2.5q25 0 43.5 11.5t30.5 39t19 74.5l3 -85l-217 534h171l115 -355h-15l114 355h160l-199 -514q-27 -70 -58.5 -111t-65.5 -59t-70 -18zM260 551l-111 124h146l46 -124h-81z" />
    <glyph glyph-name="uni1EF4" unicode="&#x1ef4;" horiz-adv-x="692" 
d="M274 0v288l-253 379h199l190 -319h-75l173 319h161l-256 -419l23 86v-334h-162zM292 -150v100h108v-100h-108z" />
    <glyph glyph-name="uni1EF5" unicode="&#x1ef5;" horiz-adv-x="593" 
d="M176 -196q-25 0 -49 5t-41 13v121q16 -6 30 -8.5t29 -2.5q25 0 43.5 11.5t30.5 39t19 74.5l3 -85l-217 534h171l115 -355h-15l114 355h160l-199 -514q-27 -70 -58.5 -111t-65.5 -59t-70 -18zM412 -150v100h108v-100h-108z" />
    <glyph glyph-name="uni1EF6" unicode="&#x1ef6;" horiz-adv-x="692" 
d="M274 0v288l-253 379h199l190 -319h-75l173 319h161l-256 -419l23 86v-334h-162zM322 704v57q18 1 27.5 8t9.5 16q0 13 -11.5 18.5t-30.5 5.5q-7 0 -14 -1t-16 -2v58q7 2 22.5 3.5t35.5 1.5q31 0 56 -8t40.5 -25t15.5 -45t-15 -45t-42 -18v-24h-78z" />
    <glyph glyph-name="uni1EF7" unicode="&#x1ef7;" horiz-adv-x="593" 
d="M176 -196q-25 0 -49 5t-41 13v121q16 -6 30 -8.5t29 -2.5q25 0 43.5 11.5t30.5 39t19 74.5l3 -85l-217 534h171l115 -355h-15l114 355h160l-199 -514q-27 -70 -58.5 -111t-65.5 -59t-70 -18zM265 542v57q18 1 27.5 8t9.5 16q0 13 -11.5 18.5t-30.5 5.5q-7 0 -14 -1
t-16 -2v58q7 2 22.5 3.5t35.5 1.5q31 0 56 -8t40.5 -25t15.5 -45t-15 -45t-42 -18v-24h-78z" />
    <glyph glyph-name="uni1EF8" unicode="&#x1ef8;" horiz-adv-x="692" 
d="M274 0v288l-253 379h199l190 -319h-75l173 319h161l-256 -419l23 86v-334h-162zM263 720h-69q-2 38 12 70.5t40.5 51t60.5 18.5q26 0 46.5 -9.5t38 -22t34 -22.5t33.5 -10t26 14.5t7 44.5h73q2 -43 -13.5 -74t-41.5 -47.5t-57 -16.5q-32 0 -54 10t-39 22t-30.5 22
t-28.5 10q-21 0 -30 -19.5t-8 -41.5z" />
    <glyph glyph-name="uni1EF9" unicode="&#x1ef9;" horiz-adv-x="593" 
d="M176 -196q-25 0 -49 5t-41 13v121q16 -6 30 -8.5t29 -2.5q25 0 43.5 11.5t30.5 39t19 74.5l3 -85l-217 534h171l115 -355h-15l114 355h160l-199 -514q-27 -70 -58.5 -111t-65.5 -59t-70 -18zM189 545h-69q-2 38 12 70.5t40.5 51t60.5 18.5q26 0 46.5 -9.5t38 -22
t34 -22.5t33.5 -10t26 14.5t7 44.5h73q2 -43 -13.5 -74t-41.5 -47.5t-57 -16.5q-32 0 -54 10t-39 22t-30.5 22t-28.5 10q-21 0 -30 -19.5t-8 -41.5z" />
    <glyph glyph-name="endash" unicode="&#x2013;" horiz-adv-x="560" 
d="M69 240v100h420v-100h-420z" />
    <glyph glyph-name="emdash" unicode="&#x2014;" horiz-adv-x="891" 
d="M79 240v102h733v-102h-733z" />
    <glyph glyph-name="quoteleft" unicode="&#x2018;" horiz-adv-x="287" 
d="M139 480l-92 196h122l74 -196h-104z" />
    <glyph glyph-name="quoteright" unicode="&#x2019;" horiz-adv-x="287" 
d="M47 480l74 196h122l-92 -196h-104z" />
    <glyph glyph-name="quotesinglbase" unicode="&#x201a;" horiz-adv-x="329" 
d="M72 -112l74 196h122l-92 -196h-104z" />
    <glyph glyph-name="quotedblleft" unicode="&#x201c;" horiz-adv-x="453" 
d="M303 480l-93 196h122l74 -196h-103zM140 480l-92 196h122l74 -196h-104z" />
    <glyph glyph-name="quotedblright" unicode="&#x201d;" horiz-adv-x="451" 
d="M210 480l74 196h122l-92 -196h-104zM48 480l74 196h122l-93 -196h-103z" />
    <glyph glyph-name="quotedblbase" unicode="&#x201e;" horiz-adv-x="492" 
d="M235 -112l74 196h122l-93 -196h-103zM72 -112l74 196h122l-92 -196h-104z" />
    <glyph glyph-name="dagger" unicode="&#x2020;" horiz-adv-x="470" 
d="M197 94v367h-111v77h111v125h77v-125h113v-77h-113v-367h-77z" />
    <glyph glyph-name="daggerdbl" unicode="&#x2021;" horiz-adv-x="501" 
d="M201 0v132h-133v96h133v171h-133v97h133v132h96v-132h132v-97h-132v-171h132v-96h-132v-132h-96z" />
    <glyph glyph-name="bullet" unicode="&#x2022;" horiz-adv-x="496" 
d="M248 166q-45 0 -82 21.5t-58.5 58.5t-21.5 82t21.5 81.5t58.5 58t82 21.5t81.5 -21.5t58 -58t21.5 -81.5t-21.5 -82t-58 -58.5t-81.5 -21.5z" />
    <glyph glyph-name="ellipsis" unicode="&#x2026;" horiz-adv-x="863" 
d="M107 0v121h125v-121h-125zM371 0v121h124v-121h-124zM635 0v121h125v-121h-125z" />
    <glyph glyph-name="perthousand" unicode="&#x2030;" horiz-adv-x="1196" 
d="M190 311q-87 0 -126 46.5t-39 137.5t39 137.5t126 46.5q88 0 126.5 -46.5t38.5 -137.5t-38.5 -137.5t-126.5 -46.5zM190 396q13 0 26 7t22.5 29t9.5 63q0 42 -9.5 63t-22.5 28.5t-26 7.5q-12 0 -26 -7.5t-23.5 -28.5t-9.5 -63q0 -41 9.5 -63t23.5 -29t26 -7zM632 -11
q-87 0 -126 46.5t-39 137.5t39 137.5t126 46.5q88 0 126.5 -46.5t38.5 -137.5t-38.5 -137.5t-126.5 -46.5zM632 74q13 0 26 7t22.5 29t9.5 63q0 42 -9.5 63t-22.5 28.5t-26 7.5q-12 0 -26 -7.5t-23.5 -28.5t-9.5 -63q0 -41 9.5 -63t23.5 -29t26 -7zM1006 -11
q-87 0 -126 46.5t-39 137.5t39 137.5t126 46.5q88 0 126.5 -46.5t38.5 -137.5t-38.5 -137.5t-126.5 -46.5zM1006 74q13 0 26 7t22.5 29t9.5 63q0 42 -9.5 63t-22.5 28.5t-26 7.5q-12 0 -26 -7.5t-23.5 -28.5t-9.5 -63q0 -41 9.5 -63t23.5 -29t26 -7zM152 -22l407 707h107
l-407 -707h-107z" />
    <glyph glyph-name="guilsinglleft" unicode="&#x2039;" horiz-adv-x="384" 
d="M200 64l-169 191l169 190h145l-181 -190l181 -191h-145z" />
    <glyph glyph-name="guilsinglright" unicode="&#x203a;" horiz-adv-x="402" 
d="M47 64l181 191l-181 190h145l169 -190l-169 -191h-145z" />
    <glyph glyph-name="fraction" unicode="&#x2044;" horiz-adv-x="407" 
d="M-54 -22l407 707h107l-407 -707h-107z" />
    <glyph glyph-name="zero.superior" unicode="&#x2070;" horiz-adv-x="380" 
d="M190 459q-87 0 -126 46.5t-39 137.5t39 137.5t126 46.5q88 0 126.5 -46.5t38.5 -137.5t-38.5 -137.5t-126.5 -46.5zM190 544q13 0 26 7t22.5 29t9.5 63q0 42 -9.5 63t-22.5 28.5t-26 7.5q-12 0 -26 -7.5t-23.5 -28.5t-9.5 -63q0 -41 9.5 -63t23.5 -29t26 -7z" />
    <glyph glyph-name="four.superior" unicode="&#x2074;" horiz-adv-x="339" 
d="M178 463v83h-153v75l161 201h90v-196h45v-80h-45v-83h-98zM113 626h65v112l27 4z" />
    <glyph glyph-name="five.superior" unicode="&#x2075;" horiz-adv-x="324" 
d="M170 458q-35 0 -63 6.5t-50 17.5v84q18 -12 40 -19t44 -7q27 0 39.5 10.5t12.5 32.5q0 16 -7.5 25.5t-19 14t-24.5 4.5q-17 0 -30 -5.5t-20 -9.5l-43 38l19 172h211v-83h-139l-4 -47q8 2 18.5 2.5t33.5 0.5q25 0 51.5 -10t44.5 -35t18 -69q0 -46 -18 -73t-48 -38.5
t-66 -11.5z" />
    <glyph glyph-name="six.superior" unicode="&#x2076;" horiz-adv-x="344" 
d="M179 459q-89 0 -126 42.5t-37 126.5q0 67 19 107t49.5 59.5t65 25.5t66.5 6q18 0 36.5 -3t30.5 -8v-71q-20 6 -34.5 8t-25.5 2q-13 0 -29 -3.5t-31 -13t-25.5 -26.5t-11.5 -44q9 11 27.5 20.5t58.5 9.5q43 0 74.5 -27.5t31.5 -82.5q0 -37 -15 -66t-45.5 -45.5
t-78.5 -16.5zM169 524q19 0 29.5 16.5t10.5 39.5q0 28 -11.5 40.5t-26.5 12.5q-14 0 -27 -11t-18 -22q0 -25 6.5 -41.5t16.5 -25.5t20 -9z" />
    <glyph glyph-name="seven.superior" unicode="&#x2077;" horiz-adv-x="320" 
d="M58 462l146 326l45 -63h-213v96h264v-51l-127 -308h-115z" />
    <glyph glyph-name="eight.superior" unicode="&#x2078;" horiz-adv-x="340" 
d="M170 459q-54 0 -87.5 13.5t-49.5 38t-16 57.5q0 25 11.5 43.5t27.5 29.5t30 15q-10 3 -23 12t-22.5 24.5t-9.5 36.5q0 31 14 52.5t44.5 33t80.5 11.5q49 0 79.5 -11.5t44.5 -33t14 -52.5q0 -22 -9.5 -37t-22 -24t-22.5 -12q13 -4 29.5 -15t28 -29.5t11.5 -43.5
q0 -33 -16 -57.5t-49.5 -38t-87.5 -13.5zM170 529q25 0 35 14t10 33q0 17 -11.5 30t-33.5 13t-34 -13t-12 -30q0 -19 11.5 -33t34.5 -14zM170 681q16 0 27 9.5t11 27.5q0 17 -9.5 27.5t-28.5 10.5q-17 0 -27 -10.5t-10 -27.5q0 -18 10.5 -27.5t26.5 -9.5z" />
    <glyph glyph-name="nine.superior" unicode="&#x2079;" horiz-adv-x="346" 
d="M120 458q-19 0 -37.5 3t-29.5 8v72q20 -6 34.5 -8.5t25.5 -2.5q12 0 28 4t31.5 13.5t25.5 26.5t12 43q-10 -10 -28.5 -20t-58.5 -10q-43 0 -74.5 27.5t-31.5 83.5q0 37 15 65.5t46 45.5t78 17q89 0 126 -42.5t37 -126.5q0 -67 -19 -107t-49 -60t-65 -26t-66 -6zM160 652
q19 0 32 10.5t17 22.5q0 24 -6 41t-16 25.5t-24 8.5q-13 0 -21 -9t-11.5 -21.5t-3.5 -24.5q0 -28 10.5 -40.5t22.5 -12.5z" />
    <glyph glyph-name="zero.inferior" unicode="&#x2080;" horiz-adv-x="380" 
d="M190 -154q-87 0 -126 46.5t-39 137.5t39 137.5t126 46.5q88 0 126.5 -46.5t38.5 -137.5t-38.5 -137.5t-126.5 -46.5zM190 -69q13 0 26 7t22.5 29t9.5 63q0 42 -9.5 63t-22.5 28.5t-26 7.5q-12 0 -26 -7.5t-23.5 -28.5t-9.5 -63q0 -41 9.5 -63t23.5 -29t26 -7z" />
    <glyph glyph-name="one.inferior" unicode="&#x2081;" horiz-adv-x="245" 
d="M81 -150v285l15 -32l-68 -40v101l72 45h85v-359h-104z" />
    <glyph glyph-name="two.inferior" unicode="&#x2082;" horiz-adv-x="336" 
d="M46 -150v62q20 15 44.5 33t47 39t37 44.5t14.5 48.5q0 26 -16.5 38.5t-37.5 12.5q-29 0 -49 -10t-37 -22v85q21 13 48.5 23t58.5 10q54 0 84.5 -16.5t43.5 -42t13 -52.5q0 -34 -18.5 -66t-49.5 -58t-69 -45l-10 13h150v-97h-254z" />
    <glyph glyph-name="three.inferior" unicode="&#x2083;" horiz-adv-x="331" 
d="M149 -154q-29 0 -55.5 8t-49.5 19v81q24 -14 43.5 -23t43.5 -9t41 11t17 31q0 18 -14 30.5t-46 12.5h-39v64h41q19 0 30 9.5t11 25.5q0 14 -15 21.5t-35 7.5q-18 0 -36 -5.5t-35 -13.5v74q20 10 44 16.5t50 6.5q32 0 63.5 -10t52 -32t20.5 -56q0 -20 -9.5 -35
t-21.5 -24.5t-22 -11.5q18 -6 33.5 -18t25.5 -30.5t10 -44.5q0 -28 -13 -48t-34.5 -33t-47.5 -18.5t-53 -5.5z" />
    <glyph glyph-name="four.inferior" unicode="&#x2084;" horiz-adv-x="339" 
d="M178 -150v83h-153v75l161 201h90v-196h45v-80h-45v-83h-98zM113 13h65v112l27 4z" />
    <glyph glyph-name="five.inferior" unicode="&#x2085;" horiz-adv-x="324" 
d="M170 -154q-35 0 -63 6.5t-50 17.5v84q18 -12 40 -19t44 -7q27 0 39.5 10.5t12.5 32.5q0 16 -7.5 25.5t-19 14t-24.5 4.5q-17 0 -30 -5.5t-20 -9.5l-43 38l19 172h211v-83h-139l-4 -47q8 2 18.5 2.5t33.5 0.5q25 0 51.5 -10t44.5 -35t18 -69q0 -46 -18 -73t-48 -38.5
t-66 -11.5z" />
    <glyph glyph-name="six.inferior" unicode="&#x2086;" horiz-adv-x="344" 
d="M179 -154q-89 0 -126 42.5t-37 126.5q0 67 19 107t49.5 59.5t65 25.5t66.5 6q18 0 36.5 -3t30.5 -8v-71q-20 6 -34.5 8t-25.5 2q-13 0 -29 -3.5t-31 -13t-25.5 -26.5t-11.5 -44q9 11 27.5 20.5t58.5 9.5q43 0 74.5 -27.5t31.5 -82.5q0 -37 -15 -66t-45.5 -45.5
t-78.5 -16.5zM169 -89q19 0 29.5 16.5t10.5 39.5q0 28 -11.5 40.5t-26.5 12.5q-14 0 -27 -11t-18 -22q0 -25 6.5 -41.5t16.5 -25.5t20 -9z" />
    <glyph glyph-name="seven.inferior" unicode="&#x2087;" horiz-adv-x="320" 
d="M58 -150l146 326l45 -63h-213v96h264v-51l-127 -308h-115z" />
    <glyph glyph-name="eight.inferior" unicode="&#x2088;" horiz-adv-x="340" 
d="M170 -154q-54 0 -87.5 13.5t-49.5 38t-16 57.5q0 25 11.5 43.5t27.5 29.5t30 15q-10 3 -23 12t-22.5 24.5t-9.5 36.5q0 31 14 52.5t44.5 33t80.5 11.5q49 0 79.5 -11.5t44.5 -33t14 -52.5q0 -22 -9.5 -37t-22 -24t-22.5 -12q13 -4 29.5 -15t28 -29.5t11.5 -43.5
q0 -33 -16 -57.5t-49.5 -38t-87.5 -13.5zM170 -84q25 0 35 14t10 33q0 17 -11.5 30t-33.5 13t-34 -13t-12 -30q0 -19 11.5 -33t34.5 -14zM170 68q16 0 27 9.5t11 27.5q0 17 -9.5 27.5t-28.5 10.5q-17 0 -27 -10.5t-10 -27.5q0 -18 10.5 -27.5t26.5 -9.5z" />
    <glyph glyph-name="nine.inferior" unicode="&#x2089;" horiz-adv-x="346" 
d="M120 -154q-19 0 -37.5 3t-29.5 8v72q20 -6 34.5 -8.5t25.5 -2.5q12 0 28 4t31.5 13.5t25.5 26.5t12 43q-10 -10 -28.5 -20t-58.5 -10q-43 0 -74.5 27.5t-31.5 83.5q0 37 15 65.5t46 45.5t78 17q89 0 126 -42.5t37 -126.5q0 -67 -19 -107t-49 -60t-65 -26t-66 -6zM160 40
q19 0 32 10.5t17 22.5q0 24 -6 41t-16 25.5t-24 8.5q-13 0 -21 -9t-11.5 -21.5t-3.5 -24.5q0 -28 10.5 -40.5t22.5 -12.5z" />
    <glyph glyph-name="colonmonetary" unicode="&#x20a1;" horiz-adv-x="687" 
d="M371 -13q-160 0 -244.5 84.5t-84.5 261.5q0 172 81 260.5t248 88.5q20 0 45.5 -4t51.5 -11t47 -18l-11 -44q-28 -11 -55.5 -23.5t-55.5 -25.5q-59 0 -99.5 -21t-62 -70t-21.5 -132t21.5 -131t64 -68.5t104.5 -20.5q37 0 84 14t99 48v-141q-28 -14 -63.5 -24.5t-74 -16.5
t-74.5 -6zM48 -49l364 671l102 -1l-362 -670h-104zM206 -48l372 702h104l-372 -702h-104z" />
    <glyph glyph-name="franc" unicode="&#x20a3;" horiz-adv-x="570" 
d="M71 0v667h454v-125h-292v-159h252v-127h-252v-256h-162zM4 87v91h301v-91h-301z" />
    <glyph glyph-name="lira" unicode="&#x20a4;" horiz-adv-x="600" 
d="M129 485q0 46 20.5 89.5t67 72t124.5 28.5q47 0 89 -14.5t75 -33.5v-134q-31 25 -63.5 39.5t-68.5 14.5q-34 0 -57 -10.5t-35 -28.5t-12 -43v-332q30 -9 60 -16t57 -8q29 -1 57.5 8.5t61.5 29.5v-124q-27 -22 -55 -30t-57 -8q-38 1 -76 10t-76.5 18t-76.5 9
q-29 0 -57.5 -8t-56.5 -29v127q23 15 42 18.5t37 6.5v348zM50 196v97h374v-97h-374zM50 320v98h374v-98h-374z" />
    <glyph glyph-name="uni20A6" unicode="&#x20a6;" horiz-adv-x="724" 
d="M6 288v91h712v-91h-712zM71 0v667h138l343 -462l-48 -100v562h149v-667h-122l-349 456l38 73v-529h-149z" />
    <glyph glyph-name="peseta" unicode="&#x20a7;" horiz-adv-x="676" 
d="M10 394v92h165v-92h-165zM493 394v92h179v-92h-179zM233 219v-219h-162v667h300q117 0 184 -53t67 -164t-67 -171t-184 -60h-138zM233 344h118q26 0 44.5 7t29.5 20t16.5 30.5t5.5 37.5q0 24 -5.5 42t-16.5 32t-29.5 21t-44.5 7h-118v-197z" />
    <glyph glyph-name="uni20A9" unicode="&#x20a9;" horiz-adv-x="985" 
d="M27 313v92h922v-92h-922zM212 0l-187 667h177l117 -518h-27l150 518h125l153 -525h-30l118 525h177l-187 -667h-160l-147 480h29l-148 -480h-160z" />
    <glyph glyph-name="dong" unicode="&#x20ab;" horiz-adv-x="437" 
d="M199 131q-35 0 -67.5 7.5t-57.5 25.5t-40 50.5t-15 82.5q0 49 11.5 85t33.5 59t51.5 35t63.5 12q25 0 49 -3.5t34 -8.5v51h-74v86h74v52h115v-52h51v-86h-51v-253q0 -43 -18.5 -75.5t-58 -50t-101.5 -17.5zM28 0v87h356v-87h-356zM199 223q37 0 50 10.5t13 23.5v132
q-9 3 -21.5 6t-26.5 3q-39 0 -60 -21.5t-21 -66.5q0 -21 5.5 -37t14.5 -27.5t21 -17t25 -5.5z" />
    <glyph glyph-name="Euro" unicode="&#x20ac;" horiz-adv-x="705" 
d="M436 -7q-50 0 -97 10.5t-87 35t-69.5 66t-44.5 103.5h-89v83h76q-1 10 -1 21v22v22.5t1 21.5h-76v83h89q15 61 44.5 102.5t69.5 66t87 35t97 10.5q53 0 106 -12t104 -32v-125q-52 24 -100.5 34.5t-100.5 10.5q-55 0 -94.5 -20.5t-60.5 -69.5h232v-83h-254
q-1 -10 -1.5 -21.5t-0.5 -22.5t0.5 -22t1.5 -21h254v-83h-232q21 -50 60.5 -70.5t94.5 -20.5q52 0 100.5 10.5t100.5 34.5v-125q-51 -20 -104 -32t-106 -12z" />
    <glyph glyph-name="uni20AD" unicode="&#x20ad;" horiz-adv-x="680" 
d="M19 330v92h538v-92h-538zM226 200l-55 103l266 364h204zM71 0v667h162v-667h-162zM371 413l291 -413h-203l-213 309z" />
    </font>
</defs>
</svg>
