<?xml version="1.0" standalone="no"?>
<!DOCTYPE svg PUBLIC "-//W3C//DTD SVG 1.1//EN" "http://www.w3.org/Graphics/SVG/1.1/DTD/svg11.dtd" >
<svg xmlns="http://www.w3.org/2000/svg" xmlns:xlink="http://www.w3.org/1999/xlink" version="1.1">
<metadata>
Created by FontForge 20170731 at Thu Apr 21 13:14:26 2022
 By Aleksey,,,
Copyright 2011 The Maven Pro Project Authors (http://www.vissol.co.uk/mavenpro/), with Reserved Font Name "Maven Pro".
</metadata>
<defs>
<font id="MavenPro-ExtraBold" horiz-adv-x="0" >
  <font-face 
    font-family="Maven Pro ExtraBold"
    font-weight="800"
    font-stretch="normal"
    units-per-em="1000"
    panose-1="0 0 0 0 0 0 0 0 0 0"
    ascent="800"
    descent="-200"
    x-height="507"
    cap-height="667"
    bbox="-91 -228 1307 1060"
    underline-thickness="50"
    underline-position="-175"
    unicode-range="U+000D-FB02"
  />
<missing-glyph horiz-adv-x="500" 
 />
    <glyph glyph-name="fi" unicode="fi" horiz-adv-x="691" 
d="M99 0v383h-72v124h74v9q0 48 9.5 83.5t26.5 59.5t42 38t55.5 20t66.5 6q16 0 36.5 -2.5t33.5 -7.5v-146q-11 12 -22 19.5t-32 7.5q-12 0 -21.5 -3.5t-16 -10t-10 -17.5t-3.5 -25v-31h105v-124h-107v-383h-165zM460 0v499h166l1 -499h-167zM458 572v123h170v-123h-170z
" />
    <glyph glyph-name="fl" unicode="fl" horiz-adv-x="685" 
d="M99 0v383h-72v124h74v9q0 48 9.5 83.5t26.5 59.5t42 38t55.5 20t66.5 6q16 0 36.5 -2.5t33.5 -7.5v-146q-11 12 -22 19.5t-32 7.5q-12 0 -21.5 -3.5t-16 -10t-10 -17.5t-3.5 -25v-31h105v-124h-107v-383h-165zM622 0h-164v698h164v-698z" />
    <glyph glyph-name=".notdef" horiz-adv-x="500" 
 />
    <glyph glyph-name=".null" 
 />
    <glyph glyph-name="nonmarkingreturn" horiz-adv-x="333" 
 />
    <glyph glyph-name="NULL" 
 />
    <glyph glyph-name="NULL" 
 />
    <glyph glyph-name="CR" unicode="&#xd;" horiz-adv-x="273" 
 />
    <glyph glyph-name="space" unicode=" " horiz-adv-x="273" 
 />
    <glyph glyph-name="exclam" unicode="!" horiz-adv-x="422" 
d="M158 188l-20 479h158l-20 -479h-118zM145 0v121h144v-121h-144z" />
    <glyph glyph-name="quotedbl" unicode="&#x22;" horiz-adv-x="430" 
d="M248 475l-18 201h118l-17 -201h-83zM99 475l-18 201h118l-17 -201h-83z" />
    <glyph glyph-name="numbersign" unicode="#" horiz-adv-x="623" 
d="M128 19l19 103h-73v86h86l22 124h-81v86h96l18 104h91l-19 -104h110l19 104h91l-20 -104h63v-86h-76l-22 -124h71v-86h-85l-18 -103h-91l18 103h-111l-17 -103h-91zM251 208h112l20 124h-110z" />
    <glyph glyph-name="dollar" unicode="$" horiz-adv-x="581" 
d="M236 615v140h123v-140h-123zM236 -99v141h123v-141h-123zM299 -14q-50 0 -93 4t-79.5 13.5t-69.5 25.5v170q50 -39 109 -57.5t107 -18.5q38 0 61 14t23 48q0 23 -22.5 37.5t-60 26t-84.5 27.5q-28 10 -54.5 24t-47.5 35t-34 52t-13 75t16.5 84t49.5 71t84 48.5t119 17.5
q41 0 74 -4.5t62.5 -14.5t59.5 -25v-172q-22 19 -51.5 36t-61.5 29t-64 14q-27 1 -50.5 -4.5t-38 -19.5t-14.5 -38q0 -25 16.5 -39.5t46 -24t65.5 -19.5q42 -12 76.5 -27t59.5 -37t39 -53.5t14 -76.5q0 -64 -30 -114t-84.5 -78.5t-129.5 -28.5z" />
    <glyph glyph-name="percent" unicode="%" horiz-adv-x="835" 
d="M190 311q-90 0 -130 46.5t-40 137.5q0 92 40 138t130 46q91 0 130.5 -46t39.5 -138q0 -91 -39.5 -137.5t-130.5 -46.5zM190 404q13 0 25 7t20.5 27t8.5 57q0 39 -8.5 58.5t-20.5 27t-25 7.5q-12 0 -24.5 -7.5t-21 -27t-8.5 -58.5q0 -37 8.5 -57t21 -27t24.5 -7zM645 -13
q-90 0 -130 46.5t-40 137.5q0 92 40 138t130 46q91 0 130.5 -46t39.5 -138q0 -91 -39.5 -137.5t-130.5 -46.5zM645 80q13 0 25 7t20.5 27t8.5 57q0 39 -8.5 58.5t-20.5 27t-25 7.5q-12 0 -24.5 -7.5t-21 -27t-8.5 -58.5q0 -37 8.5 -57t21 -27t24.5 -7zM155 -22l407 707h116
l-407 -707h-116z" />
    <glyph glyph-name="ampersand" unicode="&#x26;" horiz-adv-x="694" 
d="M459 0l-300 365q-20 26 -40.5 62t-20.5 73q0 48 29.5 89t81.5 66.5t118 25.5q64 0 110.5 -21.5t72.5 -59.5t26 -86q0 -46 -22 -78.5t-60.5 -59.5t-89.5 -57l-60 91q29 16 45.5 30t23.5 27.5t7 27.5q0 24 -14.5 38t-39.5 14q-24 0 -40 -14.5t-16 -36.5q0 -12 7 -25t16 -25
l15 -20l352 -426h-201zM252 -14q-49 0 -88.5 14t-67.5 39.5t-43 58t-15 69.5q0 35 15 70t50 67t94 58l101 -78q-22 -13 -39.5 -30.5t-28 -35t-10.5 -35.5q0 -10 2.5 -22t9 -23t20.5 -17.5t38 -6.5q26 0 54.5 17t43.5 37l79 -97q-20 -24 -47.5 -43t-68 -30.5t-99.5 -11.5z
M456 217q14 16 22.5 36.5t12 35.5t4.5 17h120q-6 -35 -27.5 -82.5t-49.5 -88.5z" />
    <glyph glyph-name="quotesingle" unicode="'" horiz-adv-x="280" 
d="M99 475l-18 201h118l-17 -201h-83z" />
    <glyph glyph-name="parenleft" unicode="(" horiz-adv-x="356" 
d="M199 -113q-37 40 -73 103t-59 143t-23 173t23 173t59 143t73 102h135q-15 -28 -33 -70.5t-34.5 -96t-27 -117t-10.5 -134.5t10.5 -134.5t27 -117.5t34.5 -96t33 -71h-135z" />
    <glyph glyph-name="parenright" unicode=")" horiz-adv-x="356" 
d="M23 -113q14 28 32 70.5t34.5 96t27 117.5t10.5 134q0 71 -10.5 134.5t-27 117.5t-34.5 96t-32 71h134q38 -40 73.5 -103t58.5 -142.5t23 -173.5q0 -92 -23 -172.5t-58.5 -143t-73.5 -102.5h-134z" />
    <glyph glyph-name="asterisk" unicode="*" horiz-adv-x="413" 
d="M171 460l7 68l-58 -41l-36 64l79 30l-79 30l36 64l58 -41l-7 68h74l-5 -68l56 41l37 -64l-78 -30l78 -30l-37 -64l-56 41l5 -68h-74z" />
    <glyph glyph-name="plus" unicode="+" horiz-adv-x="551" 
d="M223 119v128h-129v104h129v129h104v-129h128v-104h-128v-128h-104z" />
    <glyph glyph-name="comma" unicode="," horiz-adv-x="359" 
d="M74 -112l74 196h130l-94 -196h-110z" />
    <glyph glyph-name="hyphen" unicode="-" horiz-adv-x="464" 
d="M79 253v110h305v-110h-305z" />
    <glyph glyph-name="period" unicode="." horiz-adv-x="263" 
d="M55 0v149h154v-149h-154z" />
    <glyph glyph-name="slash" unicode="/" horiz-adv-x="454" 
d="M-14 -98l367 854h116l-368 -854h-115z" />
    <glyph glyph-name="zero" unicode="0" horiz-adv-x="671" 
d="M335 -14q-154 0 -225 86.5t-71 261.5q0 173 71 260t225 87q156 0 226.5 -87t70.5 -260q0 -175 -70.5 -261.5t-226.5 -86.5zM335 131q21 0 41 7.5t36 28.5t26 61t10 106q0 64 -10 104t-26 60.5t-36 28.5t-41 8q-20 0 -40 -8t-36.5 -28.5t-25.5 -60.5t-9 -104q0 -66 9 -106
t25.5 -61t36.5 -28.5t40 -7.5z" />
    <glyph glyph-name="one" unicode="1" horiz-adv-x="474" 
d="M178 0v493l-129 -69v157l154 86h156v-667h-181z" />
    <glyph glyph-name="two" unicode="2" horiz-adv-x="614" 
d="M69 0v125q34 19 72.5 47t75.5 62.5t67 70.5t48.5 72t18.5 68q0 37 -15.5 59t-40 31t-50.5 9q-46 0 -86.5 -22t-84.5 -57v152q41 25 96.5 44.5t131.5 19.5q73 0 124.5 -23.5t78.5 -70t27 -115.5q0 -48 -17.5 -89t-48 -76t-66.5 -64.5t-73.5 -55t-69.5 -48.5l-34 25h323
v-164h-477z" />
    <glyph glyph-name="three" unicode="3" horiz-adv-x="597" 
d="M269 -8q-54 0 -104.5 16t-94.5 38v151q47 -28 93.5 -50t98.5 -22q51 0 81 18t30 53q0 36 -24 58.5t-90 22.5h-104v132h106q43 0 62.5 19t19.5 44q0 27 -14 41t-37 20t-48 6q-33 0 -69 -7.5t-92 -34.5v134q38 20 84 32.5t94 12.5q42 0 84.5 -9.5t77.5 -31t56.5 -56.5
t21.5 -86q0 -26 -9.5 -48.5t-25 -40t-33 -28.5t-34.5 -14q25 -7 48 -22.5t41.5 -37.5t29.5 -51t11 -64q0 -56 -23 -93.5t-61 -59.5t-83.5 -32t-92.5 -10z" />
    <glyph glyph-name="four" unicode="4" horiz-adv-x="614" 
d="M318 0v175h-279v123l295 369h166v-358h83v-134h-83v-175h-182zM189 309h129v161z" />
    <glyph glyph-name="five" unicode="5" horiz-adv-x="605" 
d="M278 -13q-65 0 -119.5 17.5t-80.5 38.5v167q17 -19 45 -37t62 -29t69 -11q27 0 50.5 5t40.5 15.5t26.5 26.5t9.5 37q0 30 -13 49.5t-36.5 29t-52.5 9.5q-26 0 -50.5 -5t-43 -12t-28.5 -12l-78 86l45 306h386v-155h-275l-27 -178l-115 44q41 41 99.5 59.5t137.5 18.5
q47 0 89.5 -13.5t75.5 -40.5t52 -69.5t19 -101.5q0 -71 -23.5 -118.5t-64.5 -75t-93 -39.5t-107 -12z" />
    <glyph glyph-name="six" unicode="6" horiz-adv-x="634" 
d="M309 -13q-140 0 -204.5 83.5t-64.5 237.5q0 100 22.5 167.5t60.5 108t82.5 61.5t89 28.5t80.5 7.5q54 0 93.5 -8.5t62.5 -18.5v-151q-33 16 -66 25t-77 9q-37 0 -65 -8.5t-47.5 -26t-31.5 -42t-17.5 -55.5t-5.5 -67q0 -65 7.5 -106t21 -62t32.5 -29t41 -8q23 0 39 6.5
t27.5 17t16.5 26t5 33.5q0 48 -22.5 71t-59.5 23q-33 0 -54.5 -10.5t-34.5 -34t-20 -60.5l-44 66q4 23 16 51.5t34 55t55.5 44t81.5 17.5q119 -1 175.5 -57t56.5 -169q0 -50 -18.5 -92t-54.5 -72t-89 -46t-124 -16z" />
    <glyph glyph-name="seven" unicode="7" horiz-adv-x="595" 
d="M128 0l239 543l30 -41h-330v165h484v-100l-225 -567h-198z" />
    <glyph glyph-name="eight" unicode="8" horiz-adv-x="641" 
d="M321 -13q-71 0 -124 14t-88 39.5t-52.5 62.5t-17.5 83q0 32 10 57t26 44t36 33t41 22q-16 8 -33 20t-31.5 29.5t-23 41t-8.5 52.5q0 66 29 109.5t87.5 65t148.5 21.5q89 0 148 -21.5t88 -65t29 -109.5q0 -30 -8.5 -53t-23 -40.5t-31 -29.5t-33.5 -20q21 -8 41 -22t36 -33
t26 -44t10 -57q0 -46 -17.5 -83t-52.5 -62.5t-88 -39.5t-124 -14zM321 125q25 0 42.5 8.5t27.5 22.5t15 30t5 32q0 18 -10 36.5t-30 30.5t-50 12t-50 -12t-30 -30.5t-10 -36.5q0 -16 5 -32t15 -30t27.5 -22.5t42.5 -8.5zM321 392q16 0 34.5 8t31 24.5t12.5 40.5
q0 21 -10 38.5t-27.5 28t-40.5 10.5t-40.5 -10.5t-27.5 -28t-10 -38.5q0 -24 12.5 -40.5t31 -24.5t34.5 -8z" />
    <glyph glyph-name="nine" unicode="9" horiz-adv-x="637" 
d="M259 -13q-54 0 -93.5 8.5t-61.5 18.5v151q32 -16 65 -25t77 -9q37 0 65 8.5t47.5 26t31.5 42t17.5 55.5t5.5 67q0 65 -7 106t-21.5 62t-33.5 29t-44 8q-21 0 -36.5 -6.5t-26 -17t-16 -26t-5.5 -33.5q0 -47 23 -70.5t60 -23.5q33 0 54 10.5t34.5 34t19.5 60.5l44 -66
q-4 -23 -15.5 -51.5t-33.5 -55t-56 -44t-81 -17.5q-119 1 -175.5 57t-56.5 169q0 51 17.5 92.5t52.5 71.5t84 46t113 16q154 0 221 -83t67 -238q0 -100 -23 -167.5t-61 -108t-82 -61.5t-88.5 -28.5t-81.5 -7.5z" />
    <glyph glyph-name="colon" unicode=":" horiz-adv-x="419" 
d="M140 333v129h135v-129h-135zM140 37v129h135v-129h-135z" />
    <glyph glyph-name="semicolon" unicode=";" horiz-adv-x="314" 
d="M36 -112l72 213h149l-111 -213h-110zM105 313v149h154v-149h-154z" />
    <glyph glyph-name="less" unicode="&#x3c;" horiz-adv-x="667" 
d="M540 37l-420 187v87l420 187v-127l-259 -103l259 -104v-127z" />
    <glyph glyph-name="equal" unicode="=" horiz-adv-x="638" 
d="M123 341v110h392v-110h-392zM123 146v110h392v-110h-392z" />
    <glyph glyph-name="greater" unicode="&#x3e;" horiz-adv-x="658" 
d="M118 37v127l259 104l-259 103v127l420 -187v-87z" />
    <glyph glyph-name="question" unicode="?" horiz-adv-x="519" 
d="M177 188v19q0 55 15 90.5t36.5 60t44 42.5t37.5 37t15 46q0 33 -14.5 48.5t-36.5 21t-46 5.5q-38 0 -78 -12.5t-70 -36.5v120q15 11 41 21.5t58.5 17.5t67.5 7q53 0 92 -15t64 -41.5t37.5 -61.5t12.5 -75q0 -43 -15 -71t-37 -49t-44.5 -41.5t-37.5 -48t-15 -68.5v-16
h-127zM169 0v121h144v-121h-144z" />
    <glyph glyph-name="at" unicode="@" horiz-adv-x="913" 
d="M409 -150q-38 0 -82.5 11t-88 35.5t-79 63.5t-57 94t-21.5 128q0 93 38 170t100 133t137.5 86.5t151.5 30.5q38 0 83 -11t89.5 -35.5t80.5 -62.5t58 -92.5t22 -125.5q0 -46 -10 -91t-31.5 -81.5t-54.5 -57.5t-78 -21q-25 0 -43 10t-28.5 24.5t-16.5 26.5
q-15 -26 -49.5 -43.5t-87.5 -17.5q-75 0 -118.5 33.5t-43.5 92.5q0 23 8.5 48t31.5 48t67.5 37t117.5 14q14 0 27 -0.5t27 -2.5v8.5t-1 7.5q-1 16 -8.5 28t-24.5 19.5t-48 7.5q-34 0 -69 -5t-68 -17l13 83q28 8 63 16.5t68 8.5q81 0 123 -37.5t42 -110.5q0 -38 -7.5 -76
t-8.5 -77q0 -12 2.5 -27t11.5 -25.5t29 -10.5t44 19.5t42.5 61t18.5 107.5q0 64 -25 113.5t-66 83t-89.5 51t-95.5 17.5q-70 0 -134.5 -28t-116 -78t-81.5 -115t-30 -140q0 -67 21.5 -114t55 -77.5t70.5 -47.5t69 -23.5t50 -6.5q65 0 120.5 13t105.5 38l-10 -69
q-43 -19 -97 -30.5t-119 -11.5zM442 114q31 0 50.5 7t30.5 20t17 33t8 46q-11 1 -21.5 1h-21.5q-135 0 -135 -69q0 -16 11 -24.5t27.5 -11t33.5 -2.5z" />
    <glyph glyph-name="A" unicode="A" horiz-adv-x="702" 
d="M12 0l249 667h199l230 -667h-186l-209 636l93 8l-208 -644h-168zM159 131l34 129h298l17 -129h-349z" />
    <glyph glyph-name="B" unicode="B" horiz-adv-x="680" 
d="M68 0v667h296q70 0 124.5 -17.5t87 -58t32.5 -110.5q0 -45 -24 -75.5t-57.5 -48t-62.5 -27.5l-21 41q61 -2 105 -22.5t68.5 -57t24.5 -87.5q0 -70 -34.5 -115.5t-91 -67t-123.5 -21.5h-324zM250 138h127q21 0 38.5 7t28 23.5t10.5 42.5q0 19 -6.5 32.5t-17 21.5t-25.5 12
t-31 4h-124v-143zM249 410h122q14 0 25.5 6.5t19.5 19t8 30.5q0 35 -19 49t-44 14h-112v-119z" />
    <glyph glyph-name="C" unicode="C" horiz-adv-x="631" 
d="M367 -14q-162 0 -247.5 84t-85.5 263q0 173 81.5 261.5t251.5 88.5q53 0 107.5 -13t106.5 -36v-156q-54 36 -102 51.5t-87 15.5q-54 0 -92 -19.5t-58.5 -65.5t-20.5 -128q0 -79 21 -125t60.5 -64.5t97.5 -18.5q34 0 80.5 15t100.5 50v-156q-27 -14 -63.5 -24.5t-76 -16.5
t-74.5 -6z" />
    <glyph glyph-name="D" unicode="D" horiz-adv-x="721" 
d="M68 0v667h280q173 0 253.5 -85t80.5 -249q0 -163 -80.5 -248t-253.5 -85h-280zM249 138h77q83 0 126.5 46.5t43.5 148.5q0 103 -43.5 149.5t-126.5 46.5h-77v-391z" />
    <glyph glyph-name="E" unicode="E" horiz-adv-x="595" 
d="M68 0v667h465v-138h-283v-126h244v-138h-245v-127h284v-138h-465z" />
    <glyph glyph-name="F" unicode="F" horiz-adv-x="576" 
d="M68 0v667h463v-138h-282v-143h243v-139h-243v-247h-181z" />
    <glyph glyph-name="G" unicode="G" horiz-adv-x="710" 
d="M368 -14q-98 0 -172 34t-115.5 110.5t-41.5 202.5q0 123 41.5 200.5t115.5 113.5t171 36q65 0 126.5 -13t118.5 -36v-163q-63 34 -114.5 53.5t-106.5 19.5q-52 0 -89.5 -18.5t-57.5 -64t-20 -127.5q0 -80 21 -126.5t56.5 -65.5t79.5 -19q25 0 45.5 3.5t34.5 10.5v103
h-100v138h281v-316q-64 -37 -133.5 -56.5t-140.5 -19.5z" />
    <glyph glyph-name="H" unicode="H" horiz-adv-x="719" 
d="M68 0v667h181v-263h221v263h181v-667h-181v257h-221v-257h-181z" />
    <glyph glyph-name="I" unicode="I" horiz-adv-x="318" 
d="M68 0v667h182v-667h-182z" />
    <glyph glyph-name="J" unicode="J" horiz-adv-x="484" 
d="M195 -14q-45 0 -86 11t-77 27v163q35 -25 63 -42t54 -17q38 0 61.5 19.5t23.5 63.5v456h182v-464q0 -62 -19.5 -104t-51 -67t-71 -35.5t-79.5 -10.5z" />
    <glyph glyph-name="K" unicode="K" horiz-adv-x="694" 
d="M242 198l-66 105l254 364h228zM68 0v667h182v-667h-182zM394 421l283 -421h-225l-198 306z" />
    <glyph glyph-name="L" unicode="L" horiz-adv-x="561" 
d="M68 0v667h182v-528h278v-139h-460z" />
    <glyph glyph-name="M" unicode="M" horiz-adv-x="859" 
d="M68 0v667h183l225 -306l-95 -2l232 308h178v-667h-181v534l31 -62l-217 -286l-220 293l36 22v-501h-172z" />
    <glyph glyph-name="N" unicode="N" horiz-adv-x="725" 
d="M68 0v667h150l328 -435l-55 -116v551h166v-667h-132l-330 424l38 82v-506h-165z" />
    <glyph glyph-name="O" unicode="O" horiz-adv-x="740" 
d="M370 -14q-99 0 -173.5 37t-116 114t-41.5 196q0 172 87.5 260t243.5 88q99 0 173.5 -37t116 -113.5t41.5 -196.5q0 -172 -87 -260t-244 -88zM370 132q45 0 77 19t49.5 63.5t17.5 120.5q0 75 -17.5 119t-49.5 62.5t-77 18.5t-77 -19.5t-49.5 -63.5t-17.5 -120
q0 -75 17.5 -118.5t49.5 -62.5t77 -19z" />
    <glyph glyph-name="P" unicode="P" horiz-adv-x="675" 
d="M249 211v-211h-181v667h313q118 0 186.5 -53t68.5 -167q0 -113 -68.5 -174.5t-186.5 -61.5h-132zM249 349h110q19 0 34.5 5.5t25.5 17t15.5 27.5t5.5 36q0 23 -5.5 40t-15.5 29.5t-25.5 18.5t-34.5 6h-110v-180z" />
    <glyph glyph-name="Q" unicode="Q" horiz-adv-x="740" 
d="M370 -23q-161 0 -246 85.5t-85 270.5q0 178 81.5 267.5t249.5 89.5q162 0 246.5 -85.5t84.5 -270.5q0 -178 -81 -267.5t-250 -89.5zM370 98q45 0 77.5 20.5t49.5 71.5t17 145q0 84 -17.5 131t-49.5 66.5t-77 19.5t-77 -20t-49.5 -67.5t-17.5 -132.5q0 -92 17.5 -143
t49.5 -71t77 -20zM634 -3q19 0 32 3.5t34 16.5v-107q-16 -9 -41 -14t-60 -5q-27 0 -55.5 6.5t-53.5 23t-43.5 46.5t-26.5 78q-6 41 -20 70.5t-32.5 45.5t-39.5 16q-30 0 -57 -13.5t-48 -43.5v110q17 29 55 50t85 21q37 0 73.5 -16t65.5 -57.5t43 -117.5q11 -48 33 -80.5
t56 -32.5z" />
    <glyph glyph-name="R" unicode="R" horiz-adv-x="726" 
d="M68 0v667h336q116 0 183 -53t67 -162q0 -41 -16.5 -83t-50 -73.5t-84.5 -42.5l-20 61l207 -314h-232l-161 287l79 -66h-127v-221h-181zM249 351h129q34 0 57 21t23 71q0 44 -21.5 65t-54.5 21h-133v-178z" />
    <glyph glyph-name="S" unicode="S" horiz-adv-x="581" 
d="M299 -14q-50 0 -93 4t-79.5 13.5t-69.5 25.5v170q50 -39 109 -57.5t107 -18.5q38 0 61 14t23 48q0 23 -22.5 37.5t-60 26t-84.5 27.5q-28 10 -54.5 24t-47.5 35t-34 52t-13 75t16.5 84t49.5 71t84 48.5t119 17.5q41 0 74 -4.5t62.5 -14.5t59.5 -25v-172q-22 19 -51.5 36
t-61.5 29t-64 14q-27 1 -50.5 -4.5t-38 -19.5t-14.5 -38q0 -25 16.5 -39.5t46 -24t65.5 -19.5q42 -12 76.5 -27t59.5 -37t39 -53.5t14 -76.5q0 -64 -30 -114t-84.5 -78.5t-129.5 -28.5z" />
    <glyph glyph-name="T" unicode="T" horiz-adv-x="587" 
d="M202 0v529h-178v138h539v-138h-181v-529h-180z" />
    <glyph glyph-name="U" unicode="U" horiz-adv-x="733" 
d="M384 -23q-159 0 -237.5 64t-78.5 203v423h189v-413q0 -71 27.5 -105t90.5 -34q56 0 87 34t31 105v413h172v-423q0 -93 -36 -152t-99.5 -87t-145.5 -28z" />
    <glyph glyph-name="V" unicode="V" horiz-adv-x="728" 
d="M259 0l-247 667h210l180 -559h-58l179 559h193l-263 -667h-194z" />
    <glyph glyph-name="W" unicode="W" horiz-adv-x="1017" 
d="M206 0l-181 667h198l101 -500h-27l143 500h137l144 -506h-29l101 506h199l-181 -667h-179l-138 457h31l-141 -457h-178z" />
    <glyph glyph-name="X" unicode="X" horiz-adv-x="699" 
d="M688 0h-226l-451 667h226zM348 427l135 240h197l-239 -373zM374 274l-158 -274h-195l263 400z" />
    <glyph glyph-name="Y" unicode="Y" horiz-adv-x="712" 
d="M277 0v285l-254 382h223l186 -320l-86 -1l165 321h177l-256 -427l26 93v-333h-181z" />
    <glyph glyph-name="Z" unicode="Z" horiz-adv-x="639" 
d="M52 0v130l340 429l47 -32h-383v140h530v-127l-321 -421l-62 20h383v-139h-534z" />
    <glyph glyph-name="bracketleft" unicode="[" horiz-adv-x="399" 
d="M73 -116v812h284v-146h-103v-519h103v-147h-284z" />
    <glyph glyph-name="backslash" unicode="\" horiz-adv-x="421" 
d="M331 -98l-368 854h116l367 -854h-115z" />
    <glyph glyph-name="bracketright" unicode="]" horiz-adv-x="410" 
d="M68 -116v146h103v519h-103v147h284v-812h-284z" />
    <glyph glyph-name="asciicircum" unicode="^" horiz-adv-x="586" 
d="M122 469l133 221h69l136 -221h-104l-65 125l-66 -125h-103z" />
    <glyph glyph-name="underscore" unicode="_" horiz-adv-x="546" 
d="M0 -117v93h546v-93h-546z" />
    <glyph glyph-name="grave" unicode="`" horiz-adv-x="270" 
d="M143 549l-117 125h162l44 -125h-89z" />
    <glyph glyph-name="a" unicode="a" horiz-adv-x="575" 
d="M263 -15q-49 0 -90.5 8.5t-72.5 28.5t-48 55t-17 85q0 45 18.5 79t58.5 54t102 20q33 0 65 -7.5t58 -20t40 -27.5l5 -74q-20 11 -45 17.5t-52 6.5q-46 0 -66.5 -12.5t-20.5 -41.5q0 -15 9.5 -28t25 -21t33.5 -8q48 0 65.5 6t17.5 25v176q0 44 -28.5 63.5t-80.5 19.5
q-45 0 -90 -17t-71 -38v145q24 16 79.5 30t127.5 14q21 0 50.5 -3.5t60 -13.5t57 -30t42.5 -52t16 -81l-1 -238q0 -41 -28.5 -68t-83.5 -39.5t-136 -12.5z" />
    <glyph glyph-name="b" unicode="b" horiz-adv-x="608" 
d="M302 -15q-43 0 -85.5 6t-77.5 20.5t-55.5 41.5t-20.5 71v566h162v-278l-29 52q17 23 45 36t57 18t47 5q111 0 170 -67.5t59 -200.5q0 -74 -19 -126t-55 -83.5t-86 -46t-112 -14.5zM301 122q38 0 62.5 14.5t35.5 42t11 65.5q0 58 -14.5 90t-39 45.5t-55.5 13.5
q-17 0 -38 -4.5t-38 -13.5v-208q0 -16 9.5 -26.5t26.5 -14.5t40 -4z" />
    <glyph glyph-name="c" unicode="c" horiz-adv-x="504" 
d="M306 -14q-57 0 -106 17.5t-86.5 50.5t-58.5 81t-21 110q0 67 19 119t55 87t85.5 53t110.5 18q43 0 87.5 -8.5t76.5 -24.5v-140q-35 17 -68 28t-68 11q-58 0 -96 -28.5t-38 -93.5q0 -70 32.5 -106.5t109.5 -36.5q37 0 71.5 14t58.5 28v-138q-35 -20 -73.5 -30.5
t-90.5 -10.5z" />
    <glyph glyph-name="d" unicode="d" horiz-adv-x="617" 
d="M312 -15q-64 0 -115 13.5t-87.5 44.5t-56 83.5t-19.5 131.5q0 124 61 196t184 72q14 0 39 -2.5t53 -12.5t51 -36l-31 -52v292h163v-574q0 -38 -19.5 -67.5t-53.5 -49t-77.5 -29.5t-91.5 -10zM319 122q33 0 52.5 9t19.5 28v216q-16 9 -33.5 13.5t-33.5 4.5q-40 0 -68 -12
t-42 -42.5t-14 -86.5q0 -42 12 -71t38.5 -44t68.5 -15z" />
    <glyph glyph-name="e" unicode="e" horiz-adv-x="565" 
d="M297 -15q-78 0 -137.5 31.5t-92.5 90t-33 138.5q0 133 67 207t193 74q84 0 136 -36t77 -107t24 -174h-382l-20 101h262l-20 -54q-1 81 -20.5 113.5t-64.5 32.5q-24 0 -44 -13.5t-31.5 -43.5t-11.5 -81q0 -69 32.5 -105.5t107.5 -36.5q27 0 54 6.5t50 15.5t39 14v-140
q-35 -13 -79.5 -23t-105.5 -10z" />
    <glyph glyph-name="f" unicode="f" horiz-adv-x="398" 
d="M99 0v383h-72v124h74v9q0 48 9.5 83.5t26.5 59.5t42 38t55.5 20t66.5 6q16 0 36.5 -2.5t33.5 -7.5v-146q-11 12 -22 19.5t-32 7.5q-12 0 -21.5 -3.5t-16 -10t-10 -17.5t-3.5 -25v-31h105v-124h-107v-383h-165z" />
    <glyph glyph-name="g" unicode="g" horiz-adv-x="598" 
d="M255 -15q-67 4 -116.5 31.5t-77 82t-27.5 139.5q0 83 20 138.5t58 87.5t93 45.5t125 13.5q67 0 114.5 -16.5t73 -47.5t25.5 -75v-387q0 -58 -18.5 -100t-54 -70t-84.5 -41.5t-110 -13.5q-71 0 -121 10t-75 24v146q15 -8 45.5 -18.5t69 -18t76.5 -7.5q42 0 66 12.5t34 34
t10 50.5v83l31 -20q-15 -25 -36 -44t-50 -29t-71 -10zM302 106q24 0 43.5 5t35.5 15v220q0 20 -10.5 30t-27.5 13.5t-35 3.5q-40 0 -64 -17.5t-35 -50.5t-11 -77q0 -66 30 -104t74 -38z" />
    <glyph glyph-name="h" unicode="h" horiz-adv-x="619" 
d="M63 0v703h166v-305l-74 38q41 38 98 62t118 24q53 0 95 -16.5t66 -56t24 -110.5v-339h-165v302q0 45 -23 65t-67 20q-21 0 -42.5 -6.5t-29.5 -13.5l-2 -367h-164z" />
    <glyph glyph-name="i" unicode="i" horiz-adv-x="296" 
d="M65 0v499h166l1 -499h-167zM63 572v123h170v-123h-170z" />
    <glyph glyph-name="j" unicode="j" horiz-adv-x="311" 
d="M6 -193v132q23 -3 40 2.5t26 20.5t9 38v507h165l2 -505q0 -77 -32.5 -119.5t-87.5 -59t-122 -16.5zM78 580v124h170v-124h-170z" />
    <glyph glyph-name="k" unicode="k" horiz-adv-x="604" 
d="M192 275l179 232h201l-280 -304zM227 0h-164v698h166zM322 351l257 -351h-208l-168 238z" />
    <glyph glyph-name="l" unicode="l" horiz-adv-x="290" 
d="M227 0h-164v698h164v-698z" />
    <glyph glyph-name="m" unicode="m" horiz-adv-x="923" 
d="M546 344v-344h-166v306q0 20 -5 35.5t-16 25.5t-28 15t-41 5q-21 0 -37.5 -5.5t-24.5 -11.5v-370h-165v464q18 10 50 20t71 18.5t79 14t73 5.5q67 0 114 -16t71.5 -55t24.5 -107zM380 427q31 28 77 49t97.5 33.5t95.5 12.5q67 0 114 -16t71.5 -55t24.5 -107v-344h-166
v306q0 20 -5 35.5t-16 25.5t-28 15t-41 5q-21 0 -37.5 -6t-24.5 -14z" />
    <glyph glyph-name="n" unicode="n" horiz-adv-x="617" 
d="M63 464q18 10 50 20t71 18.5t79 14t73 5.5q67 0 116 -16t75.5 -55t26.5 -107v-344h-165v306q0 20 -5.5 35.5t-16 25.5t-28 15t-41.5 5q-21 0 -41.5 -5.5t-28.5 -11.5v-370h-165v464z" />
    <glyph glyph-name="o" unicode="o" horiz-adv-x="594" 
d="M296 -15q-131 0 -196.5 68t-65.5 203q0 147 66 208.5t196 61.5q86 0 145 -27.5t89.5 -87t30.5 -155.5q0 -134 -68.5 -202.5t-196.5 -68.5zM296 116q32 0 54.5 15t34.5 46.5t12 78.5q0 56 -12 86.5t-34.5 42.5t-54.5 12q-33 0 -55 -12.5t-32.5 -43t-10.5 -85.5
q0 -73 24 -106.5t74 -33.5z" />
    <glyph glyph-name="p" unicode="p" horiz-adv-x="607" 
d="M352 -15q-13 0 -42 2.5t-61 13t-55 35.5l31 52v-261h-162v570q0 33 19 57t52.5 40t79 24t98.5 8q79 0 137.5 -25.5t91 -85.5t32.5 -164q0 -79 -26.5 -139t-75.5 -93.5t-119 -33.5zM299 116q36 0 60.5 12.5t37 43t12.5 85.5q0 43 -10 72.5t-32.5 44t-61.5 14.5
q-47 0 -63.5 -8.5t-16.5 -22.5v-223q17 -9 37.5 -13.5t36.5 -4.5z" />
    <glyph glyph-name="q" unicode="q" horiz-adv-x="608" 
d="M308 522q67 0 120.5 -13t85 -44.5t31.5 -88.5v-566h-162v286l29 -51q-21 -31 -51 -43t-56.5 -14.5t-40.5 -2.5q-110 0 -170 67t-60 193q0 76 19 129.5t55.5 86t86.5 47t113 14.5zM307 386q-38 0 -62 -15.5t-35.5 -44t-11.5 -70.5q0 -53 15 -84t40 -43.5t55 -12.5
q18 0 38.5 4.5t36.5 13.5v207q0 16 -10 26t-27 14.5t-39 4.5z" />
    <glyph glyph-name="r" unicode="r" horiz-adv-x="439" 
d="M63 0v451q15 14 51 30.5t82.5 29t91.5 12.5q55 0 86 -8t47 -20v-119q-16 4 -42 7t-55 4t-54.5 0t-41.5 -3v-384h-165z" />
    <glyph glyph-name="s" unicode="s" horiz-adv-x="487" 
d="M215 -15q-54 0 -93 12t-71 24v142q18 -13 44.5 -27.5t59 -24.5t69.5 -10q32 0 43 10.5t11 24.5t-15 23.5t-39 16.5t-51 12q-23 4 -45.5 14.5t-41 29t-29 46t-10.5 64.5q0 51 19.5 84.5t52 54t69.5 29.5t72 8q66 -2 103 -14t66 -31l1 -125q-33 18 -67.5 35t-78.5 17
q-37 0 -51 -11t-14 -28t10.5 -26.5t28 -15t37.5 -11.5q25 -6 52 -14t50 -24t37.5 -44t14.5 -74q-1 -63 -33.5 -99.5t-85.5 -52t-115 -15.5z" />
    <glyph glyph-name="t" unicode="t" horiz-adv-x="423" 
d="M281 -22q-95 0 -140 43t-45 122v240h-71v124h71v139h174v-139h108v-124h-108v-222q0 -22 11 -33t34 -11q14 0 32 6.5t31 16.5v-140q-24 -13 -49 -17.5t-48 -4.5z" />
    <glyph glyph-name="u" unicode="u" horiz-adv-x="606" 
d="M308 -15q-72 0 -127 21.5t-86.5 68t-31.5 120.5v312h165v-300q0 -42 19.5 -63t61.5 -21t61 21t19 63v300h154v-312q0 -110 -63.5 -160t-171.5 -50z" />
    <glyph glyph-name="v" unicode="v" horiz-adv-x="632" 
d="M233 0l-211 507h179l148 -380h-41l126 380h176l-211 -507h-166z" />
    <glyph glyph-name="w" unicode="w" horiz-adv-x="833" 
d="M193 0l-171 507h179l107 -400l-53 -2l102 402h119l99 -390h-43l103 390h176l-169 -507h-148l-93 303l28 -2l-89 -301h-147z" />
    <glyph glyph-name="x" unicode="x" horiz-adv-x="607" 
d="M324 198l-132 -198h-174l233 302zM579 0h-195l-361 507h194zM278 303l137 204h173l-237 -309z" />
    <glyph glyph-name="y" unicode="y" horiz-adv-x="605" 
d="M185 -196q-27 0 -53.5 5t-46.5 14v133q19 -6 33.5 -9t29.5 -3q23 0 41 10.5t30 36.5t17 75l4 -96l-218 537h189l105 -340h-15l103 340h178l-195 -506q-28 -72 -60 -115.5t-68 -62.5t-74 -19z" />
    <glyph glyph-name="z" unicode="z" horiz-adv-x="500" 
d="M45 0v130l266 288l14 -33h-275v122h405v-127l-242 -292l-6 43h248v-131h-410z" />
    <glyph glyph-name="braceleft" unicode="{" horiz-adv-x="396" 
d="M330 -109q-88 0 -137 20.5t-69 56t-20 80.5v136q0 23 -12 35.5t-25 17t-15 5.5v106q2 0 15 5t25 17t12 35v136q0 46 20 81.5t69 56t137 20.5h27v-146h-20q-24 -1 -35 -10.5t-14 -24.5t-3 -33v-85q0 -46 -28 -71t-62 -34q34 -9 62 -34t28 -72v-84q0 -19 3 -34t14 -24.5
t35 -9.5h20v-146h-27z" />
    <glyph glyph-name="bar" unicode="|" horiz-adv-x="484" 
d="M185 -99v766h123v-766h-123z" />
    <glyph glyph-name="braceright" unicode="}" horiz-adv-x="389" 
d="M49 -109v146h19q25 0 36 9.5t14 24.5t3 34v84q0 47 28.5 72t60.5 34q-32 9 -60.5 34t-28.5 71v85q0 18 -3 33t-14 24.5t-36 10.5h-19v146h26q88 0 137.5 -20.5t69.5 -56t20 -81.5v-136q0 -23 12 -35t25 -17t15 -5v-106q-2 -1 -15 -5.5t-25 -17t-12 -35.5v-136
q0 -45 -20 -80.5t-69.5 -56t-137.5 -20.5h-26z" />
    <glyph glyph-name="asciitilde" unicode="~" horiz-adv-x="520" 
d="M98 224v87q26 30 52.5 35t54.5 -3.5t55.5 -22t55 -22.5t54.5 -3.5t52 35.5v-86q-25 -31 -52 -36t-54.5 3.5t-55 22.5t-55.5 22.5t-54.5 3.5t-52.5 -36z" />
    <glyph glyph-name="uni00A0" unicode="&#xa0;" horiz-adv-x="273" 
 />
    <glyph glyph-name="exclamdown" unicode="&#xa1;" horiz-adv-x="421" 
d="M135 -168l20 479h118l20 -479h-158zM142 378v121h144v-121h-144z" />
    <glyph glyph-name="cent" unicode="&#xa2;" horiz-adv-x="504" 
d="M237 561v135h122v-135h-122zM237 0v132h122v-132h-122zM306 76q-57 0 -106 17.5t-86.5 50.5t-58.5 81t-21 110q0 67 19 119t55 87t85.5 53t110.5 18q43 0 87.5 -8.5t76.5 -24.5v-140q-35 16 -68 27.5t-68 11.5q-58 0 -96 -28.5t-38 -93.5q0 -70 32.5 -106.5t109.5 -36.5
q37 0 71.5 14t58.5 28v-138q-35 -20 -73.5 -30.5t-90.5 -10.5z" />
    <glyph glyph-name="sterling" unicode="&#xa3;" horiz-adv-x="562" 
d="M128 484q0 46 20.5 89.5t67 72.5t124.5 29q47 0 90 -15t76 -35v-147q-33 27 -64.5 41.5t-65.5 14.5q-27 0 -48.5 -8.5t-34 -25.5t-12.5 -41v-314q42 -16 77 -20.5t71 5.5t77 35v-134q-36 -31 -74 -39t-76.5 -2t-77 16t-77.5 16.5t-77 -0.5t-75 -37v138q24 17 43 19.5
t36 6.5v335zM49 272v121h378v-121h-378z" />
    <glyph glyph-name="currency" unicode="&#xa4;" horiz-adv-x="492" 
d="M245 156q-50 0 -92 24.5t-66.5 66.5t-24.5 92q0 51 24.5 92.5t66.5 66t92 24.5q51 0 92.5 -24.5t66 -66t24.5 -92.5q0 -50 -24.5 -92t-66 -66.5t-92.5 -24.5zM244 262q31 0 51.5 21.5t20.5 55.5q0 35 -21 56.5t-51 21.5q-31 0 -51.5 -21.5t-20.5 -56.5q0 -34 20.5 -55.5
t51.5 -21.5zM109 272l71 -71l-74 -72l-69 69zM386 547l69 -69l-72 -74l-71 71zM180 475l-71 -71l-72 74l69 69zM455 198l-69 -69l-74 72l71 71z" />
    <glyph glyph-name="yen" unicode="&#xa5;" horiz-adv-x="710" 
d="M281 0v110h-137v92h137v79h-137v92h76l-202 294h191l150 -259l150 259h191l-202 -294h76v-92h-136v-79h136v-92h-136v-110h-157z" />
    <glyph glyph-name="brokenbar" unicode="&#xa6;" horiz-adv-x="484" 
d="M308 217v-316h-123v316h123zM185 350v317h123v-317h-123z" />
    <glyph glyph-name="section" unicode="&#xa7;" horiz-adv-x="599" 
d="M260 -8q-58 0 -107 17.5t-88 42.5v126q38 -33 80 -51.5t95 -18.5q14 0 29.5 1.5t30 6t24 12.5t9.5 21q0 14 -19 23.5t-50 19.5t-69 22q-35 12 -65.5 29t-49.5 41.5t-19 62.5q0 26 13.5 44t34 29.5t43 17t40.5 6.5q-12 2 -27.5 14t-27.5 31t-12 41q0 41 18 69.5t49 45
t69.5 24t78.5 7.5q47 0 90.5 -13t82.5 -35v-113q-43 24 -77.5 33.5t-72.5 9.5q-14 0 -36 -3t-38.5 -12t-16.5 -28q0 -9 11.5 -17.5t32.5 -16.5t51 -18q39 -12 79.5 -30t67.5 -46t27 -72q0 -24 -12 -39.5t-30 -24.5t-37 -13.5t-31 -6.5q24 -13 35.5 -42.5t11.5 -55.5
q0 -66 -58.5 -103.5t-159.5 -37.5zM354 285q19 1 30 7.5t11 16.5q0 9 -10.5 17.5t-29 16.5t-42.5 14q-17 5 -33.5 9.5t-26.5 8.5q-20 0 -33 -6.5t-13 -18.5q0 -4 4.5 -9t17 -10.5t32.5 -12.5q18 -7 41.5 -15t51.5 -18z" />
    <glyph glyph-name="dieresis" unicode="&#xa8;" horiz-adv-x="439" 
d="M246 557v105h139v-105h-139zM54 557v105h140v-105h-140z" />
    <glyph glyph-name="copyright" unicode="&#xa9;" horiz-adv-x="778" 
d="M389 -8q-70 0 -132 26.5t-109 73.5t-73.5 109t-26.5 132q0 71 26.5 133t73.5 109t109 73.5t132 26.5q71 0 133 -26.5t109 -73.5t73.5 -109t26.5 -133q0 -70 -26.5 -132t-73.5 -109t-109 -73.5t-133 -26.5zM394 134q-33 0 -65.5 9t-59 31t-42.5 61t-16 99t16 99t42.5 61
t59 30.5t65.5 8.5q32 0 63 -7t62 -19v-80q-31 14 -59.5 20.5t-59.5 6.5q-27 0 -49 -10t-35 -36.5t-13 -73.5q0 -48 13 -74t35 -36t49 -10q31 0 59.5 6.5t59.5 20.5v-80q-31 -13 -62 -20t-63 -7zM389 51q59 0 110 22t90 61t61 90t22 109q0 59 -22 110t-61 90t-90 61t-110 22
q-58 0 -109 -22t-90 -61t-61 -90t-22 -110q0 -58 22 -109t61 -90t90 -61t109 -22z" />
    <glyph glyph-name="ordfeminine" unicode="&#xaa;" horiz-adv-x="405" 
d="M195 380q-29 0 -52 5t-40.5 16.5t-26.5 29.5t-9 44q0 37 22 61t78 24q27 0 42.5 -4.5t21.5 -8.5q0 28 -10.5 43t-33.5 15q-22 0 -47 -4.5t-46 -12.5v67q22 9 49 14.5t50 5.5q67 0 101.5 -30.5t34.5 -89.5v-82q0 -28 -8.5 -46t-24.5 -28.5t-41.5 -14.5t-59.5 -4zM198 444
q17 0 26 6.5t9 18.5v34q-4 1 -12.5 3.5t-19.5 2.5q-10 0 -18.5 -3.5t-14 -10.5t-5.5 -18q0 -10 4 -17.5t12 -11.5t19 -4z" />
    <glyph glyph-name="guillemotleft" unicode="&#xab;" horiz-adv-x="642" 
d="M437 64l-169 191l169 190h155l-182 -190l182 -191h-155zM203 64l-169 191l169 190h154l-181 -190l181 -191h-154z" />
    <glyph glyph-name="logicalnot" unicode="&#xac;" horiz-adv-x="633" 
d="M439 146v86h-342v100h439v-186h-97z" />
    <glyph glyph-name="uni00AD" unicode="&#xad;" horiz-adv-x="600" 
d="M79 253v110h305v-110h-305z" />
    <glyph glyph-name="registered" unicode="&#xae;" horiz-adv-x="778" 
d="M390 -8q-70 0 -132 26.5t-109 73.5t-73.5 109t-26.5 132q0 71 26.5 133t73.5 109t109 73.5t132 26.5q71 0 133 -26.5t109 -73.5t73.5 -109t26.5 -133q0 -70 -26.5 -132t-73.5 -109t-109 -73.5t-133 -26.5zM390 51q59 0 110 22t90 61t61 90t22 109q0 59 -22 110t-61 90
t-90 61t-110 22q-58 0 -109 -22t-90 -61t-61 -90t-22 -110q0 -58 22 -109t61 -90t90 -61t109 -22zM246 139v389h153q68 0 110.5 -31.5t42.5 -92.5q0 -26 -6.5 -45.5t-18 -33.5t-26 -23.5t-29.5 -13.5l95 -149h-102l-77 134h-49v-134h-93zM339 344h65q17 0 29.5 6.5t19.5 19
t7 28.5t-7 28.5t-19.5 19.5t-29.5 7h-65v-109z" />
    <glyph glyph-name="macron" unicode="&#xaf;" horiz-adv-x="395" 
d="M55 547v103h285v-103h-285z" />
    <glyph glyph-name="degree" unicode="&#xb0;" horiz-adv-x="387" 
d="M191 448q-52 0 -80.5 28.5t-28.5 81.5q0 54 28.5 82.5t80.5 28.5q53 0 81 -28.5t28 -82.5q0 -53 -28 -81.5t-81 -28.5zM191 503q27 0 39 13t12 43t-12 42.5t-39 12.5t-39.5 -12.5t-12.5 -42.5t12.5 -43t39.5 -13z" />
    <glyph glyph-name="plusminus" unicode="&#xb1;" horiz-adv-x="585" 
d="M244 168v128h-129v104h129v130h104v-130h128v-104h-128v-128h-104zM115 10v98h361v-98h-361z" />
    <glyph glyph-name="two.superior" unicode="&#xb2;" horiz-adv-x="337" 
d="M45 463v67q19 15 43.5 31.5t46.5 36t36 41t14 45.5q0 27 -16 39.5t-35 12.5q-30 0 -49.5 -10t-37.5 -23v89q22 14 50.5 24.5t59.5 10.5q55 0 87 -16.5t45 -42.5t13 -54q0 -32 -17.5 -62t-48 -54.5t-69.5 -40.5l-10 11h147v-105h-259z" />
    <glyph glyph-name="three.superior" unicode="&#xb3;" horiz-adv-x="333" 
d="M149 458q-29 0 -56 9t-51 20v85q25 -15 44 -24.5t42 -9.5q24 0 39.5 10.5t15.5 29.5q0 16 -12 28.5t-44 12.5h-39v65h40q19 0 29 9.5t10 23.5t-15 21t-33 7t-35.5 -5.5t-34.5 -13.5v75q21 11 45.5 18t50.5 7q30 0 62.5 -9.5t55 -31t22.5 -57.5q0 -19 -9 -34t-21.5 -24.5
t-23.5 -12.5q19 -6 35 -18.5t25.5 -31.5t9.5 -44q0 -30 -14.5 -50t-37 -32t-49 -17.5t-51.5 -5.5z" />
    <glyph glyph-name="acute" unicode="&#xb4;" horiz-adv-x="267" 
d="M63 549l44 125h161l-117 -125h-88z" />
    <glyph glyph-name="uni03BC" unicode="&#xb5;" horiz-adv-x="641" 
d="M99 -210v709h157v-321q0 -13 5 -28t24.5 -25.5t61.5 -10.5q19 0 34 2t29 6v377h156v-448q-2 -1 -21.5 -10t-52.5 -20t-76 -19.5t-92 -8.5q-14 0 -27 2t-23 4.5t-18 3.5v-213h-157z" />
    <glyph glyph-name="paragraph" unicode="&#xb6;" horiz-adv-x="516" 
d="M343 0v192h-38q-130 0 -198 61.5t-68 177.5q0 114 68 175t198 61h161v-667h-123z" />
    <glyph glyph-name="periodcentered" unicode="&#xb7;" horiz-adv-x="354" 
d="M107 209v129h134v-129h-134z" />
    <glyph glyph-name="cedilla" unicode="&#xb8;" horiz-adv-x="281" 
d="M44 -136l91 131h105l-49 -131h-147z" />
    <glyph glyph-name="one.superior" unicode="&#xb9;" horiz-adv-x="248" 
d="M78 462v277l16 -30l-72 -40v106l74 46h94v-359h-112z" />
    <glyph glyph-name="ordmasculine" unicode="&#xba;" horiz-adv-x="423" 
d="M209 389q-41 0 -71 15.5t-47 47.5t-17 80q0 49 17 81t47 47.5t71 15.5t70.5 -15.5t46 -47.5t16.5 -81q0 -48 -16.5 -80t-46 -47.5t-70.5 -15.5zM209 454q22 0 33.5 19t11.5 59q0 41 -11.5 60t-33.5 19q-24 0 -35.5 -19t-11.5 -60q0 -40 11.5 -59t35.5 -19z" />
    <glyph glyph-name="guillemotright" unicode="&#xbb;" horiz-adv-x="653" 
d="M288 64l182 191l-182 190h155l169 -190l-169 -191h-155zM54 64l182 191l-182 190h155l169 -190l-169 -191h-155z" />
    <glyph glyph-name="onequarter" unicode="&#xbc;" horiz-adv-x="734" 
d="M78 312v277l16 -30l-72 -40v106l74 46h94v-359h-112zM62 -22l407 707h116l-407 -707h-116zM536 0v82h-154v78l159 199h99v-193h44v-84h-44v-82h-104zM474 166h62v105l22 2z" />
    <glyph glyph-name="onehalf" unicode="&#xbd;" horiz-adv-x="748" 
d="M78 312v277l16 -30l-72 -40v106l74 46h94v-359h-112zM60 -22l407 707h116l-407 -707h-116zM438 0v67q19 15 43.5 31.5t46.5 36t36 41t14 45.5q0 27 -16 39.5t-35 12.5q-30 0 -49.5 -10t-37.5 -23v89q22 14 50.5 24.5t59.5 10.5q55 0 87 -16.5t45 -42.5t13 -54
q0 -32 -17.5 -62t-48 -54.5t-69.5 -40.5l-10 11h147v-105h-259z" />
    <glyph glyph-name="threequarters" unicode="&#xbe;" horiz-adv-x="792" 
d="M149 319q-29 0 -56 9t-51 20v85q25 -15 44 -24.5t42 -9.5q24 0 39.5 10.5t15.5 29.5q0 16 -12 28.5t-44 12.5h-39v65h40q19 0 29 9.5t10 23.5t-15 21t-33 7t-35.5 -5.5t-34.5 -13.5v75q21 11 45.5 18t50.5 7q30 0 62.5 -9.5t55 -31t22.5 -57.5q0 -19 -9 -34t-21.5 -24.5
t-23.5 -12.5q19 -6 35 -18.5t25.5 -31.5t9.5 -44q0 -30 -14.5 -50t-37 -32t-49 -17.5t-51.5 -5.5zM115 -22l407 707h116l-407 -707h-116zM594 0v82h-154v78l159 199h99v-193h44v-84h-44v-82h-104zM532 166h62v105l22 2z" />
    <glyph glyph-name="questiondown" unicode="&#xbf;" horiz-adv-x="519" 
d="M284 -176q-52 0 -91 15t-64.5 41.5t-37.5 61.5t-12 75q0 43 15 71t37 49.5t44 41.5t37 47.5t15 68.5v16h127v-19q0 -55 -15 -90.5t-36.5 -60t-43.5 -42.5t-37 -37t-15 -46q0 -32 14 -48t36.5 -21.5t46.5 -5.5q38 0 78.5 13t69.5 36v-120q-16 -11 -42 -21.5t-58 -17.5
t-68 -7zM219 378v121h144v-121h-144z" />
    <glyph glyph-name="Agrave" unicode="&#xc0;" horiz-adv-x="702" 
d="M12 0l249 667h199l230 -667h-186l-209 636l93 8l-208 -644h-168zM159 131l34 129h298l17 -129h-349zM311 715l-99 111h144l44 -111h-89z" />
    <glyph glyph-name="Aacute" unicode="&#xc1;" horiz-adv-x="702" 
d="M12 0l249 667h199l230 -667h-186l-209 636l93 8l-208 -644h-168zM159 131l34 129h298l17 -129h-349zM308 717l32 112h174l-126 -112h-80z" />
    <glyph glyph-name="Acircumflex" unicode="&#xc2;" horiz-adv-x="702" 
d="M12 0l249 667h199l230 -667h-186l-209 636l93 8l-208 -644h-168zM159 131l34 129h298l17 -129h-349zM195 708l89 122h135l88 -122h-110l-46 56l-45 -56h-111z" />
    <glyph glyph-name="Atilde" unicode="&#xc3;" horiz-adv-x="702" 
d="M12 0l249 667h199l230 -667h-186l-209 636l93 8l-208 -644h-168zM159 131l34 129h298l17 -129h-349zM240 718h-74q-2 39 13 72.5t43 54t65 20.5q26 0 47 -10t38.5 -22.5t34.5 -22.5t35 -10t27 14.5t9 46.5h76q1 -46 -15.5 -78.5t-43.5 -49.5t-59 -17q-34 0 -57 10
t-39.5 22.5t-30 22.5t-29.5 10q-23 0 -32 -21t-8 -42z" />
    <glyph glyph-name="Adieresis" unicode="&#xc4;" horiz-adv-x="702" 
d="M12 0l249 667h199l230 -667h-186l-209 636l93 8l-208 -644h-168zM159 131l34 129h298l17 -129h-349zM373 699v105h139v-105h-139zM181 699v105h140v-105h-140z" />
    <glyph glyph-name="Aring" unicode="&#xc5;" horiz-adv-x="702" 
d="M12 0l249 667h199l230 -667h-186l-209 636l93 8l-208 -644h-168zM159 131l34 129h298l17 -129h-349zM349 671q-58 0 -90.5 24.5t-32.5 70.5t32.5 71t90.5 25q59 0 91 -25t32 -71t-32 -70.5t-91 -24.5zM349 733q25 0 35.5 7t10.5 26t-10.5 26.5t-35.5 7.5t-35.5 -7.5
t-10.5 -26.5t10.5 -26t35.5 -7z" />
    <glyph glyph-name="AE" unicode="&#xc6;" horiz-adv-x="1044" 
d="M525 614l73 -13l-385 -601h-201l467 667h502v-138h-275v-122h236v-139h-236v-129h275v-139h-456v614zM598 133h-398l50 127h361z" />
    <glyph glyph-name="Ccedilla" unicode="&#xc7;" horiz-adv-x="631" 
d="M367 -14q-162 0 -247.5 84t-85.5 263q0 173 81.5 261.5t251.5 88.5q53 0 107.5 -13t106.5 -36v-156q-54 36 -102 51.5t-87 15.5q-54 0 -92 -19.5t-58.5 -65.5t-20.5 -128q0 -79 21 -125t60.5 -64.5t97.5 -18.5q34 0 80.5 15t100.5 50v-156q-27 -14 -63.5 -24.5t-76 -16.5
t-74.5 -6zM220 -124l91 131h105l-49 -131h-147z" />
    <glyph glyph-name="Egrave" unicode="&#xc8;" horiz-adv-x="595" 
d="M68 0v667h465v-138h-283v-126h244v-138h-245v-127h284v-138h-465zM263 715l-99 111h144l44 -111h-89z" />
    <glyph glyph-name="Eacute" unicode="&#xc9;" horiz-adv-x="595" 
d="M68 0v667h465v-138h-283v-126h244v-138h-245v-127h284v-138h-465zM260 717l32 112h174l-126 -112h-80z" />
    <glyph glyph-name="Ecircumflex" unicode="&#xca;" horiz-adv-x="595" 
d="M68 0v667h465v-138h-283v-126h244v-138h-245v-127h284v-138h-465zM147 708l89 122h135l88 -122h-110l-46 56l-45 -56h-111z" />
    <glyph glyph-name="Edieresis" unicode="&#xcb;" horiz-adv-x="595" 
d="M68 0v667h465v-138h-283v-126h244v-138h-245v-127h284v-138h-465zM325 699v105h139v-105h-139zM133 699v105h140v-105h-140z" />
    <glyph glyph-name="Igrave" unicode="&#xcc;" horiz-adv-x="318" 
d="M68 0v667h182v-667h-182zM125 715l-99 111h144l44 -111h-89z" />
    <glyph glyph-name="Iacute" unicode="&#xcd;" horiz-adv-x="318" 
d="M68 0v667h182v-667h-182zM122 717l32 112h174l-126 -112h-80z" />
    <glyph glyph-name="Icircumflex" unicode="&#xce;" horiz-adv-x="318" 
d="M68 0v667h182v-667h-182zM9 708l89 122h135l88 -122h-110l-46 56l-45 -56h-111z" />
    <glyph glyph-name="Idieresis" unicode="&#xcf;" horiz-adv-x="318" 
d="M68 0v667h182v-667h-182zM188 699v105h139v-105h-139zM-4 699v105h140v-105h-140z" />
    <glyph glyph-name="Eth" unicode="&#xd0;" horiz-adv-x="721" 
d="M68 0v667h280q173 0 253.5 -85t80.5 -249q0 -163 -80.5 -248t-253.5 -85h-280zM249 138h77q83 0 126.5 46.5t43.5 148.5q0 103 -43.5 149.5t-126.5 46.5h-77v-391zM5 284v100h312v-100h-312z" />
    <glyph glyph-name="Ntilde" unicode="&#xd1;" horiz-adv-x="725" 
d="M68 0v667h150l328 -435l-55 -116v551h166v-667h-132l-330 424l38 82v-506h-165zM252 718h-74q-2 39 13 72.5t43 54t65 20.5q26 0 47 -10t38.5 -22.5t34.5 -22.5t35 -10t27 14.5t9 46.5h76q1 -46 -15.5 -78.5t-43.5 -49.5t-59 -17q-34 0 -57 10t-39.5 22.5t-30 22.5
t-29.5 10q-23 0 -32 -21t-8 -42z" />
    <glyph glyph-name="Ograve" unicode="&#xd2;" horiz-adv-x="740" 
d="M370 -14q-99 0 -173.5 37t-116 114t-41.5 196q0 172 87.5 260t243.5 88q99 0 173.5 -37t116 -113.5t41.5 -196.5q0 -172 -87 -260t-244 -88zM370 132q45 0 77 19t49.5 63.5t17.5 120.5q0 75 -17.5 119t-49.5 62.5t-77 18.5t-77 -19.5t-49.5 -63.5t-17.5 -120
q0 -75 17.5 -118.5t49.5 -62.5t77 -19zM331 741l-99 111h144l44 -111h-89z" />
    <glyph glyph-name="Oacute" unicode="&#xd3;" horiz-adv-x="740" 
d="M370 -14q-99 0 -173.5 37t-116 114t-41.5 196q0 172 87.5 260t243.5 88q99 0 173.5 -37t116 -113.5t41.5 -196.5q0 -172 -87 -260t-244 -88zM370 132q45 0 77 19t49.5 63.5t17.5 120.5q0 75 -17.5 119t-49.5 62.5t-77 18.5t-77 -19.5t-49.5 -63.5t-17.5 -120
q0 -75 17.5 -118.5t49.5 -62.5t77 -19zM328 742l32 112h174l-126 -112h-80z" />
    <glyph glyph-name="Ocircumflex" unicode="&#xd4;" horiz-adv-x="740" 
d="M370 -14q-99 0 -173.5 37t-116 114t-41.5 196q0 172 87.5 260t243.5 88q99 0 173.5 -37t116 -113.5t41.5 -196.5q0 -172 -87 -260t-244 -88zM370 132q45 0 77 19t49.5 63.5t17.5 120.5q0 75 -17.5 119t-49.5 62.5t-77 18.5t-77 -19.5t-49.5 -63.5t-17.5 -120
q0 -75 17.5 -118.5t49.5 -62.5t77 -19zM215 733l89 122h135l88 -122h-110l-46 56l-45 -56h-111z" />
    <glyph glyph-name="Otilde" unicode="&#xd5;" horiz-adv-x="740" 
d="M370 -14q-99 0 -173.5 37t-116 114t-41.5 196q0 172 87.5 260t243.5 88q99 0 173.5 -37t116 -113.5t41.5 -196.5q0 -172 -87 -260t-244 -88zM370 132q45 0 77 19t49.5 63.5t17.5 120.5q0 75 -17.5 119t-49.5 62.5t-77 18.5t-77 -19.5t-49.5 -63.5t-17.5 -120
q0 -75 17.5 -118.5t49.5 -62.5t77 -19zM260 743h-74q-2 39 13 72.5t43 54t65 20.5q26 0 47 -10t38.5 -22.5t34.5 -22.5t35 -10t27 14.5t9 46.5h76q1 -46 -15.5 -78.5t-43.5 -49.5t-59 -17q-34 0 -57 10t-39.5 22.5t-30 22.5t-29.5 10q-23 0 -32 -21t-8 -42z" />
    <glyph glyph-name="Odieresis" unicode="&#xd6;" horiz-adv-x="740" 
d="M370 -14q-99 0 -173.5 37t-116 114t-41.5 196q0 172 87.5 260t243.5 88q99 0 173.5 -37t116 -113.5t41.5 -196.5q0 -172 -87 -260t-244 -88zM370 132q45 0 77 19t49.5 63.5t17.5 120.5q0 75 -17.5 119t-49.5 62.5t-77 18.5t-77 -19.5t-49.5 -63.5t-17.5 -120
q0 -75 17.5 -118.5t49.5 -62.5t77 -19zM394 724v105h139v-105h-139zM202 724v105h140v-105h-140z" />
    <glyph glyph-name="multiply" unicode="&#xd7;" horiz-adv-x="526" 
d="M73 75l139 181l-138 181h103l87 -113l88 113h103l-138 -181l138 -181h-103l-88 113l-87 -113h-104z" />
    <glyph glyph-name="Oslash" unicode="&#xd8;" horiz-adv-x="740" 
d="M17 0l590 666h116l-591 -666h-115zM370 -14q-99 0 -173.5 37t-116 114t-41.5 196q0 172 87.5 260t243.5 88q99 0 173.5 -37t116 -113.5t41.5 -196.5q0 -172 -87 -260t-244 -88zM370 132q45 0 77 19t49.5 63.5t17.5 120.5q0 75 -17.5 119t-49.5 62.5t-77 18.5t-77 -19.5
t-49.5 -63.5t-17.5 -120q0 -75 17.5 -118.5t49.5 -62.5t77 -19z" />
    <glyph glyph-name="Ugrave" unicode="&#xd9;" horiz-adv-x="733" 
d="M384 -23q-159 0 -237.5 64t-78.5 203v423h189v-413q0 -71 27.5 -105t90.5 -34q56 0 87 34t31 105v413h172v-423q0 -93 -36 -152t-99.5 -87t-145.5 -28zM327 724l-99 111h144l44 -111h-89z" />
    <glyph glyph-name="Uacute" unicode="&#xda;" horiz-adv-x="733" 
d="M384 -23q-159 0 -237.5 64t-78.5 203v423h189v-413q0 -71 27.5 -105t90.5 -34q56 0 87 34t31 105v413h172v-423q0 -93 -36 -152t-99.5 -87t-145.5 -28zM323 725l32 112h174l-126 -112h-80z" />
    <glyph glyph-name="Ucircumflex" unicode="&#xdb;" horiz-adv-x="733" 
d="M384 -23q-159 0 -237.5 64t-78.5 203v423h189v-413q0 -71 27.5 -105t90.5 -34q56 0 87 34t31 105v413h172v-423q0 -93 -36 -152t-99.5 -87t-145.5 -28zM210 716l89 122h135l88 -122h-110l-46 56l-45 -56h-111z" />
    <glyph glyph-name="Udieresis" unicode="&#xdc;" horiz-adv-x="733" 
d="M384 -23q-159 0 -237.5 64t-78.5 203v423h189v-413q0 -71 27.5 -105t90.5 -34q56 0 87 34t31 105v413h172v-423q0 -93 -36 -152t-99.5 -87t-145.5 -28zM389 707v105h139v-105h-139zM197 707v105h140v-105h-140z" />
    <glyph glyph-name="Yacute" unicode="&#xdd;" horiz-adv-x="712" 
d="M277 0v285l-254 382h223l186 -320l-86 -1l165 321h177l-256 -427l26 93v-333h-181zM342 717l32 112h174l-126 -112h-80z" />
    <glyph glyph-name="Thorn" unicode="&#xde;" horiz-adv-x="641" 
d="M86 0v667h157v-99h93q120 0 185.5 -60.5t65.5 -169.5q0 -110 -65.5 -170.5t-185.5 -60.5h-93v-107h-157zM243 238h77q34 0 55 8.5t33.5 23.5t17.5 33t5 35t-5 34.5t-17.5 32.5t-33.5 24t-55 9h-77v-200z" />
    <glyph glyph-name="germandbls" unicode="&#xdf;" horiz-adv-x="645" 
d="M63 0v439q0 75 29.5 134.5t86.5 93.5t139 34t142 -21.5t92.5 -58.5t32.5 -82q0 -36 -13.5 -61.5t-33.5 -44t-41 -29.5t-36 -16q33 -10 68 -31t59 -61t24 -105q0 -58 -24 -104t-70.5 -74t-117.5 -29q-27 0 -57 3.5t-64 13.5v134q26 -15 50 -21.5t43 -6.5q34 0 53.5 23
t19.5 67q0 37 -17 57.5t-43.5 29t-56.5 9.5v132q40 0 63 17.5t23 53.5q0 21 -10.5 36.5t-29.5 24t-45 8.5q-45 0 -72.5 -31.5t-27.5 -91.5v-442h-166z" />
    <glyph glyph-name="agrave" unicode="&#xe0;" horiz-adv-x="575" 
d="M263 -15q-49 0 -90.5 8.5t-72.5 28.5t-48 55t-17 85q0 45 18.5 79t58.5 54t102 20q33 0 65 -7.5t58 -20t40 -27.5l5 -74q-20 11 -45 17.5t-52 6.5q-46 0 -66.5 -12.5t-20.5 -41.5q0 -15 9.5 -28t25 -21t33.5 -8q48 0 65.5 6t17.5 25v176q0 44 -28.5 63.5t-80.5 19.5
q-45 0 -90 -17t-71 -38v145q24 16 79.5 30t127.5 14q21 0 50.5 -3.5t60 -13.5t57 -30t42.5 -52t16 -81l-1 -238q0 -41 -28.5 -68t-83.5 -39.5t-136 -12.5zM241 574l-117 125h162l44 -125h-89z" />
    <glyph glyph-name="aacute" unicode="&#xe1;" horiz-adv-x="575" 
d="M263 -15q-49 0 -90.5 8.5t-72.5 28.5t-48 55t-17 85q0 45 18.5 79t58.5 54t102 20q33 0 65 -7.5t58 -20t40 -27.5l5 -74q-20 11 -45 17.5t-52 6.5q-46 0 -66.5 -12.5t-20.5 -41.5q0 -15 9.5 -28t25 -21t33.5 -8q48 0 65.5 6t17.5 25v176q0 44 -28.5 63.5t-80.5 19.5
q-45 0 -90 -17t-71 -38v145q24 16 79.5 30t127.5 14q21 0 50.5 -3.5t60 -13.5t57 -30t42.5 -52t16 -81l-1 -238q0 -41 -28.5 -68t-83.5 -39.5t-136 -12.5zM231 574l44 125h161l-117 -125h-88z" />
    <glyph glyph-name="acircumflex" unicode="&#xe2;" horiz-adv-x="575" 
d="M263 -15q-49 0 -90.5 8.5t-72.5 28.5t-48 55t-17 85q0 45 18.5 79t58.5 54t102 20q33 0 65 -7.5t58 -20t40 -27.5l5 -74q-20 11 -45 17.5t-52 6.5q-46 0 -66.5 -12.5t-20.5 -41.5q0 -15 9.5 -28t25 -21t33.5 -8q48 0 65.5 6t17.5 25v176q0 44 -28.5 63.5t-80.5 19.5
q-45 0 -90 -17t-71 -38v145q24 16 79.5 30t127.5 14q21 0 50.5 -3.5t60 -13.5t57 -30t42.5 -52t16 -81l-1 -238q0 -41 -28.5 -68t-83.5 -39.5t-136 -12.5zM135 581l89 122h135l88 -122h-110l-46 56l-45 -56h-111z" />
    <glyph glyph-name="atilde" unicode="&#xe3;" horiz-adv-x="575" 
d="M263 -15q-49 0 -90.5 8.5t-72.5 28.5t-48 55t-17 85q0 45 18.5 79t58.5 54t102 20q33 0 65 -7.5t58 -20t40 -27.5l5 -74q-20 11 -45 17.5t-52 6.5q-46 0 -66.5 -12.5t-20.5 -41.5q0 -15 9.5 -28t25 -21t33.5 -8q48 0 65.5 6t17.5 25v176q0 44 -28.5 63.5t-80.5 19.5
q-45 0 -90 -17t-71 -38v145q24 16 79.5 30t127.5 14q21 0 50.5 -3.5t60 -13.5t57 -30t42.5 -52t16 -81l-1 -238q0 -41 -28.5 -68t-83.5 -39.5t-136 -12.5zM171 570h-74q-2 39 13 72.5t43 54t65 20.5q26 0 47 -10t38.5 -22.5t34.5 -22.5t35 -10t27 14.5t9 46.5h76
q1 -46 -15.5 -78.5t-43.5 -49.5t-59 -17q-34 0 -57 10t-39.5 22.5t-30 22.5t-29.5 10q-23 0 -32 -21t-8 -42z" />
    <glyph glyph-name="adieresis" unicode="&#xe4;" horiz-adv-x="575" 
d="M263 -15q-49 0 -90.5 8.5t-72.5 28.5t-48 55t-17 85q0 45 18.5 79t58.5 54t102 20q33 0 65 -7.5t58 -20t40 -27.5l5 -74q-20 11 -45 17.5t-52 6.5q-46 0 -66.5 -12.5t-20.5 -41.5q0 -15 9.5 -28t25 -21t33.5 -8q48 0 65.5 6t17.5 25v176q0 44 -28.5 63.5t-80.5 19.5
q-45 0 -90 -17t-71 -38v145q24 16 79.5 30t127.5 14q21 0 50.5 -3.5t60 -13.5t57 -30t42.5 -52t16 -81l-1 -238q0 -41 -28.5 -68t-83.5 -39.5t-136 -12.5zM318 582v105h139v-105h-139zM126 582v105h140v-105h-140z" />
    <glyph glyph-name="aring" unicode="&#xe5;" horiz-adv-x="575" 
d="M263 -15q-49 0 -90.5 8.5t-72.5 28.5t-48 55t-17 85q0 45 18.5 79t58.5 54t102 20q33 0 65 -7.5t58 -20t40 -27.5l5 -74q-20 11 -45 17.5t-52 6.5q-46 0 -66.5 -12.5t-20.5 -41.5q0 -15 9.5 -28t25 -21t33.5 -8q48 0 65.5 6t17.5 25v176q0 44 -28.5 63.5t-80.5 19.5
q-45 0 -90 -17t-71 -38v145q24 16 79.5 30t127.5 14q21 0 50.5 -3.5t60 -13.5t57 -30t42.5 -52t16 -81l-1 -238q0 -41 -28.5 -68t-83.5 -39.5t-136 -12.5zM282 560q-58 0 -90.5 24.5t-32.5 70.5t32.5 71t90.5 25q59 0 91 -25t32 -71t-32 -70.5t-91 -24.5zM282 622
q25 0 35.5 7t10.5 26t-10.5 26.5t-35.5 7.5t-35.5 -7.5t-10.5 -26.5t10.5 -26t35.5 -7z" />
    <glyph glyph-name="ae" unicode="&#xe6;" horiz-adv-x="880" 
d="M436 43q-34 -23 -83.5 -44.5t-112.5 -21.5q-55 0 -102 16.5t-75 55t-28 106.5q0 44 19.5 80.5t60 58t103.5 21.5q31 0 62 -7.5t57 -19.5t40 -27l5 -75q-20 11 -45 17.5t-52 6.5q-47 0 -67 -16.5t-20 -45.5q0 -15 9 -28t25.5 -21t39.5 -8q20 0 42 2.5t42 9.5t31 19z
M349 191v113q0 43 -28.5 62.5t-80.5 19.5q-45 0 -90 -16.5t-71 -38.5v148q24 16 79.5 30t127.5 14q21 0 50.5 -3.5t60 -13.5t57 -30t42.5 -52t16 -81l-1 -131q0 -51 33 -75t108 -24q40 0 80 15t63 30v-140q-35 -20 -80 -30.5t-105 -10.5q-78 0 -136.5 29.5t-91.5 78.5
t-33 106zM349 245q0 131 67 204t193 73q84 0 136.5 -36t77 -105.5t23.5 -171.5h-382l-19 101h262l-20 -54q-2 79 -21 111t-65 32q-23 0 -43.5 -13t-33 -42.5t-12.5 -79.5z" />
    <glyph glyph-name="ccedilla" unicode="&#xe7;" horiz-adv-x="504" 
d="M306 -14q-57 0 -106 17.5t-86.5 50.5t-58.5 81t-21 110q0 67 19 119t55 87t85.5 53t110.5 18q43 0 87.5 -8.5t76.5 -24.5v-140q-35 17 -68 28t-68 11q-58 0 -96 -28.5t-38 -93.5q0 -70 32.5 -106.5t109.5 -36.5q37 0 71.5 14t58.5 28v-138q-35 -20 -73.5 -30.5
t-90.5 -10.5zM161 -136l91 131h105l-49 -131h-147z" />
    <glyph glyph-name="egrave" unicode="&#xe8;" horiz-adv-x="565" 
d="M297 -15q-78 0 -137.5 31.5t-92.5 90t-33 138.5q0 133 67 207t193 74q84 0 136 -36t77 -107t24 -174h-382l-20 101h262l-20 -54q-1 81 -20.5 113.5t-64.5 32.5q-24 0 -44 -13.5t-31.5 -43.5t-11.5 -81q0 -69 32.5 -105.5t107.5 -36.5q27 0 54 6.5t50 15.5t39 14v-140
q-35 -13 -79.5 -23t-105.5 -10zM248 566l-117 125h162l44 -125h-89z" />
    <glyph glyph-name="eacute" unicode="&#xe9;" horiz-adv-x="565" 
d="M297 -15q-78 0 -137.5 31.5t-92.5 90t-33 138.5q0 133 67 207t193 74q84 0 136 -36t77 -107t24 -174h-382l-20 101h262l-20 -54q-1 81 -20.5 113.5t-64.5 32.5q-24 0 -44 -13.5t-31.5 -43.5t-11.5 -81q0 -69 32.5 -105.5t107.5 -36.5q27 0 54 6.5t50 15.5t39 14v-140
q-35 -13 -79.5 -23t-105.5 -10zM239 566l44 125h161l-117 -125h-88z" />
    <glyph glyph-name="ecircumflex" unicode="&#xea;" horiz-adv-x="565" 
d="M297 -15q-78 0 -137.5 31.5t-92.5 90t-33 138.5q0 133 67 207t193 74q84 0 136 -36t77 -107t24 -174h-382l-20 101h262l-20 -54q-1 81 -20.5 113.5t-64.5 32.5q-24 0 -44 -13.5t-31.5 -43.5t-11.5 -81q0 -69 32.5 -105.5t107.5 -36.5q27 0 54 6.5t50 15.5t39 14v-140
q-35 -13 -79.5 -23t-105.5 -10zM142 572l89 122h135l88 -122h-110l-46 56l-45 -56h-111z" />
    <glyph glyph-name="edieresis" unicode="&#xeb;" horiz-adv-x="565" 
d="M297 -15q-78 0 -137.5 31.5t-92.5 90t-33 138.5q0 133 67 207t193 74q84 0 136 -36t77 -107t24 -174h-382l-20 101h262l-20 -54q-1 81 -20.5 113.5t-64.5 32.5q-24 0 -44 -13.5t-31.5 -43.5t-11.5 -81q0 -69 32.5 -105.5t107.5 -36.5q27 0 54 6.5t50 15.5t39 14v-140
q-35 -13 -79.5 -23t-105.5 -10zM325 574v105h139v-105h-139zM133 574v105h140v-105h-140z" />
    <glyph glyph-name="igrave" unicode="&#xec;" horiz-adv-x="346" 
d="M96 0v499h157v-499h-157zM134 563l-92 117h111l61 -117h-80z" />
    <glyph glyph-name="iacute" unicode="&#xed;" horiz-adv-x="346" 
d="M96 0v499h157v-499h-157zM136 557l61 117h110l-91 -117h-80z" />
    <glyph glyph-name="icircumflex" unicode="&#xee;" horiz-adv-x="346" 
d="M96 0v499h157v-499h-157zM37 557l114 122h47l114 -122h-95l-42 48l-43 -48h-95z" />
    <glyph glyph-name="idieresis" unicode="&#xef;" horiz-adv-x="346" 
d="M96 0v499h157v-499h-157zM35 557v105h113v-105h-113zM201 557v105h114v-105h-114z" />
    <glyph glyph-name="eth" unicode="&#xf0;" horiz-adv-x="586" 
d="M296 -23q-131 0 -196.5 66.5t-65.5 207.5q0 132 54 201.5t147 69.5q61 0 96.5 -20.5t56.5 -57.5l4 -82q-19 26 -44 40t-52 14q-33 0 -55 -19.5t-32.5 -55.5t-10.5 -90q0 -80 24 -112t74 -32q34 0 54 21t29 68t9 126q0 82 -19 141t-51 101.5t-70.5 73t-78.5 54.5v6h193
q43 -27 76.5 -67.5t57.5 -91.5t36 -110t12 -126q0 -167 -61 -246.5t-187 -79.5zM198 542l-22 90l341 60l26 -83z" />
    <glyph glyph-name="ntilde" unicode="&#xf1;" horiz-adv-x="617" 
d="M63 464q18 10 50 20t71 18.5t79 14t73 5.5q67 0 116 -16t75.5 -55t26.5 -107v-344h-165v306q0 20 -5.5 35.5t-16 25.5t-28 15t-41.5 5q-21 0 -41.5 -5.5t-28.5 -11.5v-370h-165v464zM196 562h-74q-2 39 13 72.5t43 54t65 20.5q26 0 47 -10t38.5 -22.5t34.5 -22.5t35 -10
t27 14.5t9 46.5h76q1 -46 -15.5 -78.5t-43.5 -49.5t-59 -17q-34 0 -57 10t-39.5 22.5t-30 22.5t-29.5 10q-23 0 -32 -21t-8 -42z" />
    <glyph glyph-name="ograve" unicode="&#xf2;" horiz-adv-x="594" 
d="M296 -15q-131 0 -196.5 68t-65.5 203q0 147 66 208.5t196 61.5q86 0 145 -27.5t89.5 -87t30.5 -155.5q0 -134 -68.5 -202.5t-196.5 -68.5zM296 116q32 0 54.5 15t34.5 46.5t12 78.5q0 56 -12 86.5t-34.5 42.5t-54.5 12q-33 0 -55 -12.5t-32.5 -43t-10.5 -85.5
q0 -73 24 -106.5t74 -33.5zM256 574l-117 125h162l44 -125h-89z" />
    <glyph glyph-name="oacute" unicode="&#xf3;" horiz-adv-x="594" 
d="M296 -15q-131 0 -196.5 68t-65.5 203q0 147 66 208.5t196 61.5q86 0 145 -27.5t89.5 -87t30.5 -155.5q0 -134 -68.5 -202.5t-196.5 -68.5zM296 116q32 0 54.5 15t34.5 46.5t12 78.5q0 56 -12 86.5t-34.5 42.5t-54.5 12q-33 0 -55 -12.5t-32.5 -43t-10.5 -85.5
q0 -73 24 -106.5t74 -33.5zM247 574l44 125h161l-117 -125h-88z" />
    <glyph glyph-name="ocircumflex" unicode="&#xf4;" horiz-adv-x="594" 
d="M296 -15q-131 0 -196.5 68t-65.5 203q0 147 66 208.5t196 61.5q86 0 145 -27.5t89.5 -87t30.5 -155.5q0 -134 -68.5 -202.5t-196.5 -68.5zM296 116q32 0 54.5 15t34.5 46.5t12 78.5q0 56 -12 86.5t-34.5 42.5t-54.5 12q-33 0 -55 -12.5t-32.5 -43t-10.5 -85.5
q0 -73 24 -106.5t74 -33.5zM150 581l89 122h135l88 -122h-110l-46 56l-45 -56h-111z" />
    <glyph glyph-name="otilde" unicode="&#xf5;" horiz-adv-x="594" 
d="M296 -15q-131 0 -196.5 68t-65.5 203q0 147 66 208.5t196 61.5q86 0 145 -27.5t89.5 -87t30.5 -155.5q0 -134 -68.5 -202.5t-196.5 -68.5zM296 116q32 0 54.5 15t34.5 46.5t12 78.5q0 56 -12 86.5t-34.5 42.5t-54.5 12q-33 0 -55 -12.5t-32.5 -43t-10.5 -85.5
q0 -73 24 -106.5t74 -33.5zM186 570h-74q-2 39 13 72.5t43 54t65 20.5q26 0 47 -10t38.5 -22.5t34.5 -22.5t35 -10t27 14.5t9 46.5h76q1 -46 -15.5 -78.5t-43.5 -49.5t-59 -17q-34 0 -57 10t-39.5 22.5t-30 22.5t-29.5 10q-23 0 -32 -21t-8 -42z" />
    <glyph glyph-name="odieresis" unicode="&#xf6;" horiz-adv-x="594" 
d="M296 -15q-131 0 -196.5 68t-65.5 203q0 147 66 208.5t196 61.5q86 0 145 -27.5t89.5 -87t30.5 -155.5q0 -134 -68.5 -202.5t-196.5 -68.5zM296 116q32 0 54.5 15t34.5 46.5t12 78.5q0 56 -12 86.5t-34.5 42.5t-54.5 12q-33 0 -55 -12.5t-32.5 -43t-10.5 -85.5
q0 -73 24 -106.5t74 -33.5zM333 582v105h139v-105h-139zM141 582v105h140v-105h-140z" />
    <glyph glyph-name="divide" unicode="&#xf7;" horiz-adv-x="628" 
d="M95 207v105h441v-105h-441zM257 31v111h117v-111h-117zM257 379v111h117v-111h-117z" />
    <glyph glyph-name="oslash" unicode="&#xf8;" horiz-adv-x="607" 
d="M163 0h-148l427 499h148zM296 -15q-131 0 -196.5 68t-65.5 203q0 147 66 208.5t196 61.5q86 0 145 -27.5t89.5 -87t30.5 -155.5q0 -134 -68.5 -202.5t-196.5 -68.5zM296 116q32 0 54.5 15t34.5 46.5t12 78.5q0 56 -12 86.5t-34.5 42.5t-54.5 12q-33 0 -55 -12.5
t-32.5 -43t-10.5 -85.5q0 -73 24 -106.5t74 -33.5z" />
    <glyph glyph-name="ugrave" unicode="&#xf9;" horiz-adv-x="606" 
d="M308 -15q-72 0 -127 21.5t-86.5 68t-31.5 120.5v312h165v-300q0 -42 19.5 -63t61.5 -21t61 21t19 63v300h154v-312q0 -110 -63.5 -160t-171.5 -50zM270 566l-117 125h162l44 -125h-89z" />
    <glyph glyph-name="uacute" unicode="&#xfa;" horiz-adv-x="606" 
d="M308 -15q-72 0 -127 21.5t-86.5 68t-31.5 120.5v312h165v-300q0 -42 19.5 -63t61.5 -21t61 21t19 63v300h154v-312q0 -110 -63.5 -160t-171.5 -50zM261 566l44 125h161l-117 -125h-88z" />
    <glyph glyph-name="ucircumflex" unicode="&#xfb;" horiz-adv-x="606" 
d="M308 -15q-72 0 -127 21.5t-86.5 68t-31.5 120.5v312h165v-300q0 -42 19.5 -63t61.5 -21t61 21t19 63v300h154v-312q0 -110 -63.5 -160t-171.5 -50zM164 572l89 122h135l88 -122h-110l-46 56l-45 -56h-111z" />
    <glyph glyph-name="udieresis" unicode="&#xfc;" horiz-adv-x="606" 
d="M308 -15q-72 0 -127 21.5t-86.5 68t-31.5 120.5v312h165v-300q0 -42 19.5 -63t61.5 -21t61 21t19 63v300h154v-312q0 -110 -63.5 -160t-171.5 -50zM347 574v105h139v-105h-139zM155 574v105h140v-105h-140z" />
    <glyph glyph-name="yacute" unicode="&#xfd;" horiz-adv-x="605" 
d="M185 -196q-27 0 -53.5 5t-46.5 14v133q19 -6 33.5 -9t29.5 -3q23 0 41 10.5t30 36.5t17 75l4 -96l-218 537h189l105 -340h-15l103 340h178l-195 -506q-28 -72 -60 -115.5t-68 -62.5t-74 -19zM252 549l44 125h161l-117 -125h-88z" />
    <glyph glyph-name="thorn" unicode="&#xfe;" horiz-adv-x="600" 
d="M227 -181h-164v879h164v-879zM227 125q16 -8 37 -13t37 -5q32 0 54 12t34.5 41t12.5 80q0 42 -9.5 70.5t-30 43t-56.5 14.5q-18 0 -41.5 -4.5t-37.5 -14.5l-144 112q17 10 44.5 17.5t60.5 13.5t66 9.5t59 3.5q76 0 132.5 -25t89 -84.5t32.5 -161.5q0 -75 -27 -133
t-76 -91t-118 -33q-14 0 -41 2t-57 12.5t-52 36.5z" />
    <glyph glyph-name="ydieresis" unicode="&#xff;" horiz-adv-x="605" 
d="M185 -196q-27 0 -53.5 5t-46.5 14v133q19 -6 33.5 -9t29.5 -3q23 0 41 10.5t30 36.5t17 75l4 -96l-218 537h189l105 -340h-15l103 340h178l-195 -506q-28 -72 -60 -115.5t-68 -62.5t-74 -19zM338 557v105h139v-105h-139zM146 557v105h140v-105h-140z" />
    <glyph glyph-name="Amacron" unicode="&#x100;" horiz-adv-x="702" 
d="M12 0l249 667h199l230 -667h-186l-209 636l93 8l-208 -644h-168zM159 131l34 129h298l17 -129h-349zM203 711v103h285v-103h-285z" />
    <glyph glyph-name="amacron" unicode="&#x101;" horiz-adv-x="575" 
d="M263 -15q-49 0 -90.5 8.5t-72.5 28.5t-48 55t-17 85q0 45 18.5 79t58.5 54t102 20q33 0 65 -7.5t58 -20t40 -27.5l5 -74q-20 11 -45 17.5t-52 6.5q-46 0 -66.5 -12.5t-20.5 -41.5q0 -15 9.5 -28t25 -21t33.5 -8q48 0 65.5 6t17.5 25v176q0 44 -28.5 63.5t-80.5 19.5
q-45 0 -90 -17t-71 -38v145q24 16 79.5 30t127.5 14q21 0 50.5 -3.5t60 -13.5t57 -30t42.5 -52t16 -81l-1 -238q0 -41 -28.5 -68t-83.5 -39.5t-136 -12.5zM135 572v103h285v-103h-285z" />
    <glyph glyph-name="Abreve" unicode="&#x102;" horiz-adv-x="702" 
d="M12 0l249 667h199l230 -667h-186l-209 636l93 8l-208 -644h-168zM159 131l34 129h298l17 -129h-349zM351 702q-50 0 -81.5 18t-48 49.5t-23.5 68.5h89q6 -18 21.5 -37t42.5 -19q29 0 44 19t21 37h90q-4 -37 -21 -68.5t-49.5 -49.5t-84.5 -18z" />
    <glyph glyph-name="abreve" unicode="&#x103;" horiz-adv-x="575" 
d="M263 -15q-49 0 -90.5 8.5t-72.5 28.5t-48 55t-17 85q0 45 18.5 79t58.5 54t102 20q33 0 65 -7.5t58 -20t40 -27.5l5 -74q-20 11 -45 17.5t-52 6.5q-46 0 -66.5 -12.5t-20.5 -41.5q0 -15 9.5 -28t25 -21t33.5 -8q48 0 65.5 6t17.5 25v176q0 44 -28.5 63.5t-80.5 19.5
q-45 0 -90 -17t-71 -38v145q24 16 79.5 30t127.5 14q21 0 50.5 -3.5t60 -13.5t57 -30t42.5 -52t16 -81l-1 -238q0 -41 -28.5 -68t-83.5 -39.5t-136 -12.5zM282 562q-50 0 -81.5 18t-48 49.5t-23.5 68.5h89q6 -18 21.5 -37t42.5 -19q29 0 44 19t21 37h90q-4 -37 -21 -68.5
t-49.5 -49.5t-84.5 -18z" />
    <glyph glyph-name="Aogonek" unicode="&#x104;" horiz-adv-x="702" 
d="M12 0l249 667h199l230 -667h-186l-209 636l93 8l-208 -644h-168zM159 131l34 129h298l17 -129h-349zM595 -191q-70 0 -102.5 24.5t-32.5 73.5q0 41 35.5 69.5t92.5 50.5l100 -27q-40 -16 -69 -35.5t-29 -40.5t10 -28t25 -7q19 0 36 10.5t32 24.5v-90q-15 -8 -37 -16.5
t-61 -8.5z" />
    <glyph glyph-name="aogonek" unicode="&#x105;" horiz-adv-x="575" 
d="M263 -15q-49 0 -90.5 8.5t-72.5 28.5t-48 55t-17 85q0 45 18.5 79t58.5 54t102 20q33 0 65 -7.5t58 -20t40 -27.5l5 -74q-20 11 -45 17.5t-52 6.5q-46 0 -66.5 -12.5t-20.5 -41.5q0 -15 9.5 -28t25 -21t33.5 -8q48 0 65.5 6t17.5 25v176q0 44 -28.5 63.5t-80.5 19.5
q-45 0 -90 -17t-71 -38v145q24 16 79.5 30t127.5 14q21 0 50.5 -3.5t60 -13.5t57 -30t42.5 -52t16 -81l-1 -238q0 -41 -28.5 -68t-83.5 -39.5t-136 -12.5zM363 -173q-70 0 -102.5 24.5t-32.5 73.5q0 41 35.5 69.5t92.5 50.5l100 -27q-40 -16 -69 -35.5t-29 -40.5t10 -28
t25 -7q19 0 36 10.5t32 24.5v-90q-15 -8 -37 -16.5t-61 -8.5z" />
    <glyph glyph-name="Cacute" unicode="&#x106;" horiz-adv-x="631" 
d="M367 -14q-162 0 -247.5 84t-85.5 263q0 173 81.5 261.5t251.5 88.5q53 0 107.5 -13t106.5 -36v-156q-54 36 -102 51.5t-87 15.5q-54 0 -92 -19.5t-58.5 -65.5t-20.5 -128q0 -79 21 -125t60.5 -64.5t97.5 -18.5q34 0 80.5 15t100.5 50v-156q-27 -14 -63.5 -24.5t-76 -16.5
t-74.5 -6zM310 742l32 112h174l-126 -112h-80z" />
    <glyph glyph-name="cacute" unicode="&#x107;" horiz-adv-x="504" 
d="M306 -14q-57 0 -106 17.5t-86.5 50.5t-58.5 81t-21 110q0 67 19 119t55 87t85.5 53t110.5 18q43 0 87.5 -8.5t76.5 -24.5v-140q-35 17 -68 28t-68 11q-58 0 -96 -28.5t-38 -93.5q0 -70 32.5 -106.5t109.5 -36.5q37 0 71.5 14t58.5 28v-138q-35 -20 -73.5 -30.5
t-90.5 -10.5zM242 566l44 125h161l-117 -125h-88z" />
    <glyph glyph-name="Ccircumflex" unicode="&#x108;" horiz-adv-x="631" 
d="M367 -14q-162 0 -247.5 84t-85.5 263q0 173 81.5 261.5t251.5 88.5q53 0 107.5 -13t106.5 -36v-156q-54 36 -102 51.5t-87 15.5q-54 0 -92 -19.5t-58.5 -65.5t-20.5 -128q0 -79 21 -125t60.5 -64.5t97.5 -18.5q34 0 80.5 15t100.5 50v-156q-27 -14 -63.5 -24.5t-76 -16.5
t-74.5 -6zM198 733l89 122h135l88 -122h-110l-46 56l-45 -56h-111z" />
    <glyph glyph-name="ccircumflex" unicode="&#x109;" horiz-adv-x="504" 
d="M306 -14q-57 0 -106 17.5t-86.5 50.5t-58.5 81t-21 110q0 67 19 119t55 87t85.5 53t110.5 18q43 0 87.5 -8.5t76.5 -24.5v-140q-35 17 -68 28t-68 11q-58 0 -96 -28.5t-38 -93.5q0 -70 32.5 -106.5t109.5 -36.5q37 0 71.5 14t58.5 28v-138q-35 -20 -73.5 -30.5
t-90.5 -10.5zM146 572l89 122h135l88 -122h-110l-46 56l-45 -56h-111z" />
    <glyph glyph-name="Cdotaccent" unicode="&#x10a;" horiz-adv-x="631" 
d="M367 -14q-162 0 -247.5 84t-85.5 263q0 173 81.5 261.5t251.5 88.5q53 0 107.5 -13t106.5 -36v-156q-54 36 -102 51.5t-87 15.5q-54 0 -92 -19.5t-58.5 -65.5t-20.5 -128q0 -79 21 -125t60.5 -64.5t97.5 -18.5q34 0 80.5 15t100.5 50v-156q-27 -14 -63.5 -24.5t-76 -16.5
t-74.5 -6zM276 721v104h131v-104h-131z" />
    <glyph glyph-name="cdotaccent" unicode="&#x10b;" horiz-adv-x="504" 
d="M306 -14q-57 0 -106 17.5t-86.5 50.5t-58.5 81t-21 110q0 67 19 119t55 87t85.5 53t110.5 18q43 0 87.5 -8.5t76.5 -24.5v-140q-35 17 -68 28t-68 11q-58 0 -96 -28.5t-38 -93.5q0 -70 32.5 -106.5t109.5 -36.5q37 0 71.5 14t58.5 28v-138q-35 -20 -73.5 -30.5
t-90.5 -10.5zM216 566v104h131v-104h-131z" />
    <glyph glyph-name="Ccaron" unicode="&#x10c;" horiz-adv-x="631" 
d="M367 -14q-162 0 -247.5 84t-85.5 263q0 173 81.5 261.5t251.5 88.5q53 0 107.5 -13t106.5 -36v-156q-54 36 -102 51.5t-87 15.5q-54 0 -92 -19.5t-58.5 -65.5t-20.5 -128q0 -79 21 -125t60.5 -64.5t97.5 -18.5q34 0 80.5 15t100.5 50v-156q-27 -14 -63.5 -24.5t-76 -16.5
t-74.5 -6zM284 725l-80 122h103l43 -57l42 57h104l-72 -122h-140z" />
    <glyph glyph-name="ccaron" unicode="&#x10d;" horiz-adv-x="504" 
d="M306 -14q-57 0 -106 17.5t-86.5 50.5t-58.5 81t-21 110q0 67 19 119t55 87t85.5 53t110.5 18q43 0 87.5 -8.5t76.5 -24.5v-140q-35 17 -68 28t-68 11q-58 0 -96 -28.5t-38 -93.5q0 -70 32.5 -106.5t109.5 -36.5q37 0 71.5 14t58.5 28v-138q-35 -20 -73.5 -30.5
t-90.5 -10.5zM223 581l-80 122h103l43 -57l42 57h104l-72 -122h-140z" />
    <glyph glyph-name="Dcaron" unicode="&#x10e;" horiz-adv-x="721" 
d="M68 0v667h280q173 0 253.5 -85t80.5 -249q0 -163 -80.5 -248t-253.5 -85h-280zM249 138h77q83 0 126.5 46.5t43.5 148.5q0 103 -43.5 149.5t-126.5 46.5h-77v-391zM252 700l-80 122h103l43 -57l42 57h104l-72 -122h-140z" />
    <glyph glyph-name="dcaron" unicode="&#x10f;" horiz-adv-x="767" 
d="M312 -15q-64 0 -115 13.5t-87.5 44.5t-56 83.5t-19.5 131.5q0 124 61 196t184 72q14 0 39 -2.5t53 -12.5t51 -36l-31 -52v292h163v-574q0 -38 -19.5 -67.5t-53.5 -49t-77.5 -29.5t-91.5 -10zM319 122q33 0 52.5 9t19.5 28v216q-16 9 -33.5 13.5t-33.5 4.5q-40 0 -68 -12
t-42 -42.5t-14 -86.5q0 -42 12 -71t38.5 -44t68.5 -15zM571 510l74 196h130l-94 -196h-110z" />
    <glyph glyph-name="Dcroat" unicode="&#x110;" horiz-adv-x="721" 
d="M68 0v667h280q173 0 253.5 -85t80.5 -249q0 -163 -80.5 -248t-253.5 -85h-280zM249 138h77q83 0 126.5 46.5t43.5 148.5q0 103 -43.5 149.5t-126.5 46.5h-77v-391zM5 284v100h312v-100h-312z" />
    <glyph glyph-name="dcroat" unicode="&#x111;" horiz-adv-x="617" 
d="M312 -15q-64 0 -115 13.5t-87.5 44.5t-56 83.5t-19.5 131.5q0 124 61 196t184 72q14 0 39 -2.5t53 -12.5t51 -36l-31 -52v292h163v-574q0 -38 -19.5 -67.5t-53.5 -49t-77.5 -29.5t-91.5 -10zM319 122q33 0 52.5 9t19.5 28v216q-16 9 -33.5 13.5t-33.5 4.5q-40 0 -68 -12
t-42 -42.5t-14 -86.5q0 -42 12 -71t38.5 -44t68.5 -15zM300 549v100h312v-100h-312z" />
    <glyph glyph-name="Emacron" unicode="&#x112;" horiz-adv-x="595" 
d="M68 0v667h465v-138h-283v-126h244v-138h-245v-127h284v-138h-465zM155 711v103h285v-103h-285z" />
    <glyph glyph-name="emacron" unicode="&#x113;" horiz-adv-x="565" 
d="M297 -15q-78 0 -137.5 31.5t-92.5 90t-33 138.5q0 133 67 207t193 74q84 0 136 -36t77 -107t24 -174h-382l-20 101h262l-20 -54q-1 81 -20.5 113.5t-64.5 32.5q-24 0 -44 -13.5t-31.5 -43.5t-11.5 -81q0 -69 32.5 -105.5t107.5 -36.5q27 0 54 6.5t50 15.5t39 14v-140
q-35 -13 -79.5 -23t-105.5 -10zM142 564v103h285v-103h-285z" />
    <glyph glyph-name="Ebreve" unicode="&#x114;" horiz-adv-x="595" 
d="M68 0v667h465v-138h-283v-126h244v-138h-245v-127h284v-138h-465zM303 702q-50 0 -81.5 18t-48 49.5t-23.5 68.5h89q6 -18 21.5 -37t42.5 -19q29 0 44 19t21 37h90q-4 -37 -21 -68.5t-49.5 -49.5t-84.5 -18z" />
    <glyph glyph-name="ebreve" unicode="&#x115;" horiz-adv-x="565" 
d="M297 -15q-78 0 -137.5 31.5t-92.5 90t-33 138.5q0 133 67 207t193 74q84 0 136 -36t77 -107t24 -174h-382l-20 101h262l-20 -54q-1 81 -20.5 113.5t-64.5 32.5q-24 0 -44 -13.5t-31.5 -43.5t-11.5 -81q0 -69 32.5 -105.5t107.5 -36.5q27 0 54 6.5t50 15.5t39 14v-140
q-35 -13 -79.5 -23t-105.5 -10zM290 554q-50 0 -81.5 18t-48 49.5t-23.5 68.5h89q6 -18 21.5 -37t42.5 -19q29 0 44 19t21 37h90q-4 -37 -21 -68.5t-49.5 -49.5t-84.5 -18z" />
    <glyph glyph-name="Edotaccent" unicode="&#x116;" horiz-adv-x="595" 
d="M68 0v667h465v-138h-283v-126h244v-138h-245v-127h284v-138h-465zM225 696v104h131v-104h-131z" />
    <glyph glyph-name="edotaccent" unicode="&#x117;" horiz-adv-x="565" 
d="M297 -15q-78 0 -137.5 31.5t-92.5 90t-33 138.5q0 133 67 207t193 74q84 0 136 -36t77 -107t24 -174h-382l-20 101h262l-20 -54q-1 81 -20.5 113.5t-64.5 32.5q-24 0 -44 -13.5t-31.5 -43.5t-11.5 -81q0 -69 32.5 -105.5t107.5 -36.5q27 0 54 6.5t50 15.5t39 14v-140
q-35 -13 -79.5 -23t-105.5 -10zM212 566v104h131v-104h-131z" />
    <glyph glyph-name="Eogonek" unicode="&#x118;" horiz-adv-x="595" 
d="M68 0v667h465v-138h-283v-126h244v-138h-245v-127h284v-138h-465zM427 -191q-70 0 -102.5 24.5t-32.5 73.5q0 41 35.5 69.5t92.5 50.5l100 -27q-40 -16 -69 -35.5t-29 -40.5t10 -28t25 -7q19 0 36 10.5t32 24.5v-90q-15 -8 -37 -16.5t-61 -8.5z" />
    <glyph glyph-name="eogonek" unicode="&#x119;" horiz-adv-x="565" 
d="M297 -15q-78 0 -137.5 31.5t-92.5 90t-33 138.5q0 133 67 207t193 74q84 0 136 -36t77 -107t24 -174h-382l-20 101h262l-20 -54q-1 81 -20.5 113.5t-64.5 32.5q-24 0 -44 -13.5t-31.5 -43.5t-11.5 -81q0 -69 32.5 -105.5t107.5 -36.5q27 0 54 6.5t50 15.5t39 14v-140
q-35 -13 -79.5 -23t-105.5 -10zM371 -181q-70 0 -102.5 24.5t-32.5 73.5q0 41 35.5 69.5t92.5 50.5l100 -27q-40 -16 -69 -35.5t-29 -40.5t10 -28t25 -7q19 0 36 10.5t32 24.5v-90q-15 -8 -37 -16.5t-61 -8.5z" />
    <glyph glyph-name="Ecaron" unicode="&#x11a;" horiz-adv-x="595" 
d="M68 0v667h465v-138h-283v-126h244v-138h-245v-127h284v-138h-465zM233 700l-80 122h103l43 -57l42 57h104l-72 -122h-140z" />
    <glyph glyph-name="ecaron" unicode="&#x11b;" horiz-adv-x="565" 
d="M297 -15q-78 0 -137.5 31.5t-92.5 90t-33 138.5q0 133 67 207t193 74q84 0 136 -36t77 -107t24 -174h-382l-20 101h262l-20 -54q-1 81 -20.5 113.5t-64.5 32.5q-24 0 -44 -13.5t-31.5 -43.5t-11.5 -81q0 -69 32.5 -105.5t107.5 -36.5q27 0 54 6.5t50 15.5t39 14v-140
q-35 -13 -79.5 -23t-105.5 -10zM220 581l-80 122h103l43 -57l42 57h104l-72 -122h-140z" />
    <glyph glyph-name="Gcircumflex" unicode="&#x11c;" horiz-adv-x="710" 
d="M368 -14q-98 0 -172 34t-115.5 110.5t-41.5 202.5q0 123 41.5 200.5t115.5 113.5t171 36q65 0 126.5 -13t118.5 -36v-163q-63 34 -114.5 53.5t-106.5 19.5q-52 0 -89.5 -18.5t-57.5 -64t-20 -127.5q0 -80 21 -126.5t56.5 -65.5t79.5 -19q25 0 45.5 3.5t34.5 10.5v103
h-100v138h281v-316q-64 -37 -133.5 -56.5t-140.5 -19.5zM216 725l89 122h135l88 -122h-110l-46 56l-45 -56h-111z" />
    <glyph glyph-name="gcircumflex" unicode="&#x11d;" horiz-adv-x="598" 
d="M255 -15q-67 4 -116.5 31.5t-77 82t-27.5 139.5q0 83 20 138.5t58 87.5t93 45.5t125 13.5q67 0 114.5 -16.5t73 -47.5t25.5 -75v-387q0 -58 -18.5 -100t-54 -70t-84.5 -41.5t-110 -13.5q-71 0 -121 10t-75 24v146q15 -8 45.5 -18.5t69 -18t76.5 -7.5q42 0 66 12.5t34 34
t10 50.5v83l31 -20q-15 -25 -36 -44t-50 -29t-71 -10zM302 106q24 0 43.5 5t35.5 15v220q0 20 -10.5 30t-27.5 13.5t-35 3.5q-40 0 -64 -17.5t-35 -50.5t-11 -77q0 -66 30 -104t74 -38zM182 581l89 122h135l88 -122h-110l-46 56l-45 -56h-111z" />
    <glyph glyph-name="Gbreve" unicode="&#x11e;" horiz-adv-x="710" 
d="M368 -14q-98 0 -172 34t-115.5 110.5t-41.5 202.5q0 123 41.5 200.5t115.5 113.5t171 36q65 0 126.5 -13t118.5 -36v-163q-63 34 -114.5 53.5t-106.5 19.5q-52 0 -89.5 -18.5t-57.5 -64t-20 -127.5q0 -80 21 -126.5t56.5 -65.5t79.5 -19q25 0 45.5 3.5t34.5 10.5v103
h-100v138h281v-316q-64 -37 -133.5 -56.5t-140.5 -19.5zM372 719q-50 0 -81.5 18t-48 49.5t-23.5 68.5h89q6 -18 21.5 -37t42.5 -19q29 0 44 19t21 37h90q-4 -37 -21 -68.5t-49.5 -49.5t-84.5 -18z" />
    <glyph glyph-name="gbreve" unicode="&#x11f;" horiz-adv-x="598" 
d="M255 -15q-67 4 -116.5 31.5t-77 82t-27.5 139.5q0 83 20 138.5t58 87.5t93 45.5t125 13.5q67 0 114.5 -16.5t73 -47.5t25.5 -75v-387q0 -58 -18.5 -100t-54 -70t-84.5 -41.5t-110 -13.5q-71 0 -121 10t-75 24v146q15 -8 45.5 -18.5t69 -18t76.5 -7.5q42 0 66 12.5t34 34
t10 50.5v83l31 -20q-15 -25 -36 -44t-50 -29t-71 -10zM302 106q24 0 43.5 5t35.5 15v220q0 20 -10.5 30t-27.5 13.5t-35 3.5q-40 0 -64 -17.5t-35 -50.5t-11 -77q0 -66 30 -104t74 -38zM329 562q-50 0 -81.5 18t-48 49.5t-23.5 68.5h89q6 -18 21.5 -37t42.5 -19q29 0 44 19
t21 37h90q-4 -37 -21 -68.5t-49.5 -49.5t-84.5 -18z" />
    <glyph glyph-name="Gdotaccent" unicode="&#x120;" horiz-adv-x="710" 
d="M368 -14q-98 0 -172 34t-115.5 110.5t-41.5 202.5q0 123 41.5 200.5t115.5 113.5t171 36q65 0 126.5 -13t118.5 -36v-163q-63 34 -114.5 53.5t-106.5 19.5q-52 0 -89.5 -18.5t-57.5 -64t-20 -127.5q0 -80 21 -126.5t56.5 -65.5t79.5 -19q25 0 45.5 3.5t34.5 10.5v103
h-100v138h281v-316q-64 -37 -133.5 -56.5t-140.5 -19.5zM295 713v104h131v-104h-131z" />
    <glyph glyph-name="gdotaccent" unicode="&#x121;" horiz-adv-x="598" 
d="M255 -15q-67 4 -116.5 31.5t-77 82t-27.5 139.5q0 83 20 138.5t58 87.5t93 45.5t125 13.5q67 0 114.5 -16.5t73 -47.5t25.5 -75v-387q0 -58 -18.5 -100t-54 -70t-84.5 -41.5t-110 -13.5q-71 0 -121 10t-75 24v146q15 -8 45.5 -18.5t69 -18t76.5 -7.5q42 0 66 12.5t34 34
t10 50.5v83l31 -20q-15 -25 -36 -44t-50 -29t-71 -10zM302 106q24 0 43.5 5t35.5 15v220q0 20 -10.5 30t-27.5 13.5t-35 3.5q-40 0 -64 -17.5t-35 -50.5t-11 -77q0 -66 30 -104t74 -38zM252 574v104h131v-104h-131z" />
    <glyph glyph-name="uni0122" unicode="&#x122;" horiz-adv-x="710" 
d="M368 -14q-98 0 -172 34t-115.5 110.5t-41.5 202.5q0 123 41.5 200.5t115.5 113.5t171 36q65 0 126.5 -13t118.5 -36v-163q-63 34 -114.5 53.5t-106.5 19.5q-52 0 -89.5 -18.5t-57.5 -64t-20 -127.5q0 -80 21 -126.5t56.5 -65.5t79.5 -19q25 0 45.5 3.5t34.5 10.5v103
h-100v138h281v-316q-64 -37 -133.5 -56.5t-140.5 -19.5zM293 -194v72q15 4 23.5 12t12 23.5t2.5 36.5h124q0 -41 -18.5 -73t-54.5 -51t-89 -20z" />
    <glyph glyph-name="uni0123" unicode="&#x123;" horiz-adv-x="598" 
d="M420 718v-72q-16 -2 -24.5 -11t-11.5 -23.5t-3 -37.5h-123q-1 42 17.5 74t55 51t89.5 19zM255 -15q-67 4 -116.5 31.5t-77 82t-27.5 139.5q0 83 20 138.5t58 87.5t93 45.5t125 13.5q67 0 114.5 -16.5t73 -47.5t25.5 -75v-387q0 -58 -18.5 -100t-54 -70t-84.5 -41.5
t-110 -13.5q-71 0 -121 10t-75 24v146q15 -8 45.5 -18.5t69 -18t76.5 -7.5q42 0 66 12.5t34 34t10 50.5v83l31 -20q-15 -25 -36 -44t-50 -29t-71 -10zM302 106q24 0 43.5 5t35.5 15v220q0 20 -10.5 30t-27.5 13.5t-35 3.5q-40 0 -64 -17.5t-35 -50.5t-11 -77q0 -66 30 -104
t74 -38z" />
    <glyph glyph-name="Hcircumflex" unicode="&#x124;" horiz-adv-x="719" 
d="M68 0v667h181v-263h221v263h181v-667h-181v257h-221v-257h-181zM203 708l89 122h135l88 -122h-110l-46 56l-45 -56h-111z" />
    <glyph glyph-name="hcircumflex" unicode="&#x125;" horiz-adv-x="619" 
d="M63 0v703h166v-305l-74 38q41 38 98 62t118 24q53 0 95 -16.5t66 -56t24 -110.5v-339h-165v302q0 45 -23 65t-67 20q-21 0 -42.5 -6.5t-29.5 -13.5l-2 -367h-164zM-14 741l89 122h135l88 -122h-110l-46 56l-45 -56h-111z" />
    <glyph glyph-name="Hbar" unicode="&#x126;" horiz-adv-x="719" 
d="M27 489v83h666v-83h-666zM68 0v667h181v-263h221v263h181v-667h-181v257h-221v-257h-181z" />
    <glyph glyph-name="hbar" unicode="&#x127;" horiz-adv-x="619" 
d="M63 0v703h166v-305l-74 38q41 38 98 62t118 24q53 0 95 -16.5t66 -56t24 -110.5v-339h-165v302q0 45 -23 65t-67 20q-21 0 -42.5 -6.5t-29.5 -13.5l-2 -367h-164zM-2 543v100h312v-100h-312z" />
    <glyph glyph-name="Itilde" unicode="&#x128;" horiz-adv-x="318" 
d="M68 0v667h182v-667h-182zM54 718h-74q-2 39 13 72.5t43 54t65 20.5q26 0 47 -10t38.5 -22.5t34.5 -22.5t35 -10t27 14.5t9 46.5h76q1 -46 -15.5 -78.5t-43.5 -49.5t-59 -17q-34 0 -57 10t-39.5 22.5t-30 22.5t-29.5 10q-23 0 -32 -21t-8 -42z" />
    <glyph glyph-name="itilde" unicode="&#x129;" horiz-adv-x="293" 
d="M63 0v499h165l2 -499h-167zM35 545h-74q-2 39 13 72.5t43 54t65 20.5q26 0 47 -10t38.5 -22.5t34.5 -22.5t35 -10t27 14.5t9 46.5h76q1 -46 -15.5 -78.5t-43.5 -49.5t-59 -17q-34 0 -57 10t-39.5 22.5t-30 22.5t-29.5 10q-23 0 -32 -21t-8 -42z" />
    <glyph glyph-name="Imacron" unicode="&#x12a;" horiz-adv-x="318" 
d="M68 0v667h182v-667h-182zM17 711v103h285v-103h-285z" />
    <glyph glyph-name="imacron" unicode="&#x12b;" horiz-adv-x="346" 
d="M96 0v499h157v-499h-157zM58 559v83h234v-83h-234z" />
    <glyph glyph-name="Ibreve" unicode="&#x12c;" horiz-adv-x="318" 
d="M68 0v667h182v-667h-182zM165 702q-50 0 -81.5 18t-48 49.5t-23.5 68.5h89q6 -18 21.5 -37t42.5 -19q29 0 44 19t21 37h90q-4 -37 -21 -68.5t-49.5 -49.5t-84.5 -18z" />
    <glyph glyph-name="ibreve" unicode="&#x12d;" horiz-adv-x="293" 
d="M63 0v499h165l2 -499h-167zM146 537q-50 0 -81.5 18t-48 49.5t-23.5 68.5h89q6 -18 21.5 -37t42.5 -19q29 0 44 19t21 37h90q-4 -37 -21 -68.5t-49.5 -49.5t-84.5 -18z" />
    <glyph glyph-name="Iogonek" unicode="&#x12e;" horiz-adv-x="318" 
d="M152 -191q-70 0 -102.5 24.5t-32.5 73.5q0 41 36.5 70t93.5 51l98 -28q-40 -16 -69 -35.5t-29 -40.5t10 -28t25 -7q19 0 36 10.5t32 24.5v-90q-15 -8 -37 -16.5t-61 -8.5zM68 0v667h182v-667h-182z" />
    <glyph glyph-name="iogonek" unicode="&#x12f;" horiz-adv-x="296" 
d="M140 -190q-70 0 -102.5 24.5t-32.5 73.5q0 41 36 70t94 51l98 -28q-41 -17 -69.5 -36.5t-28.5 -39.5q0 -21 10 -28.5t25 -7.5q19 0 36 10.5t32 25.5v-90q-15 -8 -37 -16.5t-61 -8.5zM65 0v499h166l1 -499h-167zM63 572v123h170v-123h-170z" />
    <glyph glyph-name="Idotaccent" unicode="&#x130;" horiz-adv-x="318" 
d="M68 0v667h182v-667h-182zM88 696v104h131v-104h-131z" />
    <glyph glyph-name="dotlessi" unicode="&#x131;" horiz-adv-x="293" 
d="M63 0v499h165l2 -499h-167z" />
    <glyph glyph-name="IJ" unicode="&#x132;" horiz-adv-x="801" 
d="M68 0v667h182v-667h-182zM513 -14q-45 0 -86 11t-77 27v163q35 -25 63 -42t54 -17q38 0 61.5 19.5t23.5 63.5v456h182v-464q0 -62 -19.5 -104t-51 -67t-71 -35.5t-79.5 -10.5z" />
    <glyph glyph-name="ij" unicode="&#x133;" horiz-adv-x="607" 
d="M65 0v499h166l1 -499h-167zM63 572v123h170v-123h-170zM302 -193v132q23 -3 40 2.5t26 20.5t9 38v507h165l2 -505q0 -77 -32.5 -119.5t-87.5 -59t-122 -16.5zM374 580v124h170v-124h-170z" />
    <glyph glyph-name="Jcircumflex" unicode="&#x134;" horiz-adv-x="484" 
d="M195 -14q-45 0 -86 11t-77 27v163q35 -25 63 -42t54 -17q38 0 61.5 19.5t23.5 63.5v456h182v-464q0 -62 -19.5 -104t-51 -67t-71 -35.5t-79.5 -10.5zM171 708l89 122h135l88 -122h-110l-46 56l-45 -56h-111z" />
    <glyph glyph-name="jcircumflex" unicode="&#x135;" horiz-adv-x="313" 
d="M3 -193v115q23 1 42 6t31 20t12 41v510h157v-497q0 -77 -32 -119.5t-87.5 -59t-122.5 -16.5zM29 557l114 122h47l114 -122h-95l-43 48l-42 -48h-95z" />
    <glyph glyph-name="uni0136" unicode="&#x136;" horiz-adv-x="694" 
d="M242 198l-66 105l254 364h228zM68 0v667h182v-667h-182zM394 421l283 -421h-225l-198 306zM250 -194v72q15 4 23.5 12t12 23.5t2.5 36.5h124q0 -41 -18.5 -73t-54.5 -51t-89 -20z" />
    <glyph glyph-name="uni0137" unicode="&#x137;" horiz-adv-x="630" 
d="M88 0v686h157v-327l123 140h201l-204 -221l227 -278h-191l-133 170l-23 -26v-144h-157zM241 -194v63q15 4 23.5 14.5t12 28t2.5 38.5h90q1 -41 -16.5 -73t-46.5 -51t-65 -20z" />
    <glyph glyph-name="kgreenlandic" unicode="&#x138;" horiz-adv-x="630" 
d="M88 0v499h157v-140l123 140h201l-204 -221l227 -278h-191l-133 170l-23 -26v-144h-157z" />
    <glyph glyph-name="Lacute" unicode="&#x139;" horiz-adv-x="561" 
d="M68 0v667h182v-528h278v-139h-460zM123 717l32 112h174l-126 -112h-80z" />
    <glyph glyph-name="lacute" unicode="&#x13a;" horiz-adv-x="290" 
d="M227 0h-164v698h164v-698zM102 720l32 112h174l-126 -112h-80z" />
    <glyph glyph-name="uni013B" unicode="&#x13b;" horiz-adv-x="561" 
d="M68 0v667h182v-528h278v-139h-460zM192 -194v72q15 4 23.5 12t12 23.5t2.5 36.5h124q0 -41 -18.5 -73t-54.5 -51t-89 -20z" />
    <glyph glyph-name="uni013C" unicode="&#x13c;" horiz-adv-x="290" 
d="M227 0h-164v698h164v-698zM55 -194v72q15 4 23.5 12t12 23.5t2.5 36.5h124q0 -41 -18.5 -73t-54.5 -51t-89 -20z" />
    <glyph glyph-name="Lcaron" unicode="&#x13d;" horiz-adv-x="561" 
d="M68 0v667h182v-528h278v-139h-460zM353 524v72q15 4 23.5 12t12 23.5t2.5 36.5h124q0 -41 -18.5 -73t-54.5 -51t-89 -20z" />
    <glyph glyph-name="lcaron" unicode="&#x13e;" horiz-adv-x="395" 
d="M101 0v689h157v-689h-157zM308 545v63q16 4 24.5 14.5t11.5 27.5t2 39h90q1 -41 -16.5 -73t-46 -51t-65.5 -20z" />
    <glyph glyph-name="Ldot" unicode="&#x13f;" horiz-adv-x="561" 
d="M68 0v667h182v-528h278v-139h-460zM358 267v129h134v-129h-134z" />
    <glyph glyph-name="ldot" unicode="&#x140;" horiz-adv-x="455" 
d="M227 0h-164v698h164v-698zM298 279v129h134v-129h-134z" />
    <glyph glyph-name="Lslash" unicode="&#x141;" horiz-adv-x="568" 
d="M346 466v-94l-299 -159v94zM68 0v667h182v-528h278v-139h-460z" />
    <glyph glyph-name="lslash" unicode="&#x142;" horiz-adv-x="407" 
d="M114 0v234l-93 -52v113l93 53v341h157v-254l122 69v-113l-122 -69v-322h-157z" />
    <glyph glyph-name="Nacute" unicode="&#x143;" horiz-adv-x="725" 
d="M68 0v667h150l328 -435l-55 -116v551h166v-667h-132l-330 424l38 82v-506h-165zM320 717l32 112h174l-126 -112h-80z" />
    <glyph glyph-name="nacute" unicode="&#x144;" horiz-adv-x="617" 
d="M63 464q18 10 50 20t71 18.5t79 14t73 5.5q67 0 116 -16t75.5 -55t26.5 -107v-344h-165v306q0 20 -5.5 35.5t-16 25.5t-28 15t-41.5 5q-21 0 -41.5 -5.5t-28.5 -11.5v-370h-165v464zM256 566l44 125h161l-117 -125h-88z" />
    <glyph glyph-name="uni0145" unicode="&#x145;" horiz-adv-x="725" 
d="M68 0v667h150l328 -435l-55 -116v551h166v-667h-132l-330 424l38 82v-506h-165zM273 -194v72q15 4 23.5 12t12 23.5t2.5 36.5h124q0 -41 -18.5 -73t-54.5 -51t-89 -20z" />
    <glyph glyph-name="uni0146" unicode="&#x146;" horiz-adv-x="617" 
d="M63 464q18 10 50 20t71 18.5t79 14t73 5.5q67 0 116 -16t75.5 -55t26.5 -107v-344h-165v306q0 20 -5.5 35.5t-16 25.5t-28 15t-41.5 5q-21 0 -41.5 -5.5t-28.5 -11.5v-370h-165v464zM218 -194v72q15 4 23.5 12t12 23.5t2.5 36.5h124q0 -41 -18.5 -73t-54.5 -51t-89 -20z
" />
    <glyph glyph-name="Ncaron" unicode="&#x147;" horiz-adv-x="725" 
d="M68 0v667h150l328 -435l-55 -116v551h166v-667h-132l-330 424l38 82v-506h-165zM293 700l-80 122h103l43 -57l42 57h104l-72 -122h-140z" />
    <glyph glyph-name="ncaron" unicode="&#x148;" horiz-adv-x="617" 
d="M63 464q18 10 50 20t71 18.5t79 14t73 5.5q67 0 116 -16t75.5 -55t26.5 -107v-344h-165v306q0 20 -5.5 35.5t-16 25.5t-28 15t-41.5 5q-21 0 -41.5 -5.5t-28.5 -11.5v-370h-165v464zM237 581l-80 122h103l43 -57l42 57h104l-72 -122h-140z" />
    <glyph glyph-name="napostrophe" unicode="&#x149;" horiz-adv-x="637" 
d="M82 0v448q3 2 22.5 10.5t52 19.5t75.5 19.5t92 8.5q105 0 165.5 -54.5t60.5 -152.5v-299h-157v322q0 13 -5.5 27.5t-24.5 25t-62 10.5q-18 0 -33.5 -2t-28.5 -6v-377h-157zM35 520v63q15 4 23.5 14.5t12 27.5t2.5 39h90q1 -41 -16.5 -73t-46.5 -51t-65 -20z" />
    <glyph glyph-name="Eng" unicode="&#x14a;" horiz-adv-x="782" 
d="M450 -190v116q23 0 42 5t31 19.5t12 40.5v39l22 -60l-313 452v-422h-157v667h158l290 -424v424h157v-668q-1 -74 -34 -115t-87 -57.5t-121 -16.5z" />
    <glyph glyph-name="eng" unicode="&#x14b;" horiz-adv-x="630" 
d="M60 0v419q20 17 59 37.5t86.5 35t93.5 14.5q65 0 117.5 -16.5t83.5 -54.5t31 -105v-331q0 -57 -19.5 -94t-54 -57.5t-78.5 -29t-95 -8.5v124q23 0 42 5t31 20t12 42v276q0 27 -7.5 47t-25.5 30.5t-50 10.5q-22 0 -40 -8.5t-24 -12.5v-344h-162z" />
    <glyph glyph-name="Omacron" unicode="&#x14c;" horiz-adv-x="740" 
d="M370 -14q-99 0 -173.5 37t-116 114t-41.5 196q0 172 87.5 260t243.5 88q99 0 173.5 -37t116 -113.5t41.5 -196.5q0 -172 -87 -260t-244 -88zM370 132q45 0 77 19t49.5 63.5t17.5 120.5q0 75 -17.5 119t-49.5 62.5t-77 18.5t-77 -19.5t-49.5 -63.5t-17.5 -120
q0 -75 17.5 -118.5t49.5 -62.5t77 -19zM223 736v103h285v-103h-285z" />
    <glyph glyph-name="omacron" unicode="&#x14d;" horiz-adv-x="594" 
d="M296 -15q-131 0 -196.5 68t-65.5 203q0 147 66 208.5t196 61.5q86 0 145 -27.5t89.5 -87t30.5 -155.5q0 -134 -68.5 -202.5t-196.5 -68.5zM296 116q32 0 54.5 15t34.5 46.5t12 78.5q0 56 -12 86.5t-34.5 42.5t-54.5 12q-33 0 -55 -12.5t-32.5 -43t-10.5 -85.5
q0 -73 24 -106.5t74 -33.5zM150 572v103h285v-103h-285z" />
    <glyph glyph-name="Obreve" unicode="&#x14e;" horiz-adv-x="740" 
d="M370 -14q-99 0 -173.5 37t-116 114t-41.5 196q0 172 87.5 260t243.5 88q99 0 173.5 -37t116 -113.5t41.5 -196.5q0 -172 -87 -260t-244 -88zM370 132q45 0 77 19t49.5 63.5t17.5 120.5q0 75 -17.5 119t-49.5 62.5t-77 18.5t-77 -19.5t-49.5 -63.5t-17.5 -120
q0 -75 17.5 -118.5t49.5 -62.5t77 -19zM371 728q-50 0 -81.5 18t-48 49.5t-23.5 68.5h89q6 -18 21.5 -37t42.5 -19q29 0 44 19t21 37h90q-4 -37 -21 -68.5t-49.5 -49.5t-84.5 -18z" />
    <glyph glyph-name="obreve" unicode="&#x14f;" horiz-adv-x="594" 
d="M296 -15q-131 0 -196.5 68t-65.5 203q0 147 66 208.5t196 61.5q86 0 145 -27.5t89.5 -87t30.5 -155.5q0 -134 -68.5 -202.5t-196.5 -68.5zM296 116q32 0 54.5 15t34.5 46.5t12 78.5q0 56 -12 86.5t-34.5 42.5t-54.5 12q-33 0 -55 -12.5t-32.5 -43t-10.5 -85.5
q0 -73 24 -106.5t74 -33.5zM298 562q-50 0 -81.5 18t-48 49.5t-23.5 68.5h89q6 -18 21.5 -37t42.5 -19q29 0 44 19t21 37h90q-4 -37 -21 -68.5t-49.5 -49.5t-84.5 -18z" />
    <glyph glyph-name="Ohungarumlaut" unicode="&#x150;" horiz-adv-x="740" 
d="M370 -14q-99 0 -173.5 37t-116 114t-41.5 196q0 172 87.5 260t243.5 88q99 0 173.5 -37t116 -113.5t41.5 -196.5q0 -172 -87 -260t-244 -88zM370 132q45 0 77 19t49.5 63.5t17.5 120.5q0 75 -17.5 119t-49.5 62.5t-77 18.5t-77 -19.5t-49.5 -63.5t-17.5 -120
q0 -75 17.5 -118.5t49.5 -62.5t77 -19zM398 746l62 117h110l-91 -117h-81zM252 746l61 117h111l-92 -117h-80z" />
    <glyph glyph-name="ohungarumlaut" unicode="&#x151;" horiz-adv-x="594" 
d="M296 -15q-131 0 -196.5 68t-65.5 203q0 147 66 208.5t196 61.5q86 0 145 -27.5t89.5 -87t30.5 -155.5q0 -134 -68.5 -202.5t-196.5 -68.5zM296 116q32 0 54.5 15t34.5 46.5t12 78.5q0 56 -12 86.5t-34.5 42.5t-54.5 12q-33 0 -55 -12.5t-32.5 -43t-10.5 -85.5
q0 -73 24 -106.5t74 -33.5zM325 582l62 117h110l-91 -117h-81zM179 582l61 117h111l-92 -117h-80z" />
    <glyph glyph-name="OE" unicode="&#x152;" horiz-adv-x="1045" 
d="M370 -14q-99 0 -173.5 37t-116 114t-41.5 196q0 172 87.5 260t243.5 88q99 0 173.5 -37t116 -113.5t41.5 -196.5q0 -172 -87 -260t-244 -88zM370 132q45 0 77 19t49.5 63.5t17.5 120.5q0 75 -17.5 119t-49.5 62.5t-77 18.5t-77 -19.5t-49.5 -63.5t-17.5 -120
q0 -75 17.5 -118.5t49.5 -62.5t77 -19zM517 0v667h465v-138h-283v-126h244v-138h-245v-127h284v-138h-465z" />
    <glyph glyph-name="oe" unicode="&#x153;" horiz-adv-x="930" 
d="M296 -15q-131 0 -196.5 68t-65.5 203q0 147 66 208.5t196 61.5q86 0 145 -27.5t89.5 -87t30.5 -155.5q0 -134 -68.5 -202.5t-196.5 -68.5zM296 116q32 0 54.5 15t34.5 46.5t12 78.5q0 56 -12 86.5t-34.5 42.5t-54.5 12q-33 0 -55 -12.5t-32.5 -43t-10.5 -85.5
q0 -73 24 -106.5t74 -33.5zM662 -15q-78 0 -137.5 31.5t-92.5 90t-33 138.5q0 133 67 207t193 74q84 0 136 -36t77 -107t24 -174h-382l-20 101h262l-20 -54q-1 81 -20.5 113.5t-64.5 32.5q-24 0 -44 -13.5t-31.5 -43.5t-11.5 -81q0 -69 32.5 -105.5t107.5 -36.5q27 0 54 6.5
t50 15.5t39 14v-140q-35 -13 -79.5 -23t-105.5 -10z" />
    <glyph glyph-name="Racute" unicode="&#x154;" horiz-adv-x="726" 
d="M68 0v667h336q116 0 183 -53t67 -162q0 -41 -16.5 -83t-50 -73.5t-84.5 -42.5l-20 61l207 -314h-232l-161 287l79 -66h-127v-221h-181zM249 351h129q34 0 57 21t23 71q0 44 -21.5 65t-54.5 21h-133v-178zM292 717l32 112h174l-126 -112h-80z" />
    <glyph glyph-name="racute" unicode="&#x155;" horiz-adv-x="439" 
d="M63 0v451q15 14 51 30.5t82.5 29t91.5 12.5q55 0 86 -8t47 -20v-119q-16 4 -42 7t-55 4t-54.5 0t-41.5 -3v-384h-165zM153 566l44 125h161l-117 -125h-88z" />
    <glyph glyph-name="uni0156" unicode="&#x156;" horiz-adv-x="726" 
d="M68 0v667h336q116 0 183 -53t67 -162q0 -41 -16.5 -83t-50 -73.5t-84.5 -42.5l-20 61l207 -314h-232l-161 287l79 -66h-127v-221h-181zM249 351h129q34 0 57 21t23 71q0 44 -21.5 65t-54.5 21h-133v-178zM274 -194v72q15 4 23.5 12t12 23.5t2.5 36.5h124q0 -41 -18.5 -73
t-54.5 -51t-89 -20z" />
    <glyph glyph-name="uni0157" unicode="&#x157;" horiz-adv-x="439" 
d="M63 0v451q15 14 51 30.5t82.5 29t91.5 12.5q55 0 86 -8t47 -20v-119q-16 4 -42 7t-55 4t-54.5 0t-41.5 -3v-384h-165zM43 -194v72q15 4 23.5 12t12 23.5t2.5 36.5h124q0 -41 -18.5 -73t-54.5 -51t-89 -20z" />
    <glyph glyph-name="Rcaron" unicode="&#x158;" horiz-adv-x="726" 
d="M68 0v667h336q116 0 183 -53t67 -162q0 -41 -16.5 -83t-50 -73.5t-84.5 -42.5l-20 61l207 -314h-232l-161 287l79 -66h-127v-221h-181zM249 351h129q34 0 57 21t23 71q0 44 -21.5 65t-54.5 21h-133v-178zM265 700l-80 122h103l43 -57l42 57h104l-72 -122h-140z" />
    <glyph glyph-name="rcaron" unicode="&#x159;" horiz-adv-x="439" 
d="M63 0v451q15 14 51 30.5t82.5 29t91.5 12.5q55 0 86 -8t47 -20v-119q-16 4 -42 7t-55 4t-54.5 0t-41.5 -3v-384h-165zM134 581l-80 122h103l43 -57l42 57h104l-72 -122h-140z" />
    <glyph glyph-name="Sacute" unicode="&#x15a;" horiz-adv-x="581" 
d="M299 -14q-50 0 -93 4t-79.5 13.5t-69.5 25.5v170q50 -39 109 -57.5t107 -18.5q38 0 61 14t23 48q0 23 -22.5 37.5t-60 26t-84.5 27.5q-28 10 -54.5 24t-47.5 35t-34 52t-13 75t16.5 84t49.5 71t84 48.5t119 17.5q41 0 74 -4.5t62.5 -14.5t59.5 -25v-172q-22 19 -51.5 36
t-61.5 29t-64 14q-27 1 -50.5 -4.5t-38 -19.5t-14.5 -38q0 -25 16.5 -39.5t46 -24t65.5 -19.5q42 -12 76.5 -27t59.5 -37t39 -53.5t14 -76.5q0 -64 -30 -114t-84.5 -78.5t-129.5 -28.5zM266 742l32 112h174l-126 -112h-80z" />
    <glyph glyph-name="sacute" unicode="&#x15b;" horiz-adv-x="487" 
d="M215 -15q-54 0 -93 12t-71 24v142q18 -13 44.5 -27.5t59 -24.5t69.5 -10q32 0 43 10.5t11 24.5t-15 23.5t-39 16.5t-51 12q-23 4 -45.5 14.5t-41 29t-29 46t-10.5 64.5q0 51 19.5 84.5t52 54t69.5 29.5t72 8q66 -2 103 -14t66 -31l1 -125q-33 18 -67.5 35t-78.5 17
q-37 0 -51 -11t-14 -28t10.5 -26.5t28 -15t37.5 -11.5q25 -6 52 -14t50 -24t37.5 -44t14.5 -74q-1 -63 -33.5 -99.5t-85.5 -52t-115 -15.5zM190 566l44 125h161l-117 -125h-88z" />
    <glyph glyph-name="Scircumflex" unicode="&#x15c;" horiz-adv-x="581" 
d="M299 -14q-50 0 -93 4t-79.5 13.5t-69.5 25.5v170q50 -39 109 -57.5t107 -18.5q38 0 61 14t23 48q0 23 -22.5 37.5t-60 26t-84.5 27.5q-28 10 -54.5 24t-47.5 35t-34 52t-13 75t16.5 84t49.5 71t84 48.5t119 17.5q41 0 74 -4.5t62.5 -14.5t59.5 -25v-172q-22 19 -51.5 36
t-61.5 29t-64 14q-27 1 -50.5 -4.5t-38 -19.5t-14.5 -38q0 -25 16.5 -39.5t46 -24t65.5 -19.5q42 -12 76.5 -27t59.5 -37t39 -53.5t14 -76.5q0 -64 -30 -114t-84.5 -78.5t-129.5 -28.5zM153 733l89 122h135l88 -122h-110l-46 56l-45 -56h-111z" />
    <glyph glyph-name="scircumflex" unicode="&#x15d;" horiz-adv-x="487" 
d="M215 -15q-54 0 -93 12t-71 24v142q18 -13 44.5 -27.5t59 -24.5t69.5 -10q32 0 43 10.5t11 24.5t-15 23.5t-39 16.5t-51 12q-23 4 -45.5 14.5t-41 29t-29 46t-10.5 64.5q0 51 19.5 84.5t52 54t69.5 29.5t72 8q66 -2 103 -14t66 -31l1 -125q-33 18 -67.5 35t-78.5 17
q-37 0 -51 -11t-14 -28t10.5 -26.5t28 -15t37.5 -11.5q25 -6 52 -14t50 -24t37.5 -44t14.5 -74q-1 -63 -33.5 -99.5t-85.5 -52t-115 -15.5zM93 572l89 122h135l88 -122h-110l-46 56l-45 -56h-111z" />
    <glyph glyph-name="Scedilla" unicode="&#x15e;" horiz-adv-x="581" 
d="M299 -14q-50 0 -93 4t-79.5 13.5t-69.5 25.5v170q50 -39 109 -57.5t107 -18.5q38 0 61 14t23 48q0 23 -22.5 37.5t-60 26t-84.5 27.5q-28 10 -54.5 24t-47.5 35t-34 52t-13 75t16.5 84t49.5 71t84 48.5t119 17.5q41 0 74 -4.5t62.5 -14.5t59.5 -25v-172q-22 19 -51.5 36
t-61.5 29t-64 14q-27 1 -50.5 -4.5t-38 -19.5t-14.5 -38q0 -25 16.5 -39.5t46 -24t65.5 -19.5q42 -12 76.5 -27t59.5 -37t39 -53.5t14 -76.5q0 -64 -30 -114t-84.5 -78.5t-129.5 -28.5zM125 -124l91 131h105l-49 -131h-147z" />
    <glyph glyph-name="scedilla" unicode="&#x15f;" horiz-adv-x="487" 
d="M215 -15q-54 0 -93 12t-71 24v142q18 -13 44.5 -27.5t59 -24.5t69.5 -10q32 0 43 10.5t11 24.5t-15 23.5t-39 16.5t-51 12q-23 4 -45.5 14.5t-41 29t-29 46t-10.5 64.5q0 51 19.5 84.5t52 54t69.5 29.5t72 8q66 -2 103 -14t66 -31l1 -125q-33 18 -67.5 35t-78.5 17
q-37 0 -51 -11t-14 -28t10.5 -26.5t28 -15t37.5 -11.5q25 -6 52 -14t50 -24t37.5 -44t14.5 -74q-1 -63 -33.5 -99.5t-85.5 -52t-115 -15.5zM131 -136l91 131h105l-49 -131h-147z" />
    <glyph glyph-name="Scaron" unicode="&#x160;" horiz-adv-x="581" 
d="M299 -14q-50 0 -93 4t-79.5 13.5t-69.5 25.5v170q50 -39 109 -57.5t107 -18.5q38 0 61 14t23 48q0 23 -22.5 37.5t-60 26t-84.5 27.5q-28 10 -54.5 24t-47.5 35t-34 52t-13 75t16.5 84t49.5 71t84 48.5t119 17.5q41 0 74 -4.5t62.5 -14.5t59.5 -25v-172q-22 19 -51.5 36
t-61.5 29t-64 14q-27 1 -50.5 -4.5t-38 -19.5t-14.5 -38q0 -25 16.5 -39.5t46 -24t65.5 -19.5q42 -12 76.5 -27t59.5 -37t39 -53.5t14 -76.5q0 -64 -30 -114t-84.5 -78.5t-129.5 -28.5zM240 725l-80 122h103l43 -57l42 57h104l-72 -122h-140z" />
    <glyph glyph-name="scaron" unicode="&#x161;" horiz-adv-x="487" 
d="M215 -15q-54 0 -93 12t-71 24v142q18 -13 44.5 -27.5t59 -24.5t69.5 -10q32 0 43 10.5t11 24.5t-15 23.5t-39 16.5t-51 12q-23 4 -45.5 14.5t-41 29t-29 46t-10.5 64.5q0 51 19.5 84.5t52 54t69.5 29.5t72 8q66 -2 103 -14t66 -31l1 -125q-33 18 -67.5 35t-78.5 17
q-37 0 -51 -11t-14 -28t10.5 -26.5t28 -15t37.5 -11.5q25 -6 52 -14t50 -24t37.5 -44t14.5 -74q-1 -63 -33.5 -99.5t-85.5 -52t-115 -15.5zM171 581l-80 122h103l43 -57l42 57h104l-72 -122h-140z" />
    <glyph glyph-name="uni0162" unicode="&#x162;" horiz-adv-x="587" 
d="M202 0v529h-178v138h539v-138h-181v-529h-180zM156 -124l91 131h105l-49 -131h-147z" />
    <glyph glyph-name="uni0163" unicode="&#x163;" horiz-adv-x="423" 
d="M281 -22q-95 0 -140 43t-45 122v240h-71v124h71v139h174v-139h108v-124h-108v-222q0 -22 11 -33t34 -11q14 0 32 6.5t31 16.5v-140q-24 -13 -49 -17.5t-48 -4.5zM115 -136l91 131h105l-49 -131h-147z" />
    <glyph glyph-name="Tcaron" unicode="&#x164;" horiz-adv-x="580" 
d="M211 0v524h-199v143h556v-143h-200v-524h-157zM266 724l-114 122h95l43 -48l42 48h95l-114 -122h-47z" />
    <glyph glyph-name="tcaron" unicode="&#x165;" horiz-adv-x="426" 
d="M281 -22q-95 0 -140 43t-45 122v240h-71v124h71v139h174v-139h108v-124h-108v-222q0 -22 11 -33t34 -11q14 0 32 6.5t31 16.5v-140q-24 -13 -49 -17.5t-48 -4.5zM309 566l74 196h130l-94 -196h-110z" />
    <glyph glyph-name="Tbar" unicode="&#x166;" horiz-adv-x="587" 
d="M202 0v529h-178v138h539v-138h-181v-529h-180zM137 284v100h312v-100h-312z" />
    <glyph glyph-name="tbar" unicode="&#x167;" horiz-adv-x="400" 
d="M265 -7q-40 0 -71.5 11t-53.5 32t-33.5 53t-11.5 74v56h-57v92h57v80h-71v108h71v147h157v-147h108v-108h-108v-80h94v-92h-94v-79q0 -14 10 -23.5t27 -9.5q15 0 32 5t39 18v-115q-24 -13 -48 -17.5t-47 -4.5z" />
    <glyph glyph-name="Utilde" unicode="&#x168;" horiz-adv-x="733" 
d="M384 -23q-159 0 -237.5 64t-78.5 203v423h189v-413q0 -71 27.5 -105t90.5 -34q56 0 87 34t31 105v413h172v-423q0 -93 -36 -152t-99.5 -87t-145.5 -28zM255 726h-74q-2 39 13 72.5t43 54t65 20.5q26 0 47 -10t38.5 -22.5t34.5 -22.5t35 -10t27 14.5t9 46.5h76
q1 -46 -15.5 -78.5t-43.5 -49.5t-59 -17q-34 0 -57 10t-39.5 22.5t-30 22.5t-29.5 10q-23 0 -32 -21t-8 -42z" />
    <glyph glyph-name="utilde" unicode="&#x169;" horiz-adv-x="606" 
d="M308 -15q-72 0 -127 21.5t-86.5 68t-31.5 120.5v312h165v-300q0 -42 19.5 -63t61.5 -21t61 21t19 63v300h154v-312q0 -110 -63.5 -160t-171.5 -50zM200 562h-74q-2 39 13 72.5t43 54t65 20.5q26 0 47 -10t38.5 -22.5t34.5 -22.5t35 -10t27 14.5t9 46.5h76
q1 -46 -15.5 -78.5t-43.5 -49.5t-59 -17q-34 0 -57 10t-39.5 22.5t-30 22.5t-29.5 10q-23 0 -32 -21t-8 -42z" />
    <glyph glyph-name="Umacron" unicode="&#x16a;" horiz-adv-x="733" 
d="M384 -23q-159 0 -237.5 64t-78.5 203v423h189v-413q0 -71 27.5 -105t90.5 -34q56 0 87 34t31 105v413h172v-423q0 -93 -36 -152t-99.5 -87t-145.5 -28zM218 719v103h285v-103h-285z" />
    <glyph glyph-name="umacron" unicode="&#x16b;" horiz-adv-x="606" 
d="M308 -15q-72 0 -127 21.5t-86.5 68t-31.5 120.5v312h165v-300q0 -42 19.5 -63t61.5 -21t61 21t19 63v300h154v-312q0 -110 -63.5 -160t-171.5 -50zM164 564v103h285v-103h-285z" />
    <glyph glyph-name="Ubreve" unicode="&#x16c;" horiz-adv-x="733" 
d="M384 -23q-159 0 -237.5 64t-78.5 203v423h189v-413q0 -71 27.5 -105t90.5 -34q56 0 87 34t31 105v413h172v-423q0 -93 -36 -152t-99.5 -87t-145.5 -28zM366 711q-50 0 -81.5 18t-48 49.5t-23.5 68.5h89q6 -18 21.5 -37t42.5 -19q29 0 44 19t21 37h90q-4 -37 -21 -68.5
t-49.5 -49.5t-84.5 -18z" />
    <glyph glyph-name="ubreve" unicode="&#x16d;" horiz-adv-x="606" 
d="M308 -15q-72 0 -127 21.5t-86.5 68t-31.5 120.5v312h165v-300q0 -42 19.5 -63t61.5 -21t61 21t19 63v300h154v-312q0 -110 -63.5 -160t-171.5 -50zM312 554q-50 0 -81.5 18t-48 49.5t-23.5 68.5h89q6 -18 21.5 -37t42.5 -19q29 0 44 19t21 37h90q-4 -37 -21 -68.5
t-49.5 -49.5t-84.5 -18z" />
    <glyph glyph-name="Uring" unicode="&#x16e;" horiz-adv-x="733" 
d="M384 -23q-159 0 -237.5 64t-78.5 203v423h189v-413q0 -71 27.5 -105t90.5 -34q56 0 87 34t31 105v413h172v-423q0 -93 -36 -152t-99.5 -87t-145.5 -28zM365 679q-58 0 -90.5 24.5t-32.5 70.5t32.5 71t90.5 25q59 0 91 -25t32 -71t-32 -70.5t-91 -24.5zM365 741
q25 0 35.5 7t10.5 26t-10.5 26.5t-35.5 7.5t-35.5 -7.5t-10.5 -26.5t10.5 -26t35.5 -7z" />
    <glyph glyph-name="uring" unicode="&#x16f;" horiz-adv-x="606" 
d="M308 -15q-72 0 -127 21.5t-86.5 68t-31.5 120.5v312h165v-300q0 -42 19.5 -63t61.5 -21t61 21t19 63v300h154v-312q0 -110 -63.5 -160t-171.5 -50zM312 552q-58 0 -90.5 24.5t-32.5 70.5t32.5 71t90.5 25q59 0 91 -25t32 -71t-32 -70.5t-91 -24.5zM312 614q25 0 35.5 7
t10.5 26t-10.5 26.5t-35.5 7.5t-35.5 -7.5t-10.5 -26.5t10.5 -26t35.5 -7z" />
    <glyph glyph-name="Uhungarumlaut" unicode="&#x170;" horiz-adv-x="733" 
d="M384 -23q-159 0 -237.5 64t-78.5 203v423h189v-413q0 -71 27.5 -105t90.5 -34q56 0 87 34t31 105v413h172v-423q0 -93 -36 -152t-99.5 -87t-145.5 -28zM393 729l62 117h110l-91 -117h-81zM247 729l61 117h111l-92 -117h-80z" />
    <glyph glyph-name="uhungarumlaut" unicode="&#x171;" horiz-adv-x="606" 
d="M308 -15q-72 0 -127 21.5t-86.5 68t-31.5 120.5v312h165v-300q0 -42 19.5 -63t61.5 -21t61 21t19 63v300h154v-312q0 -110 -63.5 -160t-171.5 -50zM339 574l62 117h110l-91 -117h-81zM193 574l61 117h111l-92 -117h-80z" />
    <glyph glyph-name="Uogonek" unicode="&#x172;" horiz-adv-x="733" 
d="M384 -23q-159 0 -237.5 64t-78.5 203v423h189v-413q0 -71 27.5 -105t90.5 -34q56 0 87 34t31 105v413h172v-423q0 -93 -36 -152t-99.5 -87t-145.5 -28zM425 -191q-70 0 -102.5 24.5t-32.5 73.5q0 41 35.5 69.5t92.5 50.5l100 -27q-40 -16 -69 -35.5t-29 -40.5t10 -28
t25 -7q19 0 36 10.5t32 24.5v-90q-15 -8 -37 -16.5t-61 -8.5z" />
    <glyph glyph-name="uogonek" unicode="&#x173;" horiz-adv-x="606" 
d="M308 -15q-72 0 -127 21.5t-86.5 68t-31.5 120.5v312h165v-300q0 -42 19.5 -63t61.5 -21t61 21t19 63v300h154v-312q0 -110 -63.5 -160t-171.5 -50zM344 -191q-70 0 -102.5 24.5t-32.5 73.5q0 41 35.5 69.5t92.5 50.5l100 -27q-40 -16 -69 -35.5t-29 -40.5t10 -28t25 -7
q19 0 36 10.5t32 24.5v-90q-15 -8 -37 -16.5t-61 -8.5z" />
    <glyph glyph-name="Wcircumflex" unicode="&#x174;" horiz-adv-x="1017" 
d="M206 0l-181 667h198l101 -500h-27l143 500h137l144 -506h-29l101 506h199l-181 -667h-179l-138 457h31l-141 -457h-178zM352 708l89 122h135l88 -122h-110l-46 56l-45 -56h-111z" />
    <glyph glyph-name="wcircumflex" unicode="&#x175;" horiz-adv-x="833" 
d="M193 0l-171 507h179l107 -400l-53 -2l102 402h119l99 -390h-43l103 390h176l-169 -507h-148l-93 303l28 -2l-89 -301h-147zM270 556l89 122h135l88 -122h-110l-46 56l-45 -56h-111z" />
    <glyph glyph-name="Ycircumflex" unicode="&#x176;" horiz-adv-x="712" 
d="M277 0v285l-254 382h223l186 -320l-86 -1l165 321h177l-256 -427l26 93v-333h-181zM229 708l89 122h135l88 -122h-110l-46 56l-45 -56h-111z" />
    <glyph glyph-name="ycircumflex" unicode="&#x177;" horiz-adv-x="605" 
d="M185 -196q-27 0 -53.5 5t-46.5 14v133q19 -6 33.5 -9t29.5 -3q23 0 41 10.5t30 36.5t17 75l4 -96l-218 537h189l105 -340h-15l103 340h178l-195 -506q-28 -72 -60 -115.5t-68 -62.5t-74 -19zM155 556l89 122h135l88 -122h-110l-46 56l-45 -56h-111z" />
    <glyph glyph-name="Ydieresis" unicode="&#x178;" horiz-adv-x="712" 
d="M277 0v285l-254 382h223l186 -320l-86 -1l165 321h177l-256 -427l26 93v-333h-181zM407 699v105h139v-105h-139zM215 699v105h140v-105h-140z" />
    <glyph glyph-name="Zacute" unicode="&#x179;" horiz-adv-x="639" 
d="M52 0v130l340 429l47 -32h-383v140h530v-127l-321 -421l-62 20h383v-139h-534zM285 717l32 112h174l-126 -112h-80z" />
    <glyph glyph-name="zacute" unicode="&#x17a;" horiz-adv-x="500" 
d="M45 0v130l266 288l14 -33h-275v122h405v-127l-242 -292l-6 43h248v-131h-410zM208 549l44 125h161l-117 -125h-88z" />
    <glyph glyph-name="Zdotaccent" unicode="&#x17b;" horiz-adv-x="639" 
d="M52 0v130l340 429l47 -32h-383v140h530v-127l-321 -421l-62 20h383v-139h-534zM250 696v104h131v-104h-131z" />
    <glyph glyph-name="zdotaccent" unicode="&#x17c;" horiz-adv-x="500" 
d="M45 0v130l266 288l14 -33h-275v122h405v-127l-242 -292l-6 43h248v-131h-410zM181 549v104h131v-104h-131z" />
    <glyph glyph-name="Zcaron" unicode="&#x17d;" horiz-adv-x="639" 
d="M52 0v130l340 429l47 -32h-383v140h530v-127l-321 -421l-62 20h383v-139h-534zM258 700l-80 122h103l43 -57l42 57h104l-72 -122h-140z" />
    <glyph glyph-name="zcaron" unicode="&#x17e;" horiz-adv-x="500" 
d="M45 0v130l266 288l14 -33h-275v122h405v-127l-242 -292l-6 43h248v-131h-410zM189 564l-80 122h103l43 -57l42 57h104l-72 -122h-140z" />
    <glyph glyph-name="uni018F" unicode="&#x18f;" horiz-adv-x="743" 
d="M353 683q105 0 184 -44t123.5 -125.5t44.5 -195.5q0 -107 -41.5 -183t-119 -117t-188.5 -41t-181.5 45t-103 131t-32.5 209h551l19 -109h-431l34 54q1 -78 17.5 -121t50 -60t84.5 -17q37 0 72.5 17.5t59 58.5t23.5 113q0 127 -51.5 183.5t-156.5 56.5q-42 0 -85 -8
t-79 -19t-59 -22v148q52 22 116 34t149 12z" />
    <glyph glyph-name="florin" unicode="&#x192;" horiz-adv-x="355" 
d="M65 -123q-9 0 -26 1t-34 5v99q17 -2 23.5 -2.5t9.5 -0.5q15 0 28.5 1.5t25 9.5t18.5 27t7 52v329h-85v106h85v12q1 37 10 65.5t24 49t36 34t47 19.5t55 6q12 0 31.5 -1.5t28.5 -3.5v-101q-9 3 -18 3.5t-15 0.5q-14 0 -27.5 -2t-25.5 -9.5t-18.5 -22.5t-6.5 -38v-12h111
v-106h-111v-329q0 -40 -8 -71.5t-23 -54.5t-36 -37.5t-47.5 -21.5t-58.5 -7z" />
    <glyph glyph-name="uni019D" unicode="&#x19d;" horiz-adv-x="737" 
d="M246 2q0 -77 -31.5 -119.5t-86.5 -59t-122 -16.5v132q23 -3 40 2.5t26 20.5t9 38v667h150l327 -435l-54 -116v551h165v-667h-131l-331 424l39 82v-504z" />
    <glyph glyph-name="Ohorn" unicode="&#x1a0;" horiz-adv-x="740" 
d="M370 -14q-99 0 -173.5 37t-116 114t-41.5 196q0 172 87.5 260t243.5 88q99 0 173.5 -37t116 -113.5t41.5 -196.5q0 -172 -87 -260t-244 -88zM370 132q45 0 77 19t49.5 63.5t17.5 120.5q0 75 -17.5 119t-49.5 62.5t-77 18.5t-77 -19.5t-49.5 -63.5t-17.5 -120
q0 -75 17.5 -118.5t49.5 -62.5t77 -19zM467 578l-3 89q33 0 53.5 10.5t20.5 32.5v40h99v-62q0 -39 -22.5 -62.5t-60 -34.5t-87.5 -13z" />
    <glyph glyph-name="ohorn" unicode="&#x1a1;" horiz-adv-x="594" 
d="M296 -15q-131 0 -196.5 68t-65.5 203q0 147 66 208.5t196 61.5q86 0 145 -27.5t89.5 -87t30.5 -155.5q0 -134 -68.5 -202.5t-196.5 -68.5zM296 116q32 0 54.5 15t34.5 46.5t12 78.5q0 56 -12 86.5t-34.5 42.5t-54.5 12q-33 0 -55 -12.5t-32.5 -43t-10.5 -85.5
q0 -73 24 -106.5t74 -33.5zM412 417l-3 89q33 0 53.5 10.5t20.5 32.5v40h99v-62q0 -39 -22.5 -62.5t-60 -34.5t-87.5 -13z" />
    <glyph glyph-name="Uhorn" unicode="&#x1af;" horiz-adv-x="733" 
d="M384 -23q-159 0 -237.5 64t-78.5 203v423h189v-413q0 -71 27.5 -105t90.5 -34q56 0 87 34t31 105v413h172v-423q0 -93 -36 -152t-99.5 -87t-145.5 -28zM603 577l-3 89q33 0 53.5 10.5t20.5 32.5v40h99v-62q0 -39 -22.5 -62.5t-60 -34.5t-87.5 -13z" />
    <glyph glyph-name="uhorn" unicode="&#x1b0;" horiz-adv-x="669" 
d="M308 -15q-72 0 -127 21.5t-86.5 68t-31.5 120.5v312h165v-300q0 -42 19.5 -63t61.5 -21t61 21t19 63v300h154v-312q0 -110 -63.5 -160t-171.5 -50zM484 416l-3 89q33 0 53.5 10.5t20.5 32.5v40h99v-62q0 -39 -22.5 -62.5t-60 -34.5t-87.5 -13z" />
    <glyph glyph-name="uni01C4" unicode="&#x1c4;" horiz-adv-x="1359" 
d="M68 0v667h280q173 0 253.5 -85t80.5 -249q0 -163 -80.5 -248t-253.5 -85h-280zM249 138h77q83 0 126.5 46.5t43.5 148.5q0 103 -43.5 149.5t-126.5 46.5h-77v-391zM773 0v130l340 429l47 -32h-383v140h530v-127l-321 -421l-62 20h383v-139h-534zM979 700l-80 122h103
l43 -57l42 57h104l-72 -122h-140z" />
    <glyph glyph-name="uni01C5" unicode="&#x1c5;" horiz-adv-x="1221" 
d="M68 0v667h280q173 0 253.5 -85t80.5 -249q0 -163 -80.5 -248t-253.5 -85h-280zM249 138h77q83 0 126.5 46.5t43.5 148.5q0 103 -43.5 149.5t-126.5 46.5h-77v-391zM766 0v130l266 288l14 -33h-275v122h405v-127l-242 -292l-6 43h248v-131h-410zM909 564l-80 122h103
l43 -57l42 57h104l-72 -122h-140z" />
    <glyph glyph-name="uni01C6" unicode="&#x1c6;" horiz-adv-x="1117" 
d="M312 -15q-64 0 -115 13.5t-87.5 44.5t-56 83.5t-19.5 131.5q0 124 61 196t184 72q14 0 39 -2.5t53 -12.5t51 -36l-31 -52v292h163v-574q0 -38 -19.5 -67.5t-53.5 -49t-77.5 -29.5t-91.5 -10zM319 122q33 0 52.5 9t19.5 28v216q-16 9 -33.5 13.5t-33.5 4.5q-40 0 -68 -12
t-42 -42.5t-14 -86.5q0 -42 12 -71t38.5 -44t68.5 -15zM662 0v130l266 288l14 -33h-275v122h405v-127l-242 -292l-6 43h248v-131h-410zM806 564l-80 122h103l43 -57l42 57h104l-72 -122h-140z" />
    <glyph glyph-name="uni01C7" unicode="&#x1c7;" horiz-adv-x="1045" 
d="M68 0v667h182v-528h278v-139h-460zM756 -14q-45 0 -86 11t-77 27v163q35 -25 63 -42t54 -17q38 0 61.5 19.5t23.5 63.5v456h182v-464q0 -62 -19.5 -104t-51 -67t-71 -35.5t-79.5 -10.5z" />
    <glyph glyph-name="uni01C8" unicode="&#x1c8;" horiz-adv-x="873" 
d="M68 0v667h182v-528h278v-139h-460zM567 -193v132q23 -3 40 2.5t26 20.5t9 38v507h165l2 -505q0 -77 -32.5 -119.5t-87.5 -59t-122 -16.5zM639 580v124h170v-124h-170z" />
    <glyph glyph-name="uni01C9" unicode="&#x1c9;" horiz-adv-x="601" 
d="M227 0h-164v698h164v-698zM296 -193v132q23 -3 40 2.5t26 20.5t9 38v507h165l2 -505q0 -77 -32.5 -119.5t-87.5 -59t-122 -16.5zM368 580v124h170v-124h-170z" />
    <glyph glyph-name="uni01CA" unicode="&#x1ca;" horiz-adv-x="1208" 
d="M68 0v667h150l328 -435l-55 -116v551h166v-667h-132l-330 424l38 82v-506h-165zM920 -14q-45 0 -86 11t-77 27v163q35 -25 63 -42t54 -17q38 0 61.5 19.5t23.5 63.5v456h182v-464q0 -62 -19.5 -104t-51 -67t-71 -35.5t-79.5 -10.5z" />
    <glyph glyph-name="uni01CB" unicode="&#x1cb;" horiz-adv-x="1036" 
d="M68 0v667h150l328 -435l-55 -116v551h166v-667h-132l-330 424l38 82v-506h-165zM731 -193v132q23 -3 40 2.5t26 20.5t9 38v507h165l2 -505q0 -77 -32.5 -119.5t-87.5 -59t-122 -16.5zM803 580v124h170v-124h-170z" />
    <glyph glyph-name="uni01CC" unicode="&#x1cc;" horiz-adv-x="929" 
d="M63 464q18 10 50 20t71 18.5t79 14t73 5.5q67 0 116 -16t75.5 -55t26.5 -107v-344h-165v306q0 20 -5.5 35.5t-16 25.5t-28 15t-41.5 5q-21 0 -41.5 -5.5t-28.5 -11.5v-370h-165v464zM623 -193v132q23 -3 40 2.5t26 20.5t9 38v507h165l2 -505q0 -77 -32.5 -119.5
t-87.5 -59t-122 -16.5zM695 580v124h170v-124h-170z" />
    <glyph glyph-name="uni01CD" unicode="&#x1cd;" horiz-adv-x="702" 
d="M12 0l249 667h199l230 -667h-186l-209 636l93 8l-208 -644h-168zM159 131l34 129h298l17 -129h-349zM281 700l-80 122h103l43 -57l42 57h104l-72 -122h-140z" />
    <glyph glyph-name="uni01CE" unicode="&#x1ce;" horiz-adv-x="575" 
d="M263 -15q-49 0 -90.5 8.5t-72.5 28.5t-48 55t-17 85q0 45 18.5 79t58.5 54t102 20q33 0 65 -7.5t58 -20t40 -27.5l5 -74q-20 11 -45 17.5t-52 6.5q-46 0 -66.5 -12.5t-20.5 -41.5q0 -15 9.5 -28t25 -21t33.5 -8q48 0 65.5 6t17.5 25v176q0 44 -28.5 63.5t-80.5 19.5
q-45 0 -90 -17t-71 -38v145q24 16 79.5 30t127.5 14q21 0 50.5 -3.5t60 -13.5t57 -30t42.5 -52t16 -81l-1 -238q0 -41 -28.5 -68t-83.5 -39.5t-136 -12.5zM213 589l-80 122h103l43 -57l42 57h104l-72 -122h-140z" />
    <glyph glyph-name="uni01CF" unicode="&#x1cf;" horiz-adv-x="318" 
d="M68 0v667h182v-667h-182zM95 700l-80 122h103l43 -57l42 57h104l-72 -122h-140z" />
    <glyph glyph-name="uni01D0" unicode="&#x1d0;" horiz-adv-x="293" 
d="M63 0v499h165l2 -499h-167zM77 564l-80 122h103l43 -57l42 57h104l-72 -122h-140z" />
    <glyph glyph-name="uni01D1" unicode="&#x1d1;" horiz-adv-x="740" 
d="M370 -14q-99 0 -173.5 37t-116 114t-41.5 196q0 172 87.5 260t243.5 88q99 0 173.5 -37t116 -113.5t41.5 -196.5q0 -172 -87 -260t-244 -88zM370 132q45 0 77 19t49.5 63.5t17.5 120.5q0 75 -17.5 119t-49.5 62.5t-77 18.5t-77 -19.5t-49.5 -63.5t-17.5 -120
q0 -75 17.5 -118.5t49.5 -62.5t77 -19zM301 725l-80 122h103l43 -57l42 57h104l-72 -122h-140z" />
    <glyph glyph-name="uni01D2" unicode="&#x1d2;" horiz-adv-x="594" 
d="M296 -15q-131 0 -196.5 68t-65.5 203q0 147 66 208.5t196 61.5q86 0 145 -27.5t89.5 -87t30.5 -155.5q0 -134 -68.5 -202.5t-196.5 -68.5zM296 116q32 0 54.5 15t34.5 46.5t12 78.5q0 56 -12 86.5t-34.5 42.5t-54.5 12q-33 0 -55 -12.5t-32.5 -43t-10.5 -85.5
q0 -73 24 -106.5t74 -33.5zM228 589l-80 122h103l43 -57l42 57h104l-72 -122h-140z" />
    <glyph glyph-name="uni01D3" unicode="&#x1d3;" horiz-adv-x="733" 
d="M384 -23q-159 0 -237.5 64t-78.5 203v423h189v-413q0 -71 27.5 -105t90.5 -34q56 0 87 34t31 105v413h172v-423q0 -93 -36 -152t-99.5 -87t-145.5 -28zM296 708l-80 122h103l43 -57l42 57h104l-72 -122h-140z" />
    <glyph glyph-name="uni01D4" unicode="&#x1d4;" horiz-adv-x="606" 
d="M308 -15q-72 0 -127 21.5t-86.5 68t-31.5 120.5v312h165v-300q0 -42 19.5 -63t61.5 -21t61 21t19 63v300h154v-312q0 -110 -63.5 -160t-171.5 -50zM242 581l-80 122h103l43 -57l42 57h104l-72 -122h-140z" />
    <glyph glyph-name="Gcaron" unicode="&#x1e6;" horiz-adv-x="710" 
d="M368 -14q-98 0 -172 34t-115.5 110.5t-41.5 202.5q0 123 41.5 200.5t115.5 113.5t171 36q65 0 126.5 -13t118.5 -36v-163q-63 34 -114.5 53.5t-106.5 19.5q-52 0 -89.5 -18.5t-57.5 -64t-20 -127.5q0 -80 21 -126.5t56.5 -65.5t79.5 -19q25 0 45.5 3.5t34.5 10.5v103
h-100v138h281v-316q-64 -37 -133.5 -56.5t-140.5 -19.5zM303 717l-80 122h103l43 -57l42 57h104l-72 -122h-140z" />
    <glyph glyph-name="gcaron" unicode="&#x1e7;" horiz-adv-x="598" 
d="M255 -15q-67 4 -116.5 31.5t-77 82t-27.5 139.5q0 83 20 138.5t58 87.5t93 45.5t125 13.5q67 0 114.5 -16.5t73 -47.5t25.5 -75v-387q0 -58 -18.5 -100t-54 -70t-84.5 -41.5t-110 -13.5q-71 0 -121 10t-75 24v146q15 -8 45.5 -18.5t69 -18t76.5 -7.5q42 0 66 12.5t34 34
t10 50.5v83l31 -20q-15 -25 -36 -44t-50 -29t-71 -10zM302 106q24 0 43.5 5t35.5 15v220q0 20 -10.5 30t-27.5 13.5t-35 3.5q-40 0 -64 -17.5t-35 -50.5t-11 -77q0 -66 30 -104t74 -38zM260 589l-80 122h103l43 -57l42 57h104l-72 -122h-140z" />
    <glyph glyph-name="uni01EA" unicode="&#x1ea;" horiz-adv-x="740" 
d="M370 -14q-99 0 -173.5 37t-116 114t-41.5 196q0 172 87.5 260t243.5 88q99 0 173.5 -37t116 -113.5t41.5 -196.5q0 -172 -87 -260t-244 -88zM370 132q45 0 77 19t49.5 63.5t17.5 120.5q0 75 -17.5 119t-49.5 62.5t-77 18.5t-77 -19.5t-49.5 -63.5t-17.5 -120
q0 -75 17.5 -118.5t49.5 -62.5t77 -19zM424 -191q-70 0 -102.5 24.5t-32.5 73.5q0 41 35.5 69.5t92.5 50.5l100 -27q-40 -16 -69 -35.5t-29 -40.5t10 -28t25 -7q19 0 36 10.5t32 24.5v-90q-15 -8 -37 -16.5t-61 -8.5z" />
    <glyph glyph-name="uni01EB" unicode="&#x1eb;" horiz-adv-x="594" 
d="M296 -15q-131 0 -196.5 68t-65.5 203q0 147 66 208.5t196 61.5q86 0 145 -27.5t89.5 -87t30.5 -155.5q0 -134 -68.5 -202.5t-196.5 -68.5zM296 116q32 0 54.5 15t34.5 46.5t12 78.5q0 56 -12 86.5t-34.5 42.5t-54.5 12q-33 0 -55 -12.5t-32.5 -43t-10.5 -85.5
q0 -73 24 -106.5t74 -33.5zM330 -191q-70 0 -102.5 24.5t-32.5 73.5q0 41 35.5 69.5t92.5 50.5l100 -27q-40 -16 -69 -35.5t-29 -40.5t10 -28t25 -7q19 0 36 10.5t32 24.5v-90q-15 -8 -37 -16.5t-61 -8.5z" />
    <glyph glyph-name="uni01F2" unicode="&#x1f2;" horiz-adv-x="1221" 
d="M68 0v667h280q173 0 253.5 -85t80.5 -249q0 -163 -80.5 -248t-253.5 -85h-280zM249 138h77q83 0 126.5 46.5t43.5 148.5q0 103 -43.5 149.5t-126.5 46.5h-77v-391zM766 0v130l266 288l14 -33h-275v122h405v-127l-242 -292l-6 43h248v-131h-410z" />
    <glyph glyph-name="uni01F4" unicode="&#x1f4;" horiz-adv-x="710" 
d="M368 -14q-98 0 -172 34t-115.5 110.5t-41.5 202.5q0 123 41.5 200.5t115.5 113.5t171 36q65 0 126.5 -13t118.5 -36v-163q-63 34 -114.5 53.5t-106.5 19.5q-52 0 -89.5 -18.5t-57.5 -64t-20 -127.5q0 -80 21 -126.5t56.5 -65.5t79.5 -19q25 0 45.5 3.5t34.5 10.5v103
h-100v138h281v-316q-64 -37 -133.5 -56.5t-140.5 -19.5zM329 734l32 112h174l-126 -112h-80z" />
    <glyph glyph-name="Aringacute" unicode="&#x1fa;" horiz-adv-x="702" 
d="M12 0l249 667h199l230 -667h-186l-209 636l93 8l-208 -644h-168zM159 131l34 129h298l17 -129h-349zM349 671q-58 0 -90.5 24.5t-32.5 70.5t32.5 71t90.5 25q59 0 91 -25t32 -71t-32 -70.5t-91 -24.5zM349 733q25 0 35.5 7t10.5 26t-10.5 26.5t-35.5 7.5t-35.5 -7.5
t-10.5 -26.5t10.5 -26t35.5 -7zM308 897l32 112h174l-126 -112h-80z" />
    <glyph glyph-name="aringacute" unicode="&#x1fb;" horiz-adv-x="575" 
d="M263 -15q-49 0 -90.5 8.5t-72.5 28.5t-48 55t-17 85q0 45 18.5 79t58.5 54t102 20q33 0 65 -7.5t58 -20t40 -27.5l5 -74q-20 11 -45 17.5t-52 6.5q-46 0 -66.5 -12.5t-20.5 -41.5q0 -15 9.5 -28t25 -21t33.5 -8q48 0 65.5 6t17.5 25v176q0 44 -28.5 63.5t-80.5 19.5
q-45 0 -90 -17t-71 -38v145q24 16 79.5 30t127.5 14q21 0 50.5 -3.5t60 -13.5t57 -30t42.5 -52t16 -81l-1 -238q0 -41 -28.5 -68t-83.5 -39.5t-136 -12.5zM282 560q-58 0 -90.5 24.5t-32.5 70.5t32.5 71t90.5 25q59 0 91 -25t32 -71t-32 -70.5t-91 -24.5zM282 622
q25 0 35.5 7t10.5 26t-10.5 26.5t-35.5 7.5t-35.5 -7.5t-10.5 -26.5t10.5 -26t35.5 -7zM231 783l44 125h161l-117 -125h-88z" />
    <glyph glyph-name="AEacute" unicode="&#x1fc;" horiz-adv-x="1044" 
d="M525 614l73 -13l-385 -601h-201l467 667h502v-138h-275v-122h236v-139h-236v-129h275v-139h-456v614zM598 133h-398l50 127h361zM690 717l32 112h174l-126 -112h-80z" />
    <glyph glyph-name="aeacute" unicode="&#x1fd;" horiz-adv-x="880" 
d="M436 43q-34 -23 -83.5 -44.5t-112.5 -21.5q-55 0 -102 16.5t-75 55t-28 106.5q0 44 19.5 80.5t60 58t103.5 21.5q31 0 62 -7.5t57 -19.5t40 -27l5 -75q-20 11 -45 17.5t-52 6.5q-47 0 -67 -16.5t-20 -45.5q0 -15 9 -28t25.5 -21t39.5 -8q20 0 42 2.5t42 9.5t31 19z
M349 191v113q0 43 -28.5 62.5t-80.5 19.5q-45 0 -90 -16.5t-71 -38.5v148q24 16 79.5 30t127.5 14q21 0 50.5 -3.5t60 -13.5t57 -30t42.5 -52t16 -81l-1 -131q0 -51 33 -75t108 -24q40 0 80 15t63 30v-140q-35 -20 -80 -30.5t-105 -10.5q-78 0 -136.5 29.5t-91.5 78.5
t-33 106zM349 245q0 131 67 204t193 73q84 0 136.5 -36t77 -105.5t23.5 -171.5h-382l-19 101h262l-20 -54q-2 79 -21 111t-65 32q-23 0 -43.5 -13t-33 -42.5t-12.5 -79.5zM390 566l44 125h161l-117 -125h-88z" />
    <glyph glyph-name="Oslashacute" unicode="&#x1fe;" horiz-adv-x="740" 
d="M17 0l590 666h116l-591 -666h-115zM370 -14q-99 0 -173.5 37t-116 114t-41.5 196q0 172 87.5 260t243.5 88q99 0 173.5 -37t116 -113.5t41.5 -196.5q0 -172 -87 -260t-244 -88zM370 132q45 0 77 19t49.5 63.5t17.5 120.5q0 75 -17.5 119t-49.5 62.5t-77 18.5t-77 -19.5
t-49.5 -63.5t-17.5 -120q0 -75 17.5 -118.5t49.5 -62.5t77 -19zM327 717l32 112h174l-126 -112h-80z" />
    <glyph glyph-name="oslashacute" unicode="&#x1ff;" horiz-adv-x="607" 
d="M163 0h-148l427 499h148zM296 -15q-131 0 -196.5 68t-65.5 203q0 147 66 208.5t196 61.5q86 0 145 -27.5t89.5 -87t30.5 -155.5q0 -134 -68.5 -202.5t-196.5 -68.5zM296 116q32 0 54.5 15t34.5 46.5t12 78.5q0 56 -12 86.5t-34.5 42.5t-54.5 12q-33 0 -55 -12.5
t-32.5 -43t-10.5 -85.5q0 -73 24 -106.5t74 -33.5zM253 549l44 125h161l-117 -125h-88z" />
    <glyph glyph-name="uni0200" unicode="&#x200;" horiz-adv-x="702" 
d="M12 0l249 667h199l230 -667h-186l-209 636l93 8l-208 -644h-168zM159 131l34 129h298l17 -129h-349zM228 717l-99 111h144l44 -111h-89zM410 718l-99 111h144l44 -111h-89z" />
    <glyph glyph-name="uni0201" unicode="&#x201;" horiz-adv-x="575" 
d="M263 -15q-49 0 -90.5 8.5t-72.5 28.5t-48 55t-17 85q0 45 18.5 79t58.5 54t102 20q33 0 65 -7.5t58 -20t40 -27.5l5 -74q-20 11 -45 17.5t-52 6.5q-46 0 -66.5 -12.5t-20.5 -41.5q0 -15 9.5 -28t25 -21t33.5 -8q48 0 65.5 6t17.5 25v176q0 44 -28.5 63.5t-80.5 19.5
q-45 0 -90 -17t-71 -38v145q24 16 79.5 30t127.5 14q21 0 50.5 -3.5t60 -13.5t57 -30t42.5 -52t16 -81l-1 -238q0 -41 -28.5 -68t-83.5 -39.5t-136 -12.5zM161 574l-117 125h162l44 -125h-89zM356 574l-117 125h162l44 -125h-89z" />
    <glyph glyph-name="uni0202" unicode="&#x202;" horiz-adv-x="702" 
d="M351 841q52 0 84.5 -18t49.5 -49t21 -70h-91q-6 19 -20.5 38t-43.5 19q-27 0 -42.5 -19t-21.5 -38h-90q8 39 24.5 70t47.5 49t82 18zM12 0l249 667h199l230 -667h-186l-209 636l93 8l-208 -644h-168zM159 131l34 129h298l17 -129h-349z" />
    <glyph glyph-name="uni0203" unicode="&#x203;" horiz-adv-x="575" 
d="M283 686q51 0 84 -18.5t49.5 -49.5t20.5 -69h-90q-6 19 -20.5 37.5t-43.5 18.5q-28 0 -43.5 -18.5t-21.5 -37.5h-89q7 38 23.5 69t48 49.5t82.5 18.5zM263 -15q-49 0 -90.5 8.5t-72.5 28.5t-48 55t-17 85q0 45 18.5 79t58.5 54t102 20q33 0 65 -7.5t58 -20t40 -27.5
l5 -74q-20 11 -45 17.5t-52 6.5q-46 0 -66.5 -12.5t-20.5 -41.5q0 -15 9.5 -28t25 -21t33.5 -8q48 0 65.5 6t17.5 25v176q0 44 -28.5 63.5t-80.5 19.5q-45 0 -90 -17t-71 -38v145q24 16 79.5 30t127.5 14q21 0 50.5 -3.5t60 -13.5t57 -30t42.5 -52t16 -81l-1 -238
q0 -41 -28.5 -68t-83.5 -39.5t-136 -12.5z" />
    <glyph glyph-name="uni0204" unicode="&#x204;" horiz-adv-x="595" 
d="M68 0v667h465v-138h-283v-126h244v-138h-245v-127h284v-138h-465zM180 717l-99 111h144l44 -111h-89zM362 718l-99 111h144l44 -111h-89z" />
    <glyph glyph-name="uni0205" unicode="&#x205;" horiz-adv-x="565" 
d="M297 -15q-78 0 -137.5 31.5t-92.5 90t-33 138.5q0 133 67 207t193 74q84 0 136 -36t77 -107t24 -174h-382l-20 101h262l-20 -54q-1 81 -20.5 113.5t-64.5 32.5q-24 0 -44 -13.5t-31.5 -43.5t-11.5 -81q0 -69 32.5 -105.5t107.5 -36.5q27 0 54 6.5t50 15.5t39 14v-140
q-35 -13 -79.5 -23t-105.5 -10zM169 566l-117 125h162l44 -125h-89zM363 566l-117 125h162l44 -125h-89z" />
    <glyph glyph-name="uni0206" unicode="&#x206;" horiz-adv-x="595" 
d="M303 841q51 0 84 -18t50 -49t20 -70h-90q-6 19 -20.5 38t-43.5 19q-28 0 -43.5 -19t-21.5 -38h-89q7 39 23.5 70t48 49t82.5 18zM68 0v667h465v-138h-283v-126h244v-138h-245v-127h284v-138h-465z" />
    <glyph glyph-name="uni0207" unicode="&#x207;" horiz-adv-x="565" 
d="M290 677q51 0 84 -18t50 -49t20 -70h-90q-6 19 -20.5 38t-43.5 19q-28 0 -43.5 -19t-21.5 -38h-89q7 39 23.5 70t48 49t82.5 18zM297 -15q-78 0 -137.5 31.5t-92.5 90t-33 138.5q0 133 67 207t193 74q84 0 136 -36t77 -107t24 -174h-382l-20 101h262l-20 -54
q-1 81 -20.5 113.5t-64.5 32.5q-24 0 -44 -13.5t-31.5 -43.5t-11.5 -81q0 -69 32.5 -105.5t107.5 -36.5q27 0 54 6.5t50 15.5t39 14v-140q-35 -13 -79.5 -23t-105.5 -10z" />
    <glyph glyph-name="uni0208" unicode="&#x208;" horiz-adv-x="318" 
d="M68 0v667h182v-667h-182zM42 717l-99 111h144l44 -111h-89zM224 718l-99 111h144l44 -111h-89z" />
    <glyph glyph-name="uni0209" unicode="&#x209;" horiz-adv-x="293" 
d="M63 0v499h165l2 -499h-167zM26 549l-117 125h162l44 -125h-89zM220 549l-117 125h162l44 -125h-89z" />
    <glyph glyph-name="uni020A" unicode="&#x20a;" horiz-adv-x="318" 
d="M165 841q52 0 84.5 -18t49.5 -49t21 -70h-91q-6 19 -20.5 38t-43.5 19q-27 0 -42.5 -19t-21.5 -38h-90q8 39 24.5 70t47.5 49t82 18zM68 0v667h182v-667h-182z" />
    <glyph glyph-name="uni020B" unicode="&#x20b;" horiz-adv-x="293" 
d="M147 660q51 0 84 -18t50 -49t20 -70h-90q-6 19 -20.5 38t-43.5 19q-28 0 -43.5 -19t-21.5 -38h-89q7 39 23.5 70t48 49t82.5 18zM63 0v499h165l2 -499h-167z" />
    <glyph glyph-name="uni020C" unicode="&#x20c;" horiz-adv-x="740" 
d="M370 -14q-99 0 -173.5 37t-116 114t-41.5 196q0 172 87.5 260t243.5 88q99 0 173.5 -37t116 -113.5t41.5 -196.5q0 -172 -87 -260t-244 -88zM370 132q45 0 77 19t49.5 63.5t17.5 120.5q0 75 -17.5 119t-49.5 62.5t-77 18.5t-77 -19.5t-49.5 -63.5t-17.5 -120
q0 -75 17.5 -118.5t49.5 -62.5t77 -19zM248 742l-99 111h144l44 -111h-89zM430 743l-99 111h144l44 -111h-89z" />
    <glyph glyph-name="uni020D" unicode="&#x20d;" horiz-adv-x="594" 
d="M296 -15q-131 0 -196.5 68t-65.5 203q0 147 66 208.5t196 61.5q86 0 145 -27.5t89.5 -87t30.5 -155.5q0 -134 -68.5 -202.5t-196.5 -68.5zM296 116q32 0 54.5 15t34.5 46.5t12 78.5q0 56 -12 86.5t-34.5 42.5t-54.5 12q-33 0 -55 -12.5t-32.5 -43t-10.5 -85.5
q0 -73 24 -106.5t74 -33.5zM177 574l-117 125h162l44 -125h-89zM371 574l-117 125h162l44 -125h-89z" />
    <glyph glyph-name="uni020E" unicode="&#x20e;" horiz-adv-x="740" 
d="M371 866q52 0 84.5 -18t49.5 -49t21 -70h-90q-6 19 -21 38t-44 19q-27 0 -42.5 -19t-21.5 -38h-89q7 39 23.5 70t48 49t81.5 18zM370 -14q-99 0 -173.5 37t-116 114t-41.5 196q0 172 87.5 260t243.5 88q99 0 173.5 -37t116 -113.5t41.5 -196.5q0 -172 -87 -260t-244 -88z
M370 132q45 0 77 19t49.5 63.5t17.5 120.5q0 75 -17.5 119t-49.5 62.5t-77 18.5t-77 -19.5t-49.5 -63.5t-17.5 -120q0 -75 17.5 -118.5t49.5 -62.5t77 -19z" />
    <glyph glyph-name="uni020F" unicode="&#x20f;" horiz-adv-x="594" 
d="M298 686q52 0 84.5 -18.5t49.5 -49.5t21 -69h-91q-6 19 -20.5 37.5t-43.5 18.5q-27 0 -42.5 -18.5t-21.5 -37.5h-90q8 38 24.5 69t47.5 49.5t82 18.5zM296 -15q-131 0 -196.5 68t-65.5 203q0 147 66 208.5t196 61.5q86 0 145 -27.5t89.5 -87t30.5 -155.5
q0 -134 -68.5 -202.5t-196.5 -68.5zM296 116q32 0 54.5 15t34.5 46.5t12 78.5q0 56 -12 86.5t-34.5 42.5t-54.5 12q-33 0 -55 -12.5t-32.5 -43t-10.5 -85.5q0 -73 24 -106.5t74 -33.5z" />
    <glyph glyph-name="uni0210" unicode="&#x210;" horiz-adv-x="726" 
d="M68 0v667h336q116 0 183 -53t67 -162q0 -41 -16.5 -83t-50 -73.5t-84.5 -42.5l-20 61l207 -314h-232l-161 287l79 -66h-127v-221h-181zM249 351h129q34 0 57 21t23 71q0 44 -21.5 65t-54.5 21h-133v-178zM212 717l-99 111h144l44 -111h-89zM394 718l-99 111h144l44 -111
h-89z" />
    <glyph glyph-name="uni0211" unicode="&#x211;" horiz-adv-x="439" 
d="M63 0v451q15 14 51 30.5t82.5 29t91.5 12.5q55 0 86 -8t47 -20v-119q-16 4 -42 7t-55 4t-54.5 0t-41.5 -3v-384h-165zM83 566l-117 125h162l44 -125h-89zM277 566l-117 125h162l44 -125h-89z" />
    <glyph glyph-name="uni0212" unicode="&#x212;" horiz-adv-x="726" 
d="M335 841q52 0 84.5 -18t49.5 -49t21 -70h-91q-6 19 -20.5 38t-43.5 19q-27 0 -42.5 -19t-21.5 -38h-90q8 39 24.5 70t47.5 49t82 18zM68 0v667h336q116 0 183 -53t67 -162q0 -41 -16.5 -83t-50 -73.5t-84.5 -42.5l-20 61l207 -314h-232l-161 287l79 -66h-127v-221h-181z
M249 351h129q34 0 57 21t23 71q0 44 -21.5 65t-54.5 21h-133v-178z" />
    <glyph glyph-name="uni0213" unicode="&#x213;" horiz-adv-x="439" 
d="M204 677q52 0 84.5 -18t49.5 -49t20 -70h-90q-6 19 -20.5 38t-43.5 19q-28 0 -43 -19t-21 -38h-90q8 39 24.5 70t47.5 49t82 18zM63 0v451q15 14 51 30.5t82.5 29t91.5 12.5q55 0 86 -8t47 -20v-119q-16 4 -42 7t-55 4t-54.5 0t-41.5 -3v-384h-165z" />
    <glyph glyph-name="uni0214" unicode="&#x214;" horiz-adv-x="733" 
d="M384 -23q-159 0 -237.5 64t-78.5 203v423h189v-413q0 -71 27.5 -105t90.5 -34q56 0 87 34t31 105v413h172v-423q0 -93 -36 -152t-99.5 -87t-145.5 -28zM244 725l-99 111h144l44 -111h-89zM425 726l-99 111h144l44 -111h-89z" />
    <glyph glyph-name="uni0215" unicode="&#x215;" horiz-adv-x="606" 
d="M308 -15q-72 0 -127 21.5t-86.5 68t-31.5 120.5v312h165v-300q0 -42 19.5 -63t61.5 -21t61 21t19 63v300h154v-312q0 -110 -63.5 -160t-171.5 -50zM191 566l-117 125h162l44 -125h-89zM385 566l-117 125h162l44 -125h-89z" />
    <glyph glyph-name="uni0216" unicode="&#x216;" horiz-adv-x="733" 
d="M366 849q52 0 84.5 -18t49.5 -49t21 -70h-90q-6 19 -20.5 38t-44.5 19q-27 0 -42.5 -19t-21.5 -38h-89q7 39 23.5 70t48 49t81.5 18zM384 -23q-159 0 -237.5 64t-78.5 203v423h189v-413q0 -71 27.5 -105t90.5 -34q56 0 87 34t31 105v413h172v-423q0 -93 -36 -152
t-99.5 -87t-145.5 -28z" />
    <glyph glyph-name="uni0217" unicode="&#x217;" horiz-adv-x="606" 
d="M312 677q52 0 84.5 -18t49.5 -49t20 -70h-90q-6 19 -20.5 38t-43.5 19q-28 0 -43 -19t-21 -38h-90q8 39 24.5 70t47.5 49t82 18zM308 -15q-72 0 -127 21.5t-86.5 68t-31.5 120.5v312h165v-300q0 -42 19.5 -63t61.5 -21t61 21t19 63v300h154v-312q0 -110 -63.5 -160
t-171.5 -50z" />
    <glyph glyph-name="uni0218" unicode="&#x218;" horiz-adv-x="581" 
d="M299 -14q-50 0 -93 4t-79.5 13.5t-69.5 25.5v170q50 -39 109 -57.5t107 -18.5q38 0 61 14t23 48q0 23 -22.5 37.5t-60 26t-84.5 27.5q-28 10 -54.5 24t-47.5 35t-34 52t-13 75t16.5 84t49.5 71t84 48.5t119 17.5q41 0 74 -4.5t62.5 -14.5t59.5 -25v-172q-22 19 -51.5 36
t-61.5 29t-64 14q-27 1 -50.5 -4.5t-38 -19.5t-14.5 -38q0 -25 16.5 -39.5t46 -24t65.5 -19.5q42 -12 76.5 -27t59.5 -37t39 -53.5t14 -76.5q0 -64 -30 -114t-84.5 -78.5t-129.5 -28.5zM173 -194v72q15 4 23.5 12t12 23.5t2.5 36.5h124q0 -41 -18.5 -73t-54.5 -51t-89 -20z
" />
    <glyph glyph-name="uni0219" unicode="&#x219;" horiz-adv-x="487" 
d="M215 -15q-54 0 -93 12t-71 24v142q18 -13 44.5 -27.5t59 -24.5t69.5 -10q32 0 43 10.5t11 24.5t-15 23.5t-39 16.5t-51 12q-23 4 -45.5 14.5t-41 29t-29 46t-10.5 64.5q0 51 19.5 84.5t52 54t69.5 29.5t72 8q66 -2 103 -14t66 -31l1 -125q-33 18 -67.5 35t-78.5 17
q-37 0 -51 -11t-14 -28t10.5 -26.5t28 -15t37.5 -11.5q25 -6 52 -14t50 -24t37.5 -44t14.5 -74q-1 -63 -33.5 -99.5t-85.5 -52t-115 -15.5zM137 -194v72q15 4 23.5 12t12 23.5t2.5 36.5h124q0 -41 -18.5 -73t-54.5 -51t-89 -20z" />
    <glyph glyph-name="uni021B" unicode="&#x21b;" horiz-adv-x="400" 
d="M265 -7q-40 0 -71.5 11t-53.5 32t-33.5 53t-11.5 74v228h-71v108h71v147h157v-147h108v-108h-108v-251q0 -14 10 -23.5t27 -9.5q15 0 32 5t39 18v-115q-24 -13 -48 -17.5t-47 -4.5zM149 -194v63q16 4 24.5 14.5t11.5 28t3 38.5h89q1 -41 -16.5 -73t-46.5 -51t-65 -20z
" />
    <glyph glyph-name="uni0226" unicode="&#x226;" horiz-adv-x="702" 
d="M12 0l249 667h199l230 -667h-186l-209 636l93 8l-208 -644h-168zM159 131l34 129h298l17 -129h-349zM273 696v104h131v-104h-131z" />
    <glyph glyph-name="uni022A" unicode="&#x22a;" horiz-adv-x="740" 
d="M370 -14q-99 0 -173.5 37t-116 114t-41.5 196q0 172 87.5 260t243.5 88q99 0 173.5 -37t116 -113.5t41.5 -196.5q0 -172 -87 -260t-244 -88zM370 132q45 0 77 19t49.5 63.5t17.5 120.5q0 75 -17.5 119t-49.5 62.5t-77 18.5t-77 -19.5t-49.5 -63.5t-17.5 -120
q0 -75 17.5 -118.5t49.5 -62.5t77 -19zM394 724v105h139v-105h-139zM202 724v105h140v-105h-140zM223 877v103h285v-103h-285z" />
    <glyph glyph-name="uni022B" unicode="&#x22b;" horiz-adv-x="594" 
d="M296 -15q-131 0 -196.5 68t-65.5 203q0 147 66 208.5t196 61.5q86 0 145 -27.5t89.5 -87t30.5 -155.5q0 -134 -68.5 -202.5t-196.5 -68.5zM296 116q32 0 54.5 15t34.5 46.5t12 78.5q0 56 -12 86.5t-34.5 42.5t-54.5 12q-33 0 -55 -12.5t-32.5 -43t-10.5 -85.5
q0 -73 24 -106.5t74 -33.5zM333 582v105h139v-105h-139zM141 582v105h140v-105h-140zM150 735v103h285v-103h-285z" />
    <glyph glyph-name="uni022C" unicode="&#x22c;" horiz-adv-x="740" 
d="M370 -14q-99 0 -173.5 37t-116 114t-41.5 196q0 172 87.5 260t243.5 88q99 0 173.5 -37t116 -113.5t41.5 -196.5q0 -172 -87 -260t-244 -88zM370 132q45 0 77 19t49.5 63.5t17.5 120.5q0 75 -17.5 119t-49.5 62.5t-77 18.5t-77 -19.5t-49.5 -63.5t-17.5 -120
q0 -75 17.5 -118.5t49.5 -62.5t77 -19zM260 743h-74q-2 39 13 72.5t43 54t65 20.5q26 0 47 -10t38.5 -22.5t34.5 -22.5t35 -10t27 14.5t9 46.5h76q1 -46 -15.5 -78.5t-43.5 -49.5t-59 -17q-34 0 -57 10t-39.5 22.5t-30 22.5t-29.5 10q-23 0 -32 -21t-8 -42zM223 941v103h285
v-103h-285z" />
    <glyph glyph-name="uni022D" unicode="&#x22d;" horiz-adv-x="594" 
d="M296 -15q-131 0 -196.5 68t-65.5 203q0 147 66 208.5t196 61.5q86 0 145 -27.5t89.5 -87t30.5 -155.5q0 -134 -68.5 -202.5t-196.5 -68.5zM296 116q32 0 54.5 15t34.5 46.5t12 78.5q0 56 -12 86.5t-34.5 42.5t-54.5 12q-33 0 -55 -12.5t-32.5 -43t-10.5 -85.5
q0 -73 24 -106.5t74 -33.5zM186 570h-74q-2 39 13 72.5t43 54t65 20.5q26 0 47 -10t38.5 -22.5t34.5 -22.5t35 -10t27 14.5t9 46.5h76q1 -46 -15.5 -78.5t-43.5 -49.5t-59 -17q-34 0 -57 10t-39.5 22.5t-30 22.5t-29.5 10q-23 0 -32 -21t-8 -42zM150 771v103h285v-103h-285z
" />
    <glyph glyph-name="uni0230" unicode="&#x230;" horiz-adv-x="740" 
d="M370 -14q-99 0 -173.5 37t-116 114t-41.5 196q0 172 87.5 260t243.5 88q99 0 173.5 -37t116 -113.5t41.5 -196.5q0 -172 -87 -260t-244 -88zM370 132q45 0 77 19t49.5 63.5t17.5 120.5q0 75 -17.5 119t-49.5 62.5t-77 18.5t-77 -19.5t-49.5 -63.5t-17.5 -120
q0 -75 17.5 -118.5t49.5 -62.5t77 -19zM294 721v104h131v-104h-131zM223 879v103h285v-103h-285z" />
    <glyph glyph-name="uni0231" unicode="&#x231;" horiz-adv-x="594" 
d="M296 -15q-131 0 -196.5 68t-65.5 203q0 147 66 208.5t196 61.5q86 0 145 -27.5t89.5 -87t30.5 -155.5q0 -134 -68.5 -202.5t-196.5 -68.5zM296 116q32 0 54.5 15t34.5 46.5t12 78.5q0 56 -12 86.5t-34.5 42.5t-54.5 12q-33 0 -55 -12.5t-32.5 -43t-10.5 -85.5
q0 -73 24 -106.5t74 -33.5zM220 574v104h131v-104h-131zM150 735v103h285v-103h-285z" />
    <glyph glyph-name="uni0232" unicode="&#x232;" horiz-adv-x="712" 
d="M277 0v285l-254 382h223l186 -320l-86 -1l165 321h177l-256 -427l26 93v-333h-181zM237 711v103h285v-103h-285z" />
    <glyph glyph-name="uni0233" unicode="&#x233;" horiz-adv-x="605" 
d="M185 -196q-27 0 -53.5 5t-46.5 14v133q19 -6 33.5 -9t29.5 -3q23 0 41 10.5t30 36.5t17 75l4 -96l-218 537h189l105 -340h-15l103 340h178l-195 -506q-28 -72 -60 -115.5t-68 -62.5t-74 -19zM155 547v103h285v-103h-285z" />
    <glyph glyph-name="uni0237" unicode="&#x237;" horiz-adv-x="318" 
d="M3 -193v115q23 1 42 6t31 20t12 41v510h157v-497q0 -77 -32 -119.5t-87.5 -59t-122.5 -16.5z" />
    <glyph glyph-name="uni0259" unicode="&#x259;" horiz-adv-x="565" 
d="M268 514q79 0 138 -31.5t92 -90t33 -138.5q0 -132 -67 -206.5t-193 -74.5q-83 0 -135.5 36.5t-77 107t-24.5 173.5h382l20 -101h-263l21 54q2 -81 21 -113.5t64 -32.5q24 0 44 13.5t31.5 43.5t11.5 81q0 69 -32.5 105.5t-107.5 36.5q-26 0 -53.5 -6.5t-50.5 -15
t-39 -14.5v140q35 14 79.5 23.5t105.5 9.5z" />
    <glyph glyph-name="uni0272" unicode="&#x272;" horiz-adv-x="617" 
d="M63 5v459q18 10 50 20t71 18.5t79 14t73 5.5q67 0 116 -16t75.5 -55t26.5 -107v-344h-165v306q0 20 -5.5 35.5t-16 25.5t-28 15t-41.5 5q-21 0 -41.5 -5.5t-28.5 -11.5v-364q0 -76 -31.5 -118.5t-86 -59.5t-122.5 -17v133q24 -3 40.5 2.5t25.5 20t9 38.5z" />
    <glyph glyph-name="circumflex" unicode="&#x2c6;" horiz-adv-x="423" 
d="M62 564l89 122h135l88 -122h-110l-46 56l-45 -56h-111z" />
    <glyph glyph-name="caron" unicode="&#x2c7;" horiz-adv-x="424" 
d="M144 564l-80 122h103l43 -57l42 57h104l-72 -122h-140z" />
    <glyph glyph-name="uni02C9" unicode="&#x2c9;" horiz-adv-x="395" 
d="M55 672v103h285v-103h-285z" />
    <glyph glyph-name="breve" unicode="&#x2d8;" horiz-adv-x="452" 
d="M220 537q-50 0 -81.5 18t-48 49.5t-23.5 68.5h89q6 -18 21.5 -37t42.5 -19q29 0 44 19t21 37h90q-4 -37 -21 -68.5t-49.5 -49.5t-84.5 -18z" />
    <glyph glyph-name="dotaccent" unicode="&#x2d9;" horiz-adv-x="252" 
d="M61 549v104h131v-104h-131z" />
    <glyph glyph-name="ring" unicode="&#x2da;" horiz-adv-x="409" 
d="M202 535q-58 0 -90.5 24.5t-32.5 70.5t32.5 71t90.5 25q59 0 91 -25t32 -71t-32 -70.5t-91 -24.5zM202 597q25 0 35.5 7t10.5 26t-10.5 26.5t-35.5 7.5t-35.5 -7.5t-10.5 -26.5t10.5 -26t35.5 -7z" />
    <glyph glyph-name="ogonek" unicode="&#x2db;" horiz-adv-x="365" 
d="M183 -191q-70 0 -102.5 24.5t-32.5 73.5q0 41 35.5 69.5t92.5 50.5l100 -27q-40 -16 -69 -35.5t-29 -40.5t10 -28t25 -7q19 0 36 10.5t32 24.5v-90q-15 -8 -37 -16.5t-61 -8.5z" />
    <glyph glyph-name="tilde" unicode="&#x2dc;" horiz-adv-x="498" 
d="M136 528h-74q-2 39 13 72.5t43 54t65 20.5q26 0 47 -10t38.5 -22.5t34.5 -22.5t35 -10t27 14.5t9 46.5h76q1 -46 -15.5 -78.5t-43.5 -49.5t-59 -17q-34 0 -57 10t-39.5 22.5t-30 22.5t-29.5 10q-23 0 -32 -21t-8 -42z" />
    <glyph glyph-name="hungarumlaut" unicode="&#x2dd;" horiz-adv-x="422" 
d="M206 557l62 117h110l-91 -117h-81zM60 557l61 117h111l-92 -117h-80z" />
    <glyph glyph-name="gravecomb" unicode="&#x300;" 
d="M143 549l-117 125h162l44 -125h-89z" />
    <glyph glyph-name="acutecomb" unicode="&#x301;" 
d="M63 549l44 125h161l-117 -125h-88z" />
    <glyph glyph-name="uni0302" unicode="&#x302;" 
d="M62 564l89 122h135l88 -122h-110l-46 56l-45 -56h-111z" />
    <glyph glyph-name="tildecomb" unicode="&#x303;" 
d="M136 545h-74q-2 39 13 72.5t43 54t65 20.5q26 0 47 -10t38.5 -22.5t34.5 -22.5t35 -10t27 14.5t9 46.5h76q1 -46 -15.5 -78.5t-43.5 -49.5t-59 -17q-34 0 -57 10t-39.5 22.5t-30 22.5t-29.5 10q-23 0 -32 -21t-8 -42z" />
    <glyph glyph-name="uni0304" unicode="&#x304;" 
d="M55 547v103h285v-103h-285z" />
    <glyph glyph-name="uni0306" unicode="&#x306;" 
d="M220 537q-50 0 -81.5 18t-48 49.5t-23.5 68.5h89q6 -18 21.5 -37t42.5 -19q29 0 44 19t21 37h90q-4 -37 -21 -68.5t-49.5 -49.5t-84.5 -18z" />
    <glyph glyph-name="uni0307" unicode="&#x307;" 
d="M61 549v104h131v-104h-131z" />
    <glyph glyph-name="uni0308" unicode="&#x308;" 
d="M246 557v105h139v-105h-139zM54 557v105h140v-105h-140z" />
    <glyph glyph-name="hookabovecomb" unicode="&#x309;" 
d="M86 538v58q17 0 27 7.5t10 16.5q0 13 -11.5 18.5t-30.5 5.5q-6 0 -13.5 -1t-16.5 -3v62q7 2 24 3t40 1q33 0 59 -8t42 -25.5t16 -46.5t-16 -46.5t-42 -18.5v-23h-88z" />
    <glyph glyph-name="uni030A" unicode="&#x30a;" 
d="M202 535q-58 0 -90.5 24.5t-32.5 70.5t32.5 71t90.5 25q59 0 91 -25t32 -71t-32 -70.5t-91 -24.5zM202 597q25 0 35.5 7t10.5 26t-10.5 26.5t-35.5 7.5t-35.5 -7.5t-10.5 -26.5t10.5 -26t35.5 -7z" />
    <glyph glyph-name="uni030B" unicode="&#x30b;" 
d="M206 557l62 117h110l-91 -117h-81zM60 557l61 117h111l-92 -117h-80z" />
    <glyph glyph-name="uni030C" unicode="&#x30c;" 
d="M144 564l-80 122h103l43 -57l42 57h104l-72 -122h-140z" />
    <glyph glyph-name="uni030F" unicode="&#x30f;" 
d="M166 549l-117 125h162l44 -125h-89zM360 549l-117 125h162l44 -125h-89z" />
    <glyph glyph-name="uni0311" unicode="&#x311;" 
d="M220 660q52 0 84.5 -18t49.5 -49t21 -70h-90q-6 19 -21 38t-44 19q-27 0 -42.5 -19t-21.5 -38h-89q7 39 23.5 70t48 49t81.5 18z" />
    <glyph glyph-name="uni031B" unicode="&#x31b;" 
d="M89 421l-3 89q33 0 53.5 10.5t20.5 32.5v40h99v-62q0 -39 -22.5 -62.5t-60 -34.5t-87.5 -13z" />
    <glyph glyph-name="dotbelowcmb" unicode="&#x323;" 
d="M50 -154v104h114v-104h-114z" />
    <glyph glyph-name="uni0324" unicode="&#x324;" 
d="M246 -146v105h139v-105h-139zM54 -146v105h140v-105h-140z" />
    <glyph glyph-name="uni0326.1" unicode="&#x326;" 
d="M58 -194v72q15 4 23.5 12t12 23.5t2.5 36.5h124q0 -41 -18.5 -73t-54.5 -51t-89 -20z" />
    <glyph glyph-name="uni0327" unicode="&#x327;" 
d="M44 -136l91 131h105l-49 -131h-147z" />
    <glyph glyph-name="uni0328" unicode="&#x328;" 
d="M183 -191q-70 0 -102.5 24.5t-32.5 73.5q0 41 35.5 69.5t92.5 50.5l100 -27q-40 -16 -69 -35.5t-29 -40.5t10 -28t25 -7q19 0 36 10.5t32 24.5v-90q-15 -8 -37 -16.5t-61 -8.5z" />
    <glyph glyph-name="uni032E" unicode="&#x32e;" 
d="M220 -148q-50 0 -81.5 18t-48 49.5t-23.5 68.5h89q6 -18 21.5 -37t42.5 -19q29 0 44 19t21 37h90q-4 -37 -21 -68.5t-49.5 -49.5t-84.5 -18z" />
    <glyph glyph-name="uni0331" unicode="&#x331;" 
d="M55 -150v103h285v-103h-285z" />
    <glyph glyph-name="uni0335" unicode="&#x335;" 
d="M50 278v100h312v-100h-312z" />
    <glyph glyph-name="pi" unicode="&#x3c0;" horiz-adv-x="632" 
d="M133 0v383h-98v116h561v-116h-100v-383h-116v383h-130v-383h-117z" />
    <glyph glyph-name="uni1E09" unicode="&#x1e09;" horiz-adv-x="504" 
d="M306 -14q-57 0 -106 17.5t-86.5 50.5t-58.5 81t-21 110q0 67 19 119t55 87t85.5 53t110.5 18q43 0 87.5 -8.5t76.5 -24.5v-140q-35 17 -68 28t-68 11q-58 0 -96 -28.5t-38 -93.5q0 -70 32.5 -106.5t109.5 -36.5q37 0 71.5 14t58.5 28v-138q-35 -20 -73.5 -30.5
t-90.5 -10.5zM161 -136l91 131h105l-49 -131h-147zM242 566l44 125h161l-117 -125h-88z" />
    <glyph glyph-name="uni1E0F" unicode="&#x1e0f;" horiz-adv-x="617" 
d="M312 -15q-64 0 -115 13.5t-87.5 44.5t-56 83.5t-19.5 131.5q0 124 61 196t184 72q14 0 39 -2.5t53 -12.5t51 -36l-31 -52v292h163v-574q0 -38 -19.5 -67.5t-53.5 -49t-77.5 -29.5t-91.5 -10zM319 122q33 0 52.5 9t19.5 28v216q-16 9 -33.5 13.5t-33.5 4.5q-40 0 -68 -12
t-42 -42.5t-14 -86.5q0 -42 12 -71t38.5 -44t68.5 -15zM176 -150v103h285v-103h-285z" />
    <glyph glyph-name="uni1E14" unicode="&#x1e14;" horiz-adv-x="595" 
d="M68 0v667h465v-138h-283v-126h244v-138h-245v-127h284v-138h-465zM155 711v103h285v-103h-285zM263 854l-99 111h144l44 -111h-89z" />
    <glyph glyph-name="uni1E15" unicode="&#x1e15;" horiz-adv-x="565" 
d="M297 -15q-78 0 -137.5 31.5t-92.5 90t-33 138.5q0 133 67 207t193 74q84 0 136 -36t77 -107t24 -174h-382l-20 101h262l-20 -54q-1 81 -20.5 113.5t-64.5 32.5q-24 0 -44 -13.5t-31.5 -43.5t-11.5 -81q0 -69 32.5 -105.5t107.5 -36.5q27 0 54 6.5t50 15.5t39 14v-140
q-35 -13 -79.5 -23t-105.5 -10zM142 564v103h285v-103h-285zM248 709l-117 125h162l44 -125h-89z" />
    <glyph glyph-name="uni1E16" unicode="&#x1e16;" horiz-adv-x="595" 
d="M68 0v667h465v-138h-283v-126h244v-138h-245v-127h284v-138h-465zM155 711v103h285v-103h-285zM260 856l32 112h174l-126 -112h-80z" />
    <glyph glyph-name="uni1E17" unicode="&#x1e17;" horiz-adv-x="565" 
d="M297 -15q-78 0 -137.5 31.5t-92.5 90t-33 138.5q0 133 67 207t193 74q84 0 136 -36t77 -107t24 -174h-382l-20 101h262l-20 -54q-1 81 -20.5 113.5t-64.5 32.5q-24 0 -44 -13.5t-31.5 -43.5t-11.5 -81q0 -69 32.5 -105.5t107.5 -36.5q27 0 54 6.5t50 15.5t39 14v-140
q-35 -13 -79.5 -23t-105.5 -10zM142 564v103h285v-103h-285zM239 709l44 125h161l-117 -125h-88z" />
    <glyph glyph-name="uni1E1C" unicode="&#x1e1c;" horiz-adv-x="595" 
d="M68 0v667h465v-138h-283v-126h244v-138h-245v-127h284v-138h-465zM161 -124l91 131h105l-49 -131h-147zM303 702q-50 0 -81.5 18t-48 49.5t-23.5 68.5h89q6 -18 21.5 -37t42.5 -19q29 0 44 19t21 37h90q-4 -37 -21 -68.5t-49.5 -49.5t-84.5 -18z" />
    <glyph glyph-name="uni1E1D" unicode="&#x1e1d;" horiz-adv-x="565" 
d="M297 -15q-78 0 -137.5 31.5t-92.5 90t-33 138.5q0 133 67 207t193 74q84 0 136 -36t77 -107t24 -174h-382l-20 101h262l-20 -54q-1 81 -20.5 113.5t-64.5 32.5q-24 0 -44 -13.5t-31.5 -43.5t-11.5 -81q0 -69 32.5 -105.5t107.5 -36.5q27 0 54 6.5t50 15.5t39 14v-140
q-35 -13 -79.5 -23t-105.5 -10zM203 -136l91 131h105l-49 -131h-147zM290 554q-50 0 -81.5 18t-48 49.5t-23.5 68.5h89q6 -18 21.5 -37t42.5 -19q29 0 44 19t21 37h90q-4 -37 -21 -68.5t-49.5 -49.5t-84.5 -18z" />
    <glyph glyph-name="uni1E1E" unicode="&#x1e1e;" horiz-adv-x="574" 
d="M68 0v667h463v-138h-282v-143h243v-139h-243v-247h-181zM183 692v104h131v-104h-131z" />
    <glyph glyph-name="uni1E20" unicode="&#x1e20;" horiz-adv-x="710" 
d="M368 -14q-98 0 -172 34t-115.5 110.5t-41.5 202.5q0 123 41.5 200.5t115.5 113.5t171 36q65 0 126.5 -13t118.5 -36v-163q-63 34 -114.5 53.5t-106.5 19.5q-52 0 -89.5 -18.5t-57.5 -64t-20 -127.5q0 -80 21 -126.5t56.5 -65.5t79.5 -19q25 0 45.5 3.5t34.5 10.5v103
h-100v138h281v-316q-64 -37 -133.5 -56.5t-140.5 -19.5zM224 728v103h285v-103h-285z" />
    <glyph glyph-name="uni1E21" unicode="&#x1e21;" horiz-adv-x="598" 
d="M255 -15q-67 4 -116.5 31.5t-77 82t-27.5 139.5q0 83 20 138.5t58 87.5t93 45.5t125 13.5q67 0 114.5 -16.5t73 -47.5t25.5 -75v-387q0 -58 -18.5 -100t-54 -70t-84.5 -41.5t-110 -13.5q-71 0 -121 10t-75 24v146q15 -8 45.5 -18.5t69 -18t76.5 -7.5q42 0 66 12.5t34 34
t10 50.5v83l31 -20q-15 -25 -36 -44t-50 -29t-71 -10zM302 106q24 0 43.5 5t35.5 15v220q0 20 -10.5 30t-27.5 13.5t-35 3.5q-40 0 -64 -17.5t-35 -50.5t-11 -77q0 -66 30 -104t74 -38zM182 572v103h285v-103h-285z" />
    <glyph glyph-name="uni1E2A" unicode="&#x1e2a;" horiz-adv-x="719" 
d="M68 0v667h181v-263h221v263h181v-667h-181v257h-221v-257h-181zM359 -181q-50 0 -81.5 18t-48 49.5t-23.5 68.5h89q6 -18 21.5 -37t42.5 -19q29 0 44 19t21 37h90q-4 -37 -21 -68.5t-49.5 -49.5t-84.5 -18z" />
    <glyph glyph-name="uni1E2B" unicode="&#x1e2b;" horiz-adv-x="619" 
d="M63 0v703h166v-305l-74 38q41 38 98 62t118 24q53 0 95 -16.5t66 -56t24 -110.5v-339h-165v302q0 45 -23 65t-67 20q-21 0 -42.5 -6.5t-29.5 -13.5l-2 -367h-164zM303 -173q-50 0 -81.5 18t-48 49.5t-23.5 68.5h89q6 -18 21.5 -37t42.5 -19q29 0 44 19t21 37h90
q-4 -37 -21 -68.5t-49.5 -49.5t-84.5 -18z" />
    <glyph glyph-name="uni1E2E" unicode="&#x1e2e;" horiz-adv-x="318" 
d="M68 0v667h182v-667h-182zM188 699v105h139v-105h-139zM-4 699v105h140v-105h-140zM122 858l32 112h174l-126 -112h-80z" />
    <glyph glyph-name="uni1E2F" unicode="&#x1e2f;" horiz-adv-x="293" 
d="M63 0v499h165l2 -499h-167zM182 557v105h139v-105h-139zM-10 557v105h140v-105h-140zM96 712l44 125h161l-117 -125h-88z" />
    <glyph glyph-name="uni1E36" unicode="&#x1e36;" horiz-adv-x="561" 
d="M68 0v667h182v-528h278v-139h-460zM225 -154v104h114v-104h-114z" />
    <glyph glyph-name="uni1E37" unicode="&#x1e37;" horiz-adv-x="290" 
d="M227 0h-164v698h164v-698zM88 -154v104h114v-104h-114z" />
    <glyph glyph-name="uni1E3A" unicode="&#x1e3a;" horiz-adv-x="561" 
d="M68 0v667h182v-528h278v-139h-460zM134 -150v103h285v-103h-285z" />
    <glyph glyph-name="uni1E3B" unicode="&#x1e3b;" horiz-adv-x="290" 
d="M227 0h-164v698h164v-698zM1 -150v103h285v-103h-285z" />
    <glyph glyph-name="uni1E42" unicode="&#x1e42;" horiz-adv-x="859" 
d="M68 0v667h183l225 -306l-95 -2l232 308h178v-667h-181v534l31 -62l-217 -286l-220 293l36 22v-501h-172zM373 -154v104h114v-104h-114z" />
    <glyph glyph-name="uni1E43" unicode="&#x1e43;" horiz-adv-x="923" 
d="M546 344v-344h-166v306q0 20 -5 35.5t-16 25.5t-28 15t-41 5q-21 0 -37.5 -5.5t-24.5 -11.5v-370h-165v464q18 10 50 20t71 18.5t79 14t73 5.5q67 0 114 -16t71.5 -55t24.5 -107zM380 427q31 28 77 49t97.5 33.5t95.5 12.5q67 0 114 -16t71.5 -55t24.5 -107v-344h-166
v306q0 20 -5 35.5t-16 25.5t-28 15t-41 5q-21 0 -37.5 -6t-24.5 -14zM405 -154v104h114v-104h-114z" />
    <glyph glyph-name="uni1E45" unicode="&#x1e45;" horiz-adv-x="617" 
d="M63 464q18 10 50 20t71 18.5t79 14t73 5.5q67 0 116 -16t75.5 -55t26.5 -107v-344h-165v306q0 20 -5.5 35.5t-16 25.5t-28 15t-41.5 5q-21 0 -41.5 -5.5t-28.5 -11.5v-370h-165v464zM230 566v104h131v-104h-131z" />
    <glyph glyph-name="uni1E46" unicode="&#x1e46;" horiz-adv-x="725" 
d="M68 0v667h150l328 -435l-55 -116v551h166v-667h-132l-330 424l38 82v-506h-165zM306 -154v104h114v-104h-114z" />
    <glyph glyph-name="uni1E47" unicode="&#x1e47;" horiz-adv-x="617" 
d="M63 464q18 10 50 20t71 18.5t79 14t73 5.5q67 0 116 -16t75.5 -55t26.5 -107v-344h-165v306q0 20 -5.5 35.5t-16 25.5t-28 15t-41.5 5q-21 0 -41.5 -5.5t-28.5 -11.5v-370h-165v464zM250 -154v104h114v-104h-114z" />
    <glyph glyph-name="uni1E48" unicode="&#x1e48;" horiz-adv-x="725" 
d="M68 0v667h150l328 -435l-55 -116v551h166v-667h-132l-330 424l38 82v-506h-165zM215 -150v103h285v-103h-285z" />
    <glyph glyph-name="uni1E49" unicode="&#x1e49;" horiz-adv-x="617" 
d="M63 464q18 10 50 20t71 18.5t79 14t73 5.5q67 0 116 -16t75.5 -55t26.5 -107v-344h-165v306q0 20 -5.5 35.5t-16 25.5t-28 15t-41.5 5q-21 0 -41.5 -5.5t-28.5 -11.5v-370h-165v464zM163 -150v103h285v-103h-285z" />
    <glyph glyph-name="uni1E4C" unicode="&#x1e4c;" horiz-adv-x="740" 
d="M370 -14q-99 0 -173.5 37t-116 114t-41.5 196q0 172 87.5 260t243.5 88q99 0 173.5 -37t116 -113.5t41.5 -196.5q0 -172 -87 -260t-244 -88zM370 132q45 0 77 19t49.5 63.5t17.5 120.5q0 75 -17.5 119t-49.5 62.5t-77 18.5t-77 -19.5t-49.5 -63.5t-17.5 -120
q0 -75 17.5 -118.5t49.5 -62.5t77 -19zM260 743h-74q-2 39 13 72.5t43 54t65 20.5q26 0 47 -10t38.5 -22.5t34.5 -22.5t35 -10t27 14.5t9 46.5h76q1 -46 -15.5 -78.5t-43.5 -49.5t-59 -17q-34 0 -57 10t-39.5 22.5t-30 22.5t-29.5 10q-23 0 -32 -21t-8 -42zM328 948l32 112
h174l-126 -112h-80z" />
    <glyph glyph-name="uni1E4D" unicode="&#x1e4d;" horiz-adv-x="594" 
d="M296 -15q-131 0 -196.5 68t-65.5 203q0 147 66 208.5t196 61.5q86 0 145 -27.5t89.5 -87t30.5 -155.5q0 -134 -68.5 -202.5t-196.5 -68.5zM296 116q32 0 54.5 15t34.5 46.5t12 78.5q0 56 -12 86.5t-34.5 42.5t-54.5 12q-33 0 -55 -12.5t-32.5 -43t-10.5 -85.5
q0 -73 24 -106.5t74 -33.5zM186 570h-74q-2 39 13 72.5t43 54t65 20.5q26 0 47 -10t38.5 -22.5t34.5 -22.5t35 -10t27 14.5t9 46.5h76q1 -46 -15.5 -78.5t-43.5 -49.5t-59 -17q-34 0 -57 10t-39.5 22.5t-30 22.5t-29.5 10q-23 0 -32 -21t-8 -42zM247 773l44 125h161
l-117 -125h-88z" />
    <glyph glyph-name="uni1E4E" unicode="&#x1e4e;" horiz-adv-x="740" 
d="M370 -14q-99 0 -173.5 37t-116 114t-41.5 196q0 172 87.5 260t243.5 88q99 0 173.5 -37t116 -113.5t41.5 -196.5q0 -172 -87 -260t-244 -88zM370 132q45 0 77 19t49.5 63.5t17.5 120.5q0 75 -17.5 119t-49.5 62.5t-77 18.5t-77 -19.5t-49.5 -63.5t-17.5 -120
q0 -75 17.5 -118.5t49.5 -62.5t77 -19zM260 743h-74q-2 39 13 72.5t43 54t65 20.5q26 0 47 -10t38.5 -22.5t34.5 -22.5t35 -10t27 14.5t9 46.5h76q1 -46 -15.5 -78.5t-43.5 -49.5t-59 -17q-34 0 -57 10t-39.5 22.5t-30 22.5t-29.5 10q-23 0 -32 -21t-8 -42zM394 929v105h139
v-105h-139zM202 929v105h140v-105h-140z" />
    <glyph glyph-name="uni1E4F" unicode="&#x1e4f;" horiz-adv-x="594" 
d="M296 -15q-131 0 -196.5 68t-65.5 203q0 147 66 208.5t196 61.5q86 0 145 -27.5t89.5 -87t30.5 -155.5q0 -134 -68.5 -202.5t-196.5 -68.5zM296 116q32 0 54.5 15t34.5 46.5t12 78.5q0 56 -12 86.5t-34.5 42.5t-54.5 12q-33 0 -55 -12.5t-32.5 -43t-10.5 -85.5
q0 -73 24 -106.5t74 -33.5zM186 570h-74q-2 39 13 72.5t43 54t65 20.5q26 0 47 -10t38.5 -22.5t34.5 -22.5t35 -10t27 14.5t9 46.5h76q1 -46 -15.5 -78.5t-43.5 -49.5t-59 -17q-34 0 -57 10t-39.5 22.5t-30 22.5t-29.5 10q-23 0 -32 -21t-8 -42zM333 781v105h139v-105h-139z
M141 781v105h140v-105h-140z" />
    <glyph glyph-name="uni1E50" unicode="&#x1e50;" horiz-adv-x="740" 
d="M370 -14q-99 0 -173.5 37t-116 114t-41.5 196q0 172 87.5 260t243.5 88q99 0 173.5 -37t116 -113.5t41.5 -196.5q0 -172 -87 -260t-244 -88zM370 132q45 0 77 19t49.5 63.5t17.5 120.5q0 75 -17.5 119t-49.5 62.5t-77 18.5t-77 -19.5t-49.5 -63.5t-17.5 -120
q0 -75 17.5 -118.5t49.5 -62.5t77 -19zM223 736v103h285v-103h-285zM331 879l-99 111h144l44 -111h-89z" />
    <glyph glyph-name="uni1E51" unicode="&#x1e51;" horiz-adv-x="594" 
d="M296 -15q-131 0 -196.5 68t-65.5 203q0 147 66 208.5t196 61.5q86 0 145 -27.5t89.5 -87t30.5 -155.5q0 -134 -68.5 -202.5t-196.5 -68.5zM296 116q32 0 54.5 15t34.5 46.5t12 78.5q0 56 -12 86.5t-34.5 42.5t-54.5 12q-33 0 -55 -12.5t-32.5 -43t-10.5 -85.5
q0 -73 24 -106.5t74 -33.5zM150 572v103h285v-103h-285zM256 717l-117 125h162l44 -125h-89z" />
    <glyph glyph-name="uni1E52" unicode="&#x1e52;" horiz-adv-x="740" 
d="M370 -14q-99 0 -173.5 37t-116 114t-41.5 196q0 172 87.5 260t243.5 88q99 0 173.5 -37t116 -113.5t41.5 -196.5q0 -172 -87 -260t-244 -88zM370 132q45 0 77 19t49.5 63.5t17.5 120.5q0 75 -17.5 119t-49.5 62.5t-77 18.5t-77 -19.5t-49.5 -63.5t-17.5 -120
q0 -75 17.5 -118.5t49.5 -62.5t77 -19zM223 736v103h285v-103h-285zM328 881l32 112h174l-126 -112h-80z" />
    <glyph glyph-name="uni1E53" unicode="&#x1e53;" horiz-adv-x="594" 
d="M296 -15q-131 0 -196.5 68t-65.5 203q0 147 66 208.5t196 61.5q86 0 145 -27.5t89.5 -87t30.5 -155.5q0 -134 -68.5 -202.5t-196.5 -68.5zM296 116q32 0 54.5 15t34.5 46.5t12 78.5q0 56 -12 86.5t-34.5 42.5t-54.5 12q-33 0 -55 -12.5t-32.5 -43t-10.5 -85.5
q0 -73 24 -106.5t74 -33.5zM150 572v103h285v-103h-285zM247 717l44 125h161l-117 -125h-88z" />
    <glyph glyph-name="uni1E5E" unicode="&#x1e5e;" horiz-adv-x="726" 
d="M68 0v667h336q116 0 183 -53t67 -162q0 -41 -16.5 -83t-50 -73.5t-84.5 -42.5l-20 61l207 -314h-232l-161 287l79 -66h-127v-221h-181zM249 351h129q34 0 57 21t23 71q0 44 -21.5 65t-54.5 21h-133v-178zM216 -150v103h285v-103h-285z" />
    <glyph glyph-name="uni1E5F" unicode="&#x1e5f;" horiz-adv-x="439" 
d="M63 0v451q15 14 51 30.5t82.5 29t91.5 12.5q55 0 86 -8t47 -20v-119q-16 4 -42 7t-55 4t-54.5 0t-41.5 -3v-384h-165zM-12 -150v103h285v-103h-285z" />
    <glyph glyph-name="uni1E60" unicode="&#x1e60;" horiz-adv-x="581" 
d="M299 -14q-50 0 -93 4t-79.5 13.5t-69.5 25.5v170q50 -39 109 -57.5t107 -18.5q38 0 61 14t23 48q0 23 -22.5 37.5t-60 26t-84.5 27.5q-28 10 -54.5 24t-47.5 35t-34 52t-13 75t16.5 84t49.5 71t84 48.5t119 17.5q41 0 74 -4.5t62.5 -14.5t59.5 -25v-172q-22 19 -51.5 36
t-61.5 29t-64 14q-27 1 -50.5 -4.5t-38 -19.5t-14.5 -38q0 -25 16.5 -39.5t46 -24t65.5 -19.5q42 -12 76.5 -27t59.5 -37t39 -53.5t14 -76.5q0 -64 -30 -114t-84.5 -78.5t-129.5 -28.5zM232 721v104h131v-104h-131z" />
    <glyph glyph-name="uni1E61" unicode="&#x1e61;" horiz-adv-x="487" 
d="M215 -15q-54 0 -93 12t-71 24v142q18 -13 44.5 -27.5t59 -24.5t69.5 -10q32 0 43 10.5t11 24.5t-15 23.5t-39 16.5t-51 12q-23 4 -45.5 14.5t-41 29t-29 46t-10.5 64.5q0 51 19.5 84.5t52 54t69.5 29.5t72 8q66 -2 103 -14t66 -31l1 -125q-33 18 -67.5 35t-78.5 17
q-37 0 -51 -11t-14 -28t10.5 -26.5t28 -15t37.5 -11.5q25 -6 52 -14t50 -24t37.5 -44t14.5 -74q-1 -63 -33.5 -99.5t-85.5 -52t-115 -15.5zM163 566v104h131v-104h-131z" />
    <glyph glyph-name="uni1E62" unicode="&#x1e62;" horiz-adv-x="581" 
d="M299 -14q-50 0 -93 4t-79.5 13.5t-69.5 25.5v170q50 -39 109 -57.5t107 -18.5q38 0 61 14t23 48q0 23 -22.5 37.5t-60 26t-84.5 27.5q-28 10 -54.5 24t-47.5 35t-34 52t-13 75t16.5 84t49.5 71t84 48.5t119 17.5q41 0 74 -4.5t62.5 -14.5t59.5 -25v-172q-22 19 -51.5 36
t-61.5 29t-64 14q-27 1 -50.5 -4.5t-38 -19.5t-14.5 -38q0 -25 16.5 -39.5t46 -24t65.5 -19.5q42 -12 76.5 -27t59.5 -37t39 -53.5t14 -76.5q0 -64 -30 -114t-84.5 -78.5t-129.5 -28.5zM206 -154v104h114v-104h-114z" />
    <glyph glyph-name="uni1E63" unicode="&#x1e63;" horiz-adv-x="487" 
d="M215 -15q-54 0 -93 12t-71 24v142q18 -13 44.5 -27.5t59 -24.5t69.5 -10q32 0 43 10.5t11 24.5t-15 23.5t-39 16.5t-51 12q-23 4 -45.5 14.5t-41 29t-29 46t-10.5 64.5q0 51 19.5 84.5t52 54t69.5 29.5t72 8q66 -2 103 -14t66 -31l1 -125q-33 18 -67.5 35t-78.5 17
q-37 0 -51 -11t-14 -28t10.5 -26.5t28 -15t37.5 -11.5q25 -6 52 -14t50 -24t37.5 -44t14.5 -74q-1 -63 -33.5 -99.5t-85.5 -52t-115 -15.5zM170 -154v104h114v-104h-114z" />
    <glyph glyph-name="uni1E64" unicode="&#x1e64;" horiz-adv-x="581" 
d="M299 -14q-50 0 -93 4t-79.5 13.5t-69.5 25.5v170q50 -39 109 -57.5t107 -18.5q38 0 61 14t23 48q0 23 -22.5 37.5t-60 26t-84.5 27.5q-28 10 -54.5 24t-47.5 35t-34 52t-13 75t16.5 84t49.5 71t84 48.5t119 17.5q41 0 74 -4.5t62.5 -14.5t59.5 -25v-172q-22 19 -51.5 36
t-61.5 29t-64 14q-27 1 -50.5 -4.5t-38 -19.5t-14.5 -38q0 -25 16.5 -39.5t46 -24t65.5 -19.5q42 -12 76.5 -27t59.5 -37t39 -53.5t14 -76.5q0 -64 -30 -114t-84.5 -78.5t-129.5 -28.5zM308 742l32 112h174l-126 -112h-80zM140 745v104h131v-104h-131z" />
    <glyph glyph-name="uni1E65" unicode="&#x1e65;" horiz-adv-x="487" 
d="M215 -15q-54 0 -93 12t-71 24v142q18 -13 44.5 -27.5t59 -24.5t69.5 -10q32 0 43 10.5t11 24.5t-15 23.5t-39 16.5t-51 12q-23 4 -45.5 14.5t-41 29t-29 46t-10.5 64.5q0 51 19.5 84.5t52 54t69.5 29.5t72 8q66 -2 103 -14t66 -31l1 -125q-33 18 -67.5 35t-78.5 17
q-37 0 -51 -11t-14 -28t10.5 -26.5t28 -15t37.5 -11.5q25 -6 52 -14t50 -24t37.5 -44t14.5 -74q-1 -63 -33.5 -99.5t-85.5 -52t-115 -15.5zM190 566l44 125h161l-117 -125h-88zM194 741v104h131v-104h-131z" />
    <glyph glyph-name="uni1E66" unicode="&#x1e66;" horiz-adv-x="581" 
d="M299 -14q-50 0 -93 4t-79.5 13.5t-69.5 25.5v170q50 -39 109 -57.5t107 -18.5q38 0 61 14t23 48q0 23 -22.5 37.5t-60 26t-84.5 27.5q-28 10 -54.5 24t-47.5 35t-34 52t-13 75t16.5 84t49.5 71t84 48.5t119 17.5q41 0 74 -4.5t62.5 -14.5t59.5 -25v-172q-22 19 -51.5 36
t-61.5 29t-64 14q-27 1 -50.5 -4.5t-38 -19.5t-14.5 -38q0 -25 16.5 -39.5t46 -24t65.5 -19.5q42 -12 76.5 -27t59.5 -37t39 -53.5t14 -76.5q0 -64 -30 -114t-84.5 -78.5t-129.5 -28.5zM240 725l-80 122h103l43 -57l42 57h104l-72 -122h-140zM235 885v104h131v-104h-131z
" />
    <glyph glyph-name="uni1E67" unicode="&#x1e67;" horiz-adv-x="487" 
d="M215 -15q-54 0 -93 12t-71 24v142q18 -13 44.5 -27.5t59 -24.5t69.5 -10q32 0 43 10.5t11 24.5t-15 23.5t-39 16.5t-51 12q-23 4 -45.5 14.5t-41 29t-29 46t-10.5 64.5q0 51 19.5 84.5t52 54t69.5 29.5t72 8q66 -2 103 -14t66 -31l1 -125q-33 18 -67.5 35t-78.5 17
q-37 0 -51 -11t-14 -28t10.5 -26.5t28 -15t37.5 -11.5q25 -6 52 -14t50 -24t37.5 -44t14.5 -74q-1 -63 -33.5 -99.5t-85.5 -52t-115 -15.5zM171 581l-80 122h103l43 -57l42 57h104l-72 -122h-140zM163 746v104h131v-104h-131z" />
    <glyph glyph-name="uni1E68" unicode="&#x1e68;" horiz-adv-x="581" 
d="M299 -14q-50 0 -93 4t-79.5 13.5t-69.5 25.5v170q50 -39 109 -57.5t107 -18.5q38 0 61 14t23 48q0 23 -22.5 37.5t-60 26t-84.5 27.5q-28 10 -54.5 24t-47.5 35t-34 52t-13 75t16.5 84t49.5 71t84 48.5t119 17.5q41 0 74 -4.5t62.5 -14.5t59.5 -25v-172q-22 19 -51.5 36
t-61.5 29t-64 14q-27 1 -50.5 -4.5t-38 -19.5t-14.5 -38q0 -25 16.5 -39.5t46 -24t65.5 -19.5q42 -12 76.5 -27t59.5 -37t39 -53.5t14 -76.5q0 -64 -30 -114t-84.5 -78.5t-129.5 -28.5zM206 -154v104h114v-104h-114zM232 721v104h131v-104h-131z" />
    <glyph glyph-name="uni1E69" unicode="&#x1e69;" horiz-adv-x="487" 
d="M215 -15q-54 0 -93 12t-71 24v142q18 -13 44.5 -27.5t59 -24.5t69.5 -10q32 0 43 10.5t11 24.5t-15 23.5t-39 16.5t-51 12q-23 4 -45.5 14.5t-41 29t-29 46t-10.5 64.5q0 51 19.5 84.5t52 54t69.5 29.5t72 8q66 -2 103 -14t66 -31l1 -125q-33 18 -67.5 35t-78.5 17
q-37 0 -51 -11t-14 -28t10.5 -26.5t28 -15t37.5 -11.5q25 -6 52 -14t50 -24t37.5 -44t14.5 -74q-1 -63 -33.5 -99.5t-85.5 -52t-115 -15.5zM170 -154v104h114v-104h-114zM163 566v104h131v-104h-131z" />
    <glyph glyph-name="uni1E6D" unicode="&#x1e6d;" horiz-adv-x="423" 
d="M281 -22q-95 0 -140 43t-45 122v240h-71v124h71v139h174v-139h108v-124h-108v-222q0 -22 11 -33t34 -11q14 0 32 6.5t31 16.5v-140q-24 -13 -49 -17.5t-48 -4.5zM154 -154v104h114v-104h-114z" />
    <glyph glyph-name="uni1E6E" unicode="&#x1e6e;" horiz-adv-x="587" 
d="M202 0v529h-178v138h539v-138h-181v-529h-180zM146 -150v103h285v-103h-285z" />
    <glyph glyph-name="uni1E6F" unicode="&#x1e6f;" horiz-adv-x="423" 
d="M281 -22q-95 0 -140 43t-45 122v240h-71v124h71v139h174v-139h108v-124h-108v-222q0 -22 11 -33t34 -11q14 0 32 6.5t31 16.5v-140q-24 -13 -49 -17.5t-48 -4.5zM67 -150v103h285v-103h-285z" />
    <glyph glyph-name="uni1E78" unicode="&#x1e78;" horiz-adv-x="733" 
d="M384 -23q-159 0 -237.5 64t-78.5 203v423h189v-413q0 -71 27.5 -105t90.5 -34q56 0 87 34t31 105v413h172v-423q0 -93 -36 -152t-99.5 -87t-145.5 -28zM255 726h-74q-2 39 13 72.5t43 54t65 20.5q26 0 47 -10t38.5 -22.5t34.5 -22.5t35 -10t27 14.5t9 46.5h76
q1 -46 -15.5 -78.5t-43.5 -49.5t-59 -17q-34 0 -57 10t-39.5 22.5t-30 22.5t-29.5 10q-23 0 -32 -21t-8 -42zM323 931l32 112h174l-126 -112h-80z" />
    <glyph glyph-name="uni1E79" unicode="&#x1e79;" horiz-adv-x="606" 
d="M308 -15q-72 0 -127 21.5t-86.5 68t-31.5 120.5v312h165v-300q0 -42 19.5 -63t61.5 -21t61 21t19 63v300h154v-312q0 -110 -63.5 -160t-171.5 -50zM200 562h-74q-2 39 13 72.5t43 54t65 20.5q26 0 47 -10t38.5 -22.5t34.5 -22.5t35 -10t27 14.5t9 46.5h76
q1 -46 -15.5 -78.5t-43.5 -49.5t-59 -17q-34 0 -57 10t-39.5 22.5t-30 22.5t-29.5 10q-23 0 -32 -21t-8 -42zM261 765l44 125h161l-117 -125h-88z" />
    <glyph glyph-name="uni1E7A" unicode="&#x1e7a;" horiz-adv-x="733" 
d="M384 -23q-159 0 -237.5 64t-78.5 203v423h189v-413q0 -71 27.5 -105t90.5 -34q56 0 87 34t31 105v413h172v-423q0 -93 -36 -152t-99.5 -87t-145.5 -28zM218 719v103h285v-103h-285zM389 846v105h139v-105h-139zM197 846v105h140v-105h-140z" />
    <glyph glyph-name="uni1E7B" unicode="&#x1e7b;" horiz-adv-x="606" 
d="M308 -15q-72 0 -127 21.5t-86.5 68t-31.5 120.5v312h165v-300q0 -42 19.5 -63t61.5 -21t61 21t19 63v300h154v-312q0 -110 -63.5 -160t-171.5 -50zM164 564v103h285v-103h-285zM347 717v105h139v-105h-139zM155 717v105h140v-105h-140z" />
    <glyph glyph-name="Wgrave" unicode="&#x1e80;" horiz-adv-x="1017" 
d="M206 0l-181 667h198l101 -500h-27l143 500h137l144 -506h-29l101 506h199l-181 -667h-179l-138 457h31l-141 -457h-178zM469 715l-99 111h144l44 -111h-89z" />
    <glyph glyph-name="wgrave" unicode="&#x1e81;" horiz-adv-x="833" 
d="M193 0l-171 507h179l107 -400l-53 -2l102 402h119l99 -390h-43l103 390h176l-169 -507h-148l-93 303l28 -2l-89 -301h-147zM376 549l-117 125h162l44 -125h-89z" />
    <glyph glyph-name="Wacute" unicode="&#x1e82;" horiz-adv-x="1017" 
d="M206 0l-181 667h198l101 -500h-27l143 500h137l144 -506h-29l101 506h199l-181 -667h-179l-138 457h31l-141 -457h-178zM465 717l32 112h174l-126 -112h-80z" />
    <glyph glyph-name="wacute" unicode="&#x1e83;" horiz-adv-x="833" 
d="M193 0l-171 507h179l107 -400l-53 -2l102 402h119l99 -390h-43l103 390h176l-169 -507h-148l-93 303l28 -2l-89 -301h-147zM367 549l44 125h161l-117 -125h-88z" />
    <glyph glyph-name="Wdieresis" unicode="&#x1e84;" horiz-adv-x="1017" 
d="M206 0l-181 667h198l101 -500h-27l143 500h137l144 -506h-29l101 506h199l-181 -667h-179l-138 457h31l-141 -457h-178zM531 699v105h139v-105h-139zM339 699v105h140v-105h-140z" />
    <glyph glyph-name="wdieresis" unicode="&#x1e85;" horiz-adv-x="833" 
d="M193 0l-171 507h179l107 -400l-53 -2l102 402h119l99 -390h-43l103 390h176l-169 -507h-148l-93 303l28 -2l-89 -301h-147zM453 557v105h139v-105h-139zM261 557v105h140v-105h-140z" />
    <glyph glyph-name="uni1E8E" unicode="&#x1e8e;" horiz-adv-x="712" 
d="M277 0v285l-254 382h223l186 -320l-86 -1l165 321h177l-256 -427l26 93v-333h-181zM307 696v104h131v-104h-131z" />
    <glyph glyph-name="uni1E8F" unicode="&#x1e8f;" horiz-adv-x="605" 
d="M185 -196q-27 0 -53.5 5t-46.5 14v133q19 -6 33.5 -9t29.5 -3q23 0 41 10.5t30 36.5t17 75l4 -96l-218 537h189l105 -340h-15l103 340h178l-195 -506q-28 -72 -60 -115.5t-68 -62.5t-74 -19zM225 549v104h131v-104h-131z" />
    <glyph glyph-name="uni1E97" unicode="&#x1e97;" horiz-adv-x="423" 
d="M281 -22q-95 0 -140 43t-45 122v240h-71v124h71v139h174v-139h108v-124h-108v-222q0 -22 11 -33t34 -11q14 0 32 6.5t31 16.5v-140q-24 -13 -49 -17.5t-48 -4.5zM210 697v105h139v-105h-139zM18 697v105h140v-105h-140z" />
    <glyph glyph-name="uni1E9E" unicode="&#x1e9e;" horiz-adv-x="727" 
d="M68 0v437q0 82 35.5 135.5t101 81t154.5 27.5q78 0 137.5 -23.5t102.5 -61.5t69 -83v-18l-197 -172l16 114q59 -19 103.5 -48t69 -75.5t24.5 -118.5q0 -44 -17.5 -83t-50 -69.5t-76 -48t-93.5 -17.5q-32 0 -71.5 10.5t-67.5 28.5v162q26 -30 54 -46.5t58 -16.5t54 17.5
t24 60.5t-23.5 75.5t-59.5 56t-71 38.5v16l167 143l29 -68q-19 24 -41.5 46.5t-52.5 38t-73 15.5q-33 0 -61.5 -14.5t-46 -44.5t-17.5 -78l-1 -417h-179z" />
    <glyph glyph-name="uni1EA0" unicode="&#x1ea0;" horiz-adv-x="702" 
d="M12 0l249 667h199l230 -667h-186l-209 636l93 8l-208 -644h-168zM159 131l34 129h298l17 -129h-349zM294 -154v104h114v-104h-114z" />
    <glyph glyph-name="uni1EA1" unicode="&#x1ea1;" horiz-adv-x="548" 
d="M226 -154v104h114v-104h-114zM263 -15q-49 0 -90.5 8.5t-72.5 28.5t-48 55t-17 85q0 45 18.5 79t58.5 54t102 20q33 0 65 -7.5t58 -20t40 -27.5l5 -74q-20 11 -45 17.5t-52 6.5q-46 0 -66.5 -12.5t-20.5 -41.5q0 -15 9.5 -28t25 -21t33.5 -8q48 0 65.5 6t17.5 25v176
q0 44 -28.5 63.5t-80.5 19.5q-45 0 -90 -17t-71 -38v145q24 16 79.5 30t127.5 14q21 0 50.5 -3.5t60 -13.5t57 -30t42.5 -52t16 -81l-1 -238q0 -41 -28.5 -68t-83.5 -39.5t-136 -12.5z" />
    <glyph glyph-name="uni1EA2" unicode="&#x1ea2;" horiz-adv-x="702" 
d="M12 0l249 667h199l230 -667h-186l-209 636l93 8l-208 -644h-168zM159 131l34 129h298l17 -129h-349zM298 704v58q17 0 27 7.5t10 16.5q0 13 -11.5 18.5t-30.5 5.5q-6 0 -13.5 -1t-16.5 -3v62q7 2 24 3t40 1q33 0 59 -8t42 -25.5t16 -46.5t-16 -46.5t-42 -18.5v-23h-88z
" />
    <glyph glyph-name="uni1EA3" unicode="&#x1ea3;" horiz-adv-x="575" 
d="M263 -15q-49 0 -90.5 8.5t-72.5 28.5t-48 55t-17 85q0 45 18.5 79t58.5 54t102 20q33 0 65 -7.5t58 -20t40 -27.5l5 -74q-20 11 -45 17.5t-52 6.5q-46 0 -66.5 -12.5t-20.5 -41.5q0 -15 9.5 -28t25 -21t33.5 -8q48 0 65.5 6t17.5 25v176q0 44 -28.5 63.5t-80.5 19.5
q-45 0 -90 -17t-71 -38v145q24 16 79.5 30t127.5 14q21 0 50.5 -3.5t60 -13.5t57 -30t42.5 -52t16 -81l-1 -238q0 -41 -28.5 -68t-83.5 -39.5t-136 -12.5zM248 563v58q17 0 27 7.5t10 16.5q0 13 -11.5 18.5t-30.5 5.5q-6 0 -13.5 -1t-16.5 -3v62q7 2 24 3t40 1q33 0 59 -8
t42 -25.5t16 -46.5t-16 -46.5t-42 -18.5v-23h-88z" />
    <glyph glyph-name="uni1EA4" unicode="&#x1ea4;" horiz-adv-x="702" 
d="M12 0l249 667h199l230 -667h-186l-209 636l93 8l-208 -644h-168zM159 131l34 129h298l17 -129h-349zM196 707l89 122h135l88 -122h-110l-46 56l-45 -56h-111zM479 781l32 112h174l-126 -112h-80z" />
    <glyph glyph-name="uni1EA5" unicode="&#x1ea5;" horiz-adv-x="575" 
d="M263 -15q-49 0 -90.5 8.5t-72.5 28.5t-48 55t-17 85q0 45 18.5 79t58.5 54t102 20q33 0 65 -7.5t58 -20t40 -27.5l5 -74q-20 11 -45 17.5t-52 6.5q-46 0 -66.5 -12.5t-20.5 -41.5q0 -15 9.5 -28t25 -21t33.5 -8q48 0 65.5 6t17.5 25v176q0 44 -28.5 63.5t-80.5 19.5
q-45 0 -90 -17t-71 -38v145q24 16 79.5 30t127.5 14q21 0 50.5 -3.5t60 -13.5t57 -30t42.5 -52t16 -81l-1 -238q0 -41 -28.5 -68t-83.5 -39.5t-136 -12.5zM128 564l89 122h135l88 -122h-110l-46 56l-45 -56h-111zM410 638l32 112h174l-126 -112h-80z" />
    <glyph glyph-name="uni1EA6" unicode="&#x1ea6;" horiz-adv-x="702" 
d="M12 0l249 667h199l230 -667h-186l-209 636l93 8l-208 -644h-168zM159 131l34 129h298l17 -129h-349zM203 707l89 122h135l88 -122h-110l-46 56l-45 -56h-111zM130 779l-99 111h144l44 -111h-89z" />
    <glyph glyph-name="uni1EA7" unicode="&#x1ea7;" horiz-adv-x="575" 
d="M263 -15q-49 0 -90.5 8.5t-72.5 28.5t-48 55t-17 85q0 45 18.5 79t58.5 54t102 20q33 0 65 -7.5t58 -20t40 -27.5l5 -74q-20 11 -45 17.5t-52 6.5q-46 0 -66.5 -12.5t-20.5 -41.5q0 -15 9.5 -28t25 -21t33.5 -8q48 0 65.5 6t17.5 25v176q0 44 -28.5 63.5t-80.5 19.5
q-45 0 -90 -17t-71 -38v145q24 16 79.5 30t127.5 14q21 0 50.5 -3.5t60 -13.5t57 -30t42.5 -52t16 -81l-1 -238q0 -41 -28.5 -68t-83.5 -39.5t-136 -12.5zM135 564l89 122h135l88 -122h-110l-46 56l-45 -56h-111zM61 637l-99 111h144l44 -111h-89z" />
    <glyph glyph-name="uni1EA8" unicode="&#x1ea8;" horiz-adv-x="702" 
d="M12 0l249 667h199l230 -667h-186l-209 636l93 8l-208 -644h-168zM159 131l34 129h298l17 -129h-349zM185 713l89 122h135l88 -122h-110l-46 56l-45 -56h-111zM472 777v58q17 0 27 7.5t10 16.5q0 13 -11.5 18.5t-30.5 5.5q-6 0 -13.5 -1t-16.5 -3v62q7 2 24 3t40 1
q33 0 59 -8t42 -25.5t16 -46.5t-16 -46.5t-42 -18.5v-23h-88z" />
    <glyph glyph-name="uni1EA9" unicode="&#x1ea9;" horiz-adv-x="575" 
d="M263 -15q-49 0 -90.5 8.5t-72.5 28.5t-48 55t-17 85q0 45 18.5 79t58.5 54t102 20q33 0 65 -7.5t58 -20t40 -27.5l5 -74q-20 11 -45 17.5t-52 6.5q-46 0 -66.5 -12.5t-20.5 -41.5q0 -15 9.5 -28t25 -21t33.5 -8q48 0 65.5 6t17.5 25v176q0 44 -28.5 63.5t-80.5 19.5
q-45 0 -90 -17t-71 -38v145q24 16 79.5 30t127.5 14q21 0 50.5 -3.5t60 -13.5t57 -30t42.5 -52t16 -81l-1 -238q0 -41 -28.5 -68t-83.5 -39.5t-136 -12.5zM117 571l89 122h135l88 -122h-110l-46 56l-45 -56h-111zM403 635v58q17 0 27 7.5t10 16.5q0 13 -11.5 18.5t-30.5 5.5
q-6 0 -13.5 -1t-16.5 -3v62q7 2 24 3t40 1q33 0 59 -8t42 -25.5t16 -46.5t-16 -46.5t-42 -18.5v-23h-88z" />
    <glyph glyph-name="uni1EAA" unicode="&#x1eaa;" horiz-adv-x="702" 
d="M12 0l249 667h199l230 -667h-186l-209 636l93 8l-208 -644h-168zM159 131l34 129h298l17 -129h-349zM203 697l89 122h135l88 -122h-110l-46 56l-45 -56h-111zM239 863h-74q-2 39 13 72.5t43 54t65 20.5q26 0 47 -10t38.5 -22.5t34.5 -22.5t35 -10t27 14.5t9 46.5h76
q1 -46 -15.5 -78.5t-43.5 -49.5t-59 -17q-34 0 -57 10t-39.5 22.5t-30 22.5t-29.5 10q-23 0 -32 -21t-8 -42z" />
    <glyph glyph-name="uni1EAB" unicode="&#x1eab;" horiz-adv-x="575" 
d="M263 -15q-49 0 -90.5 8.5t-72.5 28.5t-48 55t-17 85q0 45 18.5 79t58.5 54t102 20q33 0 65 -7.5t58 -20t40 -27.5l5 -74q-20 11 -45 17.5t-52 6.5q-46 0 -66.5 -12.5t-20.5 -41.5q0 -15 9.5 -28t25 -21t33.5 -8q48 0 65.5 6t17.5 25v176q0 44 -28.5 63.5t-80.5 19.5
q-45 0 -90 -17t-71 -38v145q24 16 79.5 30t127.5 14q21 0 50.5 -3.5t60 -13.5t57 -30t42.5 -52t16 -81l-1 -238q0 -41 -28.5 -68t-83.5 -39.5t-136 -12.5zM135 554l89 122h135l88 -122h-110l-46 56l-45 -56h-111zM171 720h-74q-2 39 13 72.5t43 54t65 20.5q26 0 47 -10
t38.5 -22.5t34.5 -22.5t35 -10t27 14.5t9 46.5h76q1 -46 -15.5 -78.5t-43.5 -49.5t-59 -17q-34 0 -57 10t-39.5 22.5t-30 22.5t-29.5 10q-23 0 -32 -21t-8 -42z" />
    <glyph glyph-name="uni1EAC" unicode="&#x1eac;" horiz-adv-x="702" 
d="M12 0l249 667h199l230 -667h-186l-209 636l93 8l-208 -644h-168zM159 131l34 129h298l17 -129h-349zM294 -154v104h114v-104h-114zM195 708l89 122h135l88 -122h-110l-46 56l-45 -56h-111z" />
    <glyph glyph-name="uni1EAD" unicode="&#x1ead;" horiz-adv-x="548" 
d="M226 -154v104h114v-104h-114zM263 -15q-49 0 -90.5 8.5t-72.5 28.5t-48 55t-17 85q0 45 18.5 79t58.5 54t102 20q33 0 65 -7.5t58 -20t40 -27.5l5 -74q-20 11 -45 17.5t-52 6.5q-46 0 -66.5 -12.5t-20.5 -41.5q0 -15 9.5 -28t25 -21t33.5 -8q48 0 65.5 6t17.5 25v176
q0 44 -28.5 63.5t-80.5 19.5q-45 0 -90 -17t-71 -38v145q24 16 79.5 30t127.5 14q21 0 50.5 -3.5t60 -13.5t57 -30t42.5 -52t16 -81l-1 -238q0 -41 -28.5 -68t-83.5 -39.5t-136 -12.5zM135 581l89 122h135l88 -122h-110l-46 56l-45 -56h-111z" />
    <glyph glyph-name="uni1EAE" unicode="&#x1eae;" horiz-adv-x="702" 
d="M12 0l249 667h199l230 -667h-186l-209 636l93 8l-208 -644h-168zM159 131l34 129h298l17 -129h-349zM351 705q-50 0 -81.5 18t-48 49.5t-23.5 68.5h89q6 -18 21.5 -37t42.5 -19q29 0 44 19t21 37h90q-4 -37 -21 -68.5t-49.5 -49.5t-84.5 -18zM306 872l32 112h174
l-126 -112h-80z" />
    <glyph glyph-name="uni1EAF" unicode="&#x1eaf;" horiz-adv-x="575" 
d="M263 -15q-49 0 -90.5 8.5t-72.5 28.5t-48 55t-17 85q0 45 18.5 79t58.5 54t102 20q33 0 65 -7.5t58 -20t40 -27.5l5 -74q-20 11 -45 17.5t-52 6.5q-46 0 -66.5 -12.5t-20.5 -41.5q0 -15 9.5 -28t25 -21t33.5 -8q48 0 65.5 6t17.5 25v176q0 44 -28.5 63.5t-80.5 19.5
q-45 0 -90 -17t-71 -38v145q24 16 79.5 30t127.5 14q21 0 50.5 -3.5t60 -13.5t57 -30t42.5 -52t16 -81l-1 -238q0 -41 -28.5 -68t-83.5 -39.5t-136 -12.5zM282 562q-50 0 -81.5 18t-48 49.5t-23.5 68.5h89q6 -18 21.5 -37t42.5 -19q29 0 44 19t21 37h90q-4 -37 -21 -68.5
t-49.5 -49.5t-84.5 -18zM237 730l32 112h174l-126 -112h-80z" />
    <glyph glyph-name="uni1EB0" unicode="&#x1eb0;" horiz-adv-x="702" 
d="M12 0l249 667h199l230 -667h-186l-209 636l93 8l-208 -644h-168zM159 131l34 129h298l17 -129h-349zM351 705q-50 0 -81.5 18t-48 49.5t-23.5 68.5h89q6 -18 21.5 -37t42.5 -19q29 0 44 19t21 37h90q-4 -37 -21 -68.5t-49.5 -49.5t-84.5 -18zM309 860l-117 125h162
l44 -125h-89z" />
    <glyph glyph-name="uni1EB1" unicode="&#x1eb1;" horiz-adv-x="575" 
d="M263 -15q-49 0 -90.5 8.5t-72.5 28.5t-48 55t-17 85q0 45 18.5 79t58.5 54t102 20q33 0 65 -7.5t58 -20t40 -27.5l5 -74q-20 11 -45 17.5t-52 6.5q-46 0 -66.5 -12.5t-20.5 -41.5q0 -15 9.5 -28t25 -21t33.5 -8q48 0 65.5 6t17.5 25v176q0 44 -28.5 63.5t-80.5 19.5
q-45 0 -90 -17t-71 -38v145q24 16 79.5 30t127.5 14q21 0 50.5 -3.5t60 -13.5t57 -30t42.5 -52t16 -81l-1 -238q0 -41 -28.5 -68t-83.5 -39.5t-136 -12.5zM282 562q-50 0 -81.5 18t-48 49.5t-23.5 68.5h89q6 -18 21.5 -37t42.5 -19q29 0 44 19t21 37h90q-4 -37 -21 -68.5
t-49.5 -49.5t-84.5 -18zM241 718l-117 125h162l44 -125h-89z" />
    <glyph glyph-name="uni1EB2" unicode="&#x1eb2;" horiz-adv-x="702" 
d="M12 0l249 667h199l230 -667h-186l-209 636l93 8l-208 -644h-168zM159 131l34 129h298l17 -129h-349zM348 705q-50 0 -81.5 18t-48 49.5t-23.5 68.5h89q6 -18 21.5 -37t42.5 -19q29 0 44 19t21 37h90q-4 -37 -21 -68.5t-49.5 -49.5t-84.5 -18zM313 861v58q17 0 27 7.5
t10 16.5q0 13 -11.5 18.5t-30.5 5.5q-6 0 -13.5 -1t-16.5 -3v62q7 2 24 3t40 1q33 0 59 -8t42 -25.5t16 -46.5t-16 -46.5t-42 -18.5v-23h-88z" />
    <glyph glyph-name="uni1EB3" unicode="&#x1eb3;" horiz-adv-x="575" 
d="M263 -15q-49 0 -90.5 8.5t-72.5 28.5t-48 55t-17 85q0 45 18.5 79t58.5 54t102 20q33 0 65 -7.5t58 -20t40 -27.5l5 -74q-20 11 -45 17.5t-52 6.5q-46 0 -66.5 -12.5t-20.5 -41.5q0 -15 9.5 -28t25 -21t33.5 -8q48 0 65.5 6t17.5 25v176q0 44 -28.5 63.5t-80.5 19.5
q-45 0 -90 -17t-71 -38v145q24 16 79.5 30t127.5 14q21 0 50.5 -3.5t60 -13.5t57 -30t42.5 -52t16 -81l-1 -238q0 -41 -28.5 -68t-83.5 -39.5t-136 -12.5zM279 562q-50 0 -81.5 18t-48 49.5t-23.5 68.5h89q6 -18 21.5 -37t42.5 -19q29 0 44 19t21 37h90q-4 -37 -21 -68.5
t-49.5 -49.5t-84.5 -18zM245 718v58q17 0 27 7.5t10 16.5q0 13 -11.5 18.5t-30.5 5.5q-6 0 -13.5 -1t-16.5 -3v62q7 2 24 3t40 1q33 0 59 -8t42 -25.5t16 -46.5t-16 -46.5t-42 -18.5v-23h-88z" />
    <glyph glyph-name="uni1EB4" unicode="&#x1eb4;" horiz-adv-x="702" 
d="M12 0l249 667h199l230 -667h-186l-209 636l93 8l-208 -644h-168zM159 131l34 129h298l17 -129h-349zM351 705q-50 0 -81.5 18t-48 49.5t-23.5 68.5h89q6 -18 21.5 -37t42.5 -19q29 0 44 19t21 37h90q-4 -37 -21 -68.5t-49.5 -49.5t-84.5 -18zM252 896h-74q-2 39 13 72.5
t43 54t65 20.5q26 0 47 -10t38.5 -22.5t34.5 -22.5t35 -10t27 14.5t9 46.5h76q1 -46 -15.5 -78.5t-43.5 -49.5t-59 -17q-34 0 -57 10t-39.5 22.5t-30 22.5t-29.5 10q-23 0 -32 -21t-8 -42z" />
    <glyph glyph-name="uni1EB5" unicode="&#x1eb5;" horiz-adv-x="575" 
d="M263 -15q-49 0 -90.5 8.5t-72.5 28.5t-48 55t-17 85q0 45 18.5 79t58.5 54t102 20q33 0 65 -7.5t58 -20t40 -27.5l5 -74q-20 11 -45 17.5t-52 6.5q-46 0 -66.5 -12.5t-20.5 -41.5q0 -15 9.5 -28t25 -21t33.5 -8q48 0 65.5 6t17.5 25v176q0 44 -28.5 63.5t-80.5 19.5
q-45 0 -90 -17t-71 -38v145q24 16 79.5 30t127.5 14q21 0 50.5 -3.5t60 -13.5t57 -30t42.5 -52t16 -81l-1 -238q0 -41 -28.5 -68t-83.5 -39.5t-136 -12.5zM282 562q-50 0 -81.5 18t-48 49.5t-23.5 68.5h89q6 -18 21.5 -37t42.5 -19q29 0 44 19t21 37h90q-4 -37 -21 -68.5
t-49.5 -49.5t-84.5 -18zM184 754h-74q-2 39 13 72.5t43 54t65 20.5q26 0 47 -10t38.5 -22.5t34.5 -22.5t35 -10t27 14.5t9 46.5h76q1 -46 -15.5 -78.5t-43.5 -49.5t-59 -17q-34 0 -57 10t-39.5 22.5t-30 22.5t-29.5 10q-23 0 -32 -21t-8 -42z" />
    <glyph glyph-name="uni1EB6" unicode="&#x1eb6;" horiz-adv-x="702" 
d="M12 0l249 667h199l230 -667h-186l-209 636l93 8l-208 -644h-168zM159 131l34 129h298l17 -129h-349zM294 -154v104h114v-104h-114zM351 702q-50 0 -81.5 18t-48 49.5t-23.5 68.5h89q6 -18 21.5 -37t42.5 -19q29 0 44 19t21 37h90q-4 -37 -21 -68.5t-49.5 -49.5t-84.5 -18
z" />
    <glyph glyph-name="uni1EB7" unicode="&#x1eb7;" horiz-adv-x="548" 
d="M224 -154v104h114v-104h-114zM280 538q-65 0 -96 28.5t-31 78.5h83q2 -18 11 -28.5t33 -10.5q23 0 32 10.5t11 28.5h84q0 -50 -31.5 -78.5t-95.5 -28.5zM263 -15q-49 0 -90.5 8.5t-72.5 28.5t-48 55t-17 85q0 45 18.5 79t58.5 54t102 20q33 0 65 -7.5t58 -20t40 -27.5
l5 -74q-20 11 -45 17.5t-52 6.5q-46 0 -66.5 -12.5t-20.5 -41.5q0 -15 9.5 -28t25 -21t33.5 -8q48 0 65.5 6t17.5 25v176q0 44 -28.5 63.5t-80.5 19.5q-45 0 -90 -17t-71 -38v145q24 16 79.5 30t127.5 14q21 0 50.5 -3.5t60 -13.5t57 -30t42.5 -52t16 -81l-1 -238
q0 -41 -28.5 -68t-83.5 -39.5t-136 -12.5z" />
    <glyph glyph-name="uni1EB8" unicode="&#x1eb8;" horiz-adv-x="595" 
d="M68 0v667h465v-138h-283v-126h244v-138h-245v-127h284v-138h-465zM242 -154v104h114v-104h-114z" />
    <glyph glyph-name="uni1EB9" unicode="&#x1eb9;" horiz-adv-x="565" 
d="M297 -15q-78 0 -137.5 31.5t-92.5 90t-33 138.5q0 133 67 207t193 74q84 0 136 -36t77 -107t24 -174h-382l-20 101h262l-20 -54q-1 81 -20.5 113.5t-64.5 32.5q-24 0 -44 -13.5t-31.5 -43.5t-11.5 -81q0 -69 32.5 -105.5t107.5 -36.5q27 0 54 6.5t50 15.5t39 14v-140
q-35 -13 -79.5 -23t-105.5 -10zM241 -154v104h114v-104h-114z" />
    <glyph glyph-name="uni1EBA" unicode="&#x1eba;" horiz-adv-x="595" 
d="M68 0v667h465v-138h-283v-126h244v-138h-245v-127h284v-138h-465zM250 704v58q17 0 27 7.5t10 16.5q0 13 -11.5 18.5t-30.5 5.5q-6 0 -13.5 -1t-16.5 -3v62q7 2 24 3t40 1q33 0 59 -8t42 -25.5t16 -46.5t-16 -46.5t-42 -18.5v-23h-88z" />
    <glyph glyph-name="uni1EBB" unicode="&#x1ebb;" horiz-adv-x="565" 
d="M297 -15q-78 0 -137.5 31.5t-92.5 90t-33 138.5q0 133 67 207t193 74q84 0 136 -36t77 -107t24 -174h-382l-20 101h262l-20 -54q-1 81 -20.5 113.5t-64.5 32.5q-24 0 -44 -13.5t-31.5 -43.5t-11.5 -81q0 -69 32.5 -105.5t107.5 -36.5q27 0 54 6.5t50 15.5t39 14v-140
q-35 -13 -79.5 -23t-105.5 -10zM255 555v58q17 0 27 7.5t10 16.5q0 13 -11.5 18.5t-30.5 5.5q-6 0 -13.5 -1t-16.5 -3v62q7 2 24 3t40 1q33 0 59 -8t42 -25.5t16 -46.5t-16 -46.5t-42 -18.5v-23h-88z" />
    <glyph glyph-name="uni1EBC" unicode="&#x1ebc;" horiz-adv-x="595" 
d="M68 0v667h465v-138h-283v-126h244v-138h-245v-127h284v-138h-465zM192 718h-74q-2 39 13 72.5t43 54t65 20.5q26 0 47 -10t38.5 -22.5t34.5 -22.5t35 -10t27 14.5t9 46.5h76q1 -46 -15.5 -78.5t-43.5 -49.5t-59 -17q-34 0 -57 10t-39.5 22.5t-30 22.5t-29.5 10
q-23 0 -32 -21t-8 -42z" />
    <glyph glyph-name="uni1EBD" unicode="&#x1ebd;" horiz-adv-x="565" 
d="M297 -15q-78 0 -137.5 31.5t-92.5 90t-33 138.5q0 133 67 207t193 74q84 0 136 -36t77 -107t24 -174h-382l-20 101h262l-20 -54q-1 81 -20.5 113.5t-64.5 32.5q-24 0 -44 -13.5t-31.5 -43.5t-11.5 -81q0 -69 32.5 -105.5t107.5 -36.5q27 0 54 6.5t50 15.5t39 14v-140
q-35 -13 -79.5 -23t-105.5 -10zM178 562h-74q-2 39 13 72.5t43 54t65 20.5q26 0 47 -10t38.5 -22.5t34.5 -22.5t35 -10t27 14.5t9 46.5h76q1 -46 -15.5 -78.5t-43.5 -49.5t-59 -17q-34 0 -57 10t-39.5 22.5t-30 22.5t-29.5 10q-23 0 -32 -21t-8 -42z" />
    <glyph glyph-name="uni1EBE" unicode="&#x1ebe;" horiz-adv-x="595" 
d="M68 0v667h465v-138h-283v-126h244v-138h-245v-127h284v-138h-465zM148 707l89 122h135l88 -122h-110l-46 56l-45 -56h-111zM431 781l32 112h174l-126 -112h-80z" />
    <glyph glyph-name="uni1EBF" unicode="&#x1ebf;" horiz-adv-x="565" 
d="M297 -15q-78 0 -137.5 31.5t-92.5 90t-33 138.5q0 133 67 207t193 74q84 0 136 -36t77 -107t24 -174h-382l-20 101h262l-20 -54q-1 81 -20.5 113.5t-64.5 32.5q-24 0 -44 -13.5t-31.5 -43.5t-11.5 -81q0 -69 32.5 -105.5t107.5 -36.5q27 0 54 6.5t50 15.5t39 14v-140
q-35 -13 -79.5 -23t-105.5 -10zM135 556l89 122h135l88 -122h-110l-46 56l-45 -56h-111zM418 629l32 112h174l-126 -112h-80z" />
    <glyph glyph-name="uni1EC0" unicode="&#x1ec0;" horiz-adv-x="595" 
d="M68 0v667h465v-138h-283v-126h244v-138h-245v-127h284v-138h-465zM155 707l89 122h135l88 -122h-110l-46 56l-45 -56h-111zM82 779l-99 111h144l44 -111h-89z" />
    <glyph glyph-name="uni1EC1" unicode="&#x1ec1;" horiz-adv-x="565" 
d="M297 -15q-78 0 -137.5 31.5t-92.5 90t-33 138.5q0 133 67 207t193 74q84 0 136 -36t77 -107t24 -174h-382l-20 101h262l-20 -54q-1 81 -20.5 113.5t-64.5 32.5q-24 0 -44 -13.5t-31.5 -43.5t-11.5 -81q0 -69 32.5 -105.5t107.5 -36.5q27 0 54 6.5t50 15.5t39 14v-140
q-35 -13 -79.5 -23t-105.5 -10zM142 556l89 122h135l88 -122h-110l-46 56l-45 -56h-111zM69 628l-99 111h144l44 -111h-89z" />
    <glyph glyph-name="uni1EC2" unicode="&#x1ec2;" horiz-adv-x="595" 
d="M68 0v667h465v-138h-283v-126h244v-138h-245v-127h284v-138h-465zM137 713l89 122h135l88 -122h-110l-46 56l-45 -56h-111zM424 777v58q17 0 27 7.5t10 16.5q0 13 -11.5 18.5t-30.5 5.5q-6 0 -13.5 -1t-16.5 -3v62q7 2 24 3t40 1q33 0 59 -8t42 -25.5t16 -46.5t-16 -46.5
t-42 -18.5v-23h-88z" />
    <glyph glyph-name="uni1EC3" unicode="&#x1ec3;" horiz-adv-x="565" 
d="M297 -15q-78 0 -137.5 31.5t-92.5 90t-33 138.5q0 133 67 207t193 74q84 0 136 -36t77 -107t24 -174h-382l-20 101h262l-20 -54q-1 81 -20.5 113.5t-64.5 32.5q-24 0 -44 -13.5t-31.5 -43.5t-11.5 -81q0 -69 32.5 -105.5t107.5 -36.5q27 0 54 6.5t50 15.5t39 14v-140
q-35 -13 -79.5 -23t-105.5 -10zM124 562l89 122h135l88 -122h-110l-46 56l-45 -56h-111zM411 626v58q17 0 27 7.5t10 16.5q0 13 -11.5 18.5t-30.5 5.5q-6 0 -13.5 -1t-16.5 -3v62q7 2 24 3t40 1q33 0 59 -8t42 -25.5t16 -46.5t-16 -46.5t-42 -18.5v-23h-88z" />
    <glyph glyph-name="uni1EC4" unicode="&#x1ec4;" horiz-adv-x="595" 
d="M68 0v667h465v-138h-283v-126h244v-138h-245v-127h284v-138h-465zM155 697l89 122h135l88 -122h-110l-46 56l-45 -56h-111zM191 863h-74q-2 39 13 72.5t43 54t65 20.5q26 0 47 -10t38.5 -22.5t34.5 -22.5t35 -10t27 14.5t9 46.5h76q1 -46 -15.5 -78.5t-43.5 -49.5
t-59 -17q-34 0 -57 10t-39.5 22.5t-30 22.5t-29.5 10q-23 0 -32 -21t-8 -42z" />
    <glyph glyph-name="uni1EC5" unicode="&#x1ec5;" horiz-adv-x="565" 
d="M297 -15q-78 0 -137.5 31.5t-92.5 90t-33 138.5q0 133 67 207t193 74q84 0 136 -36t77 -107t24 -174h-382l-20 101h262l-20 -54q-1 81 -20.5 113.5t-64.5 32.5q-24 0 -44 -13.5t-31.5 -43.5t-11.5 -81q0 -69 32.5 -105.5t107.5 -36.5q27 0 54 6.5t50 15.5t39 14v-140
q-35 -13 -79.5 -23t-105.5 -10zM142 546l89 122h135l88 -122h-110l-46 56l-45 -56h-111zM178 712h-74q-2 39 13 72.5t43 54t65 20.5q26 0 47 -10t38.5 -22.5t34.5 -22.5t35 -10t27 14.5t9 46.5h76q1 -46 -15.5 -78.5t-43.5 -49.5t-59 -17q-34 0 -57 10t-39.5 22.5t-30 22.5
t-29.5 10q-23 0 -32 -21t-8 -42z" />
    <glyph glyph-name="uni1EC6" unicode="&#x1ec6;" horiz-adv-x="595" 
d="M68 0v667h465v-138h-283v-126h244v-138h-245v-127h284v-138h-465zM242 -154v104h114v-104h-114zM147 708l89 122h135l88 -122h-110l-46 56l-45 -56h-111z" />
    <glyph glyph-name="uni1EC7" unicode="&#x1ec7;" horiz-adv-x="565" 
d="M297 -15q-78 0 -137.5 31.5t-92.5 90t-33 138.5q0 133 67 207t193 74q84 0 136 -36t77 -107t24 -174h-382l-20 101h262l-20 -54q-1 81 -20.5 113.5t-64.5 32.5q-24 0 -44 -13.5t-31.5 -43.5t-11.5 -81q0 -69 32.5 -105.5t107.5 -36.5q27 0 54 6.5t50 15.5t39 14v-140
q-35 -13 -79.5 -23t-105.5 -10zM142 572l89 122h135l88 -122h-110l-46 56l-45 -56h-111zM241 -154v104h114v-104h-114z" />
    <glyph glyph-name="uni1EC8" unicode="&#x1ec8;" horiz-adv-x="318" 
d="M68 0v667h182v-667h-182zM112 704v58q17 0 27 7.5t10 16.5q0 13 -11.5 18.5t-30.5 5.5q-6 0 -13.5 -1t-16.5 -3v62q7 2 24 3t40 1q33 0 59 -8t42 -25.5t16 -46.5t-16 -46.5t-42 -18.5v-23h-88z" />
    <glyph glyph-name="uni1EC9" unicode="&#x1ec9;" horiz-adv-x="346" 
d="M96 0v499h157v-499h-157zM148 557v58q10 0 18.5 4t8.5 13q0 13 -10 17.5t-22 4.5q-14 0 -31 -4v52q7 2 22 3t25 1q25 0 46 -7.5t33.5 -23t12.5 -40.5q0 -22 -11 -33.5t-23 -16t-15 -5.5v-23h-54z" />
    <glyph glyph-name="uni1ECA" unicode="&#x1eca;" horiz-adv-x="318" 
d="M68 0v667h182v-667h-182zM94 -154v104h114v-104h-114z" />
    <glyph glyph-name="uni1ECB" unicode="&#x1ecb;" horiz-adv-x="346" 
d="M96 0v499h157v-499h-157zM118 -154v104h114v-104h-114zM94 561v123h162v-123h-162z" />
    <glyph glyph-name="uni1ECC" unicode="&#x1ecc;" horiz-adv-x="740" 
d="M370 -14q-99 0 -173.5 37t-116 114t-41.5 196q0 172 87.5 260t243.5 88q99 0 173.5 -37t116 -113.5t41.5 -196.5q0 -172 -87 -260t-244 -88zM370 132q45 0 77 19t49.5 63.5t17.5 120.5q0 75 -17.5 119t-49.5 62.5t-77 18.5t-77 -19.5t-49.5 -63.5t-17.5 -120
q0 -75 17.5 -118.5t49.5 -62.5t77 -19zM314 -154v104h114v-104h-114z" />
    <glyph glyph-name="uni1ECD" unicode="&#x1ecd;" horiz-adv-x="594" 
d="M296 -15q-131 0 -196.5 68t-65.5 203q0 147 66 208.5t196 61.5q86 0 145 -27.5t89.5 -87t30.5 -155.5q0 -134 -68.5 -202.5t-196.5 -68.5zM296 116q32 0 54.5 15t34.5 46.5t12 78.5q0 56 -12 86.5t-34.5 42.5t-54.5 12q-33 0 -55 -12.5t-32.5 -43t-10.5 -85.5
q0 -73 24 -106.5t74 -33.5zM241 -154v104h114v-104h-114z" />
    <glyph glyph-name="uni1ECE" unicode="&#x1ece;" horiz-adv-x="740" 
d="M370 -14q-99 0 -173.5 37t-116 114t-41.5 196q0 172 87.5 260t243.5 88q99 0 173.5 -37t116 -113.5t41.5 -196.5q0 -172 -87 -260t-244 -88zM370 132q45 0 77 19t49.5 63.5t17.5 120.5q0 75 -17.5 119t-49.5 62.5t-77 18.5t-77 -19.5t-49.5 -63.5t-17.5 -120
q0 -75 17.5 -118.5t49.5 -62.5t77 -19zM318 730v58q17 0 27 7.5t10 16.5q0 13 -11.5 18.5t-30.5 5.5q-6 0 -13.5 -1t-16.5 -3v62q7 2 24 3t40 1q33 0 59 -8t42 -25.5t16 -46.5t-16 -46.5t-42 -18.5v-23h-88z" />
    <glyph glyph-name="uni1ECF" unicode="&#x1ecf;" horiz-adv-x="594" 
d="M296 -15q-131 0 -196.5 68t-65.5 203q0 147 66 208.5t196 61.5q86 0 145 -27.5t89.5 -87t30.5 -155.5q0 -134 -68.5 -202.5t-196.5 -68.5zM296 116q32 0 54.5 15t34.5 46.5t12 78.5q0 56 -12 86.5t-34.5 42.5t-54.5 12q-33 0 -55 -12.5t-32.5 -43t-10.5 -85.5
q0 -73 24 -106.5t74 -33.5zM263 563v58q17 0 27 7.5t10 16.5q0 13 -11.5 18.5t-30.5 5.5q-6 0 -13.5 -1t-16.5 -3v62q7 2 24 3t40 1q33 0 59 -8t42 -25.5t16 -46.5t-16 -46.5t-42 -18.5v-23h-88z" />
    <glyph glyph-name="uni1ED0" unicode="&#x1ed0;" horiz-adv-x="740" 
d="M370 -14q-99 0 -173.5 37t-116 114t-41.5 196q0 172 87.5 260t243.5 88q99 0 173.5 -37t116 -113.5t41.5 -196.5q0 -172 -87 -260t-244 -88zM370 132q45 0 77 19t49.5 63.5t17.5 120.5q0 75 -17.5 119t-49.5 62.5t-77 18.5t-77 -19.5t-49.5 -63.5t-17.5 -120
q0 -75 17.5 -118.5t49.5 -62.5t77 -19zM216 732l89 122h135l88 -122h-110l-46 56l-45 -56h-111zM499 806l32 112h174l-126 -112h-80z" />
    <glyph glyph-name="uni1ED1" unicode="&#x1ed1;" horiz-adv-x="594" 
d="M296 -15q-131 0 -196.5 68t-65.5 203q0 147 66 208.5t196 61.5q86 0 145 -27.5t89.5 -87t30.5 -155.5q0 -134 -68.5 -202.5t-196.5 -68.5zM296 116q32 0 54.5 15t34.5 46.5t12 78.5q0 56 -12 86.5t-34.5 42.5t-54.5 12q-33 0 -55 -12.5t-32.5 -43t-10.5 -85.5
q0 -73 24 -106.5t74 -33.5zM143 564l89 122h135l88 -122h-110l-46 56l-45 -56h-111zM426 638l32 112h174l-126 -112h-80z" />
    <glyph glyph-name="uni1ED2" unicode="&#x1ed2;" horiz-adv-x="740" 
d="M370 -14q-99 0 -173.5 37t-116 114t-41.5 196q0 172 87.5 260t243.5 88q99 0 173.5 -37t116 -113.5t41.5 -196.5q0 -172 -87 -260t-244 -88zM370 132q45 0 77 19t49.5 63.5t17.5 120.5q0 75 -17.5 119t-49.5 62.5t-77 18.5t-77 -19.5t-49.5 -63.5t-17.5 -120
q0 -75 17.5 -118.5t49.5 -62.5t77 -19zM224 732l89 122h135l88 -122h-110l-46 56l-45 -56h-111zM150 805l-99 111h144l44 -111h-89z" />
    <glyph glyph-name="uni1ED3" unicode="&#x1ed3;" horiz-adv-x="594" 
d="M296 -15q-131 0 -196.5 68t-65.5 203q0 147 66 208.5t196 61.5q86 0 145 -27.5t89.5 -87t30.5 -155.5q0 -134 -68.5 -202.5t-196.5 -68.5zM296 116q32 0 54.5 15t34.5 46.5t12 78.5q0 56 -12 86.5t-34.5 42.5t-54.5 12q-33 0 -55 -12.5t-32.5 -43t-10.5 -85.5
q0 -73 24 -106.5t74 -33.5zM150 564l89 122h135l88 -122h-110l-46 56l-45 -56h-111zM77 637l-99 111h144l44 -111h-89z" />
    <glyph glyph-name="uni1ED4" unicode="&#x1ed4;" horiz-adv-x="740" 
d="M370 -14q-99 0 -173.5 37t-116 114t-41.5 196q0 172 87.5 260t243.5 88q99 0 173.5 -37t116 -113.5t41.5 -196.5q0 -172 -87 -260t-244 -88zM370 132q45 0 77 19t49.5 63.5t17.5 120.5q0 75 -17.5 119t-49.5 62.5t-77 18.5t-77 -19.5t-49.5 -63.5t-17.5 -120
q0 -75 17.5 -118.5t49.5 -62.5t77 -19zM206 739l89 122h135l88 -122h-110l-46 56l-45 -56h-111zM492 803v58q17 0 27 7.5t10 16.5q0 13 -11.5 18.5t-30.5 5.5q-6 0 -13.5 -1t-16.5 -3v62q7 2 24 3t40 1q33 0 59 -8t42 -25.5t16 -46.5t-16 -46.5t-42 -18.5v-23h-88z" />
    <glyph glyph-name="uni1ED5" unicode="&#x1ed5;" horiz-adv-x="594" 
d="M296 -15q-131 0 -196.5 68t-65.5 203q0 147 66 208.5t196 61.5q86 0 145 -27.5t89.5 -87t30.5 -155.5q0 -134 -68.5 -202.5t-196.5 -68.5zM296 116q32 0 54.5 15t34.5 46.5t12 78.5q0 56 -12 86.5t-34.5 42.5t-54.5 12q-33 0 -55 -12.5t-32.5 -43t-10.5 -85.5
q0 -73 24 -106.5t74 -33.5zM133 571l89 122h135l88 -122h-110l-46 56l-45 -56h-111zM419 635v58q17 0 27 7.5t10 16.5q0 13 -11.5 18.5t-30.5 5.5q-6 0 -13.5 -1t-16.5 -3v62q7 2 24 3t40 1q33 0 59 -8t42 -25.5t16 -46.5t-16 -46.5t-42 -18.5v-23h-88z" />
    <glyph glyph-name="uni1ED6" unicode="&#x1ed6;" horiz-adv-x="740" 
d="M370 -14q-99 0 -173.5 37t-116 114t-41.5 196q0 172 87.5 260t243.5 88q99 0 173.5 -37t116 -113.5t41.5 -196.5q0 -172 -87 -260t-244 -88zM370 132q45 0 77 19t49.5 63.5t17.5 120.5q0 75 -17.5 119t-49.5 62.5t-77 18.5t-77 -19.5t-49.5 -63.5t-17.5 -120
q0 -75 17.5 -118.5t49.5 -62.5t77 -19zM224 722l89 122h135l88 -122h-110l-46 56l-45 -56h-111zM259 888h-74q-2 39 13 72.5t43 54t65 20.5q26 0 47 -10t38.5 -22.5t34.5 -22.5t35 -10t27 14.5t9 46.5h76q1 -46 -15.5 -78.5t-43.5 -49.5t-59 -17q-34 0 -57 10t-39.5 22.5
t-30 22.5t-29.5 10q-23 0 -32 -21t-8 -42z" />
    <glyph glyph-name="uni1ED7" unicode="&#x1ed7;" horiz-adv-x="594" 
d="M296 -15q-131 0 -196.5 68t-65.5 203q0 147 66 208.5t196 61.5q86 0 145 -27.5t89.5 -87t30.5 -155.5q0 -134 -68.5 -202.5t-196.5 -68.5zM296 116q32 0 54.5 15t34.5 46.5t12 78.5q0 56 -12 86.5t-34.5 42.5t-54.5 12q-33 0 -55 -12.5t-32.5 -43t-10.5 -85.5
q0 -73 24 -106.5t74 -33.5zM150 554l89 122h135l88 -122h-110l-46 56l-45 -56h-111zM186 720h-74q-2 39 13 72.5t43 54t65 20.5q26 0 47 -10t38.5 -22.5t34.5 -22.5t35 -10t27 14.5t9 46.5h76q1 -46 -15.5 -78.5t-43.5 -49.5t-59 -17q-34 0 -57 10t-39.5 22.5t-30 22.5
t-29.5 10q-23 0 -32 -21t-8 -42z" />
    <glyph glyph-name="uni1ED8" unicode="&#x1ed8;" horiz-adv-x="740" 
d="M370 -14q-99 0 -173.5 37t-116 114t-41.5 196q0 172 87.5 260t243.5 88q99 0 173.5 -37t116 -113.5t41.5 -196.5q0 -172 -87 -260t-244 -88zM370 132q45 0 77 19t49.5 63.5t17.5 120.5q0 75 -17.5 119t-49.5 62.5t-77 18.5t-77 -19.5t-49.5 -63.5t-17.5 -120
q0 -75 17.5 -118.5t49.5 -62.5t77 -19zM314 -154v104h114v-104h-114zM215 733l89 122h135l88 -122h-110l-46 56l-45 -56h-111z" />
    <glyph glyph-name="uni1ED9" unicode="&#x1ed9;" horiz-adv-x="594" 
d="M296 -15q-131 0 -196.5 68t-65.5 203q0 147 66 208.5t196 61.5q86 0 145 -27.5t89.5 -87t30.5 -155.5q0 -134 -68.5 -202.5t-196.5 -68.5zM296 116q32 0 54.5 15t34.5 46.5t12 78.5q0 56 -12 86.5t-34.5 42.5t-54.5 12q-33 0 -55 -12.5t-32.5 -43t-10.5 -85.5
q0 -73 24 -106.5t74 -33.5zM150 581l89 122h135l88 -122h-110l-46 56l-45 -56h-111zM241 -154v104h114v-104h-114z" />
    <glyph glyph-name="uni1EDA" unicode="&#x1eda;" horiz-adv-x="740" 
d="M370 -14q-99 0 -173.5 37t-116 114t-41.5 196q0 172 87.5 260t243.5 88q99 0 173.5 -37t116 -113.5t41.5 -196.5q0 -172 -87 -260t-244 -88zM370 132q45 0 77 19t49.5 63.5t17.5 120.5q0 75 -17.5 119t-49.5 62.5t-77 18.5t-77 -19.5t-49.5 -63.5t-17.5 -120
q0 -75 17.5 -118.5t49.5 -62.5t77 -19zM467 578l-3 89q33 0 53.5 10.5t20.5 32.5v40h99v-62q0 -39 -22.5 -62.5t-60 -34.5t-87.5 -13zM328 742l32 112h174l-126 -112h-80z" />
    <glyph glyph-name="uni1EDB" unicode="&#x1edb;" horiz-adv-x="594" 
d="M296 -15q-131 0 -196.5 68t-65.5 203q0 147 66 208.5t196 61.5q86 0 145 -27.5t89.5 -87t30.5 -155.5q0 -134 -68.5 -202.5t-196.5 -68.5zM296 116q32 0 54.5 15t34.5 46.5t12 78.5q0 56 -12 86.5t-34.5 42.5t-54.5 12q-33 0 -55 -12.5t-32.5 -43t-10.5 -85.5
q0 -73 24 -106.5t74 -33.5zM412 417l-3 89q33 0 53.5 10.5t20.5 32.5v40h99v-62q0 -39 -22.5 -62.5t-60 -34.5t-87.5 -13zM247 574l44 125h161l-117 -125h-88z" />
    <glyph glyph-name="uni1EDC" unicode="&#x1edc;" horiz-adv-x="740" 
d="M370 -14q-99 0 -173.5 37t-116 114t-41.5 196q0 172 87.5 260t243.5 88q99 0 173.5 -37t116 -113.5t41.5 -196.5q0 -172 -87 -260t-244 -88zM370 132q45 0 77 19t49.5 63.5t17.5 120.5q0 75 -17.5 119t-49.5 62.5t-77 18.5t-77 -19.5t-49.5 -63.5t-17.5 -120
q0 -75 17.5 -118.5t49.5 -62.5t77 -19zM467 578l-3 89q33 0 53.5 10.5t20.5 32.5v40h99v-62q0 -39 -22.5 -62.5t-60 -34.5t-87.5 -13zM331 741l-99 111h144l44 -111h-89z" />
    <glyph glyph-name="uni1EDD" unicode="&#x1edd;" horiz-adv-x="594" 
d="M296 -15q-131 0 -196.5 68t-65.5 203q0 147 66 208.5t196 61.5q86 0 145 -27.5t89.5 -87t30.5 -155.5q0 -134 -68.5 -202.5t-196.5 -68.5zM296 116q32 0 54.5 15t34.5 46.5t12 78.5q0 56 -12 86.5t-34.5 42.5t-54.5 12q-33 0 -55 -12.5t-32.5 -43t-10.5 -85.5
q0 -73 24 -106.5t74 -33.5zM412 417l-3 89q33 0 53.5 10.5t20.5 32.5v40h99v-62q0 -39 -22.5 -62.5t-60 -34.5t-87.5 -13zM256 574l-117 125h162l44 -125h-89z" />
    <glyph glyph-name="uni1EDE" unicode="&#x1ede;" horiz-adv-x="740" 
d="M370 -14q-99 0 -173.5 37t-116 114t-41.5 196q0 172 87.5 260t243.5 88q99 0 173.5 -37t116 -113.5t41.5 -196.5q0 -172 -87 -260t-244 -88zM370 132q45 0 77 19t49.5 63.5t17.5 120.5q0 75 -17.5 119t-49.5 62.5t-77 18.5t-77 -19.5t-49.5 -63.5t-17.5 -120
q0 -75 17.5 -118.5t49.5 -62.5t77 -19zM467 578l-3 89q33 0 53.5 10.5t20.5 32.5v40h99v-62q0 -39 -22.5 -62.5t-60 -34.5t-87.5 -13zM318 730v58q17 0 27 7.5t10 16.5q0 13 -11.5 18.5t-30.5 5.5q-6 0 -13.5 -1t-16.5 -3v62q7 2 24 3t40 1q33 0 59 -8t42 -25.5t16 -46.5
t-16 -46.5t-42 -18.5v-23h-88z" />
    <glyph glyph-name="uni1EDF" unicode="&#x1edf;" horiz-adv-x="594" 
d="M296 -15q-131 0 -196.5 68t-65.5 203q0 147 66 208.5t196 61.5q86 0 145 -27.5t89.5 -87t30.5 -155.5q0 -134 -68.5 -202.5t-196.5 -68.5zM296 116q32 0 54.5 15t34.5 46.5t12 78.5q0 56 -12 86.5t-34.5 42.5t-54.5 12q-33 0 -55 -12.5t-32.5 -43t-10.5 -85.5
q0 -73 24 -106.5t74 -33.5zM412 417l-3 89q33 0 53.5 10.5t20.5 32.5v40h99v-62q0 -39 -22.5 -62.5t-60 -34.5t-87.5 -13zM263 563v58q17 0 27 7.5t10 16.5q0 13 -11.5 18.5t-30.5 5.5q-6 0 -13.5 -1t-16.5 -3v62q7 2 24 3t40 1q33 0 59 -8t42 -25.5t16 -46.5t-16 -46.5
t-42 -18.5v-23h-88z" />
    <glyph glyph-name="uni1EE0" unicode="&#x1ee0;" horiz-adv-x="740" 
d="M370 -14q-99 0 -173.5 37t-116 114t-41.5 196q0 172 87.5 260t243.5 88q99 0 173.5 -37t116 -113.5t41.5 -196.5q0 -172 -87 -260t-244 -88zM370 132q45 0 77 19t49.5 63.5t17.5 120.5q0 75 -17.5 119t-49.5 62.5t-77 18.5t-77 -19.5t-49.5 -63.5t-17.5 -120
q0 -75 17.5 -118.5t49.5 -62.5t77 -19zM467 578l-3 89q33 0 53.5 10.5t20.5 32.5v40h99v-62q0 -39 -22.5 -62.5t-60 -34.5t-87.5 -13zM260 743h-74q-2 39 13 72.5t43 54t65 20.5q26 0 47 -10t38.5 -22.5t34.5 -22.5t35 -10t27 14.5t9 46.5h76q1 -46 -15.5 -78.5t-43.5 -49.5
t-59 -17q-34 0 -57 10t-39.5 22.5t-30 22.5t-29.5 10q-23 0 -32 -21t-8 -42z" />
    <glyph glyph-name="uni1EE1" unicode="&#x1ee1;" horiz-adv-x="594" 
d="M296 -15q-131 0 -196.5 68t-65.5 203q0 147 66 208.5t196 61.5q86 0 145 -27.5t89.5 -87t30.5 -155.5q0 -134 -68.5 -202.5t-196.5 -68.5zM296 116q32 0 54.5 15t34.5 46.5t12 78.5q0 56 -12 86.5t-34.5 42.5t-54.5 12q-33 0 -55 -12.5t-32.5 -43t-10.5 -85.5
q0 -73 24 -106.5t74 -33.5zM412 417l-3 89q33 0 53.5 10.5t20.5 32.5v40h99v-62q0 -39 -22.5 -62.5t-60 -34.5t-87.5 -13zM184 573h-74q-2 39 13 72.5t43 54t65 20.5q26 0 47 -10t38.5 -22.5t34.5 -22.5t35 -10t27 14.5t9 46.5h76q1 -46 -15.5 -78.5t-43.5 -49.5t-59 -17
q-34 0 -57 10t-39.5 22.5t-30 22.5t-29.5 10q-23 0 -32 -21t-8 -42z" />
    <glyph glyph-name="uni1EE2" unicode="&#x1ee2;" horiz-adv-x="740" 
d="M370 -14q-99 0 -173.5 37t-116 114t-41.5 196q0 172 87.5 260t243.5 88q99 0 173.5 -37t116 -113.5t41.5 -196.5q0 -172 -87 -260t-244 -88zM370 132q45 0 77 19t49.5 63.5t17.5 120.5q0 75 -17.5 119t-49.5 62.5t-77 18.5t-77 -19.5t-49.5 -63.5t-17.5 -120
q0 -75 17.5 -118.5t49.5 -62.5t77 -19zM467 578l-3 89q33 0 53.5 10.5t20.5 32.5v40h99v-62q0 -39 -22.5 -62.5t-60 -34.5t-87.5 -13zM314 -154v104h114v-104h-114z" />
    <glyph glyph-name="uni1EE3" unicode="&#x1ee3;" horiz-adv-x="594" 
d="M296 -15q-131 0 -196.5 68t-65.5 203q0 147 66 208.5t196 61.5q86 0 145 -27.5t89.5 -87t30.5 -155.5q0 -134 -68.5 -202.5t-196.5 -68.5zM296 116q32 0 54.5 15t34.5 46.5t12 78.5q0 56 -12 86.5t-34.5 42.5t-54.5 12q-33 0 -55 -12.5t-32.5 -43t-10.5 -85.5
q0 -73 24 -106.5t74 -33.5zM412 417l-3 89q33 0 53.5 10.5t20.5 32.5v40h99v-62q0 -39 -22.5 -62.5t-60 -34.5t-87.5 -13zM241 -154v104h114v-104h-114z" />
    <glyph glyph-name="uni1EE4" unicode="&#x1ee4;" horiz-adv-x="733" 
d="M384 -23q-159 0 -237.5 64t-78.5 203v423h189v-413q0 -71 27.5 -105t90.5 -34q56 0 87 34t31 105v413h172v-423q0 -93 -36 -152t-99.5 -87t-145.5 -28zM309 -154v104h114v-104h-114z" />
    <glyph glyph-name="uni1EE5" unicode="&#x1ee5;" horiz-adv-x="615" 
d="M312 -7q-106 0 -167 54.5t-61 175.5v276h157v-302q0 -42 17 -63.5t54 -21.5q38 0 55 21.5t17 63.5v302h157v-276q0 -121 -61.5 -175.5t-167.5 -54.5zM255 -154v104h114v-104h-114z" />
    <glyph glyph-name="uni1EE6" unicode="&#x1ee6;" horiz-adv-x="733" 
d="M384 -23q-159 0 -237.5 64t-78.5 203v423h189v-413q0 -71 27.5 -105t90.5 -34q56 0 87 34t31 105v413h172v-423q0 -93 -36 -152t-99.5 -87t-145.5 -28zM313 713v58q17 0 27 7.5t10 16.5q0 13 -11.5 18.5t-30.5 5.5q-6 0 -13.5 -1t-16.5 -3v62q7 2 24 3t40 1q33 0 59 -8
t42 -25.5t16 -46.5t-16 -46.5t-42 -18.5v-23h-88z" />
    <glyph glyph-name="uni1EE7" unicode="&#x1ee7;" horiz-adv-x="615" 
d="M312 -7q-106 0 -167 54.5t-61 175.5v276h157v-302q0 -42 17 -63.5t54 -21.5q38 0 55 21.5t17 63.5v302h157v-276q0 -121 -61.5 -175.5t-167.5 -54.5zM286 557v58q10 0 19 4t9 13q0 13 -10 17.5t-23 4.5q-6 0 -13.5 -1t-16.5 -3v52q7 2 22 3.5t25 1.5q25 0 46 -8
t33.5 -23.5t12.5 -40.5q0 -22 -11 -33.5t-23.5 -16t-14.5 -5.5v-23h-55z" />
    <glyph glyph-name="uni1EE8" unicode="&#x1ee8;" horiz-adv-x="733" 
d="M384 -23q-159 0 -237.5 64t-78.5 203v423h189v-413q0 -71 27.5 -105t90.5 -34q56 0 87 34t31 105v413h172v-423q0 -93 -36 -152t-99.5 -87t-145.5 -28zM603 577l-3 89q33 0 53.5 10.5t20.5 32.5v40h99v-62q0 -39 -22.5 -62.5t-60 -34.5t-87.5 -13zM323 725l32 112h174
l-126 -112h-80z" />
    <glyph glyph-name="uni1EE9" unicode="&#x1ee9;" horiz-adv-x="669" 
d="M308 -15q-72 0 -127 21.5t-86.5 68t-31.5 120.5v312h165v-300q0 -42 19.5 -63t61.5 -21t61 21t19 63v300h154v-312q0 -110 -63.5 -160t-171.5 -50zM484 416l-3 89q33 0 53.5 10.5t20.5 32.5v40h99v-62q0 -39 -22.5 -62.5t-60 -34.5t-87.5 -13zM261 566l44 125h161
l-117 -125h-88z" />
    <glyph glyph-name="uni1EEA" unicode="&#x1eea;" horiz-adv-x="733" 
d="M384 -23q-159 0 -237.5 64t-78.5 203v423h189v-413q0 -71 27.5 -105t90.5 -34q56 0 87 34t31 105v413h172v-423q0 -93 -36 -152t-99.5 -87t-145.5 -28zM603 577l-3 89q33 0 53.5 10.5t20.5 32.5v40h99v-62q0 -39 -22.5 -62.5t-60 -34.5t-87.5 -13zM327 724l-99 111h144
l44 -111h-89z" />
    <glyph glyph-name="uni1EEB" unicode="&#x1eeb;" horiz-adv-x="669" 
d="M308 -15q-72 0 -127 21.5t-86.5 68t-31.5 120.5v312h165v-300q0 -42 19.5 -63t61.5 -21t61 21t19 63v300h154v-312q0 -110 -63.5 -160t-171.5 -50zM484 416l-3 89q33 0 53.5 10.5t20.5 32.5v40h99v-62q0 -39 -22.5 -62.5t-60 -34.5t-87.5 -13zM270 566l-117 125h162
l44 -125h-89z" />
    <glyph glyph-name="uni1EEC" unicode="&#x1eec;" horiz-adv-x="733" 
d="M384 -23q-159 0 -237.5 64t-78.5 203v423h189v-413q0 -71 27.5 -105t90.5 -34q56 0 87 34t31 105v413h172v-423q0 -93 -36 -152t-99.5 -87t-145.5 -28zM603 577l-3 89q33 0 53.5 10.5t20.5 32.5v40h99v-62q0 -39 -22.5 -62.5t-60 -34.5t-87.5 -13zM313 713v58
q17 0 27 7.5t10 16.5q0 13 -11.5 18.5t-30.5 5.5q-6 0 -13.5 -1t-16.5 -3v62q7 2 24 3t40 1q33 0 59 -8t42 -25.5t16 -46.5t-16 -46.5t-42 -18.5v-23h-88z" />
    <glyph glyph-name="uni1EED" unicode="&#x1eed;" horiz-adv-x="669" 
d="M308 -15q-72 0 -127 21.5t-86.5 68t-31.5 120.5v312h165v-300q0 -42 19.5 -63t61.5 -21t61 21t19 63v300h154v-312q0 -110 -63.5 -160t-171.5 -50zM484 416l-3 89q33 0 53.5 10.5t20.5 32.5v40h99v-62q0 -39 -22.5 -62.5t-60 -34.5t-87.5 -13zM277 555v58q17 0 27 7.5
t10 16.5q0 13 -11.5 18.5t-30.5 5.5q-6 0 -13.5 -1t-16.5 -3v62q7 2 24 3t40 1q33 0 59 -8t42 -25.5t16 -46.5t-16 -46.5t-42 -18.5v-23h-88z" />
    <glyph glyph-name="uni1EEE" unicode="&#x1eee;" horiz-adv-x="733" 
d="M384 -23q-159 0 -237.5 64t-78.5 203v423h189v-413q0 -71 27.5 -105t90.5 -34q56 0 87 34t31 105v413h172v-423q0 -93 -36 -152t-99.5 -87t-145.5 -28zM603 577l-3 89q33 0 53.5 10.5t20.5 32.5v40h99v-62q0 -39 -22.5 -62.5t-60 -34.5t-87.5 -13zM255 726h-74
q-2 39 13 72.5t43 54t65 20.5q26 0 47 -10t38.5 -22.5t34.5 -22.5t35 -10t27 14.5t9 46.5h76q1 -46 -15.5 -78.5t-43.5 -49.5t-59 -17q-34 0 -57 10t-39.5 22.5t-30 22.5t-29.5 10q-23 0 -32 -21t-8 -42z" />
    <glyph glyph-name="uni1EEF" unicode="&#x1eef;" horiz-adv-x="669" 
d="M308 -15q-72 0 -127 21.5t-86.5 68t-31.5 120.5v312h165v-300q0 -42 19.5 -63t61.5 -21t61 21t19 63v300h154v-312q0 -110 -63.5 -160t-171.5 -50zM484 416l-3 89q33 0 53.5 10.5t20.5 32.5v40h99v-62q0 -39 -22.5 -62.5t-60 -34.5t-87.5 -13zM200 562h-74q-2 39 13 72.5
t43 54t65 20.5q26 0 47 -10t38.5 -22.5t34.5 -22.5t35 -10t27 14.5t9 46.5h76q1 -46 -15.5 -78.5t-43.5 -49.5t-59 -17q-34 0 -57 10t-39.5 22.5t-30 22.5t-29.5 10q-23 0 -32 -21t-8 -42z" />
    <glyph glyph-name="uni1EF0" unicode="&#x1ef0;" horiz-adv-x="733" 
d="M384 -23q-159 0 -237.5 64t-78.5 203v423h189v-413q0 -71 27.5 -105t90.5 -34q56 0 87 34t31 105v413h172v-423q0 -93 -36 -152t-99.5 -87t-145.5 -28zM603 577l-3 89q33 0 53.5 10.5t20.5 32.5v40h99v-62q0 -39 -22.5 -62.5t-60 -34.5t-87.5 -13zM309 -154v104h114v-104
h-114z" />
    <glyph glyph-name="uni1EF1" unicode="&#x1ef1;" horiz-adv-x="669" 
d="M308 -15q-72 0 -127 21.5t-86.5 68t-31.5 120.5v312h165v-300q0 -42 19.5 -63t61.5 -21t61 21t19 63v300h154v-312q0 -110 -63.5 -160t-171.5 -50zM484 416l-3 89q33 0 53.5 10.5t20.5 32.5v40h99v-62q0 -39 -22.5 -62.5t-60 -34.5t-87.5 -13zM246 -154v104h114v-104
h-114z" />
    <glyph glyph-name="Ygrave" unicode="&#x1ef2;" horiz-adv-x="712" 
d="M277 0v285l-254 382h223l186 -320l-86 -1l165 321h177l-256 -427l26 93v-333h-181zM345 715l-99 111h144l44 -111h-89z" />
    <glyph glyph-name="ygrave" unicode="&#x1ef3;" horiz-adv-x="605" 
d="M185 -196q-27 0 -53.5 5t-46.5 14v133q19 -6 33.5 -9t29.5 -3q23 0 41 10.5t30 36.5t17 75l4 -96l-218 537h189l105 -340h-15l103 340h178l-195 -506q-28 -72 -60 -115.5t-68 -62.5t-74 -19zM261 549l-117 125h162l44 -125h-89z" />
    <glyph glyph-name="uni1EF4" unicode="&#x1ef4;" horiz-adv-x="712" 
d="M277 0v285l-254 382h223l186 -320l-86 -1l165 321h177l-256 -427l26 93v-333h-181zM299 -154v104h114v-104h-114z" />
    <glyph glyph-name="uni1EF5" unicode="&#x1ef5;" horiz-adv-x="605" 
d="M185 -196q-27 0 -53.5 5t-46.5 14v133q19 -6 33.5 -9t29.5 -3q23 0 41 10.5t30 36.5t17 75l4 -96l-218 537h189l105 -340h-15l103 340h178l-195 -506q-28 -72 -60 -115.5t-68 -62.5t-74 -19zM423 -154v104h114v-104h-114z" />
    <glyph glyph-name="uni1EF6" unicode="&#x1ef6;" horiz-adv-x="712" 
d="M277 0v285l-254 382h223l186 -320l-86 -1l165 321h177l-256 -427l26 93v-333h-181zM332 704v58q17 0 27 7.5t10 16.5q0 13 -11.5 18.5t-30.5 5.5q-6 0 -13.5 -1t-16.5 -3v62q7 2 24 3t40 1q33 0 59 -8t42 -25.5t16 -46.5t-16 -46.5t-42 -18.5v-23h-88z" />
    <glyph glyph-name="uni1EF7" unicode="&#x1ef7;" horiz-adv-x="605" 
d="M185 -196q-27 0 -53.5 5t-46.5 14v133q19 -6 33.5 -9t29.5 -3q23 0 41 10.5t30 36.5t17 75l4 -96l-218 537h189l105 -340h-15l103 340h178l-195 -506q-28 -72 -60 -115.5t-68 -62.5t-74 -19zM268 538v58q17 0 27 7.5t10 16.5q0 13 -11.5 18.5t-30.5 5.5q-6 0 -13.5 -1
t-16.5 -3v62q7 2 24 3t40 1q33 0 59 -8t42 -25.5t16 -46.5t-16 -46.5t-42 -18.5v-23h-88z" />
    <glyph glyph-name="uni1EF8" unicode="&#x1ef8;" horiz-adv-x="712" 
d="M277 0v285l-254 382h223l186 -320l-86 -1l165 321h177l-256 -427l26 93v-333h-181zM274 718h-74q-2 39 13 72.5t43 54t65 20.5q26 0 47 -10t38.5 -22.5t34.5 -22.5t35 -10t27 14.5t9 46.5h76q1 -46 -15.5 -78.5t-43.5 -49.5t-59 -17q-34 0 -57 10t-39.5 22.5t-30 22.5
t-29.5 10q-23 0 -32 -21t-8 -42z" />
    <glyph glyph-name="uni1EF9" unicode="&#x1ef9;" horiz-adv-x="605" 
d="M185 -196q-27 0 -53.5 5t-46.5 14v133q19 -6 33.5 -9t29.5 -3q23 0 41 10.5t30 36.5t17 75l4 -96l-218 537h189l105 -340h-15l103 340h178l-195 -506q-28 -72 -60 -115.5t-68 -62.5t-74 -19zM191 545h-74q-2 39 13 72.5t43 54t65 20.5q26 0 47 -10t38.5 -22.5t34.5 -22.5
t35 -10t27 14.5t9 46.5h76q1 -46 -15.5 -78.5t-43.5 -49.5t-59 -17q-34 0 -57 10t-39.5 22.5t-30 22.5t-29.5 10q-23 0 -32 -21t-8 -42z" />
    <glyph glyph-name="endash" unicode="&#x2013;" horiz-adv-x="560" 
d="M69 236v109h420v-109h-420z" />
    <glyph glyph-name="emdash" unicode="&#x2014;" horiz-adv-x="891" 
d="M79 236v109h733v-109h-733z" />
    <glyph glyph-name="quoteleft" unicode="&#x2018;" horiz-adv-x="294" 
d="M141 480l-94 196h130l74 -196h-110z" />
    <glyph glyph-name="quoteright" unicode="&#x2019;" horiz-adv-x="294" 
d="M47 480l74 196h130l-94 -196h-110z" />
    <glyph glyph-name="quotesinglbase" unicode="&#x201a;" horiz-adv-x="335" 
d="M72 -112l74 196h130l-94 -196h-110z" />
    <glyph glyph-name="quotedblleft" unicode="&#x201c;" horiz-adv-x="466" 
d="M310 480l-94 196h131l74 -196h-111zM142 480l-94 196h130l74 -196h-110z" />
    <glyph glyph-name="quotedblright" unicode="&#x201d;" horiz-adv-x="465" 
d="M216 480l74 196h131l-95 -196h-110zM48 480l74 196h130l-94 -196h-110z" />
    <glyph glyph-name="quotedblbase" unicode="&#x201e;" horiz-adv-x="504" 
d="M240 -112l74 196h131l-94 -196h-111zM72 -112l74 196h130l-94 -196h-110z" />
    <glyph glyph-name="dagger" unicode="&#x2020;" horiz-adv-x="472" 
d="M195 94v362h-111v83h111v123h83v-123h112v-83h-112v-362h-83z" />
    <glyph glyph-name="daggerdbl" unicode="&#x2021;" horiz-adv-x="502" 
d="M197 0v128h-129v104h129v165h-129v104h129v129h104v-129h129v-104h-129v-165h129v-104h-129v-128h-104z" />
    <glyph glyph-name="bullet" unicode="&#x2022;" horiz-adv-x="513" 
d="M257 155q-47 0 -86.5 23t-62.5 62t-23 86q0 48 23 87t62.5 61.5t86.5 22.5t86 -22.5t61.5 -61.5t22.5 -86q0 -48 -22.5 -87t-61 -62t-86.5 -23z" />
    <glyph glyph-name="ellipsis" unicode="&#x2026;" horiz-adv-x="883" 
d="M107 0v129h134v-129h-134zM376 0v129h134v-129h-134zM645 0v129h135v-129h-135z" />
    <glyph glyph-name="perthousand" unicode="&#x2030;" horiz-adv-x="1217" 
d="M190 311q-90 0 -130 46.5t-40 137.5q0 92 40 138t130 46q91 0 130.5 -46t39.5 -138q0 -91 -39.5 -137.5t-130.5 -46.5zM190 404q13 0 25 7t20.5 27t8.5 57q0 39 -8.5 58.5t-20.5 27t-25 7.5q-12 0 -24.5 -7.5t-21 -27t-8.5 -58.5q0 -37 8.5 -57t21 -27t24.5 -7zM645 -13
q-90 0 -130 46.5t-40 137.5q0 92 40 138t130 46q91 0 130.5 -46t39.5 -138q0 -91 -39.5 -137.5t-130.5 -46.5zM645 80q13 0 25 7t20.5 27t8.5 57q0 39 -8.5 58.5t-20.5 27t-25 7.5q-12 0 -24.5 -7.5t-21 -27t-8.5 -58.5q0 -37 8.5 -57t21 -27t24.5 -7zM1027 -13
q-90 0 -130 46.5t-40 137.5q0 92 40 138t130 46q91 0 130.5 -46t39.5 -138q0 -91 -39.5 -137.5t-130.5 -46.5zM1027 80q13 0 25 7t20.5 27t8.5 57q0 39 -8.5 58.5t-20.5 27t-25 7.5q-12 0 -24.5 -7.5t-21 -27t-8.5 -58.5q0 -37 8.5 -57t21 -27t24.5 -7zM155 -22l407 707h116
l-407 -707h-116z" />
    <glyph glyph-name="guilsinglleft" unicode="&#x2039;" horiz-adv-x="392" 
d="M200 64l-169 191l169 190h155l-182 -190l182 -191h-155z" />
    <glyph glyph-name="guilsinglright" unicode="&#x203a;" horiz-adv-x="407" 
d="M43 64l181 191l-181 190h155l169 -190l-169 -191h-155z" />
    <glyph glyph-name="fraction" unicode="&#x2044;" horiz-adv-x="399" 
d="M-62 -22l407 707h116l-407 -707h-116z" />
    <glyph glyph-name="zero.superior" unicode="&#x2070;" horiz-adv-x="380" 
d="M190 458q-90 0 -130 46.5t-40 137.5q0 92 40 138t130 46q91 0 130.5 -46t39.5 -138q0 -91 -39.5 -137.5t-130.5 -46.5zM190 551q13 0 25 7t20.5 27t8.5 57q0 39 -8.5 58.5t-20.5 27t-25 7.5q-12 0 -24.5 -7.5t-21 -27t-8.5 -58.5q0 -37 8.5 -57t21 -27t24.5 -7z" />
    <glyph glyph-name="four.superior" unicode="&#x2074;" horiz-adv-x="341" 
d="M179 463v82h-154v78l159 199h99v-193h44v-84h-44v-82h-104zM117 629h62v105l22 2z" />
    <glyph glyph-name="five.superior" unicode="&#x2075;" horiz-adv-x="325" 
d="M170 458q-34 0 -63 6.5t-52 16.5v89q20 -12 42 -19t43 -7q26 0 37.5 11t11.5 31q0 14 -6.5 23t-17.5 13.5t-23 4.5q-15 0 -27 -5.5t-21 -9.5l-47 37l20 173h216v-88h-140l-3 -40q7 2 17 2.5t32 0.5q27 0 54 -11t45 -36t18 -67q0 -46 -18 -73.5t-48.5 -39.5t-69.5 -12z
" />
    <glyph glyph-name="six.superior" unicode="&#x2076;" horiz-adv-x="346" 
d="M180 458q-91 0 -128.5 43t-37.5 127q0 67 19 107t49.5 59.5t65.5 25.5t67 6q19 0 38.5 -3t31.5 -9v-75q-22 8 -37 10t-26 2q-13 0 -28 -4t-29 -13.5t-23 -26t-10 -40.5q9 11 27.5 21t60.5 10q39 0 70.5 -27t31.5 -83q0 -38 -15.5 -67.5t-47 -46t-79.5 -16.5zM170 526
q15 0 24.5 16.5t9.5 36.5q0 30 -9.5 41.5t-21.5 11.5q-13 0 -24 -10.5t-17 -22.5q1 -22 5.5 -38t13 -25.5t19.5 -9.5z" />
    <glyph glyph-name="seven.superior" unicode="&#x2077;" horiz-adv-x="321" 
d="M55 462l142 320l49 -65h-210v104h268v-55l-123 -304h-126z" />
    <glyph glyph-name="eight.superior" unicode="&#x2078;" horiz-adv-x="341" 
d="M170 458q-55 0 -90 13t-51.5 37.5t-16.5 59.5q0 23 10.5 41.5t27 30t32.5 15.5q-12 4 -25.5 13.5t-22.5 24.5t-9 35q0 32 15 53.5t47 33t83 11.5q52 0 83.5 -11.5t46 -33t14.5 -53.5q0 -20 -9 -35t-21.5 -24.5t-24.5 -13.5q16 -4 32.5 -15.5t27 -30t10.5 -41.5
q0 -35 -16.5 -59.5t-51.5 -37.5t-91 -13zM170 531q24 0 34 13.5t10 32.5q0 14 -11 27t-33 13t-33 -13t-11 -27q0 -19 11 -32.5t33 -13.5zM170 680q16 0 26.5 8.5t10.5 27.5q0 16 -8.5 26.5t-28.5 10.5q-18 0 -27 -10.5t-9 -26.5q0 -19 11 -27.5t25 -8.5z" />
    <glyph glyph-name="nine.superior" unicode="&#x2079;" horiz-adv-x="347" 
d="M122 458q-19 0 -38.5 3t-31.5 9v74q22 -6 37 -8.5t25 -2.5q13 0 28.5 4t29.5 13.5t23 25.5t10 41q-9 -11 -27.5 -21t-60.5 -10q-40 0 -71 27t-31 83q0 39 15.5 68t47 45.5t79.5 16.5q91 0 128.5 -43t37.5 -127q0 -67 -19 -107t-49.5 -59.5t-65.5 -25.5t-67 -6zM162 652
q15 0 26.5 10.5t15.5 22.5q0 22 -4.5 38t-13 25.5t-21.5 9.5q-10 0 -17 -8.5t-11 -20.5t-4 -24q0 -30 9.5 -41.5t19.5 -11.5z" />
    <glyph glyph-name="zero.inferior" unicode="&#x2080;" horiz-adv-x="380" 
d="M190 -155q-90 0 -130 46.5t-40 137.5q0 92 40 138t130 46q91 0 130.5 -46t39.5 -138q0 -91 -39.5 -137.5t-130.5 -46.5zM190 -62q13 0 25 7t20.5 27t8.5 57q0 39 -8.5 58.5t-20.5 27t-25 7.5q-12 0 -24.5 -7.5t-21 -27t-8.5 -58.5q0 -37 8.5 -57t21 -27t24.5 -7z" />
    <glyph glyph-name="one.inferior" unicode="&#x2081;" horiz-adv-x="248" 
d="M78 -150v277l16 -30l-72 -40v106l74 46h94v-359h-112z" />
    <glyph glyph-name="two.inferior" unicode="&#x2082;" horiz-adv-x="337" 
d="M45 -150v67q19 15 43.5 31.5t46.5 36t36 41t14 45.5q0 27 -16 39.5t-35 12.5q-30 0 -49.5 -10t-37.5 -23v89q22 14 50.5 24.5t59.5 10.5q55 0 87 -16.5t45 -42.5t13 -54q0 -32 -17.5 -62t-48 -54.5t-69.5 -40.5l-10 11h147v-105h-259z" />
    <glyph glyph-name="three.inferior" unicode="&#x2083;" horiz-adv-x="333" 
d="M149 -155q-29 0 -56 9t-51 20v85q25 -15 44 -24.5t42 -9.5q24 0 39.5 10.5t15.5 29.5q0 16 -12 28.5t-44 12.5h-39v65h40q19 0 29 9.5t10 23.5t-15 21t-33 7t-35.5 -5.5t-34.5 -13.5v75q21 11 45.5 18t50.5 7q30 0 62.5 -9.5t55 -31t22.5 -57.5q0 -19 -9 -34t-21.5 -24.5
t-23.5 -12.5q19 -6 35 -18.5t25.5 -31.5t9.5 -44q0 -30 -14.5 -50t-37 -32t-49 -17.5t-51.5 -5.5z" />
    <glyph glyph-name="four.inferior" unicode="&#x2084;" horiz-adv-x="341" 
d="M179 -150v82h-154v78l159 199h99v-193h44v-84h-44v-82h-104zM117 16h62v105l22 2z" />
    <glyph glyph-name="five.inferior" unicode="&#x2085;" horiz-adv-x="325" 
d="M170 -154q-34 0 -63 6.5t-52 16.5v89q20 -12 42 -19t43 -7q26 0 37.5 11t11.5 31q0 14 -6.5 23t-17.5 13.5t-23 4.5q-15 0 -27 -5.5t-21 -9.5l-47 37l20 173h216v-88h-140l-3 -40q7 2 17 2.5t32 0.5q27 0 54 -11t45 -36t18 -67q0 -46 -18 -73.5t-48.5 -39.5t-69.5 -12z
" />
    <glyph glyph-name="six.inferior" unicode="&#x2086;" horiz-adv-x="346" 
d="M180 -155q-91 0 -128.5 43t-37.5 127q0 67 19 107t49.5 59.5t65.5 25.5t67 6q19 0 38.5 -3t31.5 -9v-75q-22 8 -37 10t-26 2q-13 0 -28 -4t-29 -13.5t-23 -26t-10 -40.5q9 11 27.5 21t60.5 10q39 0 70.5 -27t31.5 -83q0 -38 -15.5 -67.5t-47 -46t-79.5 -16.5zM170 -87
q15 0 24.5 16.5t9.5 36.5q0 30 -9.5 41.5t-21.5 11.5q-13 0 -24 -10.5t-17 -22.5q1 -22 5.5 -38t13 -25.5t19.5 -9.5z" />
    <glyph glyph-name="seven.inferior" unicode="&#x2087;" horiz-adv-x="321" 
d="M55 -150l142 320l49 -65h-210v104h268v-55l-123 -304h-126z" />
    <glyph glyph-name="eight.inferior" unicode="&#x2088;" horiz-adv-x="341" 
d="M170 -155q-55 0 -90 13t-51.5 37.5t-16.5 59.5q0 23 10.5 41.5t27 30t32.5 15.5q-12 4 -25.5 13.5t-22.5 24.5t-9 35q0 32 15 53.5t47 33t83 11.5q52 0 83.5 -11.5t46 -33t14.5 -53.5q0 -20 -9 -35t-21.5 -24.5t-24.5 -13.5q16 -4 32.5 -15.5t27 -30t10.5 -41.5
q0 -35 -16.5 -59.5t-51.5 -37.5t-91 -13zM170 -82q24 0 34 13.5t10 32.5q0 14 -11 27t-33 13t-33 -13t-11 -27q0 -19 11 -32.5t33 -13.5zM170 67q16 0 26.5 8.5t10.5 27.5q0 16 -8.5 26.5t-28.5 10.5q-18 0 -27 -10.5t-9 -26.5q0 -19 11 -27.5t25 -8.5z" />
    <glyph glyph-name="nine.inferior" unicode="&#x2089;" horiz-adv-x="347" 
d="M122 -154q-19 0 -38.5 3t-31.5 9v74q22 -6 37 -8.5t25 -2.5q13 0 28.5 4t29.5 13.5t23 25.5t10 41q-9 -11 -27.5 -21t-60.5 -10q-40 0 -71 27t-31 83q0 39 15.5 68t47 45.5t79.5 16.5q91 0 128.5 -43t37.5 -127q0 -67 -19 -107t-49.5 -59.5t-65.5 -25.5t-67 -6zM162 40
q15 0 26.5 10.5t15.5 22.5q0 22 -4.5 38t-13 25.5t-21.5 9.5q-10 0 -17 -8.5t-11 -20.5t-4 -24q0 -30 9.5 -41.5t19.5 -11.5z" />
    <glyph glyph-name="colonmonetary" unicode="&#x20a1;" horiz-adv-x="695" 
d="M372 -14q-162 0 -247.5 84t-85.5 263q0 173 81.5 261.5t251.5 88.5q18 0 43.5 -4t51 -11.5t46.5 -17.5l-6 -43q-28 -15 -55 -30.5t-55 -31.5q-54 0 -92 -19.5t-58.5 -65.5t-20.5 -128q0 -79 21 -125t60.5 -64.5t97.5 -18.5q34 0 80.5 15t100.5 50v-156
q-27 -14 -63.5 -24.5t-76 -16.5t-74.5 -6zM44 -54l355 670h113l-354 -670h-114zM206 -53l370 709h114l-370 -709h-114z" />
    <glyph glyph-name="franc" unicode="&#x20a3;" horiz-adv-x="576" 
d="M68 0v667h463v-138h-282v-143h243v-139h-243v-247h-181zM4 82v100h312v-100h-312z" />
    <glyph glyph-name="lira" unicode="&#x20a4;" horiz-adv-x="600" 
d="M128 484q0 46 20.5 89.5t67 72.5t124.5 29q47 0 90 -15t76 -35v-147q-33 27 -64.5 41.5t-65.5 14.5q-27 0 -48.5 -8.5t-34 -25.5t-12.5 -41v-314q27 -9 52.5 -15.5t49.5 -7.5q30 0 59.5 10.5t63.5 32.5v-134q-28 -25 -57 -34.5t-59 -8.5q-38 0 -75.5 9t-75.5 18.5
t-76 9.5q-28 0 -57 -9t-57 -31v138q24 17 43 19.5t36 6.5v335zM49 193v105h378v-105h-378zM49 320v104h378v-104h-378z" />
    <glyph glyph-name="uni20A6" unicode="&#x20a6;" horiz-adv-x="725" 
d="M5 287v100h714v-100h-714zM68 0v667h150l328 -435l-55 -116v551h166v-667h-132l-330 424l38 82v-506h-165z" />
    <glyph glyph-name="peseta" unicode="&#x20a7;" horiz-adv-x="689" 
d="M8 389v99h175v-99h-175zM494 389v99h192v-99h-192zM249 211v-211h-181v667h313q118 0 186.5 -53t68.5 -167q0 -113 -68.5 -174.5t-186.5 -61.5h-132zM249 349h110q19 0 34.5 5.5t25.5 17t15.5 27.5t5.5 36q0 23 -5.5 40t-15.5 29.5t-25.5 18.5t-34.5 6h-110v-180z" />
    <glyph glyph-name="uni20A9" unicode="&#x20a9;" horiz-adv-x="992" 
d="M26 310v99h933v-99h-933zM206 0l-181 667h198l101 -500h-27l143 500h137l144 -506h-29l101 506h199l-181 -667h-179l-138 457h31l-141 -457h-178z" />
    <glyph glyph-name="dong" unicode="&#x20ab;" horiz-adv-x="442" 
d="M198 134q-36 0 -69.5 7t-59 25.5t-40.5 49.5t-15 80q0 48 11 84.5t32 60t50.5 35t66.5 11.5q25 0 49.5 -3.5t33.5 -7.5v50h-71v91h71v49h124v-49h53v-91h-53v-244q0 -47 -19 -80.5t-59 -50.5t-105 -17zM22 0v91h369v-91h-369zM199 231q35 0 46.5 9.5t11.5 20.5v123
q-7 3 -18 6t-26 3q-38 0 -56.5 -19.5t-18.5 -62.5q0 -16 4 -31t12 -25.5t19.5 -17t25.5 -6.5z" />
    <glyph glyph-name="Euro" unicode="&#x20ac;" horiz-adv-x="710" 
d="M438 -7q-46 0 -92 10t-86.5 33.5t-71.5 64t-47 102.5h-93v88h79q-1 11 -1 21.5v21.5v22t1 21h-79v88h93q16 62 47 102.5t71.5 64t86.5 33.5t92 10q53 0 107 -12.5t106 -33.5v-137q-54 25 -102.5 36t-100.5 11q-46 0 -81.5 -16.5t-56.5 -57.5h213v-88h-238
q-1 -10 -1.5 -21t-0.5 -22t0.5 -21.5t1.5 -21.5h238v-88h-213q21 -41 56.5 -57.5t81.5 -16.5q52 0 100.5 11t102.5 35v-137q-52 -20 -106 -32.5t-107 -12.5z" />
    <glyph glyph-name="uni20AD" unicode="&#x20ad;" horiz-adv-x="694" 
d="M20 323v100h557v-100h-557zM242 198l-66 105l254 364h228zM68 0v667h182v-667h-182zM394 421l283 -421h-225l-198 306z" />
    <glyph glyph-name="uni20B1" unicode="&#x20b1;" horiz-adv-x="675" 
d="M8 440v100h175v-100h-175zM494 440v100h192v-100h-192zM8 302v100h175v-100h-175zM494 302v100h192v-100h-192zM249 211v-211h-181v667h313q118 0 186.5 -53t68.5 -167q0 -113 -68.5 -174.5t-186.5 -61.5h-132zM249 349h110q19 0 34.5 5.5t25.5 17t15.5 27.5t5.5 36
q0 23 -5.5 40t-15.5 29.5t-25.5 18.5t-34.5 6h-110v-180z" />
    <glyph glyph-name="uni20B2" unicode="&#x20b2;" horiz-adv-x="710" 
d="M314 615v139h123v-139h-123zM314 -100v141h123v-141h-123zM368 -14q-98 0 -172 34t-115.5 110.5t-41.5 202.5q0 123 41.5 200.5t115.5 113.5t171 36q65 0 126.5 -13t118.5 -36v-163q-63 34 -114.5 53.5t-106.5 19.5q-52 0 -89.5 -18.5t-57.5 -64t-20 -127.5
q0 -80 21 -126.5t56.5 -65.5t79.5 -19q25 0 45.5 3.5t34.5 10.5v103h-100v138h281v-316q-64 -37 -133.5 -56.5t-140.5 -19.5z" />
    </font>
</defs>
</svg>
