<?xml version="1.0" standalone="no"?>
<!DOCTYPE svg PUBLIC "-//W3C//DTD SVG 1.1//EN" "http://www.w3.org/Graphics/SVG/1.1/DTD/svg11.dtd" >
<svg xmlns="http://www.w3.org/2000/svg" xmlns:xlink="http://www.w3.org/1999/xlink" version="1.1">
<metadata>
Created by FontForge 20170731 at Thu Apr 21 13:14:26 2022
 By Aleksey,,,
Copyright 2011 The Maven Pro Project Authors (http://www.vissol.co.uk/mavenpro/), with Reserved Font Name "Maven Pro".
</metadata>
<defs>
<font id="MavenPro-SemiBold" horiz-adv-x="0" >
  <font-face 
    font-family="Maven Pro SemiBold"
    font-weight="600"
    font-stretch="normal"
    units-per-em="1000"
    panose-1="0 0 0 0 0 0 0 0 0 0"
    ascent="800"
    descent="-200"
    x-height="504"
    cap-height="667"
    bbox="-65 -215 1266 1048"
    underline-thickness="50"
    underline-position="-175"
    unicode-range="U+000D-FB02"
  />
<missing-glyph horiz-adv-x="500" 
 />
    <glyph glyph-name="fi" unicode="fi" horiz-adv-x="651" 
d="M110 0v404h-77v100h78v16q0 51 11 86t29.5 57.5t42 34t49.5 16t52 4.5q16 0 33 -2.5t28 -6.5v-112q-9 8 -19 12.5t-27 4.5q-14 0 -27 -2.5t-23 -11t-16 -24.5t-6 -42v-30h118v-100h-119v-404h-127zM451 0v499h127l1 -499h-128zM448 579v105h133v-105h-133z" />
    <glyph glyph-name="fl" unicode="fl" horiz-adv-x="645" 
d="M110 0v404h-77v100h78v16q0 51 11 86t29.5 57.5t42 34t49.5 16t52 4.5q16 0 33 -2.5t28 -6.5v-112q-9 8 -19 12.5t-27 4.5q-14 0 -27 -2.5t-23 -11t-16 -24.5t-6 -42v-30h118v-100h-119v-404h-127zM575 0h-126v695h126v-695z" />
    <glyph glyph-name=".notdef" horiz-adv-x="500" 
 />
    <glyph glyph-name=".null" 
 />
    <glyph glyph-name="nonmarkingreturn" horiz-adv-x="333" 
 />
    <glyph glyph-name="NULL" 
 />
    <glyph glyph-name="NULL" 
 />
    <glyph glyph-name="CR" unicode="&#xd;" horiz-adv-x="280" 
 />
    <glyph glyph-name="space" unicode=" " horiz-adv-x="280" 
 />
    <glyph glyph-name="exclam" unicode="!" horiz-adv-x="402" 
d="M159 180l-15 487h123l-15 -487h-93zM147 0v104h117v-104h-117z" />
    <glyph glyph-name="quotedbl" unicode="&#x22;" horiz-adv-x="410" 
d="M242 475l-18 201h104l-18 -201h-68zM99 475l-18 201h104l-17 -201h-69z" />
    <glyph glyph-name="numbersign" unicode="#" horiz-adv-x="610" 
d="M131 19l19 105h-77v75h89l24 139h-86v75h99l19 110h78l-19 -110h119l20 110h78l-20 -110h67v-75h-79l-24 -139h75v-75h-88l-18 -105h-78l18 105h-120l-18 -105h-78zM240 199h120l24 139h-120z" />
    <glyph glyph-name="dollar" unicode="$" horiz-adv-x="571" 
d="M242 627v127h102v-127h-102zM242 -96v132h102v-132h-102zM289 -12q-50 0 -89.5 5t-72.5 16t-66 28v132q42 -34 99 -53.5t115 -19.5q54 0 81.5 21.5t27.5 61.5q0 31 -22.5 50t-59.5 33t-81 29q-31 11 -60.5 24.5t-53 34.5t-37.5 52.5t-14 77.5q0 37 14 73t43 65t75.5 46
t109.5 17q41 0 71.5 -5t58 -15t58.5 -25v-132q-24 17 -51 32.5t-57.5 25.5t-66.5 11t-62 -8t-40 -27t-14 -43q0 -31 17.5 -49.5t48.5 -30.5t70 -24t74 -27t61.5 -36.5t41.5 -53.5t15 -78q0 -56 -25.5 -103.5t-77.5 -76t-131 -28.5z" />
    <glyph glyph-name="percent" unicode="%" horiz-adv-x="805" 
d="M190 311q-82 0 -120 46.5t-38 137.5t38 137.5t120 46.5q83 0 120.5 -46.5t37.5 -137.5t-37.5 -137.5t-120.5 -46.5zM190 386q13 0 28 7.5t26 31.5t11 70q0 47 -11 70t-26 31t-28 8q-12 0 -27.5 -8t-26.5 -31t-11 -70q0 -46 11 -70t26.5 -31.5t27.5 -7.5zM615 -9
q-82 0 -120 46.5t-38 137.5t38 137.5t120 46.5q83 0 120.5 -46.5t37.5 -137.5t-37.5 -137.5t-120.5 -46.5zM615 66q13 0 28 7.5t26 31.5t11 70q0 47 -11 70t-26 31t-28 8q-12 0 -27.5 -8t-26.5 -31t-11 -70q0 -46 11 -70t26.5 -31.5t27.5 -7.5zM149 -22l407 707h96
l-407 -707h-96z" />
    <glyph glyph-name="ampersand" unicode="&#x26;" horiz-adv-x="672" 
d="M481 0l-309 373q-21 27 -42 63.5t-21 73.5q0 45 25.5 83t70.5 61.5t100 23.5q56 0 97.5 -20.5t65 -56.5t23.5 -81q0 -43 -19.5 -73.5t-54.5 -56t-82 -53.5l-50 72q36 20 54.5 36.5t25.5 32t7 30.5q0 28 -18.5 45t-47.5 17q-28 0 -47.5 -18.5t-19.5 -44.5q0 -12 9 -28.5
t21 -32.5t22 -28l347 -418h-157zM257 -11q-52 0 -92 16t-66.5 43t-40 60t-13.5 66q0 34 14 69.5t48 69.5t93 62l78 -66q-35 -20 -56.5 -42.5t-31 -43.5t-9.5 -38q0 -12 4 -27.5t14 -30.5t30 -24.5t51 -9.5q35 0 68 19.5t53 42.5l65 -78q-22 -24 -51 -44t-68 -32t-90 -12z
M453 203q13 18 21 38t12.5 36.5t6.5 22.5h97q-6 -35 -25 -80t-45 -86z" />
    <glyph glyph-name="quotesingle" unicode="'" horiz-adv-x="267" 
d="M99 475l-18 201h104l-17 -201h-69z" />
    <glyph glyph-name="parenleft" unicode="(" horiz-adv-x="352" 
d="M201 -113q-29 38 -61 100.5t-54 143.5t-22 175t22 175t54 143.5t61 99.5h111q-12 -22 -30.5 -62.5t-36.5 -95t-30 -120.5t-12 -140t12 -140t30 -121t36.5 -95t30.5 -63h-111z" />
    <glyph glyph-name="parenright" unicode=")" horiz-adv-x="352" 
d="M40 -113q12 23 30.5 63.5t36.5 94.5t30.5 120.5t12.5 140.5t-12.5 140t-30.5 120.5t-36.5 94.5t-30.5 63h111q31 -38 62.5 -100t53 -143t21.5 -175t-21.5 -175.5t-53 -143.5t-62.5 -100h-111z" />
    <glyph glyph-name="asterisk" unicode="*" horiz-adv-x="412" 
d="M174 460l8 77l-65 -47l-33 58l82 33l-82 34l33 57l65 -47l-8 78h66l-7 -78l64 47l33 -57l-81 -34l81 -33l-33 -58l-64 47l7 -77h-66z" />
    <glyph glyph-name="plus" unicode="+" horiz-adv-x="551" 
d="M232 120v136h-137v86h137v137h86v-137h136v-86h-136v-136h-86z" />
    <glyph glyph-name="comma" unicode="," horiz-adv-x="340" 
d="M74 -112l74 196h111l-90 -196h-95z" />
    <glyph glyph-name="hyphen" unicode="-" horiz-adv-x="464" 
d="M79 257v94h305v-94h-305z" />
    <glyph glyph-name="period" unicode="." horiz-adv-x="262" 
d="M65 0v129h132v-129h-132z" />
    <glyph glyph-name="slash" unicode="/" horiz-adv-x="434" 
d="M-14 -98l367 854h96l-368 -854h-95z" />
    <glyph glyph-name="zero" unicode="0" horiz-adv-x="661" 
d="M330 -12q-144 0 -213 86t-69 259q0 172 69 258.5t213 86.5q146 0 214.5 -86.5t68.5 -258.5q0 -173 -68.5 -259t-214.5 -86zM330 100q26 0 52 8t47 32t33.5 70t12.5 123q0 76 -12.5 122t-33.5 69.5t-47 32t-52 8.5q-25 0 -51 -8.5t-47 -32t-33.5 -69.5t-12.5 -122
q0 -77 12.5 -123t33.5 -70t47 -32t51 -8z" />
    <glyph glyph-name="one" unicode="1" horiz-adv-x="465" 
d="M202 0v534l-130 -77v127l141 83h125v-667h-136z" />
    <glyph glyph-name="two" unicode="2" horiz-adv-x="601" 
d="M72 0v100q34 21 75.5 53t82 70.5t74 79.5t54 82t20.5 78q0 33 -14 56.5t-42.5 36.5t-70.5 13q-52 0 -94 -21t-79 -49v121q38 23 89 41t120 18q77 0 127.5 -25.5t75 -70.5t24.5 -104q0 -47 -19.5 -91t-52.5 -85t-72.5 -77.5t-79.5 -67.5t-74 -57l-28 25h338v-126h-454z
" />
    <glyph glyph-name="three" unicode="3" horiz-adv-x="592" 
d="M265 -8q-54 0 -102 14.5t-88 34.5v120q40 -24 85 -42.5t97 -18.5q67 0 104 24.5t37 70.5t-34 73t-110 27h-91v106h93q56 0 83 22.5t27 58.5q0 30 -15.5 48.5t-43.5 27t-64 8.5q-38 0 -74 -9t-80 -30v109q35 17 77.5 28.5t89.5 11.5q51 0 93.5 -12t73.5 -35t48.5 -57
t17.5 -77q0 -31 -11 -55t-27 -41t-32 -26t-25 -11q14 -4 35 -17t42 -34.5t34.5 -52t13.5 -69.5q0 -48 -18.5 -84.5t-53 -61.5t-80.5 -38t-102 -13z" />
    <glyph glyph-name="four" unicode="4" horiz-adv-x="605" 
d="M336 0v185h-297v105l303 377h131v-375h88v-107h-88v-185h-137zM160 292h176v217z" />
    <glyph glyph-name="five" unicode="5" horiz-adv-x="589" 
d="M285 -11q-66 0 -117 15.5t-80 34.5v129q16 -14 42.5 -29t62 -25t76.5 -10q37 0 62.5 8.5t41.5 23.5t23.5 34.5t7.5 41.5q0 44 -17 67.5t-44.5 32.5t-59.5 9q-37 0 -65.5 -6t-46.5 -13.5t-24 -10.5l-64 70l40 307h368v-121h-277l-24 -193l-97 21q40 34 96.5 49.5
t125.5 15.5q43 0 83.5 -11.5t73 -36.5t51.5 -67t19 -104q0 -69 -22 -114t-59 -70.5t-83 -36.5t-93 -11z" />
    <glyph glyph-name="six" unicode="6" horiz-adv-x="613" 
d="M302 -11q-129 0 -190.5 81.5t-61.5 236.5q0 100 23 167.5t60 108t80 61.5t85.5 28t74.5 7q43 0 76.5 -6.5t54.5 -14.5v-116q-27 11 -55.5 18t-64.5 7q-29 0 -57.5 -8t-53.5 -24.5t-44.5 -44t-30.5 -66t-11 -89.5q0 -74 9 -120t26 -70t39.5 -33t49.5 -9q35 0 57.5 11.5
t35 29t17.5 37.5t5 36q0 56 -29.5 85t-82.5 29q-38 0 -65 -12t-43.5 -32t-24.5 -46l-26 72q6 16 20 36.5t36 40t52.5 32t70.5 12.5q113 0 171.5 -56.5t58.5 -162.5q0 -46 -16 -86.5t-48 -72t-81 -49.5t-117 -18z" />
    <glyph glyph-name="seven" unicode="7" horiz-adv-x="587" 
d="M140 0l264 574l20 -33h-356v126h473v-86l-252 -581h-149z" />
    <glyph glyph-name="eight" unicode="8" horiz-adv-x="617" 
d="M309 -11q-68 0 -117 16t-81 43.5t-47.5 64t-15.5 78.5q0 38 13 65.5t32 46.5t38 30.5t31 16.5q-9 4 -24.5 14.5t-31.5 27.5t-26.5 42t-10.5 59q0 56 25 98t78.5 65t136.5 23q84 0 137 -23t78.5 -65t25.5 -98q0 -34 -10.5 -59t-26 -42t-30.5 -27t-25 -15q12 -5 31 -16.5
t37.5 -30.5t31 -46.5t12.5 -65.5q0 -42 -15 -78.5t-47 -64t-81.5 -43.5t-117.5 -16zM309 99q38 0 61.5 11.5t35.5 29.5t17 37t5 33q0 27 -13.5 49t-40 35t-65.5 13q-38 0 -64.5 -13t-40 -35t-13.5 -49q0 -14 4.5 -33t17 -37t36 -29.5t60.5 -11.5zM309 391q27 0 50 10.5
t37 30.5t14 49q0 30 -14.5 49t-37 28.5t-49.5 9.5q-26 0 -49 -9.5t-37.5 -28.5t-14.5 -49q0 -29 14 -49t37.5 -30.5t49.5 -10.5z" />
    <glyph glyph-name="nine" unicode="9" horiz-adv-x="617" 
d="M241 -11q-43 0 -76.5 6.5t-54.5 15.5v116q27 -11 55.5 -18t64.5 -7q29 0 57.5 7.5t53.5 24.5t44.5 44t30.5 66t11 90q0 74 -9 120t-26 70t-40 32.5t-51 8.5q-34 0 -56.5 -11.5t-34.5 -29t-17 -37t-5 -36.5q0 -55 30 -84t83 -29q37 0 64 11.5t44 32t24 45.5l26 -71
q-6 -16 -20 -37t-36 -40t-52.5 -32t-70.5 -13q-113 1 -171.5 57t-58.5 163q0 46 15.5 86.5t47 72t78.5 49t110 17.5q137 0 200 -81t63 -237q0 -100 -23 -167t-60 -108t-80 -61.5t-85 -28t-75 -7.5z" />
    <glyph glyph-name="colon" unicode=":" horiz-adv-x="408" 
d="M148 348v109h112v-109h-112zM148 42v109h112v-109h-112z" />
    <glyph glyph-name="semicolon" unicode=";" horiz-adv-x="302" 
d="M38 -112l69 206h125l-100 -206h-94zM105 328v129h132v-129h-132z" />
    <glyph glyph-name="less" unicode="&#x3c;" horiz-adv-x="664" 
d="M537 42l-417 187v79l417 187v-108l-287 -118l287 -120v-107z" />
    <glyph glyph-name="equal" unicode="=" horiz-adv-x="638" 
d="M125 341v93h389v-93h-389zM125 163v93h389v-93h-389z" />
    <glyph glyph-name="greater" unicode="&#x3e;" horiz-adv-x="655" 
d="M124 42v107l287 120l-287 118v108l416 -187v-79z" />
    <glyph glyph-name="question" unicode="?" horiz-adv-x="505" 
d="M185 180v31q0 55 15 90.5t37 58.5t44 41t37 37.5t15 47.5q0 35 -14 54.5t-39 28t-58 8.5q-42 0 -80 -14t-62 -33v103q9 6 31.5 16t54.5 18t70 8q41 0 77.5 -11.5t64.5 -35t44 -59t16 -83.5q0 -44 -15 -71.5t-37 -47.5t-44.5 -40.5t-37.5 -48t-15 -71.5v-27h-104zM178 0
v104h118v-104h-118z" />
    <glyph glyph-name="at" unicode="@" horiz-adv-x="913" 
d="M409 -149q-39 0 -83.5 11t-87.5 35.5t-78 63t-56.5 93.5t-21.5 128q0 93 38 170t100.5 133t138 86.5t150.5 30.5q39 0 84 -11t89 -35t80 -62t57.5 -92t21.5 -125q0 -49 -10.5 -94t-32 -80t-53 -55.5t-73.5 -20.5q-25 0 -43 9t-29.5 22t-17.5 26q-17 -24 -51.5 -40.5
t-88.5 -16.5q-73 0 -115 32.5t-42 89.5q0 21 8 46t31 48t67 37.5t115 14.5q17 0 32.5 -1t30.5 -3v9.5v8.5q-1 17 -7.5 31.5t-25 24t-55.5 9.5t-70.5 -5.5t-61.5 -16.5l11 73q27 8 59.5 15.5t65.5 7.5q79 0 120 -36.5t41 -106.5q0 -40 -7.5 -79.5t-8.5 -76.5q-1 -16 2 -32.5
t13.5 -27t33.5 -10.5q22 0 48 20.5t44.5 64.5t18.5 111q0 68 -25.5 119.5t-67.5 86t-91.5 52t-97.5 17.5q-72 0 -138.5 -28.5t-119.5 -79.5t-84 -118t-31 -144q0 -72 22.5 -121.5t57.5 -81t73.5 -48t72 -22.5t52.5 -6q65 0 118.5 12.5t100.5 37.5l-10 -59q-43 -20 -96 -30.5
t-117 -10.5zM442 104q39 0 61 9.5t33 26t15.5 38t7.5 46.5q-13 1 -26 1.5t-27 0.5q-144 0 -144 -76q0 -19 12 -29t30.5 -13.5t37.5 -3.5z" />
    <glyph glyph-name="A" unicode="A" horiz-adv-x="678" 
d="M15 0l256 667h147l245 -667h-141l-218 621l60 6l-217 -627h-132zM150 163l33 104h310l12 -104h-355z" />
    <glyph glyph-name="B" unicode="B" horiz-adv-x="659" 
d="M75 0v667h265q77 0 129 -20t79 -60.5t27 -102.5q0 -44 -19.5 -72t-46.5 -44.5t-51 -28.5l-16 29q47 -5 85 -25.5t61 -56.5t23 -88q0 -69 -32 -112.5t-88 -64.5t-126 -21h-290zM212 109h147q30 0 55.5 8t41.5 29t16 58q0 28 -10 45.5t-26.5 27t-37.5 13t-42 3.5h-144v-184
zM211 397h140q22 0 41.5 6.5t32 23t12.5 46.5q0 49 -26.5 67t-68.5 18h-131v-161z" />
    <glyph glyph-name="C" unicode="C" horiz-adv-x="628" 
d="M366 -11q-159 0 -241 84.5t-82 260.5q0 171 80 258.5t243 87.5q53 0 106 -13t103 -36v-120q-50 32 -98.5 46t-92.5 14q-66 0 -110.5 -23.5t-67 -75.5t-22.5 -139q0 -86 22.5 -137.5t68 -74.5t114.5 -23q41 0 88.5 13.5t97.5 44.5v-120q-29 -14 -64 -25t-72.5 -16.5
t-72.5 -5.5z" />
    <glyph glyph-name="D" unicode="D" horiz-adv-x="699" 
d="M75 0v667h251q166 0 245.5 -84t79.5 -249t-79.5 -249.5t-245.5 -84.5h-251zM211 109h100q101 0 151 54t50 171t-50 171t-151 54h-100v-450z" />
    <glyph glyph-name="E" unicode="E" horiz-adv-x="590" 
d="M75 0v667h447v-109h-310v-169h270v-110h-271v-170h311v-109h-447z" />
    <glyph glyph-name="F" unicode="F" horiz-adv-x="561" 
d="M75 0v667h441v-109h-305v-179h265v-110h-265v-269h-136z" />
    <glyph glyph-name="G" unicode="G" horiz-adv-x="701" 
d="M369 -12q-100 0 -172 36t-110.5 112.5t-38.5 197.5q0 119 38.5 196t110.5 113.5t171 36.5q61 0 119 -12t112 -35v-127q-57 29 -108 47t-106 18q-65 0 -109.5 -23t-67 -75t-22.5 -139q0 -86 23 -138t66.5 -75.5t104.5 -23.5q31 0 58.5 4.5t51.5 13.5v139h-125v110h261
v-310q-60 -32 -125 -49t-132 -17z" />
    <glyph glyph-name="H" unicode="H" horiz-adv-x="699" 
d="M75 0v667h136v-278h277v278h136v-667h-136v275h-277v-275h-136z" />
    <glyph glyph-name="I" unicode="I" horiz-adv-x="287" 
d="M75 0v667h137v-667h-137z" />
    <glyph glyph-name="J" unicode="J" horiz-adv-x="471" 
d="M188 -11q-43 0 -80.5 10t-69.5 26v127q31 -21 59.5 -36t59.5 -15q50 0 76.5 25.5t26.5 82.5v458h136v-465q0 -63 -18.5 -104.5t-48.5 -65.5t-67 -33.5t-74 -9.5z" />
    <glyph glyph-name="K" unicode="K" horiz-adv-x="661" 
d="M204 204l-39 101l283 362h172zM75 0v667h137v-667h-137zM340 403l301 -403h-174l-232 315z" />
    <glyph glyph-name="L" unicode="L" horiz-adv-x="546" 
d="M75 0v667h137v-556h304v-111h-441z" />
    <glyph glyph-name="M" unicode="M" horiz-adv-x="829" 
d="M75 0v667h140l234 -336l-76 -5l244 341h137v-667h-136v559l31 -36l-241 -327l-234 328l32 28v-552h-131z" />
    <glyph glyph-name="N" unicode="N" horiz-adv-x="724" 
d="M75 0v667h122l364 -497l-39 -80v577h127v-667h-111l-372 500l36 61v-561h-127z" />
    <glyph glyph-name="O" unicode="O" horiz-adv-x="732" 
d="M366 -12q-99 0 -170.5 37.5t-109.5 114t-38 193.5q0 171 82.5 258.5t235.5 87.5q99 0 170.5 -37.5t109.5 -114t38 -193.5q0 -171 -82.5 -258.5t-235.5 -87.5zM366 102q59 0 98.5 23t59.5 74.5t20 134.5q0 84 -20 134.5t-59.5 73.5t-98.5 23t-98.5 -23.5t-59.5 -74
t-20 -134.5t20 -134.5t59.5 -73.5t98.5 -23z" />
    <glyph glyph-name="P" unicode="P" horiz-adv-x="650" 
d="M211 229v-229h-136v667h282q116 0 180.5 -53t64.5 -161t-64.5 -166t-180.5 -58h-146zM211 339h129q35 0 57.5 8t35.5 23.5t18.5 34.5t5.5 41q0 23 -5.5 43t-18.5 36t-35.5 24.5t-57.5 8.5h-129v-219z" />
    <glyph glyph-name="Q" unicode="Q" horiz-adv-x="732" 
d="M366 -17q-156 0 -237 85.5t-81 264.5q0 175 79 263t239 88q156 0 237 -85.5t81 -264.5q0 -175 -78.5 -263t-239.5 -88zM366 82q59 1 98.5 25t59.5 78.5t20 148.5q0 89 -20 141.5t-59.5 76t-98.5 23.5t-98.5 -23.5t-59.5 -76.5t-20 -142q0 -94 20 -149t59.5 -78.5
t98.5 -23.5zM620 -13q16 0 29 3.5t34 16.5v-89q-19 -11 -41 -15t-46 -4q-25 0 -50 7t-47 22.5t-39 41t-27 63.5q-10 37 -25 66t-35 45.5t-48 16.5q-33 0 -60 -15t-48 -42v95q17 22 51.5 41t80.5 19q41 0 77 -18.5t63.5 -56.5t43.5 -98q15 -46 36.5 -72.5t50.5 -26.5z" />
    <glyph glyph-name="R" unicode="R" horiz-adv-x="687" 
d="M75 0v667h311q108 0 168 -51.5t60 -154.5q0 -48 -19.5 -91.5t-57 -72.5t-91.5 -36l1 45l200 -306h-171l-176 295l61 -54h-150v-241h-136zM211 346h146q54 0 83 26t29 82q0 50 -24 77t-76 27h-158v-212z" />
    <glyph glyph-name="S" unicode="S" horiz-adv-x="571" 
d="M289 -12q-50 0 -89.5 5t-72.5 16t-66 28v132q42 -34 99 -53.5t115 -19.5q54 0 81.5 21.5t27.5 61.5q0 31 -22.5 50t-59.5 33t-81 29q-31 11 -60.5 24.5t-53 34.5t-37.5 52.5t-14 77.5q0 37 14 73t43 65t75.5 46t109.5 17q41 0 71.5 -5t58 -15t58.5 -25v-132
q-24 17 -51 32.5t-57.5 25.5t-66.5 11t-62 -8t-40 -27t-14 -43q0 -31 17.5 -49.5t48.5 -30.5t70 -24t74 -27t61.5 -36.5t41.5 -53.5t15 -78q0 -56 -25.5 -103.5t-77.5 -76t-131 -28.5z" />
    <glyph glyph-name="T" unicode="T" horiz-adv-x="586" 
d="M224 0v558h-201v109h540v-109h-203v-558h-136z" />
    <glyph glyph-name="U" unicode="U" horiz-adv-x="716" 
d="M369 -17q-145 0 -219.5 67.5t-74.5 205.5v411h141v-407q0 -86 36 -127t111 -41q71 0 109.5 41t38.5 127v407h130v-411q0 -92 -34 -153t-95 -90.5t-143 -29.5z" />
    <glyph glyph-name="V" unicode="V" horiz-adv-x="685" 
d="M266 0l-251 667h156l201 -578h-45l199 577l144 1l-260 -667h-144z" />
    <glyph glyph-name="W" unicode="W" horiz-adv-x="1000" 
d="M220 0l-195 667h148l138 -543h-25l159 543h110l163 -550h-29l138 550h148l-195 -667h-135l-158 512h28l-160 -512h-135z" />
    <glyph glyph-name="X" unicode="X" horiz-adv-x="654" 
d="M641 0h-168l-459 667h168zM322 411l160 256h153l-239 -359zM350 287l-182 -287h-150l254 378z" />
    <glyph glyph-name="Y" unicode="Y" horiz-adv-x="665" 
d="M271 0v294l-252 373h167l196 -317l-60 2l182 315h140l-257 -407l20 74v-334h-136z" />
    <glyph glyph-name="Z" unicode="Z" horiz-adv-x="627" 
d="M57 0v103l371 486l33 -32h-397v110h503v-100l-356 -480l-40 23h396v-110h-510z" />
    <glyph glyph-name="bracketleft" unicode="[" horiz-adv-x="393" 
d="M92 -116v812h242v-114h-106v-583h106v-115h-242z" />
    <glyph glyph-name="backslash" unicode="\" horiz-adv-x="399" 
d="M331 -98l-368 854h96l367 -854h-95z" />
    <glyph glyph-name="bracketright" unicode="]" horiz-adv-x="398" 
d="M75 -116v114h105v584h-105v114h241v-812h-241z" />
    <glyph glyph-name="asciicircum" unicode="^" horiz-adv-x="576" 
d="M127 471l121 219h64l122 -219h-86l-67 139l-68 -139h-86z" />
    <glyph glyph-name="underscore" unicode="_" horiz-adv-x="546" 
d="M0 -97v73h546v-73h-546z" />
    <glyph glyph-name="grave" unicode="`" horiz-adv-x="249" 
d="M138 555l-103 121h125l49 -121h-71z" />
    <glyph glyph-name="a" unicode="a" horiz-adv-x="567" 
d="M259 -15q-43 0 -81 8t-68 27t-47.5 51.5t-17.5 80.5q0 52 21 87.5t61.5 54t99.5 18.5q36 0 67 -6.5t56 -18t41 -24.5l9 -71q-21 14 -53.5 22.5t-70.5 8.5q-53 0 -79 -17t-26 -53q0 -24 14 -41t36 -25t46 -8q55 0 79.5 7.5t24.5 32.5v198q0 49 -31 71.5t-87 22.5
q-43 0 -88 -14.5t-73 -37.5v115q27 18 81 30.5t116 12.5q26 0 55 -4.5t56 -15.5t49 -31t35 -49.5t13 -71.5l-1 -239q0 -46 -29.5 -72.5t-83 -37.5t-124.5 -11z" />
    <glyph glyph-name="b" unicode="b" horiz-adv-x="592" 
d="M292 -15q-41 0 -81 5.5t-71.5 19t-50.5 37t-19 61.5v590h125v-273l-27 40q18 18 46.5 29.5t57.5 17t49 5.5q113 0 171 -67.5t58 -193.5q0 -79 -21 -131.5t-56.5 -83t-82 -43.5t-98.5 -13zM289 93q51 0 80 20.5t41 56t12 79.5q0 57 -15 93t-43 53.5t-69 17.5q-23 0 -50 -6
t-50 -19v-247q0 -19 13.5 -29.5t35 -14.5t45.5 -4z" />
    <glyph glyph-name="c" unicode="c" horiz-adv-x="499" 
d="M299 -11q-50 0 -96 14.5t-82 45t-57 80t-21 118.5q0 73 20 124t55 83.5t81.5 47.5t98.5 15q41 0 82.5 -8t75.5 -23v-111q-35 15 -68.5 24.5t-69.5 9.5q-71 0 -110 -35t-39 -114q0 -83 36 -122.5t118 -39.5q37 0 71.5 11t62.5 25v-110q-35 -17 -73 -26t-85 -9z" />
    <glyph glyph-name="d" unicode="d" horiz-adv-x="598" 
d="M302 -15q-52 0 -99 12.5t-83 42.5t-56.5 83t-20.5 134q0 121 59 191t179 70q17 0 44 -3.5t55.5 -13.5t49.5 -29l-28 -41v282h126v-594q0 -34 -20 -59.5t-52.5 -41.5t-72.5 -24.5t-81 -8.5zM307 93q40 0 67.5 10.5t27.5 28.5v256q-22 13 -47 19t-48 6q-45 0 -75.5 -16.5
t-45 -52t-14.5 -90.5q0 -47 12 -83t41.5 -57t81.5 -21z" />
    <glyph glyph-name="e" unicode="e" horiz-adv-x="558" 
d="M293 -15q-75 0 -131.5 31t-87.5 89.5t-31 141.5q0 132 63.5 202t179.5 70q82 0 133 -36t74 -103t22 -159h-390l-9 86h298l-24 -36q-2 79 -27.5 113.5t-81.5 34.5q-34 0 -59 -15.5t-38.5 -51.5t-13.5 -99q0 -78 36.5 -119t112.5 -41q31 0 59.5 6t53 15.5t42.5 17.5v-113
q-36 -15 -80 -24.5t-101 -9.5z" />
    <glyph glyph-name="f" unicode="f" horiz-adv-x="389" 
d="M110 0v404h-77v100h78v16q0 51 11 86t29.5 57.5t42 34t49.5 16t52 4.5q16 0 33 -2.5t28 -6.5v-112q-9 8 -19 12.5t-27 4.5q-14 0 -27 -2.5t-23 -11t-16 -24.5t-6 -42v-30h118v-100h-119v-404h-127z" />
    <glyph glyph-name="g" unicode="g" horiz-adv-x="586" 
d="M267 -15q-71 3 -121 31.5t-76.5 84t-26.5 136.5q0 85 21 139.5t58.5 85t88 43t108.5 12.5t103.5 -15t72 -44.5t26.5 -73.5v-394q0 -47 -14.5 -84.5t-45 -64.5t-77 -41.5t-109.5 -14.5q-60 0 -104 9t-70 20v114q15 -6 41.5 -14.5t59.5 -14.5t66 -6q53 0 80.5 14t37.5 36.5
t10 50.5v79l29 -22q-17 -19 -41.5 -34t-54 -23.5t-62.5 -8.5zM294 84q28 0 54 6.5t48 19.5v247q0 24 -12.5 35.5t-33 16t-43.5 4.5q-54 0 -83.5 -22t-41 -61t-11.5 -87q0 -72 32 -115.5t91 -43.5z" />
    <glyph glyph-name="h" unicode="h" horiz-adv-x="601" 
d="M70 0v710h128v-293l-47 30q39 31 90 50.5t102 19.5q57 0 99 -19.5t65.5 -62t23.5 -113.5v-322h-127v300q0 55 -26.5 82.5t-78.5 27.5q-27 0 -54 -8t-47 -20l-2 -382h-126z" />
    <glyph glyph-name="i" unicode="i" horiz-adv-x="273" 
d="M73 0v499h127l1 -499h-128zM70 579v105h133v-105h-133z" />
    <glyph glyph-name="j" unicode="j" horiz-adv-x="294" 
d="M8 -193v106q32 -2 50.5 6t27 26t8.5 45v514h127l1 -515q0 -67 -27 -107t-75 -57.5t-112 -17.5zM91 584v105h133v-105h-133z" />
    <glyph glyph-name="k" unicode="k" horiz-adv-x="566" 
d="M169 285l196 219h155l-285 -286zM196 0h-126v695h128zM260 335l279 -335h-162l-207 249z" />
    <glyph glyph-name="l" unicode="l" horiz-adv-x="266" 
d="M196 0h-126v695h126v-695z" />
    <glyph glyph-name="m" unicode="m" horiz-adv-x="907" 
d="M523 336v-336h-127v314q0 19 -5 36.5t-17 31t-33 21t-54 7.5q-25 0 -48 -5t-42 -13v-392h-127v462q21 11 50 21t63 17.5t69 12t66 4.5q69 0 114.5 -18.5t68 -58.5t22.5 -104zM386 432q32 27 73 45.5t86.5 29t86.5 10.5q69 0 114.5 -18.5t68 -58.5t22.5 -104v-336h-127
v314q0 19 -5 36.5t-17 31t-33 21t-54 7.5q-25 0 -48 -7t-42 -21z" />
    <glyph glyph-name="n" unicode="n" horiz-adv-x="598" 
d="M70 462q21 11 50 21t63 17.5t69 12t66 4.5q69 0 115.5 -18.5t70.5 -58.5t24 -104v-336h-127v314q0 19 -5 36.5t-17 31t-33 21t-54 7.5q-25 0 -50.5 -5t-44.5 -13v-392h-127v462z" />
    <glyph glyph-name="o" unicode="o" horiz-adv-x="584" 
d="M292 -15q-125 0 -187 69t-62 199q0 140 63.5 203t184.5 63q84 0 139.5 -29.5t83.5 -88.5t28 -148q0 -130 -65 -199t-185 -69zM291 89q44 0 71.5 20t40.5 57t13 87q0 57 -13.5 93t-41 53t-70.5 17q-44 0 -71 -18t-39 -54t-12 -91q0 -79 28.5 -121.5t93.5 -42.5z" />
    <glyph glyph-name="p" unicode="p" horiz-adv-x="592" 
d="M321 -14q-17 0 -45.5 3.5t-58 13.5t-50.5 29l28 41v-264h-125v593q0 32 19.5 54t52 36t73.5 20.5t85 6.5q71 0 127.5 -25.5t89 -85t32.5 -163.5q0 -78 -27 -136.5t-77.5 -90.5t-123.5 -32zM290 90q44 0 73 17t43.5 52t14.5 90q0 48 -10.5 84.5t-38 57t-77.5 20.5
q-49 0 -74.5 -10t-25.5 -28v-258q23 -13 48 -19t47 -6z" />
    <glyph glyph-name="q" unicode="q" horiz-adv-x="592" 
d="M309 517q58 0 106.5 -12t77.5 -41.5t29 -81.5v-583h-125v279l28 -41q-21 -22 -49.5 -33t-55.5 -14.5t-44 -3.5q-112 0 -172.5 67t-60.5 189q0 80 20.5 133.5t57.5 84.5t85 44t103 13zM305 409q-52 0 -81.5 -20.5t-41 -57t-11.5 -83.5q0 -53 16 -88.5t45.5 -52.5t69.5 -17
q24 0 48.5 6t46.5 19v246q0 17 -13.5 27.5t-34.5 15.5t-44 5z" />
    <glyph glyph-name="r" unicode="r" horiz-adv-x="414" 
d="M70 0v455q14 10 49.5 24.5t82.5 26t95 11.5q36 0 57.5 -5.5t34.5 -13.5v-96q-20 3 -45.5 5t-52 1.5t-51 -2.5t-43.5 -5v-401h-127z" />
    <glyph glyph-name="s" unicode="s" horiz-adv-x="475" 
d="M218 -15q-54 0 -92 11.5t-73 27.5v115q23 -15 48.5 -28.5t55 -21.5t64.5 -8q39 0 58.5 15t19.5 38q0 20 -15 31.5t-39 19.5t-51 16q-25 6 -50.5 16t-46.5 27t-33.5 43.5t-12.5 64.5q0 45 18 76t47.5 50.5t64 28t67.5 7.5q58 -1 93 -13t66 -29v-104q-35 19 -67.5 34.5
t-75.5 15.5q-39 0 -60.5 -13.5t-21.5 -37.5q0 -21 13 -33.5t34.5 -20t46.5 -14.5t51.5 -15.5t50 -24t38 -42.5t14.5 -70q-1 -59 -31.5 -94.5t-78.5 -51.5t-102 -16z" />
    <glyph glyph-name="t" unicode="t" horiz-adv-x="399" 
d="M263 -16q-78 0 -119 38.5t-41 111.5v270h-78v100h78v140h132v-140h116v-100h-116v-250q0 -30 11.5 -45t41.5 -15q16 0 33.5 5t29.5 13v-110q-19 -10 -42.5 -14t-45.5 -4z" />
    <glyph glyph-name="u" unicode="u" horiz-adv-x="595" 
d="M300 -15q-69 0 -121 22.5t-80.5 67.5t-28.5 115v314h127v-300q0 -56 25 -83t79 -27t78.5 27t24.5 83v300h121v-314q0 -104 -60 -154.5t-165 -50.5z" />
    <glyph glyph-name="v" unicode="v" horiz-adv-x="605" 
d="M239 0l-211 504h137l162 -403l-30 -2l148 405h133l-212 -504h-127z" />
    <glyph glyph-name="w" unicode="w" horiz-adv-x="818" 
d="M196 0l-168 504h136l120 -419l-39 -4l115 423h98l113 -411h-31l118 411h133l-168 -504h-117l-110 360l22 -6l-105 -354h-117z" />
    <glyph glyph-name="x" unicode="x" horiz-adv-x="576" 
d="M306 207l-145 -207h-136l220 290zM545 0h-152l-363 504h152zM265 293l149 211h136l-225 -297z" />
    <glyph glyph-name="y" unicode="y" horiz-adv-x="578" 
d="M164 -195q-22 0 -42.5 4.5t-35.5 10.5v106q14 -5 27 -8t28 -3q27 0 46.5 14t32.5 42.5t21 73.5l2 -69l-215 528h145l130 -375h-15l128 375h135l-203 -523q-26 -67 -56.5 -105.5t-62.5 -54.5t-65 -16z" />
    <glyph glyph-name="z" unicode="z" horiz-adv-x="482" 
d="M45 0v103l279 332l14 -28h-287v97h386v-101l-265 -332l-3 33h268v-104h-392z" />
    <glyph glyph-name="braceleft" unicode="{" horiz-adv-x="387" 
d="M320 -109q-72 0 -114.5 19t-61.5 54t-19 81v144q0 23 -11.5 36.5t-25 19.5t-20.5 8v83q7 2 20.5 8t25 19t11.5 36v144q0 47 19 82t61.5 54t114.5 19h19v-114h-15q-24 0 -38 -8.5t-19.5 -24t-5.5 -39.5v-116q0 -40 -23 -64.5t-54 -37.5q31 -12 54 -36.5t23 -65.5v-116
q0 -23 5.5 -39t19.5 -24t38 -9h15v-113h-19z" />
    <glyph glyph-name="bar" unicode="|" horiz-adv-x="467" 
d="M185 -99v765h102v-765h-102z" />
    <glyph glyph-name="braceright" unicode="}" horiz-adv-x="381" 
d="M58 -109v113h14q24 1 38 9t19.5 24t5.5 39v116q0 41 23.5 65.5t53.5 36.5q-30 13 -53.5 37.5t-23.5 64.5v116q0 24 -5.5 39.5t-19.5 24t-38 8.5h-14v114h18q72 0 114.5 -19t61.5 -54t19 -82v-144q0 -23 11 -36t25 -19t20 -8v-83q-6 -2 -20 -8t-25 -19.5t-11 -36.5v-144
q0 -46 -19 -81t-61.5 -54t-114.5 -19h-18z" />
    <glyph glyph-name="asciitilde" unicode="~" horiz-adv-x="512" 
d="M98 227v76q26 31 52 36.5t53 -3.5t53.5 -23t53 -23t53 -3.5t51.5 36.5v-76q-25 -31 -51.5 -36t-53 3.5t-53 22.5t-53.5 23t-53 3.5t-52 -36.5z" />
    <glyph glyph-name="uni00A0" unicode="&#xa0;" horiz-adv-x="280" 
 />
    <glyph glyph-name="exclamdown" unicode="&#xa1;" horiz-adv-x="397" 
d="M142 -168l15 488h93l15 -488h-123zM145 396v103h117v-103h-117z" />
    <glyph glyph-name="cent" unicode="&#xa2;" horiz-adv-x="499" 
d="M240 547v121h102v-121h-102zM240 0v111h102v-111h-102zM299 67q-50 0 -96 14.5t-82 45t-57 80t-21 118.5q0 73 20 124t55 83.5t81.5 47.5t98.5 15q41 0 82.5 -8t75.5 -23v-111q-35 15 -68.5 24.5t-69.5 9.5q-71 0 -110 -35t-39 -114q0 -83 36 -122.5t118 -39.5
q37 0 71.5 11t62.5 25v-110q-35 -17 -73 -26t-85 -9z" />
    <glyph glyph-name="sterling" unicode="&#xa3;" horiz-adv-x="559" 
d="M132 487q0 45 20.5 88.5t67 72t124.5 28.5q46 0 87 -14t73 -32v-116q-30 22 -63.5 36t-72.5 14q-41 0 -66.5 -12t-37.5 -33t-12 -46v-355q44 -12 85 -19.5t82 -2.5t85 27v-109q-37 -24 -74.5 -29t-75.5 1t-76.5 15t-76.5 15t-75.5 0t-75.5 -31v112q23 14 43 17.5t39 6.5
v366zM50 276v98h370v-98h-370z" />
    <glyph glyph-name="currency" unicode="&#xa4;" horiz-adv-x="493" 
d="M247 156q-50 0 -92 24.5t-66.5 66.5t-24.5 92q0 51 24.5 92.5t66.5 66t92 24.5q51 0 92.5 -24.5t66 -66t24.5 -92.5q0 -50 -24.5 -92t-66 -66.5t-92.5 -24.5zM246 245q37 0 62.5 26t25.5 68t-25.5 68.5t-62.5 26.5t-62.5 -26.5t-25.5 -68.5t25.5 -68t62.5 -26zM115 267
l61 -60l-74 -73l-59 59zM392 542l59 -59l-73 -74l-60 61zM176 470l-61 -61l-72 74l59 59zM451 193l-59 -59l-74 73l60 60z" />
    <glyph glyph-name="yen" unicode="&#xa5;" horiz-adv-x="666" 
d="M275 0v122h-145v79h145v85h-145v79h96l-208 302h149l169 -270l170 270h148l-208 -302h96v-79h-145v-85h145v-79h-145v-122h-122z" />
    <glyph glyph-name="brokenbar" unicode="&#xa6;" horiz-adv-x="467" 
d="M287 218v-317h-102v317h102zM185 349v317h102v-317h-102z" />
    <glyph glyph-name="section" unicode="&#xa7;" horiz-adv-x="576" 
d="M250 -8q-57 0 -103.5 14.5t-81.5 35.5v105q32 -26 73.5 -42t97.5 -16q15 0 33.5 1.5t36.5 7t30 16t12 27.5q0 15 -14 26.5t-43.5 23.5t-77.5 25q-40 12 -75 28t-56.5 41t-21.5 65q0 26 11 44t28.5 30t37.5 19t38 9q-12 4 -25 15.5t-22 28t-9 36.5q0 35 15 62t42.5 45
t66 27.5t85.5 9.5q45 0 86 -11.5t75 -28.5v-96q-35 19 -70 29t-76 10q-18 0 -44 -3.5t-45 -14.5t-19 -33q0 -10 8.5 -20.5t32 -21t66.5 -22.5q42 -11 83.5 -28.5t68.5 -46.5t27 -77q0 -22 -10 -38t-25.5 -26.5t-33 -17t-31.5 -9.5q20 -13 31 -38t11 -52q0 -65 -57 -102
t-156 -37zM358 271q21 4 34 13t13 24q0 13 -9 24t-31 21.5t-61 19.5q-20 5 -38.5 10t-32.5 11q-23 -2 -40 -12t-17 -30q0 -6 4.5 -13t22.5 -15t56 -19q22 -6 47.5 -14t51.5 -20z" />
    <glyph glyph-name="dieresis" unicode="&#xa8;" horiz-adv-x="417" 
d="M238 560v94h115v-94h-115zM65 560v94h114v-94h-114z" />
    <glyph glyph-name="copyright" unicode="&#xa9;" horiz-adv-x="778" 
d="M390 -8q-70 0 -132 26.5t-109.5 73.5t-74 109t-26.5 132q0 71 26.5 133t74 109t109.5 73.5t132 26.5q71 0 133 -26.5t109 -73.5t73.5 -109t26.5 -133q0 -70 -26.5 -132t-73.5 -109t-109 -73.5t-133 -26.5zM396 134q-38 0 -70.5 10.5t-57.5 34t-39 61.5t-14 94t14 94
t39 61.5t57.5 33.5t70.5 10q32 0 62.5 -6.5t60.5 -17.5v-64q-30 13 -58.5 19t-58.5 6q-36 0 -62 -13t-40 -42.5t-14 -80.5t14 -81t40 -43t62 -13q30 0 58.5 6.5t58.5 19.5v-64q-30 -12 -60.5 -18.5t-62.5 -6.5zM390 41q60 0 113 23t93.5 63t63 93t22.5 113q0 61 -22.5 114
t-63 93.5t-93.5 63t-113 22.5t-113 -22.5t-93.5 -63t-63 -93.5t-22.5 -114q0 -60 22.5 -113t63 -93t93.5 -63t113 -23z" />
    <glyph glyph-name="ordfeminine" unicode="&#xaa;" horiz-adv-x="401" 
d="M194 384q-22 0 -44 4t-40 14.5t-28.5 28.5t-10.5 45q0 44 26.5 66t80.5 22q28 0 46 -4.5t22 -7.5q0 33 -14.5 49.5t-43.5 16.5q-26 0 -50 -5.5t-40 -11.5v56q19 7 44.5 12.5t49.5 5.5q64 0 96 -30t32 -88v-82q0 -28 -10 -46t-27.5 -28t-40 -13.5t-48.5 -3.5zM196 437
q20 0 35.5 7.5t15.5 28.5v38q-3 1 -16.5 4.5t-29.5 3.5q-13 0 -26 -3.5t-22 -12t-9 -25.5q0 -15 7 -24t19 -13t26 -4z" />
    <glyph glyph-name="guillemotleft" unicode="&#xab;" horiz-adv-x="606" 
d="M418 64l-169 191l169 190h131l-180 -190l180 -191h-131zM202 64l-169 191l169 190h131l-180 -190l180 -191h-131z" />
    <glyph glyph-name="logicalnot" unicode="&#xac;" horiz-adv-x="629" 
d="M447 151v92h-350v86h435v-178h-85z" />
    <glyph glyph-name="uni00AD" unicode="&#xad;" horiz-adv-x="600" 
d="M79 257v94h305v-94h-305z" />
    <glyph glyph-name="registered" unicode="&#xae;" horiz-adv-x="778" 
d="M390 -8q-70 0 -132 26.5t-109 73.5t-73.5 109t-26.5 132q0 71 26.5 133t73.5 109t109 73.5t132 26.5q71 0 133 -26.5t109 -73.5t73.5 -109t26.5 -133q0 -70 -26.5 -132t-73.5 -109t-109 -73.5t-133 -26.5zM390 41q61 0 114 23t93 63t63 93t23 113q0 61 -23 114t-63 93.5
t-93 63t-114 22.5q-60 0 -113 -22.5t-93 -63t-63 -93.5t-23 -114q0 -60 23 -113t63 -93t93 -63t113 -23zM255 139v389h148q66 0 105.5 -30t39.5 -89q0 -29 -8.5 -49.5t-21.5 -34t-27.5 -21t-26.5 -10.5l100 -155h-81l-86 144h-71v-144h-71zM326 341h79q27 0 42.5 8.5t22 23
t6.5 31.5t-6.5 31.5t-22 23.5t-42.5 9h-79v-127z" />
    <glyph glyph-name="macron" unicode="&#xaf;" horiz-adv-x="399" 
d="M68 559v83h264v-83h-264z" />
    <glyph glyph-name="degree" unicode="&#xb0;" horiz-adv-x="387" 
d="M191 448q-53 0 -81 28t-28 82t28 82.5t81 28.5t81 -28.5t28 -82.5t-28 -82t-81 -28zM191 495q31 0 45.5 14.5t14.5 49.5q0 33 -14.5 48t-45.5 15q-32 0 -46 -15t-14 -48q0 -35 14 -49.5t46 -14.5z" />
    <glyph glyph-name="plusminus" unicode="&#xb1;" horiz-adv-x="585" 
d="M251 158v137h-137v86h137v136h86v-136h136v-86h-136v-137h-86zM114 20v82h359v-82h-359z" />
    <glyph glyph-name="two.superior" unicode="&#xb2;" horiz-adv-x="334" 
d="M48 464v53q21 16 46 36t48 43.5t37.5 49t14.5 51.5q0 25 -17 38.5t-40 13.5q-28 0 -48.5 -10t-37.5 -22v79q20 12 47 21.5t58 9.5q51 0 80.5 -16t42 -40.5t12.5 -50.5q0 -36 -20 -71t-52 -64t-68 -50l-10 15h153v-86h-246z" />
    <glyph glyph-name="three.superior" unicode="&#xb3;" horiz-adv-x="329" 
d="M149 459q-29 0 -54.5 8t-47.5 18v76q22 -13 42.5 -21.5t45.5 -8.5t43 11.5t18 34.5q0 21 -16.5 33t-46.5 12h-39v62h41q18 0 31 9.5t13 29.5q0 14 -15.5 22.5t-36.5 8.5q-20 0 -38.5 -5.5t-33.5 -13.5v70q19 9 41.5 15.5t48.5 6.5q36 0 65.5 -11.5t47.5 -33.5t18 -53
q0 -22 -10 -37.5t-22 -24t-19 -9.5q15 -6 31 -17t26.5 -29.5t10.5 -46.5q0 -26 -11.5 -45.5t-31 -33t-45.5 -20.5t-56 -7z" />
    <glyph glyph-name="acute" unicode="&#xb4;" horiz-adv-x="255" 
d="M62 555l49 121h126l-103 -121h-72z" />
    <glyph glyph-name="uni03BC" unicode="&#xb5;" horiz-adv-x="628" 
d="M99 -210v709h122v-322q0 -18 6.5 -37t29.5 -32.5t73 -13.5q27 0 49.5 3.5t40.5 8.5v393h122v-452q-5 -2 -24.5 -11t-50 -18.5t-70 -17t-84.5 -7.5q-24 0 -43 5t-31.5 11t-17.5 6v-225h-122z" />
    <glyph glyph-name="paragraph" unicode="&#xb6;" horiz-adv-x="487" 
d="M326 0v219h-37q-122 0 -186 57.5t-64 167.5q0 107 64 165t187 58h136v-667h-100z" />
    <glyph glyph-name="periodcentered" unicode="&#xb7;" horiz-adv-x="337" 
d="M111 219v109h111v-109h-111z" />
    <glyph glyph-name="cedilla" unicode="&#xb8;" horiz-adv-x="270" 
d="M49 -129l88 124h85l-55 -124h-118z" />
    <glyph glyph-name="one.superior" unicode="&#xb9;" horiz-adv-x="242" 
d="M85 463v294l15 -35l-65 -38v93l71 45h73v-359h-94z" />
    <glyph glyph-name="ordmasculine" unicode="&#xba;" horiz-adv-x="421" 
d="M208 389q-36 0 -66.5 14t-48.5 45.5t-18 83.5q0 54 18 85.5t48.5 45t66.5 13.5t66 -13.5t48 -45t18 -85.5q0 -52 -18 -83.5t-48 -45.5t-66 -14zM208 443q33 0 48.5 21.5t15.5 67.5q0 47 -15.5 69t-48.5 22t-49 -22t-16 -69q0 -46 16 -67.5t49 -21.5z" />
    <glyph glyph-name="guillemotright" unicode="&#xbb;" horiz-adv-x="612" 
d="M276 64l179 191l-179 190h130l170 -190l-170 -191h-130zM60 64l179 191l-179 190h130l170 -190l-170 -191h-130z" />
    <glyph glyph-name="onequarter" unicode="&#xbc;" horiz-adv-x="736" 
d="M85 314v294l15 -35l-65 -38v93l71 45h73v-359h-94zM66 -22l407 707h96l-407 -707h-96zM550 1v84h-150v71l163 204h76v-202h47v-73h-47v-84h-89zM480 158h70v122l33 6z" />
    <glyph glyph-name="onehalf" unicode="&#xbd;" horiz-adv-x="722" 
d="M85 314v294l15 -35l-65 -38v93l71 45h73v-359h-94zM62 -22l407 707h96l-407 -707h-96zM426 1v53q21 16 46 36t48 43.5t37.5 49t14.5 51.5q0 25 -17 38.5t-40 13.5q-28 0 -48.5 -10t-37.5 -22v79q20 12 47 21.5t58 9.5q51 0 80.5 -16t42 -40.5t12.5 -50.5q0 -36 -20 -71
t-52 -64t-68 -50l-10 15h153v-86h-246z" />
    <glyph glyph-name="threequarters" unicode="&#xbe;" horiz-adv-x="775" 
d="M149 316q-29 0 -54.5 8t-47.5 18v76q22 -13 42.5 -21.5t45.5 -8.5t43 11.5t18 34.5q0 21 -16.5 33t-46.5 12h-39v62h41q18 0 31 9.5t13 29.5q0 14 -15.5 22.5t-36.5 8.5q-20 0 -38.5 -5.5t-33.5 -13.5v70q19 9 41.5 15.5t48.5 6.5q36 0 65.5 -11.5t47.5 -33.5t18 -53
q0 -22 -10 -37.5t-22 -24t-19 -9.5q15 -6 31 -17t26.5 -29.5t10.5 -46.5q0 -26 -11.5 -45.5t-31 -33t-45.5 -20.5t-56 -7zM127 -22l407 707h96l-407 -707h-96zM589 1v84h-150v71l163 204h76v-202h47v-73h-47v-84h-89zM519 158h70v122l33 6z" />
    <glyph glyph-name="questiondown" unicode="&#xbf;" horiz-adv-x="504" 
d="M279 -176q-41 0 -78 11.5t-65 35t-44 59.5t-16 84q0 44 15 71.5t37.5 47.5t44.5 40t37 48t15 71v28h105v-32q0 -55 -15 -90t-37 -58.5t-44.5 -41t-37.5 -37t-15 -47.5q0 -34 14.5 -54t39.5 -28.5t58 -8.5q42 0 80 14.5t62 32.5v-103q-9 -6 -31.5 -16.5t-54.5 -18.5
t-70 -8zM219 396v103h117v-103h-117z" />
    <glyph glyph-name="Agrave" unicode="&#xc0;" horiz-adv-x="678" 
d="M15 0l256 667h147l245 -667h-141l-218 621l60 6l-217 -627h-132zM150 163l33 104h310l12 -104h-355zM309 718l-93 113h116l49 -113h-72z" />
    <glyph glyph-name="Aacute" unicode="&#xc1;" horiz-adv-x="678" 
d="M15 0l256 667h147l245 -667h-141l-218 621l60 6l-217 -627h-132zM150 163l33 104h310l12 -104h-355zM307 723l42 114h133l-108 -114h-67z" />
    <glyph glyph-name="Acircumflex" unicode="&#xc2;" horiz-adv-x="678" 
d="M15 0l256 667h147l245 -667h-141l-218 621l60 6l-217 -627h-132zM150 163l33 104h310l12 -104h-355zM202 713l86 121h104l85 -121h-84l-53 62l-54 -62h-84z" />
    <glyph glyph-name="Atilde" unicode="&#xc3;" horiz-adv-x="678" 
d="M15 0l256 667h147l245 -667h-141l-218 621l60 6l-217 -627h-132zM150 163l33 104h310l12 -104h-355zM237 722h-62q-5 38 8 68t38 47t55 17q25 0 45.5 -9.5t37 -22t32.5 -22.5t32 -10q17 0 25.5 14t5.5 42h67q3 -39 -10.5 -68t-38 -44.5t-55.5 -15.5q-29 0 -50 9.5
t-37.5 22t-30 22t-27.5 9.5q-19 0 -28.5 -17.5t-6.5 -41.5z" />
    <glyph glyph-name="Adieresis" unicode="&#xc4;" horiz-adv-x="678" 
d="M15 0l256 667h147l245 -667h-141l-218 621l60 6l-217 -627h-132zM150 163l33 104h310l12 -104h-355zM367 710v94h115v-94h-115zM194 710v94h114v-94h-114z" />
    <glyph glyph-name="Aring" unicode="&#xc5;" horiz-adv-x="678" 
d="M15 0l256 667h147l245 -667h-141l-218 621l60 6l-217 -627h-132zM150 163l33 104h310l12 -104h-355zM339 658q-57 0 -85.5 24t-28.5 70t28.5 70t85.5 24t85.5 -24t28.5 -70t-28.5 -70t-85.5 -24zM339 712q28 0 39 9t11 31t-11 31t-39 9t-39 -9t-11 -31t11 -31t39 -9z" />
    <glyph glyph-name="AE" unicode="&#xc6;" horiz-adv-x="1008" 
d="M504 630l72 -8l-408 -622h-153l463 667h463v-109h-301v-167h261v-110h-261v-171h301v-110h-437v630zM555 165h-367l54 104h322z" />
    <glyph glyph-name="Ccedilla" unicode="&#xc7;" horiz-adv-x="628" 
d="M366 -11q-159 0 -241 84.5t-82 260.5q0 171 80 258.5t243 87.5q53 0 106 -13t103 -36v-120q-50 32 -98.5 46t-92.5 14q-66 0 -110.5 -23.5t-67 -75.5t-22.5 -139q0 -86 22.5 -137.5t68 -74.5t114.5 -23q41 0 88.5 13.5t97.5 44.5v-120q-29 -14 -64 -25t-72.5 -16.5
t-72.5 -5.5zM230 -118l88 124h85l-55 -124h-118z" />
    <glyph glyph-name="Egrave" unicode="&#xc8;" horiz-adv-x="590" 
d="M75 0v667h447v-109h-310v-169h270v-110h-271v-170h311v-109h-447zM274 718l-93 113h116l49 -113h-72z" />
    <glyph glyph-name="Eacute" unicode="&#xc9;" horiz-adv-x="590" 
d="M75 0v667h447v-109h-310v-169h270v-110h-271v-170h311v-109h-447zM272 723l42 114h133l-108 -114h-67z" />
    <glyph glyph-name="Ecircumflex" unicode="&#xca;" horiz-adv-x="590" 
d="M75 0v667h447v-109h-310v-169h270v-110h-271v-170h311v-109h-447zM167 713l86 121h104l85 -121h-84l-53 62l-54 -62h-84z" />
    <glyph glyph-name="Edieresis" unicode="&#xcb;" horiz-adv-x="590" 
d="M75 0v667h447v-109h-310v-169h270v-110h-271v-170h311v-109h-447zM332 710v94h115v-94h-115zM159 710v94h114v-94h-114z" />
    <glyph glyph-name="Igrave" unicode="&#xcc;" horiz-adv-x="287" 
d="M75 0v667h137v-667h-137zM116 718l-93 113h116l49 -113h-72z" />
    <glyph glyph-name="Iacute" unicode="&#xcd;" horiz-adv-x="287" 
d="M75 0v667h137v-667h-137zM115 723l42 114h133l-108 -114h-67z" />
    <glyph glyph-name="Icircumflex" unicode="&#xce;" horiz-adv-x="287" 
d="M75 0v667h137v-667h-137zM10 713l86 121h104l85 -121h-84l-53 62l-54 -62h-84z" />
    <glyph glyph-name="Idieresis" unicode="&#xcf;" horiz-adv-x="287" 
d="M75 0v667h137v-667h-137zM174 710v94h115v-94h-115zM1 710v94h114v-94h-114z" />
    <glyph glyph-name="Eth" unicode="&#xd0;" horiz-adv-x="699" 
d="M75 0v667h251q166 0 245.5 -84t79.5 -249t-79.5 -249.5t-245.5 -84.5h-251zM211 109h100q101 0 151 54t50 171t-50 171t-151 54h-100v-450zM7 294v80h284v-80h-284z" />
    <glyph glyph-name="Ntilde" unicode="&#xd1;" horiz-adv-x="724" 
d="M75 0v667h122l364 -497l-39 -80v577h127v-667h-111l-372 500l36 61v-561h-127zM260 722h-62q-5 38 8 68t38 47t55 17q25 0 45.5 -9.5t37 -22t32.5 -22.5t32 -10q17 0 25.5 14t5.5 42h67q3 -39 -10.5 -68t-38 -44.5t-55.5 -15.5q-29 0 -50 9.5t-37.5 22t-30 22t-27.5 9.5
q-19 0 -28.5 -17.5t-6.5 -41.5z" />
    <glyph glyph-name="Ograve" unicode="&#xd2;" horiz-adv-x="732" 
d="M366 -12q-99 0 -170.5 37.5t-109.5 114t-38 193.5q0 171 82.5 258.5t235.5 87.5q99 0 170.5 -37.5t109.5 -114t38 -193.5q0 -171 -82.5 -258.5t-235.5 -87.5zM366 102q59 0 98.5 23t59.5 74.5t20 134.5q0 84 -20 134.5t-59.5 73.5t-98.5 23t-98.5 -23.5t-59.5 -74
t-20 -134.5t20 -134.5t59.5 -73.5t98.5 -23zM339 733l-93 113h116l49 -113h-72z" />
    <glyph glyph-name="Oacute" unicode="&#xd3;" horiz-adv-x="732" 
d="M366 -12q-99 0 -170.5 37.5t-109.5 114t-38 193.5q0 171 82.5 258.5t235.5 87.5q99 0 170.5 -37.5t109.5 -114t38 -193.5q0 -171 -82.5 -258.5t-235.5 -87.5zM366 102q59 0 98.5 23t59.5 74.5t20 134.5q0 84 -20 134.5t-59.5 73.5t-98.5 23t-98.5 -23.5t-59.5 -74
t-20 -134.5t20 -134.5t59.5 -73.5t98.5 -23zM337 738l42 114h133l-108 -114h-67z" />
    <glyph glyph-name="Ocircumflex" unicode="&#xd4;" horiz-adv-x="732" 
d="M366 -12q-99 0 -170.5 37.5t-109.5 114t-38 193.5q0 171 82.5 258.5t235.5 87.5q99 0 170.5 -37.5t109.5 -114t38 -193.5q0 -171 -82.5 -258.5t-235.5 -87.5zM366 102q59 0 98.5 23t59.5 74.5t20 134.5q0 84 -20 134.5t-59.5 73.5t-98.5 23t-98.5 -23.5t-59.5 -74
t-20 -134.5t20 -134.5t59.5 -73.5t98.5 -23zM232 728l86 121h104l85 -121h-84l-53 62l-54 -62h-84z" />
    <glyph glyph-name="Otilde" unicode="&#xd5;" horiz-adv-x="732" 
d="M366 -12q-99 0 -170.5 37.5t-109.5 114t-38 193.5q0 171 82.5 258.5t235.5 87.5q99 0 170.5 -37.5t109.5 -114t38 -193.5q0 -171 -82.5 -258.5t-235.5 -87.5zM366 102q59 0 98.5 23t59.5 74.5t20 134.5q0 84 -20 134.5t-59.5 73.5t-98.5 23t-98.5 -23.5t-59.5 -74
t-20 -134.5t20 -134.5t59.5 -73.5t98.5 -23zM267 737h-62q-5 38 8 68t38 47t55 17q25 0 45.5 -9.5t37 -22t32.5 -22.5t32 -10q17 0 25.5 14t5.5 42h67q3 -39 -10.5 -68t-38 -44.5t-55.5 -15.5q-29 0 -50 9.5t-37.5 22t-30 22t-27.5 9.5q-19 0 -28.5 -17.5t-6.5 -41.5z" />
    <glyph glyph-name="Odieresis" unicode="&#xd6;" horiz-adv-x="732" 
d="M366 -12q-99 0 -170.5 37.5t-109.5 114t-38 193.5q0 171 82.5 258.5t235.5 87.5q99 0 170.5 -37.5t109.5 -114t38 -193.5q0 -171 -82.5 -258.5t-235.5 -87.5zM366 102q59 0 98.5 23t59.5 74.5t20 134.5q0 84 -20 134.5t-59.5 73.5t-98.5 23t-98.5 -23.5t-59.5 -74
t-20 -134.5t20 -134.5t59.5 -73.5t98.5 -23zM397 725v94h115v-94h-115zM224 725v94h114v-94h-114z" />
    <glyph glyph-name="multiply" unicode="&#xd7;" horiz-adv-x="508" 
d="M75 77l136 179l-136 180h87l93 -122l94 122h87l-136 -180l136 -179h-87l-94 122l-93 -122h-87z" />
    <glyph glyph-name="Oslash" unicode="&#xd8;" horiz-adv-x="732" 
d="M34 0l578 667h96l-580 -667h-94zM366 -12q-99 0 -170.5 37.5t-109.5 114t-38 193.5q0 171 82.5 258.5t235.5 87.5q99 0 170.5 -37.5t109.5 -114t38 -193.5q0 -171 -82.5 -258.5t-235.5 -87.5zM366 102q59 0 98.5 23t59.5 74.5t20 134.5q0 84 -20 134.5t-59.5 73.5
t-98.5 23t-98.5 -23.5t-59.5 -74t-20 -134.5t20 -134.5t59.5 -73.5t98.5 -23z" />
    <glyph glyph-name="Ugrave" unicode="&#xd9;" horiz-adv-x="716" 
d="M369 -17q-145 0 -219.5 67.5t-74.5 205.5v411h141v-407q0 -86 36 -127t111 -41q71 0 109.5 41t38.5 127v407h130v-411q0 -92 -34 -153t-95 -90.5t-143 -29.5zM327 723l-93 113h116l49 -113h-72z" />
    <glyph glyph-name="Uacute" unicode="&#xda;" horiz-adv-x="716" 
d="M369 -17q-145 0 -219.5 67.5t-74.5 205.5v411h141v-407q0 -86 36 -127t111 -41q71 0 109.5 41t38.5 127v407h130v-411q0 -92 -34 -153t-95 -90.5t-143 -29.5zM326 728l42 114h133l-108 -114h-67z" />
    <glyph glyph-name="Ucircumflex" unicode="&#xdb;" horiz-adv-x="716" 
d="M369 -17q-145 0 -219.5 67.5t-74.5 205.5v411h141v-407q0 -86 36 -127t111 -41q71 0 109.5 41t38.5 127v407h130v-411q0 -92 -34 -153t-95 -90.5t-143 -29.5zM221 718l86 121h104l85 -121h-84l-53 62l-54 -62h-84z" />
    <glyph glyph-name="Udieresis" unicode="&#xdc;" horiz-adv-x="716" 
d="M369 -17q-145 0 -219.5 67.5t-74.5 205.5v411h141v-407q0 -86 36 -127t111 -41q71 0 109.5 41t38.5 127v407h130v-411q0 -92 -34 -153t-95 -90.5t-143 -29.5zM385 715v94h115v-94h-115zM212 715v94h114v-94h-114z" />
    <glyph glyph-name="Yacute" unicode="&#xdd;" horiz-adv-x="665" 
d="M271 0v294l-252 373h167l196 -317l-60 2l182 315h140l-257 -407l20 74v-334h-136zM320 723l42 114h133l-108 -114h-67z" />
    <glyph glyph-name="Thorn" unicode="&#xde;" horiz-adv-x="612" 
d="M86 0v667h122v-100h108q117 0 180 -57.5t63 -162.5q0 -106 -63 -163.5t-180 -57.5h-108v-126h-122zM208 232h95q43 0 69 10t40.5 27t19.5 37.5t5 40.5t-5 40t-19.5 37.5t-40.5 27.5t-69 10h-95v-230z" />
    <glyph glyph-name="germandbls" unicode="&#xdf;" horiz-adv-x="621" 
d="M70 0v433q0 73 26 131.5t78 92.5t131 34q73 0 128 -20t85.5 -56t30.5 -84q0 -34 -11 -59t-28.5 -44t-36.5 -30.5t-35 -16.5q30 -9 62.5 -32t55 -63.5t22.5 -101.5q0 -54 -22.5 -99t-68 -72t-114.5 -27q-24 -1 -50.5 3t-55.5 12v108q25 -13 48 -18.5t42 -5.5
q44 0 68.5 26.5t24.5 77.5q0 41 -20 67t-51 38.5t-64 13.5v103q51 0 77 24t26 67q0 28 -14 46t-37.5 27.5t-54.5 9.5q-56 0 -85 -39t-29 -109v-437h-128z" />
    <glyph glyph-name="agrave" unicode="&#xe0;" horiz-adv-x="567" 
d="M259 -15q-43 0 -81 8t-68 27t-47.5 51.5t-17.5 80.5q0 52 21 87.5t61.5 54t99.5 18.5q36 0 67 -6.5t56 -18t41 -24.5l9 -71q-21 14 -53.5 22.5t-70.5 8.5q-53 0 -79 -17t-26 -53q0 -24 14 -41t36 -25t46 -8q55 0 79.5 7.5t24.5 32.5v198q0 49 -31 71.5t-87 22.5
q-43 0 -88 -14.5t-73 -37.5v115q27 18 81 30.5t116 12.5q26 0 55 -4.5t56 -15.5t49 -31t35 -49.5t13 -71.5l-1 -239q0 -46 -29.5 -72.5t-83 -37.5t-124.5 -11zM253 570l-103 121h125l49 -121h-71z" />
    <glyph glyph-name="aacute" unicode="&#xe1;" horiz-adv-x="567" 
d="M259 -15q-43 0 -81 8t-68 27t-47.5 51.5t-17.5 80.5q0 52 21 87.5t61.5 54t99.5 18.5q36 0 67 -6.5t56 -18t41 -24.5l9 -71q-21 14 -53.5 22.5t-70.5 8.5q-53 0 -79 -17t-26 -53q0 -24 14 -41t36 -25t46 -8q55 0 79.5 7.5t24.5 32.5v198q0 49 -31 71.5t-87 22.5
q-43 0 -88 -14.5t-73 -37.5v115q27 18 81 30.5t116 12.5q26 0 55 -4.5t56 -15.5t49 -31t35 -49.5t13 -71.5l-1 -239q0 -46 -29.5 -72.5t-83 -37.5t-124.5 -11zM246 570l49 121h126l-103 -121h-72z" />
    <glyph glyph-name="acircumflex" unicode="&#xe2;" horiz-adv-x="567" 
d="M259 -15q-43 0 -81 8t-68 27t-47.5 51.5t-17.5 80.5q0 52 21 87.5t61.5 54t99.5 18.5q36 0 67 -6.5t56 -18t41 -24.5l9 -71q-21 14 -53.5 22.5t-70.5 8.5q-53 0 -79 -17t-26 -53q0 -24 14 -41t36 -25t46 -8q55 0 79.5 7.5t24.5 32.5v198q0 49 -31 71.5t-87 22.5
q-43 0 -88 -14.5t-73 -37.5v115q27 18 81 30.5t116 12.5q26 0 55 -4.5t56 -15.5t49 -31t35 -49.5t13 -71.5l-1 -239q0 -46 -29.5 -72.5t-83 -37.5t-124.5 -11zM154 574l86 121h104l85 -121h-84l-53 62l-54 -62h-84z" />
    <glyph glyph-name="atilde" unicode="&#xe3;" horiz-adv-x="567" 
d="M259 -15q-43 0 -81 8t-68 27t-47.5 51.5t-17.5 80.5q0 52 21 87.5t61.5 54t99.5 18.5q36 0 67 -6.5t56 -18t41 -24.5l9 -71q-21 14 -53.5 22.5t-70.5 8.5q-53 0 -79 -17t-26 -53q0 -24 14 -41t36 -25t46 -8q55 0 79.5 7.5t24.5 32.5v198q0 49 -31 71.5t-87 22.5
q-43 0 -88 -14.5t-73 -37.5v115q27 18 81 30.5t116 12.5q26 0 55 -4.5t56 -15.5t49 -31t35 -49.5t13 -71.5l-1 -239q0 -46 -29.5 -72.5t-83 -37.5t-124.5 -11zM181 560h-62q-5 38 8 68t38 47t55 17q25 0 45.5 -9.5t37 -22t32.5 -22.5t32 -10q17 0 25.5 14t5.5 42h67
q3 -39 -10.5 -68t-38 -44.5t-55.5 -15.5q-29 0 -50 9.5t-37.5 22t-30 22t-27.5 9.5q-19 0 -28.5 -17.5t-6.5 -41.5z" />
    <glyph glyph-name="adieresis" unicode="&#xe4;" horiz-adv-x="567" 
d="M259 -15q-43 0 -81 8t-68 27t-47.5 51.5t-17.5 80.5q0 52 21 87.5t61.5 54t99.5 18.5q36 0 67 -6.5t56 -18t41 -24.5l9 -71q-21 14 -53.5 22.5t-70.5 8.5q-53 0 -79 -17t-26 -53q0 -24 14 -41t36 -25t46 -8q55 0 79.5 7.5t24.5 32.5v198q0 49 -31 71.5t-87 22.5
q-43 0 -88 -14.5t-73 -37.5v115q27 18 81 30.5t116 12.5q26 0 55 -4.5t56 -15.5t49 -31t35 -49.5t13 -71.5l-1 -239q0 -46 -29.5 -72.5t-83 -37.5t-124.5 -11zM321 575v94h115v-94h-115zM148 575v94h114v-94h-114z" />
    <glyph glyph-name="aring" unicode="&#xe5;" horiz-adv-x="567" 
d="M259 -15q-43 0 -81 8t-68 27t-47.5 51.5t-17.5 80.5q0 52 21 87.5t61.5 54t99.5 18.5q36 0 67 -6.5t56 -18t41 -24.5l9 -71q-21 14 -53.5 22.5t-70.5 8.5q-53 0 -79 -17t-26 -53q0 -24 14 -41t36 -25t46 -8q55 0 79.5 7.5t24.5 32.5v198q0 49 -31 71.5t-87 22.5
q-43 0 -88 -14.5t-73 -37.5v115q27 18 81 30.5t116 12.5q26 0 55 -4.5t56 -15.5t49 -31t35 -49.5t13 -71.5l-1 -239q0 -46 -29.5 -72.5t-83 -37.5t-124.5 -11zM286 550q-57 0 -85.5 24t-28.5 70t28.5 70t85.5 24t85.5 -24t28.5 -70t-28.5 -70t-85.5 -24zM286 604q28 0 39 9
t11 31t-11 31t-39 9t-39 -9t-11 -31t11 -31t39 -9z" />
    <glyph glyph-name="ae" unicode="&#xe6;" horiz-adv-x="886" 
d="M448 51q-32 -24 -80.5 -47t-115.5 -23q-58 0 -105 16t-74.5 52.5t-27.5 98.5q0 53 23.5 89.5t67.5 55.5t104 19q29 0 58 -6t53 -16.5t40 -23.5l9 -74q-21 14 -53.5 22.5t-70.5 8.5q-55 0 -80 -19.5t-25 -57.5q0 -23 13.5 -39t36.5 -24.5t50 -8.5q25 0 50.5 4.5t48.5 14
t36 24.5zM371 213v102q0 50 -31 72.5t-87 22.5q-43 0 -88 -14.5t-73 -37.5v116q27 18 81 30.5t116 12.5q26 0 55 -4.5t56 -15.5t49 -31t35 -49.5t13 -71.5l-1 -123q0 -67 37 -100.5t113 -33.5q46 0 87 13.5t67 30.5v-113q-35 -19 -79.5 -29t-101.5 -10q-75 0 -131 29
t-86.5 81.5t-30.5 122.5zM371 247q0 130 63.5 200t179.5 70q82 0 133 -36t74 -102.5t22 -157.5h-390l-9 86h298l-24 -36q-2 78 -27.5 112t-81.5 34q-34 0 -59.5 -15t-39 -51t-13.5 -98z" />
    <glyph glyph-name="ccedilla" unicode="&#xe7;" horiz-adv-x="499" 
d="M299 -11q-50 0 -96 14.5t-82 45t-57 80t-21 118.5q0 73 20 124t55 83.5t81.5 47.5t98.5 15q41 0 82.5 -8t75.5 -23v-111q-35 15 -68.5 24.5t-69.5 9.5q-71 0 -110 -35t-39 -114q0 -83 36 -122.5t118 -39.5q37 0 71.5 11t62.5 25v-110q-35 -17 -73 -26t-85 -9zM167 -129
l88 124h85l-55 -124h-118z" />
    <glyph glyph-name="egrave" unicode="&#xe8;" horiz-adv-x="558" 
d="M293 -15q-75 0 -131.5 31t-87.5 89.5t-31 141.5q0 132 63.5 202t179.5 70q82 0 133 -36t74 -103t22 -159h-390l-9 86h298l-24 -36q-2 79 -27.5 113.5t-81.5 34.5q-34 0 -59 -15.5t-38.5 -51.5t-13.5 -99q0 -78 36.5 -119t112.5 -41q31 0 59.5 6t53 15.5t42.5 17.5v-113
q-36 -15 -80 -24.5t-101 -9.5zM254 565l-103 121h125l49 -121h-71z" />
    <glyph glyph-name="eacute" unicode="&#xe9;" horiz-adv-x="558" 
d="M293 -15q-75 0 -131.5 31t-87.5 89.5t-31 141.5q0 132 63.5 202t179.5 70q82 0 133 -36t74 -103t22 -159h-390l-9 86h298l-24 -36q-2 79 -27.5 113.5t-81.5 34.5q-34 0 -59 -15.5t-38.5 -51.5t-13.5 -99q0 -78 36.5 -119t112.5 -41q31 0 59.5 6t53 15.5t42.5 17.5v-113
q-36 -15 -80 -24.5t-101 -9.5zM247 565l49 121h126l-103 -121h-72z" />
    <glyph glyph-name="ecircumflex" unicode="&#xea;" horiz-adv-x="558" 
d="M293 -15q-75 0 -131.5 31t-87.5 89.5t-31 141.5q0 132 63.5 202t179.5 70q82 0 133 -36t74 -103t22 -159h-390l-9 86h298l-24 -36q-2 79 -27.5 113.5t-81.5 34.5q-34 0 -59 -15.5t-38.5 -51.5t-13.5 -99q0 -78 36.5 -119t112.5 -41q31 0 59.5 6t53 15.5t42.5 17.5v-113
q-36 -15 -80 -24.5t-101 -9.5zM155 569l86 121h104l85 -121h-84l-53 62l-54 -62h-84z" />
    <glyph glyph-name="edieresis" unicode="&#xeb;" horiz-adv-x="558" 
d="M293 -15q-75 0 -131.5 31t-87.5 89.5t-31 141.5q0 132 63.5 202t179.5 70q82 0 133 -36t74 -103t22 -159h-390l-9 86h298l-24 -36q-2 79 -27.5 113.5t-81.5 34.5q-34 0 -59 -15.5t-38.5 -51.5t-13.5 -99q0 -78 36.5 -119t112.5 -41q31 0 59.5 6t53 15.5t42.5 17.5v-113
q-36 -15 -80 -24.5t-101 -9.5zM322 570v94h115v-94h-115zM149 570v94h114v-94h-114z" />
    <glyph glyph-name="igrave" unicode="&#xec;" horiz-adv-x="315" 
d="M98 0v499h122v-499h-122zM125 564l-88 116h95l60 -116h-67z" />
    <glyph glyph-name="iacute" unicode="&#xed;" horiz-adv-x="315" 
d="M98 0v499h122v-499h-122zM126 560l59 116h95l-88 -116h-66z" />
    <glyph glyph-name="icircumflex" unicode="&#xee;" horiz-adv-x="315" 
d="M98 0v499h122v-499h-122zM36 560l100 121h45l100 -121h-79l-43 57l-44 -57h-79z" />
    <glyph glyph-name="idieresis" unicode="&#xef;" horiz-adv-x="315" 
d="M98 0v499h122v-499h-122zM29 560v94h100v-94h-100zM188 560v94h100v-94h-100z" />
    <glyph glyph-name="eth" unicode="&#xf0;" horiz-adv-x="578" 
d="M292 -20q-125 0 -187 68t-62 202q0 131 56 199t156 68q56 0 91.5 -20.5t59.5 -55.5l9 -75q-21 28 -53.5 44.5t-70.5 16.5q-44 0 -71 -22t-39 -61.5t-12 -93.5q0 -83 28.5 -124.5t93.5 -41.5q38 0 64 19t40 66.5t15 131.5q0 76 -21 135t-55.5 105.5t-76.5 83t-86 65.5v5
h161q35 -26 70.5 -66t64.5 -91.5t46.5 -113.5t17.5 -134q0 -152 -59.5 -231t-179.5 -79zM188 545l-17 77l317 54l19 -72z" />
    <glyph glyph-name="ntilde" unicode="&#xf1;" horiz-adv-x="598" 
d="M70 462q21 11 50 21t63 17.5t69 12t66 4.5q69 0 115.5 -18.5t70.5 -58.5t24 -104v-336h-127v314q0 19 -5 36.5t-17 31t-33 21t-54 7.5q-25 0 -50.5 -5t-44.5 -13v-392h-127v462zM194 555h-62q-5 38 8 68t38 47t55 17q25 0 45.5 -9.5t37 -22t32.5 -22.5t32 -10
q17 0 25.5 14t5.5 42h67q3 -39 -10.5 -68t-38 -44.5t-55.5 -15.5q-29 0 -50 9.5t-37.5 22t-30 22t-27.5 9.5q-19 0 -28.5 -17.5t-6.5 -41.5z" />
    <glyph glyph-name="ograve" unicode="&#xf2;" horiz-adv-x="584" 
d="M292 -15q-125 0 -187 69t-62 199q0 140 63.5 203t184.5 63q84 0 139.5 -29.5t83.5 -88.5t28 -148q0 -130 -65 -199t-185 -69zM291 89q44 0 71.5 20t40.5 57t13 87q0 57 -13.5 93t-41 53t-70.5 17q-44 0 -71 -18t-39 -54t-12 -91q0 -79 28.5 -121.5t93.5 -42.5zM261 570
l-103 121h125l49 -121h-71z" />
    <glyph glyph-name="oacute" unicode="&#xf3;" horiz-adv-x="584" 
d="M292 -15q-125 0 -187 69t-62 199q0 140 63.5 203t184.5 63q84 0 139.5 -29.5t83.5 -88.5t28 -148q0 -130 -65 -199t-185 -69zM291 89q44 0 71.5 20t40.5 57t13 87q0 57 -13.5 93t-41 53t-70.5 17q-44 0 -71 -18t-39 -54t-12 -91q0 -79 28.5 -121.5t93.5 -42.5zM253 570
l49 121h126l-103 -121h-72z" />
    <glyph glyph-name="ocircumflex" unicode="&#xf4;" horiz-adv-x="584" 
d="M292 -15q-125 0 -187 69t-62 199q0 140 63.5 203t184.5 63q84 0 139.5 -29.5t83.5 -88.5t28 -148q0 -130 -65 -199t-185 -69zM291 89q44 0 71.5 20t40.5 57t13 87q0 57 -13.5 93t-41 53t-70.5 17q-44 0 -71 -18t-39 -54t-12 -91q0 -79 28.5 -121.5t93.5 -42.5zM161 574
l86 121h104l85 -121h-84l-53 62l-54 -62h-84z" />
    <glyph glyph-name="otilde" unicode="&#xf5;" horiz-adv-x="584" 
d="M292 -15q-125 0 -187 69t-62 199q0 140 63.5 203t184.5 63q84 0 139.5 -29.5t83.5 -88.5t28 -148q0 -130 -65 -199t-185 -69zM291 89q44 0 71.5 20t40.5 57t13 87q0 57 -13.5 93t-41 53t-70.5 17q-44 0 -71 -18t-39 -54t-12 -91q0 -79 28.5 -121.5t93.5 -42.5zM189 560
h-62q-5 38 8 68t38 47t55 17q25 0 45.5 -9.5t37 -22t32.5 -22.5t32 -10q17 0 25.5 14t5.5 42h67q3 -39 -10.5 -68t-38 -44.5t-55.5 -15.5q-29 0 -50 9.5t-37.5 22t-30 22t-27.5 9.5q-19 0 -28.5 -17.5t-6.5 -41.5z" />
    <glyph glyph-name="odieresis" unicode="&#xf6;" horiz-adv-x="584" 
d="M292 -15q-125 0 -187 69t-62 199q0 140 63.5 203t184.5 63q84 0 139.5 -29.5t83.5 -88.5t28 -148q0 -130 -65 -199t-185 -69zM291 89q44 0 71.5 20t40.5 57t13 87q0 57 -13.5 93t-41 53t-70.5 17q-44 0 -71 -18t-39 -54t-12 -91q0 -79 28.5 -121.5t93.5 -42.5zM328 575
v94h115v-94h-115zM155 575v94h114v-94h-114z" />
    <glyph glyph-name="divide" unicode="&#xf7;" horiz-adv-x="628" 
d="M102 216v86h426v-86h-426zM264 49v98h102v-98h-102zM264 371v98h102v-98h-102z" />
    <glyph glyph-name="oslash" unicode="&#xf8;" horiz-adv-x="594" 
d="M143 0h-119l425 499h119zM292 -15q-125 0 -187 69t-62 199q0 140 63.5 203t184.5 63q84 0 139.5 -29.5t83.5 -88.5t28 -148q0 -130 -65 -199t-185 -69zM291 89q44 0 71.5 20t40.5 57t13 87q0 57 -13.5 93t-41 53t-70.5 17q-44 0 -71 -18t-39 -54t-12 -91
q0 -79 28.5 -121.5t93.5 -42.5z" />
    <glyph glyph-name="ugrave" unicode="&#xf9;" horiz-adv-x="595" 
d="M300 -15q-69 0 -121 22.5t-80.5 67.5t-28.5 115v314h127v-300q0 -56 25 -83t79 -27t78.5 27t24.5 83v300h121v-314q0 -104 -60 -154.5t-165 -50.5zM270 565l-103 121h125l49 -121h-71z" />
    <glyph glyph-name="uacute" unicode="&#xfa;" horiz-adv-x="595" 
d="M300 -15q-69 0 -121 22.5t-80.5 67.5t-28.5 115v314h127v-300q0 -56 25 -83t79 -27t78.5 27t24.5 83v300h121v-314q0 -104 -60 -154.5t-165 -50.5zM262 565l49 121h126l-103 -121h-72z" />
    <glyph glyph-name="ucircumflex" unicode="&#xfb;" horiz-adv-x="595" 
d="M300 -15q-69 0 -121 22.5t-80.5 67.5t-28.5 115v314h127v-300q0 -56 25 -83t79 -27t78.5 27t24.5 83v300h121v-314q0 -104 -60 -154.5t-165 -50.5zM170 569l86 121h104l85 -121h-84l-53 62l-54 -62h-84z" />
    <glyph glyph-name="udieresis" unicode="&#xfc;" horiz-adv-x="595" 
d="M300 -15q-69 0 -121 22.5t-80.5 67.5t-28.5 115v314h127v-300q0 -56 25 -83t79 -27t78.5 27t24.5 83v300h121v-314q0 -104 -60 -154.5t-165 -50.5zM337 570v94h115v-94h-115zM164 570v94h114v-94h-114z" />
    <glyph glyph-name="yacute" unicode="&#xfd;" horiz-adv-x="578" 
d="M164 -195q-22 0 -42.5 4.5t-35.5 10.5v106q14 -5 27 -8t28 -3q27 0 46.5 14t32.5 42.5t21 73.5l2 -69l-215 528h145l130 -375h-15l128 375h135l-203 -523q-26 -67 -56.5 -105.5t-62.5 -54.5t-65 -16zM251 555l49 121h126l-103 -121h-72z" />
    <glyph glyph-name="thorn" unicode="&#xfe;" horiz-adv-x="588" 
d="M196 -189h-126v884h126v-884zM196 110q23 -13 48 -19t47 -6q41 0 69 16.5t42.5 51t14.5 86.5q0 47 -10.5 83t-36.5 56.5t-74 20.5q-32 0 -61.5 -7.5t-38.5 -22.5l-114 71q10 18 34 30.5t56.5 20.5t66 12t62.5 4q69 0 124 -25.5t87.5 -84.5t32.5 -162q0 -75 -27 -132.5
t-77.5 -89.5t-123.5 -32q-17 0 -44 3.5t-55.5 13.5t-49.5 29z" />
    <glyph glyph-name="ydieresis" unicode="&#xff;" horiz-adv-x="578" 
d="M164 -195q-22 0 -42.5 4.5t-35.5 10.5v106q14 -5 27 -8t28 -3q27 0 46.5 14t32.5 42.5t21 73.5l2 -69l-215 528h145l130 -375h-15l128 375h135l-203 -523q-26 -67 -56.5 -105.5t-62.5 -54.5t-65 -16zM326 560v94h115v-94h-115zM153 560v94h114v-94h-114z" />
    <glyph glyph-name="Amacron" unicode="&#x100;" horiz-adv-x="678" 
d="M15 0l256 667h147l245 -667h-141l-218 621l60 6l-217 -627h-132zM150 163l33 104h310l12 -104h-355zM205 713v83h264v-83h-264z" />
    <glyph glyph-name="amacron" unicode="&#x101;" horiz-adv-x="567" 
d="M259 -15q-43 0 -81 8t-68 27t-47.5 51.5t-17.5 80.5q0 52 21 87.5t61.5 54t99.5 18.5q36 0 67 -6.5t56 -18t41 -24.5l9 -71q-21 14 -53.5 22.5t-70.5 8.5q-53 0 -79 -17t-26 -53q0 -24 14 -41t36 -25t46 -8q55 0 79.5 7.5t24.5 32.5v198q0 49 -31 71.5t-87 22.5
q-43 0 -88 -14.5t-73 -37.5v115q27 18 81 30.5t116 12.5q26 0 55 -4.5t56 -15.5t49 -31t35 -49.5t13 -71.5l-1 -239q0 -46 -29.5 -72.5t-83 -37.5t-124.5 -11zM151 574v83h264v-83h-264z" />
    <glyph glyph-name="Abreve" unicode="&#x102;" horiz-adv-x="678" 
d="M15 0l256 667h147l245 -667h-141l-218 621l60 6l-217 -627h-132zM150 163l33 104h310l12 -104h-355zM340 699q-43 0 -73 16t-47.5 45t-25.5 67h74q8 -23 25.5 -41t46.5 -18t46 18t26 41h74q-5 -38 -23 -67t-48.5 -45t-74.5 -16z" />
    <glyph glyph-name="abreve" unicode="&#x103;" horiz-adv-x="567" 
d="M259 -15q-43 0 -81 8t-68 27t-47.5 51.5t-17.5 80.5q0 52 21 87.5t61.5 54t99.5 18.5q36 0 67 -6.5t56 -18t41 -24.5l9 -71q-21 14 -53.5 22.5t-70.5 8.5q-53 0 -79 -17t-26 -53q0 -24 14 -41t36 -25t46 -8q55 0 79.5 7.5t24.5 32.5v198q0 49 -31 71.5t-87 22.5
q-43 0 -88 -14.5t-73 -37.5v115q27 18 81 30.5t116 12.5q26 0 55 -4.5t56 -15.5t49 -31t35 -49.5t13 -71.5l-1 -239q0 -46 -29.5 -72.5t-83 -37.5t-124.5 -11zM287 555q-43 0 -73 16t-47.5 45t-25.5 67h74q8 -23 25.5 -41t46.5 -18t46 18t26 41h74q-5 -38 -23 -67t-48.5 -45
t-74.5 -16z" />
    <glyph glyph-name="Aogonek" unicode="&#x104;" horiz-adv-x="678" 
d="M15 0l256 667h147l245 -667h-141l-218 621l60 6l-217 -627h-132zM150 163l33 104h310l12 -104h-355zM580 -183q-57 0 -86 23t-29 69q0 34 28.5 62t76.5 47l91 -18q-40 -17 -67.5 -37.5t-27.5 -41.5q0 -20 9.5 -27.5t24.5 -7.5q19 0 35 10.5t28 21.5v-79q-14 -8 -33 -15
t-50 -7z" />
    <glyph glyph-name="aogonek" unicode="&#x105;" horiz-adv-x="567" 
d="M259 -15q-43 0 -81 8t-68 27t-47.5 51.5t-17.5 80.5q0 52 21 87.5t61.5 54t99.5 18.5q36 0 67 -6.5t56 -18t41 -24.5l9 -71q-21 14 -53.5 22.5t-70.5 8.5q-53 0 -79 -17t-26 -53q0 -24 14 -41t36 -25t46 -8q55 0 79.5 7.5t24.5 32.5v198q0 49 -31 71.5t-87 22.5
q-43 0 -88 -14.5t-73 -37.5v115q27 18 81 30.5t116 12.5q26 0 55 -4.5t56 -15.5t49 -31t35 -49.5t13 -71.5l-1 -239q0 -46 -29.5 -72.5t-83 -37.5t-124.5 -11zM371 -160q-57 0 -86 23t-29 69q0 34 28.5 62t76.5 47l91 -18q-40 -17 -67.5 -37.5t-27.5 -41.5q0 -20 9.5 -27.5
t24.5 -7.5q19 0 35 10.5t28 21.5v-79q-14 -8 -33 -15t-50 -7z" />
    <glyph glyph-name="Cacute" unicode="&#x106;" horiz-adv-x="628" 
d="M366 -11q-159 0 -241 84.5t-82 260.5q0 171 80 258.5t243 87.5q53 0 106 -13t103 -36v-120q-50 32 -98.5 46t-92.5 14q-66 0 -110.5 -23.5t-67 -75.5t-22.5 -139q0 -86 22.5 -137.5t68 -74.5t114.5 -23q41 0 88.5 13.5t97.5 44.5v-120q-29 -14 -64 -25t-72.5 -16.5
t-72.5 -5.5zM318 738l42 114h133l-108 -114h-67z" />
    <glyph glyph-name="cacute" unicode="&#x107;" horiz-adv-x="499" 
d="M299 -11q-50 0 -96 14.5t-82 45t-57 80t-21 118.5q0 73 20 124t55 83.5t81.5 47.5t98.5 15q41 0 82.5 -8t75.5 -23v-111q-35 15 -68.5 24.5t-69.5 9.5q-71 0 -110 -35t-39 -114q0 -83 36 -122.5t118 -39.5q37 0 71.5 11t62.5 25v-110q-35 -17 -73 -26t-85 -9zM242 565
l49 121h126l-103 -121h-72z" />
    <glyph glyph-name="Ccircumflex" unicode="&#x108;" horiz-adv-x="628" 
d="M366 -11q-159 0 -241 84.5t-82 260.5q0 171 80 258.5t243 87.5q53 0 106 -13t103 -36v-120q-50 32 -98.5 46t-92.5 14q-66 0 -110.5 -23.5t-67 -75.5t-22.5 -139q0 -86 22.5 -137.5t68 -74.5t114.5 -23q41 0 88.5 13.5t97.5 44.5v-120q-29 -14 -64 -25t-72.5 -16.5
t-72.5 -5.5zM213 728l86 121h104l85 -121h-84l-53 62l-54 -62h-84z" />
    <glyph glyph-name="ccircumflex" unicode="&#x109;" horiz-adv-x="499" 
d="M299 -11q-50 0 -96 14.5t-82 45t-57 80t-21 118.5q0 73 20 124t55 83.5t81.5 47.5t98.5 15q41 0 82.5 -8t75.5 -23v-111q-35 15 -68.5 24.5t-69.5 9.5q-71 0 -110 -35t-39 -114q0 -83 36 -122.5t118 -39.5q37 0 71.5 11t62.5 25v-110q-35 -17 -73 -26t-85 -9zM150 569
l86 121h104l85 -121h-84l-53 62l-54 -62h-84z" />
    <glyph glyph-name="Cdotaccent" unicode="&#x10a;" horiz-adv-x="628" 
d="M366 -11q-159 0 -241 84.5t-82 260.5q0 171 80 258.5t243 87.5q53 0 106 -13t103 -36v-120q-50 32 -98.5 46t-92.5 14q-66 0 -110.5 -23.5t-67 -75.5t-22.5 -139q0 -86 22.5 -137.5t68 -74.5t114.5 -23q41 0 88.5 13.5t97.5 44.5v-120q-29 -14 -64 -25t-72.5 -16.5
t-72.5 -5.5zM289 714v94h109v-94h-109z" />
    <glyph glyph-name="cdotaccent" unicode="&#x10b;" horiz-adv-x="499" 
d="M299 -11q-50 0 -96 14.5t-82 45t-57 80t-21 118.5q0 73 20 124t55 83.5t81.5 47.5t98.5 15q41 0 82.5 -8t75.5 -23v-111q-35 15 -68.5 24.5t-69.5 9.5q-71 0 -110 -35t-39 -114q0 -83 36 -122.5t118 -39.5q37 0 71.5 11t62.5 25v-110q-35 -17 -73 -26t-85 -9zM221 565v94
h109v-94h-109z" />
    <glyph glyph-name="Ccaron" unicode="&#x10c;" horiz-adv-x="628" 
d="M366 -11q-159 0 -241 84.5t-82 260.5q0 171 80 258.5t243 87.5q53 0 106 -13t103 -36v-120q-50 32 -98.5 46t-92.5 14q-66 0 -110.5 -23.5t-67 -75.5t-22.5 -139q0 -86 22.5 -137.5t68 -74.5t114.5 -23q41 0 88.5 13.5t97.5 44.5v-120q-29 -14 -64 -25t-72.5 -16.5
t-72.5 -5.5zM302 717l-81 121h84l44 -62l43 62h84l-75 -121h-99z" />
    <glyph glyph-name="ccaron" unicode="&#x10d;" horiz-adv-x="499" 
d="M299 -11q-50 0 -96 14.5t-82 45t-57 80t-21 118.5q0 73 20 124t55 83.5t81.5 47.5t98.5 15q41 0 82.5 -8t75.5 -23v-111q-35 15 -68.5 24.5t-69.5 9.5q-71 0 -110 -35t-39 -114q0 -83 36 -122.5t118 -39.5q37 0 71.5 11t62.5 25v-110q-35 -17 -73 -26t-85 -9zM233 574
l-81 121h84l44 -62l43 62h84l-75 -121h-99z" />
    <glyph glyph-name="Dcaron" unicode="&#x10e;" horiz-adv-x="699" 
d="M75 0v667h251q166 0 245.5 -84t79.5 -249t-79.5 -249.5t-245.5 -84.5h-251zM211 109h100q101 0 151 54t50 171t-50 171t-151 54h-100v-450zM253 702l-81 121h84l44 -62l43 62h84l-75 -121h-99z" />
    <glyph glyph-name="dcaron" unicode="&#x10f;" horiz-adv-x="686" 
d="M302 -15q-52 0 -99 12.5t-83 42.5t-56.5 83t-20.5 134q0 121 59 191t179 70q17 0 44 -3.5t55.5 -13.5t49.5 -29l-28 -41v282h126v-594q0 -34 -20 -59.5t-52.5 -41.5t-72.5 -24.5t-81 -8.5zM307 93q40 0 67.5 10.5t27.5 28.5v256q-22 13 -47 19t-48 6q-45 0 -75.5 -16.5
t-45 -52t-14.5 -90.5q0 -47 12 -83t41.5 -57t81.5 -21zM556 510l74 196h111l-90 -196h-95z" />
    <glyph glyph-name="Dcroat" unicode="&#x110;" horiz-adv-x="699" 
d="M75 0v667h251q166 0 245.5 -84t79.5 -249t-79.5 -249.5t-245.5 -84.5h-251zM211 109h100q101 0 151 54t50 171t-50 171t-151 54h-100v-450zM7 294v80h284v-80h-284z" />
    <glyph glyph-name="dcroat" unicode="&#x111;" horiz-adv-x="598" 
d="M302 -15q-52 0 -99 12.5t-83 42.5t-56.5 83t-20.5 134q0 121 59 191t179 70q17 0 44 -3.5t55.5 -13.5t49.5 -29l-28 -41v282h126v-594q0 -34 -20 -59.5t-52.5 -41.5t-72.5 -24.5t-81 -8.5zM307 93q40 0 67.5 10.5t27.5 28.5v256q-22 13 -47 19t-48 6q-45 0 -75.5 -16.5
t-45 -52t-14.5 -90.5q0 -47 12 -83t41.5 -57t81.5 -21zM305 562v80h284v-80h-284z" />
    <glyph glyph-name="Emacron" unicode="&#x112;" horiz-adv-x="590" 
d="M75 0v667h447v-109h-310v-169h270v-110h-271v-170h311v-109h-447zM170 713v83h264v-83h-264z" />
    <glyph glyph-name="emacron" unicode="&#x113;" horiz-adv-x="558" 
d="M293 -15q-75 0 -131.5 31t-87.5 89.5t-31 141.5q0 132 63.5 202t179.5 70q82 0 133 -36t74 -103t22 -159h-390l-9 86h298l-24 -36q-2 79 -27.5 113.5t-81.5 34.5q-34 0 -59 -15.5t-38.5 -51.5t-13.5 -99q0 -78 36.5 -119t112.5 -41q31 0 59.5 6t53 15.5t42.5 17.5v-113
q-36 -15 -80 -24.5t-101 -9.5zM152 569v83h264v-83h-264z" />
    <glyph glyph-name="Ebreve" unicode="&#x114;" horiz-adv-x="590" 
d="M75 0v667h447v-109h-310v-169h270v-110h-271v-170h311v-109h-447zM305 699q-43 0 -73 16t-47.5 45t-25.5 67h74q8 -23 25.5 -41t46.5 -18t46 18t26 41h74q-5 -38 -23 -67t-48.5 -45t-74.5 -16z" />
    <glyph glyph-name="ebreve" unicode="&#x115;" horiz-adv-x="558" 
d="M293 -15q-75 0 -131.5 31t-87.5 89.5t-31 141.5q0 132 63.5 202t179.5 70q82 0 133 -36t74 -103t22 -159h-390l-9 86h298l-24 -36q-2 79 -27.5 113.5t-81.5 34.5q-34 0 -59 -15.5t-38.5 -51.5t-13.5 -99q0 -78 36.5 -119t112.5 -41q31 0 59.5 6t53 15.5t42.5 17.5v-113
q-36 -15 -80 -24.5t-101 -9.5zM288 550q-43 0 -73 16t-47.5 45t-25.5 67h74q8 -23 25.5 -41t46.5 -18t46 18t26 41h74q-5 -38 -23 -67t-48.5 -45t-74.5 -16z" />
    <glyph glyph-name="Edotaccent" unicode="&#x116;" horiz-adv-x="590" 
d="M75 0v667h447v-109h-310v-169h270v-110h-271v-170h311v-109h-447zM243 699v94h109v-94h-109z" />
    <glyph glyph-name="edotaccent" unicode="&#x117;" horiz-adv-x="558" 
d="M293 -15q-75 0 -131.5 31t-87.5 89.5t-31 141.5q0 132 63.5 202t179.5 70q82 0 133 -36t74 -103t22 -159h-390l-9 86h298l-24 -36q-2 79 -27.5 113.5t-81.5 34.5q-34 0 -59 -15.5t-38.5 -51.5t-13.5 -99q0 -78 36.5 -119t112.5 -41q31 0 59.5 6t53 15.5t42.5 17.5v-113
q-36 -15 -80 -24.5t-101 -9.5zM226 565v94h109v-94h-109z" />
    <glyph glyph-name="Eogonek" unicode="&#x118;" horiz-adv-x="590" 
d="M75 0v667h447v-109h-310v-169h270v-110h-271v-170h311v-109h-447zM433 -183q-57 0 -86 23t-29 69q0 34 28.5 62t76.5 47l91 -18q-40 -17 -67.5 -37.5t-27.5 -41.5q0 -20 9.5 -27.5t24.5 -7.5q19 0 35 10.5t28 21.5v-79q-14 -8 -33 -15t-50 -7z" />
    <glyph glyph-name="eogonek" unicode="&#x119;" horiz-adv-x="558" 
d="M293 -15q-75 0 -131.5 31t-87.5 89.5t-31 141.5q0 132 63.5 202t179.5 70q82 0 133 -36t74 -103t22 -159h-390l-9 86h298l-24 -36q-2 79 -27.5 113.5t-81.5 34.5q-34 0 -59 -15.5t-38.5 -51.5t-13.5 -99q0 -78 36.5 -119t112.5 -41q31 0 59.5 6t53 15.5t42.5 17.5v-113
q-36 -15 -80 -24.5t-101 -9.5zM381 -168q-57 0 -86 23t-29 69q0 34 28.5 62t76.5 47l91 -18q-40 -17 -67.5 -37.5t-27.5 -41.5q0 -20 9.5 -27.5t24.5 -7.5q19 0 35 10.5t28 21.5v-79q-14 -8 -33 -15t-50 -7z" />
    <glyph glyph-name="Ecaron" unicode="&#x11a;" horiz-adv-x="590" 
d="M75 0v667h447v-109h-310v-169h270v-110h-271v-170h311v-109h-447zM256 702l-81 121h84l44 -62l43 62h84l-75 -121h-99z" />
    <glyph glyph-name="ecaron" unicode="&#x11b;" horiz-adv-x="558" 
d="M293 -15q-75 0 -131.5 31t-87.5 89.5t-31 141.5q0 132 63.5 202t179.5 70q82 0 133 -36t74 -103t22 -159h-390l-9 86h298l-24 -36q-2 79 -27.5 113.5t-81.5 34.5q-34 0 -59 -15.5t-38.5 -51.5t-13.5 -99q0 -78 36.5 -119t112.5 -41q31 0 59.5 6t53 15.5t42.5 17.5v-113
q-36 -15 -80 -24.5t-101 -9.5zM238 574l-81 121h84l44 -62l43 62h84l-75 -121h-99z" />
    <glyph glyph-name="Gcircumflex" unicode="&#x11c;" horiz-adv-x="701" 
d="M369 -12q-100 0 -172 36t-110.5 112.5t-38.5 197.5q0 119 38.5 196t110.5 113.5t171 36.5q61 0 119 -12t112 -35v-127q-57 29 -108 47t-106 18q-65 0 -109.5 -23t-67 -75t-22.5 -139q0 -86 23 -138t66.5 -75.5t104.5 -23.5q31 0 58.5 4.5t51.5 13.5v139h-125v110h261
v-310q-60 -32 -125 -49t-132 -17zM232 723l86 121h104l85 -121h-84l-53 62l-54 -62h-84z" />
    <glyph glyph-name="gcircumflex" unicode="&#x11d;" horiz-adv-x="586" 
d="M267 -15q-71 3 -121 31.5t-76.5 84t-26.5 136.5q0 85 21 139.5t58.5 85t88 43t108.5 12.5t103.5 -15t72 -44.5t26.5 -73.5v-394q0 -47 -14.5 -84.5t-45 -64.5t-77 -41.5t-109.5 -14.5q-60 0 -104 9t-70 20v114q15 -6 41.5 -14.5t59.5 -14.5t66 -6q53 0 80.5 14t37.5 36.5
t10 50.5v79l29 -22q-17 -19 -41.5 -34t-54 -23.5t-62.5 -8.5zM294 84q28 0 54 6.5t48 19.5v247q0 24 -12.5 35.5t-33 16t-43.5 4.5q-54 0 -83.5 -22t-41 -61t-11.5 -87q0 -72 32 -115.5t91 -43.5zM190 574l86 121h104l85 -121h-84l-53 62l-54 -62h-84z" />
    <glyph glyph-name="Gbreve" unicode="&#x11e;" horiz-adv-x="701" 
d="M369 -12q-100 0 -172 36t-110.5 112.5t-38.5 197.5q0 119 38.5 196t110.5 113.5t171 36.5q61 0 119 -12t112 -35v-127q-57 29 -108 47t-106 18q-65 0 -109.5 -23t-67 -75t-22.5 -139q0 -86 23 -138t66.5 -75.5t104.5 -23.5q31 0 58.5 4.5t51.5 13.5v139h-125v110h261
v-310q-60 -32 -125 -49t-132 -17zM370 709q-43 0 -73 16t-47.5 45t-25.5 67h74q8 -23 25.5 -41t46.5 -18t46 18t26 41h74q-5 -38 -23 -67t-48.5 -45t-74.5 -16z" />
    <glyph glyph-name="gbreve" unicode="&#x11f;" horiz-adv-x="586" 
d="M267 -15q-71 3 -121 31.5t-76.5 84t-26.5 136.5q0 85 21 139.5t58.5 85t88 43t108.5 12.5t103.5 -15t72 -44.5t26.5 -73.5v-394q0 -47 -14.5 -84.5t-45 -64.5t-77 -41.5t-109.5 -14.5q-60 0 -104 9t-70 20v114q15 -6 41.5 -14.5t59.5 -14.5t66 -6q53 0 80.5 14t37.5 36.5
t10 50.5v79l29 -22q-17 -19 -41.5 -34t-54 -23.5t-62.5 -8.5zM294 84q28 0 54 6.5t48 19.5v247q0 24 -12.5 35.5t-33 16t-43.5 4.5q-54 0 -83.5 -22t-41 -61t-11.5 -87q0 -72 32 -115.5t91 -43.5zM323 555q-43 0 -73 16t-47.5 45t-25.5 67h74q8 -23 25.5 -41t46.5 -18t46 18
t26 41h74q-5 -38 -23 -67t-48.5 -45t-74.5 -16z" />
    <glyph glyph-name="Gdotaccent" unicode="&#x120;" horiz-adv-x="701" 
d="M369 -12q-100 0 -172 36t-110.5 112.5t-38.5 197.5q0 119 38.5 196t110.5 113.5t171 36.5q61 0 119 -12t112 -35v-127q-57 29 -108 47t-106 18q-65 0 -109.5 -23t-67 -75t-22.5 -139q0 -86 23 -138t66.5 -75.5t104.5 -23.5q31 0 58.5 4.5t51.5 13.5v139h-125v110h261
v-310q-60 -32 -125 -49t-132 -17zM308 709v94h109v-94h-109z" />
    <glyph glyph-name="gdotaccent" unicode="&#x121;" horiz-adv-x="586" 
d="M267 -15q-71 3 -121 31.5t-76.5 84t-26.5 136.5q0 85 21 139.5t58.5 85t88 43t108.5 12.5t103.5 -15t72 -44.5t26.5 -73.5v-394q0 -47 -14.5 -84.5t-45 -64.5t-77 -41.5t-109.5 -14.5q-60 0 -104 9t-70 20v114q15 -6 41.5 -14.5t59.5 -14.5t66 -6q53 0 80.5 14t37.5 36.5
t10 50.5v79l29 -22q-17 -19 -41.5 -34t-54 -23.5t-62.5 -8.5zM294 84q28 0 54 6.5t48 19.5v247q0 24 -12.5 35.5t-33 16t-43.5 4.5q-54 0 -83.5 -22t-41 -61t-11.5 -87q0 -72 32 -115.5t91 -43.5zM261 570v94h109v-94h-109z" />
    <glyph glyph-name="uni0122" unicode="&#x122;" horiz-adv-x="701" 
d="M369 -12q-100 0 -172 36t-110.5 112.5t-38.5 197.5q0 119 38.5 196t110.5 113.5t171 36.5q61 0 119 -12t112 -35v-127q-57 29 -108 47t-106 18q-65 0 -109.5 -23t-67 -75t-22.5 -139q0 -86 23 -138t66.5 -75.5t104.5 -23.5q31 0 58.5 4.5t51.5 13.5v139h-125v110h261
v-310q-60 -32 -125 -49t-132 -17zM288 -193v64q17 6 25.5 17t11.5 27.5t2 35.5h98q0 -44 -17.5 -75.5t-48 -49t-71.5 -19.5z" />
    <glyph glyph-name="uni0123" unicode="&#x123;" horiz-adv-x="586" 
d="M396 708v-65q-17 -4 -25.5 -16t-11 -28t-2.5 -35h-98q0 44 17.5 75t48.5 48.5t71 20.5zM267 -15q-71 3 -121 31.5t-76.5 84t-26.5 136.5q0 85 21 139.5t58.5 85t88 43t108.5 12.5t103.5 -15t72 -44.5t26.5 -73.5v-394q0 -47 -14.5 -84.5t-45 -64.5t-77 -41.5
t-109.5 -14.5q-60 0 -104 9t-70 20v114q15 -6 41.5 -14.5t59.5 -14.5t66 -6q53 0 80.5 14t37.5 36.5t10 50.5v79l29 -22q-17 -19 -41.5 -34t-54 -23.5t-62.5 -8.5zM294 84q28 0 54 6.5t48 19.5v247q0 24 -12.5 35.5t-33 16t-43.5 4.5q-54 0 -83.5 -22t-41 -61t-11.5 -87
q0 -72 32 -115.5t91 -43.5z" />
    <glyph glyph-name="Hcircumflex" unicode="&#x124;" horiz-adv-x="699" 
d="M75 0v667h136v-278h277v278h136v-667h-136v275h-277v-275h-136zM212 713l86 121h104l85 -121h-84l-53 62l-54 -62h-84z" />
    <glyph glyph-name="hcircumflex" unicode="&#x125;" horiz-adv-x="601" 
d="M70 0v710h128v-293l-47 30q39 31 90 50.5t102 19.5q57 0 99 -19.5t65.5 -62t23.5 -113.5v-322h-127v300q0 55 -26.5 82.5t-78.5 27.5q-27 0 -54 -8t-47 -20l-2 -382h-126zM-7 754l86 121h104l85 -121h-84l-53 62l-54 -62h-84z" />
    <glyph glyph-name="Hbar" unicode="&#x126;" horiz-adv-x="699" 
d="M30 485v70h639v-70h-639zM75 0v667h136v-278h277v278h136v-667h-136v275h-277v-275h-136z" />
    <glyph glyph-name="hbar" unicode="&#x127;" horiz-adv-x="601" 
d="M70 0v710h128v-293l-47 30q39 31 90 50.5t102 19.5q57 0 99 -19.5t65.5 -62t23.5 -113.5v-322h-127v300q0 55 -26.5 82.5t-78.5 27.5q-27 0 -54 -8t-47 -20l-2 -382h-126zM-4 558v80h284v-80h-284z" />
    <glyph glyph-name="Itilde" unicode="&#x128;" horiz-adv-x="287" 
d="M75 0v667h137v-667h-137zM45 722h-62q-5 38 8 68t38 47t55 17q25 0 45.5 -9.5t37 -22t32.5 -22.5t32 -10q17 0 25.5 14t5.5 42h67q3 -39 -10.5 -68t-38 -44.5t-55.5 -15.5q-29 0 -50 9.5t-37.5 22t-30 22t-27.5 9.5q-19 0 -28.5 -17.5t-6.5 -41.5z" />
    <glyph glyph-name="itilde" unicode="&#x129;" horiz-adv-x="268" 
d="M70 0v499h127l1 -499h-128zM29 545h-62q-5 38 8 68t38 47t55 17q25 0 45.5 -9.5t37 -22t32.5 -22.5t32 -10q17 0 25.5 14t5.5 42h67q3 -39 -10.5 -68t-38 -44.5t-55.5 -15.5q-29 0 -50 9.5t-37.5 22t-30 22t-27.5 9.5q-19 0 -28.5 -17.5t-6.5 -41.5z" />
    <glyph glyph-name="Imacron" unicode="&#x12a;" horiz-adv-x="287" 
d="M75 0v667h137v-667h-137zM12 713v83h264v-83h-264z" />
    <glyph glyph-name="imacron" unicode="&#x12b;" horiz-adv-x="315" 
d="M98 0v499h122v-499h-122zM42 566v71h233v-71h-233z" />
    <glyph glyph-name="Ibreve" unicode="&#x12c;" horiz-adv-x="287" 
d="M75 0v667h137v-667h-137zM148 699q-43 0 -73 16t-47.5 45t-25.5 67h74q8 -23 25.5 -41t46.5 -18t46 18t26 41h74q-5 -38 -23 -67t-48.5 -45t-74.5 -16z" />
    <glyph glyph-name="ibreve" unicode="&#x12d;" horiz-adv-x="268" 
d="M70 0v499h127l1 -499h-128zM135 540q-43 0 -73 16t-47.5 45t-25.5 67h74q8 -23 25.5 -41t46.5 -18t46 18t26 41h74q-5 -38 -23 -67t-48.5 -45t-74.5 -16z" />
    <glyph glyph-name="Iogonek" unicode="&#x12e;" horiz-adv-x="287" 
d="M128 -183q-57 0 -86 23t-29 69q0 34 31 63.5t80 48.5l85 -21q-40 -17 -67.5 -37.5t-27.5 -41.5q0 -20 9.5 -27.5t24.5 -7.5q19 0 35 10.5t28 21.5v-79q-14 -8 -33 -15t-50 -7zM75 0v667h137v-667h-137z" />
    <glyph glyph-name="iogonek" unicode="&#x12f;" horiz-adv-x="273" 
d="M121 -183q-58 0 -87 23.5t-29 68.5q0 34 31 63.5t79 48.5l87 -20q-41 -18 -68.5 -38.5t-27.5 -41.5q0 -20 9.5 -27.5t25.5 -7.5q19 0 35 10.5t27 21.5v-79q-14 -7 -32.5 -14.5t-49.5 -7.5zM73 0v499h127l1 -499h-128zM70 579v105h133v-105h-133z" />
    <glyph glyph-name="Idotaccent" unicode="&#x130;" horiz-adv-x="287" 
d="M75 0v667h137v-667h-137zM86 699v94h109v-94h-109z" />
    <glyph glyph-name="dotlessi" unicode="&#x131;" horiz-adv-x="268" 
d="M70 0v499h127l1 -499h-128z" />
    <glyph glyph-name="IJ" unicode="&#x132;" horiz-adv-x="758" 
d="M75 0v667h137v-667h-137zM475 -11q-43 0 -80.5 10t-69.5 26v127q31 -21 59.5 -36t59.5 -15q50 0 76.5 25.5t26.5 82.5v458h136v-465q0 -63 -18.5 -104.5t-48.5 -65.5t-67 -33.5t-74 -9.5z" />
    <glyph glyph-name="ij" unicode="&#x133;" horiz-adv-x="567" 
d="M73 0v499h127l1 -499h-128zM70 579v105h133v-105h-133zM281 -193v106q32 -2 50.5 6t27 26t8.5 45v514h127l1 -515q0 -67 -27 -107t-75 -57.5t-112 -17.5zM364 584v105h133v-105h-133z" />
    <glyph glyph-name="Jcircumflex" unicode="&#x134;" horiz-adv-x="471" 
d="M188 -11q-43 0 -80.5 10t-69.5 26v127q31 -21 59.5 -36t59.5 -15q50 0 76.5 25.5t26.5 82.5v458h136v-465q0 -63 -18.5 -104.5t-48.5 -65.5t-67 -33.5t-74 -9.5zM194 713l86 121h104l85 -121h-84l-53 62l-54 -62h-84z" />
    <glyph glyph-name="jcircumflex" unicode="&#x135;" horiz-adv-x="288" 
d="M3 -193v96q32 0 52 8t30 26t10 47v515h122v-510q0 -67 -26.5 -107t-75 -57.5t-112.5 -17.5zM34 560l100 121h45l100 -121h-79l-44 57l-43 -57h-79z" />
    <glyph glyph-name="uni0136" unicode="&#x136;" horiz-adv-x="661" 
d="M204 204l-39 101l283 362h172zM75 0v667h137v-667h-137zM340 403l301 -403h-174l-232 315zM257 -193v64q17 6 25.5 17t11.5 27.5t2 35.5h98q0 -44 -17.5 -75.5t-48 -49t-71.5 -19.5z" />
    <glyph glyph-name="uni0137" unicode="&#x137;" horiz-adv-x="597" 
d="M90 0v688h122v-372l165 183h158l-208 -224l233 -275h-152l-157 190l-39 -42v-148h-122zM229 -193v59q17 6 25.5 18.5t11.5 30t3 36.5h77q1 -44 -16 -75.5t-43.5 -49t-57.5 -19.5z" />
    <glyph glyph-name="kgreenlandic" unicode="&#x138;" horiz-adv-x="597" 
d="M90 0v499h122v-183l165 183h158l-208 -224l233 -275h-152l-157 190l-39 -42v-148h-122z" />
    <glyph glyph-name="Lacute" unicode="&#x139;" horiz-adv-x="546" 
d="M75 0v667h137v-556h304v-111h-441zM117 723l42 114h133l-108 -114h-67z" />
    <glyph glyph-name="lacute" unicode="&#x13a;" horiz-adv-x="266" 
d="M196 0h-126v695h126v-695zM101 734l42 114h133l-108 -114h-67z" />
    <glyph glyph-name="uni013B" unicode="&#x13b;" horiz-adv-x="546" 
d="M75 0v667h137v-556h304v-111h-441zM203 -193v64q17 6 25.5 17t11.5 27.5t2 35.5h98q0 -44 -17.5 -75.5t-48 -49t-71.5 -19.5z" />
    <glyph glyph-name="uni013C" unicode="&#x13c;" horiz-adv-x="266" 
d="M196 0h-126v695h126v-695zM60 -193v64q17 6 25.5 17t11.5 27.5t2 35.5h98q0 -44 -17.5 -75.5t-48 -49t-71.5 -19.5z" />
    <glyph glyph-name="Lcaron" unicode="&#x13d;" horiz-adv-x="546" 
d="M75 0v667h137v-556h304v-111h-441zM363 526v64q17 6 25.5 17t11.5 27.5t2 35.5h98q0 -44 -17.5 -75.5t-48 -49t-71.5 -19.5z" />
    <glyph glyph-name="lcaron" unicode="&#x13e;" horiz-adv-x="344" 
d="M101 0v689h122v-689h-122zM267 546v59q17 5 25 18t11 30.5t3 35.5h77q1 -43 -16 -74.5t-43.5 -49t-56.5 -19.5z" />
    <glyph glyph-name="Ldot" unicode="&#x13f;" horiz-adv-x="546" 
d="M75 0v667h137v-556h304v-111h-441zM324 278v109h111v-109h-111z" />
    <glyph glyph-name="ldot" unicode="&#x140;" horiz-adv-x="402" 
d="M196 0h-126v695h126v-695zM273 282v109h111v-109h-111z" />
    <glyph glyph-name="Lslash" unicode="&#x141;" horiz-adv-x="549" 
d="M209 378v-29l-60 -16v29zM75 0v667h137v-556h304v-111h-441z" />
    <glyph glyph-name="lslash" unicode="&#x142;" horiz-adv-x="351" 
d="M109 0v278l-82 -49v93l82 49v318h122v-247l104 62v-93l-104 -62v-349h-122z" />
    <glyph glyph-name="Nacute" unicode="&#x143;" horiz-adv-x="724" 
d="M75 0v667h122l364 -497l-39 -80v577h127v-667h-111l-372 500l36 61v-561h-127zM330 723l42 114h133l-108 -114h-67z" />
    <glyph glyph-name="nacute" unicode="&#x144;" horiz-adv-x="598" 
d="M70 462q21 11 50 21t63 17.5t69 12t66 4.5q69 0 115.5 -18.5t70.5 -58.5t24 -104v-336h-127v314q0 19 -5 36.5t-17 31t-33 21t-54 7.5q-25 0 -50.5 -5t-44.5 -13v-392h-127v462zM258 565l49 121h126l-103 -121h-72z" />
    <glyph glyph-name="uni0145" unicode="&#x145;" horiz-adv-x="724" 
d="M75 0v667h122l364 -497l-39 -80v577h127v-667h-111l-372 500l36 61v-561h-127zM289 -193v64q17 6 25.5 17t11.5 27.5t2 35.5h98q0 -44 -17.5 -75.5t-48 -49t-71.5 -19.5z" />
    <glyph glyph-name="uni0146" unicode="&#x146;" horiz-adv-x="598" 
d="M70 462q21 11 50 21t63 17.5t69 12t66 4.5q69 0 115.5 -18.5t70.5 -58.5t24 -104v-336h-127v314q0 19 -5 36.5t-17 31t-33 21t-54 7.5q-25 0 -50.5 -5t-44.5 -13v-392h-127v462zM225 -193v64q17 6 25.5 17t11.5 27.5t2 35.5h98q0 -44 -17.5 -75.5t-48 -49t-71.5 -19.5z
" />
    <glyph glyph-name="Ncaron" unicode="&#x147;" horiz-adv-x="724" 
d="M75 0v667h122l364 -497l-39 -80v577h127v-667h-111l-372 500l36 61v-561h-127zM314 702l-81 121h84l44 -62l43 62h84l-75 -121h-99z" />
    <glyph glyph-name="ncaron" unicode="&#x148;" horiz-adv-x="598" 
d="M70 462q21 11 50 21t63 17.5t69 12t66 4.5q69 0 115.5 -18.5t70.5 -58.5t24 -104v-336h-127v314q0 19 -5 36.5t-17 31t-33 21t-54 7.5q-25 0 -50.5 -5t-44.5 -13v-392h-127v462zM250 574l-81 121h84l44 -62l43 62h84l-75 -121h-99z" />
    <glyph glyph-name="napostrophe" unicode="&#x149;" horiz-adv-x="614" 
d="M82 0v453q6 3 25.5 11.5t50 18t70 17t84.5 7.5q100 0 157 -52t57 -145v-310h-122v323q0 18 -6.5 37t-29.5 32.5t-73 13.5q-27 0 -49.5 -3.5t-41.5 -9.5v-393h-122zM34 520v60q17 5 25.5 17.5t11.5 30.5t2 36h78q0 -44 -16.5 -75t-43.5 -48.5t-57 -20.5z" />
    <glyph glyph-name="Eng" unicode="&#x14a;" horiz-adv-x="760" 
d="M456 -182v95q31 1 51 8t30.5 24t10.5 45v40l21 -62l-360 512v-480h-122v667h127l334 -481v481h122v-671q-1 -66 -28 -105t-74.5 -56t-111.5 -17z" />
    <glyph glyph-name="eng" unicode="&#x14b;" horiz-adv-x="610" 
d="M69 0v436q17 12 52.5 29t81.5 29.5t94 12.5q64 0 113 -18.5t77 -58t28 -102.5v-332q0 -51 -16 -85.5t-45 -54.5t-68.5 -29t-87.5 -9v100q31 1 51 8.5t30.5 25.5t10.5 47v298q0 26 -8 48t-30 36t-66 14q-29 0 -53.5 -7.5t-38.5 -13.5v-374h-125z" />
    <glyph glyph-name="Omacron" unicode="&#x14c;" horiz-adv-x="732" 
d="M366 -12q-99 0 -170.5 37.5t-109.5 114t-38 193.5q0 171 82.5 258.5t235.5 87.5q99 0 170.5 -37.5t109.5 -114t38 -193.5q0 -171 -82.5 -258.5t-235.5 -87.5zM366 102q59 0 98.5 23t59.5 74.5t20 134.5q0 84 -20 134.5t-59.5 73.5t-98.5 23t-98.5 -23.5t-59.5 -74
t-20 -134.5t20 -134.5t59.5 -73.5t98.5 -23zM235 728v83h264v-83h-264z" />
    <glyph glyph-name="omacron" unicode="&#x14d;" horiz-adv-x="584" 
d="M292 -15q-125 0 -187 69t-62 199q0 140 63.5 203t184.5 63q84 0 139.5 -29.5t83.5 -88.5t28 -148q0 -130 -65 -199t-185 -69zM291 89q44 0 71.5 20t40.5 57t13 87q0 57 -13.5 93t-41 53t-70.5 17q-44 0 -71 -18t-39 -54t-12 -91q0 -79 28.5 -121.5t93.5 -42.5zM159 574
v83h264v-83h-264z" />
    <glyph glyph-name="Obreve" unicode="&#x14e;" horiz-adv-x="732" 
d="M366 -12q-99 0 -170.5 37.5t-109.5 114t-38 193.5q0 171 82.5 258.5t235.5 87.5q99 0 170.5 -37.5t109.5 -114t38 -193.5q0 -171 -82.5 -258.5t-235.5 -87.5zM366 102q59 0 98.5 23t59.5 74.5t20 134.5q0 84 -20 134.5t-59.5 73.5t-98.5 23t-98.5 -23.5t-59.5 -74
t-20 -134.5t20 -134.5t59.5 -73.5t98.5 -23zM370 714q-43 0 -73 16t-47.5 45t-25.5 67h74q8 -23 25.5 -41t46.5 -18t46 18t26 41h74q-5 -38 -23 -67t-48.5 -45t-74.5 -16z" />
    <glyph glyph-name="obreve" unicode="&#x14f;" horiz-adv-x="584" 
d="M292 -15q-125 0 -187 69t-62 199q0 140 63.5 203t184.5 63q84 0 139.5 -29.5t83.5 -88.5t28 -148q0 -130 -65 -199t-185 -69zM291 89q44 0 71.5 20t40.5 57t13 87q0 57 -13.5 93t-41 53t-70.5 17q-44 0 -71 -18t-39 -54t-12 -91q0 -79 28.5 -121.5t93.5 -42.5zM294 555
q-43 0 -73 16t-47.5 45t-25.5 67h74q8 -23 25.5 -41t46.5 -18t46 18t26 41h74q-5 -38 -23 -67t-48.5 -45t-74.5 -16z" />
    <glyph glyph-name="Ohungarumlaut" unicode="&#x150;" horiz-adv-x="732" 
d="M366 -12q-99 0 -170.5 37.5t-109.5 114t-38 193.5q0 171 82.5 258.5t235.5 87.5q99 0 170.5 -37.5t109.5 -114t38 -193.5q0 -171 -82.5 -258.5t-235.5 -87.5zM366 102q59 0 98.5 23t59.5 74.5t20 134.5q0 84 -20 134.5t-59.5 73.5t-98.5 23t-98.5 -23.5t-59.5 -74
t-20 -134.5t20 -134.5t59.5 -73.5t98.5 -23zM400 729l59 116h96l-88 -116h-67zM264 729l60 116h95l-88 -116h-67z" />
    <glyph glyph-name="ohungarumlaut" unicode="&#x151;" horiz-adv-x="584" 
d="M292 -15q-125 0 -187 69t-62 199q0 140 63.5 203t184.5 63q84 0 139.5 -29.5t83.5 -88.5t28 -148q0 -130 -65 -199t-185 -69zM291 89q44 0 71.5 20t40.5 57t13 87q0 57 -13.5 93t-41 53t-70.5 17q-44 0 -71 -18t-39 -54t-12 -91q0 -79 28.5 -121.5t93.5 -42.5zM324 575
l59 116h96l-88 -116h-67zM188 575l60 116h95l-88 -116h-67z" />
    <glyph glyph-name="OE" unicode="&#x152;" horiz-adv-x="1060" 
d="M366 -12q-99 0 -170.5 37.5t-109.5 114t-38 193.5q0 171 82.5 258.5t235.5 87.5q99 0 170.5 -37.5t109.5 -114t38 -193.5q0 -171 -82.5 -258.5t-235.5 -87.5zM366 102q59 0 98.5 23t59.5 74.5t20 134.5q0 84 -20 134.5t-59.5 73.5t-98.5 23t-98.5 -23.5t-59.5 -74
t-20 -134.5t20 -134.5t59.5 -73.5t98.5 -23zM546 0v667h447v-109h-310v-169h270v-110h-271v-170h311v-109h-447z" />
    <glyph glyph-name="oe" unicode="&#x153;" horiz-adv-x="933" 
d="M292 -15q-125 0 -187 69t-62 199q0 140 63.5 203t184.5 63q84 0 139.5 -29.5t83.5 -88.5t28 -148q0 -130 -65 -199t-185 -69zM291 89q44 0 71.5 20t40.5 57t13 87q0 57 -13.5 93t-41 53t-70.5 17q-44 0 -71 -18t-39 -54t-12 -91q0 -79 28.5 -121.5t93.5 -42.5zM668 -15
q-75 0 -131.5 31t-87.5 89.5t-31 141.5q0 132 63.5 202t179.5 70q82 0 133 -36t74 -103t22 -159h-390l-9 86h298l-24 -36q-2 79 -27.5 113.5t-81.5 34.5q-34 0 -59 -15.5t-38.5 -51.5t-13.5 -99q0 -78 36.5 -119t112.5 -41q31 0 59.5 6t53 15.5t42.5 17.5v-113
q-36 -15 -80 -24.5t-101 -9.5z" />
    <glyph glyph-name="Racute" unicode="&#x154;" horiz-adv-x="687" 
d="M75 0v667h311q108 0 168 -51.5t60 -154.5q0 -48 -19.5 -91.5t-57 -72.5t-91.5 -36l1 45l200 -306h-171l-176 295l61 -54h-150v-241h-136zM211 346h146q54 0 83 26t29 82q0 50 -24 77t-76 27h-158v-212zM287 723l42 114h133l-108 -114h-67z" />
    <glyph glyph-name="racute" unicode="&#x155;" horiz-adv-x="414" 
d="M70 0v455q14 10 49.5 24.5t82.5 26t95 11.5q36 0 57.5 -5.5t34.5 -13.5v-96q-20 3 -45.5 5t-52 1.5t-51 -2.5t-43.5 -5v-401h-127zM154 565l49 121h126l-103 -121h-72z" />
    <glyph glyph-name="uni0156" unicode="&#x156;" horiz-adv-x="687" 
d="M75 0v667h311q108 0 168 -51.5t60 -154.5q0 -48 -19.5 -91.5t-57 -72.5t-91.5 -36l1 45l200 -306h-171l-176 295l61 -54h-150v-241h-136zM211 346h146q54 0 83 26t29 82q0 50 -24 77t-76 27h-158v-212zM271 -193v64q17 6 25.5 17t11.5 27.5t2 35.5h98q0 -44 -17.5 -75.5
t-48 -49t-71.5 -19.5z" />
    <glyph glyph-name="uni0157" unicode="&#x157;" horiz-adv-x="414" 
d="M70 0v455q14 10 49.5 24.5t82.5 26t95 11.5q36 0 57.5 -5.5t34.5 -13.5v-96q-20 3 -45.5 5t-52 1.5t-51 -2.5t-43.5 -5v-401h-127zM45 -193v64q17 6 25.5 17t11.5 27.5t2 35.5h98q0 -44 -17.5 -75.5t-48 -49t-71.5 -19.5z" />
    <glyph glyph-name="Rcaron" unicode="&#x158;" horiz-adv-x="687" 
d="M75 0v667h311q108 0 168 -51.5t60 -154.5q0 -48 -19.5 -91.5t-57 -72.5t-91.5 -36l1 45l200 -306h-171l-176 295l61 -54h-150v-241h-136zM211 346h146q54 0 83 26t29 82q0 50 -24 77t-76 27h-158v-212zM270 702l-81 121h84l44 -62l43 62h84l-75 -121h-99z" />
    <glyph glyph-name="rcaron" unicode="&#x159;" horiz-adv-x="414" 
d="M70 0v455q14 10 49.5 24.5t82.5 26t95 11.5q36 0 57.5 -5.5t34.5 -13.5v-96q-20 3 -45.5 5t-52 1.5t-51 -2.5t-43.5 -5v-401h-127zM146 574l-81 121h84l44 -62l43 62h84l-75 -121h-99z" />
    <glyph glyph-name="Sacute" unicode="&#x15a;" horiz-adv-x="571" 
d="M289 -12q-50 0 -89.5 5t-72.5 16t-66 28v132q42 -34 99 -53.5t115 -19.5q54 0 81.5 21.5t27.5 61.5q0 31 -22.5 50t-59.5 33t-81 29q-31 11 -60.5 24.5t-53 34.5t-37.5 52.5t-14 77.5q0 37 14 73t43 65t75.5 46t109.5 17q41 0 71.5 -5t58 -15t58.5 -25v-132
q-24 17 -51 32.5t-57.5 25.5t-66.5 11t-62 -8t-40 -27t-14 -43q0 -31 17.5 -49.5t48.5 -30.5t70 -24t74 -27t61.5 -36.5t41.5 -53.5t15 -78q0 -56 -25.5 -103.5t-77.5 -76t-131 -28.5zM265 738l42 114h133l-108 -114h-67z" />
    <glyph glyph-name="sacute" unicode="&#x15b;" horiz-adv-x="475" 
d="M218 -15q-54 0 -92 11.5t-73 27.5v115q23 -15 48.5 -28.5t55 -21.5t64.5 -8q39 0 58.5 15t19.5 38q0 20 -15 31.5t-39 19.5t-51 16q-25 6 -50.5 16t-46.5 27t-33.5 43.5t-12.5 64.5q0 45 18 76t47.5 50.5t64 28t67.5 7.5q58 -1 93 -13t66 -29v-104q-35 19 -67.5 34.5
t-75.5 15.5q-39 0 -60.5 -13.5t-21.5 -37.5q0 -21 13 -33.5t34.5 -20t46.5 -14.5t51.5 -15.5t50 -24t38 -42.5t14.5 -70q-1 -59 -31.5 -94.5t-78.5 -51.5t-102 -16zM197 565l49 121h126l-103 -121h-72z" />
    <glyph glyph-name="Scircumflex" unicode="&#x15c;" horiz-adv-x="571" 
d="M289 -12q-50 0 -89.5 5t-72.5 16t-66 28v132q42 -34 99 -53.5t115 -19.5q54 0 81.5 21.5t27.5 61.5q0 31 -22.5 50t-59.5 33t-81 29q-31 11 -60.5 24.5t-53 34.5t-37.5 52.5t-14 77.5q0 37 14 73t43 65t75.5 46t109.5 17q41 0 71.5 -5t58 -15t58.5 -25v-132
q-24 17 -51 32.5t-57.5 25.5t-66.5 11t-62 -8t-40 -27t-14 -43q0 -31 17.5 -49.5t48.5 -30.5t70 -24t74 -27t61.5 -36.5t41.5 -53.5t15 -78q0 -56 -25.5 -103.5t-77.5 -76t-131 -28.5zM160 728l86 121h104l85 -121h-84l-53 62l-54 -62h-84z" />
    <glyph glyph-name="scircumflex" unicode="&#x15d;" horiz-adv-x="475" 
d="M218 -15q-54 0 -92 11.5t-73 27.5v115q23 -15 48.5 -28.5t55 -21.5t64.5 -8q39 0 58.5 15t19.5 38q0 20 -15 31.5t-39 19.5t-51 16q-25 6 -50.5 16t-46.5 27t-33.5 43.5t-12.5 64.5q0 45 18 76t47.5 50.5t64 28t67.5 7.5q58 -1 93 -13t66 -29v-104q-35 19 -67.5 34.5
t-75.5 15.5q-39 0 -60.5 -13.5t-21.5 -37.5q0 -21 13 -33.5t34.5 -20t46.5 -14.5t51.5 -15.5t50 -24t38 -42.5t14.5 -70q-1 -59 -31.5 -94.5t-78.5 -51.5t-102 -16zM105 569l86 121h104l85 -121h-84l-53 62l-54 -62h-84z" />
    <glyph glyph-name="Scedilla" unicode="&#x15e;" horiz-adv-x="571" 
d="M289 -12q-50 0 -89.5 5t-72.5 16t-66 28v132q42 -34 99 -53.5t115 -19.5q54 0 81.5 21.5t27.5 61.5q0 31 -22.5 50t-59.5 33t-81 29q-31 11 -60.5 24.5t-53 34.5t-37.5 52.5t-14 77.5q0 37 14 73t43 65t75.5 46t109.5 17q41 0 71.5 -5t58 -15t58.5 -25v-132
q-24 17 -51 32.5t-57.5 25.5t-66.5 11t-62 -8t-40 -27t-14 -43q0 -31 17.5 -49.5t48.5 -30.5t70 -24t74 -27t61.5 -36.5t41.5 -53.5t15 -78q0 -56 -25.5 -103.5t-77.5 -76t-131 -28.5zM160 -118l88 124h85l-55 -124h-118z" />
    <glyph glyph-name="scedilla" unicode="&#x15f;" horiz-adv-x="475" 
d="M218 -15q-54 0 -92 11.5t-73 27.5v115q23 -15 48.5 -28.5t55 -21.5t64.5 -8q39 0 58.5 15t19.5 38q0 20 -15 31.5t-39 19.5t-51 16q-25 6 -50.5 16t-46.5 27t-33.5 43.5t-12.5 64.5q0 45 18 76t47.5 50.5t64 28t67.5 7.5q58 -1 93 -13t66 -29v-104q-35 19 -67.5 34.5
t-75.5 15.5q-39 0 -60.5 -13.5t-21.5 -37.5q0 -21 13 -33.5t34.5 -20t46.5 -14.5t51.5 -15.5t50 -24t38 -42.5t14.5 -70q-1 -59 -31.5 -94.5t-78.5 -51.5t-102 -16zM132 -129l88 124h85l-55 -124h-118z" />
    <glyph glyph-name="Scaron" unicode="&#x160;" horiz-adv-x="571" 
d="M289 -12q-50 0 -89.5 5t-72.5 16t-66 28v132q42 -34 99 -53.5t115 -19.5q54 0 81.5 21.5t27.5 61.5q0 31 -22.5 50t-59.5 33t-81 29q-31 11 -60.5 24.5t-53 34.5t-37.5 52.5t-14 77.5q0 37 14 73t43 65t75.5 46t109.5 17q41 0 71.5 -5t58 -15t58.5 -25v-132
q-24 17 -51 32.5t-57.5 25.5t-66.5 11t-62 -8t-40 -27t-14 -43q0 -31 17.5 -49.5t48.5 -30.5t70 -24t74 -27t61.5 -36.5t41.5 -53.5t15 -78q0 -56 -25.5 -103.5t-77.5 -76t-131 -28.5zM248 717l-81 121h84l44 -62l43 62h84l-75 -121h-99z" />
    <glyph glyph-name="scaron" unicode="&#x161;" horiz-adv-x="475" 
d="M218 -15q-54 0 -92 11.5t-73 27.5v115q23 -15 48.5 -28.5t55 -21.5t64.5 -8q39 0 58.5 15t19.5 38q0 20 -15 31.5t-39 19.5t-51 16q-25 6 -50.5 16t-46.5 27t-33.5 43.5t-12.5 64.5q0 45 18 76t47.5 50.5t64 28t67.5 7.5q58 -1 93 -13t66 -29v-104q-35 19 -67.5 34.5
t-75.5 15.5q-39 0 -60.5 -13.5t-21.5 -37.5q0 -21 13 -33.5t34.5 -20t46.5 -14.5t51.5 -15.5t50 -24t38 -42.5t14.5 -70q-1 -59 -31.5 -94.5t-78.5 -51.5t-102 -16zM189 574l-81 121h84l44 -62l43 62h84l-75 -121h-99z" />
    <glyph glyph-name="uni0162" unicode="&#x162;" horiz-adv-x="586" 
d="M224 0v558h-201v109h540v-109h-203v-558h-136zM183 -118l88 124h85l-55 -124h-118z" />
    <glyph glyph-name="uni0163" unicode="&#x163;" horiz-adv-x="399" 
d="M263 -16q-78 0 -119 38.5t-41 111.5v270h-78v100h78v140h132v-140h116v-100h-116v-250q0 -30 11.5 -45t41.5 -15q16 0 33.5 5t29.5 13v-110q-19 -10 -42.5 -14t-45.5 -4zM111 -129l88 124h85l-55 -124h-118z" />
    <glyph glyph-name="Tcaron" unicode="&#x164;" horiz-adv-x="575" 
d="M226 0v554h-214v113h551v-113h-215v-554h-122zM265 724l-100 122h79l44 -58l43 58h79l-100 -122h-45z" />
    <glyph glyph-name="tcaron" unicode="&#x165;" horiz-adv-x="406" 
d="M263 -16q-78 0 -119 38.5t-41 111.5v270h-78v100h78v140h132v-140h116v-100h-116v-250q0 -30 11.5 -45t41.5 -15q16 0 33.5 5t29.5 13v-110q-19 -10 -42.5 -14t-45.5 -4zM285 557l74 196h111l-90 -196h-95z" />
    <glyph glyph-name="Tbar" unicode="&#x166;" horiz-adv-x="586" 
d="M224 0v558h-201v109h540v-109h-203v-558h-136zM152 294v80h284v-80h-284z" />
    <glyph glyph-name="tbar" unicode="&#x167;" horiz-adv-x="378" 
d="M257 -7q-29 0 -57 8t-50 26t-35 48.5t-13 75.5v78h-64v79h64v101h-78v90h78v145h122v-145h116v-90h-116v-101h102v-79h-102v-93q0 -24 12.5 -36t38.5 -12q16 0 32 4.5t33 13.5v-95q-19 -10 -40 -14t-43 -4z" />
    <glyph glyph-name="Utilde" unicode="&#x168;" horiz-adv-x="716" 
d="M369 -17q-145 0 -219.5 67.5t-74.5 205.5v411h141v-407q0 -86 36 -127t111 -41q71 0 109.5 41t38.5 127v407h130v-411q0 -92 -34 -153t-95 -90.5t-143 -29.5zM256 727h-62q-5 38 8 68t38 47t55 17q25 0 45.5 -9.5t37 -22t32.5 -22.5t32 -10q17 0 25.5 14t5.5 42h67
q3 -39 -10.5 -68t-38 -44.5t-55.5 -15.5q-29 0 -50 9.5t-37.5 22t-30 22t-27.5 9.5q-19 0 -28.5 -17.5t-6.5 -41.5z" />
    <glyph glyph-name="utilde" unicode="&#x169;" horiz-adv-x="595" 
d="M300 -15q-69 0 -121 22.5t-80.5 67.5t-28.5 115v314h127v-300q0 -56 25 -83t79 -27t78.5 27t24.5 83v300h121v-314q0 -104 -60 -154.5t-165 -50.5zM198 555h-62q-5 38 8 68t38 47t55 17q25 0 45.5 -9.5t37 -22t32.5 -22.5t32 -10q17 0 25.5 14t5.5 42h67q3 -39 -10.5 -68
t-38 -44.5t-55.5 -15.5q-29 0 -50 9.5t-37.5 22t-30 22t-27.5 9.5q-19 0 -28.5 -17.5t-6.5 -41.5z" />
    <glyph glyph-name="Umacron" unicode="&#x16a;" horiz-adv-x="716" 
d="M369 -17q-145 0 -219.5 67.5t-74.5 205.5v411h141v-407q0 -86 36 -127t111 -41q71 0 109.5 41t38.5 127v407h130v-411q0 -92 -34 -153t-95 -90.5t-143 -29.5zM223 718v83h264v-83h-264z" />
    <glyph glyph-name="umacron" unicode="&#x16b;" horiz-adv-x="595" 
d="M300 -15q-69 0 -121 22.5t-80.5 67.5t-28.5 115v314h127v-300q0 -56 25 -83t79 -27t78.5 27t24.5 83v300h121v-314q0 -104 -60 -154.5t-165 -50.5zM168 569v83h264v-83h-264z" />
    <glyph glyph-name="Ubreve" unicode="&#x16c;" horiz-adv-x="716" 
d="M369 -17q-145 0 -219.5 67.5t-74.5 205.5v411h141v-407q0 -86 36 -127t111 -41q71 0 109.5 41t38.5 127v407h130v-411q0 -92 -34 -153t-95 -90.5t-143 -29.5zM359 704q-43 0 -73 16t-47.5 45t-25.5 67h74q8 -23 25.5 -41t46.5 -18t46 18t26 41h74q-5 -38 -23 -67
t-48.5 -45t-74.5 -16z" />
    <glyph glyph-name="ubreve" unicode="&#x16d;" horiz-adv-x="595" 
d="M300 -15q-69 0 -121 22.5t-80.5 67.5t-28.5 115v314h127v-300q0 -56 25 -83t79 -27t78.5 27t24.5 83v300h121v-314q0 -104 -60 -154.5t-165 -50.5zM303 550q-43 0 -73 16t-47.5 45t-25.5 67h74q8 -23 25.5 -41t46.5 -18t46 18t26 41h74q-5 -38 -23 -67t-48.5 -45
t-74.5 -16z" />
    <glyph glyph-name="Uring" unicode="&#x16e;" horiz-adv-x="716" 
d="M369 -17q-145 0 -219.5 67.5t-74.5 205.5v411h141v-407q0 -86 36 -127t111 -41q71 0 109.5 41t38.5 127v407h130v-411q0 -92 -34 -153t-95 -90.5t-143 -29.5zM357 663q-57 0 -85.5 24t-28.5 70t28.5 70t85.5 24t85.5 -24t28.5 -70t-28.5 -70t-85.5 -24zM357 717
q28 0 39 9t11 31t-11 31t-39 9t-39 -9t-11 -31t11 -31t39 -9z" />
    <glyph glyph-name="uring" unicode="&#x16f;" horiz-adv-x="595" 
d="M300 -15q-69 0 -121 22.5t-80.5 67.5t-28.5 115v314h127v-300q0 -56 25 -83t79 -27t78.5 27t24.5 83v300h121v-314q0 -104 -60 -154.5t-165 -50.5zM303 545q-57 0 -85.5 24t-28.5 70t28.5 70t85.5 24t85.5 -24t28.5 -70t-28.5 -70t-85.5 -24zM303 599q28 0 39 9t11 31
t-11 31t-39 9t-39 -9t-11 -31t11 -31t39 -9z" />
    <glyph glyph-name="Uhungarumlaut" unicode="&#x170;" horiz-adv-x="716" 
d="M369 -17q-145 0 -219.5 67.5t-74.5 205.5v411h141v-407q0 -86 36 -127t111 -41q71 0 109.5 41t38.5 127v407h130v-411q0 -92 -34 -153t-95 -90.5t-143 -29.5zM389 719l59 116h96l-88 -116h-67zM253 719l60 116h95l-88 -116h-67z" />
    <glyph glyph-name="uhungarumlaut" unicode="&#x171;" horiz-adv-x="595" 
d="M300 -15q-69 0 -121 22.5t-80.5 67.5t-28.5 115v314h127v-300q0 -56 25 -83t79 -27t78.5 27t24.5 83v300h121v-314q0 -104 -60 -154.5t-165 -50.5zM333 570l59 116h96l-88 -116h-67zM197 570l60 116h95l-88 -116h-67z" />
    <glyph glyph-name="Uogonek" unicode="&#x172;" horiz-adv-x="716" 
d="M369 -17q-145 0 -219.5 67.5t-74.5 205.5v411h141v-407q0 -86 36 -127t111 -41q71 0 109.5 41t38.5 127v407h130v-411q0 -92 -34 -153t-95 -90.5t-143 -29.5zM402 -183q-57 0 -86 23t-29 69q0 34 28.5 62t76.5 47l91 -18q-40 -17 -67.5 -37.5t-27.5 -41.5
q0 -20 9.5 -27.5t24.5 -7.5q19 0 35 10.5t28 21.5v-79q-14 -8 -33 -15t-50 -7z" />
    <glyph glyph-name="uogonek" unicode="&#x173;" horiz-adv-x="595" 
d="M300 -15q-69 0 -121 22.5t-80.5 67.5t-28.5 115v314h127v-300q0 -56 25 -83t79 -27t78.5 27t24.5 83v300h121v-314q0 -104 -60 -154.5t-165 -50.5zM336 -183q-57 0 -86 23t-29 69q0 34 28.5 62t76.5 47l91 -18q-40 -17 -67.5 -37.5t-27.5 -41.5q0 -20 9.5 -27.5
t24.5 -7.5q19 0 35 10.5t28 21.5v-79q-14 -8 -33 -15t-50 -7z" />
    <glyph glyph-name="Wcircumflex" unicode="&#x174;" horiz-adv-x="1000" 
d="M220 0l-195 667h148l138 -543h-25l159 543h110l163 -550h-29l138 550h148l-195 -667h-135l-158 512h28l-160 -512h-135zM363 713l86 121h104l85 -121h-84l-53 62l-54 -62h-84z" />
    <glyph glyph-name="wcircumflex" unicode="&#x175;" horiz-adv-x="818" 
d="M196 0l-168 504h136l120 -419l-39 -4l115 423h98l113 -411h-31l118 411h133l-168 -504h-117l-110 360l22 -6l-105 -354h-117zM278 559l86 121h104l85 -121h-84l-53 62l-54 -62h-84z" />
    <glyph glyph-name="Ycircumflex" unicode="&#x176;" horiz-adv-x="665" 
d="M271 0v294l-252 373h167l196 -317l-60 2l182 315h140l-257 -407l20 74v-334h-136zM215 713l86 121h104l85 -121h-84l-53 62l-54 -62h-84z" />
    <glyph glyph-name="ycircumflex" unicode="&#x177;" horiz-adv-x="578" 
d="M164 -195q-22 0 -42.5 4.5t-35.5 10.5v106q14 -5 27 -8t28 -3q27 0 46.5 14t32.5 42.5t21 73.5l2 -69l-215 528h145l130 -375h-15l128 375h135l-203 -523q-26 -67 -56.5 -105.5t-62.5 -54.5t-65 -16zM159 559l86 121h104l85 -121h-84l-53 62l-54 -62h-84z" />
    <glyph glyph-name="Ydieresis" unicode="&#x178;" horiz-adv-x="665" 
d="M271 0v294l-252 373h167l196 -317l-60 2l182 315h140l-257 -407l20 74v-334h-136zM379 710v94h115v-94h-115zM206 710v94h114v-94h-114z" />
    <glyph glyph-name="Zacute" unicode="&#x179;" horiz-adv-x="627" 
d="M57 0v103l371 486l33 -32h-397v110h503v-100l-356 -480l-40 23h396v-110h-510zM286 723l42 114h133l-108 -114h-67z" />
    <glyph glyph-name="zacute" unicode="&#x17a;" horiz-adv-x="482" 
d="M45 0v103l279 332l14 -28h-287v97h386v-101l-265 -332l-3 33h268v-104h-392zM206 555l49 121h126l-103 -121h-72z" />
    <glyph glyph-name="Zdotaccent" unicode="&#x17b;" horiz-adv-x="627" 
d="M57 0v103l371 486l33 -32h-397v110h503v-100l-356 -480l-40 23h396v-110h-510zM257 699v94h109v-94h-109z" />
    <glyph glyph-name="zdotaccent" unicode="&#x17c;" horiz-adv-x="482" 
d="M45 0v103l279 332l14 -28h-287v97h386v-101l-265 -332l-3 33h268v-104h-392zM185 555v94h109v-94h-109z" />
    <glyph glyph-name="Zcaron" unicode="&#x17d;" horiz-adv-x="627" 
d="M57 0v103l371 486l33 -32h-397v110h503v-100l-356 -480l-40 23h396v-110h-510zM270 702l-81 121h84l44 -62l43 62h84l-75 -121h-99z" />
    <glyph glyph-name="zcaron" unicode="&#x17e;" horiz-adv-x="482" 
d="M45 0v103l279 332l14 -28h-287v97h386v-101l-265 -332l-3 33h268v-104h-392zM197 564l-81 121h84l44 -62l43 62h84l-75 -121h-99z" />
    <glyph glyph-name="uni018F" unicode="&#x18f;" horiz-adv-x="733" 
d="M350 679q102 0 177 -41.5t116.5 -121t41.5 -194.5q0 -110 -39 -185.5t-112.5 -115t-176.5 -39.5q-110 0 -178.5 45.5t-100 129t-30.5 196.5h555l9 -91h-463l32 36q1 -78 21 -124.5t59.5 -66.5t100.5 -20q54 0 95.5 20.5t65 70t23.5 138.5q0 129 -57 189.5t-165 60.5
q-46 0 -91 -9t-82 -22t-62 -26v117q51 24 115.5 38.5t145.5 14.5z" />
    <glyph glyph-name="florin" unicode="&#x192;" horiz-adv-x="345" 
d="M55 -122q-9 0 -22 0.5t-26 3.5v85q12 -2 17.5 -2h9.5q16 0 31.5 1.5t28.5 10.5t21 30t8 59v347h-86v89h86v11q1 44 11 75t27.5 51.5t38.5 31.5t44.5 15.5t46.5 4.5q10 0 24.5 -1t22.5 -3v-86l-14 2t-13 1q-15 0 -30.5 -2.5t-28.5 -11t-21 -27t-8 -50.5v-11h115v-89h-115
v-347q0 -46 -10 -79t-27 -54.5t-38.5 -33.5t-45 -16.5t-47.5 -4.5z" />
    <glyph glyph-name="uni019D" unicode="&#x19d;" horiz-adv-x="742" 
d="M221 -11q0 -67 -26.5 -107t-74.5 -57.5t-112 -17.5v106q32 -2 50.5 6t27 26t8.5 45v677h122l364 -497l-40 -80v577h127v-667h-110l-373 500l37 61v-572z" />
    <glyph glyph-name="Ohorn" unicode="&#x1a0;" horiz-adv-x="732" 
d="M366 -12q-99 0 -170.5 37.5t-109.5 114t-38 193.5q0 171 82.5 258.5t235.5 87.5q99 0 170.5 -37.5t109.5 -114t38 -193.5q0 -171 -82.5 -258.5t-235.5 -87.5zM366 102q59 0 98.5 23t59.5 74.5t20 134.5q0 84 -20 134.5t-59.5 73.5t-98.5 23t-98.5 -23.5t-59.5 -74
t-20 -134.5t20 -134.5t59.5 -73.5t98.5 -23zM464 592l-3 73q31 0 52.5 14.5t21.5 39.5v34h80v-48q0 -38 -20.5 -63t-54.5 -37t-76 -13z" />
    <glyph glyph-name="ohorn" unicode="&#x1a1;" horiz-adv-x="584" 
d="M292 -15q-125 0 -187 69t-62 199q0 140 63.5 203t184.5 63q84 0 139.5 -29.5t83.5 -88.5t28 -148q0 -130 -65 -199t-185 -69zM291 89q44 0 71.5 20t40.5 57t13 87q0 57 -13.5 93t-41 53t-70.5 17q-44 0 -71 -18t-39 -54t-12 -91q0 -79 28.5 -121.5t93.5 -42.5zM389 430
l-3 73q31 0 52.5 14.5t21.5 39.5v34h80v-48q0 -38 -20.5 -63t-54.5 -37t-76 -13z" />
    <glyph glyph-name="Uhorn" unicode="&#x1af;" horiz-adv-x="716" 
d="M369 -17q-145 0 -219.5 67.5t-74.5 205.5v411h141v-407q0 -86 36 -127t111 -41q71 0 109.5 41t38.5 127v407h130v-411q0 -92 -34 -153t-95 -90.5t-143 -29.5zM590 593l-3 73q31 0 52.5 14.5t21.5 39.5v34h80v-48q0 -38 -20.5 -63t-54.5 -37t-76 -13z" />
    <glyph glyph-name="uhorn" unicode="&#x1b0;" horiz-adv-x="632" 
d="M300 -15q-69 0 -121 22.5t-80.5 67.5t-28.5 115v314h127v-300q0 -56 25 -83t79 -27t78.5 27t24.5 83v300h121v-314q0 -104 -60 -154.5t-165 -50.5zM471 430l-3 73q31 0 52.5 14.5t21.5 39.5v34h80v-48q0 -38 -20.5 -63t-54.5 -37t-76 -13z" />
    <glyph glyph-name="uni01C4" unicode="&#x1c4;" horiz-adv-x="1325" 
d="M75 0v667h251q166 0 245.5 -84t79.5 -249t-79.5 -249.5t-245.5 -84.5h-251zM211 109h100q101 0 151 54t50 171t-50 171t-151 54h-100v-450zM756 0v103l371 486l33 -32h-397v110h503v-100l-356 -480l-40 23h396v-110h-510zM968 702l-81 121h84l44 -62l43 62h84l-75 -121
h-99z" />
    <glyph glyph-name="uni01C5" unicode="&#x1c5;" horiz-adv-x="1180" 
d="M75 0v667h251q166 0 245.5 -84t79.5 -249t-79.5 -249.5t-245.5 -84.5h-251zM211 109h100q101 0 151 54t50 171t-50 171t-151 54h-100v-450zM744 0v103l279 332l14 -28h-287v97h386v-101l-265 -332l-3 33h268v-104h-392zM896 564l-81 121h84l44 -62l43 62h84l-75 -121h-99
z" />
    <glyph glyph-name="uni01C6" unicode="&#x1c6;" horiz-adv-x="1079" 
d="M302 -15q-52 0 -99 12.5t-83 42.5t-56.5 83t-20.5 134q0 121 59 191t179 70q17 0 44 -3.5t55.5 -13.5t49.5 -29l-28 -41v282h126v-594q0 -34 -20 -59.5t-52.5 -41.5t-72.5 -24.5t-81 -8.5zM307 93q40 0 67.5 10.5t27.5 28.5v256q-22 13 -47 19t-48 6q-45 0 -75.5 -16.5
t-45 -52t-14.5 -90.5q0 -47 12 -83t41.5 -57t81.5 -21zM643 0v103l279 332l14 -28h-287v97h386v-101l-265 -332l-3 33h268v-104h-392zM795 564l-81 121h84l44 -62l43 62h84l-75 -121h-99z" />
    <glyph glyph-name="uni01C7" unicode="&#x1c7;" horiz-adv-x="1017" 
d="M75 0v667h137v-556h304v-111h-441zM734 -11q-43 0 -80.5 10t-69.5 26v127q31 -21 59.5 -36t59.5 -15q50 0 76.5 25.5t26.5 82.5v458h136v-465q0 -63 -18.5 -104.5t-48.5 -65.5t-67 -33.5t-74 -9.5z" />
    <glyph glyph-name="uni01C8" unicode="&#x1c8;" horiz-adv-x="839" 
d="M75 0v667h137v-556h304v-111h-441zM554 -193v106q32 -2 50.5 6t27 26t8.5 45v514h127l1 -515q0 -67 -27 -107t-75 -57.5t-112 -17.5zM637 584v105h133v-105h-133z" />
    <glyph glyph-name="uni01C9" unicode="&#x1c9;" horiz-adv-x="560" 
d="M196 0h-126v695h126v-695zM274 -193v106q32 -2 50.5 6t27 26t8.5 45v514h127l1 -515q0 -67 -27 -107t-75 -57.5t-112 -17.5zM357 584v105h133v-105h-133z" />
    <glyph glyph-name="uni01CA" unicode="&#x1ca;" horiz-adv-x="1195" 
d="M75 0v667h122l364 -497l-39 -80v577h127v-667h-111l-372 500l36 61v-561h-127zM912 -11q-43 0 -80.5 10t-69.5 26v127q31 -21 59.5 -36t59.5 -15q50 0 76.5 25.5t26.5 82.5v458h136v-465q0 -63 -18.5 -104.5t-48.5 -65.5t-67 -33.5t-74 -9.5z" />
    <glyph glyph-name="uni01CB" unicode="&#x1cb;" horiz-adv-x="1017" 
d="M75 0v667h122l364 -497l-39 -80v577h127v-667h-111l-372 500l36 61v-561h-127zM732 -193v106q32 -2 50.5 6t27 26t8.5 45v514h127l1 -515q0 -67 -27 -107t-75 -57.5t-112 -17.5zM815 584v105h133v-105h-133z" />
    <glyph glyph-name="uni01CC" unicode="&#x1cc;" horiz-adv-x="891" 
d="M70 462q21 11 50 21t63 17.5t69 12t66 4.5q69 0 115.5 -18.5t70.5 -58.5t24 -104v-336h-127v314q0 19 -5 36.5t-17 31t-33 21t-54 7.5q-25 0 -50.5 -5t-44.5 -13v-392h-127v462zM606 -193v106q32 -2 50.5 6t27 26t8.5 45v514h127l1 -515q0 -67 -27 -107t-75 -57.5
t-112 -17.5zM689 584v105h133v-105h-133z" />
    <glyph glyph-name="uni01CD" unicode="&#x1cd;" horiz-adv-x="678" 
d="M15 0l256 667h147l245 -667h-141l-218 621l60 6l-217 -627h-132zM150 163l33 104h310l12 -104h-355zM291 702l-81 121h84l44 -62l43 62h84l-75 -121h-99z" />
    <glyph glyph-name="uni01CE" unicode="&#x1ce;" horiz-adv-x="567" 
d="M259 -15q-43 0 -81 8t-68 27t-47.5 51.5t-17.5 80.5q0 52 21 87.5t61.5 54t99.5 18.5q36 0 67 -6.5t56 -18t41 -24.5l9 -71q-21 14 -53.5 22.5t-70.5 8.5q-53 0 -79 -17t-26 -53q0 -24 14 -41t36 -25t46 -8q55 0 79.5 7.5t24.5 32.5v198q0 49 -31 71.5t-87 22.5
q-43 0 -88 -14.5t-73 -37.5v115q27 18 81 30.5t116 12.5q26 0 55 -4.5t56 -15.5t49 -31t35 -49.5t13 -71.5l-1 -239q0 -46 -29.5 -72.5t-83 -37.5t-124.5 -11zM237 579l-81 121h84l44 -62l43 62h84l-75 -121h-99z" />
    <glyph glyph-name="uni01CF" unicode="&#x1cf;" horiz-adv-x="287" 
d="M75 0v667h137v-667h-137zM98 702l-81 121h84l44 -62l43 62h84l-75 -121h-99z" />
    <glyph glyph-name="uni01D0" unicode="&#x1d0;" horiz-adv-x="268" 
d="M70 0v499h127l1 -499h-128zM85 564l-81 121h84l44 -62l43 62h84l-75 -121h-99z" />
    <glyph glyph-name="uni01D1" unicode="&#x1d1;" horiz-adv-x="732" 
d="M366 -12q-99 0 -170.5 37.5t-109.5 114t-38 193.5q0 171 82.5 258.5t235.5 87.5q99 0 170.5 -37.5t109.5 -114t38 -193.5q0 -171 -82.5 -258.5t-235.5 -87.5zM366 102q59 0 98.5 23t59.5 74.5t20 134.5q0 84 -20 134.5t-59.5 73.5t-98.5 23t-98.5 -23.5t-59.5 -74
t-20 -134.5t20 -134.5t59.5 -73.5t98.5 -23zM321 717l-81 121h84l44 -62l43 62h84l-75 -121h-99z" />
    <glyph glyph-name="uni01D2" unicode="&#x1d2;" horiz-adv-x="584" 
d="M292 -15q-125 0 -187 69t-62 199q0 140 63.5 203t184.5 63q84 0 139.5 -29.5t83.5 -88.5t28 -148q0 -130 -65 -199t-185 -69zM291 89q44 0 71.5 20t40.5 57t13 87q0 57 -13.5 93t-41 53t-70.5 17q-44 0 -71 -18t-39 -54t-12 -91q0 -79 28.5 -121.5t93.5 -42.5zM245 579
l-81 121h84l44 -62l43 62h84l-75 -121h-99z" />
    <glyph glyph-name="uni01D3" unicode="&#x1d3;" horiz-adv-x="716" 
d="M369 -17q-145 0 -219.5 67.5t-74.5 205.5v411h141v-407q0 -86 36 -127t111 -41q71 0 109.5 41t38.5 127v407h130v-411q0 -92 -34 -153t-95 -90.5t-143 -29.5zM309 707l-81 121h84l44 -62l43 62h84l-75 -121h-99z" />
    <glyph glyph-name="uni01D4" unicode="&#x1d4;" horiz-adv-x="595" 
d="M300 -15q-69 0 -121 22.5t-80.5 67.5t-28.5 115v314h127v-300q0 -56 25 -83t79 -27t78.5 27t24.5 83v300h121v-314q0 -104 -60 -154.5t-165 -50.5zM254 574l-81 121h84l44 -62l43 62h84l-75 -121h-99z" />
    <glyph glyph-name="Gcaron" unicode="&#x1e6;" horiz-adv-x="701" 
d="M369 -12q-100 0 -172 36t-110.5 112.5t-38.5 197.5q0 119 38.5 196t110.5 113.5t171 36.5q61 0 119 -12t112 -35v-127q-57 29 -108 47t-106 18q-65 0 -109.5 -23t-67 -75t-22.5 -139q0 -86 23 -138t66.5 -75.5t104.5 -23.5q31 0 58.5 4.5t51.5 13.5v139h-125v110h261
v-310q-60 -32 -125 -49t-132 -17zM320 712l-81 121h84l44 -62l43 62h84l-75 -121h-99z" />
    <glyph glyph-name="gcaron" unicode="&#x1e7;" horiz-adv-x="586" 
d="M267 -15q-71 3 -121 31.5t-76.5 84t-26.5 136.5q0 85 21 139.5t58.5 85t88 43t108.5 12.5t103.5 -15t72 -44.5t26.5 -73.5v-394q0 -47 -14.5 -84.5t-45 -64.5t-77 -41.5t-109.5 -14.5q-60 0 -104 9t-70 20v114q15 -6 41.5 -14.5t59.5 -14.5t66 -6q53 0 80.5 14t37.5 36.5
t10 50.5v79l29 -22q-17 -19 -41.5 -34t-54 -23.5t-62.5 -8.5zM294 84q28 0 54 6.5t48 19.5v247q0 24 -12.5 35.5t-33 16t-43.5 4.5q-54 0 -83.5 -22t-41 -61t-11.5 -87q0 -72 32 -115.5t91 -43.5zM273 579l-81 121h84l44 -62l43 62h84l-75 -121h-99z" />
    <glyph glyph-name="uni01EA" unicode="&#x1ea;" horiz-adv-x="732" 
d="M366 -12q-99 0 -170.5 37.5t-109.5 114t-38 193.5q0 171 82.5 258.5t235.5 87.5q99 0 170.5 -37.5t109.5 -114t38 -193.5q0 -171 -82.5 -258.5t-235.5 -87.5zM366 102q59 0 98.5 23t59.5 74.5t20 134.5q0 84 -20 134.5t-59.5 73.5t-98.5 23t-98.5 -23.5t-59.5 -74
t-20 -134.5t20 -134.5t59.5 -73.5t98.5 -23zM408 -183q-57 0 -86 23t-29 69q0 34 28.5 62t76.5 47l91 -18q-40 -17 -67.5 -37.5t-27.5 -41.5q0 -20 9.5 -27.5t24.5 -7.5q19 0 35 10.5t28 21.5v-79q-14 -8 -33 -15t-50 -7z" />
    <glyph glyph-name="uni01EB" unicode="&#x1eb;" horiz-adv-x="584" 
d="M292 -15q-125 0 -187 69t-62 199q0 140 63.5 203t184.5 63q84 0 139.5 -29.5t83.5 -88.5t28 -148q0 -130 -65 -199t-185 -69zM291 89q44 0 71.5 20t40.5 57t13 87q0 57 -13.5 93t-41 53t-70.5 17q-44 0 -71 -18t-39 -54t-12 -91q0 -79 28.5 -121.5t93.5 -42.5zM325 -183
q-57 0 -86 23t-29 69q0 34 28.5 62t76.5 47l91 -18q-40 -17 -67.5 -37.5t-27.5 -41.5q0 -20 9.5 -27.5t24.5 -7.5q19 0 35 10.5t28 21.5v-79q-14 -8 -33 -15t-50 -7z" />
    <glyph glyph-name="uni01F2" unicode="&#x1f2;" horiz-adv-x="1180" 
d="M75 0v667h251q166 0 245.5 -84t79.5 -249t-79.5 -249.5t-245.5 -84.5h-251zM211 109h100q101 0 151 54t50 171t-50 171t-151 54h-100v-450zM744 0v103l279 332l14 -28h-287v97h386v-101l-265 -332l-3 33h268v-104h-392z" />
    <glyph glyph-name="uni01F4" unicode="&#x1f4;" horiz-adv-x="701" 
d="M369 -12q-100 0 -172 36t-110.5 112.5t-38.5 197.5q0 119 38.5 196t110.5 113.5t171 36.5q61 0 119 -12t112 -35v-127q-57 29 -108 47t-106 18q-65 0 -109.5 -23t-67 -75t-22.5 -139q0 -86 23 -138t66.5 -75.5t104.5 -23.5q31 0 58.5 4.5t51.5 13.5v139h-125v110h261
v-310q-60 -32 -125 -49t-132 -17zM337 733l42 114h133l-108 -114h-67z" />
    <glyph glyph-name="Aringacute" unicode="&#x1fa;" horiz-adv-x="678" 
d="M15 0l256 667h147l245 -667h-141l-218 621l60 6l-217 -627h-132zM150 163l33 104h310l12 -104h-355zM339 658q-57 0 -85.5 24t-28.5 70t28.5 70t85.5 24t85.5 -24t28.5 -70t-28.5 -70t-85.5 -24zM339 712q28 0 39 9t11 31t-11 31t-39 9t-39 -9t-11 -31t11 -31t39 -9z
M307 886l42 114h133l-108 -114h-67z" />
    <glyph glyph-name="aringacute" unicode="&#x1fb;" horiz-adv-x="567" 
d="M259 -15q-43 0 -81 8t-68 27t-47.5 51.5t-17.5 80.5q0 52 21 87.5t61.5 54t99.5 18.5q36 0 67 -6.5t56 -18t41 -24.5l9 -71q-21 14 -53.5 22.5t-70.5 8.5q-53 0 -79 -17t-26 -53q0 -24 14 -41t36 -25t46 -8q55 0 79.5 7.5t24.5 32.5v198q0 49 -31 71.5t-87 22.5
q-43 0 -88 -14.5t-73 -37.5v115q27 18 81 30.5t116 12.5q26 0 55 -4.5t56 -15.5t49 -31t35 -49.5t13 -71.5l-1 -239q0 -46 -29.5 -72.5t-83 -37.5t-124.5 -11zM286 550q-57 0 -85.5 24t-28.5 70t28.5 70t85.5 24t85.5 -24t28.5 -70t-28.5 -70t-85.5 -24zM286 604q28 0 39 9
t11 31t-11 31t-39 9t-39 -9t-11 -31t11 -31t39 -9zM246 779l49 121h126l-103 -121h-72z" />
    <glyph glyph-name="AEacute" unicode="&#x1fc;" horiz-adv-x="1008" 
d="M504 630l72 -8l-408 -622h-153l463 667h463v-109h-301v-167h261v-110h-261v-171h301v-110h-437v630zM555 165h-367l54 104h322zM677 723l42 114h133l-108 -114h-67z" />
    <glyph glyph-name="aeacute" unicode="&#x1fd;" horiz-adv-x="886" 
d="M448 51q-32 -24 -80.5 -47t-115.5 -23q-58 0 -105 16t-74.5 52.5t-27.5 98.5q0 53 23.5 89.5t67.5 55.5t104 19q29 0 58 -6t53 -16.5t40 -23.5l9 -74q-21 14 -53.5 22.5t-70.5 8.5q-55 0 -80 -19.5t-25 -57.5q0 -23 13.5 -39t36.5 -24.5t50 -8.5q25 0 50.5 4.5t48.5 14
t36 24.5zM371 213v102q0 50 -31 72.5t-87 22.5q-43 0 -88 -14.5t-73 -37.5v116q27 18 81 30.5t116 12.5q26 0 55 -4.5t56 -15.5t49 -31t35 -49.5t13 -71.5l-1 -123q0 -67 37 -100.5t113 -33.5q46 0 87 13.5t67 30.5v-113q-35 -19 -79.5 -29t-101.5 -10q-75 0 -131 29
t-86.5 81.5t-30.5 122.5zM371 247q0 130 63.5 200t179.5 70q82 0 133 -36t74 -102.5t22 -157.5h-390l-9 86h298l-24 -36q-2 78 -27.5 112t-81.5 34q-34 0 -59.5 -15t-39 -51t-13.5 -98zM407 565l49 121h126l-103 -121h-72z" />
    <glyph glyph-name="Oslashacute" unicode="&#x1fe;" horiz-adv-x="732" 
d="M34 0l578 667h96l-580 -667h-94zM366 -12q-99 0 -170.5 37.5t-109.5 114t-38 193.5q0 171 82.5 258.5t235.5 87.5q99 0 170.5 -37.5t109.5 -114t38 -193.5q0 -171 -82.5 -258.5t-235.5 -87.5zM366 102q59 0 98.5 23t59.5 74.5t20 134.5q0 84 -20 134.5t-59.5 73.5
t-98.5 23t-98.5 -23.5t-59.5 -74t-20 -134.5t20 -134.5t59.5 -73.5t98.5 -23zM334 723l42 114h133l-108 -114h-67z" />
    <glyph glyph-name="oslashacute" unicode="&#x1ff;" horiz-adv-x="594" 
d="M143 0h-119l425 499h119zM292 -15q-125 0 -187 69t-62 199q0 140 63.5 203t184.5 63q84 0 139.5 -29.5t83.5 -88.5t28 -148q0 -130 -65 -199t-185 -69zM291 89q44 0 71.5 20t40.5 57t13 87q0 57 -13.5 93t-41 53t-70.5 17q-44 0 -71 -18t-39 -54t-12 -91
q0 -79 28.5 -121.5t93.5 -42.5zM257 555l49 121h126l-103 -121h-72z" />
    <glyph glyph-name="uni0200" unicode="&#x200;" horiz-adv-x="678" 
d="M15 0l256 667h147l245 -667h-141l-218 621l60 6l-217 -627h-132zM150 163l33 104h310l12 -104h-355zM235 723l-93 113h116l49 -113h-72zM393 724l-93 113h116l49 -113h-72z" />
    <glyph glyph-name="uni0201" unicode="&#x201;" horiz-adv-x="567" 
d="M259 -15q-43 0 -81 8t-68 27t-47.5 51.5t-17.5 80.5q0 52 21 87.5t61.5 54t99.5 18.5q36 0 67 -6.5t56 -18t41 -24.5l9 -71q-21 14 -53.5 22.5t-70.5 8.5q-53 0 -79 -17t-26 -53q0 -24 14 -41t36 -25t46 -8q55 0 79.5 7.5t24.5 32.5v198q0 49 -31 71.5t-87 22.5
q-43 0 -88 -14.5t-73 -37.5v115q27 18 81 30.5t116 12.5q26 0 55 -4.5t56 -15.5t49 -31t35 -49.5t13 -71.5l-1 -239q0 -46 -29.5 -72.5t-83 -37.5t-124.5 -11zM190 570l-103 121h125l49 -121h-71zM360 570l-103 121h125l49 -121h-71z" />
    <glyph glyph-name="uni0202" unicode="&#x202;" horiz-adv-x="678" 
d="M340 820q44 0 74.5 -16t48.5 -44.5t23 -67.5h-74q-9 24 -26 41.5t-46 17.5t-46.5 -17.5t-25.5 -41.5h-74q8 39 25.5 67.5t47.5 44.5t73 16zM15 0l256 667h147l245 -667h-141l-218 621l60 6l-217 -627h-132zM150 163l33 104h310l12 -104h-355z" />
    <glyph glyph-name="uni0203" unicode="&#x203;" horiz-adv-x="567" 
d="M286 671q44 0 75 -16t49 -44.5t23 -67.5h-75q-8 24 -25 41.5t-47 17.5q-28 0 -46 -17.5t-26 -41.5h-74q8 39 26 67.5t47.5 44.5t72.5 16zM259 -15q-43 0 -81 8t-68 27t-47.5 51.5t-17.5 80.5q0 52 21 87.5t61.5 54t99.5 18.5q36 0 67 -6.5t56 -18t41 -24.5l9 -71
q-21 14 -53.5 22.5t-70.5 8.5q-53 0 -79 -17t-26 -53q0 -24 14 -41t36 -25t46 -8q55 0 79.5 7.5t24.5 32.5v198q0 49 -31 71.5t-87 22.5q-43 0 -88 -14.5t-73 -37.5v115q27 18 81 30.5t116 12.5q26 0 55 -4.5t56 -15.5t49 -31t35 -49.5t13 -71.5l-1 -239q0 -46 -29.5 -72.5
t-83 -37.5t-124.5 -11z" />
    <glyph glyph-name="uni0204" unicode="&#x204;" horiz-adv-x="590" 
d="M75 0v667h447v-109h-310v-169h270v-110h-271v-170h311v-109h-447zM200 723l-93 113h116l49 -113h-72zM358 724l-93 113h116l49 -113h-72z" />
    <glyph glyph-name="uni0205" unicode="&#x205;" horiz-adv-x="558" 
d="M293 -15q-75 0 -131.5 31t-87.5 89.5t-31 141.5q0 132 63.5 202t179.5 70q82 0 133 -36t74 -103t22 -159h-390l-9 86h298l-24 -36q-2 79 -27.5 113.5t-81.5 34.5q-34 0 -59 -15.5t-38.5 -51.5t-13.5 -99q0 -78 36.5 -119t112.5 -41q31 0 59.5 6t53 15.5t42.5 17.5v-113
q-36 -15 -80 -24.5t-101 -9.5zM191 565l-103 121h125l49 -121h-71zM361 565l-103 121h125l49 -121h-71z" />
    <glyph glyph-name="uni0206" unicode="&#x206;" horiz-adv-x="590" 
d="M305 820q44 0 74.5 -16t48.5 -44.5t23 -67.5h-74q-9 24 -26 41.5t-46 17.5t-46.5 -17.5t-25.5 -41.5h-74q8 39 25.5 67.5t47.5 44.5t73 16zM75 0v667h447v-109h-310v-169h270v-110h-271v-170h311v-109h-447z" />
    <glyph glyph-name="uni0207" unicode="&#x207;" horiz-adv-x="558" 
d="M287 666q44 0 75 -16t49 -44.5t23 -67.5h-75q-8 24 -25 41.5t-47 17.5q-28 0 -46 -17.5t-26 -41.5h-74q8 39 26 67.5t47.5 44.5t72.5 16zM293 -15q-75 0 -131.5 31t-87.5 89.5t-31 141.5q0 132 63.5 202t179.5 70q82 0 133 -36t74 -103t22 -159h-390l-9 86h298l-24 -36
q-2 79 -27.5 113.5t-81.5 34.5q-34 0 -59 -15.5t-38.5 -51.5t-13.5 -99q0 -78 36.5 -119t112.5 -41q31 0 59.5 6t53 15.5t42.5 17.5v-113q-36 -15 -80 -24.5t-101 -9.5z" />
    <glyph glyph-name="uni0208" unicode="&#x208;" horiz-adv-x="287" 
d="M75 0v667h137v-667h-137zM43 723l-93 113h116l49 -113h-72zM200 724l-93 113h116l49 -113h-72z" />
    <glyph glyph-name="uni0209" unicode="&#x209;" horiz-adv-x="268" 
d="M70 0v499h127l1 -499h-128zM38 555l-103 121h125l49 -121h-71zM208 555l-103 121h125l49 -121h-71z" />
    <glyph glyph-name="uni020A" unicode="&#x20a;" horiz-adv-x="287" 
d="M147 820q44 0 75 -16t49 -44.5t23 -67.5h-75q-8 24 -25 41.5t-47 17.5q-28 0 -46 -17.5t-26 -41.5h-74q8 39 26 67.5t47.5 44.5t72.5 16zM75 0v667h137v-667h-137z" />
    <glyph glyph-name="uni020B" unicode="&#x20b;" horiz-adv-x="268" 
d="M134 656q44 0 75 -16t49 -44.5t23 -67.5h-75q-8 24 -25 41.5t-47 17.5q-28 0 -46 -17.5t-26 -41.5h-74q8 39 26 67.5t47.5 44.5t72.5 16zM70 0v499h127l1 -499h-128z" />
    <glyph glyph-name="uni020C" unicode="&#x20c;" horiz-adv-x="732" 
d="M366 -12q-99 0 -170.5 37.5t-109.5 114t-38 193.5q0 171 82.5 258.5t235.5 87.5q99 0 170.5 -37.5t109.5 -114t38 -193.5q0 -171 -82.5 -258.5t-235.5 -87.5zM366 102q59 0 98.5 23t59.5 74.5t20 134.5q0 84 -20 134.5t-59.5 73.5t-98.5 23t-98.5 -23.5t-59.5 -74
t-20 -134.5t20 -134.5t59.5 -73.5t98.5 -23zM265 738l-93 113h116l49 -113h-72zM423 739l-93 113h116l49 -113h-72z" />
    <glyph glyph-name="uni020D" unicode="&#x20d;" horiz-adv-x="584" 
d="M292 -15q-125 0 -187 69t-62 199q0 140 63.5 203t184.5 63q84 0 139.5 -29.5t83.5 -88.5t28 -148q0 -130 -65 -199t-185 -69zM291 89q44 0 71.5 20t40.5 57t13 87q0 57 -13.5 93t-41 53t-70.5 17q-44 0 -71 -18t-39 -54t-12 -91q0 -79 28.5 -121.5t93.5 -42.5zM198 570
l-103 121h125l49 -121h-71zM367 570l-103 121h125l49 -121h-71z" />
    <glyph glyph-name="uni020E" unicode="&#x20e;" horiz-adv-x="732" 
d="M370 835q44 0 74.5 -16t48.5 -44.5t23 -67.5h-74q-9 24 -26 41.5t-46 17.5t-46.5 -17.5t-25.5 -41.5h-74q8 39 25.5 67.5t47.5 44.5t73 16zM366 -12q-99 0 -170.5 37.5t-109.5 114t-38 193.5q0 171 82.5 258.5t235.5 87.5q99 0 170.5 -37.5t109.5 -114t38 -193.5
q0 -171 -82.5 -258.5t-235.5 -87.5zM366 102q59 0 98.5 23t59.5 74.5t20 134.5q0 84 -20 134.5t-59.5 73.5t-98.5 23t-98.5 -23.5t-59.5 -74t-20 -134.5t20 -134.5t59.5 -73.5t98.5 -23z" />
    <glyph glyph-name="uni020F" unicode="&#x20f;" horiz-adv-x="584" 
d="M294 671q44 0 74.5 -16t48.5 -44.5t23 -67.5h-74q-9 24 -26 41.5t-46 17.5t-46.5 -17.5t-25.5 -41.5h-74q8 39 25.5 67.5t47.5 44.5t73 16zM292 -15q-125 0 -187 69t-62 199q0 140 63.5 203t184.5 63q84 0 139.5 -29.5t83.5 -88.5t28 -148q0 -130 -65 -199t-185 -69z
M291 89q44 0 71.5 20t40.5 57t13 87q0 57 -13.5 93t-41 53t-70.5 17q-44 0 -71 -18t-39 -54t-12 -91q0 -79 28.5 -121.5t93.5 -42.5z" />
    <glyph glyph-name="uni0210" unicode="&#x210;" horiz-adv-x="687" 
d="M75 0v667h311q108 0 168 -51.5t60 -154.5q0 -48 -19.5 -91.5t-57 -72.5t-91.5 -36l1 45l200 -306h-171l-176 295l61 -54h-150v-241h-136zM211 346h146q54 0 83 26t29 82q0 50 -24 77t-76 27h-158v-212zM215 723l-93 113h116l49 -113h-72zM372 724l-93 113h116l49 -113
h-72z" />
    <glyph glyph-name="uni0211" unicode="&#x211;" horiz-adv-x="414" 
d="M70 0v455q14 10 49.5 24.5t82.5 26t95 11.5q36 0 57.5 -5.5t34.5 -13.5v-96q-20 3 -45.5 5t-52 1.5t-51 -2.5t-43.5 -5v-401h-127zM99 565l-103 121h125l49 -121h-71zM268 565l-103 121h125l49 -121h-71z" />
    <glyph glyph-name="uni0212" unicode="&#x212;" horiz-adv-x="687" 
d="M319 820q44 0 75 -16t49 -44.5t23 -67.5h-75q-8 24 -25 41.5t-47 17.5q-28 0 -46 -17.5t-26 -41.5h-74q8 39 26 67.5t47.5 44.5t72.5 16zM75 0v667h311q108 0 168 -51.5t60 -154.5q0 -48 -19.5 -91.5t-57 -72.5t-91.5 -36l1 45l200 -306h-171l-176 295l61 -54h-150v-241
h-136zM211 346h146q54 0 83 26t29 82q0 50 -24 77t-76 27h-158v-212z" />
    <glyph glyph-name="uni0213" unicode="&#x213;" horiz-adv-x="414" 
d="M195 666q44 0 74.5 -16t48.5 -44.5t23 -67.5h-74q-9 24 -26 41.5t-46 17.5t-46.5 -17.5t-25.5 -41.5h-74q8 39 25.5 67.5t47.5 44.5t73 16zM70 0v455q14 10 49.5 24.5t82.5 26t95 11.5q36 0 57.5 -5.5t34.5 -13.5v-96q-20 3 -45.5 5t-52 1.5t-51 -2.5t-43.5 -5v-401h-127
z" />
    <glyph glyph-name="uni0214" unicode="&#x214;" horiz-adv-x="716" 
d="M369 -17q-145 0 -219.5 67.5t-74.5 205.5v411h141v-407q0 -86 36 -127t111 -41q71 0 109.5 41t38.5 127v407h130v-411q0 -92 -34 -153t-95 -90.5t-143 -29.5zM254 728l-93 113h116l49 -113h-72zM411 729l-93 113h116l49 -113h-72z" />
    <glyph glyph-name="uni0215" unicode="&#x215;" horiz-adv-x="595" 
d="M300 -15q-69 0 -121 22.5t-80.5 67.5t-28.5 115v314h127v-300q0 -56 25 -83t79 -27t78.5 27t24.5 83v300h121v-314q0 -104 -60 -154.5t-165 -50.5zM207 565l-103 121h125l49 -121h-71zM376 565l-103 121h125l49 -121h-71z" />
    <glyph glyph-name="uni0216" unicode="&#x216;" horiz-adv-x="716" 
d="M358 825q44 0 75 -16t49 -44.5t23 -67.5h-75q-8 24 -25 41.5t-47 17.5q-28 0 -46 -17.5t-26 -41.5h-74q8 39 26 67.5t47.5 44.5t72.5 16zM369 -17q-145 0 -219.5 67.5t-74.5 205.5v411h141v-407q0 -86 36 -127t111 -41q71 0 109.5 41t38.5 127v407h130v-411
q0 -92 -34 -153t-95 -90.5t-143 -29.5z" />
    <glyph glyph-name="uni0217" unicode="&#x217;" horiz-adv-x="595" 
d="M303 666q44 0 74.5 -16t48.5 -44.5t23 -67.5h-74q-9 24 -26 41.5t-46 17.5t-46.5 -17.5t-25.5 -41.5h-74q8 39 25.5 67.5t47.5 44.5t73 16zM300 -15q-69 0 -121 22.5t-80.5 67.5t-28.5 115v314h127v-300q0 -56 25 -83t79 -27t78.5 27t24.5 83v300h121v-314
q0 -104 -60 -154.5t-165 -50.5z" />
    <glyph glyph-name="uni0218" unicode="&#x218;" horiz-adv-x="571" 
d="M289 -12q-50 0 -89.5 5t-72.5 16t-66 28v132q42 -34 99 -53.5t115 -19.5q54 0 81.5 21.5t27.5 61.5q0 31 -22.5 50t-59.5 33t-81 29q-31 11 -60.5 24.5t-53 34.5t-37.5 52.5t-14 77.5q0 37 14 73t43 65t75.5 46t109.5 17q41 0 71.5 -5t58 -15t58.5 -25v-132
q-24 17 -51 32.5t-57.5 25.5t-66.5 11t-62 -8t-40 -27t-14 -43q0 -31 17.5 -49.5t48.5 -30.5t70 -24t74 -27t61.5 -36.5t41.5 -53.5t15 -78q0 -56 -25.5 -103.5t-77.5 -76t-131 -28.5zM196 -193v64q17 6 25.5 17t11.5 27.5t2 35.5h98q0 -44 -17.5 -75.5t-48 -49t-71.5 -19.5
z" />
    <glyph glyph-name="uni0219" unicode="&#x219;" horiz-adv-x="475" 
d="M218 -15q-54 0 -92 11.5t-73 27.5v115q23 -15 48.5 -28.5t55 -21.5t64.5 -8q39 0 58.5 15t19.5 38q0 20 -15 31.5t-39 19.5t-51 16q-25 6 -50.5 16t-46.5 27t-33.5 43.5t-12.5 64.5q0 45 18 76t47.5 50.5t64 28t67.5 7.5q58 -1 93 -13t66 -29v-104q-35 19 -67.5 34.5
t-75.5 15.5q-39 0 -60.5 -13.5t-21.5 -37.5q0 -21 13 -33.5t34.5 -20t46.5 -14.5t51.5 -15.5t50 -24t38 -42.5t14.5 -70q-1 -59 -31.5 -94.5t-78.5 -51.5t-102 -16zM144 -193v64q17 6 25.5 17t11.5 27.5t2 35.5h98q0 -44 -17.5 -75.5t-48 -49t-71.5 -19.5z" />
    <glyph glyph-name="uni021B" unicode="&#x21b;" horiz-adv-x="378" 
d="M257 -7q-29 0 -57 8t-50 26t-35 48.5t-13 75.5v258h-78v90h78v145h122v-145h116v-90h-116v-273q0 -24 12.5 -36t38.5 -12q16 0 32 4.5t33 13.5v-95q-19 -10 -40 -14t-43 -4zM152 -193v59q17 6 25.5 18.5t11.5 30t2 36.5h77q1 -44 -16 -75.5t-43.5 -49t-56.5 -19.5z" />
    <glyph glyph-name="uni0226" unicode="&#x226;" horiz-adv-x="678" 
d="M15 0l256 667h147l245 -667h-141l-218 621l60 6l-217 -627h-132zM150 163l33 104h310l12 -104h-355zM278 699v94h109v-94h-109z" />
    <glyph glyph-name="uni022A" unicode="&#x22a;" horiz-adv-x="732" 
d="M366 -12q-99 0 -170.5 37.5t-109.5 114t-38 193.5q0 171 82.5 258.5t235.5 87.5q99 0 170.5 -37.5t109.5 -114t38 -193.5q0 -171 -82.5 -258.5t-235.5 -87.5zM366 102q59 0 98.5 23t59.5 74.5t20 134.5q0 84 -20 134.5t-59.5 73.5t-98.5 23t-98.5 -23.5t-59.5 -74
t-20 -134.5t20 -134.5t59.5 -73.5t98.5 -23zM397 725v94h115v-94h-115zM224 725v94h114v-94h-114zM235 880v83h264v-83h-264z" />
    <glyph glyph-name="uni022B" unicode="&#x22b;" horiz-adv-x="584" 
d="M292 -15q-125 0 -187 69t-62 199q0 140 63.5 203t184.5 63q84 0 139.5 -29.5t83.5 -88.5t28 -148q0 -130 -65 -199t-185 -69zM291 89q44 0 71.5 20t40.5 57t13 87q0 57 -13.5 93t-41 53t-70.5 17q-44 0 -71 -18t-39 -54t-12 -91q0 -79 28.5 -121.5t93.5 -42.5zM328 575
v94h115v-94h-115zM155 575v94h114v-94h-114zM159 729v83h264v-83h-264z" />
    <glyph glyph-name="uni022C" unicode="&#x22c;" horiz-adv-x="732" 
d="M366 -12q-99 0 -170.5 37.5t-109.5 114t-38 193.5q0 171 82.5 258.5t235.5 87.5q99 0 170.5 -37.5t109.5 -114t38 -193.5q0 -171 -82.5 -258.5t-235.5 -87.5zM366 102q59 0 98.5 23t59.5 74.5t20 134.5q0 84 -20 134.5t-59.5 73.5t-98.5 23t-98.5 -23.5t-59.5 -74
t-20 -134.5t20 -134.5t59.5 -73.5t98.5 -23zM267 737h-62q-5 38 8 68t38 47t55 17q25 0 45.5 -9.5t37 -22t32.5 -22.5t32 -10q17 0 25.5 14t5.5 42h67q3 -39 -10.5 -68t-38 -44.5t-55.5 -15.5q-29 0 -50 9.5t-37.5 22t-30 22t-27.5 9.5q-19 0 -28.5 -17.5t-6.5 -41.5z
M235 924v83h264v-83h-264z" />
    <glyph glyph-name="uni022D" unicode="&#x22d;" horiz-adv-x="584" 
d="M292 -15q-125 0 -187 69t-62 199q0 140 63.5 203t184.5 63q84 0 139.5 -29.5t83.5 -88.5t28 -148q0 -130 -65 -199t-185 -69zM291 89q44 0 71.5 20t40.5 57t13 87q0 57 -13.5 93t-41 53t-70.5 17q-44 0 -71 -18t-39 -54t-12 -91q0 -79 28.5 -121.5t93.5 -42.5zM189 560
h-62q-5 38 8 68t38 47t55 17q25 0 45.5 -9.5t37 -22t32.5 -22.5t32 -10q17 0 25.5 14t5.5 42h67q3 -39 -10.5 -68t-38 -44.5t-55.5 -15.5q-29 0 -50 9.5t-37.5 22t-30 22t-27.5 9.5q-19 0 -28.5 -17.5t-6.5 -41.5zM159 757v83h264v-83h-264z" />
    <glyph glyph-name="uni0230" unicode="&#x230;" horiz-adv-x="732" 
d="M366 -12q-99 0 -170.5 37.5t-109.5 114t-38 193.5q0 171 82.5 258.5t235.5 87.5q99 0 170.5 -37.5t109.5 -114t38 -193.5q0 -171 -82.5 -258.5t-235.5 -87.5zM366 102q59 0 98.5 23t59.5 74.5t20 134.5q0 84 -20 134.5t-59.5 73.5t-98.5 23t-98.5 -23.5t-59.5 -74
t-20 -134.5t20 -134.5t59.5 -73.5t98.5 -23zM308 714v94h109v-94h-109zM235 860v83h264v-83h-264z" />
    <glyph glyph-name="uni0231" unicode="&#x231;" horiz-adv-x="584" 
d="M292 -15q-125 0 -187 69t-62 199q0 140 63.5 203t184.5 63q84 0 139.5 -29.5t83.5 -88.5t28 -148q0 -130 -65 -199t-185 -69zM291 89q44 0 71.5 20t40.5 57t13 87q0 57 -13.5 93t-41 53t-70.5 17q-44 0 -71 -18t-39 -54t-12 -91q0 -79 28.5 -121.5t93.5 -42.5zM232 570
v94h109v-94h-109zM159 729v83h264v-83h-264z" />
    <glyph glyph-name="uni0232" unicode="&#x232;" horiz-adv-x="665" 
d="M271 0v294l-252 373h167l196 -317l-60 2l182 315h140l-257 -407l20 74v-334h-136zM217 713v83h264v-83h-264z" />
    <glyph glyph-name="uni0233" unicode="&#x233;" horiz-adv-x="578" 
d="M164 -195q-22 0 -42.5 4.5t-35.5 10.5v106q14 -5 27 -8t28 -3q27 0 46.5 14t32.5 42.5t21 73.5l2 -69l-215 528h145l130 -375h-15l128 375h135l-203 -523q-26 -67 -56.5 -105.5t-62.5 -54.5t-65 -16zM157 559v83h264v-83h-264z" />
    <glyph glyph-name="uni0237" unicode="&#x237;" horiz-adv-x="291" 
d="M3 -193v96q32 0 52 8t30 26t10 47v515h122v-510q0 -67 -26.5 -107t-75 -57.5t-112.5 -17.5z" />
    <glyph glyph-name="uni0259" unicode="&#x259;" horiz-adv-x="558" 
d="M265 514q76 0 132 -30.5t87 -89t31 -142.5q0 -131 -63.5 -201t-179.5 -70q-82 0 -132.5 36t-74 103t-22.5 159h390l9 -87h-298l24 36q2 -79 28 -113t81 -34q35 0 59.5 15t38 51t13.5 99q0 78 -36.5 119.5t-112.5 41.5q-30 0 -59 -6.5t-53.5 -15t-42.5 -17.5v112
q36 16 80 25t101 9z" />
    <glyph glyph-name="uni0272" unicode="&#x272;" horiz-adv-x="598" 
d="M70 5v457q21 11 50 21t63 17.5t69 12t66 4.5q69 0 115.5 -18.5t70.5 -58.5t24 -104v-336h-127v314q0 19 -5 36.5t-17 31t-33 21t-54 7.5q-25 0 -50.5 -5t-44.5 -13v-388q0 -68 -26.5 -108t-74.5 -57t-112 -17v105q32 -1 51 7t27 26t8 45z" />
    <glyph glyph-name="circumflex" unicode="&#x2c6;" horiz-adv-x="415" 
d="M74 564l86 121h104l85 -121h-84l-53 62l-54 -62h-84z" />
    <glyph glyph-name="caron" unicode="&#x2c7;" horiz-adv-x="417" 
d="M160 564l-81 121h84l44 -62l43 62h84l-75 -121h-99z" />
    <glyph glyph-name="uni02C9" unicode="&#x2c9;" horiz-adv-x="399" 
d="M68 633v83h264v-83h-264z" />
    <glyph glyph-name="breve" unicode="&#x2d8;" horiz-adv-x="442" 
d="M219 540q-43 0 -73 16t-47.5 45t-25.5 67h74q8 -23 25.5 -41t46.5 -18t46 18t26 41h74q-5 -38 -23 -67t-48.5 -45t-74.5 -16z" />
    <glyph glyph-name="dotaccent" unicode="&#x2d9;" horiz-adv-x="282" 
d="M88 555v94h109v-94h-109z" />
    <glyph glyph-name="ring" unicode="&#x2da;" horiz-adv-x="409" 
d="M200 535q-57 0 -85.5 24t-28.5 70t28.5 70t85.5 24t85.5 -24t28.5 -70t-28.5 -70t-85.5 -24zM200 589q28 0 39 9t11 31t-11 31t-39 9t-39 -9t-11 -31t11 -31t39 -9z" />
    <glyph glyph-name="ogonek" unicode="&#x2db;" horiz-adv-x="358" 
d="M180 -183q-57 0 -86 23t-29 69q0 34 28.5 62t76.5 47l91 -18q-40 -17 -67.5 -37.5t-27.5 -41.5q0 -20 9.5 -27.5t24.5 -7.5q19 0 35 10.5t28 21.5v-79q-14 -8 -33 -15t-50 -7z" />
    <glyph glyph-name="tilde" unicode="&#x2dc;" horiz-adv-x="454" 
d="M121 535h-62q-5 38 8 68t38 47t55 17q25 0 45.5 -9.5t37 -22t32.5 -22.5t32 -10q17 0 25.5 14t5.5 42h67q3 -39 -10.5 -68t-38 -44.5t-55.5 -15.5q-29 0 -50 9.5t-37.5 22t-30 22t-27.5 9.5q-19 0 -28.5 -17.5t-6.5 -41.5z" />
    <glyph glyph-name="hungarumlaut" unicode="&#x2dd;" horiz-adv-x="401" 
d="M196 560l59 116h96l-88 -116h-67zM60 560l60 116h95l-88 -116h-67z" />
    <glyph glyph-name="gravecomb" unicode="&#x300;" 
d="M138 555l-103 121h125l49 -121h-71z" />
    <glyph glyph-name="acutecomb" unicode="&#x301;" 
d="M62 555l49 121h126l-103 -121h-72z" />
    <glyph glyph-name="uni0302" unicode="&#x302;" 
d="M74 564l86 121h104l85 -121h-84l-53 62l-54 -62h-84z" />
    <glyph glyph-name="tildecomb" unicode="&#x303;" 
d="M121 545h-62q-5 38 8 68t38 47t55 17q25 0 45.5 -9.5t37 -22t32.5 -22.5t32 -10q17 0 25.5 14t5.5 42h67q3 -39 -10.5 -68t-38 -44.5t-55.5 -15.5q-29 0 -50 9.5t-37.5 22t-30 22t-27.5 9.5q-19 0 -28.5 -17.5t-6.5 -41.5z" />
    <glyph glyph-name="uni0304" unicode="&#x304;" 
d="M68 559v83h264v-83h-264z" />
    <glyph glyph-name="uni0306" unicode="&#x306;" 
d="M219 540q-43 0 -73 16t-47.5 45t-25.5 67h74q8 -23 25.5 -41t46.5 -18t46 18t26 41h74q-5 -38 -23 -67t-48.5 -45t-74.5 -16z" />
    <glyph glyph-name="uni0307" unicode="&#x307;" 
d="M88 555v94h109v-94h-109z" />
    <glyph glyph-name="uni0308" unicode="&#x308;" 
d="M238 560v94h115v-94h-115zM65 560v94h114v-94h-114z" />
    <glyph glyph-name="hookabovecomb" unicode="&#x309;" 
d="M89 548v56q19 0 28 7.5t9 16.5q0 13 -11.5 18.5t-32.5 5.5q-6 0 -13.5 -0.5t-15.5 -2.5v54q8 2 21 3t30 1q28 0 52 -7t39 -23.5t15 -44.5q0 -25 -14.5 -41.5t-41.5 -18.5v-24h-65z" />
    <glyph glyph-name="uni030A" unicode="&#x30a;" 
d="M200 535q-57 0 -85.5 24t-28.5 70t28.5 70t85.5 24t85.5 -24t28.5 -70t-28.5 -70t-85.5 -24zM200 589q28 0 39 9t11 31t-11 31t-39 9t-39 -9t-11 -31t11 -31t39 -9z" />
    <glyph glyph-name="uni030B" unicode="&#x30b;" 
d="M196 560l59 116h96l-88 -116h-67zM60 560l60 116h95l-88 -116h-67z" />
    <glyph glyph-name="uni030C" unicode="&#x30c;" 
d="M160 564l-81 121h84l44 -62l43 62h84l-75 -121h-99z" />
    <glyph glyph-name="uni030F" unicode="&#x30f;" 
d="M152 555l-103 121h125l49 -121h-71zM321 555l-103 121h125l49 -121h-71z" />
    <glyph glyph-name="uni0311" unicode="&#x311;" 
d="M219 656q44 0 74.5 -16t48.5 -44.5t23 -67.5h-74q-9 24 -26 41.5t-46 17.5t-46.5 -17.5t-25.5 -41.5h-74q8 39 25.5 67.5t47.5 44.5t73 16z" />
    <glyph glyph-name="uni031B" unicode="&#x31b;" 
d="M98 423l-3 73q31 0 52.5 14.5t21.5 39.5v34h80v-48q0 -38 -20.5 -63t-54.5 -37t-76 -13z" />
    <glyph glyph-name="dotbelowcmb" unicode="&#x323;" 
d="M50 -144v94h100v-94h-100z" />
    <glyph glyph-name="uni0324" unicode="&#x324;" 
d="M238 -135v94h115v-94h-115zM65 -135v94h114v-94h-114z" />
    <glyph glyph-name="uni0326.1" unicode="&#x326;" 
d="M68 -193v64q17 6 25.5 17t11.5 27.5t2 35.5h98q0 -44 -17.5 -75.5t-48 -49t-71.5 -19.5z" />
    <glyph glyph-name="uni0327" unicode="&#x327;" 
d="M49 -129l88 124h85l-55 -124h-118z" />
    <glyph glyph-name="uni0328" unicode="&#x328;" 
d="M180 -183q-57 0 -86 23t-29 69q0 34 28.5 62t76.5 47l91 -18q-40 -17 -67.5 -37.5t-27.5 -41.5q0 -20 9.5 -27.5t24.5 -7.5q19 0 35 10.5t28 21.5v-79q-14 -8 -33 -15t-50 -7z" />
    <glyph glyph-name="uni032E" unicode="&#x32e;" 
d="M219 -145q-43 0 -73 16t-47.5 45t-25.5 67h74q8 -23 25.5 -41t46.5 -18t46 18t26 41h74q-5 -38 -23 -67t-48.5 -45t-74.5 -16z" />
    <glyph glyph-name="uni0331" unicode="&#x331;" 
d="M68 -137v83h264v-83h-264z" />
    <glyph glyph-name="uni0335" unicode="&#x335;" 
d="M63 261v80h284v-80h-284z" />
    <glyph glyph-name="pi" unicode="&#x3c0;" horiz-adv-x="628" 
d="M137 0v404h-103v95h559v-95h-103v-404h-96v404h-161v-404h-96z" />
    <glyph glyph-name="uni1E09" unicode="&#x1e09;" horiz-adv-x="499" 
d="M299 -11q-50 0 -96 14.5t-82 45t-57 80t-21 118.5q0 73 20 124t55 83.5t81.5 47.5t98.5 15q41 0 82.5 -8t75.5 -23v-111q-35 15 -68.5 24.5t-69.5 9.5q-71 0 -110 -35t-39 -114q0 -83 36 -122.5t118 -39.5q37 0 71.5 11t62.5 25v-110q-35 -17 -73 -26t-85 -9zM167 -129
l88 124h85l-55 -124h-118zM242 565l49 121h126l-103 -121h-72z" />
    <glyph glyph-name="uni1E0F" unicode="&#x1e0f;" horiz-adv-x="598" 
d="M302 -15q-52 0 -99 12.5t-83 42.5t-56.5 83t-20.5 134q0 121 59 191t179 70q17 0 44 -3.5t55.5 -13.5t49.5 -29l-28 -41v282h126v-594q0 -34 -20 -59.5t-52.5 -41.5t-72.5 -24.5t-81 -8.5zM307 93q40 0 67.5 10.5t27.5 28.5v256q-22 13 -47 19t-48 6q-45 0 -75.5 -16.5
t-45 -52t-14.5 -90.5q0 -47 12 -83t41.5 -57t81.5 -21zM178 -137v83h264v-83h-264z" />
    <glyph glyph-name="uni1E14" unicode="&#x1e14;" horiz-adv-x="590" 
d="M75 0v667h447v-109h-310v-169h270v-110h-271v-170h311v-109h-447zM170 713v83h264v-83h-264zM274 841l-93 113h116l49 -113h-72z" />
    <glyph glyph-name="uni1E15" unicode="&#x1e15;" horiz-adv-x="558" 
d="M293 -15q-75 0 -131.5 31t-87.5 89.5t-31 141.5q0 132 63.5 202t179.5 70q82 0 133 -36t74 -103t22 -159h-390l-9 86h298l-24 -36q-2 79 -27.5 113.5t-81.5 34.5q-34 0 -59 -15.5t-38.5 -51.5t-13.5 -99q0 -78 36.5 -119t112.5 -41q31 0 59.5 6t53 15.5t42.5 17.5v-113
q-36 -15 -80 -24.5t-101 -9.5zM152 569v83h264v-83h-264zM254 703l-103 121h125l49 -121h-71z" />
    <glyph glyph-name="uni1E16" unicode="&#x1e16;" horiz-adv-x="590" 
d="M75 0v667h447v-109h-310v-169h270v-110h-271v-170h311v-109h-447zM170 713v83h264v-83h-264zM272 847l42 114h133l-108 -114h-67z" />
    <glyph glyph-name="uni1E17" unicode="&#x1e17;" horiz-adv-x="558" 
d="M293 -15q-75 0 -131.5 31t-87.5 89.5t-31 141.5q0 132 63.5 202t179.5 70q82 0 133 -36t74 -103t22 -159h-390l-9 86h298l-24 -36q-2 79 -27.5 113.5t-81.5 34.5q-34 0 -59 -15.5t-38.5 -51.5t-13.5 -99q0 -78 36.5 -119t112.5 -41q31 0 59.5 6t53 15.5t42.5 17.5v-113
q-36 -15 -80 -24.5t-101 -9.5zM152 569v83h264v-83h-264zM247 703l49 121h126l-103 -121h-72z" />
    <glyph glyph-name="uni1E1C" unicode="&#x1e1c;" horiz-adv-x="590" 
d="M75 0v667h447v-109h-310v-169h270v-110h-271v-170h311v-109h-447zM182 -118l88 124h85l-55 -124h-118zM305 699q-43 0 -73 16t-47.5 45t-25.5 67h74q8 -23 25.5 -41t46.5 -18t46 18t26 41h74q-5 -38 -23 -67t-48.5 -45t-74.5 -16z" />
    <glyph glyph-name="uni1E1D" unicode="&#x1e1d;" horiz-adv-x="558" 
d="M293 -15q-75 0 -131.5 31t-87.5 89.5t-31 141.5q0 132 63.5 202t179.5 70q82 0 133 -36t74 -103t22 -159h-390l-9 86h298l-24 -36q-2 79 -27.5 113.5t-81.5 34.5q-34 0 -59 -15.5t-38.5 -51.5t-13.5 -99q0 -78 36.5 -119t112.5 -41q31 0 59.5 6t53 15.5t42.5 17.5v-113
q-36 -15 -80 -24.5t-101 -9.5zM207 -129l88 124h85l-55 -124h-118zM288 550q-43 0 -73 16t-47.5 45t-25.5 67h74q8 -23 25.5 -41t46.5 -18t46 18t26 41h74q-5 -38 -23 -67t-48.5 -45t-74.5 -16z" />
    <glyph glyph-name="uni1E1E" unicode="&#x1e1e;" horiz-adv-x="560" 
d="M75 0v667h441v-109h-305v-179h265v-110h-265v-269h-136zM208 697v94h109v-94h-109z" />
    <glyph glyph-name="uni1E20" unicode="&#x1e20;" horiz-adv-x="701" 
d="M369 -12q-100 0 -172 36t-110.5 112.5t-38.5 197.5q0 119 38.5 196t110.5 113.5t171 36.5q61 0 119 -12t112 -35v-127q-57 29 -108 47t-106 18q-65 0 -109.5 -23t-67 -75t-22.5 -139q0 -86 23 -138t66.5 -75.5t104.5 -23.5q31 0 58.5 4.5t51.5 13.5v139h-125v110h261
v-310q-60 -32 -125 -49t-132 -17zM234 723v83h264v-83h-264z" />
    <glyph glyph-name="uni1E21" unicode="&#x1e21;" horiz-adv-x="586" 
d="M267 -15q-71 3 -121 31.5t-76.5 84t-26.5 136.5q0 85 21 139.5t58.5 85t88 43t108.5 12.5t103.5 -15t72 -44.5t26.5 -73.5v-394q0 -47 -14.5 -84.5t-45 -64.5t-77 -41.5t-109.5 -14.5q-60 0 -104 9t-70 20v114q15 -6 41.5 -14.5t59.5 -14.5t66 -6q53 0 80.5 14t37.5 36.5
t10 50.5v79l29 -22q-17 -19 -41.5 -34t-54 -23.5t-62.5 -8.5zM294 84q28 0 54 6.5t48 19.5v247q0 24 -12.5 35.5t-33 16t-43.5 4.5q-54 0 -83.5 -22t-41 -61t-11.5 -87q0 -72 32 -115.5t91 -43.5zM187 574v83h264v-83h-264z" />
    <glyph glyph-name="uni1E2A" unicode="&#x1e2a;" horiz-adv-x="699" 
d="M75 0v667h136v-278h277v278h136v-667h-136v275h-277v-275h-136zM350 -165q-43 0 -73 16t-47.5 45t-25.5 67h74q8 -23 25.5 -41t46.5 -18t46 18t26 41h74q-5 -38 -23 -67t-48.5 -45t-74.5 -16z" />
    <glyph glyph-name="uni1E2B" unicode="&#x1e2b;" horiz-adv-x="601" 
d="M70 0v710h128v-293l-47 30q39 31 90 50.5t102 19.5q57 0 99 -19.5t65.5 -62t23.5 -113.5v-322h-127v300q0 55 -26.5 82.5t-78.5 27.5q-27 0 -54 -8t-47 -20l-2 -382h-126zM296 -160q-43 0 -73 16t-47.5 45t-25.5 67h74q8 -23 25.5 -41t46.5 -18t46 18t26 41h74
q-5 -38 -23 -67t-48.5 -45t-74.5 -16z" />
    <glyph glyph-name="uni1E2E" unicode="&#x1e2e;" horiz-adv-x="287" 
d="M75 0v667h137v-667h-137zM174 710v94h115v-94h-115zM1 710v94h114v-94h-114zM115 875l42 114h133l-108 -114h-67z" />
    <glyph glyph-name="uni1E2F" unicode="&#x1e2f;" horiz-adv-x="268" 
d="M70 0v499h127l1 -499h-128zM169 560v94h115v-94h-115zM-4 560v94h114v-94h-114zM94 710l49 121h126l-103 -121h-72z" />
    <glyph glyph-name="uni1E36" unicode="&#x1e36;" horiz-adv-x="546" 
d="M75 0v667h137v-556h304v-111h-441zM227 -144v94h100v-94h-100z" />
    <glyph glyph-name="uni1E37" unicode="&#x1e37;" horiz-adv-x="266" 
d="M196 0h-126v695h126v-695zM83 -144v94h100v-94h-100z" />
    <glyph glyph-name="uni1E3A" unicode="&#x1e3a;" horiz-adv-x="546" 
d="M75 0v667h137v-556h304v-111h-441zM142 -137v83h264v-83h-264z" />
    <glyph glyph-name="uni1E3B" unicode="&#x1e3b;" horiz-adv-x="266" 
d="M196 0h-126v695h126v-695zM1 -137v83h264v-83h-264z" />
    <glyph glyph-name="uni1E42" unicode="&#x1e42;" horiz-adv-x="829" 
d="M75 0v667h140l234 -336l-76 -5l244 341h137v-667h-136v559l31 -36l-241 -327l-234 328l32 28v-552h-131zM365 -144v94h100v-94h-100z" />
    <glyph glyph-name="uni1E43" unicode="&#x1e43;" horiz-adv-x="907" 
d="M523 336v-336h-127v314q0 19 -5 36.5t-17 31t-33 21t-54 7.5q-25 0 -48 -5t-42 -13v-392h-127v462q21 11 50 21t63 17.5t69 12t66 4.5q69 0 114.5 -18.5t68 -58.5t22.5 -104zM386 432q32 27 73 45.5t86.5 29t86.5 10.5q69 0 114.5 -18.5t68 -58.5t22.5 -104v-336h-127
v314q0 19 -5 36.5t-17 31t-33 21t-54 7.5q-25 0 -48 -7t-42 -21zM404 -144v94h100v-94h-100z" />
    <glyph glyph-name="uni1E45" unicode="&#x1e45;" horiz-adv-x="598" 
d="M70 462q21 11 50 21t63 17.5t69 12t66 4.5q69 0 115.5 -18.5t70.5 -58.5t24 -104v-336h-127v314q0 19 -5 36.5t-17 31t-33 21t-54 7.5q-25 0 -50.5 -5t-44.5 -13v-392h-127v462zM237 565v94h109v-94h-109z" />
    <glyph glyph-name="uni1E46" unicode="&#x1e46;" horiz-adv-x="724" 
d="M75 0v667h122l364 -497l-39 -80v577h127v-667h-111l-372 500l36 61v-561h-127zM313 -144v94h100v-94h-100z" />
    <glyph glyph-name="uni1E47" unicode="&#x1e47;" horiz-adv-x="598" 
d="M70 462q21 11 50 21t63 17.5t69 12t66 4.5q69 0 115.5 -18.5t70.5 -58.5t24 -104v-336h-127v314q0 19 -5 36.5t-17 31t-33 21t-54 7.5q-25 0 -50.5 -5t-44.5 -13v-392h-127v462zM249 -144v94h100v-94h-100z" />
    <glyph glyph-name="uni1E48" unicode="&#x1e48;" horiz-adv-x="724" 
d="M75 0v667h122l364 -497l-39 -80v577h127v-667h-111l-372 500l36 61v-561h-127zM228 -137v83h264v-83h-264z" />
    <glyph glyph-name="uni1E49" unicode="&#x1e49;" horiz-adv-x="598" 
d="M70 462q21 11 50 21t63 17.5t69 12t66 4.5q69 0 115.5 -18.5t70.5 -58.5t24 -104v-336h-127v314q0 19 -5 36.5t-17 31t-33 21t-54 7.5q-25 0 -50.5 -5t-44.5 -13v-392h-127v462zM166 -137v83h264v-83h-264z" />
    <glyph glyph-name="uni1E4C" unicode="&#x1e4c;" horiz-adv-x="732" 
d="M366 -12q-99 0 -170.5 37.5t-109.5 114t-38 193.5q0 171 82.5 258.5t235.5 87.5q99 0 170.5 -37.5t109.5 -114t38 -193.5q0 -171 -82.5 -258.5t-235.5 -87.5zM366 102q59 0 98.5 23t59.5 74.5t20 134.5q0 84 -20 134.5t-59.5 73.5t-98.5 23t-98.5 -23.5t-59.5 -74
t-20 -134.5t20 -134.5t59.5 -73.5t98.5 -23zM267 737h-62q-5 38 8 68t38 47t55 17q25 0 45.5 -9.5t37 -22t32.5 -22.5t32 -10q17 0 25.5 14t5.5 42h67q3 -39 -10.5 -68t-38 -44.5t-55.5 -15.5q-29 0 -50 9.5t-37.5 22t-30 22t-27.5 9.5q-19 0 -28.5 -17.5t-6.5 -41.5z
M337 934l42 114h133l-108 -114h-67z" />
    <glyph glyph-name="uni1E4D" unicode="&#x1e4d;" horiz-adv-x="584" 
d="M292 -15q-125 0 -187 69t-62 199q0 140 63.5 203t184.5 63q84 0 139.5 -29.5t83.5 -88.5t28 -148q0 -130 -65 -199t-185 -69zM291 89q44 0 71.5 20t40.5 57t13 87q0 57 -13.5 93t-41 53t-70.5 17q-44 0 -71 -18t-39 -54t-12 -91q0 -79 28.5 -121.5t93.5 -42.5zM189 560
h-62q-5 38 8 68t38 47t55 17q25 0 45.5 -9.5t37 -22t32.5 -22.5t32 -10q17 0 25.5 14t5.5 42h67q3 -39 -10.5 -68t-38 -44.5t-55.5 -15.5q-29 0 -50 9.5t-37.5 22t-30 22t-27.5 9.5q-19 0 -28.5 -17.5t-6.5 -41.5zM253 753l49 121h126l-103 -121h-72z" />
    <glyph glyph-name="uni1E4E" unicode="&#x1e4e;" horiz-adv-x="732" 
d="M366 -12q-99 0 -170.5 37.5t-109.5 114t-38 193.5q0 171 82.5 258.5t235.5 87.5q99 0 170.5 -37.5t109.5 -114t38 -193.5q0 -171 -82.5 -258.5t-235.5 -87.5zM366 102q59 0 98.5 23t59.5 74.5t20 134.5q0 84 -20 134.5t-59.5 73.5t-98.5 23t-98.5 -23.5t-59.5 -74
t-20 -134.5t20 -134.5t59.5 -73.5t98.5 -23zM267 737h-62q-5 38 8 68t38 47t55 17q25 0 45.5 -9.5t37 -22t32.5 -22.5t32 -10q17 0 25.5 14t5.5 42h67q3 -39 -10.5 -68t-38 -44.5t-55.5 -15.5q-29 0 -50 9.5t-37.5 22t-30 22t-27.5 9.5q-19 0 -28.5 -17.5t-6.5 -41.5z
M397 921v94h115v-94h-115zM224 921v94h114v-94h-114z" />
    <glyph glyph-name="uni1E4F" unicode="&#x1e4f;" horiz-adv-x="584" 
d="M292 -15q-125 0 -187 69t-62 199q0 140 63.5 203t184.5 63q84 0 139.5 -29.5t83.5 -88.5t28 -148q0 -130 -65 -199t-185 -69zM291 89q44 0 71.5 20t40.5 57t13 87q0 57 -13.5 93t-41 53t-70.5 17q-44 0 -71 -18t-39 -54t-12 -91q0 -79 28.5 -121.5t93.5 -42.5zM189 560
h-62q-5 38 8 68t38 47t55 17q25 0 45.5 -9.5t37 -22t32.5 -22.5t32 -10q17 0 25.5 14t5.5 42h67q3 -39 -10.5 -68t-38 -44.5t-55.5 -15.5q-29 0 -50 9.5t-37.5 22t-30 22t-27.5 9.5q-19 0 -28.5 -17.5t-6.5 -41.5zM328 758v94h115v-94h-115zM155 758v94h114v-94h-114z" />
    <glyph glyph-name="uni1E50" unicode="&#x1e50;" horiz-adv-x="732" 
d="M366 -12q-99 0 -170.5 37.5t-109.5 114t-38 193.5q0 171 82.5 258.5t235.5 87.5q99 0 170.5 -37.5t109.5 -114t38 -193.5q0 -171 -82.5 -258.5t-235.5 -87.5zM366 102q59 0 98.5 23t59.5 74.5t20 134.5q0 84 -20 134.5t-59.5 73.5t-98.5 23t-98.5 -23.5t-59.5 -74
t-20 -134.5t20 -134.5t59.5 -73.5t98.5 -23zM235 728v83h264v-83h-264zM339 856l-93 113h116l49 -113h-72z" />
    <glyph glyph-name="uni1E51" unicode="&#x1e51;" horiz-adv-x="584" 
d="M292 -15q-125 0 -187 69t-62 199q0 140 63.5 203t184.5 63q84 0 139.5 -29.5t83.5 -88.5t28 -148q0 -130 -65 -199t-185 -69zM291 89q44 0 71.5 20t40.5 57t13 87q0 57 -13.5 93t-41 53t-70.5 17q-44 0 -71 -18t-39 -54t-12 -91q0 -79 28.5 -121.5t93.5 -42.5zM159 574
v83h264v-83h-264zM261 708l-103 121h125l49 -121h-71z" />
    <glyph glyph-name="uni1E52" unicode="&#x1e52;" horiz-adv-x="732" 
d="M366 -12q-99 0 -170.5 37.5t-109.5 114t-38 193.5q0 171 82.5 258.5t235.5 87.5q99 0 170.5 -37.5t109.5 -114t38 -193.5q0 -171 -82.5 -258.5t-235.5 -87.5zM366 102q59 0 98.5 23t59.5 74.5t20 134.5q0 84 -20 134.5t-59.5 73.5t-98.5 23t-98.5 -23.5t-59.5 -74
t-20 -134.5t20 -134.5t59.5 -73.5t98.5 -23zM235 728v83h264v-83h-264zM337 862l42 114h133l-108 -114h-67z" />
    <glyph glyph-name="uni1E53" unicode="&#x1e53;" horiz-adv-x="584" 
d="M292 -15q-125 0 -187 69t-62 199q0 140 63.5 203t184.5 63q84 0 139.5 -29.5t83.5 -88.5t28 -148q0 -130 -65 -199t-185 -69zM291 89q44 0 71.5 20t40.5 57t13 87q0 57 -13.5 93t-41 53t-70.5 17q-44 0 -71 -18t-39 -54t-12 -91q0 -79 28.5 -121.5t93.5 -42.5zM159 574
v83h264v-83h-264zM253 708l49 121h126l-103 -121h-72z" />
    <glyph glyph-name="uni1E5E" unicode="&#x1e5e;" horiz-adv-x="687" 
d="M75 0v667h311q108 0 168 -51.5t60 -154.5q0 -48 -19.5 -91.5t-57 -72.5t-91.5 -36l1 45l200 -306h-171l-176 295l61 -54h-150v-241h-136zM211 346h146q54 0 83 26t29 82q0 50 -24 77t-76 27h-158v-212zM209 -137v83h264v-83h-264z" />
    <glyph glyph-name="uni1E5F" unicode="&#x1e5f;" horiz-adv-x="414" 
d="M70 0v455q14 10 49.5 24.5t82.5 26t95 11.5q36 0 57.5 -5.5t34.5 -13.5v-96q-20 3 -45.5 5t-52 1.5t-51 -2.5t-43.5 -5v-401h-127zM-14 -137v83h264v-83h-264z" />
    <glyph glyph-name="uni1E60" unicode="&#x1e60;" horiz-adv-x="571" 
d="M289 -12q-50 0 -89.5 5t-72.5 16t-66 28v132q42 -34 99 -53.5t115 -19.5q54 0 81.5 21.5t27.5 61.5q0 31 -22.5 50t-59.5 33t-81 29q-31 11 -60.5 24.5t-53 34.5t-37.5 52.5t-14 77.5q0 37 14 73t43 65t75.5 46t109.5 17q41 0 71.5 -5t58 -15t58.5 -25v-132
q-24 17 -51 32.5t-57.5 25.5t-66.5 11t-62 -8t-40 -27t-14 -43q0 -31 17.5 -49.5t48.5 -30.5t70 -24t74 -27t61.5 -36.5t41.5 -53.5t15 -78q0 -56 -25.5 -103.5t-77.5 -76t-131 -28.5zM236 714v94h109v-94h-109z" />
    <glyph glyph-name="uni1E61" unicode="&#x1e61;" horiz-adv-x="475" 
d="M218 -15q-54 0 -92 11.5t-73 27.5v115q23 -15 48.5 -28.5t55 -21.5t64.5 -8q39 0 58.5 15t19.5 38q0 20 -15 31.5t-39 19.5t-51 16q-25 6 -50.5 16t-46.5 27t-33.5 43.5t-12.5 64.5q0 45 18 76t47.5 50.5t64 28t67.5 7.5q58 -1 93 -13t66 -29v-104q-35 19 -67.5 34.5
t-75.5 15.5q-39 0 -60.5 -13.5t-21.5 -37.5q0 -21 13 -33.5t34.5 -20t46.5 -14.5t51.5 -15.5t50 -24t38 -42.5t14.5 -70q-1 -59 -31.5 -94.5t-78.5 -51.5t-102 -16zM176 565v94h109v-94h-109z" />
    <glyph glyph-name="uni1E62" unicode="&#x1e62;" horiz-adv-x="571" 
d="M289 -12q-50 0 -89.5 5t-72.5 16t-66 28v132q42 -34 99 -53.5t115 -19.5q54 0 81.5 21.5t27.5 61.5q0 31 -22.5 50t-59.5 33t-81 29q-31 11 -60.5 24.5t-53 34.5t-37.5 52.5t-14 77.5q0 37 14 73t43 65t75.5 46t109.5 17q41 0 71.5 -5t58 -15t58.5 -25v-132
q-24 17 -51 32.5t-57.5 25.5t-66.5 11t-62 -8t-40 -27t-14 -43q0 -31 17.5 -49.5t48.5 -30.5t70 -24t74 -27t61.5 -36.5t41.5 -53.5t15 -78q0 -56 -25.5 -103.5t-77.5 -76t-131 -28.5zM220 -144v94h100v-94h-100z" />
    <glyph glyph-name="uni1E63" unicode="&#x1e63;" horiz-adv-x="475" 
d="M218 -15q-54 0 -92 11.5t-73 27.5v115q23 -15 48.5 -28.5t55 -21.5t64.5 -8q39 0 58.5 15t19.5 38q0 20 -15 31.5t-39 19.5t-51 16q-25 6 -50.5 16t-46.5 27t-33.5 43.5t-12.5 64.5q0 45 18 76t47.5 50.5t64 28t67.5 7.5q58 -1 93 -13t66 -29v-104q-35 19 -67.5 34.5
t-75.5 15.5q-39 0 -60.5 -13.5t-21.5 -37.5q0 -21 13 -33.5t34.5 -20t46.5 -14.5t51.5 -15.5t50 -24t38 -42.5t14.5 -70q-1 -59 -31.5 -94.5t-78.5 -51.5t-102 -16zM167 -144v94h100v-94h-100z" />
    <glyph glyph-name="uni1E64" unicode="&#x1e64;" horiz-adv-x="571" 
d="M289 -12q-50 0 -89.5 5t-72.5 16t-66 28v132q42 -34 99 -53.5t115 -19.5q54 0 81.5 21.5t27.5 61.5q0 31 -22.5 50t-59.5 33t-81 29q-31 11 -60.5 24.5t-53 34.5t-37.5 52.5t-14 77.5q0 37 14 73t43 65t75.5 46t109.5 17q41 0 71.5 -5t58 -15t58.5 -25v-132
q-24 17 -51 32.5t-57.5 25.5t-66.5 11t-62 -8t-40 -27t-14 -43q0 -31 17.5 -49.5t48.5 -30.5t70 -24t74 -27t61.5 -36.5t41.5 -53.5t15 -78q0 -56 -25.5 -103.5t-77.5 -76t-131 -28.5zM302 738l42 114h133l-108 -114h-67zM164 741v94h109v-94h-109z" />
    <glyph glyph-name="uni1E65" unicode="&#x1e65;" horiz-adv-x="475" 
d="M218 -15q-54 0 -92 11.5t-73 27.5v115q23 -15 48.5 -28.5t55 -21.5t64.5 -8q39 0 58.5 15t19.5 38q0 20 -15 31.5t-39 19.5t-51 16q-25 6 -50.5 16t-46.5 27t-33.5 43.5t-12.5 64.5q0 45 18 76t47.5 50.5t64 28t67.5 7.5q58 -1 93 -13t66 -29v-104q-35 19 -67.5 34.5
t-75.5 15.5q-39 0 -60.5 -13.5t-21.5 -37.5q0 -21 13 -33.5t34.5 -20t46.5 -14.5t51.5 -15.5t50 -24t38 -42.5t14.5 -70q-1 -59 -31.5 -94.5t-78.5 -51.5t-102 -16zM197 565l49 121h126l-103 -121h-72zM211 742v94h109v-94h-109z" />
    <glyph glyph-name="uni1E66" unicode="&#x1e66;" horiz-adv-x="571" 
d="M289 -12q-50 0 -89.5 5t-72.5 16t-66 28v132q42 -34 99 -53.5t115 -19.5q54 0 81.5 21.5t27.5 61.5q0 31 -22.5 50t-59.5 33t-81 29q-31 11 -60.5 24.5t-53 34.5t-37.5 52.5t-14 77.5q0 37 14 73t43 65t75.5 46t109.5 17q41 0 71.5 -5t58 -15t58.5 -25v-132
q-24 17 -51 32.5t-57.5 25.5t-66.5 11t-62 -8t-40 -27t-14 -43q0 -31 17.5 -49.5t48.5 -30.5t70 -24t74 -27t61.5 -36.5t41.5 -53.5t15 -78q0 -56 -25.5 -103.5t-77.5 -76t-131 -28.5zM248 717l-81 121h84l44 -62l43 62h84l-75 -121h-99zM238 875v94h109v-94h-109z" />
    <glyph glyph-name="uni1E67" unicode="&#x1e67;" horiz-adv-x="475" 
d="M218 -15q-54 0 -92 11.5t-73 27.5v115q23 -15 48.5 -28.5t55 -21.5t64.5 -8q39 0 58.5 15t19.5 38q0 20 -15 31.5t-39 19.5t-51 16q-25 6 -50.5 16t-46.5 27t-33.5 43.5t-12.5 64.5q0 45 18 76t47.5 50.5t64 28t67.5 7.5q58 -1 93 -13t66 -29v-104q-35 19 -67.5 34.5
t-75.5 15.5q-39 0 -60.5 -13.5t-21.5 -37.5q0 -21 13 -33.5t34.5 -20t46.5 -14.5t51.5 -15.5t50 -24t38 -42.5t14.5 -70q-1 -59 -31.5 -94.5t-78.5 -51.5t-102 -16zM189 574l-81 121h84l44 -62l43 62h84l-75 -121h-99zM176 747v94h109v-94h-109z" />
    <glyph glyph-name="uni1E68" unicode="&#x1e68;" horiz-adv-x="571" 
d="M289 -12q-50 0 -89.5 5t-72.5 16t-66 28v132q42 -34 99 -53.5t115 -19.5q54 0 81.5 21.5t27.5 61.5q0 31 -22.5 50t-59.5 33t-81 29q-31 11 -60.5 24.5t-53 34.5t-37.5 52.5t-14 77.5q0 37 14 73t43 65t75.5 46t109.5 17q41 0 71.5 -5t58 -15t58.5 -25v-132
q-24 17 -51 32.5t-57.5 25.5t-66.5 11t-62 -8t-40 -27t-14 -43q0 -31 17.5 -49.5t48.5 -30.5t70 -24t74 -27t61.5 -36.5t41.5 -53.5t15 -78q0 -56 -25.5 -103.5t-77.5 -76t-131 -28.5zM220 -144v94h100v-94h-100zM236 714v94h109v-94h-109z" />
    <glyph glyph-name="uni1E69" unicode="&#x1e69;" horiz-adv-x="475" 
d="M218 -15q-54 0 -92 11.5t-73 27.5v115q23 -15 48.5 -28.5t55 -21.5t64.5 -8q39 0 58.5 15t19.5 38q0 20 -15 31.5t-39 19.5t-51 16q-25 6 -50.5 16t-46.5 27t-33.5 43.5t-12.5 64.5q0 45 18 76t47.5 50.5t64 28t67.5 7.5q58 -1 93 -13t66 -29v-104q-35 19 -67.5 34.5
t-75.5 15.5q-39 0 -60.5 -13.5t-21.5 -37.5q0 -21 13 -33.5t34.5 -20t46.5 -14.5t51.5 -15.5t50 -24t38 -42.5t14.5 -70q-1 -59 -31.5 -94.5t-78.5 -51.5t-102 -16zM167 -144v94h100v-94h-100zM176 565v94h109v-94h-109z" />
    <glyph glyph-name="uni1E6D" unicode="&#x1e6d;" horiz-adv-x="399" 
d="M263 -16q-78 0 -119 38.5t-41 111.5v270h-78v100h78v140h132v-140h116v-100h-116v-250q0 -30 11.5 -45t41.5 -15q16 0 33.5 5t29.5 13v-110q-19 -10 -42.5 -14t-45.5 -4zM146 -144v94h100v-94h-100z" />
    <glyph glyph-name="uni1E6E" unicode="&#x1e6e;" horiz-adv-x="586" 
d="M224 0v558h-201v109h540v-109h-203v-558h-136zM158 -137v83h264v-83h-264z" />
    <glyph glyph-name="uni1E6F" unicode="&#x1e6f;" horiz-adv-x="399" 
d="M263 -16q-78 0 -119 38.5t-41 111.5v270h-78v100h78v140h132v-140h116v-100h-116v-250q0 -30 11.5 -45t41.5 -15q16 0 33.5 5t29.5 13v-110q-19 -10 -42.5 -14t-45.5 -4zM63 -137v83h264v-83h-264z" />
    <glyph glyph-name="uni1E78" unicode="&#x1e78;" horiz-adv-x="716" 
d="M369 -17q-145 0 -219.5 67.5t-74.5 205.5v411h141v-407q0 -86 36 -127t111 -41q71 0 109.5 41t38.5 127v407h130v-411q0 -92 -34 -153t-95 -90.5t-143 -29.5zM256 727h-62q-5 38 8 68t38 47t55 17q25 0 45.5 -9.5t37 -22t32.5 -22.5t32 -10q17 0 25.5 14t5.5 42h67
q3 -39 -10.5 -68t-38 -44.5t-55.5 -15.5q-29 0 -50 9.5t-37.5 22t-30 22t-27.5 9.5q-19 0 -28.5 -17.5t-6.5 -41.5zM326 924l42 114h133l-108 -114h-67z" />
    <glyph glyph-name="uni1E79" unicode="&#x1e79;" horiz-adv-x="595" 
d="M300 -15q-69 0 -121 22.5t-80.5 67.5t-28.5 115v314h127v-300q0 -56 25 -83t79 -27t78.5 27t24.5 83v300h121v-314q0 -104 -60 -154.5t-165 -50.5zM198 555h-62q-5 38 8 68t38 47t55 17q25 0 45.5 -9.5t37 -22t32.5 -22.5t32 -10q17 0 25.5 14t5.5 42h67q3 -39 -10.5 -68
t-38 -44.5t-55.5 -15.5q-29 0 -50 9.5t-37.5 22t-30 22t-27.5 9.5q-19 0 -28.5 -17.5t-6.5 -41.5zM262 748l49 121h126l-103 -121h-72z" />
    <glyph glyph-name="uni1E7A" unicode="&#x1e7a;" horiz-adv-x="716" 
d="M369 -17q-145 0 -219.5 67.5t-74.5 205.5v411h141v-407q0 -86 36 -127t111 -41q71 0 109.5 41t38.5 127v407h130v-411q0 -92 -34 -153t-95 -90.5t-143 -29.5zM223 718v83h264v-83h-264zM385 839v94h115v-94h-115zM212 839v94h114v-94h-114z" />
    <glyph glyph-name="uni1E7B" unicode="&#x1e7b;" horiz-adv-x="595" 
d="M300 -15q-69 0 -121 22.5t-80.5 67.5t-28.5 115v314h127v-300q0 -56 25 -83t79 -27t78.5 27t24.5 83v300h121v-314q0 -104 -60 -154.5t-165 -50.5zM168 569v83h264v-83h-264zM337 708v94h115v-94h-115zM164 708v94h114v-94h-114z" />
    <glyph glyph-name="Wgrave" unicode="&#x1e80;" horiz-adv-x="1000" 
d="M220 0l-195 667h148l138 -543h-25l159 543h110l163 -550h-29l138 550h148l-195 -667h-135l-158 512h28l-160 -512h-135zM470 718l-93 113h116l49 -113h-72z" />
    <glyph glyph-name="wgrave" unicode="&#x1e81;" horiz-adv-x="818" 
d="M196 0l-168 504h136l120 -419l-39 -4l115 423h98l113 -411h-31l118 411h133l-168 -504h-117l-110 360l22 -6l-105 -354h-117zM377 555l-103 121h125l49 -121h-71z" />
    <glyph glyph-name="Wacute" unicode="&#x1e82;" horiz-adv-x="1000" 
d="M220 0l-195 667h148l138 -543h-25l159 543h110l163 -550h-29l138 550h148l-195 -667h-135l-158 512h28l-160 -512h-135zM468 723l42 114h133l-108 -114h-67z" />
    <glyph glyph-name="wacute" unicode="&#x1e83;" horiz-adv-x="818" 
d="M196 0l-168 504h136l120 -419l-39 -4l115 423h98l113 -411h-31l118 411h133l-168 -504h-117l-110 360l22 -6l-105 -354h-117zM370 555l49 121h126l-103 -121h-72z" />
    <glyph glyph-name="Wdieresis" unicode="&#x1e84;" horiz-adv-x="1000" 
d="M220 0l-195 667h148l138 -543h-25l159 543h110l163 -550h-29l138 550h148l-195 -667h-135l-158 512h28l-160 -512h-135zM528 710v94h115v-94h-115zM355 710v94h114v-94h-114z" />
    <glyph glyph-name="wdieresis" unicode="&#x1e85;" horiz-adv-x="818" 
d="M196 0l-168 504h136l120 -419l-39 -4l115 423h98l113 -411h-31l118 411h133l-168 -504h-117l-110 360l22 -6l-105 -354h-117zM445 560v94h115v-94h-115zM272 560v94h114v-94h-114z" />
    <glyph glyph-name="uni1E8E" unicode="&#x1e8e;" horiz-adv-x="665" 
d="M271 0v294l-252 373h167l196 -317l-60 2l182 315h140l-257 -407l20 74v-334h-136zM291 699v94h109v-94h-109z" />
    <glyph glyph-name="uni1E8F" unicode="&#x1e8f;" horiz-adv-x="578" 
d="M164 -195q-22 0 -42.5 4.5t-35.5 10.5v106q14 -5 27 -8t28 -3q27 0 46.5 14t32.5 42.5t21 73.5l2 -69l-215 528h145l130 -375h-15l128 375h135l-203 -523q-26 -67 -56.5 -105.5t-62.5 -54.5t-65 -16zM230 555v94h109v-94h-109z" />
    <glyph glyph-name="uni1E97" unicode="&#x1e97;" horiz-adv-x="399" 
d="M263 -16q-78 0 -119 38.5t-41 111.5v270h-78v100h78v140h132v-140h116v-100h-116v-250q0 -30 11.5 -45t41.5 -15q16 0 33.5 5t29.5 13v-110q-19 -10 -42.5 -14t-45.5 -4zM197 700v94h115v-94h-115zM24 700v94h114v-94h-114z" />
    <glyph glyph-name="uni1E9E" unicode="&#x1e9e;" horiz-adv-x="719" 
d="M75 0v444q0 74 32 126.5t92.5 81t146.5 28.5q80 0 135 -22t92.5 -59t63.5 -83v-19l-195 -138l9 85q64 -18 113 -48t77 -77t28 -118q0 -42 -15 -81t-44.5 -70t-72.5 -49t-99 -18q-35 0 -75 12.5t-72 33.5v127q26 -28 59 -46.5t73 -18.5q50 0 78 27t28 79q0 49 -24.5 84
t-65 58.5t-89.5 37.5v31l174 121l11 -51q-15 25 -38.5 48.5t-58 39t-82.5 15.5q-43 0 -76 -16.5t-51 -49t-18 -80.5l-1 -435h-135z" />
    <glyph glyph-name="uni1EA0" unicode="&#x1ea0;" horiz-adv-x="678" 
d="M15 0l256 667h147l245 -667h-141l-218 621l60 6l-217 -627h-132zM150 163l33 104h310l12 -104h-355zM290 -144v94h100v-94h-100z" />
    <glyph glyph-name="uni1EA1" unicode="&#x1ea1;" horiz-adv-x="543" 
d="M232 -144v94h100v-94h-100zM259 -15q-43 0 -81 8t-68 27t-47.5 51.5t-17.5 80.5q0 52 21 87.5t61.5 54t99.5 18.5q36 0 67 -6.5t56 -18t41 -24.5l9 -71q-21 14 -53.5 22.5t-70.5 8.5q-53 0 -79 -17t-26 -53q0 -24 14 -41t36 -25t46 -8q55 0 79.5 7.5t24.5 32.5v198
q0 49 -31 71.5t-87 22.5q-43 0 -88 -14.5t-73 -37.5v115q27 18 81 30.5t116 12.5q26 0 55 -4.5t56 -15.5t49 -31t35 -49.5t13 -71.5l-1 -239q0 -46 -29.5 -72.5t-83 -37.5t-124.5 -11z" />
    <glyph glyph-name="uni1EA2" unicode="&#x1ea2;" horiz-adv-x="678" 
d="M15 0l256 667h147l245 -667h-141l-218 621l60 6l-217 -627h-132zM150 163l33 104h310l12 -104h-355zM298 704v56q19 0 28 7.5t9 16.5q0 13 -11.5 18.5t-32.5 5.5q-6 0 -13.5 -0.5t-15.5 -2.5v54q8 2 21 3t30 1q28 0 52 -7t39 -23.5t15 -44.5q0 -25 -14.5 -41.5
t-41.5 -18.5v-24h-65z" />
    <glyph glyph-name="uni1EA3" unicode="&#x1ea3;" horiz-adv-x="567" 
d="M259 -15q-43 0 -81 8t-68 27t-47.5 51.5t-17.5 80.5q0 52 21 87.5t61.5 54t99.5 18.5q36 0 67 -6.5t56 -18t41 -24.5l9 -71q-21 14 -53.5 22.5t-70.5 8.5q-53 0 -79 -17t-26 -53q0 -24 14 -41t36 -25t46 -8q55 0 79.5 7.5t24.5 32.5v198q0 49 -31 71.5t-87 22.5
q-43 0 -88 -14.5t-73 -37.5v115q27 18 81 30.5t116 12.5q26 0 55 -4.5t56 -15.5t49 -31t35 -49.5t13 -71.5l-1 -239q0 -46 -29.5 -72.5t-83 -37.5t-124.5 -11zM256 563v56q19 0 28 7.5t9 16.5q0 13 -11.5 18.5t-32.5 5.5q-6 0 -13.5 -0.5t-15.5 -2.5v54q8 2 21 3t30 1
q28 0 52 -7t39 -23.5t15 -44.5q0 -25 -14.5 -41.5t-41.5 -18.5v-24h-65z" />
    <glyph glyph-name="uni1EA4" unicode="&#x1ea4;" horiz-adv-x="678" 
d="M15 0l256 667h147l245 -667h-141l-218 621l60 6l-217 -627h-132zM150 163l33 104h310l12 -104h-355zM204 717l86 121h104l85 -121h-84l-53 62l-54 -62h-84zM451 790l42 114h133l-108 -114h-67z" />
    <glyph glyph-name="uni1EA5" unicode="&#x1ea5;" horiz-adv-x="567" 
d="M259 -15q-43 0 -81 8t-68 27t-47.5 51.5t-17.5 80.5q0 52 21 87.5t61.5 54t99.5 18.5q36 0 67 -6.5t56 -18t41 -24.5l9 -71q-21 14 -53.5 22.5t-70.5 8.5q-53 0 -79 -17t-26 -53q0 -24 14 -41t36 -25t46 -8q55 0 79.5 7.5t24.5 32.5v198q0 49 -31 71.5t-87 22.5
q-43 0 -88 -14.5t-73 -37.5v115q27 18 81 30.5t116 12.5q26 0 55 -4.5t56 -15.5t49 -31t35 -49.5t13 -71.5l-1 -239q0 -46 -29.5 -72.5t-83 -37.5t-124.5 -11zM151 564l86 121h104l85 -121h-84l-53 62l-54 -62h-84zM397 637l42 114h133l-108 -114h-67z" />
    <glyph glyph-name="uni1EA6" unicode="&#x1ea6;" horiz-adv-x="678" 
d="M15 0l256 667h147l245 -667h-141l-218 621l60 6l-217 -627h-132zM150 163l33 104h310l12 -104h-355zM207 717l86 121h104l85 -121h-84l-53 62l-54 -62h-84zM146 787l-93 113h116l49 -113h-72z" />
    <glyph glyph-name="uni1EA7" unicode="&#x1ea7;" horiz-adv-x="567" 
d="M259 -15q-43 0 -81 8t-68 27t-47.5 51.5t-17.5 80.5q0 52 21 87.5t61.5 54t99.5 18.5q36 0 67 -6.5t56 -18t41 -24.5l9 -71q-21 14 -53.5 22.5t-70.5 8.5q-53 0 -79 -17t-26 -53q0 -24 14 -41t36 -25t46 -8q55 0 79.5 7.5t24.5 32.5v198q0 49 -31 71.5t-87 22.5
q-43 0 -88 -14.5t-73 -37.5v115q27 18 81 30.5t116 12.5q26 0 55 -4.5t56 -15.5t49 -31t35 -49.5t13 -71.5l-1 -239q0 -46 -29.5 -72.5t-83 -37.5t-124.5 -11zM154 564l86 121h104l85 -121h-84l-53 62l-54 -62h-84zM92 634l-93 113h116l49 -113h-72z" />
    <glyph glyph-name="uni1EA8" unicode="&#x1ea8;" horiz-adv-x="678" 
d="M15 0l256 667h147l245 -667h-141l-218 621l60 6l-217 -627h-132zM150 163l33 104h310l12 -104h-355zM194 719l86 121h104l85 -121h-84l-53 62l-54 -62h-84zM456 778v56q19 0 28 7.5t9 16.5q0 13 -11.5 18.5t-32.5 5.5q-6 0 -13.5 -0.5t-15.5 -2.5v54q8 2 21 3t30 1
q28 0 52 -7t39 -23.5t15 -44.5q0 -25 -14.5 -41.5t-41.5 -18.5v-24h-65z" />
    <glyph glyph-name="uni1EA9" unicode="&#x1ea9;" horiz-adv-x="567" 
d="M259 -15q-43 0 -81 8t-68 27t-47.5 51.5t-17.5 80.5q0 52 21 87.5t61.5 54t99.5 18.5q36 0 67 -6.5t56 -18t41 -24.5l9 -71q-21 14 -53.5 22.5t-70.5 8.5q-53 0 -79 -17t-26 -53q0 -24 14 -41t36 -25t46 -8q55 0 79.5 7.5t24.5 32.5v198q0 49 -31 71.5t-87 22.5
q-43 0 -88 -14.5t-73 -37.5v115q27 18 81 30.5t116 12.5q26 0 55 -4.5t56 -15.5t49 -31t35 -49.5t13 -71.5l-1 -239q0 -46 -29.5 -72.5t-83 -37.5t-124.5 -11zM141 566l86 121h104l85 -121h-84l-53 62l-54 -62h-84zM403 625v56q19 0 28 7.5t9 16.5q0 13 -11.5 18.5
t-32.5 5.5q-6 0 -13.5 -0.5t-15.5 -2.5v54q8 2 21 3t30 1q28 0 52 -7t39 -23.5t15 -44.5q0 -25 -14.5 -41.5t-41.5 -18.5v-24h-65z" />
    <glyph glyph-name="uni1EAA" unicode="&#x1eaa;" horiz-adv-x="678" 
d="M15 0l256 667h147l245 -667h-141l-218 621l60 6l-217 -627h-132zM150 163l33 104h310l12 -104h-355zM207 703l86 121h104l85 -121h-84l-53 62l-54 -62h-84zM234 865h-62q-5 38 8 68t38 47t55 17q25 0 45.5 -9.5t37 -22t32.5 -22.5t32 -10q17 0 25.5 14t5.5 42h67
q3 -39 -10.5 -68t-38 -44.5t-55.5 -15.5q-29 0 -50 9.5t-37.5 22t-30 22t-27.5 9.5q-19 0 -28.5 -17.5t-6.5 -41.5z" />
    <glyph glyph-name="uni1EAB" unicode="&#x1eab;" horiz-adv-x="567" 
d="M259 -15q-43 0 -81 8t-68 27t-47.5 51.5t-17.5 80.5q0 52 21 87.5t61.5 54t99.5 18.5q36 0 67 -6.5t56 -18t41 -24.5l9 -71q-21 14 -53.5 22.5t-70.5 8.5q-53 0 -79 -17t-26 -53q0 -24 14 -41t36 -25t46 -8q55 0 79.5 7.5t24.5 32.5v198q0 49 -31 71.5t-87 22.5
q-43 0 -88 -14.5t-73 -37.5v115q27 18 81 30.5t116 12.5q26 0 55 -4.5t56 -15.5t49 -31t35 -49.5t13 -71.5l-1 -239q0 -46 -29.5 -72.5t-83 -37.5t-124.5 -11zM154 550l86 121h104l85 -121h-84l-53 62l-54 -62h-84zM181 712h-62q-5 38 8 68t38 47t55 17q25 0 45.5 -9.5
t37 -22t32.5 -22.5t32 -10q17 0 25.5 14t5.5 42h67q3 -39 -10.5 -68t-38 -44.5t-55.5 -15.5q-29 0 -50 9.5t-37.5 22t-30 22t-27.5 9.5q-19 0 -28.5 -17.5t-6.5 -41.5z" />
    <glyph glyph-name="uni1EAC" unicode="&#x1eac;" horiz-adv-x="678" 
d="M15 0l256 667h147l245 -667h-141l-218 621l60 6l-217 -627h-132zM150 163l33 104h310l12 -104h-355zM290 -144v94h100v-94h-100zM202 713l86 121h104l85 -121h-84l-53 62l-54 -62h-84z" />
    <glyph glyph-name="uni1EAD" unicode="&#x1ead;" horiz-adv-x="543" 
d="M232 -144v94h100v-94h-100zM259 -15q-43 0 -81 8t-68 27t-47.5 51.5t-17.5 80.5q0 52 21 87.5t61.5 54t99.5 18.5q36 0 67 -6.5t56 -18t41 -24.5l9 -71q-21 14 -53.5 22.5t-70.5 8.5q-53 0 -79 -17t-26 -53q0 -24 14 -41t36 -25t46 -8q55 0 79.5 7.5t24.5 32.5v198
q0 49 -31 71.5t-87 22.5q-43 0 -88 -14.5t-73 -37.5v115q27 18 81 30.5t116 12.5q26 0 55 -4.5t56 -15.5t49 -31t35 -49.5t13 -71.5l-1 -239q0 -46 -29.5 -72.5t-83 -37.5t-124.5 -11zM154 574l86 121h104l85 -121h-84l-53 62l-54 -62h-84z" />
    <glyph glyph-name="uni1EAE" unicode="&#x1eae;" horiz-adv-x="678" 
d="M15 0l256 667h147l245 -667h-141l-218 621l60 6l-217 -627h-132zM150 163l33 104h310l12 -104h-355zM340 708q-43 0 -73 16t-47.5 45t-25.5 67h74q8 -23 25.5 -41t46.5 -18t46 18t26 41h74q-5 -38 -23 -67t-48.5 -45t-74.5 -16zM300 858l42 114h133l-108 -114h-67z" />
    <glyph glyph-name="uni1EAF" unicode="&#x1eaf;" horiz-adv-x="567" 
d="M259 -15q-43 0 -81 8t-68 27t-47.5 51.5t-17.5 80.5q0 52 21 87.5t61.5 54t99.5 18.5q36 0 67 -6.5t56 -18t41 -24.5l9 -71q-21 14 -53.5 22.5t-70.5 8.5q-53 0 -79 -17t-26 -53q0 -24 14 -41t36 -25t46 -8q55 0 79.5 7.5t24.5 32.5v198q0 49 -31 71.5t-87 22.5
q-43 0 -88 -14.5t-73 -37.5v115q27 18 81 30.5t116 12.5q26 0 55 -4.5t56 -15.5t49 -31t35 -49.5t13 -71.5l-1 -239q0 -46 -29.5 -72.5t-83 -37.5t-124.5 -11zM287 555q-43 0 -73 16t-47.5 45t-25.5 67h74q8 -23 25.5 -41t46.5 -18t46 18t26 41h74q-5 -38 -23 -67t-48.5 -45
t-74.5 -16zM247 705l42 114h133l-108 -114h-67z" />
    <glyph glyph-name="uni1EB0" unicode="&#x1eb0;" horiz-adv-x="678" 
d="M15 0l256 667h147l245 -667h-141l-218 621l60 6l-217 -627h-132zM150 163l33 104h310l12 -104h-355zM340 708q-43 0 -73 16t-47.5 45t-25.5 67h74q8 -23 25.5 -41t46.5 -18t46 18t26 41h74q-5 -38 -23 -67t-48.5 -45t-74.5 -16zM307 849l-103 121h125l49 -121h-71z" />
    <glyph glyph-name="uni1EB1" unicode="&#x1eb1;" horiz-adv-x="567" 
d="M259 -15q-43 0 -81 8t-68 27t-47.5 51.5t-17.5 80.5q0 52 21 87.5t61.5 54t99.5 18.5q36 0 67 -6.5t56 -18t41 -24.5l9 -71q-21 14 -53.5 22.5t-70.5 8.5q-53 0 -79 -17t-26 -53q0 -24 14 -41t36 -25t46 -8q55 0 79.5 7.5t24.5 32.5v198q0 49 -31 71.5t-87 22.5
q-43 0 -88 -14.5t-73 -37.5v115q27 18 81 30.5t116 12.5q26 0 55 -4.5t56 -15.5t49 -31t35 -49.5t13 -71.5l-1 -239q0 -46 -29.5 -72.5t-83 -37.5t-124.5 -11zM287 555q-43 0 -73 16t-47.5 45t-25.5 67h74q8 -23 25.5 -41t46.5 -18t46 18t26 41h74q-5 -38 -23 -67t-48.5 -45
t-74.5 -16zM253 696l-103 121h125l49 -121h-71z" />
    <glyph glyph-name="uni1EB2" unicode="&#x1eb2;" horiz-adv-x="678" 
d="M15 0l256 667h147l245 -667h-141l-218 621l60 6l-217 -627h-132zM150 163l33 104h310l12 -104h-355zM335 708q-43 0 -73 16t-47.5 45t-25.5 67h74q8 -23 25.5 -41t46.5 -18t46 18t26 41h74q-5 -38 -23 -67t-48.5 -45t-74.5 -16zM304 849v56q19 0 28 7.5t9 16.5
q0 13 -11.5 18.5t-32.5 5.5q-6 0 -13.5 -0.5t-15.5 -2.5v54q8 2 21 3t30 1q28 0 52 -7t39 -23.5t15 -44.5q0 -25 -14.5 -41.5t-41.5 -18.5v-24h-65z" />
    <glyph glyph-name="uni1EB3" unicode="&#x1eb3;" horiz-adv-x="567" 
d="M259 -15q-43 0 -81 8t-68 27t-47.5 51.5t-17.5 80.5q0 52 21 87.5t61.5 54t99.5 18.5q36 0 67 -6.5t56 -18t41 -24.5l9 -71q-21 14 -53.5 22.5t-70.5 8.5q-53 0 -79 -17t-26 -53q0 -24 14 -41t36 -25t46 -8q55 0 79.5 7.5t24.5 32.5v198q0 49 -31 71.5t-87 22.5
q-43 0 -88 -14.5t-73 -37.5v115q27 18 81 30.5t116 12.5q26 0 55 -4.5t56 -15.5t49 -31t35 -49.5t13 -71.5l-1 -239q0 -46 -29.5 -72.5t-83 -37.5t-124.5 -11zM281 555q-43 0 -73 16t-47.5 45t-25.5 67h74q8 -23 25.5 -41t46.5 -18t46 18t26 41h74q-5 -38 -23 -67t-48.5 -45
t-74.5 -16zM250 696v56q19 0 28 7.5t9 16.5q0 13 -11.5 18.5t-32.5 5.5q-6 0 -13.5 -0.5t-15.5 -2.5v54q8 2 21 3t30 1q28 0 52 -7t39 -23.5t15 -44.5q0 -25 -14.5 -41.5t-41.5 -18.5v-24h-65z" />
    <glyph glyph-name="uni1EB4" unicode="&#x1eb4;" horiz-adv-x="678" 
d="M15 0l256 667h147l245 -667h-141l-218 621l60 6l-217 -627h-132zM150 163l33 104h310l12 -104h-355zM340 708q-43 0 -73 16t-47.5 45t-25.5 67h74q8 -23 25.5 -41t46.5 -18t46 18t26 41h74q-5 -38 -23 -67t-48.5 -45t-74.5 -16zM242 883h-62q-5 38 8 68t38 47t55 17
q25 0 45.5 -9.5t37 -22t32.5 -22.5t32 -10q17 0 25.5 14t5.5 42h67q3 -39 -10.5 -68t-38 -44.5t-55.5 -15.5q-29 0 -50 9.5t-37.5 22t-30 22t-27.5 9.5q-19 0 -28.5 -17.5t-6.5 -41.5z" />
    <glyph glyph-name="uni1EB5" unicode="&#x1eb5;" horiz-adv-x="567" 
d="M259 -15q-43 0 -81 8t-68 27t-47.5 51.5t-17.5 80.5q0 52 21 87.5t61.5 54t99.5 18.5q36 0 67 -6.5t56 -18t41 -24.5l9 -71q-21 14 -53.5 22.5t-70.5 8.5q-53 0 -79 -17t-26 -53q0 -24 14 -41t36 -25t46 -8q55 0 79.5 7.5t24.5 32.5v198q0 49 -31 71.5t-87 22.5
q-43 0 -88 -14.5t-73 -37.5v115q27 18 81 30.5t116 12.5q26 0 55 -4.5t56 -15.5t49 -31t35 -49.5t13 -71.5l-1 -239q0 -46 -29.5 -72.5t-83 -37.5t-124.5 -11zM287 555q-43 0 -73 16t-47.5 45t-25.5 67h74q8 -23 25.5 -41t46.5 -18t46 18t26 41h74q-5 -38 -23 -67t-48.5 -45
t-74.5 -16zM189 730h-62q-5 38 8 68t38 47t55 17q25 0 45.5 -9.5t37 -22t32.5 -22.5t32 -10q17 0 25.5 14t5.5 42h67q3 -39 -10.5 -68t-38 -44.5t-55.5 -15.5q-29 0 -50 9.5t-37.5 22t-30 22t-27.5 9.5q-19 0 -28.5 -17.5t-6.5 -41.5z" />
    <glyph glyph-name="uni1EB6" unicode="&#x1eb6;" horiz-adv-x="678" 
d="M15 0l256 667h147l245 -667h-141l-218 621l60 6l-217 -627h-132zM150 163l33 104h310l12 -104h-355zM290 -144v94h100v-94h-100zM340 699q-43 0 -73 16t-47.5 45t-25.5 67h74q8 -23 25.5 -41t46.5 -18t46 18t26 41h74q-5 -38 -23 -67t-48.5 -45t-74.5 -16z" />
    <glyph glyph-name="uni1EB7" unicode="&#x1eb7;" horiz-adv-x="543" 
d="M231 -144v94h100v-94h-100zM277 539q-58 0 -88 28t-30 77h69q1 -23 12 -34.5t37 -11.5t37 11.5t12 34.5h69q0 -49 -30 -77t-88 -28zM259 -15q-43 0 -81 8t-68 27t-47.5 51.5t-17.5 80.5q0 52 21 87.5t61.5 54t99.5 18.5q36 0 67 -6.5t56 -18t41 -24.5l9 -71
q-21 14 -53.5 22.5t-70.5 8.5q-53 0 -79 -17t-26 -53q0 -24 14 -41t36 -25t46 -8q55 0 79.5 7.5t24.5 32.5v198q0 49 -31 71.5t-87 22.5q-43 0 -88 -14.5t-73 -37.5v115q27 18 81 30.5t116 12.5q26 0 55 -4.5t56 -15.5t49 -31t35 -49.5t13 -71.5l-1 -239q0 -46 -29.5 -72.5
t-83 -37.5t-124.5 -11z" />
    <glyph glyph-name="uni1EB8" unicode="&#x1eb8;" horiz-adv-x="590" 
d="M75 0v667h447v-109h-310v-169h270v-110h-271v-170h311v-109h-447zM242 -144v94h100v-94h-100z" />
    <glyph glyph-name="uni1EB9" unicode="&#x1eb9;" horiz-adv-x="558" 
d="M293 -15q-75 0 -131.5 31t-87.5 89.5t-31 141.5q0 132 63.5 202t179.5 70q82 0 133 -36t74 -103t22 -159h-390l-9 86h298l-24 -36q-2 79 -27.5 113.5t-81.5 34.5q-34 0 -59 -15.5t-38.5 -51.5t-13.5 -99q0 -78 36.5 -119t112.5 -41q31 0 59.5 6t53 15.5t42.5 17.5v-113
q-36 -15 -80 -24.5t-101 -9.5zM242 -144v94h100v-94h-100z" />
    <glyph glyph-name="uni1EBA" unicode="&#x1eba;" horiz-adv-x="590" 
d="M75 0v667h447v-109h-310v-169h270v-110h-271v-170h311v-109h-447zM263 704v56q19 0 28 7.5t9 16.5q0 13 -11.5 18.5t-32.5 5.5q-6 0 -13.5 -0.5t-15.5 -2.5v54q8 2 21 3t30 1q28 0 52 -7t39 -23.5t15 -44.5q0 -25 -14.5 -41.5t-41.5 -18.5v-24h-65z" />
    <glyph glyph-name="uni1EBB" unicode="&#x1ebb;" horiz-adv-x="558" 
d="M293 -15q-75 0 -131.5 31t-87.5 89.5t-31 141.5q0 132 63.5 202t179.5 70q82 0 133 -36t74 -103t22 -159h-390l-9 86h298l-24 -36q-2 79 -27.5 113.5t-81.5 34.5q-34 0 -59 -15.5t-38.5 -51.5t-13.5 -99q0 -78 36.5 -119t112.5 -41q31 0 59.5 6t53 15.5t42.5 17.5v-113
q-36 -15 -80 -24.5t-101 -9.5zM257 558v56q19 0 28 7.5t9 16.5q0 13 -11.5 18.5t-32.5 5.5q-6 0 -13.5 -0.5t-15.5 -2.5v54q8 2 21 3t30 1q28 0 52 -7t39 -23.5t15 -44.5q0 -25 -14.5 -41.5t-41.5 -18.5v-24h-65z" />
    <glyph glyph-name="uni1EBC" unicode="&#x1ebc;" horiz-adv-x="590" 
d="M75 0v667h447v-109h-310v-169h270v-110h-271v-170h311v-109h-447zM202 722h-62q-5 38 8 68t38 47t55 17q25 0 45.5 -9.5t37 -22t32.5 -22.5t32 -10q17 0 25.5 14t5.5 42h67q3 -39 -10.5 -68t-38 -44.5t-55.5 -15.5q-29 0 -50 9.5t-37.5 22t-30 22t-27.5 9.5
q-19 0 -28.5 -17.5t-6.5 -41.5z" />
    <glyph glyph-name="uni1EBD" unicode="&#x1ebd;" horiz-adv-x="558" 
d="M293 -15q-75 0 -131.5 31t-87.5 89.5t-31 141.5q0 132 63.5 202t179.5 70q82 0 133 -36t74 -103t22 -159h-390l-9 86h298l-24 -36q-2 79 -27.5 113.5t-81.5 34.5q-34 0 -59 -15.5t-38.5 -51.5t-13.5 -99q0 -78 36.5 -119t112.5 -41q31 0 59.5 6t53 15.5t42.5 17.5v-113
q-36 -15 -80 -24.5t-101 -9.5zM182 555h-62q-5 38 8 68t38 47t55 17q25 0 45.5 -9.5t37 -22t32.5 -22.5t32 -10q17 0 25.5 14t5.5 42h67q3 -39 -10.5 -68t-38 -44.5t-55.5 -15.5q-29 0 -50 9.5t-37.5 22t-30 22t-27.5 9.5q-19 0 -28.5 -17.5t-6.5 -41.5z" />
    <glyph glyph-name="uni1EBE" unicode="&#x1ebe;" horiz-adv-x="590" 
d="M75 0v667h447v-109h-310v-169h270v-110h-271v-170h311v-109h-447zM169 717l86 121h104l85 -121h-84l-53 62l-54 -62h-84zM416 790l42 114h133l-108 -114h-67z" />
    <glyph glyph-name="uni1EBF" unicode="&#x1ebf;" horiz-adv-x="558" 
d="M293 -15q-75 0 -131.5 31t-87.5 89.5t-31 141.5q0 132 63.5 202t179.5 70q82 0 133 -36t74 -103t22 -159h-390l-9 86h298l-24 -36q-2 79 -27.5 113.5t-81.5 34.5q-34 0 -59 -15.5t-38.5 -51.5t-13.5 -99q0 -78 36.5 -119t112.5 -41q31 0 59.5 6t53 15.5t42.5 17.5v-113
q-36 -15 -80 -24.5t-101 -9.5zM152 559l86 121h104l85 -121h-84l-53 62l-54 -62h-84zM398 632l42 114h133l-108 -114h-67z" />
    <glyph glyph-name="uni1EC0" unicode="&#x1ec0;" horiz-adv-x="590" 
d="M75 0v667h447v-109h-310v-169h270v-110h-271v-170h311v-109h-447zM172 717l86 121h104l85 -121h-84l-53 62l-54 -62h-84zM111 787l-93 113h116l49 -113h-72z" />
    <glyph glyph-name="uni1EC1" unicode="&#x1ec1;" horiz-adv-x="558" 
d="M293 -15q-75 0 -131.5 31t-87.5 89.5t-31 141.5q0 132 63.5 202t179.5 70q82 0 133 -36t74 -103t22 -159h-390l-9 86h298l-24 -36q-2 79 -27.5 113.5t-81.5 34.5q-34 0 -59 -15.5t-38.5 -51.5t-13.5 -99q0 -78 36.5 -119t112.5 -41q31 0 59.5 6t53 15.5t42.5 17.5v-113
q-36 -15 -80 -24.5t-101 -9.5zM155 559l86 121h104l85 -121h-84l-53 62l-54 -62h-84zM93 629l-93 113h116l49 -113h-72z" />
    <glyph glyph-name="uni1EC2" unicode="&#x1ec2;" horiz-adv-x="590" 
d="M75 0v667h447v-109h-310v-169h270v-110h-271v-170h311v-109h-447zM159 719l86 121h104l85 -121h-84l-53 62l-54 -62h-84zM421 778v56q19 0 28 7.5t9 16.5q0 13 -11.5 18.5t-32.5 5.5q-6 0 -13.5 -0.5t-15.5 -2.5v54q8 2 21 3t30 1q28 0 52 -7t39 -23.5t15 -44.5
q0 -25 -14.5 -41.5t-41.5 -18.5v-24h-65z" />
    <glyph glyph-name="uni1EC3" unicode="&#x1ec3;" horiz-adv-x="558" 
d="M293 -15q-75 0 -131.5 31t-87.5 89.5t-31 141.5q0 132 63.5 202t179.5 70q82 0 133 -36t74 -103t22 -159h-390l-9 86h298l-24 -36q-2 79 -27.5 113.5t-81.5 34.5q-34 0 -59 -15.5t-38.5 -51.5t-13.5 -99q0 -78 36.5 -119t112.5 -41q31 0 59.5 6t53 15.5t42.5 17.5v-113
q-36 -15 -80 -24.5t-101 -9.5zM142 561l86 121h104l85 -121h-84l-53 62l-54 -62h-84zM404 620v56q19 0 28 7.5t9 16.5q0 13 -11.5 18.5t-32.5 5.5q-6 0 -13.5 -0.5t-15.5 -2.5v54q8 2 21 3t30 1q28 0 52 -7t39 -23.5t15 -44.5q0 -25 -14.5 -41.5t-41.5 -18.5v-24h-65z" />
    <glyph glyph-name="uni1EC4" unicode="&#x1ec4;" horiz-adv-x="590" 
d="M75 0v667h447v-109h-310v-169h270v-110h-271v-170h311v-109h-447zM172 703l86 121h104l85 -121h-84l-53 62l-54 -62h-84zM199 865h-62q-5 38 8 68t38 47t55 17q25 0 45.5 -9.5t37 -22t32.5 -22.5t32 -10q17 0 25.5 14t5.5 42h67q3 -39 -10.5 -68t-38 -44.5t-55.5 -15.5
q-29 0 -50 9.5t-37.5 22t-30 22t-27.5 9.5q-19 0 -28.5 -17.5t-6.5 -41.5z" />
    <glyph glyph-name="uni1EC5" unicode="&#x1ec5;" horiz-adv-x="558" 
d="M293 -15q-75 0 -131.5 31t-87.5 89.5t-31 141.5q0 132 63.5 202t179.5 70q82 0 133 -36t74 -103t22 -159h-390l-9 86h298l-24 -36q-2 79 -27.5 113.5t-81.5 34.5q-34 0 -59 -15.5t-38.5 -51.5t-13.5 -99q0 -78 36.5 -119t112.5 -41q31 0 59.5 6t53 15.5t42.5 17.5v-113
q-36 -15 -80 -24.5t-101 -9.5zM155 545l86 121h104l85 -121h-84l-53 62l-54 -62h-84zM182 707h-62q-5 38 8 68t38 47t55 17q25 0 45.5 -9.5t37 -22t32.5 -22.5t32 -10q17 0 25.5 14t5.5 42h67q3 -39 -10.5 -68t-38 -44.5t-55.5 -15.5q-29 0 -50 9.5t-37.5 22t-30 22
t-27.5 9.5q-19 0 -28.5 -17.5t-6.5 -41.5z" />
    <glyph glyph-name="uni1EC6" unicode="&#x1ec6;" horiz-adv-x="590" 
d="M75 0v667h447v-109h-310v-169h270v-110h-271v-170h311v-109h-447zM242 -144v94h100v-94h-100zM167 713l86 121h104l85 -121h-84l-53 62l-54 -62h-84z" />
    <glyph glyph-name="uni1EC7" unicode="&#x1ec7;" horiz-adv-x="558" 
d="M293 -15q-75 0 -131.5 31t-87.5 89.5t-31 141.5q0 132 63.5 202t179.5 70q82 0 133 -36t74 -103t22 -159h-390l-9 86h298l-24 -36q-2 79 -27.5 113.5t-81.5 34.5q-34 0 -59 -15.5t-38.5 -51.5t-13.5 -99q0 -78 36.5 -119t112.5 -41q31 0 59.5 6t53 15.5t42.5 17.5v-113
q-36 -15 -80 -24.5t-101 -9.5zM155 569l86 121h104l85 -121h-84l-53 62l-54 -62h-84zM242 -144v94h100v-94h-100z" />
    <glyph glyph-name="uni1EC8" unicode="&#x1ec8;" horiz-adv-x="287" 
d="M75 0v667h137v-667h-137zM106 704v56q19 0 28 7.5t9 16.5q0 13 -11.5 18.5t-32.5 5.5q-6 0 -13.5 -0.5t-15.5 -2.5v54q8 2 21 3t30 1q28 0 52 -7t39 -23.5t15 -44.5q0 -25 -14.5 -41.5t-41.5 -18.5v-24h-65z" />
    <glyph glyph-name="uni1EC9" unicode="&#x1ec9;" horiz-adv-x="315" 
d="M98 0v499h122v-499h-122zM135 560v56q15 0 23.5 5.5t8.5 13.5q0 13 -11 18.5t-28 5.5q-14 0 -29 -3v48q8 2 19.5 3t21.5 1q23 0 44 -7t34.5 -22.5t13.5 -40.5q0 -19 -9 -30t-21 -17t-21 -7v-24h-46z" />
    <glyph glyph-name="uni1ECA" unicode="&#x1eca;" horiz-adv-x="287" 
d="M75 0v667h137v-667h-137zM89 -144v94h100v-94h-100z" />
    <glyph glyph-name="uni1ECB" unicode="&#x1ecb;" horiz-adv-x="315" 
d="M98 0v499h122v-499h-122zM109 -144v94h99v-94h-99zM95 572v105h128v-105h-128z" />
    <glyph glyph-name="uni1ECC" unicode="&#x1ecc;" horiz-adv-x="732" 
d="M366 -12q-99 0 -170.5 37.5t-109.5 114t-38 193.5q0 171 82.5 258.5t235.5 87.5q99 0 170.5 -37.5t109.5 -114t38 -193.5q0 -171 -82.5 -258.5t-235.5 -87.5zM366 102q59 0 98.5 23t59.5 74.5t20 134.5q0 84 -20 134.5t-59.5 73.5t-98.5 23t-98.5 -23.5t-59.5 -74
t-20 -134.5t20 -134.5t59.5 -73.5t98.5 -23zM320 -144v94h100v-94h-100z" />
    <glyph glyph-name="uni1ECD" unicode="&#x1ecd;" horiz-adv-x="584" 
d="M292 -15q-125 0 -187 69t-62 199q0 140 63.5 203t184.5 63q84 0 139.5 -29.5t83.5 -88.5t28 -148q0 -130 -65 -199t-185 -69zM291 89q44 0 71.5 20t40.5 57t13 87q0 57 -13.5 93t-41 53t-70.5 17q-44 0 -71 -18t-39 -54t-12 -91q0 -79 28.5 -121.5t93.5 -42.5zM244 -144
v94h100v-94h-100z" />
    <glyph glyph-name="uni1ECE" unicode="&#x1ece;" horiz-adv-x="732" 
d="M366 -12q-99 0 -170.5 37.5t-109.5 114t-38 193.5q0 171 82.5 258.5t235.5 87.5q99 0 170.5 -37.5t109.5 -114t38 -193.5q0 -171 -82.5 -258.5t-235.5 -87.5zM366 102q59 0 98.5 23t59.5 74.5t20 134.5q0 84 -20 134.5t-59.5 73.5t-98.5 23t-98.5 -23.5t-59.5 -74
t-20 -134.5t20 -134.5t59.5 -73.5t98.5 -23zM328 719v56q19 0 28 7.5t9 16.5q0 13 -11.5 18.5t-32.5 5.5q-6 0 -13.5 -0.5t-15.5 -2.5v54q8 2 21 3t30 1q28 0 52 -7t39 -23.5t15 -44.5q0 -25 -14.5 -41.5t-41.5 -18.5v-24h-65z" />
    <glyph glyph-name="uni1ECF" unicode="&#x1ecf;" horiz-adv-x="584" 
d="M292 -15q-125 0 -187 69t-62 199q0 140 63.5 203t184.5 63q84 0 139.5 -29.5t83.5 -88.5t28 -148q0 -130 -65 -199t-185 -69zM291 89q44 0 71.5 20t40.5 57t13 87q0 57 -13.5 93t-41 53t-70.5 17q-44 0 -71 -18t-39 -54t-12 -91q0 -79 28.5 -121.5t93.5 -42.5zM263 563
v56q19 0 28 7.5t9 16.5q0 13 -11.5 18.5t-32.5 5.5q-6 0 -13.5 -0.5t-15.5 -2.5v54q8 2 21 3t30 1q28 0 52 -7t39 -23.5t15 -44.5q0 -25 -14.5 -41.5t-41.5 -18.5v-24h-65z" />
    <glyph glyph-name="uni1ED0" unicode="&#x1ed0;" horiz-adv-x="732" 
d="M366 -12q-99 0 -170.5 37.5t-109.5 114t-38 193.5q0 171 82.5 258.5t235.5 87.5q99 0 170.5 -37.5t109.5 -114t38 -193.5q0 -171 -82.5 -258.5t-235.5 -87.5zM366 102q59 0 98.5 23t59.5 74.5t20 134.5q0 84 -20 134.5t-59.5 73.5t-98.5 23t-98.5 -23.5t-59.5 -74
t-20 -134.5t20 -134.5t59.5 -73.5t98.5 -23zM234 732l86 121h104l85 -121h-84l-53 62l-54 -62h-84zM481 805l42 114h133l-108 -114h-67z" />
    <glyph glyph-name="uni1ED1" unicode="&#x1ed1;" horiz-adv-x="584" 
d="M292 -15q-125 0 -187 69t-62 199q0 140 63.5 203t184.5 63q84 0 139.5 -29.5t83.5 -88.5t28 -148q0 -130 -65 -199t-185 -69zM291 89q44 0 71.5 20t40.5 57t13 87q0 57 -13.5 93t-41 53t-70.5 17q-44 0 -71 -18t-39 -54t-12 -91q0 -79 28.5 -121.5t93.5 -42.5zM158 564
l86 121h104l85 -121h-84l-53 62l-54 -62h-84zM405 637l42 114h133l-108 -114h-67z" />
    <glyph glyph-name="uni1ED2" unicode="&#x1ed2;" horiz-adv-x="732" 
d="M366 -12q-99 0 -170.5 37.5t-109.5 114t-38 193.5q0 171 82.5 258.5t235.5 87.5q99 0 170.5 -37.5t109.5 -114t38 -193.5q0 -171 -82.5 -258.5t-235.5 -87.5zM366 102q59 0 98.5 23t59.5 74.5t20 134.5q0 84 -20 134.5t-59.5 73.5t-98.5 23t-98.5 -23.5t-59.5 -74
t-20 -134.5t20 -134.5t59.5 -73.5t98.5 -23zM237 732l86 121h104l85 -121h-84l-53 62l-54 -62h-84zM176 802l-93 113h116l49 -113h-72z" />
    <glyph glyph-name="uni1ED3" unicode="&#x1ed3;" horiz-adv-x="584" 
d="M292 -15q-125 0 -187 69t-62 199q0 140 63.5 203t184.5 63q84 0 139.5 -29.5t83.5 -88.5t28 -148q0 -130 -65 -199t-185 -69zM291 89q44 0 71.5 20t40.5 57t13 87q0 57 -13.5 93t-41 53t-70.5 17q-44 0 -71 -18t-39 -54t-12 -91q0 -79 28.5 -121.5t93.5 -42.5zM161 564
l86 121h104l85 -121h-84l-53 62l-54 -62h-84zM100 634l-93 113h116l49 -113h-72z" />
    <glyph glyph-name="uni1ED4" unicode="&#x1ed4;" horiz-adv-x="732" 
d="M366 -12q-99 0 -170.5 37.5t-109.5 114t-38 193.5q0 171 82.5 258.5t235.5 87.5q99 0 170.5 -37.5t109.5 -114t38 -193.5q0 -171 -82.5 -258.5t-235.5 -87.5zM366 102q59 0 98.5 23t59.5 74.5t20 134.5q0 84 -20 134.5t-59.5 73.5t-98.5 23t-98.5 -23.5t-59.5 -74
t-20 -134.5t20 -134.5t59.5 -73.5t98.5 -23zM224 734l86 121h104l85 -121h-84l-53 62l-54 -62h-84zM486 793v56q19 0 28 7.5t9 16.5q0 13 -11.5 18.5t-32.5 5.5q-6 0 -13.5 -0.5t-15.5 -2.5v54q8 2 21 3t30 1q28 0 52 -7t39 -23.5t15 -44.5q0 -25 -14.5 -41.5t-41.5 -18.5
v-24h-65z" />
    <glyph glyph-name="uni1ED5" unicode="&#x1ed5;" horiz-adv-x="584" 
d="M292 -15q-125 0 -187 69t-62 199q0 140 63.5 203t184.5 63q84 0 139.5 -29.5t83.5 -88.5t28 -148q0 -130 -65 -199t-185 -69zM291 89q44 0 71.5 20t40.5 57t13 87q0 57 -13.5 93t-41 53t-70.5 17q-44 0 -71 -18t-39 -54t-12 -91q0 -79 28.5 -121.5t93.5 -42.5zM148 566
l86 121h104l85 -121h-84l-53 62l-54 -62h-84zM410 625v56q19 0 28 7.5t9 16.5q0 13 -11.5 18.5t-32.5 5.5q-6 0 -13.5 -0.5t-15.5 -2.5v54q8 2 21 3t30 1q28 0 52 -7t39 -23.5t15 -44.5q0 -25 -14.5 -41.5t-41.5 -18.5v-24h-65z" />
    <glyph glyph-name="uni1ED6" unicode="&#x1ed6;" horiz-adv-x="732" 
d="M366 -12q-99 0 -170.5 37.5t-109.5 114t-38 193.5q0 171 82.5 258.5t235.5 87.5q99 0 170.5 -37.5t109.5 -114t38 -193.5q0 -171 -82.5 -258.5t-235.5 -87.5zM366 102q59 0 98.5 23t59.5 74.5t20 134.5q0 84 -20 134.5t-59.5 73.5t-98.5 23t-98.5 -23.5t-59.5 -74
t-20 -134.5t20 -134.5t59.5 -73.5t98.5 -23zM237 718l86 121h104l85 -121h-84l-53 62l-54 -62h-84zM264 880h-62q-5 38 8 68t38 47t55 17q25 0 45.5 -9.5t37 -22t32.5 -22.5t32 -10q17 0 25.5 14t5.5 42h67q3 -39 -10.5 -68t-38 -44.5t-55.5 -15.5q-29 0 -50 9.5t-37.5 22
t-30 22t-27.5 9.5q-19 0 -28.5 -17.5t-6.5 -41.5z" />
    <glyph glyph-name="uni1ED7" unicode="&#x1ed7;" horiz-adv-x="584" 
d="M292 -15q-125 0 -187 69t-62 199q0 140 63.5 203t184.5 63q84 0 139.5 -29.5t83.5 -88.5t28 -148q0 -130 -65 -199t-185 -69zM291 89q44 0 71.5 20t40.5 57t13 87q0 57 -13.5 93t-41 53t-70.5 17q-44 0 -71 -18t-39 -54t-12 -91q0 -79 28.5 -121.5t93.5 -42.5zM161 550
l86 121h104l85 -121h-84l-53 62l-54 -62h-84zM188 712h-62q-5 38 8 68t38 47t55 17q25 0 45.5 -9.5t37 -22t32.5 -22.5t32 -10q17 0 25.5 14t5.5 42h67q3 -39 -10.5 -68t-38 -44.5t-55.5 -15.5q-29 0 -50 9.5t-37.5 22t-30 22t-27.5 9.5q-19 0 -28.5 -17.5t-6.5 -41.5z" />
    <glyph glyph-name="uni1ED8" unicode="&#x1ed8;" horiz-adv-x="732" 
d="M366 -12q-99 0 -170.5 37.5t-109.5 114t-38 193.5q0 171 82.5 258.5t235.5 87.5q99 0 170.5 -37.5t109.5 -114t38 -193.5q0 -171 -82.5 -258.5t-235.5 -87.5zM366 102q59 0 98.5 23t59.5 74.5t20 134.5q0 84 -20 134.5t-59.5 73.5t-98.5 23t-98.5 -23.5t-59.5 -74
t-20 -134.5t20 -134.5t59.5 -73.5t98.5 -23zM320 -144v94h100v-94h-100zM232 728l86 121h104l85 -121h-84l-53 62l-54 -62h-84z" />
    <glyph glyph-name="uni1ED9" unicode="&#x1ed9;" horiz-adv-x="584" 
d="M292 -15q-125 0 -187 69t-62 199q0 140 63.5 203t184.5 63q84 0 139.5 -29.5t83.5 -88.5t28 -148q0 -130 -65 -199t-185 -69zM291 89q44 0 71.5 20t40.5 57t13 87q0 57 -13.5 93t-41 53t-70.5 17q-44 0 -71 -18t-39 -54t-12 -91q0 -79 28.5 -121.5t93.5 -42.5zM161 574
l86 121h104l85 -121h-84l-53 62l-54 -62h-84zM244 -144v94h100v-94h-100z" />
    <glyph glyph-name="uni1EDA" unicode="&#x1eda;" horiz-adv-x="732" 
d="M366 -12q-99 0 -170.5 37.5t-109.5 114t-38 193.5q0 171 82.5 258.5t235.5 87.5q99 0 170.5 -37.5t109.5 -114t38 -193.5q0 -171 -82.5 -258.5t-235.5 -87.5zM366 102q59 0 98.5 23t59.5 74.5t20 134.5q0 84 -20 134.5t-59.5 73.5t-98.5 23t-98.5 -23.5t-59.5 -74
t-20 -134.5t20 -134.5t59.5 -73.5t98.5 -23zM464 592l-3 73q31 0 52.5 14.5t21.5 39.5v34h80v-48q0 -38 -20.5 -63t-54.5 -37t-76 -13zM337 738l42 114h133l-108 -114h-67z" />
    <glyph glyph-name="uni1EDB" unicode="&#x1edb;" horiz-adv-x="584" 
d="M292 -15q-125 0 -187 69t-62 199q0 140 63.5 203t184.5 63q84 0 139.5 -29.5t83.5 -88.5t28 -148q0 -130 -65 -199t-185 -69zM291 89q44 0 71.5 20t40.5 57t13 87q0 57 -13.5 93t-41 53t-70.5 17q-44 0 -71 -18t-39 -54t-12 -91q0 -79 28.5 -121.5t93.5 -42.5zM389 430
l-3 73q31 0 52.5 14.5t21.5 39.5v34h80v-48q0 -38 -20.5 -63t-54.5 -37t-76 -13zM253 570l49 121h126l-103 -121h-72z" />
    <glyph glyph-name="uni1EDC" unicode="&#x1edc;" horiz-adv-x="732" 
d="M366 -12q-99 0 -170.5 37.5t-109.5 114t-38 193.5q0 171 82.5 258.5t235.5 87.5q99 0 170.5 -37.5t109.5 -114t38 -193.5q0 -171 -82.5 -258.5t-235.5 -87.5zM366 102q59 0 98.5 23t59.5 74.5t20 134.5q0 84 -20 134.5t-59.5 73.5t-98.5 23t-98.5 -23.5t-59.5 -74
t-20 -134.5t20 -134.5t59.5 -73.5t98.5 -23zM464 592l-3 73q31 0 52.5 14.5t21.5 39.5v34h80v-48q0 -38 -20.5 -63t-54.5 -37t-76 -13zM339 733l-93 113h116l49 -113h-72z" />
    <glyph glyph-name="uni1EDD" unicode="&#x1edd;" horiz-adv-x="584" 
d="M292 -15q-125 0 -187 69t-62 199q0 140 63.5 203t184.5 63q84 0 139.5 -29.5t83.5 -88.5t28 -148q0 -130 -65 -199t-185 -69zM291 89q44 0 71.5 20t40.5 57t13 87q0 57 -13.5 93t-41 53t-70.5 17q-44 0 -71 -18t-39 -54t-12 -91q0 -79 28.5 -121.5t93.5 -42.5zM389 430
l-3 73q31 0 52.5 14.5t21.5 39.5v34h80v-48q0 -38 -20.5 -63t-54.5 -37t-76 -13zM261 570l-103 121h125l49 -121h-71z" />
    <glyph glyph-name="uni1EDE" unicode="&#x1ede;" horiz-adv-x="732" 
d="M366 -12q-99 0 -170.5 37.5t-109.5 114t-38 193.5q0 171 82.5 258.5t235.5 87.5q99 0 170.5 -37.5t109.5 -114t38 -193.5q0 -171 -82.5 -258.5t-235.5 -87.5zM366 102q59 0 98.5 23t59.5 74.5t20 134.5q0 84 -20 134.5t-59.5 73.5t-98.5 23t-98.5 -23.5t-59.5 -74
t-20 -134.5t20 -134.5t59.5 -73.5t98.5 -23zM464 592l-3 73q31 0 52.5 14.5t21.5 39.5v34h80v-48q0 -38 -20.5 -63t-54.5 -37t-76 -13zM328 719v56q19 0 28 7.5t9 16.5q0 13 -11.5 18.5t-32.5 5.5q-6 0 -13.5 -0.5t-15.5 -2.5v54q8 2 21 3t30 1q28 0 52 -7t39 -23.5
t15 -44.5q0 -25 -14.5 -41.5t-41.5 -18.5v-24h-65z" />
    <glyph glyph-name="uni1EDF" unicode="&#x1edf;" horiz-adv-x="584" 
d="M292 -15q-125 0 -187 69t-62 199q0 140 63.5 203t184.5 63q84 0 139.5 -29.5t83.5 -88.5t28 -148q0 -130 -65 -199t-185 -69zM291 89q44 0 71.5 20t40.5 57t13 87q0 57 -13.5 93t-41 53t-70.5 17q-44 0 -71 -18t-39 -54t-12 -91q0 -79 28.5 -121.5t93.5 -42.5zM389 430
l-3 73q31 0 52.5 14.5t21.5 39.5v34h80v-48q0 -38 -20.5 -63t-54.5 -37t-76 -13zM263 563v56q19 0 28 7.5t9 16.5q0 13 -11.5 18.5t-32.5 5.5q-6 0 -13.5 -0.5t-15.5 -2.5v54q8 2 21 3t30 1q28 0 52 -7t39 -23.5t15 -44.5q0 -25 -14.5 -41.5t-41.5 -18.5v-24h-65z" />
    <glyph glyph-name="uni1EE0" unicode="&#x1ee0;" horiz-adv-x="732" 
d="M366 -12q-99 0 -170.5 37.5t-109.5 114t-38 193.5q0 171 82.5 258.5t235.5 87.5q99 0 170.5 -37.5t109.5 -114t38 -193.5q0 -171 -82.5 -258.5t-235.5 -87.5zM366 102q59 0 98.5 23t59.5 74.5t20 134.5q0 84 -20 134.5t-59.5 73.5t-98.5 23t-98.5 -23.5t-59.5 -74
t-20 -134.5t20 -134.5t59.5 -73.5t98.5 -23zM464 592l-3 73q31 0 52.5 14.5t21.5 39.5v34h80v-48q0 -38 -20.5 -63t-54.5 -37t-76 -13zM267 737h-62q-5 38 8 68t38 47t55 17q25 0 45.5 -9.5t37 -22t32.5 -22.5t32 -10q17 0 25.5 14t5.5 42h67q3 -39 -10.5 -68t-38 -44.5
t-55.5 -15.5q-29 0 -50 9.5t-37.5 22t-30 22t-27.5 9.5q-19 0 -28.5 -17.5t-6.5 -41.5z" />
    <glyph glyph-name="uni1EE1" unicode="&#x1ee1;" horiz-adv-x="584" 
d="M292 -15q-125 0 -187 69t-62 199q0 140 63.5 203t184.5 63q84 0 139.5 -29.5t83.5 -88.5t28 -148q0 -130 -65 -199t-185 -69zM291 89q44 0 71.5 20t40.5 57t13 87q0 57 -13.5 93t-41 53t-70.5 17q-44 0 -71 -18t-39 -54t-12 -91q0 -79 28.5 -121.5t93.5 -42.5zM389 430
l-3 73q31 0 52.5 14.5t21.5 39.5v34h80v-48q0 -38 -20.5 -63t-54.5 -37t-76 -13zM180 568h-62q-5 38 8 68t38 47t55 17q25 0 45.5 -9.5t37 -22t32.5 -22.5t32 -10q17 0 25.5 14t5.5 42h67q3 -39 -10.5 -68t-38 -44.5t-55.5 -15.5q-29 0 -50 9.5t-37.5 22t-30 22t-27.5 9.5
q-19 0 -28.5 -17.5t-6.5 -41.5z" />
    <glyph glyph-name="uni1EE2" unicode="&#x1ee2;" horiz-adv-x="732" 
d="M366 -12q-99 0 -170.5 37.5t-109.5 114t-38 193.5q0 171 82.5 258.5t235.5 87.5q99 0 170.5 -37.5t109.5 -114t38 -193.5q0 -171 -82.5 -258.5t-235.5 -87.5zM366 102q59 0 98.5 23t59.5 74.5t20 134.5q0 84 -20 134.5t-59.5 73.5t-98.5 23t-98.5 -23.5t-59.5 -74
t-20 -134.5t20 -134.5t59.5 -73.5t98.5 -23zM464 592l-3 73q31 0 52.5 14.5t21.5 39.5v34h80v-48q0 -38 -20.5 -63t-54.5 -37t-76 -13zM320 -144v94h100v-94h-100z" />
    <glyph glyph-name="uni1EE3" unicode="&#x1ee3;" horiz-adv-x="584" 
d="M292 -15q-125 0 -187 69t-62 199q0 140 63.5 203t184.5 63q84 0 139.5 -29.5t83.5 -88.5t28 -148q0 -130 -65 -199t-185 -69zM291 89q44 0 71.5 20t40.5 57t13 87q0 57 -13.5 93t-41 53t-70.5 17q-44 0 -71 -18t-39 -54t-12 -91q0 -79 28.5 -121.5t93.5 -42.5zM389 430
l-3 73q31 0 52.5 14.5t21.5 39.5v34h80v-48q0 -38 -20.5 -63t-54.5 -37t-76 -13zM244 -144v94h100v-94h-100z" />
    <glyph glyph-name="uni1EE4" unicode="&#x1ee4;" horiz-adv-x="716" 
d="M369 -17q-145 0 -219.5 67.5t-74.5 205.5v411h141v-407q0 -86 36 -127t111 -41q71 0 109.5 41t38.5 127v407h130v-411q0 -92 -34 -153t-95 -90.5t-143 -29.5zM308 -144v94h100v-94h-100z" />
    <glyph glyph-name="uni1EE5" unicode="&#x1ee5;" horiz-adv-x="604" 
d="M304 -8q-104 0 -162.5 56t-58.5 169v282h122v-298q0 -56 24 -83.5t75 -27.5t74.5 27.5t23.5 83.5v298h122v-282q0 -113 -58.5 -169t-161.5 -56zM254 -143v94h100v-94h-100z" />
    <glyph glyph-name="uni1EE6" unicode="&#x1ee6;" horiz-adv-x="716" 
d="M369 -17q-145 0 -219.5 67.5t-74.5 205.5v411h141v-407q0 -86 36 -127t111 -41q71 0 109.5 41t38.5 127v407h130v-411q0 -92 -34 -153t-95 -90.5t-143 -29.5zM317 709v56q19 0 28 7.5t9 16.5q0 13 -11.5 18.5t-32.5 5.5q-6 0 -13.5 -0.5t-15.5 -2.5v54q8 2 21 3t30 1
q28 0 52 -7t39 -23.5t15 -44.5q0 -25 -14.5 -41.5t-41.5 -18.5v-24h-65z" />
    <glyph glyph-name="uni1EE7" unicode="&#x1ee7;" horiz-adv-x="604" 
d="M304 -8q-104 0 -162.5 56t-58.5 169v282h122v-298q0 -56 24 -83.5t75 -27.5t74.5 27.5t23.5 83.5v298h122v-282q0 -113 -58.5 -169t-161.5 -56zM283 560v56q14 0 22.5 5.5t8.5 14.5q0 13 -11 18t-27 5q-7 0 -14.5 -0.5t-14.5 -2.5v48q7 2 19 3t21 1q23 0 44 -7t34.5 -22
t13.5 -41q0 -18 -9 -29.5t-21 -17.5t-21 -7v-24h-45z" />
    <glyph glyph-name="uni1EE8" unicode="&#x1ee8;" horiz-adv-x="716" 
d="M369 -17q-145 0 -219.5 67.5t-74.5 205.5v411h141v-407q0 -86 36 -127t111 -41q71 0 109.5 41t38.5 127v407h130v-411q0 -92 -34 -153t-95 -90.5t-143 -29.5zM590 593l-3 73q31 0 52.5 14.5t21.5 39.5v34h80v-48q0 -38 -20.5 -63t-54.5 -37t-76 -13zM326 728l42 114h133
l-108 -114h-67z" />
    <glyph glyph-name="uni1EE9" unicode="&#x1ee9;" horiz-adv-x="632" 
d="M300 -15q-69 0 -121 22.5t-80.5 67.5t-28.5 115v314h127v-300q0 -56 25 -83t79 -27t78.5 27t24.5 83v300h121v-314q0 -104 -60 -154.5t-165 -50.5zM471 430l-3 73q31 0 52.5 14.5t21.5 39.5v34h80v-48q0 -38 -20.5 -63t-54.5 -37t-76 -13zM262 565l49 121h126l-103 -121
h-72z" />
    <glyph glyph-name="uni1EEA" unicode="&#x1eea;" horiz-adv-x="716" 
d="M369 -17q-145 0 -219.5 67.5t-74.5 205.5v411h141v-407q0 -86 36 -127t111 -41q71 0 109.5 41t38.5 127v407h130v-411q0 -92 -34 -153t-95 -90.5t-143 -29.5zM590 593l-3 73q31 0 52.5 14.5t21.5 39.5v34h80v-48q0 -38 -20.5 -63t-54.5 -37t-76 -13zM327 723l-93 113h116
l49 -113h-72z" />
    <glyph glyph-name="uni1EEB" unicode="&#x1eeb;" horiz-adv-x="632" 
d="M300 -15q-69 0 -121 22.5t-80.5 67.5t-28.5 115v314h127v-300q0 -56 25 -83t79 -27t78.5 27t24.5 83v300h121v-314q0 -104 -60 -154.5t-165 -50.5zM471 430l-3 73q31 0 52.5 14.5t21.5 39.5v34h80v-48q0 -38 -20.5 -63t-54.5 -37t-76 -13zM270 565l-103 121h125l49 -121
h-71z" />
    <glyph glyph-name="uni1EEC" unicode="&#x1eec;" horiz-adv-x="716" 
d="M369 -17q-145 0 -219.5 67.5t-74.5 205.5v411h141v-407q0 -86 36 -127t111 -41q71 0 109.5 41t38.5 127v407h130v-411q0 -92 -34 -153t-95 -90.5t-143 -29.5zM590 593l-3 73q31 0 52.5 14.5t21.5 39.5v34h80v-48q0 -38 -20.5 -63t-54.5 -37t-76 -13zM317 709v56
q19 0 28 7.5t9 16.5q0 13 -11.5 18.5t-32.5 5.5q-6 0 -13.5 -0.5t-15.5 -2.5v54q8 2 21 3t30 1q28 0 52 -7t39 -23.5t15 -44.5q0 -25 -14.5 -41.5t-41.5 -18.5v-24h-65z" />
    <glyph glyph-name="uni1EED" unicode="&#x1eed;" horiz-adv-x="632" 
d="M300 -15q-69 0 -121 22.5t-80.5 67.5t-28.5 115v314h127v-300q0 -56 25 -83t79 -27t78.5 27t24.5 83v300h121v-314q0 -104 -60 -154.5t-165 -50.5zM471 430l-3 73q31 0 52.5 14.5t21.5 39.5v34h80v-48q0 -38 -20.5 -63t-54.5 -37t-76 -13zM272 558v56q19 0 28 7.5t9 16.5
q0 13 -11.5 18.5t-32.5 5.5q-6 0 -13.5 -0.5t-15.5 -2.5v54q8 2 21 3t30 1q28 0 52 -7t39 -23.5t15 -44.5q0 -25 -14.5 -41.5t-41.5 -18.5v-24h-65z" />
    <glyph glyph-name="uni1EEE" unicode="&#x1eee;" horiz-adv-x="716" 
d="M369 -17q-145 0 -219.5 67.5t-74.5 205.5v411h141v-407q0 -86 36 -127t111 -41q71 0 109.5 41t38.5 127v407h130v-411q0 -92 -34 -153t-95 -90.5t-143 -29.5zM590 593l-3 73q31 0 52.5 14.5t21.5 39.5v34h80v-48q0 -38 -20.5 -63t-54.5 -37t-76 -13zM256 727h-62
q-5 38 8 68t38 47t55 17q25 0 45.5 -9.5t37 -22t32.5 -22.5t32 -10q17 0 25.5 14t5.5 42h67q3 -39 -10.5 -68t-38 -44.5t-55.5 -15.5q-29 0 -50 9.5t-37.5 22t-30 22t-27.5 9.5q-19 0 -28.5 -17.5t-6.5 -41.5z" />
    <glyph glyph-name="uni1EEF" unicode="&#x1eef;" horiz-adv-x="632" 
d="M300 -15q-69 0 -121 22.5t-80.5 67.5t-28.5 115v314h127v-300q0 -56 25 -83t79 -27t78.5 27t24.5 83v300h121v-314q0 -104 -60 -154.5t-165 -50.5zM471 430l-3 73q31 0 52.5 14.5t21.5 39.5v34h80v-48q0 -38 -20.5 -63t-54.5 -37t-76 -13zM198 555h-62q-5 38 8 68t38 47
t55 17q25 0 45.5 -9.5t37 -22t32.5 -22.5t32 -10q17 0 25.5 14t5.5 42h67q3 -39 -10.5 -68t-38 -44.5t-55.5 -15.5q-29 0 -50 9.5t-37.5 22t-30 22t-27.5 9.5q-19 0 -28.5 -17.5t-6.5 -41.5z" />
    <glyph glyph-name="uni1EF0" unicode="&#x1ef0;" horiz-adv-x="716" 
d="M369 -17q-145 0 -219.5 67.5t-74.5 205.5v411h141v-407q0 -86 36 -127t111 -41q71 0 109.5 41t38.5 127v407h130v-411q0 -92 -34 -153t-95 -90.5t-143 -29.5zM590 593l-3 73q31 0 52.5 14.5t21.5 39.5v34h80v-48q0 -38 -20.5 -63t-54.5 -37t-76 -13zM308 -144v94h100v-94
h-100z" />
    <glyph glyph-name="uni1EF1" unicode="&#x1ef1;" horiz-adv-x="632" 
d="M300 -15q-69 0 -121 22.5t-80.5 67.5t-28.5 115v314h127v-300q0 -56 25 -83t79 -27t78.5 27t24.5 83v300h121v-314q0 -104 -60 -154.5t-165 -50.5zM471 430l-3 73q31 0 52.5 14.5t21.5 39.5v34h80v-48q0 -38 -20.5 -63t-54.5 -37t-76 -13zM248 -144v94h100v-94h-100z" />
    <glyph glyph-name="Ygrave" unicode="&#x1ef2;" horiz-adv-x="665" 
d="M271 0v294l-252 373h167l196 -317l-60 2l182 315h140l-257 -407l20 74v-334h-136zM321 718l-93 113h116l49 -113h-72z" />
    <glyph glyph-name="ygrave" unicode="&#x1ef3;" horiz-adv-x="578" 
d="M164 -195q-22 0 -42.5 4.5t-35.5 10.5v106q14 -5 27 -8t28 -3q27 0 46.5 14t32.5 42.5t21 73.5l2 -69l-215 528h145l130 -375h-15l128 375h135l-203 -523q-26 -67 -56.5 -105.5t-62.5 -54.5t-65 -16zM259 555l-103 121h125l49 -121h-71z" />
    <glyph glyph-name="uni1EF4" unicode="&#x1ef4;" horiz-adv-x="665" 
d="M271 0v294l-252 373h167l196 -317l-60 2l182 315h140l-257 -407l20 74v-334h-136zM283 -144v94h100v-94h-100z" />
    <glyph glyph-name="uni1EF5" unicode="&#x1ef5;" horiz-adv-x="578" 
d="M164 -195q-22 0 -42.5 4.5t-35.5 10.5v106q14 -5 27 -8t28 -3q27 0 46.5 14t32.5 42.5t21 73.5l2 -69l-215 528h145l130 -375h-15l128 375h135l-203 -523q-26 -67 -56.5 -105.5t-62.5 -54.5t-65 -16zM397 -144v94h100v-94h-100z" />
    <glyph glyph-name="uni1EF6" unicode="&#x1ef6;" horiz-adv-x="665" 
d="M271 0v294l-252 373h167l196 -317l-60 2l182 315h140l-257 -407l20 74v-334h-136zM311 704v56q19 0 28 7.5t9 16.5q0 13 -11.5 18.5t-32.5 5.5q-6 0 -13.5 -0.5t-15.5 -2.5v54q8 2 21 3t30 1q28 0 52 -7t39 -23.5t15 -44.5q0 -25 -14.5 -41.5t-41.5 -18.5v-24h-65z" />
    <glyph glyph-name="uni1EF7" unicode="&#x1ef7;" horiz-adv-x="578" 
d="M164 -195q-22 0 -42.5 4.5t-35.5 10.5v106q14 -5 27 -8t28 -3q27 0 46.5 14t32.5 42.5t21 73.5l2 -69l-215 528h145l130 -375h-15l128 375h135l-203 -523q-26 -67 -56.5 -105.5t-62.5 -54.5t-65 -16zM261 548v56q19 0 28 7.5t9 16.5q0 13 -11.5 18.5t-32.5 5.5
q-6 0 -13.5 -0.5t-15.5 -2.5v54q8 2 21 3t30 1q28 0 52 -7t39 -23.5t15 -44.5q0 -25 -14.5 -41.5t-41.5 -18.5v-24h-65z" />
    <glyph glyph-name="uni1EF8" unicode="&#x1ef8;" horiz-adv-x="665" 
d="M271 0v294l-252 373h167l196 -317l-60 2l182 315h140l-257 -407l20 74v-334h-136zM250 722h-62q-5 38 8 68t38 47t55 17q25 0 45.5 -9.5t37 -22t32.5 -22.5t32 -10q17 0 25.5 14t5.5 42h67q3 -39 -10.5 -68t-38 -44.5t-55.5 -15.5q-29 0 -50 9.5t-37.5 22t-30 22
t-27.5 9.5q-19 0 -28.5 -17.5t-6.5 -41.5z" />
    <glyph glyph-name="uni1EF9" unicode="&#x1ef9;" horiz-adv-x="578" 
d="M164 -195q-22 0 -42.5 4.5t-35.5 10.5v106q14 -5 27 -8t28 -3q27 0 46.5 14t32.5 42.5t21 73.5l2 -69l-215 528h145l130 -375h-15l128 375h135l-203 -523q-26 -67 -56.5 -105.5t-62.5 -54.5t-65 -16zM187 545h-62q-5 38 8 68t38 47t55 17q25 0 45.5 -9.5t37 -22
t32.5 -22.5t32 -10q17 0 25.5 14t5.5 42h67q3 -39 -10.5 -68t-38 -44.5t-55.5 -15.5q-29 0 -50 9.5t-37.5 22t-30 22t-27.5 9.5q-19 0 -28.5 -17.5t-6.5 -41.5z" />
    <glyph glyph-name="endash" unicode="&#x2013;" horiz-adv-x="560" 
d="M69 245v90h420v-90h-420z" />
    <glyph glyph-name="emdash" unicode="&#x2014;" horiz-adv-x="891" 
d="M79 245v92h733v-92h-733z" />
    <glyph glyph-name="quoteleft" unicode="&#x2018;" horiz-adv-x="278" 
d="M137 480l-90 196h111l74 -196h-95z" />
    <glyph glyph-name="quoteright" unicode="&#x2019;" horiz-adv-x="278" 
d="M47 480l74 196h111l-90 -196h-95z" />
    <glyph glyph-name="quotesinglbase" unicode="&#x201a;" horiz-adv-x="321" 
d="M72 -112l74 196h110l-89 -196h-95z" />
    <glyph glyph-name="quotedblleft" unicode="&#x201c;" horiz-adv-x="435" 
d="M293 480l-90 196h110l74 -196h-94zM138 480l-90 196h110l74 -196h-94z" />
    <glyph glyph-name="quotedblright" unicode="&#x201d;" horiz-adv-x="433" 
d="M203 480l74 196h110l-90 -196h-94zM48 480l74 196h110l-90 -196h-94z" />
    <glyph glyph-name="quotedblbase" unicode="&#x201e;" horiz-adv-x="476" 
d="M227 -112l74 196h111l-90 -196h-95zM72 -112l74 196h110l-89 -196h-95z" />
    <glyph glyph-name="dagger" unicode="&#x2020;" horiz-adv-x="468" 
d="M201 95v373h-113v68h113v128h68v-128h113v-68h-113v-373h-68z" />
    <glyph glyph-name="daggerdbl" unicode="&#x2021;" horiz-adv-x="499" 
d="M205 0v136h-137v86h137v180h-137v86h137v137h86v-137h136v-86h-136v-180h136v-86h-136v-136h-86z" />
    <glyph glyph-name="bullet" unicode="&#x2022;" horiz-adv-x="473" 
d="M236 181q-41 0 -75 20t-54 54t-20 75t20 74.5t54 53.5t75 20t74.5 -20t53.5 -53.5t20 -74.5t-20 -75t-53.5 -54t-74.5 -20z" />
    <glyph glyph-name="ellipsis" unicode="&#x2026;" horiz-adv-x="837" 
d="M107 0v109h112v-109h-112zM364 0v109h112v-109h-112zM621 0v109h112v-109h-112z" />
    <glyph glyph-name="perthousand" unicode="&#x2030;" horiz-adv-x="1168" 
d="M190 311q-82 0 -120 46.5t-38 137.5t38 137.5t120 46.5q83 0 120.5 -46.5t37.5 -137.5t-37.5 -137.5t-120.5 -46.5zM190 386q13 0 28 7.5t26 31.5t11 70q0 47 -11 70t-26 31t-28 8q-12 0 -27.5 -8t-26.5 -31t-11 -70q0 -46 11 -70t26.5 -31.5t27.5 -7.5zM615 -9
q-82 0 -120 46.5t-38 137.5t38 137.5t120 46.5q83 0 120.5 -46.5t37.5 -137.5t-37.5 -137.5t-120.5 -46.5zM615 66q13 0 28 7.5t26 31.5t11 70q0 47 -11 70t-26 31t-28 8q-12 0 -27.5 -8t-26.5 -31t-11 -70q0 -46 11 -70t26.5 -31.5t27.5 -7.5zM978 -9q-82 0 -120 46.5
t-38 137.5t38 137.5t120 46.5q83 0 120.5 -46.5t37.5 -137.5t-37.5 -137.5t-120.5 -46.5zM978 66q13 0 28 7.5t26 31.5t11 70q0 47 -11 70t-26 31t-28 8q-12 0 -27.5 -8t-26.5 -31t-11 -70q0 -46 11 -70t26.5 -31.5t27.5 -7.5zM149 -22l407 707h96l-407 -707h-96z" />
    <glyph glyph-name="guilsinglleft" unicode="&#x2039;" horiz-adv-x="374" 
d="M200 64l-169 191l169 190h131l-180 -190l180 -191h-131z" />
    <glyph glyph-name="guilsinglright" unicode="&#x203a;" horiz-adv-x="396" 
d="M53 64l180 191l-180 190h131l169 -190l-169 -191h-131z" />
    <glyph glyph-name="fraction" unicode="&#x2044;" horiz-adv-x="418" 
d="M-43 -22l407 707h96l-407 -707h-96z" />
    <glyph glyph-name="zero.superior" unicode="&#x2070;" horiz-adv-x="380" 
d="M190 459q-82 0 -120 46.5t-38 137.5t38 137.5t120 46.5q83 0 120.5 -46.5t37.5 -137.5t-37.5 -137.5t-120.5 -46.5zM190 534q13 0 28 7.5t26 31.5t11 70q0 47 -11 70t-26 31t-28 8q-12 0 -27.5 -8t-26.5 -31t-11 -70q0 -46 11 -70t26.5 -31.5t27.5 -7.5z" />
    <glyph glyph-name="four.superior" unicode="&#x2074;" horiz-adv-x="336" 
d="M177 464v84h-150v71l163 204h76v-202h47v-73h-47v-84h-89zM107 621h70v122l33 6z" />
    <glyph glyph-name="five.superior" unicode="&#x2075;" horiz-adv-x="323" 
d="M169 459q-35 0 -62.5 6.5t-47.5 16.5v77q16 -10 38.5 -18t45.5 -8q28 0 42 11t14 34q0 20 -8.5 30.5t-22 15t-26.5 4.5q-20 0 -34.5 -6.5t-19.5 -9.5l-37 40l19 170h203v-76h-137l-6 -58q10 2 22 3.5t34 1.5q23 0 48.5 -10t43.5 -34.5t18 -69.5q0 -46 -18 -72.5t-47 -37
t-62 -10.5z" />
    <glyph glyph-name="six.superior" unicode="&#x2076;" horiz-adv-x="343" 
d="M179 459q-87 0 -123.5 43t-36.5 126q0 68 19 107.5t49 59.5t64.5 26t65.5 6q17 0 34 -3t29 -7v-67q-17 5 -31 7t-26 2t-29 -3.5t-33.5 -13t-28.5 -27.5t-14 -47q9 10 28 19t57 9q46 0 78 -28t32 -83q0 -34 -14 -62.5t-43.5 -46t-76.5 -17.5zM169 522q24 0 35 17t11 41
q0 27 -13.5 40.5t-31.5 13.5t-32.5 -11t-20.5 -21q1 -29 9 -46.5t20 -25.5t23 -8z" />
    <glyph glyph-name="seven.superior" unicode="&#x2077;" horiz-adv-x="319" 
d="M64 463l149 333l41 -60h-216v86h258v-48l-132 -311h-100z" />
    <glyph glyph-name="eight.superior" unicode="&#x2078;" horiz-adv-x="338" 
d="M169 459q-51 0 -83 14.5t-46.5 40t-14.5 55.5q0 28 12.5 46.5t28.5 28.5t25 13q-7 2 -19.5 10.5t-23 24.5t-10.5 39q0 28 13 49.5t42 34t76 12.5t75.5 -12.5t41.5 -34t13 -49.5q0 -24 -10 -39.5t-22 -24t-19 -10.5q9 -3 25 -13t28.5 -28.5t12.5 -46.5q0 -30 -15 -55.5
t-46.5 -40t-83.5 -14.5zM169 526q27 0 37.5 14.5t10.5 34.5q0 21 -13 34.5t-35 13.5t-35 -13.5t-13 -34.5q0 -20 12.5 -34.5t35.5 -14.5zM169 682q18 0 28.5 10.5t10.5 28.5q0 19 -10 29t-29 10q-16 0 -27 -10t-11 -30q0 -17 10.5 -27.5t27.5 -10.5z" />
    <glyph glyph-name="nine.superior" unicode="&#x2079;" horiz-adv-x="344" 
d="M117 459q-17 0 -34 2.5t-29 7.5v67q18 -5 31.5 -7.5t25.5 -2.5t29 3.5t33.5 13t28.5 27.5t14 47q-9 -9 -28 -18.5t-57 -9.5q-46 0 -78 28.5t-32 82.5q0 35 14 63.5t43.5 45.5t76.5 17q87 0 123.5 -42.5t36.5 -126.5q0 -67 -19 -107t-49 -59.5t-64.5 -25.5t-65.5 -6z
M158 651q23 0 38 11t21 21q0 30 -8 47.5t-20.5 25t-28.5 7.5t-25 -9.5t-12.5 -23t-3.5 -25.5q0 -26 12.5 -40t26.5 -14z" />
    <glyph glyph-name="zero.inferior" unicode="&#x2080;" horiz-adv-x="380" 
d="M190 -154q-82 0 -120 46.5t-38 137.5t38 137.5t120 46.5q83 0 120.5 -46.5t37.5 -137.5t-37.5 -137.5t-120.5 -46.5zM190 -79q13 0 28 7.5t26 31.5t11 70q0 47 -11 70t-26 31t-28 8q-12 0 -27.5 -8t-26.5 -31t-11 -70q0 -46 11 -70t26.5 -31.5t27.5 -7.5z" />
    <glyph glyph-name="one.inferior" unicode="&#x2081;" horiz-adv-x="242" 
d="M85 -149v294l15 -35l-65 -38v93l71 45h73v-359h-94z" />
    <glyph glyph-name="two.inferior" unicode="&#x2082;" horiz-adv-x="334" 
d="M48 -149v53q21 16 46 36t48 43.5t37.5 49t14.5 51.5q0 25 -17 38.5t-40 13.5q-28 0 -48.5 -10t-37.5 -22v79q20 12 47 21.5t58 9.5q51 0 80.5 -16t42 -40.5t12.5 -50.5q0 -36 -20 -71t-52 -64t-68 -50l-10 15h153v-86h-246z" />
    <glyph glyph-name="three.inferior" unicode="&#x2083;" horiz-adv-x="329" 
d="M149 -154q-29 0 -54.5 8t-47.5 18v76q22 -13 42.5 -21.5t45.5 -8.5t43 11.5t18 34.5q0 21 -16.5 33t-46.5 12h-39v62h41q18 0 31 9.5t13 29.5q0 14 -15.5 22.5t-36.5 8.5q-20 0 -38.5 -5.5t-33.5 -13.5v70q19 9 41.5 15.5t48.5 6.5q36 0 65.5 -11.5t47.5 -33.5t18 -53
q0 -22 -10 -37.5t-22 -24t-19 -9.5q15 -6 31 -17t26.5 -29.5t10.5 -46.5q0 -26 -11.5 -45.5t-31 -33t-45.5 -20.5t-56 -7z" />
    <glyph glyph-name="four.inferior" unicode="&#x2084;" horiz-adv-x="336" 
d="M177 -149v84h-150v71l163 204h76v-202h47v-73h-47v-84h-89zM107 8h70v122l33 6z" />
    <glyph glyph-name="five.inferior" unicode="&#x2085;" horiz-adv-x="323" 
d="M169 -153q-35 0 -62.5 6.5t-47.5 16.5v77q16 -10 38.5 -18t45.5 -8q28 0 42 11t14 34q0 20 -8.5 30.5t-22 15t-26.5 4.5q-20 0 -34.5 -6.5t-19.5 -9.5l-37 40l19 170h203v-76h-137l-6 -58q10 2 22 3.5t34 1.5q23 0 48.5 -10t43.5 -34.5t18 -69.5q0 -46 -18 -72.5t-47 -37
t-62 -10.5z" />
    <glyph glyph-name="six.inferior" unicode="&#x2086;" horiz-adv-x="343" 
d="M179 -154q-87 0 -123.5 43t-36.5 126q0 68 19 107.5t49 59.5t64.5 26t65.5 6q17 0 34 -3t29 -7v-67q-17 5 -31 7t-26 2t-29 -3.5t-33.5 -13t-28.5 -27.5t-14 -47q9 10 28 19t57 9q46 0 78 -28t32 -83q0 -34 -14 -62.5t-43.5 -46t-76.5 -17.5zM169 -91q24 0 35 17t11 41
q0 27 -13.5 40.5t-31.5 13.5t-32.5 -11t-20.5 -21q1 -29 9 -46.5t20 -25.5t23 -8z" />
    <glyph glyph-name="seven.inferior" unicode="&#x2087;" horiz-adv-x="319" 
d="M64 -149l149 333l41 -60h-216v86h258v-48l-132 -311h-100z" />
    <glyph glyph-name="eight.inferior" unicode="&#x2088;" horiz-adv-x="338" 
d="M169 -154q-51 0 -83 14.5t-46.5 40t-14.5 55.5q0 28 12.5 46.5t28.5 28.5t25 13q-7 2 -19.5 10.5t-23 24.5t-10.5 39q0 28 13 49.5t42 34t76 12.5t75.5 -12.5t41.5 -34t13 -49.5q0 -24 -10 -39.5t-22 -24t-19 -10.5q9 -3 25 -13t28.5 -28.5t12.5 -46.5q0 -30 -15 -55.5
t-46.5 -40t-83.5 -14.5zM169 -87q27 0 37.5 14.5t10.5 34.5q0 21 -13 34.5t-35 13.5t-35 -13.5t-13 -34.5q0 -20 12.5 -34.5t35.5 -14.5zM169 69q18 0 28.5 10.5t10.5 28.5q0 19 -10 29t-29 10q-16 0 -27 -10t-11 -30q0 -17 10.5 -27.5t27.5 -10.5z" />
    <glyph glyph-name="nine.inferior" unicode="&#x2089;" horiz-adv-x="344" 
d="M117 -153q-17 0 -34 2.5t-29 7.5v67q18 -5 31.5 -7.5t25.5 -2.5t29 3.5t33.5 13t28.5 27.5t14 47q-9 -9 -28 -18.5t-57 -9.5q-46 0 -78 28.5t-32 82.5q0 35 14 63.5t43.5 45.5t76.5 17q87 0 123.5 -42.5t36.5 -126.5q0 -67 -19 -107t-49 -59.5t-64.5 -25.5t-65.5 -6z
M158 39q23 0 38 11t21 21q0 30 -8 47.5t-20.5 25t-28.5 7.5t-25 -9.5t-12.5 -23t-3.5 -25.5q0 -26 12.5 -40t26.5 -14z" />
    <glyph glyph-name="colonmonetary" unicode="&#x20a1;" horiz-adv-x="677" 
d="M371 -11q-159 0 -241 84.5t-82 260.5q0 171 80 258.5t243 87.5q22 0 47.5 -3.5t51.5 -10.5t48 -17l-17 -48q-28 -5 -56 -12.5t-56 -17.5q-66 0 -110.5 -23.5t-67 -75.5t-22.5 -139q0 -86 22.5 -137.5t68 -74.5t114.5 -23q41 0 88.5 13.5t97.5 44.5v-120q-29 -14 -64 -25
t-72.5 -16.5t-72.5 -5.5zM54 -41l375 671l89 -1l-374 -670h-90zM208 -40l374 691h90l-374 -691h-90z" />
    <glyph glyph-name="franc" unicode="&#x20a3;" horiz-adv-x="561" 
d="M75 0v667h441v-109h-305v-179h265v-110h-265v-269h-136zM4 95v80h284v-80h-284z" />
    <glyph glyph-name="lira" unicode="&#x20a4;" horiz-adv-x="600" 
d="M132 487q0 45 20.5 88.5t67 72t124.5 28.5q46 0 87 -14t73 -32v-116q-30 22 -63.5 36t-72.5 14q-41 0 -66.5 -12t-37.5 -33t-12 -46v-355q36 -9 71 -17t68 -10q28 0 55.5 7.5t57.5 24.5v-109q-26 -18 -52 -25t-54 -7q-38 1 -77 9.5t-78 17.5t-78 9q-29 1 -57.5 -6.5
t-57.5 -26.5v112q23 14 43 17.5t39 6.5v366zM50 199v89h370v-89h-370zM50 321v88h370v-88h-370z" />
    <glyph glyph-name="uni20A6" unicode="&#x20a6;" horiz-adv-x="724" 
d="M7 289v81h710v-81h-710zM75 0v667h122l364 -497l-39 -80v577h127v-667h-111l-372 500l36 61v-561h-127z" />
    <glyph glyph-name="peseta" unicode="&#x20a7;" horiz-adv-x="658" 
d="M13 402v80h151v-80h-151zM492 402v80h160v-80h-160zM211 229v-229h-136v667h282q116 0 180.5 -53t64.5 -161t-64.5 -166t-180.5 -58h-146zM211 339h129q35 0 57.5 8t35.5 23.5t18.5 34.5t5.5 41q0 23 -5.5 43t-18.5 36t-35.5 24.5t-57.5 8.5h-129v-219z" />
    <glyph glyph-name="uni20A9" unicode="&#x20a9;" horiz-adv-x="975" 
d="M29 318v81h908v-81h-908zM220 0l-195 667h148l138 -543h-25l159 543h110l163 -550h-29l138 550h148l-195 -667h-135l-158 512h28l-160 -512h-135z" />
    <glyph glyph-name="dong" unicode="&#x20ab;" horiz-adv-x="430" 
d="M199 128q-31 0 -62.5 7t-56.5 25.5t-40 52t-15 87.5q0 48 13 83.5t36 58.5t52 34.5t61 11.5q24 0 47 -3t36 -9v53h-78v80h78v54h102v-54h49v-80h-49v-266q0 -37 -18 -68t-56 -49t-99 -18zM36 1v80h340v-80h-340zM200 212q38 0 54 11.5t16 29.5v142q-12 5 -26.5 8t-27.5 3
q-41 0 -65 -24.5t-24 -73.5q0 -26 7 -44.5t18 -30t24 -16.5t24 -5z" />
    <glyph glyph-name="Euro" unicode="&#x20ac;" horiz-adv-x="698" 
d="M432 -7q-53 0 -101 12t-87.5 38t-67.5 68t-42 103h-85v76h74q-1 11 -1.5 22t-0.5 22q0 12 0.5 23t1.5 22h-74v76h85q14 61 42 103t67.5 68t87.5 38t101 12t105.5 -11.5t103.5 -31.5v-109q-51 23 -99.5 33.5t-100.5 10.5q-68 0 -112.5 -26.5t-65.5 -86.5h258v-76h-276
q-1 -11 -1.5 -22t-0.5 -23q0 -11 0.5 -22t1.5 -22h276v-76h-258q21 -60 65.5 -86.5t112.5 -26.5q52 0 100.5 10.5t99.5 32.5v-109q-51 -20 -103.5 -31t-105.5 -11z" />
    <glyph glyph-name="uni20AD" unicode="&#x20ad;" horiz-adv-x="661" 
d="M19 340v80h511v-80h-511zM204 204l-39 101l283 362h172zM75 0v667h137v-667h-137zM340 403l301 -403h-174l-232 315z" />
    <glyph glyph-name="uni20B1" unicode="&#x20b1;" horiz-adv-x="650" 
d="M13 457v81h151v-81h-151zM492 457v81h160v-81h-160zM13 324v80h151v-80h-151zM492 324v80h160v-80h-160zM211 229v-229h-136v667h282q116 0 180.5 -53t64.5 -161t-64.5 -166t-180.5 -58h-146zM211 339h129q35 0 57.5 8t35.5 23.5t18.5 34.5t5.5 41q0 23 -5.5 43t-18.5 36
t-35.5 24.5t-57.5 8.5h-129v-219z" />
    <glyph glyph-name="uni20B2" unicode="&#x20b2;" horiz-adv-x="701" 
d="M316 625v127h102v-127h-102zM316 -99v132h102v-132h-102zM369 -12q-100 0 -172 36t-110.5 112.5t-38.5 197.5q0 119 38.5 196t110.5 113.5t171 36.5q61 0 119 -12t112 -35v-127q-57 29 -108 47t-106 18q-65 0 -109.5 -23t-67 -75t-22.5 -139q0 -86 23 -138t66.5 -75.5
t104.5 -23.5q31 0 58.5 4.5t51.5 13.5v139h-125v110h261v-310q-60 -32 -125 -49t-132 -17z" />
    <glyph glyph-name="uni20B5" unicode="&#x20b5;" horiz-adv-x="628" 
d="M313 617v135h102v-135h-102zM313 -99v139h102v-139h-102zM366 -11q-159 0 -241 84.5t-82 260.5q0 171 80 258.5t243 87.5q53 0 106 -13t103 -36v-120q-50 32 -98.5 46t-92.5 14q-66 0 -110.5 -23.5t-67 -75.5t-22.5 -139q0 -86 22.5 -137.5t68 -74.5t114.5 -23
q41 0 88.5 13.5t97.5 44.5v-120q-29 -14 -64 -25t-72.5 -16.5t-72.5 -5.5z" />
    <glyph glyph-name="uni20B9" unicode="&#x20b9;" horiz-adv-x="512" 
d="M340 558l-130 108q109 0 168.5 -51t59.5 -154q0 -48 -19.5 -91.5t-57 -72.5t-91.5 -36l1 45l201 -306h-172l-176 295l62 -54h-121v105h116q55 0 83.5 26t28.5 82q0 50 -24 77t-75 27h-129v109h125h285v-109h-135z" />
    <glyph glyph-name="uni20BA" unicode="&#x20ba;" horiz-adv-x="553" 
d="M303 97q42 1 89.5 14.5t98.5 44.5v-120q-29 -14 -64.5 -25t-72.5 -16.5t-73 -5.5q-128 0 -206 56v622h137v-551q20 -12 46 -15.5t45 -3.5zM21 386l289 212v-97l-289 -207v92zM21 245l289 211v-97l-289 -206v92z" />
    <glyph glyph-name="uni20BC" unicode="&#x20bc;" horiz-adv-x="716" 
d="M348 685q145 0 219 -67.5t74 -205.5v-412h-141v408q0 85 -36 126.5t-111 41.5q-71 0 -109.5 -41.5t-38.5 -126.5v-408h-130v412q0 92 34 152.5t95.5 90.5t143.5 30zM303 1v765h102v-765h-102z" />
    <glyph glyph-name="uni20BD" unicode="&#x20bd;" horiz-adv-x="650" 
d="M211 229v-229h-136v667h282q116 0 180.5 -53t64.5 -161t-64.5 -166t-180.5 -58h-146zM211 339h129q35 0 57.5 8t35.5 23.5t18.5 34.5t5.5 41q0 23 -5.5 43t-18.5 36t-35.5 24.5t-57.5 8.5h-129v-219zM16 84v80h284v-80h-284zM16 258v80h284v-80h-284z" />
    </font>
</defs>
</svg>
